ISO-10303-21;
HEADER;
/* Generated by software containing ST-Developer
 * from STEP Tools, Inc. (www.steptools.com) 
 */

FILE_DESCRIPTION(
/* description */ (''),
/* implementation_level */ '2;1');

FILE_NAME(
/* name */ 'reference-iwr6843levm.step',
/* time_stamp */ '2026-09-11T16:58:11-07:00',
/* author */ (''),
/* organization */ (''),
/* preprocessor_version */ 'ST-DEVELOPER v20.2',
/* originating_system */ 'Autodesk Translation Framework v15.15.0.0',
/* authorisation */ '');

FILE_SCHEMA (('AUTOMOTIVE_DESIGN { 1 0 10303 214 3 1 1 }'));
ENDSEC;

DATA;
#10=MECHANICAL_DESIGN_GEOMETRIC_PRESENTATION_REPRESENTATION('',(#13,#14,
#15,#16,#17,#18,#19,#20,#21,#22),#1920);
#11=SHAPE_REPRESENTATION_RELATIONSHIP('SRR','None',#1927,#12);
#12=ADVANCED_BREP_SHAPE_REPRESENTATION('',(#23,#24,#25,#26,#27,#28,#29,
#30,#31,#32),#1919);
#13=STYLED_ITEM('',(#1936),#23);
#14=STYLED_ITEM('',(#1936),#24);
#15=STYLED_ITEM('',(#1936),#25);
#16=STYLED_ITEM('',(#1936),#26);
#17=STYLED_ITEM('',(#1936),#27);
#18=STYLED_ITEM('',(#1936),#28);
#19=STYLED_ITEM('',(#1936),#29);
#20=STYLED_ITEM('',(#1936),#30);
#21=STYLED_ITEM('',(#1936),#31);
#22=STYLED_ITEM('',(#1936),#32);
#23=MANIFOLD_SOLID_BREP('reference-iwr6843levm 1',#1179);
#24=MANIFOLD_SOLID_BREP('reference-iwr6843levm 2',#1180);
#25=MANIFOLD_SOLID_BREP('reference-iwr6843levm 3',#1181);
#26=MANIFOLD_SOLID_BREP('reference-iwr6843levm 4',#1182);
#27=MANIFOLD_SOLID_BREP('reference-iwr6843levm 5',#1183);
#28=MANIFOLD_SOLID_BREP('reference-iwr6843levm 6',#1184);
#29=MANIFOLD_SOLID_BREP('reference-iwr6843levm 7',#1185);
#30=MANIFOLD_SOLID_BREP('reference-iwr6843levm 8',#1186);
#31=MANIFOLD_SOLID_BREP('reference-iwr6843levm 9',#1187);
#32=MANIFOLD_SOLID_BREP('reference-iwr6843levm 10',#1188);
#33=FACE_BOUND('',#196,.T.);
#34=FACE_BOUND('',#197,.T.);
#35=FACE_BOUND('',#198,.T.);
#36=FACE_BOUND('',#199,.T.);
#37=FACE_BOUND('',#200,.T.);
#38=FACE_BOUND('',#201,.T.);
#39=FACE_BOUND('',#202,.T.);
#40=FACE_BOUND('',#203,.T.);
#41=FACE_BOUND('',#205,.T.);
#42=FACE_BOUND('',#206,.T.);
#43=FACE_BOUND('',#207,.T.);
#44=FACE_BOUND('',#208,.T.);
#45=FACE_BOUND('',#209,.T.);
#46=FACE_BOUND('',#210,.T.);
#47=FACE_BOUND('',#211,.T.);
#48=FACE_BOUND('',#212,.T.);
#49=PLANE('',#1226);
#50=PLANE('',#1227);
#51=PLANE('',#1228);
#52=PLANE('',#1229);
#53=PLANE('',#1230);
#54=PLANE('',#1231);
#55=PLANE('',#1232);
#56=PLANE('',#1233);
#57=PLANE('',#1234);
#58=PLANE('',#1235);
#59=PLANE('',#1236);
#60=PLANE('',#1237);
#61=PLANE('',#1238);
#62=PLANE('',#1239);
#63=PLANE('',#1240);
#64=PLANE('',#1241);
#65=PLANE('',#1242);
#66=PLANE('',#1243);
#67=PLANE('',#1244);
#68=PLANE('',#1245);
#69=PLANE('',#1246);
#70=PLANE('',#1247);
#71=PLANE('',#1248);
#72=PLANE('',#1249);
#73=PLANE('',#1250);
#74=PLANE('',#1251);
#75=PLANE('',#1252);
#76=PLANE('',#1253);
#77=PLANE('',#1254);
#78=PLANE('',#1255);
#79=PLANE('',#1256);
#80=PLANE('',#1257);
#81=PLANE('',#1258);
#82=PLANE('',#1259);
#83=PLANE('',#1260);
#84=PLANE('',#1261);
#85=PLANE('',#1262);
#86=PLANE('',#1263);
#87=PLANE('',#1264);
#88=PLANE('',#1265);
#89=PLANE('',#1266);
#90=PLANE('',#1267);
#91=PLANE('',#1268);
#92=PLANE('',#1269);
#93=PLANE('',#1270);
#94=PLANE('',#1271);
#95=PLANE('',#1272);
#96=PLANE('',#1273);
#97=PLANE('',#1274);
#98=PLANE('',#1275);
#99=PLANE('',#1276);
#100=PLANE('',#1277);
#101=PLANE('',#1278);
#102=PLANE('',#1279);
#103=PLANE('',#1280);
#104=PLANE('',#1281);
#105=PLANE('',#1282);
#106=PLANE('',#1283);
#107=PLANE('',#1284);
#108=PLANE('',#1285);
#109=PLANE('',#1286);
#110=PLANE('',#1287);
#111=FACE_OUTER_BOUND('',#181,.T.);
#112=FACE_OUTER_BOUND('',#182,.T.);
#113=FACE_OUTER_BOUND('',#183,.T.);
#114=FACE_OUTER_BOUND('',#184,.T.);
#115=FACE_OUTER_BOUND('',#185,.T.);
#116=FACE_OUTER_BOUND('',#186,.T.);
#117=FACE_OUTER_BOUND('',#187,.T.);
#118=FACE_OUTER_BOUND('',#188,.T.);
#119=FACE_OUTER_BOUND('',#189,.T.);
#120=FACE_OUTER_BOUND('',#190,.T.);
#121=FACE_OUTER_BOUND('',#191,.T.);
#122=FACE_OUTER_BOUND('',#192,.T.);
#123=FACE_OUTER_BOUND('',#193,.T.);
#124=FACE_OUTER_BOUND('',#194,.T.);
#125=FACE_OUTER_BOUND('',#195,.T.);
#126=FACE_OUTER_BOUND('',#204,.T.);
#127=FACE_OUTER_BOUND('',#213,.T.);
#128=FACE_OUTER_BOUND('',#214,.T.);
#129=FACE_OUTER_BOUND('',#215,.T.);
#130=FACE_OUTER_BOUND('',#216,.T.);
#131=FACE_OUTER_BOUND('',#217,.T.);
#132=FACE_OUTER_BOUND('',#218,.T.);
#133=FACE_OUTER_BOUND('',#219,.T.);
#134=FACE_OUTER_BOUND('',#220,.T.);
#135=FACE_OUTER_BOUND('',#221,.T.);
#136=FACE_OUTER_BOUND('',#222,.T.);
#137=FACE_OUTER_BOUND('',#223,.T.);
#138=FACE_OUTER_BOUND('',#224,.T.);
#139=FACE_OUTER_BOUND('',#225,.T.);
#140=FACE_OUTER_BOUND('',#226,.T.);
#141=FACE_OUTER_BOUND('',#227,.T.);
#142=FACE_OUTER_BOUND('',#228,.T.);
#143=FACE_OUTER_BOUND('',#229,.T.);
#144=FACE_OUTER_BOUND('',#230,.T.);
#145=FACE_OUTER_BOUND('',#231,.T.);
#146=FACE_OUTER_BOUND('',#232,.T.);
#147=FACE_OUTER_BOUND('',#233,.T.);
#148=FACE_OUTER_BOUND('',#234,.T.);
#149=FACE_OUTER_BOUND('',#235,.T.);
#150=FACE_OUTER_BOUND('',#236,.T.);
#151=FACE_OUTER_BOUND('',#237,.T.);
#152=FACE_OUTER_BOUND('',#238,.T.);
#153=FACE_OUTER_BOUND('',#239,.T.);
#154=FACE_OUTER_BOUND('',#240,.T.);
#155=FACE_OUTER_BOUND('',#241,.T.);
#156=FACE_OUTER_BOUND('',#242,.T.);
#157=FACE_OUTER_BOUND('',#243,.T.);
#158=FACE_OUTER_BOUND('',#244,.T.);
#159=FACE_OUTER_BOUND('',#245,.T.);
#160=FACE_OUTER_BOUND('',#246,.T.);
#161=FACE_OUTER_BOUND('',#247,.T.);
#162=FACE_OUTER_BOUND('',#248,.T.);
#163=FACE_OUTER_BOUND('',#249,.T.);
#164=FACE_OUTER_BOUND('',#250,.T.);
#165=FACE_OUTER_BOUND('',#251,.T.);
#166=FACE_OUTER_BOUND('',#252,.T.);
#167=FACE_OUTER_BOUND('',#253,.T.);
#168=FACE_OUTER_BOUND('',#254,.T.);
#169=FACE_OUTER_BOUND('',#255,.T.);
#170=FACE_OUTER_BOUND('',#256,.T.);
#171=FACE_OUTER_BOUND('',#257,.T.);
#172=FACE_OUTER_BOUND('',#258,.T.);
#173=FACE_OUTER_BOUND('',#259,.T.);
#174=FACE_OUTER_BOUND('',#260,.T.);
#175=FACE_OUTER_BOUND('',#261,.T.);
#176=FACE_OUTER_BOUND('',#262,.T.);
#177=FACE_OUTER_BOUND('',#263,.T.);
#178=FACE_OUTER_BOUND('',#264,.T.);
#179=FACE_OUTER_BOUND('',#265,.T.);
#180=FACE_OUTER_BOUND('',#266,.T.);
#181=EDGE_LOOP('',(#801,#802,#803,#804));
#182=EDGE_LOOP('',(#805,#806,#807,#808));
#183=EDGE_LOOP('',(#809,#810,#811,#812));
#184=EDGE_LOOP('',(#813,#814,#815,#816));
#185=EDGE_LOOP('',(#817,#818,#819,#820));
#186=EDGE_LOOP('',(#821,#822,#823,#824));
#187=EDGE_LOOP('',(#825,#826,#827,#828));
#188=EDGE_LOOP('',(#829,#830,#831,#832));
#189=EDGE_LOOP('',(#833,#834,#835,#836));
#190=EDGE_LOOP('',(#837,#838,#839,#840));
#191=EDGE_LOOP('',(#841,#842,#843,#844));
#192=EDGE_LOOP('',(#845,#846,#847,#848));
#193=EDGE_LOOP('',(#849,#850,#851,#852));
#194=EDGE_LOOP('',(#853,#854,#855,#856));
#195=EDGE_LOOP('',(#857,#858,#859,#860,#861,#862));
#196=EDGE_LOOP('',(#863));
#197=EDGE_LOOP('',(#864));
#198=EDGE_LOOP('',(#865));
#199=EDGE_LOOP('',(#866));
#200=EDGE_LOOP('',(#867));
#201=EDGE_LOOP('',(#868));
#202=EDGE_LOOP('',(#869));
#203=EDGE_LOOP('',(#870));
#204=EDGE_LOOP('',(#871,#872,#873,#874,#875,#876));
#205=EDGE_LOOP('',(#877));
#206=EDGE_LOOP('',(#878));
#207=EDGE_LOOP('',(#879));
#208=EDGE_LOOP('',(#880));
#209=EDGE_LOOP('',(#881));
#210=EDGE_LOOP('',(#882));
#211=EDGE_LOOP('',(#883));
#212=EDGE_LOOP('',(#884));
#213=EDGE_LOOP('',(#885,#886,#887,#888));
#214=EDGE_LOOP('',(#889,#890,#891,#892));
#215=EDGE_LOOP('',(#893,#894,#895,#896));
#216=EDGE_LOOP('',(#897,#898,#899,#900));
#217=EDGE_LOOP('',(#901,#902,#903,#904));
#218=EDGE_LOOP('',(#905,#906,#907,#908));
#219=EDGE_LOOP('',(#909,#910,#911,#912));
#220=EDGE_LOOP('',(#913,#914,#915,#916));
#221=EDGE_LOOP('',(#917,#918,#919,#920));
#222=EDGE_LOOP('',(#921,#922,#923,#924));
#223=EDGE_LOOP('',(#925,#926,#927,#928));
#224=EDGE_LOOP('',(#929,#930,#931,#932));
#225=EDGE_LOOP('',(#933,#934,#935,#936));
#226=EDGE_LOOP('',(#937,#938,#939,#940));
#227=EDGE_LOOP('',(#941,#942,#943,#944));
#228=EDGE_LOOP('',(#945,#946,#947,#948));
#229=EDGE_LOOP('',(#949,#950,#951,#952));
#230=EDGE_LOOP('',(#953,#954,#955,#956));
#231=EDGE_LOOP('',(#957,#958,#959,#960));
#232=EDGE_LOOP('',(#961,#962,#963,#964));
#233=EDGE_LOOP('',(#965,#966,#967,#968));
#234=EDGE_LOOP('',(#969,#970,#971,#972));
#235=EDGE_LOOP('',(#973,#974,#975,#976));
#236=EDGE_LOOP('',(#977,#978,#979,#980));
#237=EDGE_LOOP('',(#981,#982,#983,#984));
#238=EDGE_LOOP('',(#985,#986,#987,#988));
#239=EDGE_LOOP('',(#989,#990,#991,#992));
#240=EDGE_LOOP('',(#993,#994,#995,#996));
#241=EDGE_LOOP('',(#997,#998,#999,#1000));
#242=EDGE_LOOP('',(#1001,#1002,#1003,#1004));
#243=EDGE_LOOP('',(#1005,#1006,#1007,#1008));
#244=EDGE_LOOP('',(#1009,#1010,#1011,#1012));
#245=EDGE_LOOP('',(#1013,#1014,#1015,#1016));
#246=EDGE_LOOP('',(#1017,#1018,#1019,#1020));
#247=EDGE_LOOP('',(#1021,#1022,#1023,#1024));
#248=EDGE_LOOP('',(#1025,#1026,#1027,#1028));
#249=EDGE_LOOP('',(#1029,#1030,#1031,#1032));
#250=EDGE_LOOP('',(#1033,#1034,#1035,#1036));
#251=EDGE_LOOP('',(#1037,#1038,#1039,#1040));
#252=EDGE_LOOP('',(#1041,#1042,#1043,#1044));
#253=EDGE_LOOP('',(#1045,#1046,#1047,#1048));
#254=EDGE_LOOP('',(#1049,#1050,#1051,#1052));
#255=EDGE_LOOP('',(#1053,#1054,#1055,#1056));
#256=EDGE_LOOP('',(#1057,#1058,#1059,#1060));
#257=EDGE_LOOP('',(#1061,#1062,#1063,#1064));
#258=EDGE_LOOP('',(#1065,#1066,#1067,#1068));
#259=EDGE_LOOP('',(#1069,#1070,#1071,#1072));
#260=EDGE_LOOP('',(#1073,#1074,#1075,#1076));
#261=EDGE_LOOP('',(#1077,#1078,#1079,#1080));
#262=EDGE_LOOP('',(#1081,#1082,#1083,#1084));
#263=EDGE_LOOP('',(#1085,#1086,#1087,#1088));
#264=EDGE_LOOP('',(#1089,#1090,#1091,#1092));
#265=EDGE_LOOP('',(#1093,#1094,#1095,#1096));
#266=EDGE_LOOP('',(#1097,#1098,#1099,#1100));
#267=LINE('',#1601,#401);
#268=LINE('',#1607,#402);
#269=LINE('',#1613,#403);
#270=LINE('',#1619,#404);
#271=LINE('',#1625,#405);
#272=LINE('',#1631,#406);
#273=LINE('',#1637,#407);
#274=LINE('',#1643,#408);
#275=LINE('',#1648,#409);
#276=LINE('',#1650,#410);
#277=LINE('',#1652,#411);
#278=LINE('',#1653,#412);
#279=LINE('',#1656,#413);
#280=LINE('',#1658,#414);
#281=LINE('',#1659,#415);
#282=LINE('',#1662,#416);
#283=LINE('',#1664,#417);
#284=LINE('',#1665,#418);
#285=LINE('',#1668,#419);
#286=LINE('',#1670,#420);
#287=LINE('',#1671,#421);
#288=LINE('',#1674,#422);
#289=LINE('',#1676,#423);
#290=LINE('',#1677,#424);
#291=LINE('',#1679,#425);
#292=LINE('',#1680,#426);
#293=LINE('',#1686,#427);
#294=LINE('',#1688,#428);
#295=LINE('',#1690,#429);
#296=LINE('',#1691,#430);
#297=LINE('',#1694,#431);
#298=LINE('',#1696,#432);
#299=LINE('',#1697,#433);
#300=LINE('',#1700,#434);
#301=LINE('',#1702,#435);
#302=LINE('',#1703,#436);
#303=LINE('',#1705,#437);
#304=LINE('',#1706,#438);
#305=LINE('',#1712,#439);
#306=LINE('',#1714,#440);
#307=LINE('',#1716,#441);
#308=LINE('',#1717,#442);
#309=LINE('',#1720,#443);
#310=LINE('',#1722,#444);
#311=LINE('',#1723,#445);
#312=LINE('',#1726,#446);
#313=LINE('',#1728,#447);
#314=LINE('',#1729,#448);
#315=LINE('',#1731,#449);
#316=LINE('',#1732,#450);
#317=LINE('',#1738,#451);
#318=LINE('',#1740,#452);
#319=LINE('',#1742,#453);
#320=LINE('',#1743,#454);
#321=LINE('',#1746,#455);
#322=LINE('',#1748,#456);
#323=LINE('',#1749,#457);
#324=LINE('',#1752,#458);
#325=LINE('',#1754,#459);
#326=LINE('',#1755,#460);
#327=LINE('',#1757,#461);
#328=LINE('',#1758,#462);
#329=LINE('',#1764,#463);
#330=LINE('',#1766,#464);
#331=LINE('',#1768,#465);
#332=LINE('',#1769,#466);
#333=LINE('',#1772,#467);
#334=LINE('',#1774,#468);
#335=LINE('',#1775,#469);
#336=LINE('',#1778,#470);
#337=LINE('',#1780,#471);
#338=LINE('',#1781,#472);
#339=LINE('',#1783,#473);
#340=LINE('',#1784,#474);
#341=LINE('',#1790,#475);
#342=LINE('',#1792,#476);
#343=LINE('',#1794,#477);
#344=LINE('',#1795,#478);
#345=LINE('',#1798,#479);
#346=LINE('',#1800,#480);
#347=LINE('',#1801,#481);
#348=LINE('',#1804,#482);
#349=LINE('',#1806,#483);
#350=LINE('',#1807,#484);
#351=LINE('',#1809,#485);
#352=LINE('',#1810,#486);
#353=LINE('',#1816,#487);
#354=LINE('',#1818,#488);
#355=LINE('',#1820,#489);
#356=LINE('',#1821,#490);
#357=LINE('',#1824,#491);
#358=LINE('',#1826,#492);
#359=LINE('',#1827,#493);
#360=LINE('',#1830,#494);
#361=LINE('',#1832,#495);
#362=LINE('',#1833,#496);
#363=LINE('',#1835,#497);
#364=LINE('',#1836,#498);
#365=LINE('',#1842,#499);
#366=LINE('',#1844,#500);
#367=LINE('',#1846,#501);
#368=LINE('',#1847,#502);
#369=LINE('',#1850,#503);
#370=LINE('',#1852,#504);
#371=LINE('',#1853,#505);
#372=LINE('',#1856,#506);
#373=LINE('',#1858,#507);
#374=LINE('',#1859,#508);
#375=LINE('',#1861,#509);
#376=LINE('',#1862,#510);
#377=LINE('',#1868,#511);
#378=LINE('',#1870,#512);
#379=LINE('',#1872,#513);
#380=LINE('',#1873,#514);
#381=LINE('',#1876,#515);
#382=LINE('',#1878,#516);
#383=LINE('',#1879,#517);
#384=LINE('',#1882,#518);
#385=LINE('',#1884,#519);
#386=LINE('',#1885,#520);
#387=LINE('',#1887,#521);
#388=LINE('',#1888,#522);
#389=LINE('',#1894,#523);
#390=LINE('',#1896,#524);
#391=LINE('',#1898,#525);
#392=LINE('',#1899,#526);
#393=LINE('',#1902,#527);
#394=LINE('',#1904,#528);
#395=LINE('',#1905,#529);
#396=LINE('',#1908,#530);
#397=LINE('',#1910,#531);
#398=LINE('',#1911,#532);
#399=LINE('',#1913,#533);
#400=LINE('',#1914,#534);
#401=VECTOR('',#1294,1.5);
#402=VECTOR('',#1301,1.5);
#403=VECTOR('',#1308,1.5);
#404=VECTOR('',#1315,1.5);
#405=VECTOR('',#1322,1.5);
#406=VECTOR('',#1329,1.5);
#407=VECTOR('',#1336,1.5);
#408=VECTOR('',#1343,1.5);
#409=VECTOR('',#1348,10.);
#410=VECTOR('',#1349,10.);
#411=VECTOR('',#1350,10.);
#412=VECTOR('',#1351,10.);
#413=VECTOR('',#1354,10.);
#414=VECTOR('',#1355,10.);
#415=VECTOR('',#1356,10.);
#416=VECTOR('',#1359,10.);
#417=VECTOR('',#1360,10.);
#418=VECTOR('',#1361,10.);
#419=VECTOR('',#1364,10.);
#420=VECTOR('',#1365,10.);
#421=VECTOR('',#1366,10.);
#422=VECTOR('',#1369,10.);
#423=VECTOR('',#1370,10.);
#424=VECTOR('',#1371,10.);
#425=VECTOR('',#1374,10.);
#426=VECTOR('',#1375,10.);
#427=VECTOR('',#1382,10.);
#428=VECTOR('',#1383,10.);
#429=VECTOR('',#1384,10.);
#430=VECTOR('',#1385,10.);
#431=VECTOR('',#1388,10.);
#432=VECTOR('',#1389,10.);
#433=VECTOR('',#1390,10.);
#434=VECTOR('',#1393,10.);
#435=VECTOR('',#1394,10.);
#436=VECTOR('',#1395,10.);
#437=VECTOR('',#1398,10.);
#438=VECTOR('',#1399,10.);
#439=VECTOR('',#1406,10.);
#440=VECTOR('',#1407,10.);
#441=VECTOR('',#1408,10.);
#442=VECTOR('',#1409,10.);
#443=VECTOR('',#1412,10.);
#444=VECTOR('',#1413,10.);
#445=VECTOR('',#1414,10.);
#446=VECTOR('',#1417,10.);
#447=VECTOR('',#1418,10.);
#448=VECTOR('',#1419,10.);
#449=VECTOR('',#1422,10.);
#450=VECTOR('',#1423,10.);
#451=VECTOR('',#1430,10.);
#452=VECTOR('',#1431,10.);
#453=VECTOR('',#1432,10.);
#454=VECTOR('',#1433,10.);
#455=VECTOR('',#1436,10.);
#456=VECTOR('',#1437,10.);
#457=VECTOR('',#1438,10.);
#458=VECTOR('',#1441,10.);
#459=VECTOR('',#1442,10.);
#460=VECTOR('',#1443,10.);
#461=VECTOR('',#1446,10.);
#462=VECTOR('',#1447,10.);
#463=VECTOR('',#1454,10.);
#464=VECTOR('',#1455,10.);
#465=VECTOR('',#1456,10.);
#466=VECTOR('',#1457,10.);
#467=VECTOR('',#1460,10.);
#468=VECTOR('',#1461,10.);
#469=VECTOR('',#1462,10.);
#470=VECTOR('',#1465,10.);
#471=VECTOR('',#1466,10.);
#472=VECTOR('',#1467,10.);
#473=VECTOR('',#1470,10.);
#474=VECTOR('',#1471,10.);
#475=VECTOR('',#1478,10.);
#476=VECTOR('',#1479,10.);
#477=VECTOR('',#1480,10.);
#478=VECTOR('',#1481,10.);
#479=VECTOR('',#1484,10.);
#480=VECTOR('',#1485,10.);
#481=VECTOR('',#1486,10.);
#482=VECTOR('',#1489,10.);
#483=VECTOR('',#1490,10.);
#484=VECTOR('',#1491,10.);
#485=VECTOR('',#1494,10.);
#486=VECTOR('',#1495,10.);
#487=VECTOR('',#1502,10.);
#488=VECTOR('',#1503,10.);
#489=VECTOR('',#1504,10.);
#490=VECTOR('',#1505,10.);
#491=VECTOR('',#1508,10.);
#492=VECTOR('',#1509,10.);
#493=VECTOR('',#1510,10.);
#494=VECTOR('',#1513,10.);
#495=VECTOR('',#1514,10.);
#496=VECTOR('',#1515,10.);
#497=VECTOR('',#1518,10.);
#498=VECTOR('',#1519,10.);
#499=VECTOR('',#1526,10.);
#500=VECTOR('',#1527,10.);
#501=VECTOR('',#1528,10.);
#502=VECTOR('',#1529,10.);
#503=VECTOR('',#1532,10.);
#504=VECTOR('',#1533,10.);
#505=VECTOR('',#1534,10.);
#506=VECTOR('',#1537,10.);
#507=VECTOR('',#1538,10.);
#508=VECTOR('',#1539,10.);
#509=VECTOR('',#1542,10.);
#510=VECTOR('',#1543,10.);
#511=VECTOR('',#1550,10.);
#512=VECTOR('',#1551,10.);
#513=VECTOR('',#1552,10.);
#514=VECTOR('',#1553,10.);
#515=VECTOR('',#1556,10.);
#516=VECTOR('',#1557,10.);
#517=VECTOR('',#1558,10.);
#518=VECTOR('',#1561,10.);
#519=VECTOR('',#1562,10.);
#520=VECTOR('',#1563,10.);
#521=VECTOR('',#1566,10.);
#522=VECTOR('',#1567,10.);
#523=VECTOR('',#1574,10.);
#524=VECTOR('',#1575,10.);
#525=VECTOR('',#1576,10.);
#526=VECTOR('',#1577,10.);
#527=VECTOR('',#1580,10.);
#528=VECTOR('',#1581,10.);
#529=VECTOR('',#1582,10.);
#530=VECTOR('',#1585,10.);
#531=VECTOR('',#1586,10.);
#532=VECTOR('',#1587,10.);
#533=VECTOR('',#1590,10.);
#534=VECTOR('',#1591,10.);
#535=CIRCLE('',#1203,1.5);
#536=CIRCLE('',#1204,1.5);
#537=CIRCLE('',#1206,1.5);
#538=CIRCLE('',#1207,1.5);
#539=CIRCLE('',#1209,1.5);
#540=CIRCLE('',#1210,1.5);
#541=CIRCLE('',#1212,1.5);
#542=CIRCLE('',#1213,1.5);
#543=CIRCLE('',#1215,1.5);
#544=CIRCLE('',#1216,1.5);
#545=CIRCLE('',#1218,1.5);
#546=CIRCLE('',#1219,1.5);
#547=CIRCLE('',#1221,1.5);
#548=CIRCLE('',#1222,1.5);
#549=CIRCLE('',#1224,1.5);
#550=CIRCLE('',#1225,1.5);
#551=VERTEX_POINT('',#1598);
#552=VERTEX_POINT('',#1600);
#553=VERTEX_POINT('',#1604);
#554=VERTEX_POINT('',#1606);
#555=VERTEX_POINT('',#1610);
#556=VERTEX_POINT('',#1612);
#557=VERTEX_POINT('',#1616);
#558=VERTEX_POINT('',#1618);
#559=VERTEX_POINT('',#1622);
#560=VERTEX_POINT('',#1624);
#561=VERTEX_POINT('',#1628);
#562=VERTEX_POINT('',#1630);
#563=VERTEX_POINT('',#1634);
#564=VERTEX_POINT('',#1636);
#565=VERTEX_POINT('',#1640);
#566=VERTEX_POINT('',#1642);
#567=VERTEX_POINT('',#1646);
#568=VERTEX_POINT('',#1647);
#569=VERTEX_POINT('',#1649);
#570=VERTEX_POINT('',#1651);
#571=VERTEX_POINT('',#1655);
#572=VERTEX_POINT('',#1657);
#573=VERTEX_POINT('',#1661);
#574=VERTEX_POINT('',#1663);
#575=VERTEX_POINT('',#1667);
#576=VERTEX_POINT('',#1669);
#577=VERTEX_POINT('',#1673);
#578=VERTEX_POINT('',#1675);
#579=VERTEX_POINT('',#1684);
#580=VERTEX_POINT('',#1685);
#581=VERTEX_POINT('',#1687);
#582=VERTEX_POINT('',#1689);
#583=VERTEX_POINT('',#1693);
#584=VERTEX_POINT('',#1695);
#585=VERTEX_POINT('',#1699);
#586=VERTEX_POINT('',#1701);
#587=VERTEX_POINT('',#1710);
#588=VERTEX_POINT('',#1711);
#589=VERTEX_POINT('',#1713);
#590=VERTEX_POINT('',#1715);
#591=VERTEX_POINT('',#1719);
#592=VERTEX_POINT('',#1721);
#593=VERTEX_POINT('',#1725);
#594=VERTEX_POINT('',#1727);
#595=VERTEX_POINT('',#1736);
#596=VERTEX_POINT('',#1737);
#597=VERTEX_POINT('',#1739);
#598=VERTEX_POINT('',#1741);
#599=VERTEX_POINT('',#1745);
#600=VERTEX_POINT('',#1747);
#601=VERTEX_POINT('',#1751);
#602=VERTEX_POINT('',#1753);
#603=VERTEX_POINT('',#1762);
#604=VERTEX_POINT('',#1763);
#605=VERTEX_POINT('',#1765);
#606=VERTEX_POINT('',#1767);
#607=VERTEX_POINT('',#1771);
#608=VERTEX_POINT('',#1773);
#609=VERTEX_POINT('',#1777);
#610=VERTEX_POINT('',#1779);
#611=VERTEX_POINT('',#1788);
#612=VERTEX_POINT('',#1789);
#613=VERTEX_POINT('',#1791);
#614=VERTEX_POINT('',#1793);
#615=VERTEX_POINT('',#1797);
#616=VERTEX_POINT('',#1799);
#617=VERTEX_POINT('',#1803);
#618=VERTEX_POINT('',#1805);
#619=VERTEX_POINT('',#1814);
#620=VERTEX_POINT('',#1815);
#621=VERTEX_POINT('',#1817);
#622=VERTEX_POINT('',#1819);
#623=VERTEX_POINT('',#1823);
#624=VERTEX_POINT('',#1825);
#625=VERTEX_POINT('',#1829);
#626=VERTEX_POINT('',#1831);
#627=VERTEX_POINT('',#1840);
#628=VERTEX_POINT('',#1841);
#629=VERTEX_POINT('',#1843);
#630=VERTEX_POINT('',#1845);
#631=VERTEX_POINT('',#1849);
#632=VERTEX_POINT('',#1851);
#633=VERTEX_POINT('',#1855);
#634=VERTEX_POINT('',#1857);
#635=VERTEX_POINT('',#1866);
#636=VERTEX_POINT('',#1867);
#637=VERTEX_POINT('',#1869);
#638=VERTEX_POINT('',#1871);
#639=VERTEX_POINT('',#1875);
#640=VERTEX_POINT('',#1877);
#641=VERTEX_POINT('',#1881);
#642=VERTEX_POINT('',#1883);
#643=VERTEX_POINT('',#1892);
#644=VERTEX_POINT('',#1893);
#645=VERTEX_POINT('',#1895);
#646=VERTEX_POINT('',#1897);
#647=VERTEX_POINT('',#1901);
#648=VERTEX_POINT('',#1903);
#649=VERTEX_POINT('',#1907);
#650=VERTEX_POINT('',#1909);
#651=EDGE_CURVE('',#551,#551,#535,.T.);
#652=EDGE_CURVE('',#551,#552,#267,.T.);
#653=EDGE_CURVE('',#552,#552,#536,.T.);
#654=EDGE_CURVE('',#553,#553,#537,.T.);
#655=EDGE_CURVE('',#553,#554,#268,.T.);
#656=EDGE_CURVE('',#554,#554,#538,.T.);
#657=EDGE_CURVE('',#555,#555,#539,.T.);
#658=EDGE_CURVE('',#555,#556,#269,.T.);
#659=EDGE_CURVE('',#556,#556,#540,.T.);
#660=EDGE_CURVE('',#557,#557,#541,.T.);
#661=EDGE_CURVE('',#557,#558,#270,.T.);
#662=EDGE_CURVE('',#558,#558,#542,.T.);
#663=EDGE_CURVE('',#559,#559,#543,.T.);
#664=EDGE_CURVE('',#559,#560,#271,.T.);
#665=EDGE_CURVE('',#560,#560,#544,.T.);
#666=EDGE_CURVE('',#561,#561,#545,.T.);
#667=EDGE_CURVE('',#561,#562,#272,.T.);
#668=EDGE_CURVE('',#562,#562,#546,.T.);
#669=EDGE_CURVE('',#563,#563,#547,.T.);
#670=EDGE_CURVE('',#563,#564,#273,.T.);
#671=EDGE_CURVE('',#564,#564,#548,.T.);
#672=EDGE_CURVE('',#565,#565,#549,.T.);
#673=EDGE_CURVE('',#565,#566,#274,.T.);
#674=EDGE_CURVE('',#566,#566,#550,.T.);
#675=EDGE_CURVE('',#567,#568,#275,.T.);
#676=EDGE_CURVE('',#567,#569,#276,.T.);
#677=EDGE_CURVE('',#570,#569,#277,.T.);
#678=EDGE_CURVE('',#568,#570,#278,.T.);
#679=EDGE_CURVE('',#568,#571,#279,.T.);
#680=EDGE_CURVE('',#572,#570,#280,.T.);
#681=EDGE_CURVE('',#571,#572,#281,.T.);
#682=EDGE_CURVE('',#571,#573,#282,.T.);
#683=EDGE_CURVE('',#574,#572,#283,.T.);
#684=EDGE_CURVE('',#573,#574,#284,.T.);
#685=EDGE_CURVE('',#573,#575,#285,.T.);
#686=EDGE_CURVE('',#576,#574,#286,.T.);
#687=EDGE_CURVE('',#575,#576,#287,.T.);
#688=EDGE_CURVE('',#575,#577,#288,.T.);
#689=EDGE_CURVE('',#578,#576,#289,.T.);
#690=EDGE_CURVE('',#577,#578,#290,.T.);
#691=EDGE_CURVE('',#577,#567,#291,.T.);
#692=EDGE_CURVE('',#569,#578,#292,.T.);
#693=EDGE_CURVE('',#579,#580,#293,.T.);
#694=EDGE_CURVE('',#580,#581,#294,.T.);
#695=EDGE_CURVE('',#582,#581,#295,.T.);
#696=EDGE_CURVE('',#579,#582,#296,.T.);
#697=EDGE_CURVE('',#583,#579,#297,.T.);
#698=EDGE_CURVE('',#584,#582,#298,.T.);
#699=EDGE_CURVE('',#583,#584,#299,.T.);
#700=EDGE_CURVE('',#585,#583,#300,.T.);
#701=EDGE_CURVE('',#586,#584,#301,.T.);
#702=EDGE_CURVE('',#585,#586,#302,.T.);
#703=EDGE_CURVE('',#580,#585,#303,.T.);
#704=EDGE_CURVE('',#581,#586,#304,.T.);
#705=EDGE_CURVE('',#587,#588,#305,.T.);
#706=EDGE_CURVE('',#588,#589,#306,.T.);
#707=EDGE_CURVE('',#590,#589,#307,.T.);
#708=EDGE_CURVE('',#587,#590,#308,.T.);
#709=EDGE_CURVE('',#591,#587,#309,.T.);
#710=EDGE_CURVE('',#592,#590,#310,.T.);
#711=EDGE_CURVE('',#591,#592,#311,.T.);
#712=EDGE_CURVE('',#593,#591,#312,.T.);
#713=EDGE_CURVE('',#594,#592,#313,.T.);
#714=EDGE_CURVE('',#593,#594,#314,.T.);
#715=EDGE_CURVE('',#588,#593,#315,.T.);
#716=EDGE_CURVE('',#589,#594,#316,.T.);
#717=EDGE_CURVE('',#595,#596,#317,.T.);
#718=EDGE_CURVE('',#596,#597,#318,.T.);
#719=EDGE_CURVE('',#598,#597,#319,.T.);
#720=EDGE_CURVE('',#595,#598,#320,.T.);
#721=EDGE_CURVE('',#599,#595,#321,.T.);
#722=EDGE_CURVE('',#600,#598,#322,.T.);
#723=EDGE_CURVE('',#599,#600,#323,.T.);
#724=EDGE_CURVE('',#601,#599,#324,.T.);
#725=EDGE_CURVE('',#602,#600,#325,.T.);
#726=EDGE_CURVE('',#601,#602,#326,.T.);
#727=EDGE_CURVE('',#596,#601,#327,.T.);
#728=EDGE_CURVE('',#597,#602,#328,.T.);
#729=EDGE_CURVE('',#603,#604,#329,.T.);
#730=EDGE_CURVE('',#604,#605,#330,.T.);
#731=EDGE_CURVE('',#606,#605,#331,.T.);
#732=EDGE_CURVE('',#603,#606,#332,.T.);
#733=EDGE_CURVE('',#607,#603,#333,.T.);
#734=EDGE_CURVE('',#608,#606,#334,.T.);
#735=EDGE_CURVE('',#607,#608,#335,.T.);
#736=EDGE_CURVE('',#609,#607,#336,.T.);
#737=EDGE_CURVE('',#610,#608,#337,.T.);
#738=EDGE_CURVE('',#609,#610,#338,.T.);
#739=EDGE_CURVE('',#604,#609,#339,.T.);
#740=EDGE_CURVE('',#605,#610,#340,.T.);
#741=EDGE_CURVE('',#611,#612,#341,.T.);
#742=EDGE_CURVE('',#612,#613,#342,.T.);
#743=EDGE_CURVE('',#614,#613,#343,.T.);
#744=EDGE_CURVE('',#611,#614,#344,.T.);
#745=EDGE_CURVE('',#615,#611,#345,.T.);
#746=EDGE_CURVE('',#616,#614,#346,.T.);
#747=EDGE_CURVE('',#615,#616,#347,.T.);
#748=EDGE_CURVE('',#617,#615,#348,.T.);
#749=EDGE_CURVE('',#618,#616,#349,.T.);
#750=EDGE_CURVE('',#617,#618,#350,.T.);
#751=EDGE_CURVE('',#612,#617,#351,.T.);
#752=EDGE_CURVE('',#613,#618,#352,.T.);
#753=EDGE_CURVE('',#619,#620,#353,.T.);
#754=EDGE_CURVE('',#620,#621,#354,.T.);
#755=EDGE_CURVE('',#622,#621,#355,.T.);
#756=EDGE_CURVE('',#619,#622,#356,.T.);
#757=EDGE_CURVE('',#623,#619,#357,.T.);
#758=EDGE_CURVE('',#624,#622,#358,.T.);
#759=EDGE_CURVE('',#623,#624,#359,.T.);
#760=EDGE_CURVE('',#625,#623,#360,.T.);
#761=EDGE_CURVE('',#626,#624,#361,.T.);
#762=EDGE_CURVE('',#625,#626,#362,.T.);
#763=EDGE_CURVE('',#620,#625,#363,.T.);
#764=EDGE_CURVE('',#621,#626,#364,.T.);
#765=EDGE_CURVE('',#627,#628,#365,.T.);
#766=EDGE_CURVE('',#628,#629,#366,.T.);
#767=EDGE_CURVE('',#630,#629,#367,.T.);
#768=EDGE_CURVE('',#627,#630,#368,.T.);
#769=EDGE_CURVE('',#631,#627,#369,.T.);
#770=EDGE_CURVE('',#632,#630,#370,.T.);
#771=EDGE_CURVE('',#631,#632,#371,.T.);
#772=EDGE_CURVE('',#633,#631,#372,.T.);
#773=EDGE_CURVE('',#634,#632,#373,.T.);
#774=EDGE_CURVE('',#633,#634,#374,.T.);
#775=EDGE_CURVE('',#628,#633,#375,.T.);
#776=EDGE_CURVE('',#629,#634,#376,.T.);
#777=EDGE_CURVE('',#635,#636,#377,.T.);
#778=EDGE_CURVE('',#636,#637,#378,.T.);
#779=EDGE_CURVE('',#638,#637,#379,.T.);
#780=EDGE_CURVE('',#635,#638,#380,.T.);
#781=EDGE_CURVE('',#639,#635,#381,.T.);
#782=EDGE_CURVE('',#640,#638,#382,.T.);
#783=EDGE_CURVE('',#639,#640,#383,.T.);
#784=EDGE_CURVE('',#641,#639,#384,.T.);
#785=EDGE_CURVE('',#642,#640,#385,.T.);
#786=EDGE_CURVE('',#641,#642,#386,.T.);
#787=EDGE_CURVE('',#636,#641,#387,.T.);
#788=EDGE_CURVE('',#637,#642,#388,.T.);
#789=EDGE_CURVE('',#643,#644,#389,.T.);
#790=EDGE_CURVE('',#644,#645,#390,.T.);
#791=EDGE_CURVE('',#646,#645,#391,.T.);
#792=EDGE_CURVE('',#643,#646,#392,.T.);
#793=EDGE_CURVE('',#647,#643,#393,.T.);
#794=EDGE_CURVE('',#648,#646,#394,.T.);
#795=EDGE_CURVE('',#647,#648,#395,.T.);
#796=EDGE_CURVE('',#649,#647,#396,.T.);
#797=EDGE_CURVE('',#650,#648,#397,.T.);
#798=EDGE_CURVE('',#649,#650,#398,.T.);
#799=EDGE_CURVE('',#644,#649,#399,.T.);
#800=EDGE_CURVE('',#645,#650,#400,.T.);
#801=ORIENTED_EDGE('',*,*,#651,.F.);
#802=ORIENTED_EDGE('',*,*,#652,.T.);
#803=ORIENTED_EDGE('',*,*,#653,.F.);
#804=ORIENTED_EDGE('',*,*,#652,.F.);
#805=ORIENTED_EDGE('',*,*,#654,.F.);
#806=ORIENTED_EDGE('',*,*,#655,.T.);
#807=ORIENTED_EDGE('',*,*,#656,.F.);
#808=ORIENTED_EDGE('',*,*,#655,.F.);
#809=ORIENTED_EDGE('',*,*,#657,.F.);
#810=ORIENTED_EDGE('',*,*,#658,.T.);
#811=ORIENTED_EDGE('',*,*,#659,.F.);
#812=ORIENTED_EDGE('',*,*,#658,.F.);
#813=ORIENTED_EDGE('',*,*,#660,.F.);
#814=ORIENTED_EDGE('',*,*,#661,.T.);
#815=ORIENTED_EDGE('',*,*,#662,.F.);
#816=ORIENTED_EDGE('',*,*,#661,.F.);
#817=ORIENTED_EDGE('',*,*,#663,.F.);
#818=ORIENTED_EDGE('',*,*,#664,.T.);
#819=ORIENTED_EDGE('',*,*,#665,.F.);
#820=ORIENTED_EDGE('',*,*,#664,.F.);
#821=ORIENTED_EDGE('',*,*,#666,.F.);
#822=ORIENTED_EDGE('',*,*,#667,.T.);
#823=ORIENTED_EDGE('',*,*,#668,.F.);
#824=ORIENTED_EDGE('',*,*,#667,.F.);
#825=ORIENTED_EDGE('',*,*,#669,.F.);
#826=ORIENTED_EDGE('',*,*,#670,.T.);
#827=ORIENTED_EDGE('',*,*,#671,.F.);
#828=ORIENTED_EDGE('',*,*,#670,.F.);
#829=ORIENTED_EDGE('',*,*,#672,.F.);
#830=ORIENTED_EDGE('',*,*,#673,.T.);
#831=ORIENTED_EDGE('',*,*,#674,.F.);
#832=ORIENTED_EDGE('',*,*,#673,.F.);
#833=ORIENTED_EDGE('',*,*,#675,.F.);
#834=ORIENTED_EDGE('',*,*,#676,.T.);
#835=ORIENTED_EDGE('',*,*,#677,.F.);
#836=ORIENTED_EDGE('',*,*,#678,.F.);
#837=ORIENTED_EDGE('',*,*,#679,.F.);
#838=ORIENTED_EDGE('',*,*,#678,.T.);
#839=ORIENTED_EDGE('',*,*,#680,.F.);
#840=ORIENTED_EDGE('',*,*,#681,.F.);
#841=ORIENTED_EDGE('',*,*,#682,.F.);
#842=ORIENTED_EDGE('',*,*,#681,.T.);
#843=ORIENTED_EDGE('',*,*,#683,.F.);
#844=ORIENTED_EDGE('',*,*,#684,.F.);
#845=ORIENTED_EDGE('',*,*,#685,.F.);
#846=ORIENTED_EDGE('',*,*,#684,.T.);
#847=ORIENTED_EDGE('',*,*,#686,.F.);
#848=ORIENTED_EDGE('',*,*,#687,.F.);
#849=ORIENTED_EDGE('',*,*,#688,.F.);
#850=ORIENTED_EDGE('',*,*,#687,.T.);
#851=ORIENTED_EDGE('',*,*,#689,.F.);
#852=ORIENTED_EDGE('',*,*,#690,.F.);
#853=ORIENTED_EDGE('',*,*,#691,.F.);
#854=ORIENTED_EDGE('',*,*,#690,.T.);
#855=ORIENTED_EDGE('',*,*,#692,.F.);
#856=ORIENTED_EDGE('',*,*,#676,.F.);
#857=ORIENTED_EDGE('',*,*,#691,.T.);
#858=ORIENTED_EDGE('',*,*,#675,.T.);
#859=ORIENTED_EDGE('',*,*,#679,.T.);
#860=ORIENTED_EDGE('',*,*,#682,.T.);
#861=ORIENTED_EDGE('',*,*,#685,.T.);
#862=ORIENTED_EDGE('',*,*,#688,.T.);
#863=ORIENTED_EDGE('',*,*,#672,.T.);
#864=ORIENTED_EDGE('',*,*,#669,.T.);
#865=ORIENTED_EDGE('',*,*,#666,.T.);
#866=ORIENTED_EDGE('',*,*,#663,.T.);
#867=ORIENTED_EDGE('',*,*,#660,.T.);
#868=ORIENTED_EDGE('',*,*,#657,.T.);
#869=ORIENTED_EDGE('',*,*,#654,.T.);
#870=ORIENTED_EDGE('',*,*,#651,.T.);
#871=ORIENTED_EDGE('',*,*,#692,.T.);
#872=ORIENTED_EDGE('',*,*,#689,.T.);
#873=ORIENTED_EDGE('',*,*,#686,.T.);
#874=ORIENTED_EDGE('',*,*,#683,.T.);
#875=ORIENTED_EDGE('',*,*,#680,.T.);
#876=ORIENTED_EDGE('',*,*,#677,.T.);
#877=ORIENTED_EDGE('',*,*,#674,.T.);
#878=ORIENTED_EDGE('',*,*,#671,.T.);
#879=ORIENTED_EDGE('',*,*,#668,.T.);
#880=ORIENTED_EDGE('',*,*,#665,.T.);
#881=ORIENTED_EDGE('',*,*,#662,.T.);
#882=ORIENTED_EDGE('',*,*,#659,.T.);
#883=ORIENTED_EDGE('',*,*,#656,.T.);
#884=ORIENTED_EDGE('',*,*,#653,.T.);
#885=ORIENTED_EDGE('',*,*,#693,.T.);
#886=ORIENTED_EDGE('',*,*,#694,.T.);
#887=ORIENTED_EDGE('',*,*,#695,.F.);
#888=ORIENTED_EDGE('',*,*,#696,.F.);
#889=ORIENTED_EDGE('',*,*,#697,.T.);
#890=ORIENTED_EDGE('',*,*,#696,.T.);
#891=ORIENTED_EDGE('',*,*,#698,.F.);
#892=ORIENTED_EDGE('',*,*,#699,.F.);
#893=ORIENTED_EDGE('',*,*,#700,.T.);
#894=ORIENTED_EDGE('',*,*,#699,.T.);
#895=ORIENTED_EDGE('',*,*,#701,.F.);
#896=ORIENTED_EDGE('',*,*,#702,.F.);
#897=ORIENTED_EDGE('',*,*,#703,.T.);
#898=ORIENTED_EDGE('',*,*,#702,.T.);
#899=ORIENTED_EDGE('',*,*,#704,.F.);
#900=ORIENTED_EDGE('',*,*,#694,.F.);
#901=ORIENTED_EDGE('',*,*,#704,.T.);
#902=ORIENTED_EDGE('',*,*,#701,.T.);
#903=ORIENTED_EDGE('',*,*,#698,.T.);
#904=ORIENTED_EDGE('',*,*,#695,.T.);
#905=ORIENTED_EDGE('',*,*,#703,.F.);
#906=ORIENTED_EDGE('',*,*,#693,.F.);
#907=ORIENTED_EDGE('',*,*,#697,.F.);
#908=ORIENTED_EDGE('',*,*,#700,.F.);
#909=ORIENTED_EDGE('',*,*,#705,.T.);
#910=ORIENTED_EDGE('',*,*,#706,.T.);
#911=ORIENTED_EDGE('',*,*,#707,.F.);
#912=ORIENTED_EDGE('',*,*,#708,.F.);
#913=ORIENTED_EDGE('',*,*,#709,.T.);
#914=ORIENTED_EDGE('',*,*,#708,.T.);
#915=ORIENTED_EDGE('',*,*,#710,.F.);
#916=ORIENTED_EDGE('',*,*,#711,.F.);
#917=ORIENTED_EDGE('',*,*,#712,.T.);
#918=ORIENTED_EDGE('',*,*,#711,.T.);
#919=ORIENTED_EDGE('',*,*,#713,.F.);
#920=ORIENTED_EDGE('',*,*,#714,.F.);
#921=ORIENTED_EDGE('',*,*,#715,.T.);
#922=ORIENTED_EDGE('',*,*,#714,.T.);
#923=ORIENTED_EDGE('',*,*,#716,.F.);
#924=ORIENTED_EDGE('',*,*,#706,.F.);
#925=ORIENTED_EDGE('',*,*,#716,.T.);
#926=ORIENTED_EDGE('',*,*,#713,.T.);
#927=ORIENTED_EDGE('',*,*,#710,.T.);
#928=ORIENTED_EDGE('',*,*,#707,.T.);
#929=ORIENTED_EDGE('',*,*,#715,.F.);
#930=ORIENTED_EDGE('',*,*,#705,.F.);
#931=ORIENTED_EDGE('',*,*,#709,.F.);
#932=ORIENTED_EDGE('',*,*,#712,.F.);
#933=ORIENTED_EDGE('',*,*,#717,.T.);
#934=ORIENTED_EDGE('',*,*,#718,.T.);
#935=ORIENTED_EDGE('',*,*,#719,.F.);
#936=ORIENTED_EDGE('',*,*,#720,.F.);
#937=ORIENTED_EDGE('',*,*,#721,.T.);
#938=ORIENTED_EDGE('',*,*,#720,.T.);
#939=ORIENTED_EDGE('',*,*,#722,.F.);
#940=ORIENTED_EDGE('',*,*,#723,.F.);
#941=ORIENTED_EDGE('',*,*,#724,.T.);
#942=ORIENTED_EDGE('',*,*,#723,.T.);
#943=ORIENTED_EDGE('',*,*,#725,.F.);
#944=ORIENTED_EDGE('',*,*,#726,.F.);
#945=ORIENTED_EDGE('',*,*,#727,.T.);
#946=ORIENTED_EDGE('',*,*,#726,.T.);
#947=ORIENTED_EDGE('',*,*,#728,.F.);
#948=ORIENTED_EDGE('',*,*,#718,.F.);
#949=ORIENTED_EDGE('',*,*,#728,.T.);
#950=ORIENTED_EDGE('',*,*,#725,.T.);
#951=ORIENTED_EDGE('',*,*,#722,.T.);
#952=ORIENTED_EDGE('',*,*,#719,.T.);
#953=ORIENTED_EDGE('',*,*,#727,.F.);
#954=ORIENTED_EDGE('',*,*,#717,.F.);
#955=ORIENTED_EDGE('',*,*,#721,.F.);
#956=ORIENTED_EDGE('',*,*,#724,.F.);
#957=ORIENTED_EDGE('',*,*,#729,.T.);
#958=ORIENTED_EDGE('',*,*,#730,.T.);
#959=ORIENTED_EDGE('',*,*,#731,.F.);
#960=ORIENTED_EDGE('',*,*,#732,.F.);
#961=ORIENTED_EDGE('',*,*,#733,.T.);
#962=ORIENTED_EDGE('',*,*,#732,.T.);
#963=ORIENTED_EDGE('',*,*,#734,.F.);
#964=ORIENTED_EDGE('',*,*,#735,.F.);
#965=ORIENTED_EDGE('',*,*,#736,.T.);
#966=ORIENTED_EDGE('',*,*,#735,.T.);
#967=ORIENTED_EDGE('',*,*,#737,.F.);
#968=ORIENTED_EDGE('',*,*,#738,.F.);
#969=ORIENTED_EDGE('',*,*,#739,.T.);
#970=ORIENTED_EDGE('',*,*,#738,.T.);
#971=ORIENTED_EDGE('',*,*,#740,.F.);
#972=ORIENTED_EDGE('',*,*,#730,.F.);
#973=ORIENTED_EDGE('',*,*,#740,.T.);
#974=ORIENTED_EDGE('',*,*,#737,.T.);
#975=ORIENTED_EDGE('',*,*,#734,.T.);
#976=ORIENTED_EDGE('',*,*,#731,.T.);
#977=ORIENTED_EDGE('',*,*,#739,.F.);
#978=ORIENTED_EDGE('',*,*,#729,.F.);
#979=ORIENTED_EDGE('',*,*,#733,.F.);
#980=ORIENTED_EDGE('',*,*,#736,.F.);
#981=ORIENTED_EDGE('',*,*,#741,.T.);
#982=ORIENTED_EDGE('',*,*,#742,.T.);
#983=ORIENTED_EDGE('',*,*,#743,.F.);
#984=ORIENTED_EDGE('',*,*,#744,.F.);
#985=ORIENTED_EDGE('',*,*,#745,.T.);
#986=ORIENTED_EDGE('',*,*,#744,.T.);
#987=ORIENTED_EDGE('',*,*,#746,.F.);
#988=ORIENTED_EDGE('',*,*,#747,.F.);
#989=ORIENTED_EDGE('',*,*,#748,.T.);
#990=ORIENTED_EDGE('',*,*,#747,.T.);
#991=ORIENTED_EDGE('',*,*,#749,.F.);
#992=ORIENTED_EDGE('',*,*,#750,.F.);
#993=ORIENTED_EDGE('',*,*,#751,.T.);
#994=ORIENTED_EDGE('',*,*,#750,.T.);
#995=ORIENTED_EDGE('',*,*,#752,.F.);
#996=ORIENTED_EDGE('',*,*,#742,.F.);
#997=ORIENTED_EDGE('',*,*,#752,.T.);
#998=ORIENTED_EDGE('',*,*,#749,.T.);
#999=ORIENTED_EDGE('',*,*,#746,.T.);
#1000=ORIENTED_EDGE('',*,*,#743,.T.);
#1001=ORIENTED_EDGE('',*,*,#751,.F.);
#1002=ORIENTED_EDGE('',*,*,#741,.F.);
#1003=ORIENTED_EDGE('',*,*,#745,.F.);
#1004=ORIENTED_EDGE('',*,*,#748,.F.);
#1005=ORIENTED_EDGE('',*,*,#753,.T.);
#1006=ORIENTED_EDGE('',*,*,#754,.T.);
#1007=ORIENTED_EDGE('',*,*,#755,.F.);
#1008=ORIENTED_EDGE('',*,*,#756,.F.);
#1009=ORIENTED_EDGE('',*,*,#757,.T.);
#1010=ORIENTED_EDGE('',*,*,#756,.T.);
#1011=ORIENTED_EDGE('',*,*,#758,.F.);
#1012=ORIENTED_EDGE('',*,*,#759,.F.);
#1013=ORIENTED_EDGE('',*,*,#760,.T.);
#1014=ORIENTED_EDGE('',*,*,#759,.T.);
#1015=ORIENTED_EDGE('',*,*,#761,.F.);
#1016=ORIENTED_EDGE('',*,*,#762,.F.);
#1017=ORIENTED_EDGE('',*,*,#763,.T.);
#1018=ORIENTED_EDGE('',*,*,#762,.T.);
#1019=ORIENTED_EDGE('',*,*,#764,.F.);
#1020=ORIENTED_EDGE('',*,*,#754,.F.);
#1021=ORIENTED_EDGE('',*,*,#764,.T.);
#1022=ORIENTED_EDGE('',*,*,#761,.T.);
#1023=ORIENTED_EDGE('',*,*,#758,.T.);
#1024=ORIENTED_EDGE('',*,*,#755,.T.);
#1025=ORIENTED_EDGE('',*,*,#763,.F.);
#1026=ORIENTED_EDGE('',*,*,#753,.F.);
#1027=ORIENTED_EDGE('',*,*,#757,.F.);
#1028=ORIENTED_EDGE('',*,*,#760,.F.);
#1029=ORIENTED_EDGE('',*,*,#765,.T.);
#1030=ORIENTED_EDGE('',*,*,#766,.T.);
#1031=ORIENTED_EDGE('',*,*,#767,.F.);
#1032=ORIENTED_EDGE('',*,*,#768,.F.);
#1033=ORIENTED_EDGE('',*,*,#769,.T.);
#1034=ORIENTED_EDGE('',*,*,#768,.T.);
#1035=ORIENTED_EDGE('',*,*,#770,.F.);
#1036=ORIENTED_EDGE('',*,*,#771,.F.);
#1037=ORIENTED_EDGE('',*,*,#772,.T.);
#1038=ORIENTED_EDGE('',*,*,#771,.T.);
#1039=ORIENTED_EDGE('',*,*,#773,.F.);
#1040=ORIENTED_EDGE('',*,*,#774,.F.);
#1041=ORIENTED_EDGE('',*,*,#775,.T.);
#1042=ORIENTED_EDGE('',*,*,#774,.T.);
#1043=ORIENTED_EDGE('',*,*,#776,.F.);
#1044=ORIENTED_EDGE('',*,*,#766,.F.);
#1045=ORIENTED_EDGE('',*,*,#776,.T.);
#1046=ORIENTED_EDGE('',*,*,#773,.T.);
#1047=ORIENTED_EDGE('',*,*,#770,.T.);
#1048=ORIENTED_EDGE('',*,*,#767,.T.);
#1049=ORIENTED_EDGE('',*,*,#775,.F.);
#1050=ORIENTED_EDGE('',*,*,#765,.F.);
#1051=ORIENTED_EDGE('',*,*,#769,.F.);
#1052=ORIENTED_EDGE('',*,*,#772,.F.);
#1053=ORIENTED_EDGE('',*,*,#777,.T.);
#1054=ORIENTED_EDGE('',*,*,#778,.T.);
#1055=ORIENTED_EDGE('',*,*,#779,.F.);
#1056=ORIENTED_EDGE('',*,*,#780,.F.);
#1057=ORIENTED_EDGE('',*,*,#781,.T.);
#1058=ORIENTED_EDGE('',*,*,#780,.T.);
#1059=ORIENTED_EDGE('',*,*,#782,.F.);
#1060=ORIENTED_EDGE('',*,*,#783,.F.);
#1061=ORIENTED_EDGE('',*,*,#784,.T.);
#1062=ORIENTED_EDGE('',*,*,#783,.T.);
#1063=ORIENTED_EDGE('',*,*,#785,.F.);
#1064=ORIENTED_EDGE('',*,*,#786,.F.);
#1065=ORIENTED_EDGE('',*,*,#787,.T.);
#1066=ORIENTED_EDGE('',*,*,#786,.T.);
#1067=ORIENTED_EDGE('',*,*,#788,.F.);
#1068=ORIENTED_EDGE('',*,*,#778,.F.);
#1069=ORIENTED_EDGE('',*,*,#788,.T.);
#1070=ORIENTED_EDGE('',*,*,#785,.T.);
#1071=ORIENTED_EDGE('',*,*,#782,.T.);
#1072=ORIENTED_EDGE('',*,*,#779,.T.);
#1073=ORIENTED_EDGE('',*,*,#787,.F.);
#1074=ORIENTED_EDGE('',*,*,#777,.F.);
#1075=ORIENTED_EDGE('',*,*,#781,.F.);
#1076=ORIENTED_EDGE('',*,*,#784,.F.);
#1077=ORIENTED_EDGE('',*,*,#789,.T.);
#1078=ORIENTED_EDGE('',*,*,#790,.T.);
#1079=ORIENTED_EDGE('',*,*,#791,.F.);
#1080=ORIENTED_EDGE('',*,*,#792,.F.);
#1081=ORIENTED_EDGE('',*,*,#793,.T.);
#1082=ORIENTED_EDGE('',*,*,#792,.T.);
#1083=ORIENTED_EDGE('',*,*,#794,.F.);
#1084=ORIENTED_EDGE('',*,*,#795,.F.);
#1085=ORIENTED_EDGE('',*,*,#796,.T.);
#1086=ORIENTED_EDGE('',*,*,#795,.T.);
#1087=ORIENTED_EDGE('',*,*,#797,.F.);
#1088=ORIENTED_EDGE('',*,*,#798,.F.);
#1089=ORIENTED_EDGE('',*,*,#799,.T.);
#1090=ORIENTED_EDGE('',*,*,#798,.T.);
#1091=ORIENTED_EDGE('',*,*,#800,.F.);
#1092=ORIENTED_EDGE('',*,*,#790,.F.);
#1093=ORIENTED_EDGE('',*,*,#800,.T.);
#1094=ORIENTED_EDGE('',*,*,#797,.T.);
#1095=ORIENTED_EDGE('',*,*,#794,.T.);
#1096=ORIENTED_EDGE('',*,*,#791,.T.);
#1097=ORIENTED_EDGE('',*,*,#799,.F.);
#1098=ORIENTED_EDGE('',*,*,#789,.F.);
#1099=ORIENTED_EDGE('',*,*,#793,.F.);
#1100=ORIENTED_EDGE('',*,*,#796,.F.);
#1101=CYLINDRICAL_SURFACE('',#1202,1.5);
#1102=CYLINDRICAL_SURFACE('',#1205,1.5);
#1103=CYLINDRICAL_SURFACE('',#1208,1.5);
#1104=CYLINDRICAL_SURFACE('',#1211,1.5);
#1105=CYLINDRICAL_SURFACE('',#1214,1.5);
#1106=CYLINDRICAL_SURFACE('',#1217,1.5);
#1107=CYLINDRICAL_SURFACE('',#1220,1.5);
#1108=CYLINDRICAL_SURFACE('',#1223,1.5);
#1109=ADVANCED_FACE('',(#111),#1101,.F.);
#1110=ADVANCED_FACE('',(#112),#1102,.F.);
#1111=ADVANCED_FACE('',(#113),#1103,.F.);
#1112=ADVANCED_FACE('',(#114),#1104,.F.);
#1113=ADVANCED_FACE('',(#115),#1105,.F.);
#1114=ADVANCED_FACE('',(#116),#1106,.F.);
#1115=ADVANCED_FACE('',(#117),#1107,.F.);
#1116=ADVANCED_FACE('',(#118),#1108,.F.);
#1117=ADVANCED_FACE('',(#119),#49,.T.);
#1118=ADVANCED_FACE('',(#120),#50,.T.);
#1119=ADVANCED_FACE('',(#121),#51,.T.);
#1120=ADVANCED_FACE('',(#122),#52,.T.);
#1121=ADVANCED_FACE('',(#123),#53,.T.);
#1122=ADVANCED_FACE('',(#124),#54,.T.);
#1123=ADVANCED_FACE('',(#125,#33,#34,#35,#36,#37,#38,#39,#40),#55,.T.);
#1124=ADVANCED_FACE('',(#126,#41,#42,#43,#44,#45,#46,#47,#48),#56,.T.);
#1125=ADVANCED_FACE('',(#127),#57,.T.);
#1126=ADVANCED_FACE('',(#128),#58,.T.);
#1127=ADVANCED_FACE('',(#129),#59,.T.);
#1128=ADVANCED_FACE('',(#130),#60,.T.);
#1129=ADVANCED_FACE('',(#131),#61,.T.);
#1130=ADVANCED_FACE('',(#132),#62,.F.);
#1131=ADVANCED_FACE('',(#133),#63,.T.);
#1132=ADVANCED_FACE('',(#134),#64,.T.);
#1133=ADVANCED_FACE('',(#135),#65,.T.);
#1134=ADVANCED_FACE('',(#136),#66,.T.);
#1135=ADVANCED_FACE('',(#137),#67,.T.);
#1136=ADVANCED_FACE('',(#138),#68,.F.);
#1137=ADVANCED_FACE('',(#139),#69,.T.);
#1138=ADVANCED_FACE('',(#140),#70,.T.);
#1139=ADVANCED_FACE('',(#141),#71,.T.);
#1140=ADVANCED_FACE('',(#142),#72,.T.);
#1141=ADVANCED_FACE('',(#143),#73,.T.);
#1142=ADVANCED_FACE('',(#144),#74,.F.);
#1143=ADVANCED_FACE('',(#145),#75,.T.);
#1144=ADVANCED_FACE('',(#146),#76,.T.);
#1145=ADVANCED_FACE('',(#147),#77,.T.);
#1146=ADVANCED_FACE('',(#148),#78,.T.);
#1147=ADVANCED_FACE('',(#149),#79,.T.);
#1148=ADVANCED_FACE('',(#150),#80,.F.);
#1149=ADVANCED_FACE('',(#151),#81,.T.);
#1150=ADVANCED_FACE('',(#152),#82,.T.);
#1151=ADVANCED_FACE('',(#153),#83,.T.);
#1152=ADVANCED_FACE('',(#154),#84,.T.);
#1153=ADVANCED_FACE('',(#155),#85,.T.);
#1154=ADVANCED_FACE('',(#156),#86,.F.);
#1155=ADVANCED_FACE('',(#157),#87,.T.);
#1156=ADVANCED_FACE('',(#158),#88,.T.);
#1157=ADVANCED_FACE('',(#159),#89,.T.);
#1158=ADVANCED_FACE('',(#160),#90,.T.);
#1159=ADVANCED_FACE('',(#161),#91,.T.);
#1160=ADVANCED_FACE('',(#162),#92,.F.);
#1161=ADVANCED_FACE('',(#163),#93,.T.);
#1162=ADVANCED_FACE('',(#164),#94,.T.);
#1163=ADVANCED_FACE('',(#165),#95,.T.);
#1164=ADVANCED_FACE('',(#166),#96,.T.);
#1165=ADVANCED_FACE('',(#167),#97,.T.);
#1166=ADVANCED_FACE('',(#168),#98,.F.);
#1167=ADVANCED_FACE('',(#169),#99,.T.);
#1168=ADVANCED_FACE('',(#170),#100,.T.);
#1169=ADVANCED_FACE('',(#171),#101,.T.);
#1170=ADVANCED_FACE('',(#172),#102,.T.);
#1171=ADVANCED_FACE('',(#173),#103,.T.);
#1172=ADVANCED_FACE('',(#174),#104,.F.);
#1173=ADVANCED_FACE('',(#175),#105,.T.);
#1174=ADVANCED_FACE('',(#176),#106,.T.);
#1175=ADVANCED_FACE('',(#177),#107,.T.);
#1176=ADVANCED_FACE('',(#178),#108,.T.);
#1177=ADVANCED_FACE('',(#179),#109,.T.);
#1178=ADVANCED_FACE('',(#180),#110,.F.);
#1179=CLOSED_SHELL('',(#1109,#1110,#1111,#1112,#1113,#1114,#1115,#1116,
#1117,#1118,#1119,#1120,#1121,#1122,#1123,#1124));
#1180=CLOSED_SHELL('',(#1125,#1126,#1127,#1128,#1129,#1130));
#1181=CLOSED_SHELL('',(#1131,#1132,#1133,#1134,#1135,#1136));
#1182=CLOSED_SHELL('',(#1137,#1138,#1139,#1140,#1141,#1142));
#1183=CLOSED_SHELL('',(#1143,#1144,#1145,#1146,#1147,#1148));
#1184=CLOSED_SHELL('',(#1149,#1150,#1151,#1152,#1153,#1154));
#1185=CLOSED_SHELL('',(#1155,#1156,#1157,#1158,#1159,#1160));
#1186=CLOSED_SHELL('',(#1161,#1162,#1163,#1164,#1165,#1166));
#1187=CLOSED_SHELL('',(#1167,#1168,#1169,#1170,#1171,#1172));
#1188=CLOSED_SHELL('',(#1173,#1174,#1175,#1176,#1177,#1178));
#1189=DERIVED_UNIT_ELEMENT(#1191,1.);
#1190=DERIVED_UNIT_ELEMENT(#1922,-3.);
#1191=(
MASS_UNIT()
NAMED_UNIT(*)
SI_UNIT(.KILO.,.GRAM.)
);
#1192=DERIVED_UNIT((#1189,#1190));
#1193=MEASURE_REPRESENTATION_ITEM('density measure',
POSITIVE_RATIO_MEASURE(7850.),#1192);
#1194=PROPERTY_DEFINITION_REPRESENTATION(#1199,#1196);
#1195=PROPERTY_DEFINITION_REPRESENTATION(#1200,#1197);
#1196=REPRESENTATION('material name',(#1198),#1919);
#1197=REPRESENTATION('density',(#1193),#1919);
#1198=DESCRIPTIVE_REPRESENTATION_ITEM('Steel','Steel');
#1199=PROPERTY_DEFINITION('material property','material name',#1929);
#1200=PROPERTY_DEFINITION('material property','density of part',#1929);
#1201=AXIS2_PLACEMENT_3D('',#1596,#1288,#1289);
#1202=AXIS2_PLACEMENT_3D('',#1597,#1290,#1291);
#1203=AXIS2_PLACEMENT_3D('',#1599,#1292,#1293);
#1204=AXIS2_PLACEMENT_3D('',#1602,#1295,#1296);
#1205=AXIS2_PLACEMENT_3D('',#1603,#1297,#1298);
#1206=AXIS2_PLACEMENT_3D('',#1605,#1299,#1300);
#1207=AXIS2_PLACEMENT_3D('',#1608,#1302,#1303);
#1208=AXIS2_PLACEMENT_3D('',#1609,#1304,#1305);
#1209=AXIS2_PLACEMENT_3D('',#1611,#1306,#1307);
#1210=AXIS2_PLACEMENT_3D('',#1614,#1309,#1310);
#1211=AXIS2_PLACEMENT_3D('',#1615,#1311,#1312);
#1212=AXIS2_PLACEMENT_3D('',#1617,#1313,#1314);
#1213=AXIS2_PLACEMENT_3D('',#1620,#1316,#1317);
#1214=AXIS2_PLACEMENT_3D('',#1621,#1318,#1319);
#1215=AXIS2_PLACEMENT_3D('',#1623,#1320,#1321);
#1216=AXIS2_PLACEMENT_3D('',#1626,#1323,#1324);
#1217=AXIS2_PLACEMENT_3D('',#1627,#1325,#1326);
#1218=AXIS2_PLACEMENT_3D('',#1629,#1327,#1328);
#1219=AXIS2_PLACEMENT_3D('',#1632,#1330,#1331);
#1220=AXIS2_PLACEMENT_3D('',#1633,#1332,#1333);
#1221=AXIS2_PLACEMENT_3D('',#1635,#1334,#1335);
#1222=AXIS2_PLACEMENT_3D('',#1638,#1337,#1338);
#1223=AXIS2_PLACEMENT_3D('',#1639,#1339,#1340);
#1224=AXIS2_PLACEMENT_3D('',#1641,#1341,#1342);
#1225=AXIS2_PLACEMENT_3D('',#1644,#1344,#1345);
#1226=AXIS2_PLACEMENT_3D('',#1645,#1346,#1347);
#1227=AXIS2_PLACEMENT_3D('',#1654,#1352,#1353);
#1228=AXIS2_PLACEMENT_3D('',#1660,#1357,#1358);
#1229=AXIS2_PLACEMENT_3D('',#1666,#1362,#1363);
#1230=AXIS2_PLACEMENT_3D('',#1672,#1367,#1368);
#1231=AXIS2_PLACEMENT_3D('',#1678,#1372,#1373);
#1232=AXIS2_PLACEMENT_3D('',#1681,#1376,#1377);
#1233=AXIS2_PLACEMENT_3D('',#1682,#1378,#1379);
#1234=AXIS2_PLACEMENT_3D('',#1683,#1380,#1381);
#1235=AXIS2_PLACEMENT_3D('',#1692,#1386,#1387);
#1236=AXIS2_PLACEMENT_3D('',#1698,#1391,#1392);
#1237=AXIS2_PLACEMENT_3D('',#1704,#1396,#1397);
#1238=AXIS2_PLACEMENT_3D('',#1707,#1400,#1401);
#1239=AXIS2_PLACEMENT_3D('',#1708,#1402,#1403);
#1240=AXIS2_PLACEMENT_3D('',#1709,#1404,#1405);
#1241=AXIS2_PLACEMENT_3D('',#1718,#1410,#1411);
#1242=AXIS2_PLACEMENT_3D('',#1724,#1415,#1416);
#1243=AXIS2_PLACEMENT_3D('',#1730,#1420,#1421);
#1244=AXIS2_PLACEMENT_3D('',#1733,#1424,#1425);
#1245=AXIS2_PLACEMENT_3D('',#1734,#1426,#1427);
#1246=AXIS2_PLACEMENT_3D('',#1735,#1428,#1429);
#1247=AXIS2_PLACEMENT_3D('',#1744,#1434,#1435);
#1248=AXIS2_PLACEMENT_3D('',#1750,#1439,#1440);
#1249=AXIS2_PLACEMENT_3D('',#1756,#1444,#1445);
#1250=AXIS2_PLACEMENT_3D('',#1759,#1448,#1449);
#1251=AXIS2_PLACEMENT_3D('',#1760,#1450,#1451);
#1252=AXIS2_PLACEMENT_3D('',#1761,#1452,#1453);
#1253=AXIS2_PLACEMENT_3D('',#1770,#1458,#1459);
#1254=AXIS2_PLACEMENT_3D('',#1776,#1463,#1464);
#1255=AXIS2_PLACEMENT_3D('',#1782,#1468,#1469);
#1256=AXIS2_PLACEMENT_3D('',#1785,#1472,#1473);
#1257=AXIS2_PLACEMENT_3D('',#1786,#1474,#1475);
#1258=AXIS2_PLACEMENT_3D('',#1787,#1476,#1477);
#1259=AXIS2_PLACEMENT_3D('',#1796,#1482,#1483);
#1260=AXIS2_PLACEMENT_3D('',#1802,#1487,#1488);
#1261=AXIS2_PLACEMENT_3D('',#1808,#1492,#1493);
#1262=AXIS2_PLACEMENT_3D('',#1811,#1496,#1497);
#1263=AXIS2_PLACEMENT_3D('',#1812,#1498,#1499);
#1264=AXIS2_PLACEMENT_3D('',#1813,#1500,#1501);
#1265=AXIS2_PLACEMENT_3D('',#1822,#1506,#1507);
#1266=AXIS2_PLACEMENT_3D('',#1828,#1511,#1512);
#1267=AXIS2_PLACEMENT_3D('',#1834,#1516,#1517);
#1268=AXIS2_PLACEMENT_3D('',#1837,#1520,#1521);
#1269=AXIS2_PLACEMENT_3D('',#1838,#1522,#1523);
#1270=AXIS2_PLACEMENT_3D('',#1839,#1524,#1525);
#1271=AXIS2_PLACEMENT_3D('',#1848,#1530,#1531);
#1272=AXIS2_PLACEMENT_3D('',#1854,#1535,#1536);
#1273=AXIS2_PLACEMENT_3D('',#1860,#1540,#1541);
#1274=AXIS2_PLACEMENT_3D('',#1863,#1544,#1545);
#1275=AXIS2_PLACEMENT_3D('',#1864,#1546,#1547);
#1276=AXIS2_PLACEMENT_3D('',#1865,#1548,#1549);
#1277=AXIS2_PLACEMENT_3D('',#1874,#1554,#1555);
#1278=AXIS2_PLACEMENT_3D('',#1880,#1559,#1560);
#1279=AXIS2_PLACEMENT_3D('',#1886,#1564,#1565);
#1280=AXIS2_PLACEMENT_3D('',#1889,#1568,#1569);
#1281=AXIS2_PLACEMENT_3D('',#1890,#1570,#1571);
#1282=AXIS2_PLACEMENT_3D('',#1891,#1572,#1573);
#1283=AXIS2_PLACEMENT_3D('',#1900,#1578,#1579);
#1284=AXIS2_PLACEMENT_3D('',#1906,#1583,#1584);
#1285=AXIS2_PLACEMENT_3D('',#1912,#1588,#1589);
#1286=AXIS2_PLACEMENT_3D('',#1915,#1592,#1593);
#1287=AXIS2_PLACEMENT_3D('',#1916,#1594,#1595);
#1288=DIRECTION('axis',(0.,0.,1.));
#1289=DIRECTION('refdir',(1.,0.,0.));
#1290=DIRECTION('center_axis',(-1.30451205393456E-15,0.,-1.));
#1291=DIRECTION('ref_axis',(1.,0.,-1.31838984174237E-15));
#1292=DIRECTION('center_axis',(-2.77555756156289E-17,0.,-1.));
#1293=DIRECTION('ref_axis',(1.,0.,-1.31838984174237E-15));
#1294=DIRECTION('',(-1.30451205393456E-15,0.,-1.));
#1295=DIRECTION('center_axis',(-4.71844785465692E-16,0.,1.));
#1296=DIRECTION('ref_axis',(1.,0.,-1.31838984174237E-15));
#1297=DIRECTION('center_axis',(-1.30451205393456E-15,0.,-1.));
#1298=DIRECTION('ref_axis',(1.,0.,-1.31838984174237E-15));
#1299=DIRECTION('center_axis',(-2.77555756156289E-17,0.,-1.));
#1300=DIRECTION('ref_axis',(1.,0.,-1.31838984174237E-15));
#1301=DIRECTION('',(-1.30451205393456E-15,0.,-1.));
#1302=DIRECTION('center_axis',(-4.71844785465692E-16,0.,1.));
#1303=DIRECTION('ref_axis',(1.,0.,-1.31838984174237E-15));
#1304=DIRECTION('center_axis',(-1.30451205393456E-15,0.,-1.));
#1305=DIRECTION('ref_axis',(1.,0.,-1.31838984174237E-15));
#1306=DIRECTION('center_axis',(-2.77555756156289E-17,0.,-1.));
#1307=DIRECTION('ref_axis',(1.,0.,-1.31838984174237E-15));
#1308=DIRECTION('',(-1.30451205393456E-15,0.,-1.));
#1309=DIRECTION('center_axis',(-4.71844785465692E-16,0.,1.));
#1310=DIRECTION('ref_axis',(1.,0.,-1.31838984174237E-15));
#1311=DIRECTION('center_axis',(-1.30451205393456E-15,0.,-1.));
#1312=DIRECTION('ref_axis',(1.,0.,-1.31838984174237E-15));
#1313=DIRECTION('center_axis',(-2.77555756156289E-17,0.,-1.));
#1314=DIRECTION('ref_axis',(1.,0.,-1.31838984174237E-15));
#1315=DIRECTION('',(-1.30451205393456E-15,0.,-1.));
#1316=DIRECTION('center_axis',(-4.71844785465692E-16,0.,1.));
#1317=DIRECTION('ref_axis',(1.,0.,-1.31838984174237E-15));
#1318=DIRECTION('center_axis',(-1.30451205393456E-15,0.,-1.));
#1319=DIRECTION('ref_axis',(1.,0.,-1.31838984174237E-15));
#1320=DIRECTION('center_axis',(-2.77555756156289E-17,0.,-1.));
#1321=DIRECTION('ref_axis',(1.,0.,-1.31838984174237E-15));
#1322=DIRECTION('',(-1.30451205393456E-15,0.,-1.));
#1323=DIRECTION('center_axis',(-4.71844785465692E-16,0.,1.));
#1324=DIRECTION('ref_axis',(1.,0.,-1.31838984174237E-15));
#1325=DIRECTION('center_axis',(-1.30451205393456E-15,0.,-1.));
#1326=DIRECTION('ref_axis',(1.,0.,-1.31838984174237E-15));
#1327=DIRECTION('center_axis',(-2.77555756156289E-17,0.,-1.));
#1328=DIRECTION('ref_axis',(1.,0.,-1.31838984174237E-15));
#1329=DIRECTION('',(-1.30451205393456E-15,0.,-1.));
#1330=DIRECTION('center_axis',(-4.71844785465692E-16,0.,1.));
#1331=DIRECTION('ref_axis',(1.,0.,-1.31838984174237E-15));
#1332=DIRECTION('center_axis',(-1.30451205393456E-15,0.,-1.));
#1333=DIRECTION('ref_axis',(1.,0.,-1.31838984174237E-15));
#1334=DIRECTION('center_axis',(-2.77555756156289E-17,0.,-1.));
#1335=DIRECTION('ref_axis',(1.,0.,-1.31838984174237E-15));
#1336=DIRECTION('',(-1.30451205393456E-15,0.,-1.));
#1337=DIRECTION('center_axis',(-4.71844785465692E-16,0.,1.));
#1338=DIRECTION('ref_axis',(1.,0.,-1.31838984174237E-15));
#1339=DIRECTION('center_axis',(-1.30451205393456E-15,0.,-1.));
#1340=DIRECTION('ref_axis',(1.,0.,-1.31838984174237E-15));
#1341=DIRECTION('center_axis',(-2.77555756156289E-17,0.,-1.));
#1342=DIRECTION('ref_axis',(1.,0.,-1.31838984174237E-15));
#1343=DIRECTION('',(-1.30451205393456E-15,0.,-1.));
#1344=DIRECTION('center_axis',(-4.71844785465692E-16,0.,1.));
#1345=DIRECTION('ref_axis',(1.,0.,-1.31838984174237E-15));
#1346=DIRECTION('center_axis',(0.,-1.,0.));
#1347=DIRECTION('ref_axis',(-1.,0.,2.77555756156289E-17));
#1348=DIRECTION('',(1.,0.,-2.77555756156289E-17));
#1349=DIRECTION('',(4.71844785465692E-16,0.,-1.));
#1350=DIRECTION('',(-1.,0.,2.77555756156289E-17));
#1351=DIRECTION('',(4.71844785465692E-16,0.,-1.));
#1352=DIRECTION('center_axis',(-1.,0.,-4.71844785465692E-16));
#1353=DIRECTION('ref_axis',(0.,1.,0.));
#1354=DIRECTION('',(0.,-1.,0.));
#1355=DIRECTION('',(0.,1.,0.));
#1356=DIRECTION('',(4.71844785465692E-16,0.,-1.));
#1357=DIRECTION('center_axis',(0.,-1.,0.));
#1358=DIRECTION('ref_axis',(-1.,0.,2.77555756156289E-17));
#1359=DIRECTION('',(1.,0.,-2.77555756156289E-17));
#1360=DIRECTION('',(-1.,0.,2.77555756156289E-17));
#1361=DIRECTION('',(4.71844785465692E-16,0.,-1.));
#1362=DIRECTION('center_axis',(1.,0.,4.71844785465692E-16));
#1363=DIRECTION('ref_axis',(0.,-1.,0.));
#1364=DIRECTION('',(0.,1.,0.));
#1365=DIRECTION('',(0.,-1.,0.));
#1366=DIRECTION('',(4.71844785465692E-16,0.,-1.));
#1367=DIRECTION('center_axis',(0.,1.,0.));
#1368=DIRECTION('ref_axis',(1.,0.,-2.77555756156289E-17));
#1369=DIRECTION('',(-1.,0.,2.77555756156289E-17));
#1370=DIRECTION('',(1.,0.,-2.77555756156289E-17));
#1371=DIRECTION('',(4.71844785465692E-16,0.,-1.));
#1372=DIRECTION('center_axis',(-1.,0.,-4.71844785465692E-16));
#1373=DIRECTION('ref_axis',(0.,1.,0.));
#1374=DIRECTION('',(0.,-1.,0.));
#1375=DIRECTION('',(0.,1.,0.));
#1376=DIRECTION('center_axis',(2.77555756156289E-17,0.,1.));
#1377=DIRECTION('ref_axis',(1.,0.,-2.77555756156289E-17));
#1378=DIRECTION('center_axis',(4.71844785465692E-16,0.,-1.));
#1379=DIRECTION('ref_axis',(1.,0.,4.71844785465692E-16));
#1380=DIRECTION('center_axis',(0.,1.,0.));
#1381=DIRECTION('ref_axis',(-1.,0.,2.77555756156289E-17));
#1382=DIRECTION('',(-1.,0.,2.77555756156289E-17));
#1383=DIRECTION('',(-1.7411072583684E-13,0.,1.));
#1384=DIRECTION('',(-1.,0.,2.77555756156289E-17));
#1385=DIRECTION('',(-1.7411072583684E-13,0.,1.));
#1386=DIRECTION('center_axis',(1.,0.,1.7411072583684E-13));
#1387=DIRECTION('ref_axis',(0.,1.,0.));
#1388=DIRECTION('',(0.,1.,0.));
#1389=DIRECTION('',(0.,1.,0.));
#1390=DIRECTION('',(-1.7411072583684E-13,0.,1.));
#1391=DIRECTION('center_axis',(0.,-1.,0.));
#1392=DIRECTION('ref_axis',(1.,0.,-2.77555756156289E-17));
#1393=DIRECTION('',(1.,0.,-2.77555756156289E-17));
#1394=DIRECTION('',(1.,0.,-2.77555756156289E-17));
#1395=DIRECTION('',(-1.7411072583684E-13,0.,1.));
#1396=DIRECTION('center_axis',(-1.,0.,-1.7411072583684E-13));
#1397=DIRECTION('ref_axis',(0.,-1.,0.));
#1398=DIRECTION('',(0.,-1.,0.));
#1399=DIRECTION('',(0.,-1.,0.));
#1400=DIRECTION('center_axis',(-1.7411072583684E-13,0.,1.));
#1401=DIRECTION('ref_axis',(-1.,0.,-1.7411072583684E-13));
#1402=DIRECTION('center_axis',(2.77555756156289E-17,0.,1.));
#1403=DIRECTION('ref_axis',(1.,0.,-2.77555756156289E-17));
#1404=DIRECTION('center_axis',(0.,1.,0.));
#1405=DIRECTION('ref_axis',(-1.,0.,2.77555756156289E-17));
#1406=DIRECTION('',(-1.,0.,2.77555756156289E-17));
#1407=DIRECTION('',(-1.7411072583684E-13,0.,1.));
#1408=DIRECTION('',(-1.,0.,2.77555756156289E-17));
#1409=DIRECTION('',(-1.7411072583684E-13,0.,1.));
#1410=DIRECTION('center_axis',(1.,0.,1.7411072583684E-13));
#1411=DIRECTION('ref_axis',(0.,1.,0.));
#1412=DIRECTION('',(0.,1.,0.));
#1413=DIRECTION('',(0.,1.,0.));
#1414=DIRECTION('',(-1.7411072583684E-13,0.,1.));
#1415=DIRECTION('center_axis',(0.,-1.,0.));
#1416=DIRECTION('ref_axis',(1.,0.,-2.77555756156289E-17));
#1417=DIRECTION('',(1.,0.,-2.77555756156289E-17));
#1418=DIRECTION('',(1.,0.,-2.77555756156289E-17));
#1419=DIRECTION('',(-1.7411072583684E-13,0.,1.));
#1420=DIRECTION('center_axis',(-1.,0.,-1.7411072583684E-13));
#1421=DIRECTION('ref_axis',(0.,-1.,0.));
#1422=DIRECTION('',(0.,-1.,0.));
#1423=DIRECTION('',(0.,-1.,0.));
#1424=DIRECTION('center_axis',(-1.7411072583684E-13,0.,1.));
#1425=DIRECTION('ref_axis',(-1.,0.,-1.7411072583684E-13));
#1426=DIRECTION('center_axis',(2.77555756156289E-17,0.,1.));
#1427=DIRECTION('ref_axis',(1.,0.,-2.77555756156289E-17));
#1428=DIRECTION('center_axis',(0.,1.,0.));
#1429=DIRECTION('ref_axis',(-1.,0.,2.77555756156289E-17));
#1430=DIRECTION('',(-1.,0.,2.77555756156289E-17));
#1431=DIRECTION('',(-1.7411072583684E-13,0.,1.));
#1432=DIRECTION('',(-1.,0.,2.77555756156289E-17));
#1433=DIRECTION('',(-1.7411072583684E-13,0.,1.));
#1434=DIRECTION('center_axis',(1.,0.,1.7411072583684E-13));
#1435=DIRECTION('ref_axis',(0.,1.,0.));
#1436=DIRECTION('',(0.,1.,0.));
#1437=DIRECTION('',(0.,1.,0.));
#1438=DIRECTION('',(-1.7411072583684E-13,0.,1.));
#1439=DIRECTION('center_axis',(0.,-1.,0.));
#1440=DIRECTION('ref_axis',(1.,0.,-2.77555756156289E-17));
#1441=DIRECTION('',(1.,0.,-2.77555756156289E-17));
#1442=DIRECTION('',(1.,0.,-2.77555756156289E-17));
#1443=DIRECTION('',(-1.7411072583684E-13,0.,1.));
#1444=DIRECTION('center_axis',(-1.,0.,-1.7411072583684E-13));
#1445=DIRECTION('ref_axis',(0.,-1.,0.));
#1446=DIRECTION('',(0.,-1.,0.));
#1447=DIRECTION('',(0.,-1.,0.));
#1448=DIRECTION('center_axis',(-1.7411072583684E-13,0.,1.));
#1449=DIRECTION('ref_axis',(-1.,0.,-1.7411072583684E-13));
#1450=DIRECTION('center_axis',(2.77555756156289E-17,0.,1.));
#1451=DIRECTION('ref_axis',(1.,0.,-2.77555756156289E-17));
#1452=DIRECTION('center_axis',(0.,1.,0.));
#1453=DIRECTION('ref_axis',(-1.,0.,2.77555756156289E-17));
#1454=DIRECTION('',(-1.,0.,2.77555756156289E-17));
#1455=DIRECTION('',(-1.7411072583684E-13,0.,1.));
#1456=DIRECTION('',(-1.,0.,2.77555756156289E-17));
#1457=DIRECTION('',(-1.7411072583684E-13,0.,1.));
#1458=DIRECTION('center_axis',(1.,0.,1.7411072583684E-13));
#1459=DIRECTION('ref_axis',(0.,1.,0.));
#1460=DIRECTION('',(0.,1.,0.));
#1461=DIRECTION('',(0.,1.,0.));
#1462=DIRECTION('',(-1.7411072583684E-13,0.,1.));
#1463=DIRECTION('center_axis',(0.,-1.,0.));
#1464=DIRECTION('ref_axis',(1.,0.,-2.77555756156289E-17));
#1465=DIRECTION('',(1.,0.,-2.77555756156289E-17));
#1466=DIRECTION('',(1.,0.,-2.77555756156289E-17));
#1467=DIRECTION('',(-1.7411072583684E-13,0.,1.));
#1468=DIRECTION('center_axis',(-1.,0.,-1.7411072583684E-13));
#1469=DIRECTION('ref_axis',(0.,-1.,0.));
#1470=DIRECTION('',(0.,-1.,0.));
#1471=DIRECTION('',(0.,-1.,0.));
#1472=DIRECTION('center_axis',(-1.7411072583684E-13,0.,1.));
#1473=DIRECTION('ref_axis',(-1.,0.,-1.7411072583684E-13));
#1474=DIRECTION('center_axis',(2.77555756156289E-17,0.,1.));
#1475=DIRECTION('ref_axis',(1.,0.,-2.77555756156289E-17));
#1476=DIRECTION('center_axis',(0.,1.,0.));
#1477=DIRECTION('ref_axis',(-1.,0.,2.77555756156289E-17));
#1478=DIRECTION('',(-1.,0.,2.77555756156289E-17));
#1479=DIRECTION('',(-1.7411072583684E-13,0.,1.));
#1480=DIRECTION('',(-1.,0.,2.77555756156289E-17));
#1481=DIRECTION('',(-1.7411072583684E-13,0.,1.));
#1482=DIRECTION('center_axis',(1.,0.,1.7411072583684E-13));
#1483=DIRECTION('ref_axis',(0.,1.,0.));
#1484=DIRECTION('',(0.,1.,0.));
#1485=DIRECTION('',(0.,1.,0.));
#1486=DIRECTION('',(-1.7411072583684E-13,0.,1.));
#1487=DIRECTION('center_axis',(0.,-1.,0.));
#1488=DIRECTION('ref_axis',(1.,0.,-2.77555756156289E-17));
#1489=DIRECTION('',(1.,0.,-2.77555756156289E-17));
#1490=DIRECTION('',(1.,0.,-2.77555756156289E-17));
#1491=DIRECTION('',(-1.7411072583684E-13,0.,1.));
#1492=DIRECTION('center_axis',(-1.,0.,-1.7411072583684E-13));
#1493=DIRECTION('ref_axis',(0.,-1.,0.));
#1494=DIRECTION('',(0.,-1.,0.));
#1495=DIRECTION('',(0.,-1.,0.));
#1496=DIRECTION('center_axis',(-1.7411072583684E-13,0.,1.));
#1497=DIRECTION('ref_axis',(-1.,0.,-1.7411072583684E-13));
#1498=DIRECTION('center_axis',(2.77555756156289E-17,0.,1.));
#1499=DIRECTION('ref_axis',(1.,0.,-2.77555756156289E-17));
#1500=DIRECTION('center_axis',(0.,1.,0.));
#1501=DIRECTION('ref_axis',(-1.,0.,2.77555756156289E-17));
#1502=DIRECTION('',(-1.,0.,2.77555756156289E-17));
#1503=DIRECTION('',(-1.7411072583684E-13,0.,1.));
#1504=DIRECTION('',(-1.,0.,2.77555756156289E-17));
#1505=DIRECTION('',(-1.7411072583684E-13,0.,1.));
#1506=DIRECTION('center_axis',(1.,0.,1.7411072583684E-13));
#1507=DIRECTION('ref_axis',(0.,1.,0.));
#1508=DIRECTION('',(0.,1.,0.));
#1509=DIRECTION('',(0.,1.,0.));
#1510=DIRECTION('',(-1.7411072583684E-13,0.,1.));
#1511=DIRECTION('center_axis',(0.,-1.,0.));
#1512=DIRECTION('ref_axis',(1.,0.,-2.77555756156289E-17));
#1513=DIRECTION('',(1.,0.,-2.77555756156289E-17));
#1514=DIRECTION('',(1.,0.,-2.77555756156289E-17));
#1515=DIRECTION('',(-1.7411072583684E-13,0.,1.));
#1516=DIRECTION('center_axis',(-1.,0.,-1.7411072583684E-13));
#1517=DIRECTION('ref_axis',(0.,-1.,0.));
#1518=DIRECTION('',(0.,-1.,0.));
#1519=DIRECTION('',(0.,-1.,0.));
#1520=DIRECTION('center_axis',(-1.7411072583684E-13,0.,1.));
#1521=DIRECTION('ref_axis',(-1.,0.,-1.7411072583684E-13));
#1522=DIRECTION('center_axis',(2.77555756156289E-17,0.,1.));
#1523=DIRECTION('ref_axis',(1.,0.,-2.77555756156289E-17));
#1524=DIRECTION('center_axis',(0.,1.,0.));
#1525=DIRECTION('ref_axis',(-1.,0.,2.77555756156289E-17));
#1526=DIRECTION('',(-1.,0.,2.77555756156289E-17));
#1527=DIRECTION('',(-1.7411072583684E-13,0.,1.));
#1528=DIRECTION('',(-1.,0.,2.77555756156289E-17));
#1529=DIRECTION('',(-1.7411072583684E-13,0.,1.));
#1530=DIRECTION('center_axis',(1.,0.,1.7411072583684E-13));
#1531=DIRECTION('ref_axis',(0.,1.,0.));
#1532=DIRECTION('',(0.,1.,0.));
#1533=DIRECTION('',(0.,1.,0.));
#1534=DIRECTION('',(-1.7411072583684E-13,0.,1.));
#1535=DIRECTION('center_axis',(0.,-1.,0.));
#1536=DIRECTION('ref_axis',(1.,0.,-2.77555756156289E-17));
#1537=DIRECTION('',(1.,0.,-2.77555756156289E-17));
#1538=DIRECTION('',(1.,0.,-2.77555756156289E-17));
#1539=DIRECTION('',(-1.7411072583684E-13,0.,1.));
#1540=DIRECTION('center_axis',(-1.,0.,-1.7411072583684E-13));
#1541=DIRECTION('ref_axis',(0.,-1.,0.));
#1542=DIRECTION('',(0.,-1.,0.));
#1543=DIRECTION('',(0.,-1.,0.));
#1544=DIRECTION('center_axis',(-1.7411072583684E-13,0.,1.));
#1545=DIRECTION('ref_axis',(-1.,0.,-1.7411072583684E-13));
#1546=DIRECTION('center_axis',(2.77555756156289E-17,0.,1.));
#1547=DIRECTION('ref_axis',(1.,0.,-2.77555756156289E-17));
#1548=DIRECTION('center_axis',(0.,1.,0.));
#1549=DIRECTION('ref_axis',(-1.,0.,2.77555756156289E-17));
#1550=DIRECTION('',(-1.,0.,2.77555756156289E-17));
#1551=DIRECTION('',(-7.43849426498855E-15,0.,1.));
#1552=DIRECTION('',(-1.,0.,2.77555756156289E-17));
#1553=DIRECTION('',(-7.43849426498855E-15,0.,1.));
#1554=DIRECTION('center_axis',(1.,0.,7.43849426498855E-15));
#1555=DIRECTION('ref_axis',(0.,1.,0.));
#1556=DIRECTION('',(0.,1.,0.));
#1557=DIRECTION('',(0.,1.,0.));
#1558=DIRECTION('',(-7.43849426498855E-15,0.,1.));
#1559=DIRECTION('center_axis',(0.,-1.,0.));
#1560=DIRECTION('ref_axis',(1.,0.,-2.77555756156289E-17));
#1561=DIRECTION('',(1.,0.,-2.77555756156289E-17));
#1562=DIRECTION('',(1.,0.,-2.77555756156289E-17));
#1563=DIRECTION('',(-7.43849426498855E-15,0.,1.));
#1564=DIRECTION('center_axis',(-1.,0.,-7.43849426498855E-15));
#1565=DIRECTION('ref_axis',(0.,-1.,0.));
#1566=DIRECTION('',(0.,-1.,0.));
#1567=DIRECTION('',(0.,-1.,0.));
#1568=DIRECTION('center_axis',(-7.43849426498855E-15,0.,1.));
#1569=DIRECTION('ref_axis',(-1.,0.,-7.43849426498855E-15));
#1570=DIRECTION('center_axis',(2.77555756156289E-17,0.,1.));
#1571=DIRECTION('ref_axis',(1.,0.,-2.77555756156289E-17));
#1572=DIRECTION('center_axis',(-2.60208521396521E-17,1.,3.46667389989702E-32));
#1573=DIRECTION('ref_axis',(-1.,-2.60208521396521E-17,2.77555756156289E-17));
#1574=DIRECTION('',(-1.,-2.60208521396521E-17,2.77555756156289E-17));
#1575=DIRECTION('',(1.30451205393456E-15,0.,1.));
#1576=DIRECTION('',(-1.,-2.60208521396521E-17,0.));
#1577=DIRECTION('',(1.30451205393456E-15,0.,1.));
#1578=DIRECTION('center_axis',(1.,0.,-1.30451205393456E-15));
#1579=DIRECTION('ref_axis',(0.,1.,0.));
#1580=DIRECTION('',(0.,1.,0.));
#1581=DIRECTION('',(0.,1.,0.));
#1582=DIRECTION('',(1.30451205393456E-15,0.,1.));
#1583=DIRECTION('center_axis',(0.,-1.,0.));
#1584=DIRECTION('ref_axis',(1.,0.,-2.77555756156289E-17));
#1585=DIRECTION('',(1.,0.,-2.77555756156289E-17));
#1586=DIRECTION('',(1.,0.,0.));
#1587=DIRECTION('',(1.30451205393456E-15,0.,1.));
#1588=DIRECTION('center_axis',(-1.,0.,1.30451205393456E-15));
#1589=DIRECTION('ref_axis',(0.,-1.,0.));
#1590=DIRECTION('',(0.,-1.,0.));
#1591=DIRECTION('',(0.,-1.,0.));
#1592=DIRECTION('center_axis',(1.30451205393456E-15,0.,1.));
#1593=DIRECTION('ref_axis',(-1.,0.,1.30451205393456E-15));
#1594=DIRECTION('center_axis',(2.77555756156289E-17,0.,1.));
#1595=DIRECTION('ref_axis',(1.,0.,-2.77555756156289E-17));
#1596=CARTESIAN_POINT('',(0.,0.,0.));
#1597=CARTESIAN_POINT('Origin',(2.99999000000005,57.12435,1.77635683940025E-14));
#1598=CARTESIAN_POINT('',(1.49999000000003,57.12435,0.));
#1599=CARTESIAN_POINT('Origin',(2.99999000000005,57.12435,4.97241267605197E-14));
#1600=CARTESIAN_POINT('',(1.49999000000005,57.12435,-1.59999999999993));
#1601=CARTESIAN_POINT('',(1.49999000000005,57.12435,1.97411531566161E-14));
#1602=CARTESIAN_POINT('Origin',(2.99999000000005,57.12435,-1.59999999999993));
#1603=CARTESIAN_POINT('Origin',(2.99999000000005,35.7185,1.77635683940025E-14));
#1604=CARTESIAN_POINT('',(1.49999000000003,35.7185,0.));
#1605=CARTESIAN_POINT('Origin',(2.99999000000005,35.7185,4.97241267605197E-14));
#1606=CARTESIAN_POINT('',(1.49999000000005,35.7185,-1.59999999999993));
#1607=CARTESIAN_POINT('',(1.49999000000005,35.7185,1.97411531566161E-14));
#1608=CARTESIAN_POINT('Origin',(2.99999000000005,35.7185,-1.59999999999993));
#1609=CARTESIAN_POINT('Origin',(51.9998900000001,27.62428,3.5527136788005E-14));
#1610=CARTESIAN_POINT('',(50.49989,27.62428,1.77635683940025E-14));
#1611=CARTESIAN_POINT('Origin',(51.9998900000001,27.62428,-1.41968334310683E-14));
#1612=CARTESIAN_POINT('',(50.49989,27.62428,-1.6));
#1613=CARTESIAN_POINT('',(50.49989,27.62428,3.75047215506186E-14));
#1614=CARTESIAN_POINT('Origin',(51.9998900000001,27.62428,-1.6));
#1615=CARTESIAN_POINT('Origin',(51.9998900000001,8.62432,3.5527136788005E-14));
#1616=CARTESIAN_POINT('',(50.49989,8.62432,1.77635683940025E-14));
#1617=CARTESIAN_POINT('Origin',(51.9998900000001,8.62432,-1.41968334310683E-14));
#1618=CARTESIAN_POINT('',(50.49989,8.62432,-1.6));
#1619=CARTESIAN_POINT('',(50.49989,8.62432,3.75047215506186E-14));
#1620=CARTESIAN_POINT('Origin',(51.9998900000001,8.62432,-1.6));
#1621=CARTESIAN_POINT('Origin',(2.99999000000005,27.62428,1.77635683940025E-14));
#1622=CARTESIAN_POINT('',(1.49999000000003,27.62428,0.));
#1623=CARTESIAN_POINT('Origin',(2.99999000000005,27.62428,4.97241267605197E-14));
#1624=CARTESIAN_POINT('',(1.49999000000005,27.62428,-1.59999999999993));
#1625=CARTESIAN_POINT('',(1.49999000000005,27.62428,1.97411531566161E-14));
#1626=CARTESIAN_POINT('Origin',(2.99999000000005,27.62428,-1.59999999999993));
#1627=CARTESIAN_POINT('Origin',(2.99999000000005,8.62432,1.77635683940025E-14));
#1628=CARTESIAN_POINT('',(1.49999000000003,8.62432,0.));
#1629=CARTESIAN_POINT('Origin',(2.99999000000005,8.62432,4.97241267605197E-14));
#1630=CARTESIAN_POINT('',(1.49999000000005,8.62432,-1.59999999999993));
#1631=CARTESIAN_POINT('',(1.49999000000005,8.62432,1.97411531566161E-14));
#1632=CARTESIAN_POINT('Origin',(2.99999000000005,8.62432,-1.59999999999993));
#1633=CARTESIAN_POINT('Origin',(51.9998900000001,35.7185,3.5527136788005E-14));
#1634=CARTESIAN_POINT('',(50.49989,35.7185,1.77635683940025E-14));
#1635=CARTESIAN_POINT('Origin',(51.9998900000001,35.7185,-1.41968334310683E-14));
#1636=CARTESIAN_POINT('',(50.49989,35.7185,-1.6));
#1637=CARTESIAN_POINT('',(50.49989,35.7185,3.75047215506186E-14));
#1638=CARTESIAN_POINT('Origin',(51.9998900000001,35.7185,-1.6));
#1639=CARTESIAN_POINT('Origin',(51.9998900000001,57.12435,3.5527136788005E-14));
#1640=CARTESIAN_POINT('',(50.49989,57.12435,1.77635683940025E-14));
#1641=CARTESIAN_POINT('Origin',(51.9998900000001,57.12435,-1.41968334310683E-14));
#1642=CARTESIAN_POINT('',(50.49989,57.12435,-1.6));
#1643=CARTESIAN_POINT('',(50.49989,57.12435,3.75047215506186E-14));
#1644=CARTESIAN_POINT('Origin',(51.9998900000001,57.12435,-1.6));
#1645=CARTESIAN_POINT('Origin',(14.1362,0.,1.77635683940025E-14));
#1646=CARTESIAN_POINT('',(1.77635683940025E-14,0.,1.77635683940025E-14));
#1647=CARTESIAN_POINT('',(14.1362,0.,1.77635683940025E-14));
#1648=CARTESIAN_POINT('',(1.77635683940025E-14,0.,1.77635683940025E-14));
#1649=CARTESIAN_POINT('',(3.5527136788005E-14,0.,-1.59999999999997));
#1650=CARTESIAN_POINT('',(1.77635683940025E-14,0.,1.77635683940025E-14));
#1651=CARTESIAN_POINT('',(14.1362,0.,-1.59999999999997));
#1652=CARTESIAN_POINT('',(5.32907051820075E-14,0.,-1.59999999999997));
#1653=CARTESIAN_POINT('',(14.1362,0.,1.77635683940025E-14));
#1654=CARTESIAN_POINT('Origin',(14.1362,-7.8319,1.77635683940025E-14));
#1655=CARTESIAN_POINT('',(14.1362,-7.8319,1.77635683940025E-14));
#1656=CARTESIAN_POINT('',(14.1362,0.,1.77635683940025E-14));
#1657=CARTESIAN_POINT('',(14.1362,-7.8319,-1.59999999999997));
#1658=CARTESIAN_POINT('',(14.1362000000001,0.,-1.59999999999997));
#1659=CARTESIAN_POINT('',(14.1362,-7.8319,1.77635683940025E-14));
#1660=CARTESIAN_POINT('Origin',(55.0000000000001,-7.8319,3.5527136788005E-14));
#1661=CARTESIAN_POINT('',(55.,-7.8319,1.77635683940025E-14));
#1662=CARTESIAN_POINT('',(14.1362,-7.8319,1.77635683940025E-14));
#1663=CARTESIAN_POINT('',(55.,-7.8319,-1.59999999999997));
#1664=CARTESIAN_POINT('',(14.1362000000001,-7.8319,-1.59999999999997));
#1665=CARTESIAN_POINT('',(55.,-7.8319,1.77635683940025E-14));
#1666=CARTESIAN_POINT('Origin',(55.,60.6243,1.77635683940025E-14));
#1667=CARTESIAN_POINT('',(55.,60.6243,1.77635683940025E-14));
#1668=CARTESIAN_POINT('',(55.,-7.8319,1.77635683940025E-14));
#1669=CARTESIAN_POINT('',(55.,60.6243,-1.59999999999997));
#1670=CARTESIAN_POINT('',(55.0000000000001,-7.8319,-1.59999999999997));
#1671=CARTESIAN_POINT('',(55.,60.6243,1.77635683940025E-14));
#1672=CARTESIAN_POINT('Origin',(1.77635683940025E-14,60.6243,1.77635683940025E-14));
#1673=CARTESIAN_POINT('',(1.77635683940025E-14,60.6243,1.77635683940025E-14));
#1674=CARTESIAN_POINT('',(55.,60.6243,1.77635683940025E-14));
#1675=CARTESIAN_POINT('',(3.5527136788005E-14,60.6243,-1.59999999999997));
#1676=CARTESIAN_POINT('',(55.0000000000001,60.6243,-1.59999999999997));
#1677=CARTESIAN_POINT('',(1.77635683940025E-14,60.6243,1.77635683940025E-14));
#1678=CARTESIAN_POINT('Origin',(1.77635683940025E-14,0.,1.77635683940025E-14));
#1679=CARTESIAN_POINT('',(1.77635683940025E-14,60.6243,1.77635683940025E-14));
#1680=CARTESIAN_POINT('',(5.32907051820075E-14,60.6243,-1.59999999999997));
#1681=CARTESIAN_POINT('Origin',(27.5,26.3962,1.77635683940025E-14));
#1682=CARTESIAN_POINT('Origin',(27.5,26.3962,-1.59999999999997));
#1683=CARTESIAN_POINT('Origin',(44.3362,46.4378,1.77635683940025E-14));
#1684=CARTESIAN_POINT('',(44.3362,46.4378,1.77635683940025E-14));
#1685=CARTESIAN_POINT('',(42.6862,46.4378,0.));
#1686=CARTESIAN_POINT('',(44.3362,46.4378,1.77635683940025E-14));
#1687=CARTESIAN_POINT('',(42.6862,46.4378,0.0500000000000078));
#1688=CARTESIAN_POINT('',(42.6862,46.4378,0.));
#1689=CARTESIAN_POINT('',(44.3362,46.4378,0.0500000000000256));
#1690=CARTESIAN_POINT('',(44.3362,46.4378,0.0500000000000433));
#1691=CARTESIAN_POINT('',(44.3362,46.4378,1.77635683940025E-14));
#1692=CARTESIAN_POINT('Origin',(44.3362,42.7391,1.77635683940025E-14));
#1693=CARTESIAN_POINT('',(44.3362,42.7391,1.77635683940025E-14));
#1694=CARTESIAN_POINT('',(44.3362,42.7391,1.77635683940025E-14));
#1695=CARTESIAN_POINT('',(44.3362,42.7391,0.0500000000000256));
#1696=CARTESIAN_POINT('',(44.3362,42.7391,0.0500000000000433));
#1697=CARTESIAN_POINT('',(44.3362,42.7391,1.77635683940025E-14));
#1698=CARTESIAN_POINT('Origin',(42.6862,42.7391,0.));
#1699=CARTESIAN_POINT('',(42.6862,42.7391,0.));
#1700=CARTESIAN_POINT('',(42.6862,42.7391,0.));
#1701=CARTESIAN_POINT('',(42.6862,42.7391,0.0500000000000078));
#1702=CARTESIAN_POINT('',(42.6862000000001,42.7391,0.0500000000000256));
#1703=CARTESIAN_POINT('',(42.6862,42.7391,0.));
#1704=CARTESIAN_POINT('Origin',(42.6862,46.4378,0.));
#1705=CARTESIAN_POINT('',(42.6862,46.4378,0.));
#1706=CARTESIAN_POINT('',(42.6862000000001,46.4378,0.0500000000000256));
#1707=CARTESIAN_POINT('Origin',(36.1464,44.02825,0.0499999999988709));
#1708=CARTESIAN_POINT('Origin',(36.1464,44.02825,1.77635683940025E-14));
#1709=CARTESIAN_POINT('Origin',(24.7713,47.735,3.5527136788005E-14));
#1710=CARTESIAN_POINT('',(24.7713,47.735,3.5527136788005E-14));
#1711=CARTESIAN_POINT('',(23.1214,47.735,1.77635683940025E-14));
#1712=CARTESIAN_POINT('',(24.7713,47.735,3.5527136788005E-14));
#1713=CARTESIAN_POINT('',(23.1214,47.735,0.0500000000000256));
#1714=CARTESIAN_POINT('',(23.1214,47.735,1.77635683940025E-14));
#1715=CARTESIAN_POINT('',(24.7713,47.735,0.0500000000000433));
#1716=CARTESIAN_POINT('',(24.7713,47.735,0.0500000000000433));
#1717=CARTESIAN_POINT('',(24.7713,47.735,3.5527136788005E-14));
#1718=CARTESIAN_POINT('Origin',(24.7713,44.0362,3.5527136788005E-14));
#1719=CARTESIAN_POINT('',(24.7713,44.0362,3.5527136788005E-14));
#1720=CARTESIAN_POINT('',(24.7713,44.0362,3.5527136788005E-14));
#1721=CARTESIAN_POINT('',(24.7713,44.0362,0.0500000000000433));
#1722=CARTESIAN_POINT('',(24.7713,44.0362,0.0500000000000433));
#1723=CARTESIAN_POINT('',(24.7713,44.0362,3.5527136788005E-14));
#1724=CARTESIAN_POINT('Origin',(23.1214,44.0362,1.77635683940025E-14));
#1725=CARTESIAN_POINT('',(23.1214,44.0362,1.77635683940025E-14));
#1726=CARTESIAN_POINT('',(23.1214,44.0362,1.77635683940025E-14));
#1727=CARTESIAN_POINT('',(23.1214,44.0362,0.0500000000000256));
#1728=CARTESIAN_POINT('',(23.1214,44.0362,0.0500000000000256));
#1729=CARTESIAN_POINT('',(23.1214,44.0362,1.77635683940025E-14));
#1730=CARTESIAN_POINT('Origin',(23.1214,47.735,1.77635683940025E-14));
#1731=CARTESIAN_POINT('',(23.1214,47.735,1.77635683940025E-14));
#1732=CARTESIAN_POINT('',(23.1214,47.735,0.0500000000000256));
#1733=CARTESIAN_POINT('Origin',(36.1464,44.02825,0.0500000000022993));
#1734=CARTESIAN_POINT('Origin',(36.1464,44.02825,1.77635683940025E-14));
#1735=CARTESIAN_POINT('Origin',(29.6067,47.735,3.5527136788005E-14));
#1736=CARTESIAN_POINT('',(29.6067,47.735,3.5527136788005E-14));
#1737=CARTESIAN_POINT('',(27.9568,47.735,3.5527136788005E-14));
#1738=CARTESIAN_POINT('',(29.6067,47.735,3.5527136788005E-14));
#1739=CARTESIAN_POINT('',(27.9568,47.735,0.0500000000000256));
#1740=CARTESIAN_POINT('',(27.9568,47.735,3.5527136788005E-14));
#1741=CARTESIAN_POINT('',(29.6067,47.735,0.0500000000000256));
#1742=CARTESIAN_POINT('',(29.6067,47.735,0.0500000000000433));
#1743=CARTESIAN_POINT('',(29.6067,47.735,3.5527136788005E-14));
#1744=CARTESIAN_POINT('Origin',(29.6067,44.0362,3.5527136788005E-14));
#1745=CARTESIAN_POINT('',(29.6067,44.0362,3.5527136788005E-14));
#1746=CARTESIAN_POINT('',(29.6067,44.0362,3.5527136788005E-14));
#1747=CARTESIAN_POINT('',(29.6067,44.0362,0.0500000000000256));
#1748=CARTESIAN_POINT('',(29.6067,44.0362,0.0500000000000433));
#1749=CARTESIAN_POINT('',(29.6067,44.0362,3.5527136788005E-14));
#1750=CARTESIAN_POINT('Origin',(27.9568,44.0362,3.5527136788005E-14));
#1751=CARTESIAN_POINT('',(27.9568,44.0362,3.5527136788005E-14));
#1752=CARTESIAN_POINT('',(27.9568,44.0362,3.5527136788005E-14));
#1753=CARTESIAN_POINT('',(27.9568,44.0362,0.0500000000000256));
#1754=CARTESIAN_POINT('',(27.9568000000001,44.0362,0.0500000000000256));
#1755=CARTESIAN_POINT('',(27.9568,44.0362,3.5527136788005E-14));
#1756=CARTESIAN_POINT('Origin',(27.9568,47.735,3.5527136788005E-14));
#1757=CARTESIAN_POINT('',(27.9568,47.735,3.5527136788005E-14));
#1758=CARTESIAN_POINT('',(27.9568000000001,47.735,0.0500000000000256));
#1759=CARTESIAN_POINT('Origin',(36.1464,44.02825,0.0500000000014467));
#1760=CARTESIAN_POINT('Origin',(36.1464,44.02825,1.77635683940025E-14));
#1761=CARTESIAN_POINT('Origin',(27.1889,47.735,1.77635683940025E-14));
#1762=CARTESIAN_POINT('',(27.1889,47.735,1.77635683940025E-14));
#1763=CARTESIAN_POINT('',(25.5389,47.735,1.77635683940025E-14));
#1764=CARTESIAN_POINT('',(27.1889,47.735,1.77635683940025E-14));
#1765=CARTESIAN_POINT('',(25.5389,47.735,0.0500000000000256));
#1766=CARTESIAN_POINT('',(25.5389,47.735,1.77635683940025E-14));
#1767=CARTESIAN_POINT('',(27.1889,47.735,0.0500000000000256));
#1768=CARTESIAN_POINT('',(27.1889,47.735,0.0500000000000433));
#1769=CARTESIAN_POINT('',(27.1889,47.735,1.77635683940025E-14));
#1770=CARTESIAN_POINT('Origin',(27.1889,44.0362,1.77635683940025E-14));
#1771=CARTESIAN_POINT('',(27.1889,44.0362,1.77635683940025E-14));
#1772=CARTESIAN_POINT('',(27.1889,44.0362,1.77635683940025E-14));
#1773=CARTESIAN_POINT('',(27.1889,44.0362,0.0500000000000256));
#1774=CARTESIAN_POINT('',(27.1889,44.0362,0.0500000000000433));
#1775=CARTESIAN_POINT('',(27.1889,44.0362,1.77635683940025E-14));
#1776=CARTESIAN_POINT('Origin',(25.5389,44.0362,1.77635683940025E-14));
#1777=CARTESIAN_POINT('',(25.5389,44.0362,1.77635683940025E-14));
#1778=CARTESIAN_POINT('',(25.5389,44.0362,1.77635683940025E-14));
#1779=CARTESIAN_POINT('',(25.5389,44.0362,0.0500000000000256));
#1780=CARTESIAN_POINT('',(25.5389,44.0362,0.0500000000000433));
#1781=CARTESIAN_POINT('',(25.5389,44.0362,1.77635683940025E-14));
#1782=CARTESIAN_POINT('Origin',(25.5389,47.735,1.77635683940025E-14));
#1783=CARTESIAN_POINT('',(25.5389,47.735,1.77635683940025E-14));
#1784=CARTESIAN_POINT('',(25.5389,47.735,0.0500000000000433));
#1785=CARTESIAN_POINT('Origin',(36.1464,44.02825,0.0500000000018552));
#1786=CARTESIAN_POINT('Origin',(36.1464,44.02825,1.77635683940025E-14));
#1787=CARTESIAN_POINT('Origin',(32.0243000000001,47.735,1.77635683940025E-14));
#1788=CARTESIAN_POINT('',(32.0243000000001,47.735,1.77635683940025E-14));
#1789=CARTESIAN_POINT('',(30.3743,47.735,1.77635683940025E-14));
#1790=CARTESIAN_POINT('',(32.0243000000001,47.735,1.77635683940025E-14));
#1791=CARTESIAN_POINT('',(30.3743,47.735,0.0500000000000256));
#1792=CARTESIAN_POINT('',(30.3743,47.735,1.77635683940025E-14));
#1793=CARTESIAN_POINT('',(32.0243,47.735,0.0500000000000256));
#1794=CARTESIAN_POINT('',(32.0243000000001,47.735,0.0500000000000256));
#1795=CARTESIAN_POINT('',(32.0243000000001,47.735,1.77635683940025E-14));
#1796=CARTESIAN_POINT('Origin',(32.0243000000001,44.0362,1.77635683940025E-14));
#1797=CARTESIAN_POINT('',(32.0243000000001,44.0362,1.77635683940025E-14));
#1798=CARTESIAN_POINT('',(32.0243000000001,44.0362,1.77635683940025E-14));
#1799=CARTESIAN_POINT('',(32.0243,44.0362,0.0500000000000256));
#1800=CARTESIAN_POINT('',(32.0243000000001,44.0362,0.0500000000000256));
#1801=CARTESIAN_POINT('',(32.0243000000001,44.0362,1.77635683940025E-14));
#1802=CARTESIAN_POINT('Origin',(30.3743,44.0362,1.77635683940025E-14));
#1803=CARTESIAN_POINT('',(30.3743,44.0362,1.77635683940025E-14));
#1804=CARTESIAN_POINT('',(30.3743,44.0362,1.77635683940025E-14));
#1805=CARTESIAN_POINT('',(30.3743,44.0362,0.0500000000000256));
#1806=CARTESIAN_POINT('',(30.3743000000001,44.0362,0.0500000000000256));
#1807=CARTESIAN_POINT('',(30.3743,44.0362,1.77635683940025E-14));
#1808=CARTESIAN_POINT('Origin',(30.3743,47.735,1.77635683940025E-14));
#1809=CARTESIAN_POINT('',(30.3743,47.735,1.77635683940025E-14));
#1810=CARTESIAN_POINT('',(30.3743000000001,47.735,0.0500000000000256));
#1811=CARTESIAN_POINT('Origin',(36.1464,44.02825,0.0500000000010381));
#1812=CARTESIAN_POINT('Origin',(36.1464,44.02825,1.77635683940025E-14));
#1813=CARTESIAN_POINT('Origin',(39.5008,44.0202,3.5527136788005E-14));
#1814=CARTESIAN_POINT('',(39.5008,44.0202,3.5527136788005E-14));
#1815=CARTESIAN_POINT('',(37.8508,44.0202,1.77635683940025E-14));
#1816=CARTESIAN_POINT('',(39.5008,44.0202,3.5527136788005E-14));
#1817=CARTESIAN_POINT('',(37.8508,44.0202,0.0500000000000078));
#1818=CARTESIAN_POINT('',(37.8508,44.0202,1.77635683940025E-14));
#1819=CARTESIAN_POINT('',(39.5008,44.0202,0.0500000000000256));
#1820=CARTESIAN_POINT('',(39.5008,44.0202,0.0500000000000433));
#1821=CARTESIAN_POINT('',(39.5008,44.0202,3.5527136788005E-14));
#1822=CARTESIAN_POINT('Origin',(39.5008,40.3215,3.5527136788005E-14));
#1823=CARTESIAN_POINT('',(39.5008,40.3215,3.5527136788005E-14));
#1824=CARTESIAN_POINT('',(39.5008,40.3215,3.5527136788005E-14));
#1825=CARTESIAN_POINT('',(39.5008,40.3215,0.0500000000000256));
#1826=CARTESIAN_POINT('',(39.5008,40.3215,0.0500000000000433));
#1827=CARTESIAN_POINT('',(39.5008,40.3215,3.5527136788005E-14));
#1828=CARTESIAN_POINT('Origin',(37.8508,40.3215,1.77635683940025E-14));
#1829=CARTESIAN_POINT('',(37.8508,40.3215,1.77635683940025E-14));
#1830=CARTESIAN_POINT('',(37.8508,40.3215,1.77635683940025E-14));
#1831=CARTESIAN_POINT('',(37.8508,40.3215,0.0500000000000078));
#1832=CARTESIAN_POINT('',(37.8508,40.3215,0.0500000000000256));
#1833=CARTESIAN_POINT('',(37.8508,40.3215,1.77635683940025E-14));
#1834=CARTESIAN_POINT('Origin',(37.8508,44.0202,1.77635683940025E-14));
#1835=CARTESIAN_POINT('',(37.8508,44.0202,1.77635683940025E-14));
#1836=CARTESIAN_POINT('',(37.8508,44.0202,0.0500000000000256));
#1837=CARTESIAN_POINT('Origin',(36.1464,44.02825,0.0499999999997236));
#1838=CARTESIAN_POINT('Origin',(36.1464,44.02825,1.77635683940025E-14));
#1839=CARTESIAN_POINT('Origin',(49.1714,44.0202,0.));
#1840=CARTESIAN_POINT('',(49.1714,44.0202,0.));
#1841=CARTESIAN_POINT('',(47.5214,44.0202,3.5527136788005E-14));
#1842=CARTESIAN_POINT('',(49.1714,44.0202,0.));
#1843=CARTESIAN_POINT('',(47.5214,44.0202,0.0500000000000078));
#1844=CARTESIAN_POINT('',(47.5214,44.0202,3.5527136788005E-14));
#1845=CARTESIAN_POINT('',(49.1714,44.0202,0.0500000000000078));
#1846=CARTESIAN_POINT('',(49.1714,44.0202,0.0500000000000256));
#1847=CARTESIAN_POINT('',(49.1714,44.0202,0.));
#1848=CARTESIAN_POINT('Origin',(49.1714,40.3215,0.));
#1849=CARTESIAN_POINT('',(49.1714,40.3215,0.));
#1850=CARTESIAN_POINT('',(49.1714,40.3215,0.));
#1851=CARTESIAN_POINT('',(49.1714,40.3215,0.0500000000000078));
#1852=CARTESIAN_POINT('',(49.1714,40.3215,0.0500000000000256));
#1853=CARTESIAN_POINT('',(49.1714,40.3215,0.));
#1854=CARTESIAN_POINT('Origin',(47.5214,40.3215,3.5527136788005E-14));
#1855=CARTESIAN_POINT('',(47.5214,40.3215,3.5527136788005E-14));
#1856=CARTESIAN_POINT('',(47.5214,40.3215,3.5527136788005E-14));
#1857=CARTESIAN_POINT('',(47.5214,40.3215,0.0500000000000078));
#1858=CARTESIAN_POINT('',(47.5214,40.3215,0.0500000000000256));
#1859=CARTESIAN_POINT('',(47.5214,40.3215,3.5527136788005E-14));
#1860=CARTESIAN_POINT('Origin',(47.5214,44.0202,3.5527136788005E-14));
#1861=CARTESIAN_POINT('',(47.5214,44.0202,3.5527136788005E-14));
#1862=CARTESIAN_POINT('',(47.5214,44.0202,0.0500000000000256));
#1863=CARTESIAN_POINT('Origin',(36.1464000000001,44.02825,0.0499999999980361));
#1864=CARTESIAN_POINT('Origin',(36.1464,44.02825,1.77635683940025E-14));
#1865=CARTESIAN_POINT('Origin',(33.7094,37.7737,1.77635683940025E-14));
#1866=CARTESIAN_POINT('',(33.7094,37.7737,1.77635683940025E-14));
#1867=CARTESIAN_POINT('',(23.3094,37.7737,1.77635683940025E-14));
#1868=CARTESIAN_POINT('',(33.7094,37.7737,1.77635683940025E-14));
#1869=CARTESIAN_POINT('',(23.3094,37.7737,1.00000000000001));
#1870=CARTESIAN_POINT('',(23.3094,37.7737,1.77635683940025E-14));
#1871=CARTESIAN_POINT('',(33.7094,37.7737,1.00000000000001));
#1872=CARTESIAN_POINT('',(33.7094,37.7737,1.00000000000001));
#1873=CARTESIAN_POINT('',(33.7094,37.7737,1.77635683940025E-14));
#1874=CARTESIAN_POINT('Origin',(33.7094,27.3737,1.77635683940025E-14));
#1875=CARTESIAN_POINT('',(33.7094,27.3737,1.77635683940025E-14));
#1876=CARTESIAN_POINT('',(33.7094,27.3737,1.77635683940025E-14));
#1877=CARTESIAN_POINT('',(33.7094,27.3737,1.00000000000001));
#1878=CARTESIAN_POINT('',(33.7094,27.3737,1.00000000000001));
#1879=CARTESIAN_POINT('',(33.7094,27.3737,1.77635683940025E-14));
#1880=CARTESIAN_POINT('Origin',(23.3094,27.3737,1.77635683940025E-14));
#1881=CARTESIAN_POINT('',(23.3094,27.3737,1.77635683940025E-14));
#1882=CARTESIAN_POINT('',(23.3094,27.3737,1.77635683940025E-14));
#1883=CARTESIAN_POINT('',(23.3094,27.3737,1.00000000000001));
#1884=CARTESIAN_POINT('',(23.3094,27.3737,1.00000000000001));
#1885=CARTESIAN_POINT('',(23.3094,27.3737,1.77635683940025E-14));
#1886=CARTESIAN_POINT('Origin',(23.3094,37.7737,1.77635683940025E-14));
#1887=CARTESIAN_POINT('',(23.3094,37.7737,1.77635683940025E-14));
#1888=CARTESIAN_POINT('',(23.3094,37.7737,1.00000000000001));
#1889=CARTESIAN_POINT('Origin',(28.5094,32.5737,1.00000000000007));
#1890=CARTESIAN_POINT('Origin',(28.5094,32.5737,1.77635683940025E-14));
#1891=CARTESIAN_POINT('Origin',(56.1094000000001,0.317699999999999,3.5527136788005E-14));
#1892=CARTESIAN_POINT('',(56.1094000000001,0.317699999999999,3.5527136788005E-14));
#1893=CARTESIAN_POINT('',(48.1094,0.317699999999999,1.77635683940025E-14));
#1894=CARTESIAN_POINT('',(56.1094000000001,0.317699999999999,3.5527136788005E-14));
#1895=CARTESIAN_POINT('',(48.1094000000001,0.317699999999999,3.00000000000001));
#1896=CARTESIAN_POINT('',(48.1094,0.317699999999999,1.77635683940025E-14));
#1897=CARTESIAN_POINT('',(56.1094000000001,0.317699999999999,3.00000000000002));
#1898=CARTESIAN_POINT('',(56.1094000000001,0.317699999999999,3.00000000000002));
#1899=CARTESIAN_POINT('',(56.1094000000001,0.317699999999999,3.5527136788005E-14));
#1900=CARTESIAN_POINT('Origin',(56.1094000000001,-5.6823,3.5527136788005E-14));
#1901=CARTESIAN_POINT('',(56.1094000000001,-5.6823,3.5527136788005E-14));
#1902=CARTESIAN_POINT('',(56.1094000000001,-5.6823,3.5527136788005E-14));
#1903=CARTESIAN_POINT('',(56.1094000000001,-5.6823,3.00000000000002));
#1904=CARTESIAN_POINT('',(56.1094000000001,-5.6823,3.00000000000002));
#1905=CARTESIAN_POINT('',(56.1094000000001,-5.6823,3.5527136788005E-14));
#1906=CARTESIAN_POINT('Origin',(48.1094,-5.6823,1.77635683940025E-14));
#1907=CARTESIAN_POINT('',(48.1094,-5.6823,1.77635683940025E-14));
#1908=CARTESIAN_POINT('',(48.1094,-5.6823,1.77635683940025E-14));
#1909=CARTESIAN_POINT('',(48.1094000000001,-5.6823,3.00000000000001));
#1910=CARTESIAN_POINT('',(48.1094000000001,-5.6823,3.00000000000001));
#1911=CARTESIAN_POINT('',(48.1094,-5.6823,1.77635683940025E-14));
#1912=CARTESIAN_POINT('Origin',(48.1094,0.317699999999999,1.77635683940025E-14));
#1913=CARTESIAN_POINT('',(48.1094,0.317699999999999,1.77635683940025E-14));
#1914=CARTESIAN_POINT('',(48.1094000000001,0.317699999999999,3.00000000000001));
#1915=CARTESIAN_POINT('Origin',(52.1094000000001,-2.6823,3.00000000000002));
#1916=CARTESIAN_POINT('Origin',(52.1094000000001,-2.6823,1.77635683940025E-14));
#1917=UNCERTAINTY_MEASURE_WITH_UNIT(LENGTH_MEASURE(0.01),#1921,
'DISTANCE_ACCURACY_VALUE',
'Maximum model space distance between geometric entities at asserted c
onnectivities');
#1918=UNCERTAINTY_MEASURE_WITH_UNIT(LENGTH_MEASURE(0.01),#1921,
'DISTANCE_ACCURACY_VALUE',
'Maximum model space distance between geometric entities at asserted c
onnectivities');
#1919=(
GEOMETRIC_REPRESENTATION_CONTEXT(3)
GLOBAL_UNCERTAINTY_ASSIGNED_CONTEXT((#1917))
GLOBAL_UNIT_ASSIGNED_CONTEXT((#1921,#1923,#1924))
REPRESENTATION_CONTEXT('','3D')
);
#1920=(
GEOMETRIC_REPRESENTATION_CONTEXT(3)
GLOBAL_UNCERTAINTY_ASSIGNED_CONTEXT((#1918))
GLOBAL_UNIT_ASSIGNED_CONTEXT((#1921,#1923,#1924))
REPRESENTATION_CONTEXT('','3D')
);
#1921=(
LENGTH_UNIT()
NAMED_UNIT(*)
SI_UNIT(.MILLI.,.METRE.)
);
#1922=(
LENGTH_UNIT()
NAMED_UNIT(*)
SI_UNIT($,.METRE.)
);
#1923=(
NAMED_UNIT(*)
PLANE_ANGLE_UNIT()
SI_UNIT($,.RADIAN.)
);
#1924=(
NAMED_UNIT(*)
SI_UNIT($,.STERADIAN.)
SOLID_ANGLE_UNIT()
);
#1925=SHAPE_DEFINITION_REPRESENTATION(#1926,#1927);
#1926=PRODUCT_DEFINITION_SHAPE('',$,#1929);
#1927=SHAPE_REPRESENTATION('',(#1201),#1919);
#1928=PRODUCT_DEFINITION_CONTEXT('part definition',#1933,'design');
#1929=PRODUCT_DEFINITION('(Unsaved)','(Unsaved)',#1930,#1928);
#1930=PRODUCT_DEFINITION_FORMATION('',$,#1935);
#1931=PRODUCT_RELATED_PRODUCT_CATEGORY('(Unsaved)','(Unsaved)',(#1935));
#1932=APPLICATION_PROTOCOL_DEFINITION('international standard',
'automotive_design',2009,#1933);
#1933=APPLICATION_CONTEXT(
'Core Data for Automotive Mechanical Design Process');
#1934=PRODUCT_CONTEXT('part definition',#1933,'mechanical');
#1935=PRODUCT('(Unsaved)','(Unsaved)',$,(#1934));
#1936=PRESENTATION_STYLE_ASSIGNMENT((#1937));
#1937=SURFACE_STYLE_USAGE(.BOTH.,#1938);
#1938=SURFACE_SIDE_STYLE('',(#1939));
#1939=SURFACE_STYLE_FILL_AREA(#1940);
#1940=FILL_AREA_STYLE('Steel - Satin',(#1941));
#1941=FILL_AREA_STYLE_COLOUR('Steel - Satin',#1942);
#1942=COLOUR_RGB('Steel - Satin',0.627450980392157,0.627450980392157,0.627450980392157);
ENDSEC;
END-ISO-10303-21;
