ISO-10303-21;
HEADER;
/* Generated by software containing ST-Developer
 * from STEP Tools, Inc. (www.steptools.com) 
 */

FILE_DESCRIPTION(
/* description */ (''),
/* implementation_level */ '2;1');

FILE_NAME(
/* name */ 'reference-ops243-radar.step',
/* time_stamp */ '2026-09-11T16:58:02-07:00',
/* author */ (''),
/* organization */ (''),
/* preprocessor_version */ 'ST-DEVELOPER v20.2',
/* originating_system */ 'Autodesk Translation Framework v15.15.0.0',
/* authorisation */ '');

FILE_SCHEMA (('AUTOMOTIVE_DESIGN { 1 0 10303 214 3 1 1 }'));
ENDSEC;

DATA;
#10=MECHANICAL_DESIGN_GEOMETRIC_PRESENTATION_REPRESENTATION('',(#13),#1077);
#11=SHAPE_REPRESENTATION_RELATIONSHIP('SRR','None',#1084,#12);
#12=ADVANCED_BREP_SHAPE_REPRESENTATION('',(#14),#1076);
#13=STYLED_ITEM('',(#1093),#14);
#14=MANIFOLD_SOLID_BREP('reference-ops243-radar',#667);
#15=CYLINDRICAL_SURFACE('',#711,1.625);
#16=CYLINDRICAL_SURFACE('',#713,1.625);
#17=CYLINDRICAL_SURFACE('',#715,1.625);
#18=CYLINDRICAL_SURFACE('',#717,1.625);
#19=CIRCLE('',#707,1.625);
#20=CIRCLE('',#708,1.625);
#21=CIRCLE('',#709,1.625);
#22=CIRCLE('',#710,1.625);
#23=CIRCLE('',#712,1.625);
#24=CIRCLE('',#714,1.625);
#25=CIRCLE('',#716,1.625);
#26=CIRCLE('',#718,1.625);
#27=FACE_BOUND('',#99,.T.);
#28=FACE_BOUND('',#100,.T.);
#29=FACE_BOUND('',#101,.T.);
#30=FACE_BOUND('',#102,.T.);
#31=FACE_BOUND('',#103,.T.);
#32=FACE_BOUND('',#104,.T.);
#33=FACE_BOUND('',#105,.T.);
#34=FACE_BOUND('',#115,.T.);
#35=FACE_BOUND('',#116,.T.);
#36=FACE_BOUND('',#117,.T.);
#37=FACE_BOUND('',#118,.T.);
#38=FACE_OUTER_BOUND('',#73,.T.);
#39=FACE_OUTER_BOUND('',#74,.T.);
#40=FACE_OUTER_BOUND('',#75,.T.);
#41=FACE_OUTER_BOUND('',#76,.T.);
#42=FACE_OUTER_BOUND('',#77,.T.);
#43=FACE_OUTER_BOUND('',#78,.T.);
#44=FACE_OUTER_BOUND('',#79,.T.);
#45=FACE_OUTER_BOUND('',#80,.T.);
#46=FACE_OUTER_BOUND('',#81,.T.);
#47=FACE_OUTER_BOUND('',#82,.T.);
#48=FACE_OUTER_BOUND('',#83,.T.);
#49=FACE_OUTER_BOUND('',#84,.T.);
#50=FACE_OUTER_BOUND('',#85,.T.);
#51=FACE_OUTER_BOUND('',#86,.T.);
#52=FACE_OUTER_BOUND('',#87,.T.);
#53=FACE_OUTER_BOUND('',#88,.T.);
#54=FACE_OUTER_BOUND('',#89,.T.);
#55=FACE_OUTER_BOUND('',#90,.T.);
#56=FACE_OUTER_BOUND('',#91,.T.);
#57=FACE_OUTER_BOUND('',#92,.T.);
#58=FACE_OUTER_BOUND('',#93,.T.);
#59=FACE_OUTER_BOUND('',#94,.T.);
#60=FACE_OUTER_BOUND('',#95,.T.);
#61=FACE_OUTER_BOUND('',#96,.T.);
#62=FACE_OUTER_BOUND('',#97,.T.);
#63=FACE_OUTER_BOUND('',#98,.T.);
#64=FACE_OUTER_BOUND('',#106,.T.);
#65=FACE_OUTER_BOUND('',#107,.T.);
#66=FACE_OUTER_BOUND('',#108,.T.);
#67=FACE_OUTER_BOUND('',#109,.T.);
#68=FACE_OUTER_BOUND('',#110,.T.);
#69=FACE_OUTER_BOUND('',#111,.T.);
#70=FACE_OUTER_BOUND('',#112,.T.);
#71=FACE_OUTER_BOUND('',#113,.T.);
#72=FACE_OUTER_BOUND('',#114,.T.);
#73=EDGE_LOOP('',(#425,#426,#427,#428));
#74=EDGE_LOOP('',(#429,#430,#431,#432));
#75=EDGE_LOOP('',(#433,#434,#435,#436));
#76=EDGE_LOOP('',(#437,#438,#439,#440));
#77=EDGE_LOOP('',(#441,#442,#443,#444));
#78=EDGE_LOOP('',(#445,#446,#447,#448));
#79=EDGE_LOOP('',(#449,#450,#451,#452));
#80=EDGE_LOOP('',(#453,#454,#455,#456));
#81=EDGE_LOOP('',(#457,#458,#459,#460));
#82=EDGE_LOOP('',(#461,#462,#463,#464));
#83=EDGE_LOOP('',(#465,#466,#467,#468));
#84=EDGE_LOOP('',(#469,#470,#471,#472));
#85=EDGE_LOOP('',(#473,#474,#475,#476));
#86=EDGE_LOOP('',(#477,#478,#479,#480));
#87=EDGE_LOOP('',(#481,#482,#483,#484));
#88=EDGE_LOOP('',(#485,#486,#487,#488));
#89=EDGE_LOOP('',(#489,#490,#491,#492));
#90=EDGE_LOOP('',(#493,#494,#495,#496));
#91=EDGE_LOOP('',(#497,#498,#499,#500));
#92=EDGE_LOOP('',(#501,#502,#503,#504));
#93=EDGE_LOOP('',(#505,#506,#507,#508,#509));
#94=EDGE_LOOP('',(#510,#511,#512,#513));
#95=EDGE_LOOP('',(#514,#515,#516,#517,#518));
#96=EDGE_LOOP('',(#519,#520,#521,#522));
#97=EDGE_LOOP('',(#523,#524,#525,#526));
#98=EDGE_LOOP('',(#527,#528,#529,#530,#531,#532,#533,#534,#535,#536,#537,
#538));
#99=EDGE_LOOP('',(#539,#540,#541,#542));
#100=EDGE_LOOP('',(#543,#544,#545,#546));
#101=EDGE_LOOP('',(#547,#548,#549,#550));
#102=EDGE_LOOP('',(#551));
#103=EDGE_LOOP('',(#552));
#104=EDGE_LOOP('',(#553));
#105=EDGE_LOOP('',(#554));
#106=EDGE_LOOP('',(#555,#556,#557,#558));
#107=EDGE_LOOP('',(#559,#560,#561,#562));
#108=EDGE_LOOP('',(#563,#564,#565,#566));
#109=EDGE_LOOP('',(#567,#568,#569,#570));
#110=EDGE_LOOP('',(#571,#572,#573,#574));
#111=EDGE_LOOP('',(#575,#576,#577,#578));
#112=EDGE_LOOP('',(#579,#580,#581,#582,#583,#584,#585,#586,#587,#588));
#113=EDGE_LOOP('',(#589,#590,#591,#592));
#114=EDGE_LOOP('',(#593,#594,#595,#596));
#115=EDGE_LOOP('',(#597));
#116=EDGE_LOOP('',(#598));
#117=EDGE_LOOP('',(#599));
#118=EDGE_LOOP('',(#600));
#119=LINE('',#896,#199);
#120=LINE('',#898,#200);
#121=LINE('',#900,#201);
#122=LINE('',#901,#202);
#123=LINE('',#904,#203);
#124=LINE('',#906,#204);
#125=LINE('',#907,#205);
#126=LINE('',#910,#206);
#127=LINE('',#912,#207);
#128=LINE('',#913,#208);
#129=LINE('',#915,#209);
#130=LINE('',#916,#210);
#131=LINE('',#921,#211);
#132=LINE('',#923,#212);
#133=LINE('',#925,#213);
#134=LINE('',#926,#214);
#135=LINE('',#929,#215);
#136=LINE('',#931,#216);
#137=LINE('',#932,#217);
#138=LINE('',#935,#218);
#139=LINE('',#937,#219);
#140=LINE('',#938,#220);
#141=LINE('',#940,#221);
#142=LINE('',#941,#222);
#143=LINE('',#946,#223);
#144=LINE('',#948,#224);
#145=LINE('',#950,#225);
#146=LINE('',#951,#226);
#147=LINE('',#954,#227);
#148=LINE('',#956,#228);
#149=LINE('',#957,#229);
#150=LINE('',#960,#230);
#151=LINE('',#962,#231);
#152=LINE('',#963,#232);
#153=LINE('',#965,#233);
#154=LINE('',#966,#234);
#155=LINE('',#971,#235);
#156=LINE('',#973,#236);
#157=LINE('',#975,#237);
#158=LINE('',#976,#238);
#159=LINE('',#979,#239);
#160=LINE('',#981,#240);
#161=LINE('',#982,#241);
#162=LINE('',#985,#242);
#163=LINE('',#987,#243);
#164=LINE('',#988,#244);
#165=LINE('',#990,#245);
#166=LINE('',#994,#246);
#167=LINE('',#996,#247);
#168=LINE('',#998,#248);
#169=LINE('',#999,#249);
#170=LINE('',#1002,#250);
#171=LINE('',#1004,#251);
#172=LINE('',#1006,#252);
#173=LINE('',#1007,#253);
#174=LINE('',#1010,#254);
#175=LINE('',#1012,#255);
#176=LINE('',#1013,#256);
#177=LINE('',#1016,#257);
#178=LINE('',#1017,#258);
#179=LINE('',#1018,#259);
#180=LINE('',#1020,#260);
#181=LINE('',#1024,#261);
#182=LINE('',#1026,#262);
#183=LINE('',#1028,#263);
#184=LINE('',#1030,#264);
#185=LINE('',#1031,#265);
#186=LINE('',#1032,#266);
#187=LINE('',#1044,#267);
#188=LINE('',#1048,#268);
#189=LINE('',#1052,#269);
#190=LINE('',#1056,#270);
#191=LINE('',#1060,#271);
#192=LINE('',#1061,#272);
#193=LINE('',#1062,#273);
#194=LINE('',#1065,#274);
#195=LINE('',#1066,#275);
#196=LINE('',#1069,#276);
#197=LINE('',#1070,#277);
#198=LINE('',#1072,#278);
#199=VECTOR('',#728,10.);
#200=VECTOR('',#729,10.);
#201=VECTOR('',#730,10.);
#202=VECTOR('',#731,10.);
#203=VECTOR('',#734,10.);
#204=VECTOR('',#735,10.);
#205=VECTOR('',#736,10.);
#206=VECTOR('',#739,10.);
#207=VECTOR('',#740,10.);
#208=VECTOR('',#741,10.);
#209=VECTOR('',#744,10.);
#210=VECTOR('',#745,10.);
#211=VECTOR('',#750,10.);
#212=VECTOR('',#751,10.);
#213=VECTOR('',#752,10.);
#214=VECTOR('',#753,10.);
#215=VECTOR('',#756,10.);
#216=VECTOR('',#757,10.);
#217=VECTOR('',#758,10.);
#218=VECTOR('',#761,10.);
#219=VECTOR('',#762,10.);
#220=VECTOR('',#763,10.);
#221=VECTOR('',#766,10.);
#222=VECTOR('',#767,10.);
#223=VECTOR('',#772,10.);
#224=VECTOR('',#773,10.);
#225=VECTOR('',#774,10.);
#226=VECTOR('',#775,10.);
#227=VECTOR('',#778,10.);
#228=VECTOR('',#779,10.);
#229=VECTOR('',#780,10.);
#230=VECTOR('',#783,10.);
#231=VECTOR('',#784,10.);
#232=VECTOR('',#785,10.);
#233=VECTOR('',#788,10.);
#234=VECTOR('',#789,10.);
#235=VECTOR('',#794,10.);
#236=VECTOR('',#795,10.);
#237=VECTOR('',#796,10.);
#238=VECTOR('',#797,10.);
#239=VECTOR('',#800,10.);
#240=VECTOR('',#801,10.);
#241=VECTOR('',#802,10.);
#242=VECTOR('',#805,10.);
#243=VECTOR('',#806,10.);
#244=VECTOR('',#807,10.);
#245=VECTOR('',#810,10.);
#246=VECTOR('',#813,10.);
#247=VECTOR('',#814,10.);
#248=VECTOR('',#815,10.);
#249=VECTOR('',#816,10.);
#250=VECTOR('',#819,10.);
#251=VECTOR('',#820,10.);
#252=VECTOR('',#821,10.);
#253=VECTOR('',#822,10.);
#254=VECTOR('',#825,10.);
#255=VECTOR('',#826,10.);
#256=VECTOR('',#827,10.);
#257=VECTOR('',#830,10.);
#258=VECTOR('',#831,10.);
#259=VECTOR('',#832,10.);
#260=VECTOR('',#835,10.);
#261=VECTOR('',#840,10.);
#262=VECTOR('',#841,10.);
#263=VECTOR('',#842,10.);
#264=VECTOR('',#843,10.);
#265=VECTOR('',#844,10.);
#266=VECTOR('',#845,10.);
#267=VECTOR('',#858,1.625);
#268=VECTOR('',#863,1.625);
#269=VECTOR('',#868,1.625);
#270=VECTOR('',#873,1.625);
#271=VECTOR('',#876,10.);
#272=VECTOR('',#877,10.);
#273=VECTOR('',#878,10.);
#274=VECTOR('',#881,10.);
#275=VECTOR('',#882,10.);
#276=VECTOR('',#885,10.);
#277=VECTOR('',#886,10.);
#278=VECTOR('',#889,10.);
#279=VERTEX_POINT('',#894);
#280=VERTEX_POINT('',#895);
#281=VERTEX_POINT('',#897);
#282=VERTEX_POINT('',#899);
#283=VERTEX_POINT('',#903);
#284=VERTEX_POINT('',#905);
#285=VERTEX_POINT('',#909);
#286=VERTEX_POINT('',#911);
#287=VERTEX_POINT('',#919);
#288=VERTEX_POINT('',#920);
#289=VERTEX_POINT('',#922);
#290=VERTEX_POINT('',#924);
#291=VERTEX_POINT('',#928);
#292=VERTEX_POINT('',#930);
#293=VERTEX_POINT('',#934);
#294=VERTEX_POINT('',#936);
#295=VERTEX_POINT('',#944);
#296=VERTEX_POINT('',#945);
#297=VERTEX_POINT('',#947);
#298=VERTEX_POINT('',#949);
#299=VERTEX_POINT('',#953);
#300=VERTEX_POINT('',#955);
#301=VERTEX_POINT('',#959);
#302=VERTEX_POINT('',#961);
#303=VERTEX_POINT('',#969);
#304=VERTEX_POINT('',#970);
#305=VERTEX_POINT('',#972);
#306=VERTEX_POINT('',#974);
#307=VERTEX_POINT('',#978);
#308=VERTEX_POINT('',#980);
#309=VERTEX_POINT('',#984);
#310=VERTEX_POINT('',#986);
#311=VERTEX_POINT('',#992);
#312=VERTEX_POINT('',#993);
#313=VERTEX_POINT('',#995);
#314=VERTEX_POINT('',#997);
#315=VERTEX_POINT('',#1001);
#316=VERTEX_POINT('',#1003);
#317=VERTEX_POINT('',#1005);
#318=VERTEX_POINT('',#1009);
#319=VERTEX_POINT('',#1011);
#320=VERTEX_POINT('',#1015);
#321=VERTEX_POINT('',#1023);
#322=VERTEX_POINT('',#1025);
#323=VERTEX_POINT('',#1027);
#324=VERTEX_POINT('',#1029);
#325=VERTEX_POINT('',#1033);
#326=VERTEX_POINT('',#1035);
#327=VERTEX_POINT('',#1037);
#328=VERTEX_POINT('',#1039);
#329=VERTEX_POINT('',#1042);
#330=VERTEX_POINT('',#1046);
#331=VERTEX_POINT('',#1050);
#332=VERTEX_POINT('',#1054);
#333=VERTEX_POINT('',#1058);
#334=VERTEX_POINT('',#1059);
#335=VERTEX_POINT('',#1064);
#336=VERTEX_POINT('',#1068);
#337=EDGE_CURVE('',#279,#280,#119,.T.);
#338=EDGE_CURVE('',#279,#281,#120,.T.);
#339=EDGE_CURVE('',#282,#281,#121,.T.);
#340=EDGE_CURVE('',#280,#282,#122,.T.);
#341=EDGE_CURVE('',#280,#283,#123,.T.);
#342=EDGE_CURVE('',#284,#282,#124,.T.);
#343=EDGE_CURVE('',#283,#284,#125,.T.);
#344=EDGE_CURVE('',#283,#285,#126,.T.);
#345=EDGE_CURVE('',#286,#284,#127,.T.);
#346=EDGE_CURVE('',#285,#286,#128,.T.);
#347=EDGE_CURVE('',#285,#279,#129,.T.);
#348=EDGE_CURVE('',#281,#286,#130,.T.);
#349=EDGE_CURVE('',#287,#288,#131,.T.);
#350=EDGE_CURVE('',#287,#289,#132,.T.);
#351=EDGE_CURVE('',#290,#289,#133,.T.);
#352=EDGE_CURVE('',#288,#290,#134,.T.);
#353=EDGE_CURVE('',#288,#291,#135,.T.);
#354=EDGE_CURVE('',#292,#290,#136,.T.);
#355=EDGE_CURVE('',#291,#292,#137,.T.);
#356=EDGE_CURVE('',#291,#293,#138,.T.);
#357=EDGE_CURVE('',#294,#292,#139,.T.);
#358=EDGE_CURVE('',#293,#294,#140,.T.);
#359=EDGE_CURVE('',#293,#287,#141,.T.);
#360=EDGE_CURVE('',#289,#294,#142,.T.);
#361=EDGE_CURVE('',#295,#296,#143,.T.);
#362=EDGE_CURVE('',#295,#297,#144,.T.);
#363=EDGE_CURVE('',#298,#297,#145,.T.);
#364=EDGE_CURVE('',#296,#298,#146,.T.);
#365=EDGE_CURVE('',#296,#299,#147,.T.);
#366=EDGE_CURVE('',#300,#298,#148,.T.);
#367=EDGE_CURVE('',#299,#300,#149,.T.);
#368=EDGE_CURVE('',#299,#301,#150,.T.);
#369=EDGE_CURVE('',#302,#300,#151,.T.);
#370=EDGE_CURVE('',#301,#302,#152,.T.);
#371=EDGE_CURVE('',#301,#295,#153,.T.);
#372=EDGE_CURVE('',#297,#302,#154,.T.);
#373=EDGE_CURVE('',#303,#304,#155,.T.);
#374=EDGE_CURVE('',#303,#305,#156,.T.);
#375=EDGE_CURVE('',#306,#305,#157,.T.);
#376=EDGE_CURVE('',#304,#306,#158,.T.);
#377=EDGE_CURVE('',#304,#307,#159,.T.);
#378=EDGE_CURVE('',#308,#306,#160,.T.);
#379=EDGE_CURVE('',#307,#308,#161,.T.);
#380=EDGE_CURVE('',#307,#309,#162,.T.);
#381=EDGE_CURVE('',#310,#308,#163,.T.);
#382=EDGE_CURVE('',#309,#310,#164,.T.);
#383=EDGE_CURVE('',#305,#310,#165,.T.);
#384=EDGE_CURVE('',#311,#312,#166,.T.);
#385=EDGE_CURVE('',#311,#313,#167,.T.);
#386=EDGE_CURVE('',#314,#313,#168,.T.);
#387=EDGE_CURVE('',#312,#314,#169,.T.);
#388=EDGE_CURVE('',#312,#315,#170,.T.);
#389=EDGE_CURVE('',#316,#314,#171,.T.);
#390=EDGE_CURVE('',#317,#316,#172,.T.);
#391=EDGE_CURVE('',#315,#317,#173,.T.);
#392=EDGE_CURVE('',#317,#318,#174,.T.);
#393=EDGE_CURVE('',#319,#316,#175,.T.);
#394=EDGE_CURVE('',#318,#319,#176,.T.);
#395=EDGE_CURVE('',#318,#320,#177,.T.);
#396=EDGE_CURVE('',#313,#319,#178,.T.);
#397=EDGE_CURVE('',#320,#311,#179,.T.);
#398=EDGE_CURVE('',#315,#320,#180,.T.);
#399=EDGE_CURVE('',#309,#321,#181,.T.);
#400=EDGE_CURVE('',#321,#322,#182,.T.);
#401=EDGE_CURVE('',#322,#323,#183,.T.);
#402=EDGE_CURVE('',#323,#324,#184,.T.);
#403=EDGE_CURVE('',#324,#315,#185,.T.);
#404=EDGE_CURVE('',#320,#303,#186,.T.);
#405=EDGE_CURVE('',#325,#325,#19,.T.);
#406=EDGE_CURVE('',#326,#326,#20,.T.);
#407=EDGE_CURVE('',#327,#327,#21,.T.);
#408=EDGE_CURVE('',#328,#328,#22,.T.);
#409=EDGE_CURVE('',#329,#329,#23,.T.);
#410=EDGE_CURVE('',#329,#328,#187,.T.);
#411=EDGE_CURVE('',#330,#330,#24,.T.);
#412=EDGE_CURVE('',#330,#327,#188,.T.);
#413=EDGE_CURVE('',#331,#331,#25,.T.);
#414=EDGE_CURVE('',#331,#326,#189,.T.);
#415=EDGE_CURVE('',#332,#332,#26,.T.);
#416=EDGE_CURVE('',#332,#325,#190,.T.);
#417=EDGE_CURVE('',#333,#334,#191,.T.);
#418=EDGE_CURVE('',#333,#323,#192,.T.);
#419=EDGE_CURVE('',#334,#322,#193,.T.);
#420=EDGE_CURVE('',#334,#335,#194,.T.);
#421=EDGE_CURVE('',#335,#321,#195,.T.);
#422=EDGE_CURVE('',#335,#336,#196,.T.);
#423=EDGE_CURVE('',#336,#324,#197,.T.);
#424=EDGE_CURVE('',#336,#333,#198,.T.);
#425=ORIENTED_EDGE('',*,*,#337,.F.);
#426=ORIENTED_EDGE('',*,*,#338,.T.);
#427=ORIENTED_EDGE('',*,*,#339,.F.);
#428=ORIENTED_EDGE('',*,*,#340,.F.);
#429=ORIENTED_EDGE('',*,*,#341,.F.);
#430=ORIENTED_EDGE('',*,*,#340,.T.);
#431=ORIENTED_EDGE('',*,*,#342,.F.);
#432=ORIENTED_EDGE('',*,*,#343,.F.);
#433=ORIENTED_EDGE('',*,*,#344,.F.);
#434=ORIENTED_EDGE('',*,*,#343,.T.);
#435=ORIENTED_EDGE('',*,*,#345,.F.);
#436=ORIENTED_EDGE('',*,*,#346,.F.);
#437=ORIENTED_EDGE('',*,*,#347,.F.);
#438=ORIENTED_EDGE('',*,*,#346,.T.);
#439=ORIENTED_EDGE('',*,*,#348,.F.);
#440=ORIENTED_EDGE('',*,*,#338,.F.);
#441=ORIENTED_EDGE('',*,*,#348,.T.);
#442=ORIENTED_EDGE('',*,*,#345,.T.);
#443=ORIENTED_EDGE('',*,*,#342,.T.);
#444=ORIENTED_EDGE('',*,*,#339,.T.);
#445=ORIENTED_EDGE('',*,*,#349,.F.);
#446=ORIENTED_EDGE('',*,*,#350,.T.);
#447=ORIENTED_EDGE('',*,*,#351,.F.);
#448=ORIENTED_EDGE('',*,*,#352,.F.);
#449=ORIENTED_EDGE('',*,*,#353,.F.);
#450=ORIENTED_EDGE('',*,*,#352,.T.);
#451=ORIENTED_EDGE('',*,*,#354,.F.);
#452=ORIENTED_EDGE('',*,*,#355,.F.);
#453=ORIENTED_EDGE('',*,*,#356,.F.);
#454=ORIENTED_EDGE('',*,*,#355,.T.);
#455=ORIENTED_EDGE('',*,*,#357,.F.);
#456=ORIENTED_EDGE('',*,*,#358,.F.);
#457=ORIENTED_EDGE('',*,*,#359,.F.);
#458=ORIENTED_EDGE('',*,*,#358,.T.);
#459=ORIENTED_EDGE('',*,*,#360,.F.);
#460=ORIENTED_EDGE('',*,*,#350,.F.);
#461=ORIENTED_EDGE('',*,*,#360,.T.);
#462=ORIENTED_EDGE('',*,*,#357,.T.);
#463=ORIENTED_EDGE('',*,*,#354,.T.);
#464=ORIENTED_EDGE('',*,*,#351,.T.);
#465=ORIENTED_EDGE('',*,*,#361,.F.);
#466=ORIENTED_EDGE('',*,*,#362,.T.);
#467=ORIENTED_EDGE('',*,*,#363,.F.);
#468=ORIENTED_EDGE('',*,*,#364,.F.);
#469=ORIENTED_EDGE('',*,*,#365,.F.);
#470=ORIENTED_EDGE('',*,*,#364,.T.);
#471=ORIENTED_EDGE('',*,*,#366,.F.);
#472=ORIENTED_EDGE('',*,*,#367,.F.);
#473=ORIENTED_EDGE('',*,*,#368,.F.);
#474=ORIENTED_EDGE('',*,*,#367,.T.);
#475=ORIENTED_EDGE('',*,*,#369,.F.);
#476=ORIENTED_EDGE('',*,*,#370,.F.);
#477=ORIENTED_EDGE('',*,*,#371,.F.);
#478=ORIENTED_EDGE('',*,*,#370,.T.);
#479=ORIENTED_EDGE('',*,*,#372,.F.);
#480=ORIENTED_EDGE('',*,*,#362,.F.);
#481=ORIENTED_EDGE('',*,*,#372,.T.);
#482=ORIENTED_EDGE('',*,*,#369,.T.);
#483=ORIENTED_EDGE('',*,*,#366,.T.);
#484=ORIENTED_EDGE('',*,*,#363,.T.);
#485=ORIENTED_EDGE('',*,*,#373,.F.);
#486=ORIENTED_EDGE('',*,*,#374,.T.);
#487=ORIENTED_EDGE('',*,*,#375,.F.);
#488=ORIENTED_EDGE('',*,*,#376,.F.);
#489=ORIENTED_EDGE('',*,*,#377,.F.);
#490=ORIENTED_EDGE('',*,*,#376,.T.);
#491=ORIENTED_EDGE('',*,*,#378,.F.);
#492=ORIENTED_EDGE('',*,*,#379,.F.);
#493=ORIENTED_EDGE('',*,*,#380,.F.);
#494=ORIENTED_EDGE('',*,*,#379,.T.);
#495=ORIENTED_EDGE('',*,*,#381,.F.);
#496=ORIENTED_EDGE('',*,*,#382,.F.);
#497=ORIENTED_EDGE('',*,*,#381,.T.);
#498=ORIENTED_EDGE('',*,*,#378,.T.);
#499=ORIENTED_EDGE('',*,*,#375,.T.);
#500=ORIENTED_EDGE('',*,*,#383,.T.);
#501=ORIENTED_EDGE('',*,*,#384,.F.);
#502=ORIENTED_EDGE('',*,*,#385,.T.);
#503=ORIENTED_EDGE('',*,*,#386,.F.);
#504=ORIENTED_EDGE('',*,*,#387,.F.);
#505=ORIENTED_EDGE('',*,*,#388,.F.);
#506=ORIENTED_EDGE('',*,*,#387,.T.);
#507=ORIENTED_EDGE('',*,*,#389,.F.);
#508=ORIENTED_EDGE('',*,*,#390,.F.);
#509=ORIENTED_EDGE('',*,*,#391,.F.);
#510=ORIENTED_EDGE('',*,*,#392,.F.);
#511=ORIENTED_EDGE('',*,*,#390,.T.);
#512=ORIENTED_EDGE('',*,*,#393,.F.);
#513=ORIENTED_EDGE('',*,*,#394,.F.);
#514=ORIENTED_EDGE('',*,*,#395,.F.);
#515=ORIENTED_EDGE('',*,*,#394,.T.);
#516=ORIENTED_EDGE('',*,*,#396,.F.);
#517=ORIENTED_EDGE('',*,*,#385,.F.);
#518=ORIENTED_EDGE('',*,*,#397,.F.);
#519=ORIENTED_EDGE('',*,*,#398,.T.);
#520=ORIENTED_EDGE('',*,*,#397,.T.);
#521=ORIENTED_EDGE('',*,*,#384,.T.);
#522=ORIENTED_EDGE('',*,*,#388,.T.);
#523=ORIENTED_EDGE('',*,*,#396,.T.);
#524=ORIENTED_EDGE('',*,*,#393,.T.);
#525=ORIENTED_EDGE('',*,*,#389,.T.);
#526=ORIENTED_EDGE('',*,*,#386,.T.);
#527=ORIENTED_EDGE('',*,*,#373,.T.);
#528=ORIENTED_EDGE('',*,*,#377,.T.);
#529=ORIENTED_EDGE('',*,*,#380,.T.);
#530=ORIENTED_EDGE('',*,*,#399,.T.);
#531=ORIENTED_EDGE('',*,*,#400,.T.);
#532=ORIENTED_EDGE('',*,*,#401,.T.);
#533=ORIENTED_EDGE('',*,*,#402,.T.);
#534=ORIENTED_EDGE('',*,*,#403,.T.);
#535=ORIENTED_EDGE('',*,*,#391,.T.);
#536=ORIENTED_EDGE('',*,*,#392,.T.);
#537=ORIENTED_EDGE('',*,*,#395,.T.);
#538=ORIENTED_EDGE('',*,*,#404,.T.);
#539=ORIENTED_EDGE('',*,*,#337,.T.);
#540=ORIENTED_EDGE('',*,*,#341,.T.);
#541=ORIENTED_EDGE('',*,*,#344,.T.);
#542=ORIENTED_EDGE('',*,*,#347,.T.);
#543=ORIENTED_EDGE('',*,*,#349,.T.);
#544=ORIENTED_EDGE('',*,*,#353,.T.);
#545=ORIENTED_EDGE('',*,*,#356,.T.);
#546=ORIENTED_EDGE('',*,*,#359,.T.);
#547=ORIENTED_EDGE('',*,*,#361,.T.);
#548=ORIENTED_EDGE('',*,*,#365,.T.);
#549=ORIENTED_EDGE('',*,*,#368,.T.);
#550=ORIENTED_EDGE('',*,*,#371,.T.);
#551=ORIENTED_EDGE('',*,*,#405,.T.);
#552=ORIENTED_EDGE('',*,*,#406,.T.);
#553=ORIENTED_EDGE('',*,*,#407,.T.);
#554=ORIENTED_EDGE('',*,*,#408,.T.);
#555=ORIENTED_EDGE('',*,*,#409,.F.);
#556=ORIENTED_EDGE('',*,*,#410,.T.);
#557=ORIENTED_EDGE('',*,*,#408,.F.);
#558=ORIENTED_EDGE('',*,*,#410,.F.);
#559=ORIENTED_EDGE('',*,*,#411,.F.);
#560=ORIENTED_EDGE('',*,*,#412,.T.);
#561=ORIENTED_EDGE('',*,*,#407,.F.);
#562=ORIENTED_EDGE('',*,*,#412,.F.);
#563=ORIENTED_EDGE('',*,*,#413,.F.);
#564=ORIENTED_EDGE('',*,*,#414,.T.);
#565=ORIENTED_EDGE('',*,*,#406,.F.);
#566=ORIENTED_EDGE('',*,*,#414,.F.);
#567=ORIENTED_EDGE('',*,*,#415,.F.);
#568=ORIENTED_EDGE('',*,*,#416,.T.);
#569=ORIENTED_EDGE('',*,*,#405,.F.);
#570=ORIENTED_EDGE('',*,*,#416,.F.);
#571=ORIENTED_EDGE('',*,*,#417,.F.);
#572=ORIENTED_EDGE('',*,*,#418,.T.);
#573=ORIENTED_EDGE('',*,*,#401,.F.);
#574=ORIENTED_EDGE('',*,*,#419,.F.);
#575=ORIENTED_EDGE('',*,*,#420,.F.);
#576=ORIENTED_EDGE('',*,*,#419,.T.);
#577=ORIENTED_EDGE('',*,*,#400,.F.);
#578=ORIENTED_EDGE('',*,*,#421,.F.);
#579=ORIENTED_EDGE('',*,*,#422,.F.);
#580=ORIENTED_EDGE('',*,*,#421,.T.);
#581=ORIENTED_EDGE('',*,*,#399,.F.);
#582=ORIENTED_EDGE('',*,*,#382,.T.);
#583=ORIENTED_EDGE('',*,*,#383,.F.);
#584=ORIENTED_EDGE('',*,*,#374,.F.);
#585=ORIENTED_EDGE('',*,*,#404,.F.);
#586=ORIENTED_EDGE('',*,*,#398,.F.);
#587=ORIENTED_EDGE('',*,*,#403,.F.);
#588=ORIENTED_EDGE('',*,*,#423,.F.);
#589=ORIENTED_EDGE('',*,*,#424,.F.);
#590=ORIENTED_EDGE('',*,*,#423,.T.);
#591=ORIENTED_EDGE('',*,*,#402,.F.);
#592=ORIENTED_EDGE('',*,*,#418,.F.);
#593=ORIENTED_EDGE('',*,*,#424,.T.);
#594=ORIENTED_EDGE('',*,*,#417,.T.);
#595=ORIENTED_EDGE('',*,*,#420,.T.);
#596=ORIENTED_EDGE('',*,*,#422,.T.);
#597=ORIENTED_EDGE('',*,*,#409,.T.);
#598=ORIENTED_EDGE('',*,*,#411,.T.);
#599=ORIENTED_EDGE('',*,*,#413,.T.);
#600=ORIENTED_EDGE('',*,*,#415,.T.);
#601=PLANE('',#681);
#602=PLANE('',#682);
#603=PLANE('',#683);
#604=PLANE('',#684);
#605=PLANE('',#685);
#606=PLANE('',#686);
#607=PLANE('',#687);
#608=PLANE('',#688);
#609=PLANE('',#689);
#610=PLANE('',#690);
#611=PLANE('',#691);
#612=PLANE('',#692);
#613=PLANE('',#693);
#614=PLANE('',#694);
#615=PLANE('',#695);
#616=PLANE('',#696);
#617=PLANE('',#697);
#618=PLANE('',#698);
#619=PLANE('',#699);
#620=PLANE('',#700);
#621=PLANE('',#701);
#622=PLANE('',#702);
#623=PLANE('',#703);
#624=PLANE('',#704);
#625=PLANE('',#705);
#626=PLANE('',#706);
#627=PLANE('',#719);
#628=PLANE('',#720);
#629=PLANE('',#721);
#630=PLANE('',#722);
#631=PLANE('',#723);
#632=ADVANCED_FACE('',(#38),#601,.T.);
#633=ADVANCED_FACE('',(#39),#602,.T.);
#634=ADVANCED_FACE('',(#40),#603,.T.);
#635=ADVANCED_FACE('',(#41),#604,.T.);
#636=ADVANCED_FACE('',(#42),#605,.T.);
#637=ADVANCED_FACE('',(#43),#606,.T.);
#638=ADVANCED_FACE('',(#44),#607,.T.);
#639=ADVANCED_FACE('',(#45),#608,.T.);
#640=ADVANCED_FACE('',(#46),#609,.T.);
#641=ADVANCED_FACE('',(#47),#610,.T.);
#642=ADVANCED_FACE('',(#48),#611,.T.);
#643=ADVANCED_FACE('',(#49),#612,.T.);
#644=ADVANCED_FACE('',(#50),#613,.T.);
#645=ADVANCED_FACE('',(#51),#614,.T.);
#646=ADVANCED_FACE('',(#52),#615,.T.);
#647=ADVANCED_FACE('',(#53),#616,.T.);
#648=ADVANCED_FACE('',(#54),#617,.T.);
#649=ADVANCED_FACE('',(#55),#618,.T.);
#650=ADVANCED_FACE('',(#56),#619,.T.);
#651=ADVANCED_FACE('',(#57),#620,.T.);
#652=ADVANCED_FACE('',(#58),#621,.T.);
#653=ADVANCED_FACE('',(#59),#622,.T.);
#654=ADVANCED_FACE('',(#60),#623,.T.);
#655=ADVANCED_FACE('',(#61),#624,.F.);
#656=ADVANCED_FACE('',(#62),#625,.T.);
#657=ADVANCED_FACE('',(#63,#27,#28,#29,#30,#31,#32,#33),#626,.T.);
#658=ADVANCED_FACE('',(#64),#15,.F.);
#659=ADVANCED_FACE('',(#65),#16,.F.);
#660=ADVANCED_FACE('',(#66),#17,.F.);
#661=ADVANCED_FACE('',(#67),#18,.F.);
#662=ADVANCED_FACE('',(#68),#627,.T.);
#663=ADVANCED_FACE('',(#69),#628,.T.);
#664=ADVANCED_FACE('',(#70),#629,.T.);
#665=ADVANCED_FACE('',(#71),#630,.T.);
#666=ADVANCED_FACE('',(#72,#34,#35,#36,#37),#631,.F.);
#667=CLOSED_SHELL('',(#632,#633,#634,#635,#636,#637,#638,#639,#640,#641,
#642,#643,#644,#645,#646,#647,#648,#649,#650,#651,#652,#653,#654,#655,#656,
#657,#658,#659,#660,#661,#662,#663,#664,#665,#666));
#668=DERIVED_UNIT_ELEMENT(#670,1.);
#669=DERIVED_UNIT_ELEMENT(#1079,-3.);
#670=(
MASS_UNIT()
NAMED_UNIT(*)
SI_UNIT(.KILO.,.GRAM.)
);
#671=DERIVED_UNIT((#668,#669));
#672=MEASURE_REPRESENTATION_ITEM('density measure',
POSITIVE_RATIO_MEASURE(7850.),#671);
#673=PROPERTY_DEFINITION_REPRESENTATION(#678,#675);
#674=PROPERTY_DEFINITION_REPRESENTATION(#679,#676);
#675=REPRESENTATION('material name',(#677),#1076);
#676=REPRESENTATION('density',(#672),#1076);
#677=DESCRIPTIVE_REPRESENTATION_ITEM('Steel','Steel');
#678=PROPERTY_DEFINITION('material property','material name',#1086);
#679=PROPERTY_DEFINITION('material property','density of part',#1086);
#680=AXIS2_PLACEMENT_3D('',#892,#724,#725);
#681=AXIS2_PLACEMENT_3D('',#893,#726,#727);
#682=AXIS2_PLACEMENT_3D('',#902,#732,#733);
#683=AXIS2_PLACEMENT_3D('',#908,#737,#738);
#684=AXIS2_PLACEMENT_3D('',#914,#742,#743);
#685=AXIS2_PLACEMENT_3D('',#917,#746,#747);
#686=AXIS2_PLACEMENT_3D('',#918,#748,#749);
#687=AXIS2_PLACEMENT_3D('',#927,#754,#755);
#688=AXIS2_PLACEMENT_3D('',#933,#759,#760);
#689=AXIS2_PLACEMENT_3D('',#939,#764,#765);
#690=AXIS2_PLACEMENT_3D('',#942,#768,#769);
#691=AXIS2_PLACEMENT_3D('',#943,#770,#771);
#692=AXIS2_PLACEMENT_3D('',#952,#776,#777);
#693=AXIS2_PLACEMENT_3D('',#958,#781,#782);
#694=AXIS2_PLACEMENT_3D('',#964,#786,#787);
#695=AXIS2_PLACEMENT_3D('',#967,#790,#791);
#696=AXIS2_PLACEMENT_3D('',#968,#792,#793);
#697=AXIS2_PLACEMENT_3D('',#977,#798,#799);
#698=AXIS2_PLACEMENT_3D('',#983,#803,#804);
#699=AXIS2_PLACEMENT_3D('',#989,#808,#809);
#700=AXIS2_PLACEMENT_3D('',#991,#811,#812);
#701=AXIS2_PLACEMENT_3D('',#1000,#817,#818);
#702=AXIS2_PLACEMENT_3D('',#1008,#823,#824);
#703=AXIS2_PLACEMENT_3D('',#1014,#828,#829);
#704=AXIS2_PLACEMENT_3D('',#1019,#833,#834);
#705=AXIS2_PLACEMENT_3D('',#1021,#836,#837);
#706=AXIS2_PLACEMENT_3D('',#1022,#838,#839);
#707=AXIS2_PLACEMENT_3D('',#1034,#846,#847);
#708=AXIS2_PLACEMENT_3D('',#1036,#848,#849);
#709=AXIS2_PLACEMENT_3D('',#1038,#850,#851);
#710=AXIS2_PLACEMENT_3D('',#1040,#852,#853);
#711=AXIS2_PLACEMENT_3D('',#1041,#854,#855);
#712=AXIS2_PLACEMENT_3D('',#1043,#856,#857);
#713=AXIS2_PLACEMENT_3D('',#1045,#859,#860);
#714=AXIS2_PLACEMENT_3D('',#1047,#861,#862);
#715=AXIS2_PLACEMENT_3D('',#1049,#864,#865);
#716=AXIS2_PLACEMENT_3D('',#1051,#866,#867);
#717=AXIS2_PLACEMENT_3D('',#1053,#869,#870);
#718=AXIS2_PLACEMENT_3D('',#1055,#871,#872);
#719=AXIS2_PLACEMENT_3D('',#1057,#874,#875);
#720=AXIS2_PLACEMENT_3D('',#1063,#879,#880);
#721=AXIS2_PLACEMENT_3D('',#1067,#883,#884);
#722=AXIS2_PLACEMENT_3D('',#1071,#887,#888);
#723=AXIS2_PLACEMENT_3D('',#1073,#890,#891);
#724=DIRECTION('axis',(0.,0.,1.));
#725=DIRECTION('refdir',(1.,0.,0.));
#726=DIRECTION('center_axis',(3.01345033611715E-16,-0.17364817766693,-0.984807753012208));
#727=DIRECTION('ref_axis',(1.,4.48376541408929E-16,2.269328847218E-16));
#728=DIRECTION('',(-1.,-4.48376541408929E-16,-2.269328847218E-16));
#729=DIRECTION('',(4.02158212363673E-16,-0.984807753012208,0.17364817766693));
#730=DIRECTION('',(1.,4.48376541408929E-16,2.269328847218E-16));
#731=DIRECTION('',(4.02158212363673E-16,-0.984807753012208,0.17364817766693));
#732=DIRECTION('center_axis',(-1.,-4.25267376886301E-16,-9.58743000980631E-17));
#733=DIRECTION('ref_axis',(1.68264659068693E-16,-0.17364817766693,-0.984807753012208));
#734=DIRECTION('',(-1.68264659068693E-16,0.17364817766693,0.984807753012208));
#735=DIRECTION('',(1.68264659068693E-16,-0.17364817766693,-0.984807753012208));
#736=DIRECTION('',(4.02158212363673E-16,-0.984807753012208,0.17364817766693));
#737=DIRECTION('center_axis',(-3.01345033611715E-16,0.17364817766693,0.984807753012208));
#738=DIRECTION('ref_axis',(-1.,-4.48376541408929E-16,-2.269328847218E-16));
#739=DIRECTION('',(1.,4.48376541408929E-16,2.269328847218E-16));
#740=DIRECTION('',(-1.,-4.48376541408929E-16,-2.269328847218E-16));
#741=DIRECTION('',(4.02158212363673E-16,-0.984807753012208,0.17364817766693));
#742=DIRECTION('center_axis',(1.,3.9782524401568E-16,-5.9757769142623E-17));
#743=DIRECTION('ref_axis',(-1.02317142988559E-17,0.17364817766693,0.984807753012208));
#744=DIRECTION('',(1.02317142988559E-17,-0.17364817766693,-0.984807753012208));
#745=DIRECTION('',(-1.02317142988559E-17,0.17364817766693,0.984807753012208));
#746=DIRECTION('center_axis',(4.02158212363673E-16,-0.984807753012208,0.17364817766693));
#747=DIRECTION('ref_axis',(1.,4.02158212363673E-16,-3.51842845256725E-17));
#748=DIRECTION('center_axis',(3.51842845256724E-17,-0.17364817766693,-0.984807753012208));
#749=DIRECTION('ref_axis',(1.,4.02158212363673E-16,-3.51842845256725E-17));
#750=DIRECTION('',(-1.,-4.02158212363673E-16,3.51842845256725E-17));
#751=DIRECTION('',(4.02158212363673E-16,-0.984807753012208,0.17364817766693));
#752=DIRECTION('',(1.,4.02158212363673E-16,-3.51842845256725E-17));
#753=DIRECTION('',(4.02158212363673E-16,-0.984807753012208,0.17364817766693));
#754=DIRECTION('center_axis',(-1.,-4.02158212363673E-16,3.51842845256725E-17));
#755=DIRECTION('ref_axis',(3.51842845256724E-17,-0.17364817766693,-0.984807753012208));
#756=DIRECTION('',(-3.51842845256724E-17,0.17364817766693,0.984807753012208));
#757=DIRECTION('',(3.51842845256724E-17,-0.17364817766693,-0.984807753012208));
#758=DIRECTION('',(4.02158212363673E-16,-0.984807753012208,0.17364817766693));
#759=DIRECTION('center_axis',(-3.01345033611715E-16,0.17364817766693,0.984807753012208));
#760=DIRECTION('ref_axis',(-1.,-4.48376541408929E-16,-2.269328847218E-16));
#761=DIRECTION('',(1.,4.48376541408929E-16,2.269328847218E-16));
#762=DIRECTION('',(-1.,-4.48376541408929E-16,-2.269328847218E-16));
#763=DIRECTION('',(4.02158212363673E-16,-0.984807753012208,0.17364817766693));
#764=DIRECTION('center_axis',(1.,4.02158212363673E-16,-3.51842845256725E-17));
#765=DIRECTION('ref_axis',(-3.51842845256724E-17,0.17364817766693,0.984807753012208));
#766=DIRECTION('',(3.51842845256724E-17,-0.17364817766693,-0.984807753012208));
#767=DIRECTION('',(-3.51842845256724E-17,0.17364817766693,0.984807753012208));
#768=DIRECTION('center_axis',(4.02158212363673E-16,-0.984807753012208,0.17364817766693));
#769=DIRECTION('ref_axis',(1.,4.02158212363673E-16,-3.51842845256725E-17));
#770=DIRECTION('center_axis',(3.51842845256724E-17,-0.17364817766693,-0.984807753012208));
#771=DIRECTION('ref_axis',(1.,4.02158212363673E-16,-3.51842845256725E-17));
#772=DIRECTION('',(-1.,-4.02158212363673E-16,3.51842845256725E-17));
#773=DIRECTION('',(4.02158212363673E-16,-0.984807753012208,0.17364817766693));
#774=DIRECTION('',(1.,4.02158212363673E-16,-3.51842845256725E-17));
#775=DIRECTION('',(4.02158212363673E-16,-0.984807753012208,0.17364817766693));
#776=DIRECTION('center_axis',(-1.,-4.02158212363673E-16,3.51842845256725E-17));
#777=DIRECTION('ref_axis',(3.51842845256724E-17,-0.17364817766693,-0.984807753012208));
#778=DIRECTION('',(-3.51842845256724E-17,0.17364817766693,0.984807753012208));
#779=DIRECTION('',(3.51842845256724E-17,-0.17364817766693,-0.984807753012208));
#780=DIRECTION('',(4.02158212363673E-16,-0.984807753012208,0.17364817766693));
#781=DIRECTION('center_axis',(-3.51842845256724E-17,0.17364817766693,0.984807753012208));
#782=DIRECTION('ref_axis',(-1.,-4.02158212363673E-16,3.51842845256725E-17));
#783=DIRECTION('',(1.,4.02158212363673E-16,-3.51842845256725E-17));
#784=DIRECTION('',(-1.,-4.02158212363673E-16,3.51842845256725E-17));
#785=DIRECTION('',(4.02158212363673E-16,-0.984807753012208,0.17364817766693));
#786=DIRECTION('center_axis',(1.,4.02158212363673E-16,-3.51842845256725E-17));
#787=DIRECTION('ref_axis',(-3.51842845256724E-17,0.17364817766693,0.984807753012208));
#788=DIRECTION('',(3.51842845256724E-17,-0.17364817766693,-0.984807753012208));
#789=DIRECTION('',(-3.51842845256724E-17,0.17364817766693,0.984807753012208));
#790=DIRECTION('center_axis',(4.02158212363673E-16,-0.984807753012208,0.17364817766693));
#791=DIRECTION('ref_axis',(1.,4.02158212363673E-16,-3.51842845256725E-17));
#792=DIRECTION('center_axis',(1.,4.02158212363673E-16,-3.51842845256725E-17));
#793=DIRECTION('ref_axis',(-3.51842845256724E-17,0.17364817766693,0.984807753012208));
#794=DIRECTION('',(3.51842845256724E-17,-0.17364817766693,-0.984807753012208));
#795=DIRECTION('',(4.02158212363673E-16,-0.984807753012208,0.17364817766693));
#796=DIRECTION('',(-3.51842845256724E-17,0.17364817766693,0.984807753012208));
#797=DIRECTION('',(4.02158212363673E-16,-0.984807753012208,0.17364817766693));
#798=DIRECTION('center_axis',(3.51842845256724E-17,-0.17364817766693,-0.984807753012208));
#799=DIRECTION('ref_axis',(1.,4.02158212363673E-16,-3.51842845256725E-17));
#800=DIRECTION('',(-1.,-4.02158212363673E-16,3.51842845256725E-17));
#801=DIRECTION('',(1.,4.02158212363673E-16,-3.51842845256725E-17));
#802=DIRECTION('',(4.02158212363673E-16,-0.984807753012208,0.17364817766693));
#803=DIRECTION('center_axis',(-1.,-4.02158212363673E-16,3.51842845256725E-17));
#804=DIRECTION('ref_axis',(3.51842845256724E-17,-0.17364817766693,-0.984807753012208));
#805=DIRECTION('',(-3.51842845256724E-17,0.17364817766693,0.984807753012208));
#806=DIRECTION('',(3.51842845256724E-17,-0.17364817766693,-0.984807753012208));
#807=DIRECTION('',(4.02158212363673E-16,-0.984807753012208,0.17364817766693));
#808=DIRECTION('center_axis',(4.02158212363673E-16,-0.984807753012208,0.17364817766693));
#809=DIRECTION('ref_axis',(1.,4.02158212363673E-16,-3.51842845256725E-17));
#810=DIRECTION('',(-1.,-4.02158212363673E-16,3.51842845256725E-17));
#811=DIRECTION('center_axis',(4.022558355E-16,0.17364817766693,0.984807753012208));
#812=DIRECTION('ref_axis',(-1.,-3.26197532682812E-16,4.65978706205545E-16));
#813=DIRECTION('',(1.,3.26197532682812E-16,-4.65978706205545E-16));
#814=DIRECTION('',(4.02158212363673E-16,-0.984807753012208,0.17364817766693));
#815=DIRECTION('',(-1.,-3.26197532682812E-16,4.65978706205545E-16));
#816=DIRECTION('',(4.02158212363673E-16,-0.984807753012208,0.17364817766693));
#817=DIRECTION('center_axis',(1.,2.54286147144094E-16,-8.73808439634794E-16));
#818=DIRECTION('ref_axis',(8.16376999942329E-16,0.17364817766693,0.984807753012208));
#819=DIRECTION('',(-8.16376999942329E-16,-0.17364817766693,-0.984807753012208));
#820=DIRECTION('',(8.16376999942329E-16,0.17364817766693,0.984807753012208));
#821=DIRECTION('',(4.02158212363673E-16,-0.984807753012208,0.17364817766693));
#822=DIRECTION('',(-8.16376999942329E-16,-0.17364817766693,-0.984807753012208));
#823=DIRECTION('center_axis',(-2.49151793491015E-16,-0.17364817766693,-0.984807753012208));
#824=DIRECTION('ref_axis',(1.,3.52783770571113E-16,-3.1520065861759E-16));
#825=DIRECTION('',(-1.,-3.52783770571113E-16,3.1520065861759E-16));
#826=DIRECTION('',(1.,3.52783770571113E-16,-3.1520065861759E-16));
#827=DIRECTION('',(4.02158212363673E-16,-0.984807753012208,0.17364817766693));
#828=DIRECTION('center_axis',(-1.,-4.02158212363673E-16,3.51842845256725E-17));
#829=DIRECTION('ref_axis',(3.51842845256724E-17,-0.17364817766693,-0.984807753012208));
#830=DIRECTION('',(-3.51842845256724E-17,0.17364817766693,0.984807753012208));
#831=DIRECTION('',(3.51842845256724E-17,-0.17364817766693,-0.984807753012208));
#832=DIRECTION('',(-3.51842845256724E-17,0.17364817766693,0.984807753012208));
#833=DIRECTION('center_axis',(4.02158212363673E-16,-0.984807753012208,0.17364817766693));
#834=DIRECTION('ref_axis',(1.,4.02158212363673E-16,-3.51842845256725E-17));
#835=DIRECTION('',(-1.,-4.02158212363673E-16,3.51842845256725E-17));
#836=DIRECTION('center_axis',(4.02158212363673E-16,-0.984807753012208,0.17364817766693));
#837=DIRECTION('ref_axis',(1.,4.02158212363673E-16,-3.51842845256725E-17));
#838=DIRECTION('center_axis',(4.02158212363673E-16,-0.984807753012208,0.17364817766693));
#839=DIRECTION('ref_axis',(1.,4.02158212363673E-16,-3.51842845256725E-17));
#840=DIRECTION('',(-1.,-4.02158212363673E-16,3.51842845256725E-17));
#841=DIRECTION('',(3.51842845256724E-17,-0.17364817766693,-0.984807753012208));
#842=DIRECTION('',(1.,4.02158212363673E-16,-3.51842845256725E-17));
#843=DIRECTION('',(-3.51842845256724E-17,0.17364817766693,0.984807753012208));
#844=DIRECTION('',(-1.,-4.02158212363673E-16,3.51842845256725E-17));
#845=DIRECTION('',(-1.,-4.02158212363673E-16,3.51842845256725E-17));
#846=DIRECTION('center_axis',(-4.02158212363673E-16,0.984807753012208,-0.17364817766693));
#847=DIRECTION('ref_axis',(-3.51842845256724E-17,0.17364817766693,0.984807753012208));
#848=DIRECTION('center_axis',(-4.02158212363673E-16,0.984807753012208,-0.17364817766693));
#849=DIRECTION('ref_axis',(-3.51842845256724E-17,0.17364817766693,0.984807753012208));
#850=DIRECTION('center_axis',(-4.02158212363673E-16,0.984807753012208,-0.17364817766693));
#851=DIRECTION('ref_axis',(-3.51842845256724E-17,0.17364817766693,0.984807753012208));
#852=DIRECTION('center_axis',(-4.02158212363673E-16,0.984807753012208,-0.17364817766693));
#853=DIRECTION('ref_axis',(-3.51842845256724E-17,0.17364817766693,0.984807753012208));
#854=DIRECTION('center_axis',(4.02158212363673E-16,-0.984807753012208,0.17364817766693));
#855=DIRECTION('ref_axis',(-3.51842845256724E-17,0.17364817766693,0.984807753012208));
#856=DIRECTION('center_axis',(4.02158212363673E-16,-0.984807753012208,0.17364817766693));
#857=DIRECTION('ref_axis',(-3.51842845256724E-17,0.17364817766693,0.984807753012208));
#858=DIRECTION('',(4.02158212363673E-16,-0.984807753012208,0.17364817766693));
#859=DIRECTION('center_axis',(4.02158212363673E-16,-0.984807753012208,0.17364817766693));
#860=DIRECTION('ref_axis',(-3.51842845256724E-17,0.17364817766693,0.984807753012208));
#861=DIRECTION('center_axis',(4.02158212363673E-16,-0.984807753012208,0.17364817766693));
#862=DIRECTION('ref_axis',(-3.51842845256724E-17,0.17364817766693,0.984807753012208));
#863=DIRECTION('',(4.02158212363673E-16,-0.984807753012208,0.17364817766693));
#864=DIRECTION('center_axis',(4.02158212363673E-16,-0.984807753012208,0.17364817766693));
#865=DIRECTION('ref_axis',(-3.51842845256724E-17,0.17364817766693,0.984807753012208));
#866=DIRECTION('center_axis',(4.02158212363673E-16,-0.984807753012208,0.17364817766693));
#867=DIRECTION('ref_axis',(-3.51842845256724E-17,0.17364817766693,0.984807753012208));
#868=DIRECTION('',(4.02158212363673E-16,-0.984807753012208,0.17364817766693));
#869=DIRECTION('center_axis',(4.02158212363673E-16,-0.984807753012208,0.17364817766693));
#870=DIRECTION('ref_axis',(-3.51842845256724E-17,0.17364817766693,0.984807753012208));
#871=DIRECTION('center_axis',(4.02158212363673E-16,-0.984807753012208,0.17364817766693));
#872=DIRECTION('ref_axis',(-3.51842845256724E-17,0.17364817766693,0.984807753012208));
#873=DIRECTION('',(4.02158212363673E-16,-0.984807753012208,0.17364817766693));
#874=DIRECTION('center_axis',(3.51842845256724E-17,-0.17364817766693,-0.984807753012208));
#875=DIRECTION('ref_axis',(1.,4.02158212363673E-16,-3.51842845256725E-17));
#876=DIRECTION('',(-1.,-4.02158212363673E-16,3.51842845256725E-17));
#877=DIRECTION('',(4.02158212363673E-16,-0.984807753012208,0.17364817766693));
#878=DIRECTION('',(4.02158212363673E-16,-0.984807753012208,0.17364817766693));
#879=DIRECTION('center_axis',(-1.,-4.02158212363673E-16,3.51842845256725E-17));
#880=DIRECTION('ref_axis',(3.51842845256724E-17,-0.17364817766693,-0.984807753012208));
#881=DIRECTION('',(-3.51842845256724E-17,0.17364817766693,0.984807753012208));
#882=DIRECTION('',(4.02158212363673E-16,-0.984807753012208,0.17364817766693));
#883=DIRECTION('center_axis',(-3.51842845256724E-17,0.17364817766693,0.984807753012208));
#884=DIRECTION('ref_axis',(-1.,-4.02158212363673E-16,3.51842845256725E-17));
#885=DIRECTION('',(1.,4.02158212363673E-16,-3.51842845256725E-17));
#886=DIRECTION('',(4.02158212363673E-16,-0.984807753012208,0.17364817766693));
#887=DIRECTION('center_axis',(1.,4.02158212363673E-16,-3.51842845256725E-17));
#888=DIRECTION('ref_axis',(-3.51842845256724E-17,0.17364817766693,0.984807753012208));
#889=DIRECTION('',(3.51842845256724E-17,-0.17364817766693,-0.984807753012208));
#890=DIRECTION('center_axis',(4.02158212363673E-16,-0.984807753012208,0.17364817766693));
#891=DIRECTION('ref_axis',(1.,4.02158212363673E-16,-3.51842845256725E-17));
#892=CARTESIAN_POINT('',(0.,0.,0.));
#893=CARTESIAN_POINT('Origin',(37.79,153.074743640733,-133.813807244398));
#894=CARTESIAN_POINT('',(71.16,153.074743640733,-133.813807244398));
#895=CARTESIAN_POINT('',(37.79,153.074743640733,-133.813807244398));
#896=CARTESIAN_POINT('',(32.475,153.074743640733,-133.813807244398));
#897=CARTESIAN_POINT('',(71.16,152.976262865432,-133.796442426632));
#898=CARTESIAN_POINT('',(71.16,153.074743640733,-133.813807244398));
#899=CARTESIAN_POINT('',(37.79,152.976262865432,-133.796442426632));
#900=CARTESIAN_POINT('',(37.79,152.976262865432,-133.796442426632));
#901=CARTESIAN_POINT('',(37.79,153.074743640733,-133.813807244398));
#902=CARTESIAN_POINT('Origin',(37.79,158.869383329478,-100.950772526381));
#903=CARTESIAN_POINT('',(37.79,158.869383329478,-100.950772526381));
#904=CARTESIAN_POINT('',(37.79,158.57678615011,-102.610173590206));
#905=CARTESIAN_POINT('',(37.79,158.770902554177,-100.933407708614));
#906=CARTESIAN_POINT('',(37.79,158.770902554177,-100.933407708614));
#907=CARTESIAN_POINT('',(37.79,158.869383329478,-100.950772526381));
#908=CARTESIAN_POINT('Origin',(71.16,158.869383329478,-100.950772526381));
#909=CARTESIAN_POINT('',(71.16,158.869383329478,-100.950772526381));
#910=CARTESIAN_POINT('',(49.16,158.869383329478,-100.950772526381));
#911=CARTESIAN_POINT('',(71.16,158.770902554177,-100.933407708614));
#912=CARTESIAN_POINT('',(71.16,158.770902554177,-100.933407708614));
#913=CARTESIAN_POINT('',(71.16,158.869383329478,-100.950772526381));
#914=CARTESIAN_POINT('Origin',(71.16,153.074743640733,-133.813807244398));
#915=CARTESIAN_POINT('',(71.16,155.679466305737,-119.041690949215));
#916=CARTESIAN_POINT('',(71.16,152.976262865432,-133.796442426632));
#917=CARTESIAN_POINT('Origin',(54.475,155.873582709804,-117.364925067623));
#918=CARTESIAN_POINT('Origin',(-16.84,153.074743640733,-133.813807244398));
#919=CARTESIAN_POINT('',(16.53,153.074743640733,-133.813807244398));
#920=CARTESIAN_POINT('',(-16.84,153.074743640733,-133.813807244398));
#921=CARTESIAN_POINT('',(5.15999999999999,153.074743640733,-133.813807244398));
#922=CARTESIAN_POINT('',(16.53,152.976262865432,-133.796442426632));
#923=CARTESIAN_POINT('',(16.53,153.074743640733,-133.813807244398));
#924=CARTESIAN_POINT('',(-16.84,152.976262865432,-133.796442426632));
#925=CARTESIAN_POINT('',(-16.84,152.976262865432,-133.796442426632));
#926=CARTESIAN_POINT('',(-16.84,153.074743640733,-133.813807244398));
#927=CARTESIAN_POINT('Origin',(-16.84,158.869383329478,-100.950772526381));
#928=CARTESIAN_POINT('',(-16.84,158.869383329478,-100.950772526381));
#929=CARTESIAN_POINT('',(-16.84,158.576786150109,-102.610173590206));
#930=CARTESIAN_POINT('',(-16.84,158.770902554177,-100.933407708614));
#931=CARTESIAN_POINT('',(-16.84,158.770902554177,-100.933407708614));
#932=CARTESIAN_POINT('',(-16.84,158.869383329478,-100.950772526381));
#933=CARTESIAN_POINT('Origin',(16.53,158.869383329478,-100.950772526381));
#934=CARTESIAN_POINT('',(16.53,158.869383329478,-100.950772526381));
#935=CARTESIAN_POINT('',(21.845,158.869383329478,-100.950772526381));
#936=CARTESIAN_POINT('',(16.53,158.770902554177,-100.933407708614));
#937=CARTESIAN_POINT('',(16.53,158.770902554177,-100.933407708614));
#938=CARTESIAN_POINT('',(16.53,158.869383329478,-100.950772526381));
#939=CARTESIAN_POINT('Origin',(16.53,153.074743640733,-133.813807244398));
#940=CARTESIAN_POINT('',(16.53,155.679466305737,-119.041690949215));
#941=CARTESIAN_POINT('',(16.53,152.976262865432,-133.796442426632));
#942=CARTESIAN_POINT('Origin',(-0.155000000000015,155.873582709804,-117.364925067623));
#943=CARTESIAN_POINT('Origin',(17.47,152.380150930065,-137.753038256447));
#944=CARTESIAN_POINT('',(36.77,152.380150930065,-137.753038256447));
#945=CARTESIAN_POINT('',(17.47,152.380150930065,-137.753038256447));
#946=CARTESIAN_POINT('',(22.315,152.380150930065,-137.753038256447));
#947=CARTESIAN_POINT('',(36.77,144.856219697052,-136.426366179072));
#948=CARTESIAN_POINT('',(36.77,152.380150930065,-137.753038256447));
#949=CARTESIAN_POINT('',(17.47,144.856219697052,-136.426366179072));
#950=CARTESIAN_POINT('',(17.47,144.856219697052,-136.426366179072));
#951=CARTESIAN_POINT('',(17.47,152.380150930065,-137.753038256447));
#952=CARTESIAN_POINT('Origin',(17.47,157.589596260073,-108.208805666081));
#953=CARTESIAN_POINT('',(17.47,157.589596260073,-108.208805666081));
#954=CARTESIAN_POINT('',(17.47,157.936892615407,-106.239190160056));
#955=CARTESIAN_POINT('',(17.47,150.06566502706,-106.882133588705));
#956=CARTESIAN_POINT('',(17.47,150.06566502706,-106.882133588705));
#957=CARTESIAN_POINT('',(17.47,157.589596260073,-108.208805666081));
#958=CARTESIAN_POINT('Origin',(36.77,157.589596260073,-108.208805666081));
#959=CARTESIAN_POINT('',(36.77,157.589596260073,-108.208805666081));
#960=CARTESIAN_POINT('',(31.965,157.589596260073,-108.208805666081));
#961=CARTESIAN_POINT('',(36.77,150.06566502706,-106.882133588705));
#962=CARTESIAN_POINT('',(36.77,150.06566502706,-106.882133588705));
#963=CARTESIAN_POINT('',(36.77,157.589596260073,-108.208805666081));
#964=CARTESIAN_POINT('Origin',(36.77,152.380150930065,-137.753038256447));
#965=CARTESIAN_POINT('',(36.77,155.332169950403,-121.01130645524));
#966=CARTESIAN_POINT('',(36.77,144.856219697052,-136.426366179072));
#967=CARTESIAN_POINT('Origin',(27.12,147.460942362056,-121.654249883889));
#968=CARTESIAN_POINT('Origin',(-0.640000000000014,163.927754744916,-72.2633226811352));
#969=CARTESIAN_POINT('',(-0.640000000000015,164.795995633251,-67.3392839160742));
#970=CARTESIAN_POINT('',(-0.640000000000014,163.927754744916,-72.2633226811352));
#971=CARTESIAN_POINT('',(-0.640000000000014,161.105971857828,-88.2664486675836));
#972=CARTESIAN_POINT('',(-0.640000000000013,161.841572374214,-66.8183393830734));
#973=CARTESIAN_POINT('',(-0.640000000000015,164.795995633251,-67.3392839160742));
#974=CARTESIAN_POINT('',(-0.640000000000013,160.973331485879,-71.7423781481344));
#975=CARTESIAN_POINT('',(-0.640000000000013,160.973331485879,-71.7423781481344));
#976=CARTESIAN_POINT('',(-0.640000000000014,163.927754744916,-72.2633226811352));
#977=CARTESIAN_POINT('Origin',(-8.64000000000001,163.927754744916,-72.2633226811352));
#978=CARTESIAN_POINT('',(-8.64000000000001,163.927754744916,-72.2633226811352));
#979=CARTESIAN_POINT('',(9.25999999999999,163.927754744916,-72.2633226811352));
#980=CARTESIAN_POINT('',(-8.64000000000001,160.973331485879,-71.7423781481344));
#981=CARTESIAN_POINT('',(-8.64000000000001,160.973331485879,-71.7423781481344));
#982=CARTESIAN_POINT('',(-8.64000000000001,163.927754744916,-72.2633226811352));
#983=CARTESIAN_POINT('Origin',(-8.64000000000001,164.795995633251,-67.3392839160742));
#984=CARTESIAN_POINT('',(-8.64000000000001,164.795995633251,-67.3392839160742));
#985=CARTESIAN_POINT('',(-8.64000000000001,161.540092301996,-85.8044292850531));
#986=CARTESIAN_POINT('',(-8.64000000000001,161.841572374214,-66.8183393830734));
#987=CARTESIAN_POINT('',(-8.64000000000001,161.841572374214,-66.8183393830734));
#988=CARTESIAN_POINT('',(-8.64000000000001,164.795995633251,-67.3392839160742));
#989=CARTESIAN_POINT('Origin',(-4.64000000000001,161.407451930047,-69.2803587656039));
#990=CARTESIAN_POINT('',(72.16,161.841572374214,-66.8183393830734));
#991=CARTESIAN_POINT('Origin',(29.29,165.843094144582,-61.4008931654106));
#992=CARTESIAN_POINT('',(3.90999999999999,165.843094144582,-61.4008931654106));
#993=CARTESIAN_POINT('',(29.29,165.843094144582,-61.4008931654106));
#994=CARTESIAN_POINT('',(3.90999999999999,165.843094144582,-61.4008931654106));
#995=CARTESIAN_POINT('',(3.90999999999999,162.888670885546,-60.8799486324098));
#996=CARTESIAN_POINT('',(3.90999999999999,165.843094144582,-61.4008931654106));
#997=CARTESIAN_POINT('',(29.29,162.888670885546,-60.8799486324098));
#998=CARTESIAN_POINT('',(3.90999999999999,162.888670885546,-60.8799486324098));
#999=CARTESIAN_POINT('',(29.29,165.843094144582,-61.4008931654106));
#1000=CARTESIAN_POINT('Origin',(29.29,164.031943651516,-71.6724380293279));
#1001=CARTESIAN_POINT('',(29.29,164.795995633251,-67.3392839160742));
#1002=CARTESIAN_POINT('',(29.29,165.843094144582,-61.4008931654106));
#1003=CARTESIAN_POINT('',(29.29,161.077520392479,-71.1514934963271));
#1004=CARTESIAN_POINT('',(29.29,162.888670885546,-60.8799486324098));
#1005=CARTESIAN_POINT('',(29.29,164.031943651516,-71.6724380293279));
#1006=CARTESIAN_POINT('',(29.29,164.031943651516,-71.6724380293279));
#1007=CARTESIAN_POINT('',(29.29,161.158066311128,-87.97100634168));
#1008=CARTESIAN_POINT('Origin',(3.90999999999999,164.031943651516,-71.6724380293279));
#1009=CARTESIAN_POINT('',(3.90999999999999,164.031943651516,-71.6724380293279));
#1010=CARTESIAN_POINT('',(15.535,164.031943651516,-71.6724380293279));
#1011=CARTESIAN_POINT('',(3.90999999999999,161.077520392479,-71.1514934963271));
#1012=CARTESIAN_POINT('',(29.29,161.077520392479,-71.1514934963271));
#1013=CARTESIAN_POINT('',(3.90999999999999,164.031943651516,-71.6724380293279));
#1014=CARTESIAN_POINT('Origin',(3.90999999999999,165.843094144582,-61.4008931654106));
#1015=CARTESIAN_POINT('',(3.90999999999999,164.795995633251,-67.3392839160742));
#1016=CARTESIAN_POINT('',(3.90999999999999,162.063641557661,-82.8352339097213));
#1017=CARTESIAN_POINT('',(3.90999999999999,161.077520392479,-71.1514934963271));
#1018=CARTESIAN_POINT('',(3.90999999999999,164.031943651516,-71.6724380293279));
#1019=CARTESIAN_POINT('Origin',(16.6,164.937518898049,-66.5366655973693));
#1020=CARTESIAN_POINT('',(-17.84,164.795995633251,-67.3392839160742));
#1021=CARTESIAN_POINT('Origin',(16.6,161.983095639013,-66.0157210643685));
#1022=CARTESIAN_POINT('Origin',(27.16,158.284188970741,-104.269574654032));
#1023=CARTESIAN_POINT('',(-17.84,164.795995633251,-67.3392839160742));
#1024=CARTESIAN_POINT('',(-17.84,164.795995633251,-67.3392839160742));
#1025=CARTESIAN_POINT('',(-17.84,151.772382308231,-141.19986539199));
#1026=CARTESIAN_POINT('',(-17.84,151.772382308231,-141.19986539199));
#1027=CARTESIAN_POINT('',(72.16,151.772382308231,-141.19986539199));
#1028=CARTESIAN_POINT('',(72.16,151.772382308231,-141.19986539199));
#1029=CARTESIAN_POINT('',(72.16,164.795995633251,-67.3392839160742));
#1030=CARTESIAN_POINT('',(72.16,164.795995633251,-67.3392839160742));
#1031=CARTESIAN_POINT('',(-17.84,164.795995633251,-67.3392839160742));
#1032=CARTESIAN_POINT('',(-17.84,164.795995633251,-67.3392839160742));
#1033=CARTESIAN_POINT('',(68.16,163.819224633874,-72.8788275267679));
#1034=CARTESIAN_POINT('Origin',(68.16,164.101402922583,-71.278514928123));
#1035=CARTESIAN_POINT('',(68.16,152.18479673019,-138.860946978586));
#1036=CARTESIAN_POINT('Origin',(68.16,152.466975018899,-137.260634379941));
#1037=CARTESIAN_POINT('',(-13.84,163.819224633874,-72.8788275267679));
#1038=CARTESIAN_POINT('Origin',(-13.84,164.101402922583,-71.278514928123));
#1039=CARTESIAN_POINT('',(-13.84,152.18479673019,-138.860946978586));
#1040=CARTESIAN_POINT('Origin',(-13.84,152.466975018899,-137.260634379941));
#1041=CARTESIAN_POINT('Origin',(-13.84,153.638896244983,-137.467275711365));
#1042=CARTESIAN_POINT('',(-13.84,153.356717956274,-139.067588310009));
#1043=CARTESIAN_POINT('Origin',(-13.84,153.638896244983,-137.467275711365));
#1044=CARTESIAN_POINT('',(-13.84,153.356717956274,-139.067588310009));
#1045=CARTESIAN_POINT('Origin',(-13.84,165.273324148667,-71.4851562595467));
#1046=CARTESIAN_POINT('',(-13.84,164.991145859959,-73.0854688581915));
#1047=CARTESIAN_POINT('Origin',(-13.84,165.273324148667,-71.4851562595467));
#1048=CARTESIAN_POINT('',(-13.84,164.991145859959,-73.0854688581915));
#1049=CARTESIAN_POINT('Origin',(68.16,153.638896244983,-137.467275711365));
#1050=CARTESIAN_POINT('',(68.16,153.356717956274,-139.067588310009));
#1051=CARTESIAN_POINT('Origin',(68.16,153.638896244983,-137.467275711365));
#1052=CARTESIAN_POINT('',(68.16,153.356717956274,-139.067588310009));
#1053=CARTESIAN_POINT('Origin',(68.16,165.273324148667,-71.4851562595467));
#1054=CARTESIAN_POINT('',(68.16,164.991145859959,-73.0854688581915));
#1055=CARTESIAN_POINT('Origin',(68.16,165.273324148667,-71.4851562595467));
#1056=CARTESIAN_POINT('',(68.16,164.991145859959,-73.0854688581915));
#1057=CARTESIAN_POINT('Origin',(-17.84,152.944303534315,-141.406506723413));
#1058=CARTESIAN_POINT('',(72.16,152.944303534315,-141.406506723413));
#1059=CARTESIAN_POINT('',(-17.84,152.944303534315,-141.406506723413));
#1060=CARTESIAN_POINT('',(72.16,152.944303534315,-141.406506723413));
#1061=CARTESIAN_POINT('',(72.16,152.944303534315,-141.406506723413));
#1062=CARTESIAN_POINT('',(-17.84,152.944303534315,-141.406506723413));
#1063=CARTESIAN_POINT('Origin',(-17.84,165.967916859335,-67.5459252474978));
#1064=CARTESIAN_POINT('',(-17.84,165.967916859335,-67.5459252474978));
#1065=CARTESIAN_POINT('',(-17.84,152.944303534315,-141.406506723413));
#1066=CARTESIAN_POINT('',(-17.84,165.967916859335,-67.5459252474978));
#1067=CARTESIAN_POINT('Origin',(72.16,165.967916859335,-67.5459252474978));
#1068=CARTESIAN_POINT('',(72.16,165.967916859335,-67.5459252474978));
#1069=CARTESIAN_POINT('',(-17.84,165.967916859335,-67.5459252474978));
#1070=CARTESIAN_POINT('',(72.16,165.967916859335,-67.5459252474978));
#1071=CARTESIAN_POINT('Origin',(72.16,152.944303534315,-141.406506723413));
#1072=CARTESIAN_POINT('',(72.16,165.967916859335,-67.5459252474978));
#1073=CARTESIAN_POINT('Origin',(27.16,159.456110196825,-104.476215985456));
#1074=UNCERTAINTY_MEASURE_WITH_UNIT(LENGTH_MEASURE(0.01),#1078,
'DISTANCE_ACCURACY_VALUE',
'Maximum model space distance between geometric entities at asserted c
onnectivities');
#1075=UNCERTAINTY_MEASURE_WITH_UNIT(LENGTH_MEASURE(0.01),#1078,
'DISTANCE_ACCURACY_VALUE',
'Maximum model space distance between geometric entities at asserted c
onnectivities');
#1076=(
GEOMETRIC_REPRESENTATION_CONTEXT(3)
GLOBAL_UNCERTAINTY_ASSIGNED_CONTEXT((#1074))
GLOBAL_UNIT_ASSIGNED_CONTEXT((#1078,#1080,#1081))
REPRESENTATION_CONTEXT('','3D')
);
#1077=(
GEOMETRIC_REPRESENTATION_CONTEXT(3)
GLOBAL_UNCERTAINTY_ASSIGNED_CONTEXT((#1075))
GLOBAL_UNIT_ASSIGNED_CONTEXT((#1078,#1080,#1081))
REPRESENTATION_CONTEXT('','3D')
);
#1078=(
LENGTH_UNIT()
NAMED_UNIT(*)
SI_UNIT(.MILLI.,.METRE.)
);
#1079=(
LENGTH_UNIT()
NAMED_UNIT(*)
SI_UNIT($,.METRE.)
);
#1080=(
NAMED_UNIT(*)
PLANE_ANGLE_UNIT()
SI_UNIT($,.RADIAN.)
);
#1081=(
NAMED_UNIT(*)
SI_UNIT($,.STERADIAN.)
SOLID_ANGLE_UNIT()
);
#1082=SHAPE_DEFINITION_REPRESENTATION(#1083,#1084);
#1083=PRODUCT_DEFINITION_SHAPE('',$,#1086);
#1084=SHAPE_REPRESENTATION('',(#680),#1076);
#1085=PRODUCT_DEFINITION_CONTEXT('part definition',#1090,'design');
#1086=PRODUCT_DEFINITION('(Unsaved)','(Unsaved)',#1087,#1085);
#1087=PRODUCT_DEFINITION_FORMATION('',$,#1092);
#1088=PRODUCT_RELATED_PRODUCT_CATEGORY('(Unsaved)','(Unsaved)',(#1092));
#1089=APPLICATION_PROTOCOL_DEFINITION('international standard',
'automotive_design',2009,#1090);
#1090=APPLICATION_CONTEXT(
'Core Data for Automotive Mechanical Design Process');
#1091=PRODUCT_CONTEXT('part definition',#1090,'mechanical');
#1092=PRODUCT('(Unsaved)','(Unsaved)',$,(#1091));
#1093=PRESENTATION_STYLE_ASSIGNMENT((#1094));
#1094=SURFACE_STYLE_USAGE(.BOTH.,#1095);
#1095=SURFACE_SIDE_STYLE('',(#1096));
#1096=SURFACE_STYLE_FILL_AREA(#1097);
#1097=FILL_AREA_STYLE('Steel - Satin',(#1098));
#1098=FILL_AREA_STYLE_COLOUR('Steel - Satin',#1099);
#1099=COLOUR_RGB('Steel - Satin',0.627450980392157,0.627450980392157,0.627450980392157);
ENDSEC;
END-ISO-10303-21;
