ISO-10303-21;
HEADER;
/* Generated by software containing ST-Developer
 * from STEP Tools, Inc. (www.steptools.com) 
 */

FILE_DESCRIPTION(
/* description */ (''),
/* implementation_level */ '2;1');

FILE_NAME(
/* name */ 'reference-sound-detector.step',
/* time_stamp */ '2026-09-11T16:58:00-07:00',
/* author */ (''),
/* organization */ (''),
/* preprocessor_version */ 'ST-DEVELOPER v20.2',
/* originating_system */ 'Autodesk Translation Framework v15.15.0.0',
/* authorisation */ '');

FILE_SCHEMA (('AUTOMOTIVE_DESIGN { 1 0 10303 214 3 1 1 }'));
ENDSEC;

DATA;
#10=MECHANICAL_DESIGN_GEOMETRIC_PRESENTATION_REPRESENTATION('',(#13,#14,
#15),#466);
#11=SHAPE_REPRESENTATION_RELATIONSHIP('SRR','None',#473,#12);
#12=ADVANCED_BREP_SHAPE_REPRESENTATION('',(#16,#17,#18),#465);
#13=STYLED_ITEM('',(#482),#16);
#14=STYLED_ITEM('',(#482),#17);
#15=STYLED_ITEM('',(#482),#18);
#16=MANIFOLD_SOLID_BREP('reference-sound-detector 1',#276);
#17=MANIFOLD_SOLID_BREP('reference-sound-detector 2',#277);
#18=MANIFOLD_SOLID_BREP('reference-sound-detector 3',#278);
#19=FACE_BOUND('',#61,.T.);
#20=FACE_BOUND('',#62,.T.);
#21=FACE_BOUND('',#64,.T.);
#22=FACE_BOUND('',#65,.T.);
#23=PLANE('',#298);
#24=PLANE('',#299);
#25=PLANE('',#300);
#26=PLANE('',#301);
#27=PLANE('',#302);
#28=PLANE('',#303);
#29=PLANE('',#307);
#30=PLANE('',#308);
#31=PLANE('',#309);
#32=PLANE('',#310);
#33=PLANE('',#311);
#34=PLANE('',#312);
#35=PLANE('',#313);
#36=PLANE('',#314);
#37=FACE_OUTER_BOUND('',#54,.T.);
#38=FACE_OUTER_BOUND('',#55,.T.);
#39=FACE_OUTER_BOUND('',#56,.T.);
#40=FACE_OUTER_BOUND('',#57,.T.);
#41=FACE_OUTER_BOUND('',#58,.T.);
#42=FACE_OUTER_BOUND('',#59,.T.);
#43=FACE_OUTER_BOUND('',#60,.T.);
#44=FACE_OUTER_BOUND('',#63,.T.);
#45=FACE_OUTER_BOUND('',#66,.T.);
#46=FACE_OUTER_BOUND('',#67,.T.);
#47=FACE_OUTER_BOUND('',#68,.T.);
#48=FACE_OUTER_BOUND('',#69,.T.);
#49=FACE_OUTER_BOUND('',#70,.T.);
#50=FACE_OUTER_BOUND('',#71,.T.);
#51=FACE_OUTER_BOUND('',#72,.T.);
#52=FACE_OUTER_BOUND('',#73,.T.);
#53=FACE_OUTER_BOUND('',#74,.T.);
#54=EDGE_LOOP('',(#190,#191,#192,#193));
#55=EDGE_LOOP('',(#194,#195,#196,#197));
#56=EDGE_LOOP('',(#198,#199,#200,#201));
#57=EDGE_LOOP('',(#202,#203,#204,#205));
#58=EDGE_LOOP('',(#206,#207,#208,#209));
#59=EDGE_LOOP('',(#210,#211,#212,#213));
#60=EDGE_LOOP('',(#214,#215,#216,#217));
#61=EDGE_LOOP('',(#218));
#62=EDGE_LOOP('',(#219));
#63=EDGE_LOOP('',(#220,#221,#222,#223));
#64=EDGE_LOOP('',(#224));
#65=EDGE_LOOP('',(#225));
#66=EDGE_LOOP('',(#226,#227,#228,#229));
#67=EDGE_LOOP('',(#230));
#68=EDGE_LOOP('',(#231));
#69=EDGE_LOOP('',(#232,#233,#234,#235));
#70=EDGE_LOOP('',(#236,#237,#238,#239));
#71=EDGE_LOOP('',(#240,#241,#242,#243));
#72=EDGE_LOOP('',(#244,#245,#246,#247));
#73=EDGE_LOOP('',(#248,#249,#250,#251));
#74=EDGE_LOOP('',(#252,#253,#254,#255));
#75=LINE('',#395,#102);
#76=LINE('',#401,#103);
#77=LINE('',#406,#104);
#78=LINE('',#408,#105);
#79=LINE('',#410,#106);
#80=LINE('',#411,#107);
#81=LINE('',#414,#108);
#82=LINE('',#416,#109);
#83=LINE('',#417,#110);
#84=LINE('',#420,#111);
#85=LINE('',#422,#112);
#86=LINE('',#423,#113);
#87=LINE('',#425,#114);
#88=LINE('',#426,#115);
#89=LINE('',#433,#116);
#90=LINE('',#440,#117);
#91=LINE('',#442,#118);
#92=LINE('',#444,#119);
#93=LINE('',#445,#120);
#94=LINE('',#449,#121);
#95=LINE('',#451,#122);
#96=LINE('',#453,#123);
#97=LINE('',#454,#124);
#98=LINE('',#456,#125);
#99=LINE('',#457,#126);
#100=LINE('',#459,#127);
#101=LINE('',#461,#128);
#102=VECTOR('',#321,2.2);
#103=VECTOR('',#328,2.2);
#104=VECTOR('',#333,10.);
#105=VECTOR('',#334,10.);
#106=VECTOR('',#335,10.);
#107=VECTOR('',#336,10.);
#108=VECTOR('',#339,10.);
#109=VECTOR('',#340,10.);
#110=VECTOR('',#341,10.);
#111=VECTOR('',#344,10.);
#112=VECTOR('',#345,10.);
#113=VECTOR('',#346,10.);
#114=VECTOR('',#349,10.);
#115=VECTOR('',#350,10.);
#116=VECTOR('',#359,4.75);
#117=VECTOR('',#368,10.);
#118=VECTOR('',#369,10.);
#119=VECTOR('',#370,10.);
#120=VECTOR('',#371,10.);
#121=VECTOR('',#374,10.);
#122=VECTOR('',#375,10.);
#123=VECTOR('',#376,10.);
#124=VECTOR('',#377,10.);
#125=VECTOR('',#380,10.);
#126=VECTOR('',#381,10.);
#127=VECTOR('',#384,10.);
#128=VECTOR('',#387,10.);
#129=CIRCLE('',#293,2.2);
#130=CIRCLE('',#294,2.2);
#131=CIRCLE('',#296,2.2);
#132=CIRCLE('',#297,2.2);
#133=CIRCLE('',#305,4.75);
#134=CIRCLE('',#306,4.75);
#135=VERTEX_POINT('',#392);
#136=VERTEX_POINT('',#394);
#137=VERTEX_POINT('',#398);
#138=VERTEX_POINT('',#400);
#139=VERTEX_POINT('',#404);
#140=VERTEX_POINT('',#405);
#141=VERTEX_POINT('',#407);
#142=VERTEX_POINT('',#409);
#143=VERTEX_POINT('',#413);
#144=VERTEX_POINT('',#415);
#145=VERTEX_POINT('',#419);
#146=VERTEX_POINT('',#421);
#147=VERTEX_POINT('',#430);
#148=VERTEX_POINT('',#432);
#149=VERTEX_POINT('',#438);
#150=VERTEX_POINT('',#439);
#151=VERTEX_POINT('',#441);
#152=VERTEX_POINT('',#443);
#153=VERTEX_POINT('',#447);
#154=VERTEX_POINT('',#448);
#155=VERTEX_POINT('',#450);
#156=VERTEX_POINT('',#452);
#157=EDGE_CURVE('',#135,#135,#129,.T.);
#158=EDGE_CURVE('',#135,#136,#75,.T.);
#159=EDGE_CURVE('',#136,#136,#130,.T.);
#160=EDGE_CURVE('',#137,#137,#131,.T.);
#161=EDGE_CURVE('',#137,#138,#76,.T.);
#162=EDGE_CURVE('',#138,#138,#132,.T.);
#163=EDGE_CURVE('',#139,#140,#77,.T.);
#164=EDGE_CURVE('',#140,#141,#78,.T.);
#165=EDGE_CURVE('',#142,#141,#79,.T.);
#166=EDGE_CURVE('',#139,#142,#80,.T.);
#167=EDGE_CURVE('',#143,#139,#81,.T.);
#168=EDGE_CURVE('',#144,#142,#82,.T.);
#169=EDGE_CURVE('',#143,#144,#83,.T.);
#170=EDGE_CURVE('',#145,#143,#84,.T.);
#171=EDGE_CURVE('',#146,#144,#85,.T.);
#172=EDGE_CURVE('',#145,#146,#86,.T.);
#173=EDGE_CURVE('',#140,#145,#87,.T.);
#174=EDGE_CURVE('',#141,#146,#88,.T.);
#175=EDGE_CURVE('',#147,#147,#133,.T.);
#176=EDGE_CURVE('',#147,#148,#89,.T.);
#177=EDGE_CURVE('',#148,#148,#134,.T.);
#178=EDGE_CURVE('',#149,#150,#90,.T.);
#179=EDGE_CURVE('',#150,#151,#91,.T.);
#180=EDGE_CURVE('',#151,#152,#92,.T.);
#181=EDGE_CURVE('',#152,#149,#93,.T.);
#182=EDGE_CURVE('',#153,#154,#94,.T.);
#183=EDGE_CURVE('',#154,#155,#95,.T.);
#184=EDGE_CURVE('',#155,#156,#96,.T.);
#185=EDGE_CURVE('',#156,#153,#97,.T.);
#186=EDGE_CURVE('',#152,#155,#98,.T.);
#187=EDGE_CURVE('',#149,#154,#99,.T.);
#188=EDGE_CURVE('',#151,#156,#100,.T.);
#189=EDGE_CURVE('',#150,#153,#101,.T.);
#190=ORIENTED_EDGE('',*,*,#157,.F.);
#191=ORIENTED_EDGE('',*,*,#158,.T.);
#192=ORIENTED_EDGE('',*,*,#159,.F.);
#193=ORIENTED_EDGE('',*,*,#158,.F.);
#194=ORIENTED_EDGE('',*,*,#160,.F.);
#195=ORIENTED_EDGE('',*,*,#161,.T.);
#196=ORIENTED_EDGE('',*,*,#162,.F.);
#197=ORIENTED_EDGE('',*,*,#161,.F.);
#198=ORIENTED_EDGE('',*,*,#163,.T.);
#199=ORIENTED_EDGE('',*,*,#164,.T.);
#200=ORIENTED_EDGE('',*,*,#165,.F.);
#201=ORIENTED_EDGE('',*,*,#166,.F.);
#202=ORIENTED_EDGE('',*,*,#167,.T.);
#203=ORIENTED_EDGE('',*,*,#166,.T.);
#204=ORIENTED_EDGE('',*,*,#168,.F.);
#205=ORIENTED_EDGE('',*,*,#169,.F.);
#206=ORIENTED_EDGE('',*,*,#170,.T.);
#207=ORIENTED_EDGE('',*,*,#169,.T.);
#208=ORIENTED_EDGE('',*,*,#171,.F.);
#209=ORIENTED_EDGE('',*,*,#172,.F.);
#210=ORIENTED_EDGE('',*,*,#173,.T.);
#211=ORIENTED_EDGE('',*,*,#172,.T.);
#212=ORIENTED_EDGE('',*,*,#174,.F.);
#213=ORIENTED_EDGE('',*,*,#164,.F.);
#214=ORIENTED_EDGE('',*,*,#174,.T.);
#215=ORIENTED_EDGE('',*,*,#171,.T.);
#216=ORIENTED_EDGE('',*,*,#168,.T.);
#217=ORIENTED_EDGE('',*,*,#165,.T.);
#218=ORIENTED_EDGE('',*,*,#159,.T.);
#219=ORIENTED_EDGE('',*,*,#162,.T.);
#220=ORIENTED_EDGE('',*,*,#173,.F.);
#221=ORIENTED_EDGE('',*,*,#163,.F.);
#222=ORIENTED_EDGE('',*,*,#167,.F.);
#223=ORIENTED_EDGE('',*,*,#170,.F.);
#224=ORIENTED_EDGE('',*,*,#157,.T.);
#225=ORIENTED_EDGE('',*,*,#160,.T.);
#226=ORIENTED_EDGE('',*,*,#175,.F.);
#227=ORIENTED_EDGE('',*,*,#176,.T.);
#228=ORIENTED_EDGE('',*,*,#177,.T.);
#229=ORIENTED_EDGE('',*,*,#176,.F.);
#230=ORIENTED_EDGE('',*,*,#175,.T.);
#231=ORIENTED_EDGE('',*,*,#177,.F.);
#232=ORIENTED_EDGE('',*,*,#178,.T.);
#233=ORIENTED_EDGE('',*,*,#179,.T.);
#234=ORIENTED_EDGE('',*,*,#180,.T.);
#235=ORIENTED_EDGE('',*,*,#181,.T.);
#236=ORIENTED_EDGE('',*,*,#182,.T.);
#237=ORIENTED_EDGE('',*,*,#183,.T.);
#238=ORIENTED_EDGE('',*,*,#184,.T.);
#239=ORIENTED_EDGE('',*,*,#185,.T.);
#240=ORIENTED_EDGE('',*,*,#186,.T.);
#241=ORIENTED_EDGE('',*,*,#183,.F.);
#242=ORIENTED_EDGE('',*,*,#187,.F.);
#243=ORIENTED_EDGE('',*,*,#181,.F.);
#244=ORIENTED_EDGE('',*,*,#188,.T.);
#245=ORIENTED_EDGE('',*,*,#184,.F.);
#246=ORIENTED_EDGE('',*,*,#186,.F.);
#247=ORIENTED_EDGE('',*,*,#180,.F.);
#248=ORIENTED_EDGE('',*,*,#189,.T.);
#249=ORIENTED_EDGE('',*,*,#185,.F.);
#250=ORIENTED_EDGE('',*,*,#188,.F.);
#251=ORIENTED_EDGE('',*,*,#179,.F.);
#252=ORIENTED_EDGE('',*,*,#187,.T.);
#253=ORIENTED_EDGE('',*,*,#182,.F.);
#254=ORIENTED_EDGE('',*,*,#189,.F.);
#255=ORIENTED_EDGE('',*,*,#178,.F.);
#256=CYLINDRICAL_SURFACE('',#292,2.2);
#257=CYLINDRICAL_SURFACE('',#295,2.2);
#258=CYLINDRICAL_SURFACE('',#304,4.75);
#259=ADVANCED_FACE('',(#37),#256,.F.);
#260=ADVANCED_FACE('',(#38),#257,.F.);
#261=ADVANCED_FACE('',(#39),#23,.T.);
#262=ADVANCED_FACE('',(#40),#24,.T.);
#263=ADVANCED_FACE('',(#41),#25,.T.);
#264=ADVANCED_FACE('',(#42),#26,.T.);
#265=ADVANCED_FACE('',(#43,#19,#20),#27,.T.);
#266=ADVANCED_FACE('',(#44,#21,#22),#28,.F.);
#267=ADVANCED_FACE('',(#45),#258,.T.);
#268=ADVANCED_FACE('',(#46),#29,.T.);
#269=ADVANCED_FACE('',(#47),#30,.F.);
#270=ADVANCED_FACE('',(#48),#31,.T.);
#271=ADVANCED_FACE('',(#49),#32,.F.);
#272=ADVANCED_FACE('',(#50),#33,.F.);
#273=ADVANCED_FACE('',(#51),#34,.F.);
#274=ADVANCED_FACE('',(#52),#35,.F.);
#275=ADVANCED_FACE('',(#53),#36,.F.);
#276=CLOSED_SHELL('',(#259,#260,#261,#262,#263,#264,#265,#266));
#277=CLOSED_SHELL('',(#267,#268,#269));
#278=CLOSED_SHELL('',(#270,#271,#272,#273,#274,#275));
#279=DERIVED_UNIT_ELEMENT(#281,1.);
#280=DERIVED_UNIT_ELEMENT(#468,-3.);
#281=(
MASS_UNIT()
NAMED_UNIT(*)
SI_UNIT(.KILO.,.GRAM.)
);
#282=DERIVED_UNIT((#279,#280));
#283=MEASURE_REPRESENTATION_ITEM('density measure',
POSITIVE_RATIO_MEASURE(7850.),#282);
#284=PROPERTY_DEFINITION_REPRESENTATION(#289,#286);
#285=PROPERTY_DEFINITION_REPRESENTATION(#290,#287);
#286=REPRESENTATION('material name',(#288),#465);
#287=REPRESENTATION('density',(#283),#465);
#288=DESCRIPTIVE_REPRESENTATION_ITEM('Steel','Steel');
#289=PROPERTY_DEFINITION('material property','material name',#475);
#290=PROPERTY_DEFINITION('material property','density of part',#475);
#291=AXIS2_PLACEMENT_3D('',#390,#315,#316);
#292=AXIS2_PLACEMENT_3D('',#391,#317,#318);
#293=AXIS2_PLACEMENT_3D('',#393,#319,#320);
#294=AXIS2_PLACEMENT_3D('',#396,#322,#323);
#295=AXIS2_PLACEMENT_3D('',#397,#324,#325);
#296=AXIS2_PLACEMENT_3D('',#399,#326,#327);
#297=AXIS2_PLACEMENT_3D('',#402,#329,#330);
#298=AXIS2_PLACEMENT_3D('',#403,#331,#332);
#299=AXIS2_PLACEMENT_3D('',#412,#337,#338);
#300=AXIS2_PLACEMENT_3D('',#418,#342,#343);
#301=AXIS2_PLACEMENT_3D('',#424,#347,#348);
#302=AXIS2_PLACEMENT_3D('',#427,#351,#352);
#303=AXIS2_PLACEMENT_3D('',#428,#353,#354);
#304=AXIS2_PLACEMENT_3D('',#429,#355,#356);
#305=AXIS2_PLACEMENT_3D('',#431,#357,#358);
#306=AXIS2_PLACEMENT_3D('',#434,#360,#361);
#307=AXIS2_PLACEMENT_3D('',#435,#362,#363);
#308=AXIS2_PLACEMENT_3D('',#436,#364,#365);
#309=AXIS2_PLACEMENT_3D('',#437,#366,#367);
#310=AXIS2_PLACEMENT_3D('',#446,#372,#373);
#311=AXIS2_PLACEMENT_3D('',#455,#378,#379);
#312=AXIS2_PLACEMENT_3D('',#458,#382,#383);
#313=AXIS2_PLACEMENT_3D('',#460,#385,#386);
#314=AXIS2_PLACEMENT_3D('',#462,#388,#389);
#315=DIRECTION('axis',(0.,0.,1.));
#316=DIRECTION('refdir',(1.,0.,0.));
#317=DIRECTION('center_axis',(4.02158212363673E-16,-0.984807753012208,0.17364817766693));
#318=DIRECTION('ref_axis',(1.,3.89938838582877E-16,-1.04483796895812E-16));
#319=DIRECTION('center_axis',(4.02158212363673E-16,-0.984807753012208,0.17364817766693));
#320=DIRECTION('ref_axis',(1.,3.89938838582877E-16,-1.04483796895812E-16));
#321=DIRECTION('',(4.02158212363673E-16,-0.984807753012208,0.17364817766693));
#322=DIRECTION('center_axis',(-4.02158212363673E-16,0.984807753012208,-0.17364817766693));
#323=DIRECTION('ref_axis',(1.,3.89938838582877E-16,-1.04483796895812E-16));
#324=DIRECTION('center_axis',(4.02158212363673E-16,-0.984807753012208,0.17364817766693));
#325=DIRECTION('ref_axis',(1.,3.89938838582877E-16,-1.04483796895812E-16));
#326=DIRECTION('center_axis',(4.02158212363673E-16,-0.984807753012208,0.17364817766693));
#327=DIRECTION('ref_axis',(1.,3.89938838582877E-16,-1.04483796895812E-16));
#328=DIRECTION('',(4.02158212363673E-16,-0.984807753012208,0.17364817766693));
#329=DIRECTION('center_axis',(-4.02158212363673E-16,0.984807753012208,-0.17364817766693));
#330=DIRECTION('ref_axis',(1.,3.89938838582877E-16,-1.04483796895812E-16));
#331=DIRECTION('center_axis',(3.51842845256725E-17,0.17364817766693,0.984807753012208));
#332=DIRECTION('ref_axis',(-1.,-3.89938838582877E-16,1.04483796895812E-16));
#333=DIRECTION('',(-1.,-3.89938838582877E-16,1.04483796895812E-16));
#334=DIRECTION('',(4.02158212363673E-16,-0.984807753012208,0.17364817766693));
#335=DIRECTION('',(-1.,-3.89938838582877E-16,1.04483796895812E-16));
#336=DIRECTION('',(4.02158212363673E-16,-0.984807753012208,0.17364817766693));
#337=DIRECTION('center_axis',(1.,3.89938838582877E-16,-1.04483796895812E-16));
#338=DIRECTION('ref_axis',(3.51842845256725E-17,0.17364817766693,0.984807753012208));
#339=DIRECTION('',(3.51842845256725E-17,0.17364817766693,0.984807753012208));
#340=DIRECTION('',(3.51842845256725E-17,0.17364817766693,0.984807753012208));
#341=DIRECTION('',(4.02158212363673E-16,-0.984807753012208,0.17364817766693));
#342=DIRECTION('center_axis',(-3.51842845256725E-17,-0.17364817766693,-0.984807753012208));
#343=DIRECTION('ref_axis',(1.,3.89938838582877E-16,-1.04483796895812E-16));
#344=DIRECTION('',(1.,3.89938838582877E-16,-1.04483796895812E-16));
#345=DIRECTION('',(1.,3.89938838582877E-16,-1.04483796895812E-16));
#346=DIRECTION('',(4.02158212363673E-16,-0.984807753012208,0.17364817766693));
#347=DIRECTION('center_axis',(-1.,-3.89938838582877E-16,1.04483796895812E-16));
#348=DIRECTION('ref_axis',(-3.51842845256725E-17,-0.17364817766693,-0.984807753012208));
#349=DIRECTION('',(-3.51842845256725E-17,-0.17364817766693,-0.984807753012208));
#350=DIRECTION('',(-3.51842845256725E-17,-0.17364817766693,-0.984807753012208));
#351=DIRECTION('center_axis',(4.02158212363673E-16,-0.984807753012208,0.17364817766693));
#352=DIRECTION('ref_axis',(1.,3.89938838582877E-16,-1.04483796895812E-16));
#353=DIRECTION('center_axis',(4.02158212363673E-16,-0.984807753012208,0.17364817766693));
#354=DIRECTION('ref_axis',(1.,3.89938838582877E-16,-1.04483796895812E-16));
#355=DIRECTION('center_axis',(4.02158212363673E-16,-0.984807753012208,0.17364817766693));
#356=DIRECTION('ref_axis',(1.,3.89938838582877E-16,-1.04483796895812E-16));
#357=DIRECTION('center_axis',(4.02158212363673E-16,-0.984807753012208,0.17364817766693));
#358=DIRECTION('ref_axis',(1.,3.89938838582877E-16,-1.04483796895812E-16));
#359=DIRECTION('',(-4.02158212363673E-16,0.984807753012208,-0.17364817766693));
#360=DIRECTION('center_axis',(4.02158212363673E-16,-0.984807753012208,0.17364817766693));
#361=DIRECTION('ref_axis',(1.,3.89938838582877E-16,-1.04483796895812E-16));
#362=DIRECTION('center_axis',(4.02158212363673E-16,-0.984807753012208,0.17364817766693));
#363=DIRECTION('ref_axis',(1.,3.89938838582877E-16,-1.04483796895812E-16));
#364=DIRECTION('center_axis',(4.02158212363673E-16,-0.984807753012208,0.17364817766693));
#365=DIRECTION('ref_axis',(1.,3.89938838582877E-16,-1.04483796895812E-16));
#366=DIRECTION('center_axis',(4.02158212363673E-16,-0.984807753012208,0.17364817766693));
#367=DIRECTION('ref_axis',(1.,3.89938838582877E-16,-1.04483796895812E-16));
#368=DIRECTION('',(3.51842845256725E-17,0.17364817766693,0.984807753012208));
#369=DIRECTION('',(-1.,-3.89938838582877E-16,1.04483796895812E-16));
#370=DIRECTION('',(-3.51842845256725E-17,-0.17364817766693,-0.984807753012208));
#371=DIRECTION('',(1.,3.89938838582877E-16,-1.04483796895812E-16));
#372=DIRECTION('center_axis',(4.02158212363673E-16,-0.984807753012208,0.17364817766693));
#373=DIRECTION('ref_axis',(1.,3.89938838582877E-16,-1.04483796895812E-16));
#374=DIRECTION('',(-3.51842845256725E-17,-0.17364817766693,-0.984807753012208));
#375=DIRECTION('',(-1.,-3.89938838582877E-16,1.04483796895812E-16));
#376=DIRECTION('',(3.51842845256725E-17,0.17364817766693,0.984807753012208));
#377=DIRECTION('',(1.,3.89938838582877E-16,-1.04483796895812E-16));
#378=DIRECTION('center_axis',(3.51842845256725E-17,0.17364817766693,0.984807753012208));
#379=DIRECTION('ref_axis',(4.02158212363673E-16,-0.984807753012208,0.17364817766693));
#380=DIRECTION('',(-4.02158212363673E-16,0.984807753012208,-0.17364817766693));
#381=DIRECTION('',(-4.02158212363673E-16,0.984807753012208,-0.17364817766693));
#382=DIRECTION('center_axis',(1.,3.89938838582877E-16,-1.04483796895812E-16));
#383=DIRECTION('ref_axis',(-4.02158212363673E-16,0.984807753012208,-0.17364817766693));
#384=DIRECTION('',(-4.02158212363673E-16,0.984807753012208,-0.17364817766693));
#385=DIRECTION('center_axis',(-3.51842845256725E-17,-0.17364817766693,-0.984807753012208));
#386=DIRECTION('ref_axis',(-4.02158212363673E-16,0.984807753012208,-0.17364817766693));
#387=DIRECTION('',(-4.02158212363673E-16,0.984807753012208,-0.17364817766693));
#388=DIRECTION('center_axis',(-1.,-3.89938838582877E-16,1.04483796895812E-16));
#389=DIRECTION('ref_axis',(4.02158212363673E-16,-0.984807753012208,0.17364817766693));
#390=CARTESIAN_POINT('',(0.,0.,0.));
#391=CARTESIAN_POINT('Origin',(2.8,-26.9276182528753,75.8837220271754));
#392=CARTESIAN_POINT('',(0.599999999999997,-26.9276182528753,75.8837220271754));
#393=CARTESIAN_POINT('Origin',(2.8,-26.9276182528753,75.8837220271754));
#394=CARTESIAN_POINT('',(0.599999999999997,-28.5033106576948,76.1615591114425));
#395=CARTESIAN_POINT('',(0.599999999999997,-26.9276182528753,75.8837220271754));
#396=CARTESIAN_POINT('Origin',(2.8,-28.5033106576948,76.1615591114425));
#397=CARTESIAN_POINT('Origin',(40.9,-26.9276182528752,75.8837220271754));
#398=CARTESIAN_POINT('',(38.7,-26.9276182528752,75.8837220271754));
#399=CARTESIAN_POINT('Origin',(40.9,-26.9276182528752,75.8837220271754));
#400=CARTESIAN_POINT('',(38.7,-28.5033106576948,76.1615591114425));
#401=CARTESIAN_POINT('',(38.7,-26.9276182528752,75.8837220271754));
#402=CARTESIAN_POINT('Origin',(40.9,-28.5033106576948,76.1615591114425));
#403=CARTESIAN_POINT('Origin',(43.7,-26.4414033554078,78.6411837356096));
#404=CARTESIAN_POINT('',(43.7,-26.4414033554078,78.6411837356096));
#405=CARTESIAN_POINT('',(-3.62109826905246E-15,-26.4414033554078,78.6411837356096));
#406=CARTESIAN_POINT('',(43.7,-26.4414033554078,78.6411837356096));
#407=CARTESIAN_POINT('',(-2.97764512927058E-15,-28.0170957602274,78.9190208198766));
#408=CARTESIAN_POINT('',(-3.62109826905246E-15,-26.4414033554078,78.6411837356096));
#409=CARTESIAN_POINT('',(43.7,-28.0170957602274,78.9190208198766));
#410=CARTESIAN_POINT('',(43.7,-28.0170957602274,78.9190208198766));
#411=CARTESIAN_POINT('',(43.7,-26.4414033554078,78.6411837356096));
#412=CARTESIAN_POINT('Origin',(43.7,-30.4874058950473,55.6951630904251));
#413=CARTESIAN_POINT('',(43.7,-30.4874058950473,55.6951630904251));
#414=CARTESIAN_POINT('',(43.7,-30.4874058950473,55.6951630904251));
#415=CARTESIAN_POINT('',(43.7,-32.0630982998668,55.9730001746922));
#416=CARTESIAN_POINT('',(43.7,-32.0630982998668,55.9730001746922));
#417=CARTESIAN_POINT('',(43.7,-30.4874058950473,55.6951630904251));
#418=CARTESIAN_POINT('Origin',(-4.44089209850063E-15,-30.4874058950473,
55.6951630904251));
#419=CARTESIAN_POINT('',(-4.44089209850063E-15,-30.4874058950473,55.6951630904251));
#420=CARTESIAN_POINT('',(-4.44089209850063E-15,-30.4874058950473,55.6951630904251));
#421=CARTESIAN_POINT('',(-3.79743895871875E-15,-32.0630982998669,55.9730001746922));
#422=CARTESIAN_POINT('',(-3.79743895871875E-15,-32.0630982998669,55.9730001746922));
#423=CARTESIAN_POINT('',(-4.44089209850063E-15,-30.4874058950473,55.6951630904251));
#424=CARTESIAN_POINT('Origin',(-3.62109826905246E-15,-26.4414033554078,
78.6411837356096));
#425=CARTESIAN_POINT('',(-3.62109826905246E-15,-26.4414033554078,78.6411837356096));
#426=CARTESIAN_POINT('',(-2.97764512927058E-15,-28.0170957602274,78.9190208198766));
#427=CARTESIAN_POINT('Origin',(21.85,-30.0400970300471,67.4460104972844));
#428=CARTESIAN_POINT('Origin',(21.85,-28.4644046252276,67.1681734130173));
#429=CARTESIAN_POINT('Origin',(4.75,-30.0400970300471,67.4460104972844));
#430=CARTESIAN_POINT('',(-1.69847755206724E-15,-34.1762895926984,68.1753328434855));
#431=CARTESIAN_POINT('Origin',(4.75,-34.1762895926984,68.1753328434855));
#432=CARTESIAN_POINT('',(-3.38754204399466E-15,-30.0400970300471,67.4460104972844));
#433=CARTESIAN_POINT('',(-3.33066907387547E-15,-30.0400970300471,67.4460104972844));
#434=CARTESIAN_POINT('Origin',(4.75,-30.0400970300471,67.4460104972844));
#435=CARTESIAN_POINT('Origin',(4.75,-34.1762895926984,68.1753328434855));
#436=CARTESIAN_POINT('Origin',(4.75,-30.0400970300471,67.4460104972844));
#437=CARTESIAN_POINT('Origin',(35.4,-29.0461260204118,63.8690674404264));
#438=CARTESIAN_POINT('',(36.65,-30.1748391752468,57.4678170458471));
#439=CARTESIAN_POINT('',(36.65,-27.9174128655767,70.2703178350058));
#440=CARTESIAN_POINT('',(36.65,-29.0461260204118,63.8690674404264));
#441=CARTESIAN_POINT('',(34.15,-27.9174128655767,70.2703178350058));
#442=CARTESIAN_POINT('',(35.4,-27.9174128655767,70.2703178350058));
#443=CARTESIAN_POINT('',(34.15,-30.1748391752468,57.4678170458471));
#444=CARTESIAN_POINT('',(34.15,-29.0461260204118,63.8690674404264));
#445=CARTESIAN_POINT('',(35.4,-30.1748391752468,57.4678170458471));
#446=CARTESIAN_POINT('Origin',(35.4,-20.1828562433019,62.3062338414241));
#447=CARTESIAN_POINT('',(36.65,-19.0541430884669,68.7074842360034));
#448=CARTESIAN_POINT('',(36.65,-21.311569398137,55.9049834468447));
#449=CARTESIAN_POINT('',(36.65,-20.1828562433019,62.3062338414241));
#450=CARTESIAN_POINT('',(34.15,-21.311569398137,55.9049834468447));
#451=CARTESIAN_POINT('',(35.4,-21.311569398137,55.9049834468447));
#452=CARTESIAN_POINT('',(34.15,-19.0541430884669,68.7074842360034));
#453=CARTESIAN_POINT('',(34.15,-20.1828562433019,62.3062338414241));
#454=CARTESIAN_POINT('',(35.4,-19.0541430884669,68.7074842360034));
#455=CARTESIAN_POINT('Origin',(35.4,-25.7432042866919,56.6864002463459));
#456=CARTESIAN_POINT('',(34.15,-25.7432042866919,56.6864002463459));
#457=CARTESIAN_POINT('',(36.65,-25.7432042866919,56.6864002463459));
#458=CARTESIAN_POINT('Origin',(34.15,-24.6144911318569,63.0876506409252));
#459=CARTESIAN_POINT('',(34.15,-23.4857779770218,69.4889010355046));
#460=CARTESIAN_POINT('Origin',(35.4,-23.4857779770218,69.4889010355046));
#461=CARTESIAN_POINT('',(36.65,-23.4857779770218,69.4889010355046));
#462=CARTESIAN_POINT('Origin',(36.65,-24.6144911318569,63.0876506409252));
#463=UNCERTAINTY_MEASURE_WITH_UNIT(LENGTH_MEASURE(0.01),#467,
'DISTANCE_ACCURACY_VALUE',
'Maximum model space distance between geometric entities at asserted c
onnectivities');
#464=UNCERTAINTY_MEASURE_WITH_UNIT(LENGTH_MEASURE(0.01),#467,
'DISTANCE_ACCURACY_VALUE',
'Maximum model space distance between geometric entities at asserted c
onnectivities');
#465=(
GEOMETRIC_REPRESENTATION_CONTEXT(3)
GLOBAL_UNCERTAINTY_ASSIGNED_CONTEXT((#463))
GLOBAL_UNIT_ASSIGNED_CONTEXT((#467,#469,#470))
REPRESENTATION_CONTEXT('','3D')
);
#466=(
GEOMETRIC_REPRESENTATION_CONTEXT(3)
GLOBAL_UNCERTAINTY_ASSIGNED_CONTEXT((#464))
GLOBAL_UNIT_ASSIGNED_CONTEXT((#467,#469,#470))
REPRESENTATION_CONTEXT('','3D')
);
#467=(
LENGTH_UNIT()
NAMED_UNIT(*)
SI_UNIT(.MILLI.,.METRE.)
);
#468=(
LENGTH_UNIT()
NAMED_UNIT(*)
SI_UNIT($,.METRE.)
);
#469=(
NAMED_UNIT(*)
PLANE_ANGLE_UNIT()
SI_UNIT($,.RADIAN.)
);
#470=(
NAMED_UNIT(*)
SI_UNIT($,.STERADIAN.)
SOLID_ANGLE_UNIT()
);
#471=SHAPE_DEFINITION_REPRESENTATION(#472,#473);
#472=PRODUCT_DEFINITION_SHAPE('',$,#475);
#473=SHAPE_REPRESENTATION('',(#291),#465);
#474=PRODUCT_DEFINITION_CONTEXT('part definition',#479,'design');
#475=PRODUCT_DEFINITION('(Unsaved)','(Unsaved)',#476,#474);
#476=PRODUCT_DEFINITION_FORMATION('',$,#481);
#477=PRODUCT_RELATED_PRODUCT_CATEGORY('(Unsaved)','(Unsaved)',(#481));
#478=APPLICATION_PROTOCOL_DEFINITION('international standard',
'automotive_design',2009,#479);
#479=APPLICATION_CONTEXT(
'Core Data for Automotive Mechanical Design Process');
#480=PRODUCT_CONTEXT('part definition',#479,'mechanical');
#481=PRODUCT('(Unsaved)','(Unsaved)',$,(#480));
#482=PRESENTATION_STYLE_ASSIGNMENT((#483));
#483=SURFACE_STYLE_USAGE(.BOTH.,#484);
#484=SURFACE_SIDE_STYLE('',(#485));
#485=SURFACE_STYLE_FILL_AREA(#486);
#486=FILL_AREA_STYLE('Steel - Satin',(#487));
#487=FILL_AREA_STYLE_COLOUR('Steel - Satin',#488);
#488=COLOUR_RGB('Steel - Satin',0.627450980392157,0.627450980392157,0.627450980392157);
ENDSEC;
END-ISO-10303-21;
