ISO-10303-21;
HEADER;
/* Generated by software containing ST-Developer
 * from STEP Tools, Inc. (www.steptools.com) 
 */

FILE_DESCRIPTION(
/* description */ (''),
/* implementation_level */ '2;1');

FILE_NAME(
/* name */ 'reference-dc-panel-jack.step',
/* time_stamp */ '2026-09-11T16:58:05-07:00',
/* author */ (''),
/* organization */ (''),
/* preprocessor_version */ 'ST-DEVELOPER v20.2',
/* originating_system */ 'Autodesk Translation Framework v15.15.0.0',
/* authorisation */ '');

FILE_SCHEMA (('AUTOMOTIVE_DESIGN { 1 0 10303 214 3 1 1 }'));
ENDSEC;

DATA;
#10=MECHANICAL_DESIGN_GEOMETRIC_PRESENTATION_REPRESENTATION('',(#13,#14,
#15,#16),#410);
#11=SHAPE_REPRESENTATION_RELATIONSHIP('SRR','None',#417,#12);
#12=ADVANCED_BREP_SHAPE_REPRESENTATION('',(#17,#18,#19,#20),#409);
#13=STYLED_ITEM('',(#426),#17);
#14=STYLED_ITEM('',(#426),#18);
#15=STYLED_ITEM('',(#426),#19);
#16=STYLED_ITEM('',(#426),#20);
#17=MANIFOLD_SOLID_BREP('reference-dc-panel-jack 1',#223);
#18=MANIFOLD_SOLID_BREP('reference-dc-panel-jack 2',#224);
#19=MANIFOLD_SOLID_BREP('reference-dc-panel-jack 3',#225);
#20=MANIFOLD_SOLID_BREP('reference-dc-panel-jack 4',#226);
#21=FACE_BOUND('',#57,.T.);
#22=FACE_BOUND('',#59,.T.);
#23=FACE_BOUND('',#66,.T.);
#24=FACE_BOUND('',#69,.T.);
#25=FACE_BOUND('',#71,.T.);
#26=FACE_BOUND('',#75,.T.);
#27=FACE_BOUND('',#77,.T.);
#28=PLANE('',#246);
#29=PLANE('',#247);
#30=PLANE('',#251);
#31=PLANE('',#252);
#32=PLANE('',#259);
#33=PLANE('',#263);
#34=PLANE('',#264);
#35=PLANE('',#271);
#36=PLANE('',#272);
#37=FACE_OUTER_BOUND('',#54,.T.);
#38=FACE_OUTER_BOUND('',#55,.T.);
#39=FACE_OUTER_BOUND('',#56,.T.);
#40=FACE_OUTER_BOUND('',#58,.T.);
#41=FACE_OUTER_BOUND('',#60,.T.);
#42=FACE_OUTER_BOUND('',#61,.T.);
#43=FACE_OUTER_BOUND('',#62,.T.);
#44=FACE_OUTER_BOUND('',#63,.T.);
#45=FACE_OUTER_BOUND('',#64,.T.);
#46=FACE_OUTER_BOUND('',#65,.T.);
#47=FACE_OUTER_BOUND('',#67,.T.);
#48=FACE_OUTER_BOUND('',#68,.T.);
#49=FACE_OUTER_BOUND('',#70,.T.);
#50=FACE_OUTER_BOUND('',#72,.T.);
#51=FACE_OUTER_BOUND('',#73,.T.);
#52=FACE_OUTER_BOUND('',#74,.T.);
#53=FACE_OUTER_BOUND('',#76,.T.);
#54=EDGE_LOOP('',(#150,#151,#152,#153));
#55=EDGE_LOOP('',(#154,#155,#156,#157));
#56=EDGE_LOOP('',(#158));
#57=EDGE_LOOP('',(#159));
#58=EDGE_LOOP('',(#160));
#59=EDGE_LOOP('',(#161));
#60=EDGE_LOOP('',(#162,#163,#164,#165));
#61=EDGE_LOOP('',(#166));
#62=EDGE_LOOP('',(#167));
#63=EDGE_LOOP('',(#168,#169,#170,#171));
#64=EDGE_LOOP('',(#172,#173,#174,#175));
#65=EDGE_LOOP('',(#176));
#66=EDGE_LOOP('',(#177));
#67=EDGE_LOOP('',(#178,#179,#180,#181));
#68=EDGE_LOOP('',(#182));
#69=EDGE_LOOP('',(#183));
#70=EDGE_LOOP('',(#184));
#71=EDGE_LOOP('',(#185));
#72=EDGE_LOOP('',(#186,#187,#188,#189));
#73=EDGE_LOOP('',(#190,#191,#192,#193));
#74=EDGE_LOOP('',(#194));
#75=EDGE_LOOP('',(#195));
#76=EDGE_LOOP('',(#196));
#77=EDGE_LOOP('',(#197));
#78=LINE('',#354,#86);
#79=LINE('',#360,#87);
#80=LINE('',#368,#88);
#81=LINE('',#376,#89);
#82=LINE('',#382,#90);
#83=LINE('',#389,#91);
#84=LINE('',#397,#92);
#85=LINE('',#403,#93);
#86=VECTOR('',#279,2.1);
#87=VECTOR('',#286,4.6);
#88=VECTOR('',#297,1.05);
#89=VECTOR('',#308,5.4);
#90=VECTOR('',#315,2.75);
#91=VECTOR('',#324,7.5);
#92=VECTOR('',#335,5.5);
#93=VECTOR('',#342,7.75);
#94=CIRCLE('',#241,2.1);
#95=CIRCLE('',#242,2.1);
#96=CIRCLE('',#244,4.6);
#97=CIRCLE('',#245,4.6);
#98=CIRCLE('',#249,1.05);
#99=CIRCLE('',#250,1.05);
#100=CIRCLE('',#254,5.4);
#101=CIRCLE('',#255,5.4);
#102=CIRCLE('',#257,2.75);
#103=CIRCLE('',#258,2.75);
#104=CIRCLE('',#261,7.5);
#105=CIRCLE('',#262,7.5);
#106=CIRCLE('',#266,5.5);
#107=CIRCLE('',#267,5.5);
#108=CIRCLE('',#269,7.75);
#109=CIRCLE('',#270,7.75);
#110=VERTEX_POINT('',#351);
#111=VERTEX_POINT('',#353);
#112=VERTEX_POINT('',#357);
#113=VERTEX_POINT('',#359);
#114=VERTEX_POINT('',#365);
#115=VERTEX_POINT('',#367);
#116=VERTEX_POINT('',#373);
#117=VERTEX_POINT('',#375);
#118=VERTEX_POINT('',#379);
#119=VERTEX_POINT('',#381);
#120=VERTEX_POINT('',#386);
#121=VERTEX_POINT('',#388);
#122=VERTEX_POINT('',#394);
#123=VERTEX_POINT('',#396);
#124=VERTEX_POINT('',#400);
#125=VERTEX_POINT('',#402);
#126=EDGE_CURVE('',#110,#110,#94,.T.);
#127=EDGE_CURVE('',#110,#111,#78,.T.);
#128=EDGE_CURVE('',#111,#111,#95,.T.);
#129=EDGE_CURVE('',#112,#112,#96,.T.);
#130=EDGE_CURVE('',#112,#113,#79,.T.);
#131=EDGE_CURVE('',#113,#113,#97,.T.);
#132=EDGE_CURVE('',#114,#114,#98,.T.);
#133=EDGE_CURVE('',#114,#115,#80,.T.);
#134=EDGE_CURVE('',#115,#115,#99,.T.);
#135=EDGE_CURVE('',#116,#116,#100,.T.);
#136=EDGE_CURVE('',#116,#117,#81,.T.);
#137=EDGE_CURVE('',#117,#117,#101,.T.);
#138=EDGE_CURVE('',#118,#118,#102,.T.);
#139=EDGE_CURVE('',#118,#119,#82,.T.);
#140=EDGE_CURVE('',#119,#119,#103,.T.);
#141=EDGE_CURVE('',#120,#120,#104,.T.);
#142=EDGE_CURVE('',#120,#121,#83,.T.);
#143=EDGE_CURVE('',#121,#121,#105,.T.);
#144=EDGE_CURVE('',#122,#122,#106,.T.);
#145=EDGE_CURVE('',#122,#123,#84,.T.);
#146=EDGE_CURVE('',#123,#123,#107,.T.);
#147=EDGE_CURVE('',#124,#124,#108,.T.);
#148=EDGE_CURVE('',#124,#125,#85,.T.);
#149=EDGE_CURVE('',#125,#125,#109,.T.);
#150=ORIENTED_EDGE('',*,*,#126,.F.);
#151=ORIENTED_EDGE('',*,*,#127,.T.);
#152=ORIENTED_EDGE('',*,*,#128,.F.);
#153=ORIENTED_EDGE('',*,*,#127,.F.);
#154=ORIENTED_EDGE('',*,*,#129,.F.);
#155=ORIENTED_EDGE('',*,*,#130,.T.);
#156=ORIENTED_EDGE('',*,*,#131,.F.);
#157=ORIENTED_EDGE('',*,*,#130,.F.);
#158=ORIENTED_EDGE('',*,*,#131,.T.);
#159=ORIENTED_EDGE('',*,*,#126,.T.);
#160=ORIENTED_EDGE('',*,*,#129,.T.);
#161=ORIENTED_EDGE('',*,*,#128,.T.);
#162=ORIENTED_EDGE('',*,*,#132,.F.);
#163=ORIENTED_EDGE('',*,*,#133,.T.);
#164=ORIENTED_EDGE('',*,*,#134,.F.);
#165=ORIENTED_EDGE('',*,*,#133,.F.);
#166=ORIENTED_EDGE('',*,*,#134,.T.);
#167=ORIENTED_EDGE('',*,*,#132,.T.);
#168=ORIENTED_EDGE('',*,*,#135,.F.);
#169=ORIENTED_EDGE('',*,*,#136,.T.);
#170=ORIENTED_EDGE('',*,*,#137,.T.);
#171=ORIENTED_EDGE('',*,*,#136,.F.);
#172=ORIENTED_EDGE('',*,*,#138,.F.);
#173=ORIENTED_EDGE('',*,*,#139,.T.);
#174=ORIENTED_EDGE('',*,*,#140,.F.);
#175=ORIENTED_EDGE('',*,*,#139,.F.);
#176=ORIENTED_EDGE('',*,*,#135,.T.);
#177=ORIENTED_EDGE('',*,*,#140,.T.);
#178=ORIENTED_EDGE('',*,*,#141,.F.);
#179=ORIENTED_EDGE('',*,*,#142,.T.);
#180=ORIENTED_EDGE('',*,*,#143,.F.);
#181=ORIENTED_EDGE('',*,*,#142,.F.);
#182=ORIENTED_EDGE('',*,*,#143,.T.);
#183=ORIENTED_EDGE('',*,*,#138,.T.);
#184=ORIENTED_EDGE('',*,*,#141,.T.);
#185=ORIENTED_EDGE('',*,*,#137,.F.);
#186=ORIENTED_EDGE('',*,*,#144,.F.);
#187=ORIENTED_EDGE('',*,*,#145,.T.);
#188=ORIENTED_EDGE('',*,*,#146,.F.);
#189=ORIENTED_EDGE('',*,*,#145,.F.);
#190=ORIENTED_EDGE('',*,*,#147,.F.);
#191=ORIENTED_EDGE('',*,*,#148,.T.);
#192=ORIENTED_EDGE('',*,*,#149,.F.);
#193=ORIENTED_EDGE('',*,*,#148,.F.);
#194=ORIENTED_EDGE('',*,*,#149,.T.);
#195=ORIENTED_EDGE('',*,*,#144,.T.);
#196=ORIENTED_EDGE('',*,*,#147,.T.);
#197=ORIENTED_EDGE('',*,*,#146,.T.);
#198=CYLINDRICAL_SURFACE('',#240,2.1);
#199=CYLINDRICAL_SURFACE('',#243,4.6);
#200=CYLINDRICAL_SURFACE('',#248,1.05);
#201=CYLINDRICAL_SURFACE('',#253,5.4);
#202=CYLINDRICAL_SURFACE('',#256,2.75);
#203=CYLINDRICAL_SURFACE('',#260,7.5);
#204=CYLINDRICAL_SURFACE('',#265,5.5);
#205=CYLINDRICAL_SURFACE('',#268,7.75);
#206=ADVANCED_FACE('',(#37),#198,.F.);
#207=ADVANCED_FACE('',(#38),#199,.T.);
#208=ADVANCED_FACE('',(#39,#21),#28,.T.);
#209=ADVANCED_FACE('',(#40,#22),#29,.T.);
#210=ADVANCED_FACE('',(#41),#200,.T.);
#211=ADVANCED_FACE('',(#42),#30,.T.);
#212=ADVANCED_FACE('',(#43),#31,.T.);
#213=ADVANCED_FACE('',(#44),#201,.T.);
#214=ADVANCED_FACE('',(#45),#202,.F.);
#215=ADVANCED_FACE('',(#46,#23),#32,.T.);
#216=ADVANCED_FACE('',(#47),#203,.T.);
#217=ADVANCED_FACE('',(#48,#24),#33,.T.);
#218=ADVANCED_FACE('',(#49,#25),#34,.T.);
#219=ADVANCED_FACE('',(#50),#204,.F.);
#220=ADVANCED_FACE('',(#51),#205,.T.);
#221=ADVANCED_FACE('',(#52,#26),#35,.T.);
#222=ADVANCED_FACE('',(#53,#27),#36,.T.);
#223=CLOSED_SHELL('',(#206,#207,#208,#209));
#224=CLOSED_SHELL('',(#210,#211,#212));
#225=CLOSED_SHELL('',(#213,#214,#215,#216,#217,#218));
#226=CLOSED_SHELL('',(#219,#220,#221,#222));
#227=DERIVED_UNIT_ELEMENT(#229,1.);
#228=DERIVED_UNIT_ELEMENT(#412,-3.);
#229=(
MASS_UNIT()
NAMED_UNIT(*)
SI_UNIT(.KILO.,.GRAM.)
);
#230=DERIVED_UNIT((#227,#228));
#231=MEASURE_REPRESENTATION_ITEM('density measure',
POSITIVE_RATIO_MEASURE(7850.),#230);
#232=PROPERTY_DEFINITION_REPRESENTATION(#237,#234);
#233=PROPERTY_DEFINITION_REPRESENTATION(#238,#235);
#234=REPRESENTATION('material name',(#236),#409);
#235=REPRESENTATION('density',(#231),#409);
#236=DESCRIPTIVE_REPRESENTATION_ITEM('Steel','Steel');
#237=PROPERTY_DEFINITION('material property','material name',#419);
#238=PROPERTY_DEFINITION('material property','density of part',#419);
#239=AXIS2_PLACEMENT_3D('',#349,#273,#274);
#240=AXIS2_PLACEMENT_3D('',#350,#275,#276);
#241=AXIS2_PLACEMENT_3D('',#352,#277,#278);
#242=AXIS2_PLACEMENT_3D('',#355,#280,#281);
#243=AXIS2_PLACEMENT_3D('',#356,#282,#283);
#244=AXIS2_PLACEMENT_3D('',#358,#284,#285);
#245=AXIS2_PLACEMENT_3D('',#361,#287,#288);
#246=AXIS2_PLACEMENT_3D('',#362,#289,#290);
#247=AXIS2_PLACEMENT_3D('',#363,#291,#292);
#248=AXIS2_PLACEMENT_3D('',#364,#293,#294);
#249=AXIS2_PLACEMENT_3D('',#366,#295,#296);
#250=AXIS2_PLACEMENT_3D('',#369,#298,#299);
#251=AXIS2_PLACEMENT_3D('',#370,#300,#301);
#252=AXIS2_PLACEMENT_3D('',#371,#302,#303);
#253=AXIS2_PLACEMENT_3D('',#372,#304,#305);
#254=AXIS2_PLACEMENT_3D('',#374,#306,#307);
#255=AXIS2_PLACEMENT_3D('',#377,#309,#310);
#256=AXIS2_PLACEMENT_3D('',#378,#311,#312);
#257=AXIS2_PLACEMENT_3D('',#380,#313,#314);
#258=AXIS2_PLACEMENT_3D('',#383,#316,#317);
#259=AXIS2_PLACEMENT_3D('',#384,#318,#319);
#260=AXIS2_PLACEMENT_3D('',#385,#320,#321);
#261=AXIS2_PLACEMENT_3D('',#387,#322,#323);
#262=AXIS2_PLACEMENT_3D('',#390,#325,#326);
#263=AXIS2_PLACEMENT_3D('',#391,#327,#328);
#264=AXIS2_PLACEMENT_3D('',#392,#329,#330);
#265=AXIS2_PLACEMENT_3D('',#393,#331,#332);
#266=AXIS2_PLACEMENT_3D('',#395,#333,#334);
#267=AXIS2_PLACEMENT_3D('',#398,#336,#337);
#268=AXIS2_PLACEMENT_3D('',#399,#338,#339);
#269=AXIS2_PLACEMENT_3D('',#401,#340,#341);
#270=AXIS2_PLACEMENT_3D('',#404,#343,#344);
#271=AXIS2_PLACEMENT_3D('',#405,#345,#346);
#272=AXIS2_PLACEMENT_3D('',#406,#347,#348);
#273=DIRECTION('axis',(0.,0.,1.));
#274=DIRECTION('refdir',(1.,0.,0.));
#275=DIRECTION('center_axis',(4.02158212363673E-16,-0.984807753012208,0.17364817766693));
#276=DIRECTION('ref_axis',(1.,4.02158212363673E-16,-3.51842845256725E-17));
#277=DIRECTION('center_axis',(4.02158212363673E-16,-0.984807753012208,0.17364817766693));
#278=DIRECTION('ref_axis',(1.,4.02158212363673E-16,-3.51842845256725E-17));
#279=DIRECTION('',(4.02158212363673E-16,-0.984807753012208,0.17364817766693));
#280=DIRECTION('center_axis',(-4.02158212363673E-16,0.984807753012208,-0.17364817766693));
#281=DIRECTION('ref_axis',(1.,4.02158212363673E-16,-3.51842845256725E-17));
#282=DIRECTION('center_axis',(4.02158212363673E-16,-0.984807753012208,0.17364817766693));
#283=DIRECTION('ref_axis',(1.,4.02158212363673E-16,-3.51842845256725E-17));
#284=DIRECTION('center_axis',(4.02158212363673E-16,-0.984807753012208,0.17364817766693));
#285=DIRECTION('ref_axis',(1.,4.02158212363673E-16,-3.51842845256725E-17));
#286=DIRECTION('',(-4.02158212363673E-16,0.984807753012208,-0.17364817766693));
#287=DIRECTION('center_axis',(-4.02158212363673E-16,0.984807753012208,-0.17364817766693));
#288=DIRECTION('ref_axis',(1.,4.02158212363673E-16,-3.51842845256725E-17));
#289=DIRECTION('center_axis',(-4.02158212363673E-16,0.984807753012208,-0.17364817766693));
#290=DIRECTION('ref_axis',(-1.,-4.02158212363673E-16,3.51842845256725E-17));
#291=DIRECTION('center_axis',(4.02158212363673E-16,-0.984807753012208,0.17364817766693));
#292=DIRECTION('ref_axis',(1.,4.02158212363673E-16,-3.51842845256725E-17));
#293=DIRECTION('center_axis',(4.02158212363673E-16,-0.984807753012208,0.17364817766693));
#294=DIRECTION('ref_axis',(1.,4.02158212363673E-16,-3.51842845256725E-17));
#295=DIRECTION('center_axis',(4.02158212363673E-16,-0.984807753012208,0.17364817766693));
#296=DIRECTION('ref_axis',(1.,4.02158212363673E-16,-3.51842845256725E-17));
#297=DIRECTION('',(-4.02158212363673E-16,0.984807753012208,-0.17364817766693));
#298=DIRECTION('center_axis',(-4.02158212363673E-16,0.984807753012208,-0.17364817766693));
#299=DIRECTION('ref_axis',(1.,4.02158212363673E-16,-3.51842845256725E-17));
#300=DIRECTION('center_axis',(-4.02158212363673E-16,0.984807753012208,-0.17364817766693));
#301=DIRECTION('ref_axis',(-1.,-4.02158212363673E-16,3.51842845256725E-17));
#302=DIRECTION('center_axis',(4.02158212363673E-16,-0.984807753012208,0.17364817766693));
#303=DIRECTION('ref_axis',(1.,4.02158212363673E-16,-3.51842845256725E-17));
#304=DIRECTION('center_axis',(0.,-0.984807753012208,0.17364817766693));
#305=DIRECTION('ref_axis',(1.,0.,0.));
#306=DIRECTION('center_axis',(4.02158212363673E-16,-0.984807753012208,0.17364817766693));
#307=DIRECTION('ref_axis',(1.,0.,0.));
#308=DIRECTION('',(0.,0.984807753012208,-0.17364817766693));
#309=DIRECTION('center_axis',(0.,-0.984807753012208,0.17364817766693));
#310=DIRECTION('ref_axis',(1.,0.,0.));
#311=DIRECTION('center_axis',(4.02158212363673E-16,-0.984807753012208,0.17364817766693));
#312=DIRECTION('ref_axis',(1.,4.02158212363673E-16,-3.51842845256725E-17));
#313=DIRECTION('center_axis',(4.02158212363673E-16,-0.984807753012208,0.17364817766693));
#314=DIRECTION('ref_axis',(1.,4.02158212363673E-16,-3.51842845256725E-17));
#315=DIRECTION('',(4.02158212363673E-16,-0.984807753012208,0.17364817766693));
#316=DIRECTION('center_axis',(-4.02158212363673E-16,0.984807753012208,-0.17364817766693));
#317=DIRECTION('ref_axis',(1.,4.02158212363673E-16,-3.51842845256725E-17));
#318=DIRECTION('center_axis',(4.02158212363673E-16,-0.984807753012208,0.17364817766693));
#319=DIRECTION('ref_axis',(1.,4.02158212363673E-16,-3.51842845256725E-17));
#320=DIRECTION('center_axis',(4.02158212363673E-16,-0.984807753012208,0.17364817766693));
#321=DIRECTION('ref_axis',(1.,4.02158212363673E-16,-3.51842845256725E-17));
#322=DIRECTION('center_axis',(4.02158212363673E-16,-0.984807753012208,0.17364817766693));
#323=DIRECTION('ref_axis',(1.,4.02158212363673E-16,-3.51842845256725E-17));
#324=DIRECTION('',(-4.02158212363673E-16,0.984807753012208,-0.17364817766693));
#325=DIRECTION('center_axis',(-4.02158212363673E-16,0.984807753012208,-0.17364817766693));
#326=DIRECTION('ref_axis',(1.,4.02158212363673E-16,-3.51842845256725E-17));
#327=DIRECTION('center_axis',(-4.02158212363673E-16,0.984807753012208,-0.17364817766693));
#328=DIRECTION('ref_axis',(-1.,-4.02158212363673E-16,3.51842845256725E-17));
#329=DIRECTION('center_axis',(4.02158212363673E-16,-0.984807753012208,0.17364817766693));
#330=DIRECTION('ref_axis',(1.,4.02158212363673E-16,-3.51842845256725E-17));
#331=DIRECTION('center_axis',(0.,-0.984807753012207,0.173648177666934));
#332=DIRECTION('ref_axis',(1.,0.,0.));
#333=DIRECTION('center_axis',(0.,-0.984807753012207,0.173648177666934));
#334=DIRECTION('ref_axis',(1.,0.,0.));
#335=DIRECTION('',(0.,-0.984807753012207,0.173648177666934));
#336=DIRECTION('center_axis',(0.,0.984807753012207,-0.173648177666934));
#337=DIRECTION('ref_axis',(1.,0.,0.));
#338=DIRECTION('center_axis',(4.02158212363673E-16,-0.984807753012208,0.17364817766693));
#339=DIRECTION('ref_axis',(1.,4.02158212363673E-16,-3.51842845256725E-17));
#340=DIRECTION('center_axis',(4.02158212363673E-16,-0.984807753012208,0.17364817766693));
#341=DIRECTION('ref_axis',(1.,4.02158212363673E-16,-3.51842845256725E-17));
#342=DIRECTION('',(-4.02158212363673E-16,0.984807753012208,-0.17364817766693));
#343=DIRECTION('center_axis',(-4.02158212363673E-16,0.984807753012208,-0.17364817766693));
#344=DIRECTION('ref_axis',(1.,4.02158212363673E-16,-3.51842845256725E-17));
#345=DIRECTION('center_axis',(-4.02158212363673E-16,0.984807753012208,-0.17364817766693));
#346=DIRECTION('ref_axis',(-1.,-4.02158212363673E-16,3.51842845256725E-17));
#347=DIRECTION('center_axis',(4.02158212363673E-16,-0.984807753012208,0.17364817766693));
#348=DIRECTION('ref_axis',(1.,4.02158212363673E-16,-3.51842845256725E-17));
#349=CARTESIAN_POINT('',(0.,0.,0.));
#350=CARTESIAN_POINT('Origin',(-67.,179.111364332433,-18.4971376951915));
#351=CARTESIAN_POINT('',(-69.1,182.558191467976,-19.1049063170258));
#352=CARTESIAN_POINT('Origin',(-67.,182.558191467976,-19.1049063170258));
#353=CARTESIAN_POINT('',(-69.1,175.66453719689,-17.8893690733573));
#354=CARTESIAN_POINT('',(-69.1,179.111364332433,-18.4971376951915));
#355=CARTESIAN_POINT('Origin',(-67.,175.66453719689,-17.8893690733573));
#356=CARTESIAN_POINT('Origin',(-67.,179.111364332433,-18.4971376951915));
#357=CARTESIAN_POINT('',(-71.6,175.66453719689,-17.8893690733573));
#358=CARTESIAN_POINT('Origin',(-67.,175.66453719689,-17.8893690733573));
#359=CARTESIAN_POINT('',(-71.6,182.558191467976,-19.1049063170258));
#360=CARTESIAN_POINT('',(-71.6,179.111364332433,-18.4971376951915));
#361=CARTESIAN_POINT('Origin',(-67.,182.558191467976,-19.1049063170258));
#362=CARTESIAN_POINT('Origin',(-67.,182.558191467976,-19.1049063170258));
#363=CARTESIAN_POINT('Origin',(-67.,175.66453719689,-17.8893690733573));
#364=CARTESIAN_POINT('Origin',(-67.,190.732095817977,-20.5461861916613));
#365=CARTESIAN_POINT('',(-68.05,188.467037986049,-20.1467953830274));
#366=CARTESIAN_POINT('Origin',(-67.,188.467037986049,-20.1467953830274));
#367=CARTESIAN_POINT('',(-68.05,192.997153649905,-20.9455770002953));
#368=CARTESIAN_POINT('',(-68.05,190.732095817977,-20.5461861916613));
#369=CARTESIAN_POINT('Origin',(-67.,192.997153649905,-20.9455770002953));
#370=CARTESIAN_POINT('Origin',(-67.,192.997153649905,-20.9455770002953));
#371=CARTESIAN_POINT('Origin',(-67.,188.467037986049,-20.1467953830274));
#372=CARTESIAN_POINT('Origin',(-67.,187.112927325657,-19.9080291387353));
#373=CARTESIAN_POINT('',(-72.4,182.558191467976,-19.1049063170258));
#374=CARTESIAN_POINT('Origin',(-67.,182.558191467976,-19.1049063170258));
#375=CARTESIAN_POINT('',(-72.4,191.667663183339,-20.7111519604449));
#376=CARTESIAN_POINT('',(-72.4,187.112927325657,-19.9080291387353));
#377=CARTESIAN_POINT('Origin',(-67.,191.667663183339,-20.7111519604449));
#378=CARTESIAN_POINT('Origin',(-67.,187.482230233037,-19.9731472053604));
#379=CARTESIAN_POINT('',(-69.75,193.863784472556,-21.0983873966422));
#380=CARTESIAN_POINT('Origin',(-67.,193.863784472556,-21.0983873966422));
#381=CARTESIAN_POINT('',(-69.75,182.558191467976,-19.1049063170258));
#382=CARTESIAN_POINT('',(-69.75,187.482230233037,-19.9731472053604));
#383=CARTESIAN_POINT('Origin',(-67.,182.558191467976,-19.1049063170258));
#384=CARTESIAN_POINT('Origin',(-67.,182.558191467976,-19.1049063170258));
#385=CARTESIAN_POINT('Origin',(-67.,192.765723827947,-20.9047696785435));
#386=CARTESIAN_POINT('',(-74.5,191.667663183339,-20.7111519604449));
#387=CARTESIAN_POINT('Origin',(-67.,191.667663183339,-20.7111519604449));
#388=CARTESIAN_POINT('',(-74.5,193.863784472556,-21.0983873966422));
#389=CARTESIAN_POINT('',(-74.5,192.765723827947,-20.9047696785435));
#390=CARTESIAN_POINT('Origin',(-67.,193.863784472556,-21.0983873966422));
#391=CARTESIAN_POINT('Origin',(-67.,193.863784472556,-21.0983873966422));
#392=CARTESIAN_POINT('Origin',(-67.,191.667663183339,-20.7111519604449));
#393=CARTESIAN_POINT('Origin',(-67.,188.122355272495,-20.086018520844));
#394=CARTESIAN_POINT('',(-72.5,189.205643800808,-20.2770315162776));
#395=CARTESIAN_POINT('Origin',(-67.,189.205643800808,-20.2770315162776));
#396=CARTESIAN_POINT('',(-72.5,187.039066744181,-19.8950055254103));
#397=CARTESIAN_POINT('',(-72.5,188.122355272495,-20.086018520844));
#398=CARTESIAN_POINT('Origin',(-67.,187.039066744181,-19.8950055254103));
#399=CARTESIAN_POINT('Origin',(-67.,188.122355272495,-20.0860185208439));
#400=CARTESIAN_POINT('',(-74.75,187.039066744181,-19.8950055254103));
#401=CARTESIAN_POINT('Origin',(-67.,187.039066744181,-19.8950055254103));
#402=CARTESIAN_POINT('',(-74.75,189.205643800808,-20.2770315162776));
#403=CARTESIAN_POINT('',(-74.75,188.122355272495,-20.0860185208439));
#404=CARTESIAN_POINT('Origin',(-67.,189.205643800808,-20.2770315162776));
#405=CARTESIAN_POINT('Origin',(-67.,189.205643800808,-20.2770315162776));
#406=CARTESIAN_POINT('Origin',(-67.,187.039066744181,-19.8950055254103));
#407=UNCERTAINTY_MEASURE_WITH_UNIT(LENGTH_MEASURE(0.01),#411,
'DISTANCE_ACCURACY_VALUE',
'Maximum model space distance between geometric entities at asserted c
onnectivities');
#408=UNCERTAINTY_MEASURE_WITH_UNIT(LENGTH_MEASURE(0.01),#411,
'DISTANCE_ACCURACY_VALUE',
'Maximum model space distance between geometric entities at asserted c
onnectivities');
#409=(
GEOMETRIC_REPRESENTATION_CONTEXT(3)
GLOBAL_UNCERTAINTY_ASSIGNED_CONTEXT((#407))
GLOBAL_UNIT_ASSIGNED_CONTEXT((#411,#413,#414))
REPRESENTATION_CONTEXT('','3D')
);
#410=(
GEOMETRIC_REPRESENTATION_CONTEXT(3)
GLOBAL_UNCERTAINTY_ASSIGNED_CONTEXT((#408))
GLOBAL_UNIT_ASSIGNED_CONTEXT((#411,#413,#414))
REPRESENTATION_CONTEXT('','3D')
);
#411=(
LENGTH_UNIT()
NAMED_UNIT(*)
SI_UNIT(.MILLI.,.METRE.)
);
#412=(
LENGTH_UNIT()
NAMED_UNIT(*)
SI_UNIT($,.METRE.)
);
#413=(
NAMED_UNIT(*)
PLANE_ANGLE_UNIT()
SI_UNIT($,.RADIAN.)
);
#414=(
NAMED_UNIT(*)
SI_UNIT($,.STERADIAN.)
SOLID_ANGLE_UNIT()
);
#415=SHAPE_DEFINITION_REPRESENTATION(#416,#417);
#416=PRODUCT_DEFINITION_SHAPE('',$,#419);
#417=SHAPE_REPRESENTATION('',(#239),#409);
#418=PRODUCT_DEFINITION_CONTEXT('part definition',#423,'design');
#419=PRODUCT_DEFINITION('(Unsaved)','(Unsaved)',#420,#418);
#420=PRODUCT_DEFINITION_FORMATION('',$,#425);
#421=PRODUCT_RELATED_PRODUCT_CATEGORY('(Unsaved)','(Unsaved)',(#425));
#422=APPLICATION_PROTOCOL_DEFINITION('international standard',
'automotive_design',2009,#423);
#423=APPLICATION_CONTEXT(
'Core Data for Automotive Mechanical Design Process');
#424=PRODUCT_CONTEXT('part definition',#423,'mechanical');
#425=PRODUCT('(Unsaved)','(Unsaved)',$,(#424));
#426=PRESENTATION_STYLE_ASSIGNMENT((#427));
#427=SURFACE_STYLE_USAGE(.BOTH.,#428);
#428=SURFACE_SIDE_STYLE('',(#429));
#429=SURFACE_STYLE_FILL_AREA(#430);
#430=FILL_AREA_STYLE('Steel - Satin',(#431));
#431=FILL_AREA_STYLE_COLOUR('Steel - Satin',#432);
#432=COLOUR_RGB('Steel - Satin',0.627450980392157,0.627450980392157,0.627450980392157);
ENDSEC;
END-ISO-10303-21;
