ISO-10303-21;
HEADER;
/* Generated by software containing ST-Developer
 * from STEP Tools, Inc. (www.steptools.com) 
 */

FILE_DESCRIPTION(
/* description */ (''),
/* implementation_level */ '2;1');

FILE_NAME(
/* name */ 'reference-ethernet-panel-coupler.step',
/* time_stamp */ '2026-09-11T16:58:04-07:00',
/* author */ (''),
/* organization */ (''),
/* preprocessor_version */ 'ST-DEVELOPER v20.2',
/* originating_system */ 'Autodesk Translation Framework v15.15.0.0',
/* authorisation */ '');

FILE_SCHEMA (('AUTOMOTIVE_DESIGN { 1 0 10303 214 3 1 1 }'));
ENDSEC;

DATA;
#10=MECHANICAL_DESIGN_GEOMETRIC_PRESENTATION_REPRESENTATION('',(#13,#14),
#659);
#11=SHAPE_REPRESENTATION_RELATIONSHIP('SRR','None',#666,#12);
#12=ADVANCED_BREP_SHAPE_REPRESENTATION('',(#15,#16),#658);
#13=STYLED_ITEM('',(#675),#15);
#14=STYLED_ITEM('',(#675),#16);
#15=MANIFOLD_SOLID_BREP('reference-ethernet-panel-coupler 1',#386);
#16=MANIFOLD_SOLID_BREP('reference-ethernet-panel-coupler 2',#387);
#17=FACE_BOUND('',#62,.T.);
#18=FACE_BOUND('',#63,.T.);
#19=FACE_BOUND('',#64,.T.);
#20=FACE_BOUND('',#65,.T.);
#21=FACE_BOUND('',#71,.T.);
#22=FACE_BOUND('',#76,.T.);
#23=FACE_BOUND('',#79,.T.);
#24=FACE_BOUND('',#83,.T.);
#25=FACE_BOUND('',#85,.T.);
#26=PLANE('',#413);
#27=PLANE('',#415);
#28=PLANE('',#416);
#29=PLANE('',#417);
#30=PLANE('',#418);
#31=PLANE('',#419);
#32=PLANE('',#425);
#33=PLANE('',#427);
#34=PLANE('',#430);
#35=PLANE('',#437);
#36=PLANE('',#438);
#37=FACE_OUTER_BOUND('',#57,.T.);
#38=FACE_OUTER_BOUND('',#58,.T.);
#39=FACE_OUTER_BOUND('',#59,.T.);
#40=FACE_OUTER_BOUND('',#60,.T.);
#41=FACE_OUTER_BOUND('',#61,.T.);
#42=FACE_OUTER_BOUND('',#66,.T.);
#43=FACE_OUTER_BOUND('',#67,.T.);
#44=FACE_OUTER_BOUND('',#68,.T.);
#45=FACE_OUTER_BOUND('',#69,.T.);
#46=FACE_OUTER_BOUND('',#70,.T.);
#47=FACE_OUTER_BOUND('',#72,.T.);
#48=FACE_OUTER_BOUND('',#73,.T.);
#49=FACE_OUTER_BOUND('',#74,.T.);
#50=FACE_OUTER_BOUND('',#75,.T.);
#51=FACE_OUTER_BOUND('',#77,.T.);
#52=FACE_OUTER_BOUND('',#78,.T.);
#53=FACE_OUTER_BOUND('',#80,.T.);
#54=FACE_OUTER_BOUND('',#81,.T.);
#55=FACE_OUTER_BOUND('',#82,.T.);
#56=FACE_OUTER_BOUND('',#84,.T.);
#57=EDGE_LOOP('',(#255,#256,#257,#258));
#58=EDGE_LOOP('',(#259,#260,#261,#262));
#59=EDGE_LOOP('',(#263,#264,#265,#266));
#60=EDGE_LOOP('',(#267,#268,#269,#270));
#61=EDGE_LOOP('',(#271));
#62=EDGE_LOOP('',(#272,#273));
#63=EDGE_LOOP('',(#274,#275));
#64=EDGE_LOOP('',(#276,#277));
#65=EDGE_LOOP('',(#278,#279));
#66=EDGE_LOOP('',(#280,#281,#282,#283,#284,#285,#286,#287));
#67=EDGE_LOOP('',(#288,#289,#290,#291,#292,#293,#294,#295));
#68=EDGE_LOOP('',(#296,#297,#298,#299,#300,#301,#302,#303));
#69=EDGE_LOOP('',(#304,#305,#306,#307,#308,#309,#310,#311));
#70=EDGE_LOOP('',(#312));
#71=EDGE_LOOP('',(#313,#314,#315,#316,#317,#318,#319,#320,#321,#322,#323,
#324));
#72=EDGE_LOOP('',(#325,#326,#327,#328));
#73=EDGE_LOOP('',(#329));
#74=EDGE_LOOP('',(#330,#331,#332,#333));
#75=EDGE_LOOP('',(#334));
#76=EDGE_LOOP('',(#335));
#77=EDGE_LOOP('',(#336,#337,#338,#339));
#78=EDGE_LOOP('',(#340));
#79=EDGE_LOOP('',(#341,#342,#343,#344));
#80=EDGE_LOOP('',(#345,#346,#347,#348));
#81=EDGE_LOOP('',(#349,#350,#351,#352));
#82=EDGE_LOOP('',(#353));
#83=EDGE_LOOP('',(#354));
#84=EDGE_LOOP('',(#355));
#85=EDGE_LOOP('',(#356));
#86=LINE('',#555,#119);
#87=LINE('',#562,#120);
#88=LINE('',#565,#121);
#89=LINE('',#571,#122);
#90=LINE('',#574,#123);
#91=LINE('',#580,#124);
#92=LINE('',#583,#125);
#93=LINE('',#585,#126);
#94=LINE('',#589,#127);
#95=LINE('',#590,#128);
#96=LINE('',#591,#129);
#97=LINE('',#594,#130);
#98=LINE('',#596,#131);
#99=LINE('',#598,#132);
#100=LINE('',#600,#133);
#101=LINE('',#601,#134);
#102=LINE('',#603,#135);
#103=LINE('',#605,#136);
#104=LINE('',#607,#137);
#105=LINE('',#608,#138);
#106=LINE('',#612,#139);
#107=LINE('',#613,#140);
#108=LINE('',#615,#141);
#109=LINE('',#616,#142);
#110=LINE('',#618,#143);
#111=LINE('',#619,#144);
#112=LINE('',#621,#145);
#113=LINE('',#622,#146);
#114=LINE('',#623,#147);
#115=LINE('',#632,#148);
#116=LINE('',#639,#149);
#117=LINE('',#646,#150);
#118=LINE('',#652,#151);
#119=VECTOR('',#445,10.85);
#120=VECTOR('',#452,10.);
#121=VECTOR('',#455,10.);
#122=VECTOR('',#460,10.);
#123=VECTOR('',#463,10.);
#124=VECTOR('',#468,10.);
#125=VECTOR('',#471,10.);
#126=VECTOR('',#474,10.);
#127=VECTOR('',#477,10.);
#128=VECTOR('',#478,10.);
#129=VECTOR('',#479,10.);
#130=VECTOR('',#482,10.);
#131=VECTOR('',#483,10.);
#132=VECTOR('',#484,10.);
#133=VECTOR('',#485,10.);
#134=VECTOR('',#486,10.);
#135=VECTOR('',#489,10.);
#136=VECTOR('',#490,10.);
#137=VECTOR('',#491,10.);
#138=VECTOR('',#492,10.);
#139=VECTOR('',#495,10.);
#140=VECTOR('',#496,10.);
#141=VECTOR('',#497,10.);
#142=VECTOR('',#498,10.);
#143=VECTOR('',#499,10.);
#144=VECTOR('',#500,10.);
#145=VECTOR('',#503,10.);
#146=VECTOR('',#504,10.);
#147=VECTOR('',#505,10.);
#148=VECTOR('',#516,8.5);
#149=VECTOR('',#527,13.);
#150=VECTOR('',#536,10.95);
#151=VECTOR('',#543,12.);
#152=CIRCLE('',#402,10.85);
#153=CIRCLE('',#403,10.85);
#154=CIRCLE('',#405,9.5);
#155=CIRCLE('',#406,9.5);
#156=CIRCLE('',#408,9.5);
#157=CIRCLE('',#409,9.5);
#158=CIRCLE('',#411,9.5);
#159=CIRCLE('',#412,9.5);
#160=CIRCLE('',#414,9.5);
#161=CIRCLE('',#420,13.);
#162=CIRCLE('',#421,9.5);
#163=CIRCLE('',#423,8.5);
#164=CIRCLE('',#424,8.5);
#165=CIRCLE('',#429,13.);
#166=CIRCLE('',#432,10.95);
#167=CIRCLE('',#433,10.95);
#168=CIRCLE('',#435,12.);
#169=CIRCLE('',#436,12.);
#170=VERTEX_POINT('',#552);
#171=VERTEX_POINT('',#554);
#172=VERTEX_POINT('',#558);
#173=VERTEX_POINT('',#559);
#174=VERTEX_POINT('',#561);
#175=VERTEX_POINT('',#563);
#176=VERTEX_POINT('',#567);
#177=VERTEX_POINT('',#568);
#178=VERTEX_POINT('',#570);
#179=VERTEX_POINT('',#572);
#180=VERTEX_POINT('',#576);
#181=VERTEX_POINT('',#577);
#182=VERTEX_POINT('',#579);
#183=VERTEX_POINT('',#581);
#184=VERTEX_POINT('',#586);
#185=VERTEX_POINT('',#587);
#186=VERTEX_POINT('',#593);
#187=VERTEX_POINT('',#595);
#188=VERTEX_POINT('',#597);
#189=VERTEX_POINT('',#599);
#190=VERTEX_POINT('',#604);
#191=VERTEX_POINT('',#606);
#192=VERTEX_POINT('',#610);
#193=VERTEX_POINT('',#611);
#194=VERTEX_POINT('',#614);
#195=VERTEX_POINT('',#617);
#196=VERTEX_POINT('',#625);
#197=VERTEX_POINT('',#629);
#198=VERTEX_POINT('',#631);
#199=VERTEX_POINT('',#638);
#200=VERTEX_POINT('',#643);
#201=VERTEX_POINT('',#645);
#202=VERTEX_POINT('',#649);
#203=VERTEX_POINT('',#651);
#204=EDGE_CURVE('',#170,#170,#152,.T.);
#205=EDGE_CURVE('',#170,#171,#86,.T.);
#206=EDGE_CURVE('',#171,#171,#153,.T.);
#207=EDGE_CURVE('',#172,#173,#154,.T.);
#208=EDGE_CURVE('',#173,#174,#87,.T.);
#209=EDGE_CURVE('',#175,#174,#155,.T.);
#210=EDGE_CURVE('',#175,#172,#88,.T.);
#211=EDGE_CURVE('',#176,#177,#156,.T.);
#212=EDGE_CURVE('',#177,#178,#89,.T.);
#213=EDGE_CURVE('',#179,#178,#157,.T.);
#214=EDGE_CURVE('',#179,#176,#90,.T.);
#215=EDGE_CURVE('',#180,#181,#158,.T.);
#216=EDGE_CURVE('',#181,#182,#91,.T.);
#217=EDGE_CURVE('',#183,#182,#159,.T.);
#218=EDGE_CURVE('',#183,#180,#92,.T.);
#219=EDGE_CURVE('',#177,#176,#93,.T.);
#220=EDGE_CURVE('',#184,#185,#160,.T.);
#221=EDGE_CURVE('',#185,#184,#94,.T.);
#222=EDGE_CURVE('',#173,#172,#95,.T.);
#223=EDGE_CURVE('',#181,#180,#96,.T.);
#224=EDGE_CURVE('',#186,#183,#97,.T.);
#225=EDGE_CURVE('',#186,#187,#98,.T.);
#226=EDGE_CURVE('',#188,#187,#99,.T.);
#227=EDGE_CURVE('',#189,#188,#100,.T.);
#228=EDGE_CURVE('',#182,#189,#101,.T.);
#229=EDGE_CURVE('',#174,#186,#102,.T.);
#230=EDGE_CURVE('',#190,#175,#103,.T.);
#231=EDGE_CURVE('',#190,#191,#104,.T.);
#232=EDGE_CURVE('',#187,#191,#105,.T.);
#233=EDGE_CURVE('',#192,#193,#106,.T.);
#234=EDGE_CURVE('',#185,#192,#107,.T.);
#235=EDGE_CURVE('',#194,#184,#108,.T.);
#236=EDGE_CURVE('',#189,#194,#109,.T.);
#237=EDGE_CURVE('',#195,#188,#110,.T.);
#238=EDGE_CURVE('',#193,#195,#111,.T.);
#239=EDGE_CURVE('',#178,#190,#112,.T.);
#240=EDGE_CURVE('',#193,#179,#113,.T.);
#241=EDGE_CURVE('',#191,#195,#114,.T.);
#242=EDGE_CURVE('',#196,#196,#161,.T.);
#243=EDGE_CURVE('',#194,#192,#162,.T.);
#244=EDGE_CURVE('',#197,#197,#163,.T.);
#245=EDGE_CURVE('',#197,#198,#115,.T.);
#246=EDGE_CURVE('',#198,#198,#164,.T.);
#247=EDGE_CURVE('',#196,#199,#116,.T.);
#248=EDGE_CURVE('',#199,#199,#165,.T.);
#249=EDGE_CURVE('',#200,#200,#166,.T.);
#250=EDGE_CURVE('',#200,#201,#117,.T.);
#251=EDGE_CURVE('',#201,#201,#167,.T.);
#252=EDGE_CURVE('',#202,#202,#168,.T.);
#253=EDGE_CURVE('',#202,#203,#118,.T.);
#254=EDGE_CURVE('',#203,#203,#169,.T.);
#255=ORIENTED_EDGE('',*,*,#204,.F.);
#256=ORIENTED_EDGE('',*,*,#205,.T.);
#257=ORIENTED_EDGE('',*,*,#206,.F.);
#258=ORIENTED_EDGE('',*,*,#205,.F.);
#259=ORIENTED_EDGE('',*,*,#207,.T.);
#260=ORIENTED_EDGE('',*,*,#208,.T.);
#261=ORIENTED_EDGE('',*,*,#209,.F.);
#262=ORIENTED_EDGE('',*,*,#210,.T.);
#263=ORIENTED_EDGE('',*,*,#211,.T.);
#264=ORIENTED_EDGE('',*,*,#212,.T.);
#265=ORIENTED_EDGE('',*,*,#213,.F.);
#266=ORIENTED_EDGE('',*,*,#214,.T.);
#267=ORIENTED_EDGE('',*,*,#215,.T.);
#268=ORIENTED_EDGE('',*,*,#216,.T.);
#269=ORIENTED_EDGE('',*,*,#217,.F.);
#270=ORIENTED_EDGE('',*,*,#218,.T.);
#271=ORIENTED_EDGE('',*,*,#206,.T.);
#272=ORIENTED_EDGE('',*,*,#219,.F.);
#273=ORIENTED_EDGE('',*,*,#211,.F.);
#274=ORIENTED_EDGE('',*,*,#220,.F.);
#275=ORIENTED_EDGE('',*,*,#221,.F.);
#276=ORIENTED_EDGE('',*,*,#222,.F.);
#277=ORIENTED_EDGE('',*,*,#207,.F.);
#278=ORIENTED_EDGE('',*,*,#215,.F.);
#279=ORIENTED_EDGE('',*,*,#223,.F.);
#280=ORIENTED_EDGE('',*,*,#224,.F.);
#281=ORIENTED_EDGE('',*,*,#225,.T.);
#282=ORIENTED_EDGE('',*,*,#226,.F.);
#283=ORIENTED_EDGE('',*,*,#227,.F.);
#284=ORIENTED_EDGE('',*,*,#228,.F.);
#285=ORIENTED_EDGE('',*,*,#216,.F.);
#286=ORIENTED_EDGE('',*,*,#223,.T.);
#287=ORIENTED_EDGE('',*,*,#218,.F.);
#288=ORIENTED_EDGE('',*,*,#229,.F.);
#289=ORIENTED_EDGE('',*,*,#208,.F.);
#290=ORIENTED_EDGE('',*,*,#222,.T.);
#291=ORIENTED_EDGE('',*,*,#210,.F.);
#292=ORIENTED_EDGE('',*,*,#230,.F.);
#293=ORIENTED_EDGE('',*,*,#231,.T.);
#294=ORIENTED_EDGE('',*,*,#232,.F.);
#295=ORIENTED_EDGE('',*,*,#225,.F.);
#296=ORIENTED_EDGE('',*,*,#233,.F.);
#297=ORIENTED_EDGE('',*,*,#234,.F.);
#298=ORIENTED_EDGE('',*,*,#221,.T.);
#299=ORIENTED_EDGE('',*,*,#235,.F.);
#300=ORIENTED_EDGE('',*,*,#236,.F.);
#301=ORIENTED_EDGE('',*,*,#227,.T.);
#302=ORIENTED_EDGE('',*,*,#237,.F.);
#303=ORIENTED_EDGE('',*,*,#238,.F.);
#304=ORIENTED_EDGE('',*,*,#239,.F.);
#305=ORIENTED_EDGE('',*,*,#212,.F.);
#306=ORIENTED_EDGE('',*,*,#219,.T.);
#307=ORIENTED_EDGE('',*,*,#214,.F.);
#308=ORIENTED_EDGE('',*,*,#240,.F.);
#309=ORIENTED_EDGE('',*,*,#238,.T.);
#310=ORIENTED_EDGE('',*,*,#241,.F.);
#311=ORIENTED_EDGE('',*,*,#231,.F.);
#312=ORIENTED_EDGE('',*,*,#242,.T.);
#313=ORIENTED_EDGE('',*,*,#229,.T.);
#314=ORIENTED_EDGE('',*,*,#224,.T.);
#315=ORIENTED_EDGE('',*,*,#217,.T.);
#316=ORIENTED_EDGE('',*,*,#228,.T.);
#317=ORIENTED_EDGE('',*,*,#236,.T.);
#318=ORIENTED_EDGE('',*,*,#243,.T.);
#319=ORIENTED_EDGE('',*,*,#233,.T.);
#320=ORIENTED_EDGE('',*,*,#240,.T.);
#321=ORIENTED_EDGE('',*,*,#213,.T.);
#322=ORIENTED_EDGE('',*,*,#239,.T.);
#323=ORIENTED_EDGE('',*,*,#230,.T.);
#324=ORIENTED_EDGE('',*,*,#209,.T.);
#325=ORIENTED_EDGE('',*,*,#244,.F.);
#326=ORIENTED_EDGE('',*,*,#245,.T.);
#327=ORIENTED_EDGE('',*,*,#246,.F.);
#328=ORIENTED_EDGE('',*,*,#245,.F.);
#329=ORIENTED_EDGE('',*,*,#244,.T.);
#330=ORIENTED_EDGE('',*,*,#220,.T.);
#331=ORIENTED_EDGE('',*,*,#234,.T.);
#332=ORIENTED_EDGE('',*,*,#243,.F.);
#333=ORIENTED_EDGE('',*,*,#235,.T.);
#334=ORIENTED_EDGE('',*,*,#204,.T.);
#335=ORIENTED_EDGE('',*,*,#246,.T.);
#336=ORIENTED_EDGE('',*,*,#242,.F.);
#337=ORIENTED_EDGE('',*,*,#247,.T.);
#338=ORIENTED_EDGE('',*,*,#248,.F.);
#339=ORIENTED_EDGE('',*,*,#247,.F.);
#340=ORIENTED_EDGE('',*,*,#248,.T.);
#341=ORIENTED_EDGE('',*,*,#232,.T.);
#342=ORIENTED_EDGE('',*,*,#241,.T.);
#343=ORIENTED_EDGE('',*,*,#237,.T.);
#344=ORIENTED_EDGE('',*,*,#226,.T.);
#345=ORIENTED_EDGE('',*,*,#249,.F.);
#346=ORIENTED_EDGE('',*,*,#250,.T.);
#347=ORIENTED_EDGE('',*,*,#251,.F.);
#348=ORIENTED_EDGE('',*,*,#250,.F.);
#349=ORIENTED_EDGE('',*,*,#252,.F.);
#350=ORIENTED_EDGE('',*,*,#253,.T.);
#351=ORIENTED_EDGE('',*,*,#254,.F.);
#352=ORIENTED_EDGE('',*,*,#253,.F.);
#353=ORIENTED_EDGE('',*,*,#254,.T.);
#354=ORIENTED_EDGE('',*,*,#249,.T.);
#355=ORIENTED_EDGE('',*,*,#252,.T.);
#356=ORIENTED_EDGE('',*,*,#251,.T.);
#357=CYLINDRICAL_SURFACE('',#401,10.85);
#358=CYLINDRICAL_SURFACE('',#404,9.5);
#359=CYLINDRICAL_SURFACE('',#407,9.5);
#360=CYLINDRICAL_SURFACE('',#410,9.5);
#361=CYLINDRICAL_SURFACE('',#422,8.5);
#362=CYLINDRICAL_SURFACE('',#426,9.5);
#363=CYLINDRICAL_SURFACE('',#428,13.);
#364=CYLINDRICAL_SURFACE('',#431,10.95);
#365=CYLINDRICAL_SURFACE('',#434,12.);
#366=ADVANCED_FACE('',(#37),#357,.T.);
#367=ADVANCED_FACE('',(#38),#358,.T.);
#368=ADVANCED_FACE('',(#39),#359,.T.);
#369=ADVANCED_FACE('',(#40),#360,.T.);
#370=ADVANCED_FACE('',(#41,#17,#18,#19,#20),#26,.F.);
#371=ADVANCED_FACE('',(#42),#27,.T.);
#372=ADVANCED_FACE('',(#43),#28,.T.);
#373=ADVANCED_FACE('',(#44),#29,.T.);
#374=ADVANCED_FACE('',(#45),#30,.T.);
#375=ADVANCED_FACE('',(#46,#21),#31,.T.);
#376=ADVANCED_FACE('',(#47),#361,.T.);
#377=ADVANCED_FACE('',(#48),#32,.T.);
#378=ADVANCED_FACE('',(#49),#362,.T.);
#379=ADVANCED_FACE('',(#50,#22),#33,.T.);
#380=ADVANCED_FACE('',(#51),#363,.T.);
#381=ADVANCED_FACE('',(#52,#23),#34,.T.);
#382=ADVANCED_FACE('',(#53),#364,.F.);
#383=ADVANCED_FACE('',(#54),#365,.T.);
#384=ADVANCED_FACE('',(#55,#24),#35,.T.);
#385=ADVANCED_FACE('',(#56,#25),#36,.T.);
#386=CLOSED_SHELL('',(#366,#367,#368,#369,#370,#371,#372,#373,#374,#375,
#376,#377,#378,#379,#380,#381));
#387=CLOSED_SHELL('',(#382,#383,#384,#385));
#388=DERIVED_UNIT_ELEMENT(#390,1.);
#389=DERIVED_UNIT_ELEMENT(#661,-3.);
#390=(
MASS_UNIT()
NAMED_UNIT(*)
SI_UNIT(.KILO.,.GRAM.)
);
#391=DERIVED_UNIT((#388,#389));
#392=MEASURE_REPRESENTATION_ITEM('density measure',
POSITIVE_RATIO_MEASURE(7850.),#391);
#393=PROPERTY_DEFINITION_REPRESENTATION(#398,#395);
#394=PROPERTY_DEFINITION_REPRESENTATION(#399,#396);
#395=REPRESENTATION('material name',(#397),#658);
#396=REPRESENTATION('density',(#392),#658);
#397=DESCRIPTIVE_REPRESENTATION_ITEM('Steel','Steel');
#398=PROPERTY_DEFINITION('material property','material name',#668);
#399=PROPERTY_DEFINITION('material property','density of part',#668);
#400=AXIS2_PLACEMENT_3D('',#550,#439,#440);
#401=AXIS2_PLACEMENT_3D('',#551,#441,#442);
#402=AXIS2_PLACEMENT_3D('',#553,#443,#444);
#403=AXIS2_PLACEMENT_3D('',#556,#446,#447);
#404=AXIS2_PLACEMENT_3D('',#557,#448,#449);
#405=AXIS2_PLACEMENT_3D('',#560,#450,#451);
#406=AXIS2_PLACEMENT_3D('',#564,#453,#454);
#407=AXIS2_PLACEMENT_3D('',#566,#456,#457);
#408=AXIS2_PLACEMENT_3D('',#569,#458,#459);
#409=AXIS2_PLACEMENT_3D('',#573,#461,#462);
#410=AXIS2_PLACEMENT_3D('',#575,#464,#465);
#411=AXIS2_PLACEMENT_3D('',#578,#466,#467);
#412=AXIS2_PLACEMENT_3D('',#582,#469,#470);
#413=AXIS2_PLACEMENT_3D('',#584,#472,#473);
#414=AXIS2_PLACEMENT_3D('',#588,#475,#476);
#415=AXIS2_PLACEMENT_3D('',#592,#480,#481);
#416=AXIS2_PLACEMENT_3D('',#602,#487,#488);
#417=AXIS2_PLACEMENT_3D('',#609,#493,#494);
#418=AXIS2_PLACEMENT_3D('',#620,#501,#502);
#419=AXIS2_PLACEMENT_3D('',#624,#506,#507);
#420=AXIS2_PLACEMENT_3D('',#626,#508,#509);
#421=AXIS2_PLACEMENT_3D('',#627,#510,#511);
#422=AXIS2_PLACEMENT_3D('',#628,#512,#513);
#423=AXIS2_PLACEMENT_3D('',#630,#514,#515);
#424=AXIS2_PLACEMENT_3D('',#633,#517,#518);
#425=AXIS2_PLACEMENT_3D('',#634,#519,#520);
#426=AXIS2_PLACEMENT_3D('',#635,#521,#522);
#427=AXIS2_PLACEMENT_3D('',#636,#523,#524);
#428=AXIS2_PLACEMENT_3D('',#637,#525,#526);
#429=AXIS2_PLACEMENT_3D('',#640,#528,#529);
#430=AXIS2_PLACEMENT_3D('',#641,#530,#531);
#431=AXIS2_PLACEMENT_3D('',#642,#532,#533);
#432=AXIS2_PLACEMENT_3D('',#644,#534,#535);
#433=AXIS2_PLACEMENT_3D('',#647,#537,#538);
#434=AXIS2_PLACEMENT_3D('',#648,#539,#540);
#435=AXIS2_PLACEMENT_3D('',#650,#541,#542);
#436=AXIS2_PLACEMENT_3D('',#653,#544,#545);
#437=AXIS2_PLACEMENT_3D('',#654,#546,#547);
#438=AXIS2_PLACEMENT_3D('',#655,#548,#549);
#439=DIRECTION('axis',(0.,0.,1.));
#440=DIRECTION('refdir',(1.,0.,0.));
#441=DIRECTION('center_axis',(1.03276560430247E-15,-0.984807753012208,0.17364817766693));
#442=DIRECTION('ref_axis',(1.,1.01707557416141E-15,-1.7933786514421E-16));
#443=DIRECTION('center_axis',(1.03276560430247E-15,-0.984807753012208,0.17364817766693));
#444=DIRECTION('ref_axis',(1.,1.01707557416141E-15,-1.7933786514421E-16));
#445=DIRECTION('',(-1.03276560430247E-15,0.984807753012208,-0.17364817766693));
#446=DIRECTION('center_axis',(-1.03276560430247E-15,0.984807753012208,-0.17364817766693));
#447=DIRECTION('ref_axis',(1.,1.01707557416141E-15,-1.7933786514421E-16));
#448=DIRECTION('center_axis',(4.02158212363673E-16,-0.984807753012208,0.17364817766693));
#449=DIRECTION('ref_axis',(1.,4.02158212363673E-16,-3.51842845256725E-17));
#450=DIRECTION('center_axis',(-1.03276560430247E-15,0.984807753012208,-0.17364817766693));
#451=DIRECTION('ref_axis',(1.,4.02158212363673E-16,-3.51842845256725E-17));
#452=DIRECTION('',(-4.02158212363673E-16,0.984807753012208,-0.17364817766693));
#453=DIRECTION('center_axis',(-4.02158212363673E-16,0.984807753012208,-0.17364817766693));
#454=DIRECTION('ref_axis',(1.,4.02158212363673E-16,-3.51842845256725E-17));
#455=DIRECTION('',(4.02158212363673E-16,-0.984807753012208,0.17364817766693));
#456=DIRECTION('center_axis',(4.02158212363673E-16,-0.984807753012208,0.17364817766693));
#457=DIRECTION('ref_axis',(1.,4.02158212363673E-16,-3.51842845256725E-17));
#458=DIRECTION('center_axis',(-1.03276560430247E-15,0.984807753012208,-0.17364817766693));
#459=DIRECTION('ref_axis',(1.,4.02158212363673E-16,-3.51842845256725E-17));
#460=DIRECTION('',(-4.02158212363673E-16,0.984807753012208,-0.17364817766693));
#461=DIRECTION('center_axis',(-4.02158212363673E-16,0.984807753012208,-0.17364817766693));
#462=DIRECTION('ref_axis',(1.,4.02158212363673E-16,-3.51842845256725E-17));
#463=DIRECTION('',(4.02158212363673E-16,-0.984807753012208,0.17364817766693));
#464=DIRECTION('center_axis',(4.02158212363673E-16,-0.984807753012208,0.17364817766693));
#465=DIRECTION('ref_axis',(-1.,-5.35123007891936E-16,-7.18896543002952E-16));
#466=DIRECTION('center_axis',(-1.03276560430247E-15,0.984807753012208,-0.17364817766693));
#467=DIRECTION('ref_axis',(1.,4.02158212363673E-16,-3.51842845256725E-17));
#468=DIRECTION('',(-4.02158212363673E-16,0.984807753012208,-0.17364817766693));
#469=DIRECTION('center_axis',(-4.02158212363673E-16,0.984807753012208,-0.17364817766693));
#470=DIRECTION('ref_axis',(1.,4.02158212363673E-16,-3.51842845256725E-17));
#471=DIRECTION('',(4.02158212363673E-16,-0.984807753012208,0.17364817766693));
#472=DIRECTION('center_axis',(4.02158212363673E-16,-0.984807753012208,0.17364817766693));
#473=DIRECTION('ref_axis',(1.,4.02158212363673E-16,-3.51842845256725E-17));
#474=DIRECTION('',(-3.51842845256724E-17,0.17364817766693,0.984807753012208));
#475=DIRECTION('center_axis',(-1.03276560430247E-15,0.984807753012208,-0.17364817766693));
#476=DIRECTION('ref_axis',(1.,4.02158212363673E-16,-3.51842845256725E-17));
#477=DIRECTION('',(-1.,-4.02158212363673E-16,3.51842845256725E-17));
#478=DIRECTION('',(1.,4.02158212363673E-16,-3.51842845256725E-17));
#479=DIRECTION('',(3.51842845256724E-17,-0.17364817766693,-0.984807753012208));
#480=DIRECTION('center_axis',(1.,4.02158212363673E-16,-3.51842845256725E-17));
#481=DIRECTION('ref_axis',(-4.02158212363673E-16,0.984807753012208,-0.17364817766693));
#482=DIRECTION('',(-3.51842845256724E-17,0.17364817766693,0.984807753012208));
#483=DIRECTION('',(-4.02158212363673E-16,0.984807753012208,-0.17364817766693));
#484=DIRECTION('',(3.51842845256724E-17,-0.17364817766693,-0.984807753012208));
#485=DIRECTION('',(-4.02158212363673E-16,0.984807753012208,-0.17364817766693));
#486=DIRECTION('',(-3.51842845256724E-17,0.17364817766693,0.984807753012208));
#487=DIRECTION('center_axis',(-3.51842845256724E-17,0.17364817766693,0.984807753012208));
#488=DIRECTION('ref_axis',(4.02158212363673E-16,-0.984807753012208,0.17364817766693));
#489=DIRECTION('',(-1.,-4.02158212363673E-16,3.51842845256725E-17));
#490=DIRECTION('',(-1.,-4.02158212363673E-16,3.51842845256725E-17));
#491=DIRECTION('',(-4.02158212363673E-16,0.984807753012208,-0.17364817766693));
#492=DIRECTION('',(1.,4.02158212363673E-16,-3.51842845256725E-17));
#493=DIRECTION('center_axis',(3.51842845256724E-17,-0.17364817766693,-0.984807753012208));
#494=DIRECTION('ref_axis',(-4.02158212363673E-16,0.984807753012208,-0.17364817766693));
#495=DIRECTION('',(1.,4.02158212363673E-16,-3.51842845256725E-17));
#496=DIRECTION('',(-4.02158212363673E-16,0.984807753012208,-0.17364817766693));
#497=DIRECTION('',(4.02158212363673E-16,-0.984807753012208,0.17364817766693));
#498=DIRECTION('',(1.,4.02158212363673E-16,-3.51842845256725E-17));
#499=DIRECTION('',(-1.,-4.02158212363673E-16,3.51842845256725E-17));
#500=DIRECTION('',(-4.02158212363673E-16,0.984807753012208,-0.17364817766693));
#501=DIRECTION('center_axis',(-1.,-4.02158212363673E-16,3.51842845256725E-17));
#502=DIRECTION('ref_axis',(4.02158212363673E-16,-0.984807753012208,0.17364817766693));
#503=DIRECTION('',(3.51842845256724E-17,-0.17364817766693,-0.984807753012208));
#504=DIRECTION('',(3.51842845256724E-17,-0.17364817766693,-0.984807753012208));
#505=DIRECTION('',(-3.51842845256724E-17,0.17364817766693,0.984807753012208));
#506=DIRECTION('center_axis',(4.02158212363673E-16,-0.984807753012208,0.17364817766693));
#507=DIRECTION('ref_axis',(1.,4.02158212363673E-16,-3.51842845256725E-17));
#508=DIRECTION('center_axis',(4.02158212363673E-16,-0.984807753012208,0.17364817766693));
#509=DIRECTION('ref_axis',(1.,4.02158212363673E-16,-3.51842845256725E-17));
#510=DIRECTION('center_axis',(-4.02158212363673E-16,0.984807753012208,-0.17364817766693));
#511=DIRECTION('ref_axis',(1.,4.02158212363673E-16,-3.51842845256725E-17));
#512=DIRECTION('center_axis',(4.02158212363673E-16,-0.984807753012208,0.17364817766693));
#513=DIRECTION('ref_axis',(1.,4.02158212363673E-16,-3.51842845256725E-17));
#514=DIRECTION('center_axis',(4.02158212363673E-16,-0.984807753012208,0.17364817766693));
#515=DIRECTION('ref_axis',(1.,4.02158212363673E-16,-3.51842845256725E-17));
#516=DIRECTION('',(-4.02158212363673E-16,0.984807753012208,-0.17364817766693));
#517=DIRECTION('center_axis',(-4.02158212363673E-16,0.984807753012208,-0.17364817766693));
#518=DIRECTION('ref_axis',(1.,4.02158212363673E-16,-3.51842845256725E-17));
#519=DIRECTION('center_axis',(4.02158212363673E-16,-0.984807753012208,0.17364817766693));
#520=DIRECTION('ref_axis',(1.,4.02158212363673E-16,-3.51842845256725E-17));
#521=DIRECTION('center_axis',(4.02158212363673E-16,-0.984807753012208,0.17364817766693));
#522=DIRECTION('ref_axis',(1.,4.02158212363673E-16,-3.51842845256725E-17));
#523=DIRECTION('center_axis',(4.02158212363673E-16,-0.984807753012208,0.17364817766693));
#524=DIRECTION('ref_axis',(1.,4.02158212363673E-16,-3.51842845256725E-17));
#525=DIRECTION('center_axis',(4.02158212363673E-16,-0.984807753012208,0.17364817766693));
#526=DIRECTION('ref_axis',(1.,4.02158212363673E-16,-3.51842845256725E-17));
#527=DIRECTION('',(-4.02158212363673E-16,0.984807753012208,-0.17364817766693));
#528=DIRECTION('center_axis',(-4.02158212363673E-16,0.984807753012208,-0.17364817766693));
#529=DIRECTION('ref_axis',(1.,4.02158212363673E-16,-3.51842845256725E-17));
#530=DIRECTION('center_axis',(-4.02158212363673E-16,0.984807753012208,-0.17364817766693));
#531=DIRECTION('ref_axis',(-1.,-4.02158212363673E-16,3.51842845256725E-17));
#532=DIRECTION('center_axis',(0.,-0.984807753012208,0.17364817766693));
#533=DIRECTION('ref_axis',(1.,0.,0.));
#534=DIRECTION('center_axis',(4.02158212363673E-16,-0.984807753012208,0.17364817766693));
#535=DIRECTION('ref_axis',(1.,0.,0.));
#536=DIRECTION('',(0.,-0.984807753012208,0.17364817766693));
#537=DIRECTION('center_axis',(-4.02158212363673E-16,0.984807753012208,-0.17364817766693));
#538=DIRECTION('ref_axis',(1.,0.,0.));
#539=DIRECTION('center_axis',(4.02158212363673E-16,-0.984807753012208,0.17364817766693));
#540=DIRECTION('ref_axis',(1.,4.02158212363673E-16,-3.51842845256725E-17));
#541=DIRECTION('center_axis',(4.02158212363673E-16,-0.984807753012208,0.17364817766693));
#542=DIRECTION('ref_axis',(1.,4.02158212363673E-16,-3.51842845256725E-17));
#543=DIRECTION('',(-4.02158212363673E-16,0.984807753012208,-0.17364817766693));
#544=DIRECTION('center_axis',(-4.02158212363673E-16,0.984807753012208,-0.17364817766693));
#545=DIRECTION('ref_axis',(1.,4.02158212363673E-16,-3.51842845256725E-17));
#546=DIRECTION('center_axis',(-4.02158212363673E-16,0.984807753012208,-0.17364817766693));
#547=DIRECTION('ref_axis',(-1.,-4.02158212363673E-16,3.51842845256725E-17));
#548=DIRECTION('center_axis',(4.02158212363673E-16,-0.984807753012208,0.17364817766693));
#549=DIRECTION('ref_axis',(1.,4.02158212363673E-16,-3.51842845256725E-17));
#550=CARTESIAN_POINT('',(0.,0.,0.));
#551=CARTESIAN_POINT('Origin',(63.,199.3703302507,3.75404981545534));
#552=CARTESIAN_POINT('',(52.15,190.900983574795,5.24742414339095));
#553=CARTESIAN_POINT('Origin',(63.,190.900983574795,5.24742414339094));
#554=CARTESIAN_POINT('',(52.15,207.839676926605,2.26067548751974));
#555=CARTESIAN_POINT('',(52.15,199.3703302507,3.75404981545534));
#556=CARTESIAN_POINT('Origin',(63.,207.839676926605,2.26067548751974));
#557=CARTESIAN_POINT('Origin',(63.,200.428998585188,3.56737802446339));
#558=CARTESIAN_POINT('',(68.766064515768,206.52863318522,-5.17462304772247));
#559=CARTESIAN_POINT('',(57.2339354842319,206.52863318522,-5.17462304772247));
#560=CARTESIAN_POINT('Origin',(63.,207.839676926605,2.26067548751974));
#561=CARTESIAN_POINT('',(57.2339354842319,208.350527528293,-5.49587217640628));
#562=CARTESIAN_POINT('',(57.2339354842319,199.117954843803,-3.86792051077881));
#563=CARTESIAN_POINT('',(68.766064515768,208.350527528293,-5.49587217640628));
#564=CARTESIAN_POINT('Origin',(63.,209.661571269678,1.93942635883593));
#565=CARTESIAN_POINT('',(68.766064515768,199.117954843803,-3.86792051077881));
#566=CARTESIAN_POINT('Origin',(63.,200.428998585188,3.56737802446339));
#567=CARTESIAN_POINT('',(70.75,208.793754756246,7.67151973726367));
#568=CARTESIAN_POINT('',(70.75,206.885599096964,-3.15016876222423));
#569=CARTESIAN_POINT('Origin',(63.,207.839676926605,2.26067548751974));
#570=CARTESIAN_POINT('',(70.75,208.707493440037,-3.47141789090804));
#571=CARTESIAN_POINT('',(70.75,199.474920755547,-1.84346622528057));
#572=CARTESIAN_POINT('',(70.75,210.615649099319,7.35027060857984));
#573=CARTESIAN_POINT('Origin',(63.,209.661571269678,1.93942635883593));
#574=CARTESIAN_POINT('',(70.75,201.38307641483,8.97822227420733));
#575=CARTESIAN_POINT('Origin',(63.,200.428998585188,3.56737802446339));
#576=CARTESIAN_POINT('',(55.25,206.885599096964,-3.15016876222423));
#577=CARTESIAN_POINT('',(55.25,208.793754756246,7.67151973726367));
#578=CARTESIAN_POINT('Origin',(63.,207.839676926605,2.26067548751974));
#579=CARTESIAN_POINT('',(55.25,210.615649099319,7.35027060857984));
#580=CARTESIAN_POINT('',(55.25,201.38307641483,8.97822227420733));
#581=CARTESIAN_POINT('',(55.25,208.707493440037,-3.47141789090804));
#582=CARTESIAN_POINT('Origin',(63.,209.661571269678,1.93942635883593));
#583=CARTESIAN_POINT('',(55.25,199.474920755547,-1.84346622528057));
#584=CARTESIAN_POINT('Origin',(63.,207.700758384472,1.47282928510997));
#585=CARTESIAN_POINT('',(70.75,207.700758384472,1.47282928510997));
#586=CARTESIAN_POINT('',(55.5940901976867,208.872883583724,8.12028161794235));
#587=CARTESIAN_POINT('',(70.4059098023133,208.872883583724,8.12028161794235));
#588=CARTESIAN_POINT('Origin',(63.,207.839676926605,2.26067548751974));
#589=CARTESIAN_POINT('',(63.,208.872883583724,8.12028161794235));
#590=CARTESIAN_POINT('',(63.,206.52863318522,-5.17462304772247));
#591=CARTESIAN_POINT('',(55.25,207.700758384472,1.47282928510997));
#592=CARTESIAN_POINT('Origin',(55.25,209.9658162164,1.07343847647602));
#593=CARTESIAN_POINT('',(55.25,208.350527528293,-5.49587217640628));
#594=CARTESIAN_POINT('',(55.25,209.592111998611,1.54550325763102));
#595=CARTESIAN_POINT('',(55.25,210.743610368112,-5.91783724813693));
#596=CARTESIAN_POINT('',(55.25,208.793691017148,-5.57401385635641));
#597=CARTESIAN_POINT('',(55.25,213.087860766616,7.37706741752788));
#598=CARTESIAN_POINT('',(55.25,211.985194838431,1.12353818590037));
#599=CARTESIAN_POINT('',(55.25,210.694777926796,7.79903248925851));
#600=CARTESIAN_POINT('',(55.25,211.137941415652,7.7208908093084));
#601=CARTESIAN_POINT('',(55.25,209.592111998611,1.54550325763102));
#602=CARTESIAN_POINT('Origin',(63.,208.793691017148,-5.57401385635641));
#603=CARTESIAN_POINT('',(63.,208.350527528293,-5.49587217640628));
#604=CARTESIAN_POINT('',(70.75,208.350527528293,-5.49587217640628));
#605=CARTESIAN_POINT('',(63.,208.350527528293,-5.49587217640628));
#606=CARTESIAN_POINT('',(70.75,210.743610368112,-5.91783724813693));
#607=CARTESIAN_POINT('',(70.75,208.793691017148,-5.57401385635641));
#608=CARTESIAN_POINT('',(63.,210.743610368112,-5.91783724813693));
#609=CARTESIAN_POINT('Origin',(63.,211.137941415652,7.7208908093084));
#610=CARTESIAN_POINT('',(70.4059098023133,210.694777926796,7.79903248925851));
#611=CARTESIAN_POINT('',(70.75,210.694777926796,7.79903248925851));
#612=CARTESIAN_POINT('',(63.,210.694777926796,7.79903248925851));
#613=CARTESIAN_POINT('',(70.4059098023133,201.462205242307,9.426984154886));
#614=CARTESIAN_POINT('',(55.5940901976867,210.694777926796,7.79903248925851));
#615=CARTESIAN_POINT('',(55.5940901976867,201.462205242307,9.426984154886));
#616=CARTESIAN_POINT('',(63.,210.694777926796,7.79903248925851));
#617=CARTESIAN_POINT('',(70.75,213.087860766616,7.37706741752788));
#618=CARTESIAN_POINT('',(63.,213.087860766616,7.37706741752788));
#619=CARTESIAN_POINT('',(70.75,211.137941415652,7.7208908093084));
#620=CARTESIAN_POINT('Origin',(70.75,209.9658162164,1.07343847647602));
#621=CARTESIAN_POINT('',(70.75,209.592111998611,1.54550325763102));
#622=CARTESIAN_POINT('',(70.75,209.592111998611,1.54550325763102));
#623=CARTESIAN_POINT('',(70.75,211.985194838431,1.12353818590037));
#624=CARTESIAN_POINT('Origin',(63.,209.661571269678,1.93942635883593));
#625=CARTESIAN_POINT('',(50.,209.661571269678,1.93942635883591));
#626=CARTESIAN_POINT('Origin',(63.,209.661571269678,1.93942635883593));
#627=CARTESIAN_POINT('Origin',(63.,209.661571269678,1.93942635883593));
#628=CARTESIAN_POINT('Origin',(63.,188.182914176482,5.72669311375165));
#629=CARTESIAN_POINT('',(54.5,185.464844778168,6.20596208411238));
#630=CARTESIAN_POINT('Origin',(63.,185.464844778168,6.20596208411239));
#631=CARTESIAN_POINT('',(54.5,190.900983574795,5.24742414339092));
#632=CARTESIAN_POINT('',(54.5,188.182914176482,5.72669311375165));
#633=CARTESIAN_POINT('Origin',(63.,190.900983574795,5.24742414339094));
#634=CARTESIAN_POINT('Origin',(63.,185.464844778168,6.20596208411239));
#635=CARTESIAN_POINT('Origin',(63.,200.428998585188,3.56737802446339));
#636=CARTESIAN_POINT('Origin',(63.,190.900983574795,5.24742414339094));
#637=CARTESIAN_POINT('Origin',(63.,210.858112689588,1.72844382297059));
#638=CARTESIAN_POINT('',(50.,212.054654109498,1.51746128710527));
#639=CARTESIAN_POINT('',(50.,210.858112689588,1.72844382297059));
#640=CARTESIAN_POINT('Origin',(63.,212.054654109498,1.51746128710528));
#641=CARTESIAN_POINT('Origin',(63.,212.054654109498,1.51746128710528));
#642=CARTESIAN_POINT('Origin',(63.,205.722340257629,2.63401906950364));
#643=CARTESIAN_POINT('',(52.05,207.199551887147,2.37354680300324));
#644=CARTESIAN_POINT('Origin',(63.,207.199551887147,2.37354680300325));
#645=CARTESIAN_POINT('',(52.05,204.245128628111,2.89449133600404));
#646=CARTESIAN_POINT('',(52.05,205.722340257629,2.63401906950364));
#647=CARTESIAN_POINT('Origin',(63.,204.245128628111,2.89449133600403));
#648=CARTESIAN_POINT('Origin',(63.,205.722340257629,2.63401906950364));
#649=CARTESIAN_POINT('',(51.,204.245128628111,2.89449133600403));
#650=CARTESIAN_POINT('Origin',(63.,204.245128628111,2.89449133600403));
#651=CARTESIAN_POINT('',(51.,207.199551887147,2.37354680300324));
#652=CARTESIAN_POINT('',(51.,205.722340257629,2.63401906950364));
#653=CARTESIAN_POINT('Origin',(63.,207.199551887147,2.37354680300324));
#654=CARTESIAN_POINT('Origin',(63.,207.199551887147,2.37354680300324));
#655=CARTESIAN_POINT('Origin',(63.,204.245128628111,2.89449133600403));
#656=UNCERTAINTY_MEASURE_WITH_UNIT(LENGTH_MEASURE(0.01),#660,
'DISTANCE_ACCURACY_VALUE',
'Maximum model space distance between geometric entities at asserted c
onnectivities');
#657=UNCERTAINTY_MEASURE_WITH_UNIT(LENGTH_MEASURE(0.01),#660,
'DISTANCE_ACCURACY_VALUE',
'Maximum model space distance between geometric entities at asserted c
onnectivities');
#658=(
GEOMETRIC_REPRESENTATION_CONTEXT(3)
GLOBAL_UNCERTAINTY_ASSIGNED_CONTEXT((#656))
GLOBAL_UNIT_ASSIGNED_CONTEXT((#660,#662,#663))
REPRESENTATION_CONTEXT('','3D')
);
#659=(
GEOMETRIC_REPRESENTATION_CONTEXT(3)
GLOBAL_UNCERTAINTY_ASSIGNED_CONTEXT((#657))
GLOBAL_UNIT_ASSIGNED_CONTEXT((#660,#662,#663))
REPRESENTATION_CONTEXT('','3D')
);
#660=(
LENGTH_UNIT()
NAMED_UNIT(*)
SI_UNIT(.MILLI.,.METRE.)
);
#661=(
LENGTH_UNIT()
NAMED_UNIT(*)
SI_UNIT($,.METRE.)
);
#662=(
NAMED_UNIT(*)
PLANE_ANGLE_UNIT()
SI_UNIT($,.RADIAN.)
);
#663=(
NAMED_UNIT(*)
SI_UNIT($,.STERADIAN.)
SOLID_ANGLE_UNIT()
);
#664=SHAPE_DEFINITION_REPRESENTATION(#665,#666);
#665=PRODUCT_DEFINITION_SHAPE('',$,#668);
#666=SHAPE_REPRESENTATION('',(#400),#658);
#667=PRODUCT_DEFINITION_CONTEXT('part definition',#672,'design');
#668=PRODUCT_DEFINITION('(Unsaved)','(Unsaved)',#669,#667);
#669=PRODUCT_DEFINITION_FORMATION('',$,#674);
#670=PRODUCT_RELATED_PRODUCT_CATEGORY('(Unsaved)','(Unsaved)',(#674));
#671=APPLICATION_PROTOCOL_DEFINITION('international standard',
'automotive_design',2009,#672);
#672=APPLICATION_CONTEXT(
'Core Data for Automotive Mechanical Design Process');
#673=PRODUCT_CONTEXT('part definition',#672,'mechanical');
#674=PRODUCT('(Unsaved)','(Unsaved)',$,(#673));
#675=PRESENTATION_STYLE_ASSIGNMENT((#676));
#676=SURFACE_STYLE_USAGE(.BOTH.,#677);
#677=SURFACE_SIDE_STYLE('',(#678));
#678=SURFACE_STYLE_FILL_AREA(#679);
#679=FILL_AREA_STYLE('Steel - Satin',(#680));
#680=FILL_AREA_STYLE_COLOUR('Steel - Satin',#681);
#681=COLOUR_RGB('Steel - Satin',0.627450980392157,0.627450980392157,0.627450980392157);
ENDSEC;
END-ISO-10303-21;
