ISO-10303-21;
HEADER;
/* Generated by software containing ST-Developer
 * from STEP Tools, Inc. (www.steptools.com) 
 */

FILE_DESCRIPTION(
/* description */ (''),
/* implementation_level */ '2;1');

FILE_NAME(
/* name */ 'reference-roadom-7in-screen-with-pi-outline.step',
/* time_stamp */ '2026-09-11T16:58:00-07:00',
/* author */ (''),
/* organization */ (''),
/* preprocessor_version */ 'ST-DEVELOPER v20.2',
/* originating_system */ 'Autodesk Translation Framework v15.15.0.0',
/* authorisation */ '');

FILE_SCHEMA (('AUTOMOTIVE_DESIGN { 1 0 10303 214 3 1 1 }'));
ENDSEC;

DATA;
#10=MECHANICAL_DESIGN_GEOMETRIC_PRESENTATION_REPRESENTATION('',(#13,#14,
#15,#16,#17,#18,#19),#1965);
#11=SHAPE_REPRESENTATION_RELATIONSHIP('SRR','None',#1972,#12);
#12=ADVANCED_BREP_SHAPE_REPRESENTATION('',(#20,#21,#22,#23,#24,#25,#26),
#1964);
#13=STYLED_ITEM('',(#1981),#20);
#14=STYLED_ITEM('',(#1981),#21);
#15=STYLED_ITEM('',(#1981),#22);
#16=STYLED_ITEM('',(#1981),#23);
#17=STYLED_ITEM('',(#1981),#24);
#18=STYLED_ITEM('',(#1981),#25);
#19=STYLED_ITEM('',(#1981),#26);
#20=MANIFOLD_SOLID_BREP('reference-roadom-7in-screen-with-pi-outline 1',
#1163);
#21=MANIFOLD_SOLID_BREP('reference-roadom-7in-screen-with-pi-outline 2',
#1164);
#22=MANIFOLD_SOLID_BREP('reference-roadom-7in-screen-with-pi-outline 3',
#1165);
#23=MANIFOLD_SOLID_BREP('reference-roadom-7in-screen-with-pi-outline 4',
#1166);
#24=MANIFOLD_SOLID_BREP('reference-roadom-7in-screen-with-pi-outline 5',
#1167);
#25=MANIFOLD_SOLID_BREP('reference-roadom-7in-screen-with-pi-outline 6',
#1168);
#26=MANIFOLD_SOLID_BREP('reference-roadom-7in-screen-with-pi-outline 7',
#1169);
#27=CYLINDRICAL_SURFACE('',#1204,3.99999999999999);
#28=CYLINDRICAL_SURFACE('',#1210,1.5);
#29=CYLINDRICAL_SURFACE('',#1215,1.49999999999999);
#30=CYLINDRICAL_SURFACE('',#1219,1.5);
#31=CYLINDRICAL_SURFACE('',#1221,1.49999999999999);
#32=CYLINDRICAL_SURFACE('',#1222,4.);
#33=CYLINDRICAL_SURFACE('',#1223,3.99999999999999);
#34=CYLINDRICAL_SURFACE('',#1224,4.);
#35=CYLINDRICAL_SURFACE('',#1231,1.35);
#36=CYLINDRICAL_SURFACE('',#1234,3.);
#37=CYLINDRICAL_SURFACE('',#1239,1.35);
#38=CYLINDRICAL_SURFACE('',#1242,3.);
#39=CYLINDRICAL_SURFACE('',#1247,1.35);
#40=CYLINDRICAL_SURFACE('',#1250,3.);
#41=CYLINDRICAL_SURFACE('',#1255,1.35);
#42=CYLINDRICAL_SURFACE('',#1258,3.);
#43=CYLINDRICAL_SURFACE('',#1263,2.3);
#44=CYLINDRICAL_SURFACE('',#1267,2.3);
#45=CYLINDRICAL_SURFACE('',#1271,2.3);
#46=CYLINDRICAL_SURFACE('',#1274,2.3);
#47=CYLINDRICAL_SURFACE('',#1279,3.);
#48=CYLINDRICAL_SURFACE('',#1286,3.);
#49=CYLINDRICAL_SURFACE('',#1288,3.);
#50=CYLINDRICAL_SURFACE('',#1292,3.);
#51=FACE_BOUND('',#136,.T.);
#52=FACE_BOUND('',#137,.T.);
#53=FACE_BOUND('',#138,.T.);
#54=FACE_BOUND('',#139,.T.);
#55=FACE_BOUND('',#141,.T.);
#56=FACE_BOUND('',#142,.T.);
#57=FACE_BOUND('',#143,.T.);
#58=FACE_BOUND('',#144,.T.);
#59=FACE_BOUND('',#178,.T.);
#60=FACE_BOUND('',#180,.T.);
#61=FACE_BOUND('',#184,.T.);
#62=FACE_BOUND('',#186,.T.);
#63=FACE_BOUND('',#190,.T.);
#64=FACE_BOUND('',#192,.T.);
#65=FACE_BOUND('',#196,.T.);
#66=FACE_BOUND('',#198,.T.);
#67=FACE_BOUND('',#209,.T.);
#68=FACE_BOUND('',#213,.T.);
#69=FACE_OUTER_BOUND('',#135,.T.);
#70=FACE_OUTER_BOUND('',#140,.T.);
#71=FACE_OUTER_BOUND('',#145,.T.);
#72=FACE_OUTER_BOUND('',#146,.T.);
#73=FACE_OUTER_BOUND('',#147,.T.);
#74=FACE_OUTER_BOUND('',#148,.T.);
#75=FACE_OUTER_BOUND('',#149,.T.);
#76=FACE_OUTER_BOUND('',#150,.T.);
#77=FACE_OUTER_BOUND('',#151,.T.);
#78=FACE_OUTER_BOUND('',#152,.T.);
#79=FACE_OUTER_BOUND('',#153,.T.);
#80=FACE_OUTER_BOUND('',#154,.T.);
#81=FACE_OUTER_BOUND('',#155,.T.);
#82=FACE_OUTER_BOUND('',#156,.T.);
#83=FACE_OUTER_BOUND('',#157,.T.);
#84=FACE_OUTER_BOUND('',#158,.T.);
#85=FACE_OUTER_BOUND('',#159,.T.);
#86=FACE_OUTER_BOUND('',#160,.T.);
#87=FACE_OUTER_BOUND('',#161,.T.);
#88=FACE_OUTER_BOUND('',#162,.T.);
#89=FACE_OUTER_BOUND('',#163,.T.);
#90=FACE_OUTER_BOUND('',#164,.T.);
#91=FACE_OUTER_BOUND('',#165,.T.);
#92=FACE_OUTER_BOUND('',#166,.T.);
#93=FACE_OUTER_BOUND('',#167,.T.);
#94=FACE_OUTER_BOUND('',#168,.T.);
#95=FACE_OUTER_BOUND('',#169,.T.);
#96=FACE_OUTER_BOUND('',#170,.T.);
#97=FACE_OUTER_BOUND('',#171,.T.);
#98=FACE_OUTER_BOUND('',#172,.T.);
#99=FACE_OUTER_BOUND('',#173,.T.);
#100=FACE_OUTER_BOUND('',#174,.T.);
#101=FACE_OUTER_BOUND('',#175,.T.);
#102=FACE_OUTER_BOUND('',#176,.T.);
#103=FACE_OUTER_BOUND('',#177,.T.);
#104=FACE_OUTER_BOUND('',#179,.T.);
#105=FACE_OUTER_BOUND('',#181,.T.);
#106=FACE_OUTER_BOUND('',#182,.T.);
#107=FACE_OUTER_BOUND('',#183,.T.);
#108=FACE_OUTER_BOUND('',#185,.T.);
#109=FACE_OUTER_BOUND('',#187,.T.);
#110=FACE_OUTER_BOUND('',#188,.T.);
#111=FACE_OUTER_BOUND('',#189,.T.);
#112=FACE_OUTER_BOUND('',#191,.T.);
#113=FACE_OUTER_BOUND('',#193,.T.);
#114=FACE_OUTER_BOUND('',#194,.T.);
#115=FACE_OUTER_BOUND('',#195,.T.);
#116=FACE_OUTER_BOUND('',#197,.T.);
#117=FACE_OUTER_BOUND('',#199,.T.);
#118=FACE_OUTER_BOUND('',#200,.T.);
#119=FACE_OUTER_BOUND('',#201,.T.);
#120=FACE_OUTER_BOUND('',#202,.T.);
#121=FACE_OUTER_BOUND('',#203,.T.);
#122=FACE_OUTER_BOUND('',#204,.T.);
#123=FACE_OUTER_BOUND('',#205,.T.);
#124=FACE_OUTER_BOUND('',#206,.T.);
#125=FACE_OUTER_BOUND('',#207,.T.);
#126=FACE_OUTER_BOUND('',#208,.T.);
#127=FACE_OUTER_BOUND('',#210,.T.);
#128=FACE_OUTER_BOUND('',#211,.T.);
#129=FACE_OUTER_BOUND('',#212,.T.);
#130=FACE_OUTER_BOUND('',#214,.T.);
#131=FACE_OUTER_BOUND('',#215,.T.);
#132=FACE_OUTER_BOUND('',#216,.T.);
#133=FACE_OUTER_BOUND('',#217,.T.);
#134=FACE_OUTER_BOUND('',#218,.T.);
#135=EDGE_LOOP('',(#743,#744,#745,#746,#747,#748,#749,#750,#751,#752,#753,
#754,#755,#756,#757,#758,#759,#760,#761,#762));
#136=EDGE_LOOP('',(#763));
#137=EDGE_LOOP('',(#764));
#138=EDGE_LOOP('',(#765));
#139=EDGE_LOOP('',(#766));
#140=EDGE_LOOP('',(#767,#768,#769,#770,#771,#772,#773,#774,#775,#776,#777,
#778,#779,#780,#781,#782,#783,#784,#785,#786));
#141=EDGE_LOOP('',(#787));
#142=EDGE_LOOP('',(#788));
#143=EDGE_LOOP('',(#789));
#144=EDGE_LOOP('',(#790));
#145=EDGE_LOOP('',(#791,#792,#793,#794));
#146=EDGE_LOOP('',(#795,#796,#797,#798));
#147=EDGE_LOOP('',(#799,#800,#801,#802));
#148=EDGE_LOOP('',(#803,#804,#805,#806));
#149=EDGE_LOOP('',(#807,#808,#809,#810));
#150=EDGE_LOOP('',(#811,#812,#813,#814));
#151=EDGE_LOOP('',(#815,#816,#817,#818));
#152=EDGE_LOOP('',(#819,#820,#821,#822));
#153=EDGE_LOOP('',(#823,#824,#825,#826));
#154=EDGE_LOOP('',(#827,#828,#829,#830));
#155=EDGE_LOOP('',(#831,#832,#833,#834));
#156=EDGE_LOOP('',(#835,#836,#837,#838));
#157=EDGE_LOOP('',(#839,#840,#841,#842));
#158=EDGE_LOOP('',(#843,#844,#845,#846));
#159=EDGE_LOOP('',(#847,#848,#849,#850));
#160=EDGE_LOOP('',(#851,#852,#853,#854));
#161=EDGE_LOOP('',(#855,#856,#857,#858));
#162=EDGE_LOOP('',(#859,#860,#861,#862));
#163=EDGE_LOOP('',(#863,#864,#865,#866));
#164=EDGE_LOOP('',(#867,#868,#869,#870));
#165=EDGE_LOOP('',(#871,#872,#873,#874));
#166=EDGE_LOOP('',(#875,#876,#877,#878));
#167=EDGE_LOOP('',(#879,#880,#881,#882));
#168=EDGE_LOOP('',(#883,#884,#885,#886));
#169=EDGE_LOOP('',(#887,#888,#889,#890));
#170=EDGE_LOOP('',(#891,#892,#893,#894));
#171=EDGE_LOOP('',(#895,#896,#897,#898));
#172=EDGE_LOOP('',(#899,#900,#901,#902));
#173=EDGE_LOOP('',(#903,#904,#905,#906));
#174=EDGE_LOOP('',(#907,#908,#909,#910));
#175=EDGE_LOOP('',(#911,#912,#913,#914));
#176=EDGE_LOOP('',(#915,#916,#917,#918));
#177=EDGE_LOOP('',(#919));
#178=EDGE_LOOP('',(#920));
#179=EDGE_LOOP('',(#921));
#180=EDGE_LOOP('',(#922));
#181=EDGE_LOOP('',(#923,#924,#925,#926));
#182=EDGE_LOOP('',(#927,#928,#929,#930));
#183=EDGE_LOOP('',(#931));
#184=EDGE_LOOP('',(#932));
#185=EDGE_LOOP('',(#933));
#186=EDGE_LOOP('',(#934));
#187=EDGE_LOOP('',(#935,#936,#937,#938));
#188=EDGE_LOOP('',(#939,#940,#941,#942));
#189=EDGE_LOOP('',(#943));
#190=EDGE_LOOP('',(#944));
#191=EDGE_LOOP('',(#945));
#192=EDGE_LOOP('',(#946));
#193=EDGE_LOOP('',(#947,#948,#949,#950));
#194=EDGE_LOOP('',(#951,#952,#953,#954));
#195=EDGE_LOOP('',(#955));
#196=EDGE_LOOP('',(#956));
#197=EDGE_LOOP('',(#957));
#198=EDGE_LOOP('',(#958));
#199=EDGE_LOOP('',(#959,#960,#961,#962));
#200=EDGE_LOOP('',(#963,#964,#965,#966));
#201=EDGE_LOOP('',(#967,#968,#969,#970));
#202=EDGE_LOOP('',(#971,#972,#973,#974));
#203=EDGE_LOOP('',(#975,#976,#977,#978));
#204=EDGE_LOOP('',(#979,#980,#981,#982));
#205=EDGE_LOOP('',(#983,#984,#985,#986));
#206=EDGE_LOOP('',(#987,#988,#989,#990));
#207=EDGE_LOOP('',(#991,#992,#993,#994));
#208=EDGE_LOOP('',(#995,#996,#997,#998,#999,#1000,#1001,#1002));
#209=EDGE_LOOP('',(#1003,#1004,#1005,#1006,#1007,#1008,#1009,#1010));
#210=EDGE_LOOP('',(#1011,#1012,#1013,#1014));
#211=EDGE_LOOP('',(#1015,#1016,#1017,#1018));
#212=EDGE_LOOP('',(#1019,#1020,#1021,#1022,#1023,#1024,#1025,#1026));
#213=EDGE_LOOP('',(#1027,#1028,#1029,#1030,#1031,#1032,#1033,#1034));
#214=EDGE_LOOP('',(#1035,#1036,#1037,#1038));
#215=EDGE_LOOP('',(#1039,#1040,#1041,#1042));
#216=EDGE_LOOP('',(#1043,#1044,#1045,#1046));
#217=EDGE_LOOP('',(#1047,#1048,#1049,#1050));
#218=EDGE_LOOP('',(#1051,#1052,#1053,#1054));
#219=CIRCLE('',#1184,3.99999999999999);
#220=CIRCLE('',#1185,4.);
#221=CIRCLE('',#1186,4.);
#222=CIRCLE('',#1187,3.99999999999999);
#223=CIRCLE('',#1188,1.49999999999999);
#224=CIRCLE('',#1189,1.49999999999999);
#225=CIRCLE('',#1190,1.5);
#226=CIRCLE('',#1191,1.5);
#227=CIRCLE('',#1193,3.99999999999999);
#228=CIRCLE('',#1194,4.);
#229=CIRCLE('',#1195,4.);
#230=CIRCLE('',#1196,3.99999999999999);
#231=CIRCLE('',#1197,1.5);
#232=CIRCLE('',#1198,1.5);
#233=CIRCLE('',#1199,1.49999999999999);
#234=CIRCLE('',#1200,1.49999999999999);
#235=CIRCLE('',#1232,1.35);
#236=CIRCLE('',#1233,1.35);
#237=CIRCLE('',#1235,3.);
#238=CIRCLE('',#1236,3.);
#239=CIRCLE('',#1240,1.35);
#240=CIRCLE('',#1241,1.35);
#241=CIRCLE('',#1243,3.);
#242=CIRCLE('',#1244,3.);
#243=CIRCLE('',#1248,1.35);
#244=CIRCLE('',#1249,1.35);
#245=CIRCLE('',#1251,3.);
#246=CIRCLE('',#1252,3.);
#247=CIRCLE('',#1256,1.35);
#248=CIRCLE('',#1257,1.35);
#249=CIRCLE('',#1259,3.);
#250=CIRCLE('',#1260,3.);
#251=CIRCLE('',#1264,2.3);
#252=CIRCLE('',#1265,2.3);
#253=CIRCLE('',#1268,2.3);
#254=CIRCLE('',#1269,2.3);
#255=CIRCLE('',#1272,2.3);
#256=CIRCLE('',#1273,2.3);
#257=CIRCLE('',#1275,2.3);
#258=CIRCLE('',#1276,2.3);
#259=CIRCLE('',#1280,3.);
#260=CIRCLE('',#1281,3.);
#261=CIRCLE('',#1283,3.);
#262=CIRCLE('',#1284,3.);
#263=CIRCLE('',#1285,3.);
#264=CIRCLE('',#1287,3.);
#265=CIRCLE('',#1289,3.);
#266=CIRCLE('',#1291,3.);
#267=LINE('',#1639,#375);
#268=LINE('',#1641,#376);
#269=LINE('',#1643,#377);
#270=LINE('',#1645,#378);
#271=LINE('',#1647,#379);
#272=LINE('',#1651,#380);
#273=LINE('',#1653,#381);
#274=LINE('',#1655,#382);
#275=LINE('',#1659,#383);
#276=LINE('',#1661,#384);
#277=LINE('',#1663,#385);
#278=LINE('',#1665,#386);
#279=LINE('',#1667,#387);
#280=LINE('',#1671,#388);
#281=LINE('',#1673,#389);
#282=LINE('',#1675,#390);
#283=LINE('',#1690,#391);
#284=LINE('',#1692,#392);
#285=LINE('',#1694,#393);
#286=LINE('',#1698,#394);
#287=LINE('',#1700,#395);
#288=LINE('',#1702,#396);
#289=LINE('',#1704,#397);
#290=LINE('',#1706,#398);
#291=LINE('',#1710,#399);
#292=LINE('',#1712,#400);
#293=LINE('',#1714,#401);
#294=LINE('',#1718,#402);
#295=LINE('',#1720,#403);
#296=LINE('',#1722,#404);
#297=LINE('',#1724,#405);
#298=LINE('',#1725,#406);
#299=LINE('',#1735,#407);
#300=LINE('',#1736,#408);
#301=LINE('',#1738,#409);
#302=LINE('',#1740,#410);
#303=LINE('',#1741,#411);
#304=LINE('',#1744,#412);
#305=LINE('',#1746,#413);
#306=LINE('',#1747,#414);
#307=LINE('',#1749,#415);
#308=LINE('',#1750,#416);
#309=LINE('',#1752,#417);
#310=LINE('',#1754,#418);
#311=LINE('',#1756,#419);
#312=LINE('',#1758,#420);
#313=LINE('',#1760,#421);
#314=LINE('',#1761,#422);
#315=LINE('',#1763,#423);
#316=LINE('',#1766,#424);
#317=LINE('',#1768,#425);
#318=LINE('',#1770,#426);
#319=LINE('',#1771,#427);
#320=LINE('',#1773,#428);
#321=LINE('',#1775,#429);
#322=LINE('',#1778,#430);
#323=LINE('',#1785,#431);
#324=LINE('',#1787,#432);
#325=LINE('',#1789,#433);
#326=LINE('',#1790,#434);
#327=LINE('',#1793,#435);
#328=LINE('',#1795,#436);
#329=LINE('',#1796,#437);
#330=LINE('',#1799,#438);
#331=LINE('',#1801,#439);
#332=LINE('',#1802,#440);
#333=LINE('',#1804,#441);
#334=LINE('',#1805,#442);
#335=LINE('',#1812,#443);
#336=LINE('',#1818,#444);
#337=LINE('',#1826,#445);
#338=LINE('',#1832,#446);
#339=LINE('',#1840,#447);
#340=LINE('',#1846,#448);
#341=LINE('',#1854,#449);
#342=LINE('',#1860,#450);
#343=LINE('',#1869,#451);
#344=LINE('',#1872,#452);
#345=LINE('',#1875,#453);
#346=LINE('',#1877,#454);
#347=LINE('',#1878,#455);
#348=LINE('',#1884,#456);
#349=LINE('',#1887,#457);
#350=LINE('',#1889,#458);
#351=LINE('',#1890,#459);
#352=LINE('',#1896,#460);
#353=LINE('',#1899,#461);
#354=LINE('',#1905,#462);
#355=LINE('',#1907,#463);
#356=LINE('',#1908,#464);
#357=LINE('',#1910,#465);
#358=LINE('',#1911,#466);
#359=LINE('',#1915,#467);
#360=LINE('',#1919,#468);
#361=LINE('',#1923,#469);
#362=LINE('',#1927,#470);
#363=LINE('',#1931,#471);
#364=LINE('',#1934,#472);
#365=LINE('',#1937,#473);
#366=LINE('',#1940,#474);
#367=LINE('',#1943,#475);
#368=LINE('',#1945,#476);
#369=LINE('',#1948,#477);
#370=LINE('',#1950,#478);
#371=LINE('',#1953,#479);
#372=LINE('',#1954,#480);
#373=LINE('',#1956,#481);
#374=LINE('',#1957,#482);
#375=VECTOR('',#1301,10.);
#376=VECTOR('',#1302,10.);
#377=VECTOR('',#1303,10.);
#378=VECTOR('',#1304,10.);
#379=VECTOR('',#1305,10.);
#380=VECTOR('',#1308,10.);
#381=VECTOR('',#1309,10.);
#382=VECTOR('',#1310,10.);
#383=VECTOR('',#1313,10.);
#384=VECTOR('',#1314,10.);
#385=VECTOR('',#1315,10.);
#386=VECTOR('',#1316,10.);
#387=VECTOR('',#1317,10.);
#388=VECTOR('',#1320,10.);
#389=VECTOR('',#1321,10.);
#390=VECTOR('',#1322,10.);
#391=VECTOR('',#1337,10.);
#392=VECTOR('',#1338,10.);
#393=VECTOR('',#1339,10.);
#394=VECTOR('',#1342,10.);
#395=VECTOR('',#1343,10.);
#396=VECTOR('',#1344,10.);
#397=VECTOR('',#1345,10.);
#398=VECTOR('',#1346,10.);
#399=VECTOR('',#1349,10.);
#400=VECTOR('',#1350,10.);
#401=VECTOR('',#1351,10.);
#402=VECTOR('',#1354,10.);
#403=VECTOR('',#1355,10.);
#404=VECTOR('',#1356,10.);
#405=VECTOR('',#1357,10.);
#406=VECTOR('',#1358,10.);
#407=VECTOR('',#1369,10.);
#408=VECTOR('',#1370,10.);
#409=VECTOR('',#1373,10.);
#410=VECTOR('',#1376,10.);
#411=VECTOR('',#1377,10.);
#412=VECTOR('',#1382,10.);
#413=VECTOR('',#1385,10.);
#414=VECTOR('',#1386,10.);
#415=VECTOR('',#1389,10.);
#416=VECTOR('',#1390,10.);
#417=VECTOR('',#1393,10.);
#418=VECTOR('',#1396,10.);
#419=VECTOR('',#1399,1.5);
#420=VECTOR('',#1402,10.);
#421=VECTOR('',#1405,10.);
#422=VECTOR('',#1406,10.);
#423=VECTOR('',#1409,10.);
#424=VECTOR('',#1414,1.49999999999999);
#425=VECTOR('',#1417,10.);
#426=VECTOR('',#1420,10.);
#427=VECTOR('',#1421,10.);
#428=VECTOR('',#1424,10.);
#429=VECTOR('',#1427,1.5);
#430=VECTOR('',#1432,1.49999999999999);
#431=VECTOR('',#1441,10.);
#432=VECTOR('',#1442,10.);
#433=VECTOR('',#1443,10.);
#434=VECTOR('',#1444,10.);
#435=VECTOR('',#1447,10.);
#436=VECTOR('',#1448,10.);
#437=VECTOR('',#1449,10.);
#438=VECTOR('',#1452,10.);
#439=VECTOR('',#1453,10.);
#440=VECTOR('',#1454,10.);
#441=VECTOR('',#1457,10.);
#442=VECTOR('',#1458,10.);
#443=VECTOR('',#1467,1.35);
#444=VECTOR('',#1474,3.);
#445=VECTOR('',#1485,1.35);
#446=VECTOR('',#1492,3.);
#447=VECTOR('',#1503,1.35);
#448=VECTOR('',#1510,3.);
#449=VECTOR('',#1521,1.35);
#450=VECTOR('',#1528,3.);
#451=VECTOR('',#1539,10.);
#452=VECTOR('',#1542,10.);
#453=VECTOR('',#1545,10.);
#454=VECTOR('',#1546,10.);
#455=VECTOR('',#1547,10.);
#456=VECTOR('',#1554,10.);
#457=VECTOR('',#1557,10.);
#458=VECTOR('',#1558,10.);
#459=VECTOR('',#1559,10.);
#460=VECTOR('',#1564,10.);
#461=VECTOR('',#1567,10.);
#462=VECTOR('',#1574,10.);
#463=VECTOR('',#1577,10.);
#464=VECTOR('',#1578,10.);
#465=VECTOR('',#1581,10.);
#466=VECTOR('',#1582,10.);
#467=VECTOR('',#1585,10.);
#468=VECTOR('',#1588,10.);
#469=VECTOR('',#1593,10.);
#470=VECTOR('',#1596,10.);
#471=VECTOR('',#1599,10.);
#472=VECTOR('',#1602,10.);
#473=VECTOR('',#1605,10.);
#474=VECTOR('',#1608,10.);
#475=VECTOR('',#1611,10.);
#476=VECTOR('',#1612,10.);
#477=VECTOR('',#1617,10.);
#478=VECTOR('',#1618,10.);
#479=VECTOR('',#1621,10.);
#480=VECTOR('',#1622,10.);
#481=VECTOR('',#1625,10.);
#482=VECTOR('',#1626,10.);
#483=VERTEX_POINT('',#1637);
#484=VERTEX_POINT('',#1638);
#485=VERTEX_POINT('',#1640);
#486=VERTEX_POINT('',#1642);
#487=VERTEX_POINT('',#1644);
#488=VERTEX_POINT('',#1646);
#489=VERTEX_POINT('',#1648);
#490=VERTEX_POINT('',#1650);
#491=VERTEX_POINT('',#1652);
#492=VERTEX_POINT('',#1654);
#493=VERTEX_POINT('',#1656);
#494=VERTEX_POINT('',#1658);
#495=VERTEX_POINT('',#1660);
#496=VERTEX_POINT('',#1662);
#497=VERTEX_POINT('',#1664);
#498=VERTEX_POINT('',#1666);
#499=VERTEX_POINT('',#1668);
#500=VERTEX_POINT('',#1670);
#501=VERTEX_POINT('',#1672);
#502=VERTEX_POINT('',#1674);
#503=VERTEX_POINT('',#1677);
#504=VERTEX_POINT('',#1679);
#505=VERTEX_POINT('',#1681);
#506=VERTEX_POINT('',#1683);
#507=VERTEX_POINT('',#1686);
#508=VERTEX_POINT('',#1687);
#509=VERTEX_POINT('',#1689);
#510=VERTEX_POINT('',#1691);
#511=VERTEX_POINT('',#1693);
#512=VERTEX_POINT('',#1695);
#513=VERTEX_POINT('',#1697);
#514=VERTEX_POINT('',#1699);
#515=VERTEX_POINT('',#1701);
#516=VERTEX_POINT('',#1703);
#517=VERTEX_POINT('',#1705);
#518=VERTEX_POINT('',#1707);
#519=VERTEX_POINT('',#1709);
#520=VERTEX_POINT('',#1711);
#521=VERTEX_POINT('',#1713);
#522=VERTEX_POINT('',#1715);
#523=VERTEX_POINT('',#1717);
#524=VERTEX_POINT('',#1719);
#525=VERTEX_POINT('',#1721);
#526=VERTEX_POINT('',#1723);
#527=VERTEX_POINT('',#1726);
#528=VERTEX_POINT('',#1728);
#529=VERTEX_POINT('',#1730);
#530=VERTEX_POINT('',#1732);
#531=VERTEX_POINT('',#1783);
#532=VERTEX_POINT('',#1784);
#533=VERTEX_POINT('',#1786);
#534=VERTEX_POINT('',#1788);
#535=VERTEX_POINT('',#1792);
#536=VERTEX_POINT('',#1794);
#537=VERTEX_POINT('',#1798);
#538=VERTEX_POINT('',#1800);
#539=VERTEX_POINT('',#1809);
#540=VERTEX_POINT('',#1811);
#541=VERTEX_POINT('',#1815);
#542=VERTEX_POINT('',#1817);
#543=VERTEX_POINT('',#1823);
#544=VERTEX_POINT('',#1825);
#545=VERTEX_POINT('',#1829);
#546=VERTEX_POINT('',#1831);
#547=VERTEX_POINT('',#1837);
#548=VERTEX_POINT('',#1839);
#549=VERTEX_POINT('',#1843);
#550=VERTEX_POINT('',#1845);
#551=VERTEX_POINT('',#1851);
#552=VERTEX_POINT('',#1853);
#553=VERTEX_POINT('',#1857);
#554=VERTEX_POINT('',#1859);
#555=VERTEX_POINT('',#1865);
#556=VERTEX_POINT('',#1866);
#557=VERTEX_POINT('',#1868);
#558=VERTEX_POINT('',#1870);
#559=VERTEX_POINT('',#1874);
#560=VERTEX_POINT('',#1876);
#561=VERTEX_POINT('',#1880);
#562=VERTEX_POINT('',#1882);
#563=VERTEX_POINT('',#1886);
#564=VERTEX_POINT('',#1888);
#565=VERTEX_POINT('',#1892);
#566=VERTEX_POINT('',#1893);
#567=VERTEX_POINT('',#1895);
#568=VERTEX_POINT('',#1897);
#569=VERTEX_POINT('',#1901);
#570=VERTEX_POINT('',#1903);
#571=VERTEX_POINT('',#1913);
#572=VERTEX_POINT('',#1914);
#573=VERTEX_POINT('',#1916);
#574=VERTEX_POINT('',#1918);
#575=VERTEX_POINT('',#1922);
#576=VERTEX_POINT('',#1924);
#577=VERTEX_POINT('',#1926);
#578=VERTEX_POINT('',#1928);
#579=VERTEX_POINT('',#1930);
#580=VERTEX_POINT('',#1932);
#581=VERTEX_POINT('',#1936);
#582=VERTEX_POINT('',#1938);
#583=VERTEX_POINT('',#1942);
#584=VERTEX_POINT('',#1944);
#585=VERTEX_POINT('',#1949);
#586=VERTEX_POINT('',#1951);
#587=EDGE_CURVE('',#483,#484,#267,.T.);
#588=EDGE_CURVE('',#485,#483,#268,.T.);
#589=EDGE_CURVE('',#486,#485,#269,.T.);
#590=EDGE_CURVE('',#487,#486,#270,.T.);
#591=EDGE_CURVE('',#488,#487,#271,.T.);
#592=EDGE_CURVE('',#489,#488,#219,.T.);
#593=EDGE_CURVE('',#490,#489,#272,.T.);
#594=EDGE_CURVE('',#491,#490,#273,.T.);
#595=EDGE_CURVE('',#492,#491,#274,.T.);
#596=EDGE_CURVE('',#493,#492,#220,.T.);
#597=EDGE_CURVE('',#494,#493,#275,.T.);
#598=EDGE_CURVE('',#495,#494,#276,.T.);
#599=EDGE_CURVE('',#496,#495,#277,.T.);
#600=EDGE_CURVE('',#497,#496,#278,.T.);
#601=EDGE_CURVE('',#498,#497,#279,.T.);
#602=EDGE_CURVE('',#499,#498,#221,.T.);
#603=EDGE_CURVE('',#500,#499,#280,.T.);
#604=EDGE_CURVE('',#501,#500,#281,.T.);
#605=EDGE_CURVE('',#502,#501,#282,.T.);
#606=EDGE_CURVE('',#484,#502,#222,.T.);
#607=EDGE_CURVE('',#503,#503,#223,.T.);
#608=EDGE_CURVE('',#504,#504,#224,.T.);
#609=EDGE_CURVE('',#505,#505,#225,.T.);
#610=EDGE_CURVE('',#506,#506,#226,.T.);
#611=EDGE_CURVE('',#507,#508,#227,.T.);
#612=EDGE_CURVE('',#508,#509,#283,.T.);
#613=EDGE_CURVE('',#509,#510,#284,.T.);
#614=EDGE_CURVE('',#510,#511,#285,.T.);
#615=EDGE_CURVE('',#511,#512,#228,.T.);
#616=EDGE_CURVE('',#512,#513,#286,.T.);
#617=EDGE_CURVE('',#513,#514,#287,.T.);
#618=EDGE_CURVE('',#514,#515,#288,.T.);
#619=EDGE_CURVE('',#515,#516,#289,.T.);
#620=EDGE_CURVE('',#516,#517,#290,.T.);
#621=EDGE_CURVE('',#517,#518,#229,.T.);
#622=EDGE_CURVE('',#518,#519,#291,.T.);
#623=EDGE_CURVE('',#519,#520,#292,.T.);
#624=EDGE_CURVE('',#520,#521,#293,.T.);
#625=EDGE_CURVE('',#521,#522,#230,.T.);
#626=EDGE_CURVE('',#522,#523,#294,.T.);
#627=EDGE_CURVE('',#523,#524,#295,.T.);
#628=EDGE_CURVE('',#524,#525,#296,.T.);
#629=EDGE_CURVE('',#525,#526,#297,.T.);
#630=EDGE_CURVE('',#526,#507,#298,.T.);
#631=EDGE_CURVE('',#527,#527,#231,.T.);
#632=EDGE_CURVE('',#528,#528,#232,.T.);
#633=EDGE_CURVE('',#529,#529,#233,.T.);
#634=EDGE_CURVE('',#530,#530,#234,.T.);
#635=EDGE_CURVE('',#485,#525,#299,.T.);
#636=EDGE_CURVE('',#483,#526,#300,.T.);
#637=EDGE_CURVE('',#507,#484,#301,.T.);
#638=EDGE_CURVE('',#509,#501,#302,.T.);
#639=EDGE_CURVE('',#502,#508,#303,.T.);
#640=EDGE_CURVE('',#500,#510,#304,.T.);
#641=EDGE_CURVE('',#495,#515,#305,.T.);
#642=EDGE_CURVE('',#494,#516,#306,.T.);
#643=EDGE_CURVE('',#519,#491,#307,.T.);
#644=EDGE_CURVE('',#492,#518,#308,.T.);
#645=EDGE_CURVE('',#517,#493,#309,.T.);
#646=EDGE_CURVE('',#490,#520,#310,.T.);
#647=EDGE_CURVE('',#505,#528,#311,.T.);
#648=EDGE_CURVE('',#521,#489,#312,.T.);
#649=EDGE_CURVE('',#524,#486,#313,.T.);
#650=EDGE_CURVE('',#487,#523,#314,.T.);
#651=EDGE_CURVE('',#488,#522,#315,.T.);
#652=EDGE_CURVE('',#503,#529,#316,.T.);
#653=EDGE_CURVE('',#511,#499,#317,.T.);
#654=EDGE_CURVE('',#514,#496,#318,.T.);
#655=EDGE_CURVE('',#497,#513,#319,.T.);
#656=EDGE_CURVE('',#498,#512,#320,.T.);
#657=EDGE_CURVE('',#506,#527,#321,.T.);
#658=EDGE_CURVE('',#504,#530,#322,.T.);
#659=EDGE_CURVE('',#531,#532,#323,.T.);
#660=EDGE_CURVE('',#532,#533,#324,.T.);
#661=EDGE_CURVE('',#534,#533,#325,.T.);
#662=EDGE_CURVE('',#531,#534,#326,.T.);
#663=EDGE_CURVE('',#535,#531,#327,.T.);
#664=EDGE_CURVE('',#536,#534,#328,.T.);
#665=EDGE_CURVE('',#535,#536,#329,.T.);
#666=EDGE_CURVE('',#537,#535,#330,.T.);
#667=EDGE_CURVE('',#538,#536,#331,.T.);
#668=EDGE_CURVE('',#537,#538,#332,.T.);
#669=EDGE_CURVE('',#532,#537,#333,.T.);
#670=EDGE_CURVE('',#533,#538,#334,.T.);
#671=EDGE_CURVE('',#539,#539,#235,.T.);
#672=EDGE_CURVE('',#539,#540,#335,.T.);
#673=EDGE_CURVE('',#540,#540,#236,.T.);
#674=EDGE_CURVE('',#541,#541,#237,.T.);
#675=EDGE_CURVE('',#541,#542,#336,.T.);
#676=EDGE_CURVE('',#542,#542,#238,.T.);
#677=EDGE_CURVE('',#543,#543,#239,.T.);
#678=EDGE_CURVE('',#543,#544,#337,.T.);
#679=EDGE_CURVE('',#544,#544,#240,.T.);
#680=EDGE_CURVE('',#545,#545,#241,.T.);
#681=EDGE_CURVE('',#545,#546,#338,.T.);
#682=EDGE_CURVE('',#546,#546,#242,.T.);
#683=EDGE_CURVE('',#547,#547,#243,.T.);
#684=EDGE_CURVE('',#547,#548,#339,.T.);
#685=EDGE_CURVE('',#548,#548,#244,.T.);
#686=EDGE_CURVE('',#549,#549,#245,.T.);
#687=EDGE_CURVE('',#549,#550,#340,.T.);
#688=EDGE_CURVE('',#550,#550,#246,.T.);
#689=EDGE_CURVE('',#551,#551,#247,.T.);
#690=EDGE_CURVE('',#551,#552,#341,.T.);
#691=EDGE_CURVE('',#552,#552,#248,.T.);
#692=EDGE_CURVE('',#553,#553,#249,.T.);
#693=EDGE_CURVE('',#553,#554,#342,.T.);
#694=EDGE_CURVE('',#554,#554,#250,.T.);
#695=EDGE_CURVE('',#555,#556,#251,.T.);
#696=EDGE_CURVE('',#555,#557,#343,.T.);
#697=EDGE_CURVE('',#558,#557,#252,.T.);
#698=EDGE_CURVE('',#556,#558,#344,.T.);
#699=EDGE_CURVE('',#556,#559,#345,.T.);
#700=EDGE_CURVE('',#560,#558,#346,.T.);
#701=EDGE_CURVE('',#559,#560,#347,.T.);
#702=EDGE_CURVE('',#559,#561,#253,.T.);
#703=EDGE_CURVE('',#562,#560,#254,.T.);
#704=EDGE_CURVE('',#561,#562,#348,.T.);
#705=EDGE_CURVE('',#561,#563,#349,.T.);
#706=EDGE_CURVE('',#564,#562,#350,.T.);
#707=EDGE_CURVE('',#563,#564,#351,.T.);
#708=EDGE_CURVE('',#565,#566,#255,.T.);
#709=EDGE_CURVE('',#565,#567,#352,.T.);
#710=EDGE_CURVE('',#568,#567,#256,.T.);
#711=EDGE_CURVE('',#566,#568,#353,.T.);
#712=EDGE_CURVE('',#563,#569,#257,.T.);
#713=EDGE_CURVE('',#570,#564,#258,.T.);
#714=EDGE_CURVE('',#569,#570,#354,.T.);
#715=EDGE_CURVE('',#569,#565,#355,.T.);
#716=EDGE_CURVE('',#567,#570,#356,.T.);
#717=EDGE_CURVE('',#566,#555,#357,.T.);
#718=EDGE_CURVE('',#557,#568,#358,.T.);
#719=EDGE_CURVE('',#571,#572,#359,.T.);
#720=EDGE_CURVE('',#573,#572,#259,.T.);
#721=EDGE_CURVE('',#574,#573,#360,.T.);
#722=EDGE_CURVE('',#571,#574,#260,.T.);
#723=EDGE_CURVE('',#574,#575,#361,.T.);
#724=EDGE_CURVE('',#575,#576,#261,.T.);
#725=EDGE_CURVE('',#576,#577,#362,.T.);
#726=EDGE_CURVE('',#577,#578,#262,.T.);
#727=EDGE_CURVE('',#578,#579,#363,.T.);
#728=EDGE_CURVE('',#579,#580,#263,.T.);
#729=EDGE_CURVE('',#580,#571,#364,.T.);
#730=EDGE_CURVE('',#579,#581,#365,.T.);
#731=EDGE_CURVE('',#582,#581,#264,.T.);
#732=EDGE_CURVE('',#580,#582,#366,.T.);
#733=EDGE_CURVE('',#576,#583,#367,.T.);
#734=EDGE_CURVE('',#575,#584,#368,.T.);
#735=EDGE_CURVE('',#583,#584,#265,.T.);
#736=EDGE_CURVE('',#572,#582,#369,.T.);
#737=EDGE_CURVE('',#581,#585,#370,.T.);
#738=EDGE_CURVE('',#585,#586,#266,.T.);
#739=EDGE_CURVE('',#586,#583,#371,.T.);
#740=EDGE_CURVE('',#584,#573,#372,.T.);
#741=EDGE_CURVE('',#578,#585,#373,.T.);
#742=EDGE_CURVE('',#577,#586,#374,.T.);
#743=ORIENTED_EDGE('',*,*,#587,.F.);
#744=ORIENTED_EDGE('',*,*,#588,.F.);
#745=ORIENTED_EDGE('',*,*,#589,.F.);
#746=ORIENTED_EDGE('',*,*,#590,.F.);
#747=ORIENTED_EDGE('',*,*,#591,.F.);
#748=ORIENTED_EDGE('',*,*,#592,.F.);
#749=ORIENTED_EDGE('',*,*,#593,.F.);
#750=ORIENTED_EDGE('',*,*,#594,.F.);
#751=ORIENTED_EDGE('',*,*,#595,.F.);
#752=ORIENTED_EDGE('',*,*,#596,.F.);
#753=ORIENTED_EDGE('',*,*,#597,.F.);
#754=ORIENTED_EDGE('',*,*,#598,.F.);
#755=ORIENTED_EDGE('',*,*,#599,.F.);
#756=ORIENTED_EDGE('',*,*,#600,.F.);
#757=ORIENTED_EDGE('',*,*,#601,.F.);
#758=ORIENTED_EDGE('',*,*,#602,.F.);
#759=ORIENTED_EDGE('',*,*,#603,.F.);
#760=ORIENTED_EDGE('',*,*,#604,.F.);
#761=ORIENTED_EDGE('',*,*,#605,.F.);
#762=ORIENTED_EDGE('',*,*,#606,.F.);
#763=ORIENTED_EDGE('',*,*,#607,.T.);
#764=ORIENTED_EDGE('',*,*,#608,.T.);
#765=ORIENTED_EDGE('',*,*,#609,.T.);
#766=ORIENTED_EDGE('',*,*,#610,.T.);
#767=ORIENTED_EDGE('',*,*,#611,.T.);
#768=ORIENTED_EDGE('',*,*,#612,.T.);
#769=ORIENTED_EDGE('',*,*,#613,.T.);
#770=ORIENTED_EDGE('',*,*,#614,.T.);
#771=ORIENTED_EDGE('',*,*,#615,.T.);
#772=ORIENTED_EDGE('',*,*,#616,.T.);
#773=ORIENTED_EDGE('',*,*,#617,.T.);
#774=ORIENTED_EDGE('',*,*,#618,.T.);
#775=ORIENTED_EDGE('',*,*,#619,.T.);
#776=ORIENTED_EDGE('',*,*,#620,.T.);
#777=ORIENTED_EDGE('',*,*,#621,.T.);
#778=ORIENTED_EDGE('',*,*,#622,.T.);
#779=ORIENTED_EDGE('',*,*,#623,.T.);
#780=ORIENTED_EDGE('',*,*,#624,.T.);
#781=ORIENTED_EDGE('',*,*,#625,.T.);
#782=ORIENTED_EDGE('',*,*,#626,.T.);
#783=ORIENTED_EDGE('',*,*,#627,.T.);
#784=ORIENTED_EDGE('',*,*,#628,.T.);
#785=ORIENTED_EDGE('',*,*,#629,.T.);
#786=ORIENTED_EDGE('',*,*,#630,.T.);
#787=ORIENTED_EDGE('',*,*,#631,.T.);
#788=ORIENTED_EDGE('',*,*,#632,.T.);
#789=ORIENTED_EDGE('',*,*,#633,.T.);
#790=ORIENTED_EDGE('',*,*,#634,.T.);
#791=ORIENTED_EDGE('',*,*,#635,.F.);
#792=ORIENTED_EDGE('',*,*,#588,.T.);
#793=ORIENTED_EDGE('',*,*,#636,.T.);
#794=ORIENTED_EDGE('',*,*,#629,.F.);
#795=ORIENTED_EDGE('',*,*,#587,.T.);
#796=ORIENTED_EDGE('',*,*,#637,.F.);
#797=ORIENTED_EDGE('',*,*,#630,.F.);
#798=ORIENTED_EDGE('',*,*,#636,.F.);
#799=ORIENTED_EDGE('',*,*,#638,.F.);
#800=ORIENTED_EDGE('',*,*,#612,.F.);
#801=ORIENTED_EDGE('',*,*,#639,.F.);
#802=ORIENTED_EDGE('',*,*,#605,.T.);
#803=ORIENTED_EDGE('',*,*,#637,.T.);
#804=ORIENTED_EDGE('',*,*,#606,.T.);
#805=ORIENTED_EDGE('',*,*,#639,.T.);
#806=ORIENTED_EDGE('',*,*,#611,.F.);
#807=ORIENTED_EDGE('',*,*,#638,.T.);
#808=ORIENTED_EDGE('',*,*,#604,.T.);
#809=ORIENTED_EDGE('',*,*,#640,.T.);
#810=ORIENTED_EDGE('',*,*,#613,.F.);
#811=ORIENTED_EDGE('',*,*,#641,.F.);
#812=ORIENTED_EDGE('',*,*,#598,.T.);
#813=ORIENTED_EDGE('',*,*,#642,.T.);
#814=ORIENTED_EDGE('',*,*,#619,.F.);
#815=ORIENTED_EDGE('',*,*,#643,.F.);
#816=ORIENTED_EDGE('',*,*,#622,.F.);
#817=ORIENTED_EDGE('',*,*,#644,.F.);
#818=ORIENTED_EDGE('',*,*,#595,.T.);
#819=ORIENTED_EDGE('',*,*,#597,.T.);
#820=ORIENTED_EDGE('',*,*,#645,.F.);
#821=ORIENTED_EDGE('',*,*,#620,.F.);
#822=ORIENTED_EDGE('',*,*,#642,.F.);
#823=ORIENTED_EDGE('',*,*,#643,.T.);
#824=ORIENTED_EDGE('',*,*,#594,.T.);
#825=ORIENTED_EDGE('',*,*,#646,.T.);
#826=ORIENTED_EDGE('',*,*,#623,.F.);
#827=ORIENTED_EDGE('',*,*,#609,.F.);
#828=ORIENTED_EDGE('',*,*,#647,.T.);
#829=ORIENTED_EDGE('',*,*,#632,.F.);
#830=ORIENTED_EDGE('',*,*,#647,.F.);
#831=ORIENTED_EDGE('',*,*,#646,.F.);
#832=ORIENTED_EDGE('',*,*,#593,.T.);
#833=ORIENTED_EDGE('',*,*,#648,.F.);
#834=ORIENTED_EDGE('',*,*,#624,.F.);
#835=ORIENTED_EDGE('',*,*,#649,.F.);
#836=ORIENTED_EDGE('',*,*,#627,.F.);
#837=ORIENTED_EDGE('',*,*,#650,.F.);
#838=ORIENTED_EDGE('',*,*,#590,.T.);
#839=ORIENTED_EDGE('',*,*,#591,.T.);
#840=ORIENTED_EDGE('',*,*,#650,.T.);
#841=ORIENTED_EDGE('',*,*,#626,.F.);
#842=ORIENTED_EDGE('',*,*,#651,.F.);
#843=ORIENTED_EDGE('',*,*,#635,.T.);
#844=ORIENTED_EDGE('',*,*,#628,.F.);
#845=ORIENTED_EDGE('',*,*,#649,.T.);
#846=ORIENTED_EDGE('',*,*,#589,.T.);
#847=ORIENTED_EDGE('',*,*,#607,.F.);
#848=ORIENTED_EDGE('',*,*,#652,.T.);
#849=ORIENTED_EDGE('',*,*,#633,.F.);
#850=ORIENTED_EDGE('',*,*,#652,.F.);
#851=ORIENTED_EDGE('',*,*,#640,.F.);
#852=ORIENTED_EDGE('',*,*,#603,.T.);
#853=ORIENTED_EDGE('',*,*,#653,.F.);
#854=ORIENTED_EDGE('',*,*,#614,.F.);
#855=ORIENTED_EDGE('',*,*,#654,.F.);
#856=ORIENTED_EDGE('',*,*,#617,.F.);
#857=ORIENTED_EDGE('',*,*,#655,.F.);
#858=ORIENTED_EDGE('',*,*,#600,.T.);
#859=ORIENTED_EDGE('',*,*,#601,.T.);
#860=ORIENTED_EDGE('',*,*,#655,.T.);
#861=ORIENTED_EDGE('',*,*,#616,.F.);
#862=ORIENTED_EDGE('',*,*,#656,.F.);
#863=ORIENTED_EDGE('',*,*,#610,.F.);
#864=ORIENTED_EDGE('',*,*,#657,.T.);
#865=ORIENTED_EDGE('',*,*,#631,.F.);
#866=ORIENTED_EDGE('',*,*,#657,.F.);
#867=ORIENTED_EDGE('',*,*,#641,.T.);
#868=ORIENTED_EDGE('',*,*,#618,.F.);
#869=ORIENTED_EDGE('',*,*,#654,.T.);
#870=ORIENTED_EDGE('',*,*,#599,.T.);
#871=ORIENTED_EDGE('',*,*,#608,.F.);
#872=ORIENTED_EDGE('',*,*,#658,.T.);
#873=ORIENTED_EDGE('',*,*,#634,.F.);
#874=ORIENTED_EDGE('',*,*,#658,.F.);
#875=ORIENTED_EDGE('',*,*,#644,.T.);
#876=ORIENTED_EDGE('',*,*,#621,.F.);
#877=ORIENTED_EDGE('',*,*,#645,.T.);
#878=ORIENTED_EDGE('',*,*,#596,.T.);
#879=ORIENTED_EDGE('',*,*,#651,.T.);
#880=ORIENTED_EDGE('',*,*,#625,.F.);
#881=ORIENTED_EDGE('',*,*,#648,.T.);
#882=ORIENTED_EDGE('',*,*,#592,.T.);
#883=ORIENTED_EDGE('',*,*,#656,.T.);
#884=ORIENTED_EDGE('',*,*,#615,.F.);
#885=ORIENTED_EDGE('',*,*,#653,.T.);
#886=ORIENTED_EDGE('',*,*,#602,.T.);
#887=ORIENTED_EDGE('',*,*,#659,.T.);
#888=ORIENTED_EDGE('',*,*,#660,.T.);
#889=ORIENTED_EDGE('',*,*,#661,.F.);
#890=ORIENTED_EDGE('',*,*,#662,.F.);
#891=ORIENTED_EDGE('',*,*,#663,.T.);
#892=ORIENTED_EDGE('',*,*,#662,.T.);
#893=ORIENTED_EDGE('',*,*,#664,.F.);
#894=ORIENTED_EDGE('',*,*,#665,.F.);
#895=ORIENTED_EDGE('',*,*,#666,.T.);
#896=ORIENTED_EDGE('',*,*,#665,.T.);
#897=ORIENTED_EDGE('',*,*,#667,.F.);
#898=ORIENTED_EDGE('',*,*,#668,.F.);
#899=ORIENTED_EDGE('',*,*,#669,.T.);
#900=ORIENTED_EDGE('',*,*,#668,.T.);
#901=ORIENTED_EDGE('',*,*,#670,.F.);
#902=ORIENTED_EDGE('',*,*,#660,.F.);
#903=ORIENTED_EDGE('',*,*,#670,.T.);
#904=ORIENTED_EDGE('',*,*,#667,.T.);
#905=ORIENTED_EDGE('',*,*,#664,.T.);
#906=ORIENTED_EDGE('',*,*,#661,.T.);
#907=ORIENTED_EDGE('',*,*,#669,.F.);
#908=ORIENTED_EDGE('',*,*,#659,.F.);
#909=ORIENTED_EDGE('',*,*,#663,.F.);
#910=ORIENTED_EDGE('',*,*,#666,.F.);
#911=ORIENTED_EDGE('',*,*,#671,.F.);
#912=ORIENTED_EDGE('',*,*,#672,.T.);
#913=ORIENTED_EDGE('',*,*,#673,.F.);
#914=ORIENTED_EDGE('',*,*,#672,.F.);
#915=ORIENTED_EDGE('',*,*,#674,.F.);
#916=ORIENTED_EDGE('',*,*,#675,.T.);
#917=ORIENTED_EDGE('',*,*,#676,.F.);
#918=ORIENTED_EDGE('',*,*,#675,.F.);
#919=ORIENTED_EDGE('',*,*,#676,.T.);
#920=ORIENTED_EDGE('',*,*,#671,.T.);
#921=ORIENTED_EDGE('',*,*,#674,.T.);
#922=ORIENTED_EDGE('',*,*,#673,.T.);
#923=ORIENTED_EDGE('',*,*,#677,.F.);
#924=ORIENTED_EDGE('',*,*,#678,.T.);
#925=ORIENTED_EDGE('',*,*,#679,.F.);
#926=ORIENTED_EDGE('',*,*,#678,.F.);
#927=ORIENTED_EDGE('',*,*,#680,.F.);
#928=ORIENTED_EDGE('',*,*,#681,.T.);
#929=ORIENTED_EDGE('',*,*,#682,.F.);
#930=ORIENTED_EDGE('',*,*,#681,.F.);
#931=ORIENTED_EDGE('',*,*,#682,.T.);
#932=ORIENTED_EDGE('',*,*,#677,.T.);
#933=ORIENTED_EDGE('',*,*,#680,.T.);
#934=ORIENTED_EDGE('',*,*,#679,.T.);
#935=ORIENTED_EDGE('',*,*,#683,.F.);
#936=ORIENTED_EDGE('',*,*,#684,.T.);
#937=ORIENTED_EDGE('',*,*,#685,.F.);
#938=ORIENTED_EDGE('',*,*,#684,.F.);
#939=ORIENTED_EDGE('',*,*,#686,.F.);
#940=ORIENTED_EDGE('',*,*,#687,.T.);
#941=ORIENTED_EDGE('',*,*,#688,.F.);
#942=ORIENTED_EDGE('',*,*,#687,.F.);
#943=ORIENTED_EDGE('',*,*,#688,.T.);
#944=ORIENTED_EDGE('',*,*,#683,.T.);
#945=ORIENTED_EDGE('',*,*,#686,.T.);
#946=ORIENTED_EDGE('',*,*,#685,.T.);
#947=ORIENTED_EDGE('',*,*,#689,.F.);
#948=ORIENTED_EDGE('',*,*,#690,.T.);
#949=ORIENTED_EDGE('',*,*,#691,.F.);
#950=ORIENTED_EDGE('',*,*,#690,.F.);
#951=ORIENTED_EDGE('',*,*,#692,.F.);
#952=ORIENTED_EDGE('',*,*,#693,.T.);
#953=ORIENTED_EDGE('',*,*,#694,.F.);
#954=ORIENTED_EDGE('',*,*,#693,.F.);
#955=ORIENTED_EDGE('',*,*,#694,.T.);
#956=ORIENTED_EDGE('',*,*,#689,.T.);
#957=ORIENTED_EDGE('',*,*,#692,.T.);
#958=ORIENTED_EDGE('',*,*,#691,.T.);
#959=ORIENTED_EDGE('',*,*,#695,.F.);
#960=ORIENTED_EDGE('',*,*,#696,.T.);
#961=ORIENTED_EDGE('',*,*,#697,.F.);
#962=ORIENTED_EDGE('',*,*,#698,.F.);
#963=ORIENTED_EDGE('',*,*,#699,.F.);
#964=ORIENTED_EDGE('',*,*,#698,.T.);
#965=ORIENTED_EDGE('',*,*,#700,.F.);
#966=ORIENTED_EDGE('',*,*,#701,.F.);
#967=ORIENTED_EDGE('',*,*,#702,.F.);
#968=ORIENTED_EDGE('',*,*,#701,.T.);
#969=ORIENTED_EDGE('',*,*,#703,.F.);
#970=ORIENTED_EDGE('',*,*,#704,.F.);
#971=ORIENTED_EDGE('',*,*,#705,.F.);
#972=ORIENTED_EDGE('',*,*,#704,.T.);
#973=ORIENTED_EDGE('',*,*,#706,.F.);
#974=ORIENTED_EDGE('',*,*,#707,.F.);
#975=ORIENTED_EDGE('',*,*,#708,.F.);
#976=ORIENTED_EDGE('',*,*,#709,.T.);
#977=ORIENTED_EDGE('',*,*,#710,.F.);
#978=ORIENTED_EDGE('',*,*,#711,.F.);
#979=ORIENTED_EDGE('',*,*,#712,.F.);
#980=ORIENTED_EDGE('',*,*,#707,.T.);
#981=ORIENTED_EDGE('',*,*,#713,.F.);
#982=ORIENTED_EDGE('',*,*,#714,.F.);
#983=ORIENTED_EDGE('',*,*,#715,.F.);
#984=ORIENTED_EDGE('',*,*,#714,.T.);
#985=ORIENTED_EDGE('',*,*,#716,.F.);
#986=ORIENTED_EDGE('',*,*,#709,.F.);
#987=ORIENTED_EDGE('',*,*,#717,.F.);
#988=ORIENTED_EDGE('',*,*,#711,.T.);
#989=ORIENTED_EDGE('',*,*,#718,.F.);
#990=ORIENTED_EDGE('',*,*,#696,.F.);
#991=ORIENTED_EDGE('',*,*,#719,.T.);
#992=ORIENTED_EDGE('',*,*,#720,.F.);
#993=ORIENTED_EDGE('',*,*,#721,.F.);
#994=ORIENTED_EDGE('',*,*,#722,.F.);
#995=ORIENTED_EDGE('',*,*,#723,.T.);
#996=ORIENTED_EDGE('',*,*,#724,.T.);
#997=ORIENTED_EDGE('',*,*,#725,.T.);
#998=ORIENTED_EDGE('',*,*,#726,.T.);
#999=ORIENTED_EDGE('',*,*,#727,.T.);
#1000=ORIENTED_EDGE('',*,*,#728,.T.);
#1001=ORIENTED_EDGE('',*,*,#729,.T.);
#1002=ORIENTED_EDGE('',*,*,#722,.T.);
#1003=ORIENTED_EDGE('',*,*,#712,.T.);
#1004=ORIENTED_EDGE('',*,*,#715,.T.);
#1005=ORIENTED_EDGE('',*,*,#708,.T.);
#1006=ORIENTED_EDGE('',*,*,#717,.T.);
#1007=ORIENTED_EDGE('',*,*,#695,.T.);
#1008=ORIENTED_EDGE('',*,*,#699,.T.);
#1009=ORIENTED_EDGE('',*,*,#702,.T.);
#1010=ORIENTED_EDGE('',*,*,#705,.T.);
#1011=ORIENTED_EDGE('',*,*,#730,.T.);
#1012=ORIENTED_EDGE('',*,*,#731,.F.);
#1013=ORIENTED_EDGE('',*,*,#732,.F.);
#1014=ORIENTED_EDGE('',*,*,#728,.F.);
#1015=ORIENTED_EDGE('',*,*,#733,.F.);
#1016=ORIENTED_EDGE('',*,*,#724,.F.);
#1017=ORIENTED_EDGE('',*,*,#734,.T.);
#1018=ORIENTED_EDGE('',*,*,#735,.F.);
#1019=ORIENTED_EDGE('',*,*,#736,.T.);
#1020=ORIENTED_EDGE('',*,*,#731,.T.);
#1021=ORIENTED_EDGE('',*,*,#737,.T.);
#1022=ORIENTED_EDGE('',*,*,#738,.T.);
#1023=ORIENTED_EDGE('',*,*,#739,.T.);
#1024=ORIENTED_EDGE('',*,*,#735,.T.);
#1025=ORIENTED_EDGE('',*,*,#740,.T.);
#1026=ORIENTED_EDGE('',*,*,#720,.T.);
#1027=ORIENTED_EDGE('',*,*,#713,.T.);
#1028=ORIENTED_EDGE('',*,*,#706,.T.);
#1029=ORIENTED_EDGE('',*,*,#703,.T.);
#1030=ORIENTED_EDGE('',*,*,#700,.T.);
#1031=ORIENTED_EDGE('',*,*,#697,.T.);
#1032=ORIENTED_EDGE('',*,*,#718,.T.);
#1033=ORIENTED_EDGE('',*,*,#710,.T.);
#1034=ORIENTED_EDGE('',*,*,#716,.T.);
#1035=ORIENTED_EDGE('',*,*,#741,.F.);
#1036=ORIENTED_EDGE('',*,*,#726,.F.);
#1037=ORIENTED_EDGE('',*,*,#742,.T.);
#1038=ORIENTED_EDGE('',*,*,#738,.F.);
#1039=ORIENTED_EDGE('',*,*,#733,.T.);
#1040=ORIENTED_EDGE('',*,*,#739,.F.);
#1041=ORIENTED_EDGE('',*,*,#742,.F.);
#1042=ORIENTED_EDGE('',*,*,#725,.F.);
#1043=ORIENTED_EDGE('',*,*,#732,.T.);
#1044=ORIENTED_EDGE('',*,*,#736,.F.);
#1045=ORIENTED_EDGE('',*,*,#719,.F.);
#1046=ORIENTED_EDGE('',*,*,#729,.F.);
#1047=ORIENTED_EDGE('',*,*,#741,.T.);
#1048=ORIENTED_EDGE('',*,*,#737,.F.);
#1049=ORIENTED_EDGE('',*,*,#730,.F.);
#1050=ORIENTED_EDGE('',*,*,#727,.F.);
#1051=ORIENTED_EDGE('',*,*,#721,.T.);
#1052=ORIENTED_EDGE('',*,*,#740,.F.);
#1053=ORIENTED_EDGE('',*,*,#734,.F.);
#1054=ORIENTED_EDGE('',*,*,#723,.F.);
#1055=PLANE('',#1183);
#1056=PLANE('',#1192);
#1057=PLANE('',#1201);
#1058=PLANE('',#1202);
#1059=PLANE('',#1203);
#1060=PLANE('',#1205);
#1061=PLANE('',#1206);
#1062=PLANE('',#1207);
#1063=PLANE('',#1208);
#1064=PLANE('',#1209);
#1065=PLANE('',#1211);
#1066=PLANE('',#1212);
#1067=PLANE('',#1213);
#1068=PLANE('',#1214);
#1069=PLANE('',#1216);
#1070=PLANE('',#1217);
#1071=PLANE('',#1218);
#1072=PLANE('',#1220);
#1073=PLANE('',#1225);
#1074=PLANE('',#1226);
#1075=PLANE('',#1227);
#1076=PLANE('',#1228);
#1077=PLANE('',#1229);
#1078=PLANE('',#1230);
#1079=PLANE('',#1237);
#1080=PLANE('',#1238);
#1081=PLANE('',#1245);
#1082=PLANE('',#1246);
#1083=PLANE('',#1253);
#1084=PLANE('',#1254);
#1085=PLANE('',#1261);
#1086=PLANE('',#1262);
#1087=PLANE('',#1266);
#1088=PLANE('',#1270);
#1089=PLANE('',#1277);
#1090=PLANE('',#1278);
#1091=PLANE('',#1282);
#1092=PLANE('',#1290);
#1093=PLANE('',#1293);
#1094=PLANE('',#1294);
#1095=PLANE('',#1295);
#1096=PLANE('',#1296);
#1097=ADVANCED_FACE('',(#69,#51,#52,#53,#54),#1055,.F.);
#1098=ADVANCED_FACE('',(#70,#55,#56,#57,#58),#1056,.T.);
#1099=ADVANCED_FACE('',(#71),#1057,.T.);
#1100=ADVANCED_FACE('',(#72),#1058,.T.);
#1101=ADVANCED_FACE('',(#73),#1059,.T.);
#1102=ADVANCED_FACE('',(#74),#27,.T.);
#1103=ADVANCED_FACE('',(#75),#1060,.T.);
#1104=ADVANCED_FACE('',(#76),#1061,.T.);
#1105=ADVANCED_FACE('',(#77),#1062,.T.);
#1106=ADVANCED_FACE('',(#78),#1063,.T.);
#1107=ADVANCED_FACE('',(#79),#1064,.T.);
#1108=ADVANCED_FACE('',(#80),#28,.F.);
#1109=ADVANCED_FACE('',(#81),#1065,.T.);
#1110=ADVANCED_FACE('',(#82),#1066,.T.);
#1111=ADVANCED_FACE('',(#83),#1067,.T.);
#1112=ADVANCED_FACE('',(#84),#1068,.T.);
#1113=ADVANCED_FACE('',(#85),#29,.F.);
#1114=ADVANCED_FACE('',(#86),#1069,.T.);
#1115=ADVANCED_FACE('',(#87),#1070,.T.);
#1116=ADVANCED_FACE('',(#88),#1071,.T.);
#1117=ADVANCED_FACE('',(#89),#30,.F.);
#1118=ADVANCED_FACE('',(#90),#1072,.T.);
#1119=ADVANCED_FACE('',(#91),#31,.F.);
#1120=ADVANCED_FACE('',(#92),#32,.T.);
#1121=ADVANCED_FACE('',(#93),#33,.T.);
#1122=ADVANCED_FACE('',(#94),#34,.T.);
#1123=ADVANCED_FACE('',(#95),#1073,.T.);
#1124=ADVANCED_FACE('',(#96),#1074,.T.);
#1125=ADVANCED_FACE('',(#97),#1075,.T.);
#1126=ADVANCED_FACE('',(#98),#1076,.T.);
#1127=ADVANCED_FACE('',(#99),#1077,.T.);
#1128=ADVANCED_FACE('',(#100),#1078,.F.);
#1129=ADVANCED_FACE('',(#101),#35,.F.);
#1130=ADVANCED_FACE('',(#102),#36,.T.);
#1131=ADVANCED_FACE('',(#103,#59),#1079,.T.);
#1132=ADVANCED_FACE('',(#104,#60),#1080,.T.);
#1133=ADVANCED_FACE('',(#105),#37,.F.);
#1134=ADVANCED_FACE('',(#106),#38,.T.);
#1135=ADVANCED_FACE('',(#107,#61),#1081,.T.);
#1136=ADVANCED_FACE('',(#108,#62),#1082,.T.);
#1137=ADVANCED_FACE('',(#109),#39,.F.);
#1138=ADVANCED_FACE('',(#110),#40,.T.);
#1139=ADVANCED_FACE('',(#111,#63),#1083,.T.);
#1140=ADVANCED_FACE('',(#112,#64),#1084,.T.);
#1141=ADVANCED_FACE('',(#113),#41,.F.);
#1142=ADVANCED_FACE('',(#114),#42,.T.);
#1143=ADVANCED_FACE('',(#115,#65),#1085,.T.);
#1144=ADVANCED_FACE('',(#116,#66),#1086,.T.);
#1145=ADVANCED_FACE('',(#117),#43,.F.);
#1146=ADVANCED_FACE('',(#118),#1087,.T.);
#1147=ADVANCED_FACE('',(#119),#44,.F.);
#1148=ADVANCED_FACE('',(#120),#1088,.T.);
#1149=ADVANCED_FACE('',(#121),#45,.F.);
#1150=ADVANCED_FACE('',(#122),#46,.F.);
#1151=ADVANCED_FACE('',(#123),#1089,.T.);
#1152=ADVANCED_FACE('',(#124),#1090,.T.);
#1153=ADVANCED_FACE('',(#125),#47,.T.);
#1154=ADVANCED_FACE('',(#126,#67),#1091,.T.);
#1155=ADVANCED_FACE('',(#127),#48,.T.);
#1156=ADVANCED_FACE('',(#128),#49,.T.);
#1157=ADVANCED_FACE('',(#129,#68),#1092,.F.);
#1158=ADVANCED_FACE('',(#130),#50,.T.);
#1159=ADVANCED_FACE('',(#131),#1093,.F.);
#1160=ADVANCED_FACE('',(#132),#1094,.F.);
#1161=ADVANCED_FACE('',(#133),#1095,.F.);
#1162=ADVANCED_FACE('',(#134),#1096,.F.);
#1163=CLOSED_SHELL('',(#1097,#1098,#1099,#1100,#1101,#1102,#1103,#1104,
#1105,#1106,#1107,#1108,#1109,#1110,#1111,#1112,#1113,#1114,#1115,#1116,
#1117,#1118,#1119,#1120,#1121,#1122));
#1164=CLOSED_SHELL('',(#1123,#1124,#1125,#1126,#1127,#1128));
#1165=CLOSED_SHELL('',(#1129,#1130,#1131,#1132));
#1166=CLOSED_SHELL('',(#1133,#1134,#1135,#1136));
#1167=CLOSED_SHELL('',(#1137,#1138,#1139,#1140));
#1168=CLOSED_SHELL('',(#1141,#1142,#1143,#1144));
#1169=CLOSED_SHELL('',(#1145,#1146,#1147,#1148,#1149,#1150,#1151,#1152,
#1153,#1154,#1155,#1156,#1157,#1158,#1159,#1160,#1161,#1162));
#1170=DERIVED_UNIT_ELEMENT(#1172,1.);
#1171=DERIVED_UNIT_ELEMENT(#1967,-3.);
#1172=(
MASS_UNIT()
NAMED_UNIT(*)
SI_UNIT(.KILO.,.GRAM.)
);
#1173=DERIVED_UNIT((#1170,#1171));
#1174=MEASURE_REPRESENTATION_ITEM('density measure',
POSITIVE_RATIO_MEASURE(7850.),#1173);
#1175=PROPERTY_DEFINITION_REPRESENTATION(#1180,#1177);
#1176=PROPERTY_DEFINITION_REPRESENTATION(#1181,#1178);
#1177=REPRESENTATION('material name',(#1179),#1964);
#1178=REPRESENTATION('density',(#1174),#1964);
#1179=DESCRIPTIVE_REPRESENTATION_ITEM('Steel','Steel');
#1180=PROPERTY_DEFINITION('material property','material name',#1974);
#1181=PROPERTY_DEFINITION('material property','density of part',#1974);
#1182=AXIS2_PLACEMENT_3D('',#1635,#1297,#1298);
#1183=AXIS2_PLACEMENT_3D('',#1636,#1299,#1300);
#1184=AXIS2_PLACEMENT_3D('',#1649,#1306,#1307);
#1185=AXIS2_PLACEMENT_3D('',#1657,#1311,#1312);
#1186=AXIS2_PLACEMENT_3D('',#1669,#1318,#1319);
#1187=AXIS2_PLACEMENT_3D('',#1676,#1323,#1324);
#1188=AXIS2_PLACEMENT_3D('',#1678,#1325,#1326);
#1189=AXIS2_PLACEMENT_3D('',#1680,#1327,#1328);
#1190=AXIS2_PLACEMENT_3D('',#1682,#1329,#1330);
#1191=AXIS2_PLACEMENT_3D('',#1684,#1331,#1332);
#1192=AXIS2_PLACEMENT_3D('',#1685,#1333,#1334);
#1193=AXIS2_PLACEMENT_3D('',#1688,#1335,#1336);
#1194=AXIS2_PLACEMENT_3D('',#1696,#1340,#1341);
#1195=AXIS2_PLACEMENT_3D('',#1708,#1347,#1348);
#1196=AXIS2_PLACEMENT_3D('',#1716,#1352,#1353);
#1197=AXIS2_PLACEMENT_3D('',#1727,#1359,#1360);
#1198=AXIS2_PLACEMENT_3D('',#1729,#1361,#1362);
#1199=AXIS2_PLACEMENT_3D('',#1731,#1363,#1364);
#1200=AXIS2_PLACEMENT_3D('',#1733,#1365,#1366);
#1201=AXIS2_PLACEMENT_3D('',#1734,#1367,#1368);
#1202=AXIS2_PLACEMENT_3D('',#1737,#1371,#1372);
#1203=AXIS2_PLACEMENT_3D('',#1739,#1374,#1375);
#1204=AXIS2_PLACEMENT_3D('',#1742,#1378,#1379);
#1205=AXIS2_PLACEMENT_3D('',#1743,#1380,#1381);
#1206=AXIS2_PLACEMENT_3D('',#1745,#1383,#1384);
#1207=AXIS2_PLACEMENT_3D('',#1748,#1387,#1388);
#1208=AXIS2_PLACEMENT_3D('',#1751,#1391,#1392);
#1209=AXIS2_PLACEMENT_3D('',#1753,#1394,#1395);
#1210=AXIS2_PLACEMENT_3D('',#1755,#1397,#1398);
#1211=AXIS2_PLACEMENT_3D('',#1757,#1400,#1401);
#1212=AXIS2_PLACEMENT_3D('',#1759,#1403,#1404);
#1213=AXIS2_PLACEMENT_3D('',#1762,#1407,#1408);
#1214=AXIS2_PLACEMENT_3D('',#1764,#1410,#1411);
#1215=AXIS2_PLACEMENT_3D('',#1765,#1412,#1413);
#1216=AXIS2_PLACEMENT_3D('',#1767,#1415,#1416);
#1217=AXIS2_PLACEMENT_3D('',#1769,#1418,#1419);
#1218=AXIS2_PLACEMENT_3D('',#1772,#1422,#1423);
#1219=AXIS2_PLACEMENT_3D('',#1774,#1425,#1426);
#1220=AXIS2_PLACEMENT_3D('',#1776,#1428,#1429);
#1221=AXIS2_PLACEMENT_3D('',#1777,#1430,#1431);
#1222=AXIS2_PLACEMENT_3D('',#1779,#1433,#1434);
#1223=AXIS2_PLACEMENT_3D('',#1780,#1435,#1436);
#1224=AXIS2_PLACEMENT_3D('',#1781,#1437,#1438);
#1225=AXIS2_PLACEMENT_3D('',#1782,#1439,#1440);
#1226=AXIS2_PLACEMENT_3D('',#1791,#1445,#1446);
#1227=AXIS2_PLACEMENT_3D('',#1797,#1450,#1451);
#1228=AXIS2_PLACEMENT_3D('',#1803,#1455,#1456);
#1229=AXIS2_PLACEMENT_3D('',#1806,#1459,#1460);
#1230=AXIS2_PLACEMENT_3D('',#1807,#1461,#1462);
#1231=AXIS2_PLACEMENT_3D('',#1808,#1463,#1464);
#1232=AXIS2_PLACEMENT_3D('',#1810,#1465,#1466);
#1233=AXIS2_PLACEMENT_3D('',#1813,#1468,#1469);
#1234=AXIS2_PLACEMENT_3D('',#1814,#1470,#1471);
#1235=AXIS2_PLACEMENT_3D('',#1816,#1472,#1473);
#1236=AXIS2_PLACEMENT_3D('',#1819,#1475,#1476);
#1237=AXIS2_PLACEMENT_3D('',#1820,#1477,#1478);
#1238=AXIS2_PLACEMENT_3D('',#1821,#1479,#1480);
#1239=AXIS2_PLACEMENT_3D('',#1822,#1481,#1482);
#1240=AXIS2_PLACEMENT_3D('',#1824,#1483,#1484);
#1241=AXIS2_PLACEMENT_3D('',#1827,#1486,#1487);
#1242=AXIS2_PLACEMENT_3D('',#1828,#1488,#1489);
#1243=AXIS2_PLACEMENT_3D('',#1830,#1490,#1491);
#1244=AXIS2_PLACEMENT_3D('',#1833,#1493,#1494);
#1245=AXIS2_PLACEMENT_3D('',#1834,#1495,#1496);
#1246=AXIS2_PLACEMENT_3D('',#1835,#1497,#1498);
#1247=AXIS2_PLACEMENT_3D('',#1836,#1499,#1500);
#1248=AXIS2_PLACEMENT_3D('',#1838,#1501,#1502);
#1249=AXIS2_PLACEMENT_3D('',#1841,#1504,#1505);
#1250=AXIS2_PLACEMENT_3D('',#1842,#1506,#1507);
#1251=AXIS2_PLACEMENT_3D('',#1844,#1508,#1509);
#1252=AXIS2_PLACEMENT_3D('',#1847,#1511,#1512);
#1253=AXIS2_PLACEMENT_3D('',#1848,#1513,#1514);
#1254=AXIS2_PLACEMENT_3D('',#1849,#1515,#1516);
#1255=AXIS2_PLACEMENT_3D('',#1850,#1517,#1518);
#1256=AXIS2_PLACEMENT_3D('',#1852,#1519,#1520);
#1257=AXIS2_PLACEMENT_3D('',#1855,#1522,#1523);
#1258=AXIS2_PLACEMENT_3D('',#1856,#1524,#1525);
#1259=AXIS2_PLACEMENT_3D('',#1858,#1526,#1527);
#1260=AXIS2_PLACEMENT_3D('',#1861,#1529,#1530);
#1261=AXIS2_PLACEMENT_3D('',#1862,#1531,#1532);
#1262=AXIS2_PLACEMENT_3D('',#1863,#1533,#1534);
#1263=AXIS2_PLACEMENT_3D('',#1864,#1535,#1536);
#1264=AXIS2_PLACEMENT_3D('',#1867,#1537,#1538);
#1265=AXIS2_PLACEMENT_3D('',#1871,#1540,#1541);
#1266=AXIS2_PLACEMENT_3D('',#1873,#1543,#1544);
#1267=AXIS2_PLACEMENT_3D('',#1879,#1548,#1549);
#1268=AXIS2_PLACEMENT_3D('',#1881,#1550,#1551);
#1269=AXIS2_PLACEMENT_3D('',#1883,#1552,#1553);
#1270=AXIS2_PLACEMENT_3D('',#1885,#1555,#1556);
#1271=AXIS2_PLACEMENT_3D('',#1891,#1560,#1561);
#1272=AXIS2_PLACEMENT_3D('',#1894,#1562,#1563);
#1273=AXIS2_PLACEMENT_3D('',#1898,#1565,#1566);
#1274=AXIS2_PLACEMENT_3D('',#1900,#1568,#1569);
#1275=AXIS2_PLACEMENT_3D('',#1902,#1570,#1571);
#1276=AXIS2_PLACEMENT_3D('',#1904,#1572,#1573);
#1277=AXIS2_PLACEMENT_3D('',#1906,#1575,#1576);
#1278=AXIS2_PLACEMENT_3D('',#1909,#1579,#1580);
#1279=AXIS2_PLACEMENT_3D('',#1912,#1583,#1584);
#1280=AXIS2_PLACEMENT_3D('',#1917,#1586,#1587);
#1281=AXIS2_PLACEMENT_3D('',#1920,#1589,#1590);
#1282=AXIS2_PLACEMENT_3D('',#1921,#1591,#1592);
#1283=AXIS2_PLACEMENT_3D('',#1925,#1594,#1595);
#1284=AXIS2_PLACEMENT_3D('',#1929,#1597,#1598);
#1285=AXIS2_PLACEMENT_3D('',#1933,#1600,#1601);
#1286=AXIS2_PLACEMENT_3D('',#1935,#1603,#1604);
#1287=AXIS2_PLACEMENT_3D('',#1939,#1606,#1607);
#1288=AXIS2_PLACEMENT_3D('',#1941,#1609,#1610);
#1289=AXIS2_PLACEMENT_3D('',#1946,#1613,#1614);
#1290=AXIS2_PLACEMENT_3D('',#1947,#1615,#1616);
#1291=AXIS2_PLACEMENT_3D('',#1952,#1619,#1620);
#1292=AXIS2_PLACEMENT_3D('',#1955,#1623,#1624);
#1293=AXIS2_PLACEMENT_3D('',#1958,#1627,#1628);
#1294=AXIS2_PLACEMENT_3D('',#1959,#1629,#1630);
#1295=AXIS2_PLACEMENT_3D('',#1960,#1631,#1632);
#1296=AXIS2_PLACEMENT_3D('',#1961,#1633,#1634);
#1297=DIRECTION('axis',(0.,0.,1.));
#1298=DIRECTION('refdir',(1.,0.,0.));
#1299=DIRECTION('center_axis',(4.02158212363673E-16,-0.984807753012208,
0.17364817766693));
#1300=DIRECTION('ref_axis',(1.,4.02158212363673E-16,-3.51842845256725E-17));
#1301=DIRECTION('',(-3.51842845256724E-17,0.17364817766693,0.984807753012208));
#1302=DIRECTION('',(1.,4.02158212363673E-16,-3.51842845256725E-17));
#1303=DIRECTION('',(-3.51842845256724E-17,0.17364817766693,0.984807753012208));
#1304=DIRECTION('',(-1.,-4.05170528067267E-16,1.810059324093E-17));
#1305=DIRECTION('',(-3.51842845256724E-17,0.17364817766693,0.984807753012208));
#1306=DIRECTION('center_axis',(4.02158212363673E-16,-0.984807753012208,
0.17364817766693));
#1307=DIRECTION('ref_axis',(1.,4.02158212363673E-16,-3.51842845256725E-17));
#1308=DIRECTION('',(3.51842845256724E-17,-0.17364817766693,-0.984807753012208));
#1309=DIRECTION('',(1.,4.02158212363673E-16,-3.51842845256725E-17));
#1310=DIRECTION('',(-3.51842845256724E-17,0.17364817766693,0.984807753012208));
#1311=DIRECTION('center_axis',(4.02158212363673E-16,-0.984807753012208,
0.17364817766693));
#1312=DIRECTION('ref_axis',(1.,4.02158212363673E-16,-3.51842845256725E-17));
#1313=DIRECTION('',(3.51842845256724E-17,-0.17364817766693,-0.984807753012208));
#1314=DIRECTION('',(-1.,-4.05170528067267E-16,1.810059324093E-17));
#1315=DIRECTION('',(3.51842845256724E-17,-0.17364817766693,-0.984807753012208));
#1316=DIRECTION('',(1.,4.02158212363673E-16,-3.51842845256725E-17));
#1317=DIRECTION('',(3.51842845256724E-17,-0.17364817766693,-0.984807753012208));
#1318=DIRECTION('center_axis',(4.02158212363673E-16,-0.984807753012208,
0.17364817766693));
#1319=DIRECTION('ref_axis',(1.,4.02158212363673E-16,-3.51842845256725E-17));
#1320=DIRECTION('',(-3.51842845256724E-17,0.17364817766693,0.984807753012208));
#1321=DIRECTION('',(-1.,-4.02158212363673E-16,3.51842845256725E-17));
#1322=DIRECTION('',(3.51842845256724E-17,-0.17364817766693,-0.984807753012208));
#1323=DIRECTION('center_axis',(4.02158212363673E-16,-0.984807753012208,
0.17364817766693));
#1324=DIRECTION('ref_axis',(1.,4.02158212363673E-16,-3.51842845256725E-17));
#1325=DIRECTION('center_axis',(4.02158212363673E-16,-0.984807753012208,
0.17364817766693));
#1326=DIRECTION('ref_axis',(1.,4.02158212363673E-16,-3.51842845256725E-17));
#1327=DIRECTION('center_axis',(4.02158212363673E-16,-0.984807753012208,
0.17364817766693));
#1328=DIRECTION('ref_axis',(1.,4.02158212363673E-16,-3.51842845256725E-17));
#1329=DIRECTION('center_axis',(4.02158212363673E-16,-0.984807753012208,
0.17364817766693));
#1330=DIRECTION('ref_axis',(1.,4.02158212363673E-16,-3.51842845256725E-17));
#1331=DIRECTION('center_axis',(4.02158212363673E-16,-0.984807753012208,
0.17364817766693));
#1332=DIRECTION('ref_axis',(1.,4.02158212363673E-16,-3.51842845256725E-17));
#1333=DIRECTION('center_axis',(4.02158212363673E-16,-0.984807753012208,
0.17364817766693));
#1334=DIRECTION('ref_axis',(1.,4.02158212363673E-16,-3.51842845256725E-17));
#1335=DIRECTION('center_axis',(4.02158212363673E-16,-0.984807753012208,
0.17364817766693));
#1336=DIRECTION('ref_axis',(1.,4.02158212363673E-16,-3.51842845256725E-17));
#1337=DIRECTION('',(3.51842845256724E-17,-0.17364817766693,-0.984807753012208));
#1338=DIRECTION('',(-1.,-4.02158212363673E-16,3.51842845256725E-17));
#1339=DIRECTION('',(-3.51842845256724E-17,0.17364817766693,0.984807753012208));
#1340=DIRECTION('center_axis',(4.02158212363673E-16,-0.984807753012208,
0.17364817766693));
#1341=DIRECTION('ref_axis',(1.,4.02158212363673E-16,-3.51842845256725E-17));
#1342=DIRECTION('',(3.51842845256724E-17,-0.17364817766693,-0.984807753012208));
#1343=DIRECTION('',(1.,4.02158212363673E-16,-3.51842845256725E-17));
#1344=DIRECTION('',(3.51842845256724E-17,-0.17364817766693,-0.984807753012208));
#1345=DIRECTION('',(-1.,-4.05170528067267E-16,1.810059324093E-17));
#1346=DIRECTION('',(3.51842845256724E-17,-0.17364817766693,-0.984807753012208));
#1347=DIRECTION('center_axis',(4.02158212363673E-16,-0.984807753012208,
0.17364817766693));
#1348=DIRECTION('ref_axis',(1.,4.02158212363673E-16,-3.51842845256725E-17));
#1349=DIRECTION('',(-3.51842845256724E-17,0.17364817766693,0.984807753012208));
#1350=DIRECTION('',(1.,4.02158212363673E-16,-3.51842845256725E-17));
#1351=DIRECTION('',(3.51842845256724E-17,-0.17364817766693,-0.984807753012208));
#1352=DIRECTION('center_axis',(4.02158212363673E-16,-0.984807753012208,
0.17364817766693));
#1353=DIRECTION('ref_axis',(1.,4.02158212363673E-16,-3.51842845256725E-17));
#1354=DIRECTION('',(-3.51842845256724E-17,0.17364817766693,0.984807753012208));
#1355=DIRECTION('',(-1.,-4.05170528067267E-16,1.810059324093E-17));
#1356=DIRECTION('',(-3.51842845256724E-17,0.17364817766693,0.984807753012208));
#1357=DIRECTION('',(1.,4.02158212363673E-16,-3.51842845256725E-17));
#1358=DIRECTION('',(-3.51842845256724E-17,0.17364817766693,0.984807753012208));
#1359=DIRECTION('center_axis',(-4.02158212363673E-16,0.984807753012208,
-0.17364817766693));
#1360=DIRECTION('ref_axis',(1.,4.02158212363673E-16,-3.51842845256725E-17));
#1361=DIRECTION('center_axis',(-4.02158212363673E-16,0.984807753012208,
-0.17364817766693));
#1362=DIRECTION('ref_axis',(1.,4.02158212363673E-16,-3.51842845256725E-17));
#1363=DIRECTION('center_axis',(-4.02158212363673E-16,0.984807753012208,
-0.17364817766693));
#1364=DIRECTION('ref_axis',(1.,4.02158212363673E-16,-3.51842845256725E-17));
#1365=DIRECTION('center_axis',(-4.02158212363673E-16,0.984807753012208,
-0.17364817766693));
#1366=DIRECTION('ref_axis',(1.,4.02158212363673E-16,-3.51842845256725E-17));
#1367=DIRECTION('center_axis',(3.51842845256724E-17,-0.17364817766693,-0.984807753012208));
#1368=DIRECTION('ref_axis',(1.,4.02158212363673E-16,-3.51842845256725E-17));
#1369=DIRECTION('',(4.02158212363673E-16,-0.984807753012208,0.17364817766693));
#1370=DIRECTION('',(4.02158212363673E-16,-0.984807753012208,0.17364817766693));
#1371=DIRECTION('center_axis',(1.,4.02158212363673E-16,-3.51842845256725E-17));
#1372=DIRECTION('ref_axis',(-3.51842845256724E-17,0.17364817766693,0.984807753012208));
#1373=DIRECTION('',(-4.02158212363673E-16,0.984807753012208,-0.17364817766693));
#1374=DIRECTION('center_axis',(-1.,-4.02158212363673E-16,3.51842845256725E-17));
#1375=DIRECTION('ref_axis',(3.51842845256724E-17,-0.17364817766693,-0.984807753012208));
#1376=DIRECTION('',(-4.02158212363673E-16,0.984807753012208,-0.17364817766693));
#1377=DIRECTION('',(4.02158212363673E-16,-0.984807753012208,0.17364817766693));
#1378=DIRECTION('center_axis',(4.02158212363673E-16,-0.984807753012208,
0.17364817766693));
#1379=DIRECTION('ref_axis',(1.,4.02158212363673E-16,-3.51842845256725E-17));
#1380=DIRECTION('center_axis',(-3.51842845256724E-17,0.17364817766693,0.984807753012208));
#1381=DIRECTION('ref_axis',(-1.,-4.02158212363673E-16,3.51842845256725E-17));
#1382=DIRECTION('',(4.02158212363673E-16,-0.984807753012208,0.17364817766693));
#1383=DIRECTION('center_axis',(-5.25315192854405E-17,0.17364817766693,0.984807753012208));
#1384=DIRECTION('ref_axis',(-1.,-4.05170528067267E-16,1.810059324093E-17));
#1385=DIRECTION('',(4.02158212363673E-16,-0.984807753012208,0.17364817766693));
#1386=DIRECTION('',(4.02158212363673E-16,-0.984807753012208,0.17364817766693));
#1387=DIRECTION('center_axis',(1.,4.02158212363673E-16,-3.51842845256725E-17));
#1388=DIRECTION('ref_axis',(-3.51842845256724E-17,0.17364817766693,0.984807753012208));
#1389=DIRECTION('',(-4.02158212363673E-16,0.984807753012208,-0.17364817766693));
#1390=DIRECTION('',(4.02158212363673E-16,-0.984807753012208,0.17364817766693));
#1391=DIRECTION('center_axis',(-1.,-4.02158212363673E-16,3.51842845256725E-17));
#1392=DIRECTION('ref_axis',(3.51842845256724E-17,-0.17364817766693,-0.984807753012208));
#1393=DIRECTION('',(-4.02158212363673E-16,0.984807753012208,-0.17364817766693));
#1394=DIRECTION('center_axis',(3.51842845256724E-17,-0.17364817766693,-0.984807753012208));
#1395=DIRECTION('ref_axis',(1.,4.02158212363673E-16,-3.51842845256725E-17));
#1396=DIRECTION('',(4.02158212363673E-16,-0.984807753012208,0.17364817766693));
#1397=DIRECTION('center_axis',(4.02158212363673E-16,-0.984807753012208,
0.17364817766693));
#1398=DIRECTION('ref_axis',(1.,4.02158212363673E-16,-3.51842845256725E-17));
#1399=DIRECTION('',(4.02158212363673E-16,-0.984807753012208,0.17364817766693));
#1400=DIRECTION('center_axis',(-1.,-4.02158212363673E-16,3.51842845256725E-17));
#1401=DIRECTION('ref_axis',(3.51842845256724E-17,-0.17364817766693,-0.984807753012208));
#1402=DIRECTION('',(-4.02158212363673E-16,0.984807753012208,-0.17364817766693));
#1403=DIRECTION('center_axis',(-5.25315192854405E-17,0.17364817766693,0.984807753012208));
#1404=DIRECTION('ref_axis',(-1.,-4.05170528067267E-16,1.810059324093E-17));
#1405=DIRECTION('',(-4.02158212363673E-16,0.984807753012208,-0.17364817766693));
#1406=DIRECTION('',(4.02158212363673E-16,-0.984807753012208,0.17364817766693));
#1407=DIRECTION('center_axis',(1.,4.02158212363673E-16,-3.51842845256725E-17));
#1408=DIRECTION('ref_axis',(-3.51842845256724E-17,0.17364817766693,0.984807753012208));
#1409=DIRECTION('',(4.02158212363673E-16,-0.984807753012208,0.17364817766693));
#1410=DIRECTION('center_axis',(1.,4.02158212363673E-16,-3.51842845256725E-17));
#1411=DIRECTION('ref_axis',(-3.51842845256724E-17,0.17364817766693,0.984807753012208));
#1412=DIRECTION('center_axis',(4.02158212363673E-16,-0.984807753012208,
0.17364817766693));
#1413=DIRECTION('ref_axis',(1.,4.02158212363673E-16,-3.51842845256725E-17));
#1414=DIRECTION('',(4.02158212363673E-16,-0.984807753012208,0.17364817766693));
#1415=DIRECTION('center_axis',(1.,4.02158212363673E-16,-3.51842845256725E-17));
#1416=DIRECTION('ref_axis',(-3.51842845256724E-17,0.17364817766693,0.984807753012208));
#1417=DIRECTION('',(-4.02158212363673E-16,0.984807753012208,-0.17364817766693));
#1418=DIRECTION('center_axis',(3.51842845256724E-17,-0.17364817766693,-0.984807753012208));
#1419=DIRECTION('ref_axis',(1.,4.02158212363673E-16,-3.51842845256725E-17));
#1420=DIRECTION('',(-4.02158212363673E-16,0.984807753012208,-0.17364817766693));
#1421=DIRECTION('',(4.02158212363673E-16,-0.984807753012208,0.17364817766693));
#1422=DIRECTION('center_axis',(-1.,-4.02158212363673E-16,3.51842845256725E-17));
#1423=DIRECTION('ref_axis',(3.51842845256724E-17,-0.17364817766693,-0.984807753012208));
#1424=DIRECTION('',(4.02158212363673E-16,-0.984807753012208,0.17364817766693));
#1425=DIRECTION('center_axis',(4.02158212363673E-16,-0.984807753012208,
0.17364817766693));
#1426=DIRECTION('ref_axis',(1.,4.02158212363673E-16,-3.51842845256725E-17));
#1427=DIRECTION('',(4.02158212363673E-16,-0.984807753012208,0.17364817766693));
#1428=DIRECTION('center_axis',(-1.,-4.02158212363673E-16,3.51842845256725E-17));
#1429=DIRECTION('ref_axis',(3.51842845256724E-17,-0.17364817766693,-0.984807753012208));
#1430=DIRECTION('center_axis',(4.02158212363673E-16,-0.984807753012208,
0.17364817766693));
#1431=DIRECTION('ref_axis',(1.,4.02158212363673E-16,-3.51842845256725E-17));
#1432=DIRECTION('',(4.02158212363673E-16,-0.984807753012208,0.17364817766693));
#1433=DIRECTION('center_axis',(4.02158212363673E-16,-0.984807753012208,
0.17364817766693));
#1434=DIRECTION('ref_axis',(1.,4.02158212363673E-16,-3.51842845256725E-17));
#1435=DIRECTION('center_axis',(4.02158212363673E-16,-0.984807753012208,
0.17364817766693));
#1436=DIRECTION('ref_axis',(1.,4.02158212363673E-16,-3.51842845256725E-17));
#1437=DIRECTION('center_axis',(4.02158212363673E-16,-0.984807753012208,
0.17364817766693));
#1438=DIRECTION('ref_axis',(1.,4.02158212363673E-16,-3.51842845256725E-17));
#1439=DIRECTION('center_axis',(-3.51842845256724E-17,0.17364817766693,0.984807753012208));
#1440=DIRECTION('ref_axis',(-1.,-4.02158212363673E-16,3.51842845256725E-17));
#1441=DIRECTION('',(-1.,-4.02158212363673E-16,3.51842845256725E-17));
#1442=DIRECTION('',(4.02158212363673E-16,-0.984807753012208,0.17364817766693));
#1443=DIRECTION('',(-1.,-4.02158212363673E-16,3.51842845256725E-17));
#1444=DIRECTION('',(4.02158212363673E-16,-0.984807753012208,0.17364817766693));
#1445=DIRECTION('center_axis',(1.,4.02158212363673E-16,-3.51842845256725E-17));
#1446=DIRECTION('ref_axis',(-3.51842845256724E-17,0.17364817766693,0.984807753012208));
#1447=DIRECTION('',(-3.51842845256724E-17,0.17364817766693,0.984807753012208));
#1448=DIRECTION('',(-3.51842845256724E-17,0.17364817766693,0.984807753012208));
#1449=DIRECTION('',(4.02158212363673E-16,-0.984807753012208,0.17364817766693));
#1450=DIRECTION('center_axis',(3.51842845256724E-17,-0.17364817766693,-0.984807753012208));
#1451=DIRECTION('ref_axis',(1.,4.02158212363673E-16,-3.51842845256725E-17));
#1452=DIRECTION('',(1.,4.02158212363673E-16,-3.51842845256725E-17));
#1453=DIRECTION('',(1.,4.02158212363673E-16,-3.51842845256725E-17));
#1454=DIRECTION('',(4.02158212363673E-16,-0.984807753012208,0.17364817766693));
#1455=DIRECTION('center_axis',(-1.,-4.02158212363673E-16,3.51842845256725E-17));
#1456=DIRECTION('ref_axis',(3.51842845256724E-17,-0.17364817766693,-0.984807753012208));
#1457=DIRECTION('',(3.51842845256724E-17,-0.17364817766693,-0.984807753012208));
#1458=DIRECTION('',(3.51842845256724E-17,-0.17364817766693,-0.984807753012208));
#1459=DIRECTION('center_axis',(4.02158212363673E-16,-0.984807753012208,
0.17364817766693));
#1460=DIRECTION('ref_axis',(1.,4.02158212363673E-16,-3.51842845256725E-17));
#1461=DIRECTION('center_axis',(4.02158212363673E-16,-0.984807753012208,
0.17364817766693));
#1462=DIRECTION('ref_axis',(1.,4.02158212363673E-16,-3.51842845256725E-17));
#1463=DIRECTION('center_axis',(4.02158212363673E-16,-0.984807753012208,
0.17364817766693));
#1464=DIRECTION('ref_axis',(-1.,-3.80892443867915E-16,1.55788450775862E-16));
#1465=DIRECTION('center_axis',(4.02158212363673E-16,-0.984807753012208,
0.17364817766693));
#1466=DIRECTION('ref_axis',(-1.,-3.80892443867915E-16,1.55788450775862E-16));
#1467=DIRECTION('',(4.02158212363673E-16,-0.984807753012208,0.17364817766693));
#1468=DIRECTION('center_axis',(-4.02158212363673E-16,0.984807753012208,
-0.17364817766693));
#1469=DIRECTION('ref_axis',(-1.,-3.80892443867915E-16,1.55788450775862E-16));
#1470=DIRECTION('center_axis',(4.02158212363673E-16,-0.984807753012208,
0.17364817766693));
#1471=DIRECTION('ref_axis',(-1.,-3.80892443867915E-16,1.55788450775862E-16));
#1472=DIRECTION('center_axis',(4.02158212363673E-16,-0.984807753012208,
0.17364817766693));
#1473=DIRECTION('ref_axis',(-1.,-3.80892443867915E-16,1.55788450775862E-16));
#1474=DIRECTION('',(-4.02158212363673E-16,0.984807753012208,-0.17364817766693));
#1475=DIRECTION('center_axis',(-4.02158212363673E-16,0.984807753012208,
-0.17364817766693));
#1476=DIRECTION('ref_axis',(-1.,-3.80892443867915E-16,1.55788450775862E-16));
#1477=DIRECTION('center_axis',(-4.02158212363673E-16,0.984807753012208,
-0.17364817766693));
#1478=DIRECTION('ref_axis',(1.,3.80892443867915E-16,-1.55788450775862E-16));
#1479=DIRECTION('center_axis',(4.02158212363673E-16,-0.984807753012208,
0.17364817766693));
#1480=DIRECTION('ref_axis',(-1.,-3.80892443867915E-16,1.55788450775862E-16));
#1481=DIRECTION('center_axis',(4.02158212363673E-16,-0.984807753012208,
0.17364817766693));
#1482=DIRECTION('ref_axis',(-1.,-3.80892443867915E-16,1.55788450775862E-16));
#1483=DIRECTION('center_axis',(4.02158212363673E-16,-0.984807753012208,
0.17364817766693));
#1484=DIRECTION('ref_axis',(-1.,-3.80892443867915E-16,1.55788450775862E-16));
#1485=DIRECTION('',(4.02158212363673E-16,-0.984807753012208,0.17364817766693));
#1486=DIRECTION('center_axis',(-4.02158212363673E-16,0.984807753012208,
-0.17364817766693));
#1487=DIRECTION('ref_axis',(-1.,-3.80892443867915E-16,1.55788450775862E-16));
#1488=DIRECTION('center_axis',(4.02158212363673E-16,-0.984807753012208,
0.17364817766693));
#1489=DIRECTION('ref_axis',(-1.,-3.80892443867915E-16,1.55788450775862E-16));
#1490=DIRECTION('center_axis',(4.02158212363673E-16,-0.984807753012208,
0.17364817766693));
#1491=DIRECTION('ref_axis',(-1.,-3.80892443867915E-16,1.55788450775862E-16));
#1492=DIRECTION('',(-4.02158212363673E-16,0.984807753012208,-0.17364817766693));
#1493=DIRECTION('center_axis',(-4.02158212363673E-16,0.984807753012208,
-0.17364817766693));
#1494=DIRECTION('ref_axis',(-1.,-3.80892443867915E-16,1.55788450775862E-16));
#1495=DIRECTION('center_axis',(-4.02158212363673E-16,0.984807753012208,
-0.17364817766693));
#1496=DIRECTION('ref_axis',(1.,3.80892443867915E-16,-1.55788450775862E-16));
#1497=DIRECTION('center_axis',(4.02158212363673E-16,-0.984807753012208,
0.17364817766693));
#1498=DIRECTION('ref_axis',(-1.,-3.80892443867915E-16,1.55788450775862E-16));
#1499=DIRECTION('center_axis',(4.02158212363673E-16,-0.984807753012208,
0.17364817766693));
#1500=DIRECTION('ref_axis',(-1.,-3.80892443867915E-16,1.55788450775862E-16));
#1501=DIRECTION('center_axis',(4.02158212363673E-16,-0.984807753012208,
0.17364817766693));
#1502=DIRECTION('ref_axis',(-1.,-3.80892443867915E-16,1.55788450775862E-16));
#1503=DIRECTION('',(4.02158212363673E-16,-0.984807753012208,0.17364817766693));
#1504=DIRECTION('center_axis',(-4.02158212363673E-16,0.984807753012208,
-0.17364817766693));
#1505=DIRECTION('ref_axis',(-1.,-3.80892443867915E-16,1.55788450775862E-16));
#1506=DIRECTION('center_axis',(4.02158212363673E-16,-0.984807753012208,
0.17364817766693));
#1507=DIRECTION('ref_axis',(-1.,-3.80892443867915E-16,1.55788450775862E-16));
#1508=DIRECTION('center_axis',(4.02158212363673E-16,-0.984807753012208,
0.17364817766693));
#1509=DIRECTION('ref_axis',(-1.,-3.80892443867915E-16,1.55788450775862E-16));
#1510=DIRECTION('',(-4.02158212363673E-16,0.984807753012208,-0.17364817766693));
#1511=DIRECTION('center_axis',(-4.02158212363673E-16,0.984807753012208,
-0.17364817766693));
#1512=DIRECTION('ref_axis',(-1.,-3.80892443867915E-16,1.55788450775862E-16));
#1513=DIRECTION('center_axis',(-4.02158212363673E-16,0.984807753012208,
-0.17364817766693));
#1514=DIRECTION('ref_axis',(1.,3.80892443867915E-16,-1.55788450775862E-16));
#1515=DIRECTION('center_axis',(4.02158212363673E-16,-0.984807753012208,
0.17364817766693));
#1516=DIRECTION('ref_axis',(-1.,-3.80892443867915E-16,1.55788450775862E-16));
#1517=DIRECTION('center_axis',(4.02158212363673E-16,-0.984807753012208,
0.17364817766693));
#1518=DIRECTION('ref_axis',(-1.,-3.80892443867915E-16,1.55788450775862E-16));
#1519=DIRECTION('center_axis',(4.02158212363673E-16,-0.984807753012208,
0.17364817766693));
#1520=DIRECTION('ref_axis',(-1.,-3.80892443867915E-16,1.55788450775862E-16));
#1521=DIRECTION('',(4.02158212363673E-16,-0.984807753012208,0.17364817766693));
#1522=DIRECTION('center_axis',(-4.02158212363673E-16,0.984807753012208,
-0.17364817766693));
#1523=DIRECTION('ref_axis',(-1.,-3.80892443867915E-16,1.55788450775862E-16));
#1524=DIRECTION('center_axis',(4.02158212363673E-16,-0.984807753012208,
0.17364817766693));
#1525=DIRECTION('ref_axis',(-1.,-3.80892443867915E-16,1.55788450775862E-16));
#1526=DIRECTION('center_axis',(4.02158212363673E-16,-0.984807753012208,
0.17364817766693));
#1527=DIRECTION('ref_axis',(-1.,-3.80892443867915E-16,1.55788450775862E-16));
#1528=DIRECTION('',(-4.02158212363673E-16,0.984807753012208,-0.17364817766693));
#1529=DIRECTION('center_axis',(-4.02158212363673E-16,0.984807753012208,
-0.17364817766693));
#1530=DIRECTION('ref_axis',(-1.,-3.80892443867915E-16,1.55788450775862E-16));
#1531=DIRECTION('center_axis',(-4.02158212363673E-16,0.984807753012208,
-0.17364817766693));
#1532=DIRECTION('ref_axis',(1.,3.80892443867915E-16,-1.55788450775862E-16));
#1533=DIRECTION('center_axis',(4.02158212363673E-16,-0.984807753012208,
0.17364817766693));
#1534=DIRECTION('ref_axis',(-1.,-3.80892443867915E-16,1.55788450775862E-16));
#1535=DIRECTION('center_axis',(0.,0.984807753012208,-0.17364817766693));
#1536=DIRECTION('ref_axis',(-1.,0.,0.));
#1537=DIRECTION('center_axis',(0.,-0.984807753012208,0.17364817766693));
#1538=DIRECTION('ref_axis',(-1.,0.,0.));
#1539=DIRECTION('',(0.,-0.984807753012208,0.17364817766693));
#1540=DIRECTION('center_axis',(0.,0.984807753012208,-0.17364817766693));
#1541=DIRECTION('ref_axis',(-1.,0.,0.));
#1542=DIRECTION('',(0.,-0.984807753012208,0.17364817766693));
#1543=DIRECTION('center_axis',(1.,0.,0.));
#1544=DIRECTION('ref_axis',(0.,0.984807753012208,-0.17364817766693));
#1545=DIRECTION('',(0.,-0.17364817766693,-0.984807753012208));
#1546=DIRECTION('',(0.,0.17364817766693,0.984807753012208));
#1547=DIRECTION('',(0.,-0.984807753012208,0.17364817766693));
#1548=DIRECTION('center_axis',(0.,0.984807753012208,-0.17364817766693));
#1549=DIRECTION('ref_axis',(-1.,0.,0.));
#1550=DIRECTION('center_axis',(0.,-0.984807753012208,0.17364817766693));
#1551=DIRECTION('ref_axis',(-1.,0.,0.));
#1552=DIRECTION('center_axis',(0.,0.984807753012208,-0.17364817766693));
#1553=DIRECTION('ref_axis',(-1.,0.,0.));
#1554=DIRECTION('',(0.,-0.984807753012208,0.17364817766693));
#1555=DIRECTION('center_axis',(0.,0.17364817766693,0.984807753012208));
#1556=DIRECTION('ref_axis',(0.,0.984807753012208,-0.17364817766693));
#1557=DIRECTION('',(1.,0.,0.));
#1558=DIRECTION('',(-1.,0.,0.));
#1559=DIRECTION('',(0.,-0.984807753012208,0.17364817766693));
#1560=DIRECTION('center_axis',(0.,0.984807753012208,-0.17364817766693));
#1561=DIRECTION('ref_axis',(-1.,0.,0.));
#1562=DIRECTION('center_axis',(0.,-0.984807753012208,0.17364817766693));
#1563=DIRECTION('ref_axis',(-1.,0.,0.));
#1564=DIRECTION('',(0.,-0.984807753012208,0.17364817766693));
#1565=DIRECTION('center_axis',(0.,0.984807753012208,-0.17364817766693));
#1566=DIRECTION('ref_axis',(-1.,0.,0.));
#1567=DIRECTION('',(0.,-0.984807753012208,0.17364817766693));
#1568=DIRECTION('center_axis',(0.,0.984807753012208,-0.17364817766693));
#1569=DIRECTION('ref_axis',(-1.,0.,0.));
#1570=DIRECTION('center_axis',(0.,-0.984807753012208,0.17364817766693));
#1571=DIRECTION('ref_axis',(-1.,0.,0.));
#1572=DIRECTION('center_axis',(0.,0.984807753012208,-0.17364817766693));
#1573=DIRECTION('ref_axis',(-1.,0.,0.));
#1574=DIRECTION('',(0.,-0.984807753012208,0.17364817766693));
#1575=DIRECTION('center_axis',(-1.,0.,0.));
#1576=DIRECTION('ref_axis',(0.,-0.984807753012208,0.17364817766693));
#1577=DIRECTION('',(0.,0.17364817766693,0.984807753012208));
#1578=DIRECTION('',(0.,-0.17364817766693,-0.984807753012208));
#1579=DIRECTION('center_axis',(0.,-0.17364817766693,-0.984807753012208));
#1580=DIRECTION('ref_axis',(0.,-0.984807753012208,0.17364817766693));
#1581=DIRECTION('',(-1.,0.,0.));
#1582=DIRECTION('',(1.,0.,0.));
#1583=DIRECTION('center_axis',(0.,0.984807753012208,-0.17364817766693));
#1584=DIRECTION('ref_axis',(-1.,0.,0.));
#1585=DIRECTION('',(0.,-0.984807753012208,0.17364817766693));
#1586=DIRECTION('center_axis',(0.,-0.984807753012208,0.17364817766693));
#1587=DIRECTION('ref_axis',(-1.,0.,0.));
#1588=DIRECTION('',(0.,-0.984807753012208,0.17364817766693));
#1589=DIRECTION('center_axis',(0.,0.984807753012208,-0.17364817766693));
#1590=DIRECTION('ref_axis',(-1.,0.,0.));
#1591=DIRECTION('center_axis',(0.,0.984807753012208,-0.17364817766693));
#1592=DIRECTION('ref_axis',(-1.,0.,0.));
#1593=DIRECTION('',(1.,0.,0.));
#1594=DIRECTION('center_axis',(0.,0.984807753012208,-0.17364817766693));
#1595=DIRECTION('ref_axis',(-1.,0.,0.));
#1596=DIRECTION('',(0.,-0.17364817766693,-0.984807753012208));
#1597=DIRECTION('center_axis',(0.,0.984807753012208,-0.17364817766693));
#1598=DIRECTION('ref_axis',(-1.,0.,0.));
#1599=DIRECTION('',(-1.,0.,0.));
#1600=DIRECTION('center_axis',(0.,0.984807753012208,-0.17364817766693));
#1601=DIRECTION('ref_axis',(-1.,0.,0.));
#1602=DIRECTION('',(0.,0.17364817766693,0.984807753012208));
#1603=DIRECTION('center_axis',(0.,0.984807753012208,-0.17364817766693));
#1604=DIRECTION('ref_axis',(-1.,0.,0.));
#1605=DIRECTION('',(0.,-0.984807753012208,0.17364817766693));
#1606=DIRECTION('center_axis',(0.,-0.984807753012208,0.17364817766693));
#1607=DIRECTION('ref_axis',(-1.,0.,0.));
#1608=DIRECTION('',(0.,-0.984807753012208,0.17364817766693));
#1609=DIRECTION('center_axis',(0.,0.984807753012208,-0.17364817766693));
#1610=DIRECTION('ref_axis',(-1.,0.,0.));
#1611=DIRECTION('',(0.,-0.984807753012208,0.17364817766693));
#1612=DIRECTION('',(0.,-0.984807753012208,0.17364817766693));
#1613=DIRECTION('center_axis',(0.,-0.984807753012208,0.17364817766693));
#1614=DIRECTION('ref_axis',(-1.,0.,0.));
#1615=DIRECTION('center_axis',(0.,0.984807753012208,-0.17364817766693));
#1616=DIRECTION('ref_axis',(-1.,0.,0.));
#1617=DIRECTION('',(0.,-0.17364817766693,-0.984807753012208));
#1618=DIRECTION('',(1.,0.,0.));
#1619=DIRECTION('center_axis',(0.,-0.984807753012208,0.17364817766693));
#1620=DIRECTION('ref_axis',(-1.,0.,0.));
#1621=DIRECTION('',(0.,0.17364817766693,0.984807753012208));
#1622=DIRECTION('',(-1.,0.,0.));
#1623=DIRECTION('center_axis',(0.,0.984807753012208,-0.17364817766693));
#1624=DIRECTION('ref_axis',(-1.,0.,0.));
#1625=DIRECTION('',(0.,-0.984807753012208,0.17364817766693));
#1626=DIRECTION('',(0.,-0.984807753012208,0.17364817766693));
#1627=DIRECTION('center_axis',(-1.,0.,0.));
#1628=DIRECTION('ref_axis',(0.,-0.984807753012208,0.17364817766693));
#1629=DIRECTION('center_axis',(1.,0.,0.));
#1630=DIRECTION('ref_axis',(0.,0.984807753012208,-0.17364817766693));
#1631=DIRECTION('center_axis',(0.,0.17364817766693,0.984807753012208));
#1632=DIRECTION('ref_axis',(0.,0.984807753012208,-0.17364817766693));
#1633=DIRECTION('center_axis',(0.,-0.17364817766693,-0.984807753012208));
#1634=DIRECTION('ref_axis',(0.,-0.984807753012208,0.17364817766693));
#1635=CARTESIAN_POINT('',(0.,0.,0.));
#1636=CARTESIAN_POINT('Origin',(82.55,51.095275069989,-15.2168410002736));
#1637=CARTESIAN_POINT('',(165.35,60.2708447779096,36.8204006688915));
#1638=CARTESIAN_POINT('',(165.35,61.0800452858375,41.4096047979284));
#1639=CARTESIAN_POINT('',(165.35,60.2708447779096,36.8204006688915));
#1640=CARTESIAN_POINT('',(165.1,60.2708447779096,36.8204006688915));
#1641=CARTESIAN_POINT('',(157.35,60.2708447779096,36.8204006688915));
#1642=CARTESIAN_POINT('',(165.1,41.9197053620684,-67.2540826694387));
#1643=CARTESIAN_POINT('',(165.1,41.832881273235,-67.7464865459448));
#1644=CARTESIAN_POINT('',(165.35,41.9197053620684,-67.2540826694387));
#1645=CARTESIAN_POINT('',(165.35,41.9197053620684,-67.2540826694387));
#1646=CARTESIAN_POINT('',(165.35,41.1105048541405,-71.8432867984756));
#1647=CARTESIAN_POINT('',(165.35,41.1105048541405,-71.8432867984756));
#1648=CARTESIAN_POINT('',(157.35,41.1105048541405,-71.8432867984756));
#1649=CARTESIAN_POINT('Origin',(161.35,41.1105048541405,-71.8432867984756));
#1650=CARTESIAN_POINT('',(157.35,41.832881273235,-67.7464865459448));
#1651=CARTESIAN_POINT('',(157.35,41.9197053620684,-67.2540826694387));
#1652=CARTESIAN_POINT('',(7.75,41.8328812732349,-67.7464865459448));
#1653=CARTESIAN_POINT('',(0.,41.8328812732349,-67.7464865459448));
#1654=CARTESIAN_POINT('',(7.75,41.1105048541405,-71.8432867984756));
#1655=CARTESIAN_POINT('',(7.75,41.1105048541405,-71.8432867984756));
#1656=CARTESIAN_POINT('',(-0.25,41.1105048541405,-71.8432867984756));
#1657=CARTESIAN_POINT('Origin',(3.75,41.1105048541405,-71.8432867984756));
#1658=CARTESIAN_POINT('',(-0.25,41.9197053620684,-67.2540826694387));
#1659=CARTESIAN_POINT('',(-0.25,41.9197053620684,-67.2540826694387));
#1660=CARTESIAN_POINT('',(-1.75921422628365E-17,41.9197053620684,-67.2540826694387));
#1661=CARTESIAN_POINT('',(7.75,41.9197053620684,-67.2540826694387));
#1662=CARTESIAN_POINT('',(-3.7358673309359E-15,60.2708447779096,36.8204006688915));
#1663=CARTESIAN_POINT('',(-3.75345947319873E-15,60.357668866743,37.3128045453976));
#1664=CARTESIAN_POINT('',(-0.250000000000004,60.2708447779096,36.8204006688915));
#1665=CARTESIAN_POINT('',(-0.250000000000004,60.2708447779096,36.8204006688915));
#1666=CARTESIAN_POINT('',(-0.250000000000004,61.0800452858374,41.4096047979284));
#1667=CARTESIAN_POINT('',(-0.250000000000004,61.0800452858374,41.4096047979284));
#1668=CARTESIAN_POINT('',(7.75,61.0800452858374,41.4096047979284));
#1669=CARTESIAN_POINT('Origin',(3.75,61.0800452858374,41.4096047979284));
#1670=CARTESIAN_POINT('',(7.75,60.357668866743,37.3128045453976));
#1671=CARTESIAN_POINT('',(7.75,60.2708447779096,36.8204006688915));
#1672=CARTESIAN_POINT('',(157.35,60.3576688667431,37.3128045453976));
#1673=CARTESIAN_POINT('',(165.1,60.3576688667431,37.3128045453976));
#1674=CARTESIAN_POINT('',(157.35,61.0800452858375,41.4096047979284));
#1675=CARTESIAN_POINT('',(157.35,61.0800452858375,41.4096047979284));
#1676=CARTESIAN_POINT('Origin',(161.35,61.0800452858375,41.4096047979284));
#1677=CARTESIAN_POINT('',(159.85,41.1105048541405,-71.8432867984756));
#1678=CARTESIAN_POINT('Origin',(161.35,41.1105048541405,-71.8432867984756));
#1679=CARTESIAN_POINT('',(159.85,61.0800452858375,41.4096047979284));
#1680=CARTESIAN_POINT('Origin',(161.35,61.0800452858375,41.4096047979284));
#1681=CARTESIAN_POINT('',(2.25,41.1105048541405,-71.8432867984756));
#1682=CARTESIAN_POINT('Origin',(3.75,41.1105048541405,-71.8432867984756));
#1683=CARTESIAN_POINT('',(2.25,61.0800452858374,41.4096047979284));
#1684=CARTESIAN_POINT('Origin',(3.75,61.0800452858374,41.4096047979284));
#1685=CARTESIAN_POINT('Origin',(82.55,49.5195826651695,-14.9390039160065));
#1686=CARTESIAN_POINT('',(165.35,59.504352881018,41.6874418821955));
#1687=CARTESIAN_POINT('',(157.35,59.504352881018,41.6874418821955));
#1688=CARTESIAN_POINT('Origin',(161.35,59.504352881018,41.6874418821955));
#1689=CARTESIAN_POINT('',(157.35,58.7819764619235,37.5906416296647));
#1690=CARTESIAN_POINT('',(157.35,59.504352881018,41.6874418821955));
#1691=CARTESIAN_POINT('',(7.75,58.7819764619235,37.5906416296647));
#1692=CARTESIAN_POINT('',(165.1,58.7819764619235,37.5906416296647));
#1693=CARTESIAN_POINT('',(7.75,59.5043528810179,41.6874418821955));
#1694=CARTESIAN_POINT('',(7.75,58.69515237309,37.0982377531586));
#1695=CARTESIAN_POINT('',(-0.250000000000003,59.5043528810179,41.6874418821955));
#1696=CARTESIAN_POINT('Origin',(3.75,59.5043528810179,41.6874418821955));
#1697=CARTESIAN_POINT('',(-0.250000000000003,58.69515237309,37.0982377531586));
#1698=CARTESIAN_POINT('',(-0.250000000000003,59.5043528810179,41.6874418821955));
#1699=CARTESIAN_POINT('',(-3.09241419115402E-15,58.69515237309,37.0982377531586));
#1700=CARTESIAN_POINT('',(-0.250000000000003,58.69515237309,37.0982377531586));
#1701=CARTESIAN_POINT('',(6.25860997519041E-16,40.3440129572488,-66.9762455851716));
#1702=CARTESIAN_POINT('',(-3.11000633341686E-15,58.7819764619235,37.5906416296647));
#1703=CARTESIAN_POINT('',(-0.25,40.3440129572488,-66.9762455851716));
#1704=CARTESIAN_POINT('',(7.75,40.3440129572488,-66.9762455851716));
#1705=CARTESIAN_POINT('',(-0.249999999999999,39.5348124493209,-71.5654497142085));
#1706=CARTESIAN_POINT('',(-0.25,40.3440129572488,-66.9762455851716));
#1707=CARTESIAN_POINT('',(7.75,39.5348124493209,-71.5654497142085));
#1708=CARTESIAN_POINT('Origin',(3.75,39.5348124493209,-71.5654497142085));
#1709=CARTESIAN_POINT('',(7.75,40.2571888684154,-67.4686494616777));
#1710=CARTESIAN_POINT('',(7.75,39.5348124493209,-71.5654497142085));
#1711=CARTESIAN_POINT('',(157.35,40.2571888684154,-67.4686494616777));
#1712=CARTESIAN_POINT('',(6.43453139781877E-16,40.2571888684154,-67.4686494616777));
#1713=CARTESIAN_POINT('',(157.35,39.534812449321,-71.5654497142085));
#1714=CARTESIAN_POINT('',(157.35,40.3440129572489,-66.9762455851716));
#1715=CARTESIAN_POINT('',(165.35,39.534812449321,-71.5654497142085));
#1716=CARTESIAN_POINT('Origin',(161.35,39.534812449321,-71.5654497142085));
#1717=CARTESIAN_POINT('',(165.35,40.3440129572489,-66.9762455851716));
#1718=CARTESIAN_POINT('',(165.35,39.534812449321,-71.5654497142085));
#1719=CARTESIAN_POINT('',(165.1,40.3440129572489,-66.9762455851716));
#1720=CARTESIAN_POINT('',(165.35,40.3440129572489,-66.9762455851716));
#1721=CARTESIAN_POINT('',(165.1,58.6951523730901,37.0982377531586));
#1722=CARTESIAN_POINT('',(165.1,40.2571888684154,-67.4686494616777));
#1723=CARTESIAN_POINT('',(165.35,58.6951523730901,37.0982377531586));
#1724=CARTESIAN_POINT('',(157.35,58.6951523730901,37.0982377531586));
#1725=CARTESIAN_POINT('',(165.35,58.6951523730901,37.0982377531586));
#1726=CARTESIAN_POINT('',(2.25,59.5043528810179,41.6874418821955));
#1727=CARTESIAN_POINT('Origin',(3.75,59.5043528810179,41.6874418821955));
#1728=CARTESIAN_POINT('',(2.25,39.5348124493209,-71.5654497142085));
#1729=CARTESIAN_POINT('Origin',(3.75,39.5348124493209,-71.5654497142085));
#1730=CARTESIAN_POINT('',(159.85,39.534812449321,-71.5654497142085));
#1731=CARTESIAN_POINT('Origin',(161.35,39.534812449321,-71.5654497142085));
#1732=CARTESIAN_POINT('',(159.85,59.504352881018,41.6874418821955));
#1733=CARTESIAN_POINT('Origin',(161.35,59.504352881018,41.6874418821955));
#1734=CARTESIAN_POINT('Origin',(157.35,60.2708447779096,36.8204006688915));
#1735=CARTESIAN_POINT('',(165.1,60.2708447779096,36.8204006688915));
#1736=CARTESIAN_POINT('',(165.35,60.2708447779096,36.8204006688915));
#1737=CARTESIAN_POINT('Origin',(165.35,60.2708447779096,36.8204006688915));
#1738=CARTESIAN_POINT('',(165.35,61.0800452858375,41.4096047979284));
#1739=CARTESIAN_POINT('Origin',(157.35,61.0800452858375,41.4096047979284));
#1740=CARTESIAN_POINT('',(157.35,60.3576688667431,37.3128045453976));
#1741=CARTESIAN_POINT('',(157.35,61.0800452858375,41.4096047979284));
#1742=CARTESIAN_POINT('Origin',(161.35,61.0800452858375,41.4096047979284));
#1743=CARTESIAN_POINT('Origin',(165.1,60.3576688667431,37.3128045453976));
#1744=CARTESIAN_POINT('',(7.74999999999999,60.357668866743,37.3128045453976));
#1745=CARTESIAN_POINT('Origin',(7.75,41.9197053620684,-67.2540826694387));
#1746=CARTESIAN_POINT('',(-1.75921422628365E-17,41.9197053620684,-67.2540826694387));
#1747=CARTESIAN_POINT('',(-0.25,41.9197053620684,-67.2540826694387));
#1748=CARTESIAN_POINT('Origin',(7.75,41.1105048541405,-71.8432867984756));
#1749=CARTESIAN_POINT('',(7.75,41.8328812732349,-67.7464865459448));
#1750=CARTESIAN_POINT('',(7.75,41.1105048541405,-71.8432867984756));
#1751=CARTESIAN_POINT('Origin',(-0.25,41.9197053620684,-67.2540826694387));
#1752=CARTESIAN_POINT('',(-0.25,41.1105048541405,-71.8432867984756));
#1753=CARTESIAN_POINT('Origin',(0.,41.8328812732349,-67.7464865459448));
#1754=CARTESIAN_POINT('',(157.35,41.832881273235,-67.7464865459448));
#1755=CARTESIAN_POINT('Origin',(3.75,41.1105048541405,-71.8432867984756));
#1756=CARTESIAN_POINT('',(2.25,41.1105048541405,-71.8432867984756));
#1757=CARTESIAN_POINT('Origin',(157.35,41.9197053620684,-67.2540826694387));
#1758=CARTESIAN_POINT('',(157.35,41.1105048541405,-71.8432867984756));
#1759=CARTESIAN_POINT('Origin',(165.35,41.9197053620684,-67.2540826694387));
#1760=CARTESIAN_POINT('',(165.1,41.9197053620684,-67.2540826694387));
#1761=CARTESIAN_POINT('',(165.35,41.9197053620684,-67.2540826694387));
#1762=CARTESIAN_POINT('Origin',(165.35,41.1105048541405,-71.8432867984756));
#1763=CARTESIAN_POINT('',(165.35,41.1105048541405,-71.8432867984756));
#1764=CARTESIAN_POINT('Origin',(165.1,41.832881273235,-67.7464865459448));
#1765=CARTESIAN_POINT('Origin',(161.35,41.1105048541405,-71.8432867984756));
#1766=CARTESIAN_POINT('',(159.85,41.1105048541405,-71.8432867984756));
#1767=CARTESIAN_POINT('Origin',(7.75,60.2708447779096,36.8204006688915));
#1768=CARTESIAN_POINT('',(7.75,61.0800452858374,41.4096047979284));
#1769=CARTESIAN_POINT('Origin',(-0.250000000000004,60.2708447779096,36.8204006688915));
#1770=CARTESIAN_POINT('',(-3.7358673309359E-15,60.2708447779096,36.8204006688915));
#1771=CARTESIAN_POINT('',(-0.250000000000004,60.2708447779096,36.8204006688915));
#1772=CARTESIAN_POINT('Origin',(-0.250000000000004,61.0800452858374,41.4096047979284));
#1773=CARTESIAN_POINT('',(-0.250000000000004,61.0800452858374,41.4096047979284));
#1774=CARTESIAN_POINT('Origin',(3.75,61.0800452858374,41.4096047979284));
#1775=CARTESIAN_POINT('',(2.25,61.0800452858374,41.4096047979284));
#1776=CARTESIAN_POINT('Origin',(-3.75345947319873E-15,60.357668866743,37.3128045453976));
#1777=CARTESIAN_POINT('Origin',(161.35,61.0800452858375,41.4096047979284));
#1778=CARTESIAN_POINT('',(159.85,61.0800452858375,41.4096047979284));
#1779=CARTESIAN_POINT('Origin',(3.75,41.1105048541405,-71.8432867984756));
#1780=CARTESIAN_POINT('Origin',(161.35,41.1105048541405,-71.8432867984756));
#1781=CARTESIAN_POINT('Origin',(3.75,61.0800452858374,41.4096047979284));
#1782=CARTESIAN_POINT('Origin',(165.1,58.0873837512558,33.6514106176158));
#1783=CARTESIAN_POINT('',(165.1,58.0873837512558,33.6514106176158));
#1784=CARTESIAN_POINT('',(-2.96926919531417E-15,58.0873837512558,33.6514106176158));
#1785=CARTESIAN_POINT('',(165.1,58.0873837512558,33.6514106176158));
#1786=CARTESIAN_POINT('',(-4.15564546804844E-16,51.8338545196282,34.7540765458008));
#1787=CARTESIAN_POINT('',(-2.96926919531417E-15,58.0873837512558,33.6514106176158));
#1788=CARTESIAN_POINT('',(165.1,51.8338545196283,34.7540765458008));
#1789=CARTESIAN_POINT('',(165.1,51.8338545196283,34.7540765458008));
#1790=CARTESIAN_POINT('',(165.1,58.0873837512558,33.6514106176158));
#1791=CARTESIAN_POINT('Origin',(165.1,40.6913093125828,-65.0066300791472));
#1792=CARTESIAN_POINT('',(165.1,40.6913093125828,-65.0066300791472));
#1793=CARTESIAN_POINT('',(165.1,40.6913093125828,-65.0066300791472));
#1794=CARTESIAN_POINT('',(165.1,34.4377800809552,-63.9039641509622));
#1795=CARTESIAN_POINT('',(165.1,34.4377800809552,-63.9039641509622));
#1796=CARTESIAN_POINT('',(165.1,40.6913093125828,-65.0066300791472));
#1797=CARTESIAN_POINT('Origin',(5.55492428467696E-16,40.6913093125827,-65.0066300791472));
#1798=CARTESIAN_POINT('',(5.55492428467696E-16,40.6913093125827,-65.0066300791472));
#1799=CARTESIAN_POINT('',(5.55492428467696E-16,40.6913093125827,-65.0066300791472));
#1800=CARTESIAN_POINT('',(3.10919707697702E-15,34.4377800809552,-63.9039641509622));
#1801=CARTESIAN_POINT('',(3.10919707697702E-15,34.4377800809552,-63.9039641509622));
#1802=CARTESIAN_POINT('',(5.55492428467696E-16,40.6913093125827,-65.0066300791472));
#1803=CARTESIAN_POINT('Origin',(-2.96926919531417E-15,58.0873837512558,
33.6514106176158));
#1804=CARTESIAN_POINT('',(-2.96926919531417E-15,58.0873837512558,33.6514106176158));
#1805=CARTESIAN_POINT('',(-4.15564546804844E-16,51.8338545196282,34.7540765458008));
#1806=CARTESIAN_POINT('Origin',(82.55,43.1358173002917,-14.5749438025807));
#1807=CARTESIAN_POINT('Origin',(82.55,49.3893465319193,-15.6776097307657));
#1808=CARTESIAN_POINT('Origin',(121.55,57.8116748053593,8.47682850435817));
#1809=CARTESIAN_POINT('',(122.9,60.2736941878898,8.04270806019084));
#1810=CARTESIAN_POINT('Origin',(121.55,60.2736941878898,8.04270806019084));
#1811=CARTESIAN_POINT('',(122.9,55.3496554228288,8.91094894852549));
#1812=CARTESIAN_POINT('',(122.9,57.8116748053593,8.47682850435817));
#1813=CARTESIAN_POINT('Origin',(121.55,55.3496554228288,8.91094894852549));
#1814=CARTESIAN_POINT('Origin',(121.55,57.8116748053593,8.47682850435817));
#1815=CARTESIAN_POINT('',(124.55,55.3496554228288,8.91094894852549));
#1816=CARTESIAN_POINT('Origin',(121.55,55.3496554228288,8.91094894852549));
#1817=CARTESIAN_POINT('',(124.55,60.2736941878899,8.04270806019084));
#1818=CARTESIAN_POINT('',(124.55,57.8116748053593,8.47682850435817));
#1819=CARTESIAN_POINT('Origin',(121.55,60.2736941878898,8.04270806019084));
#1820=CARTESIAN_POINT('Origin',(121.55,60.2736941878898,8.04270806019084));
#1821=CARTESIAN_POINT('Origin',(121.55,55.3496554228288,8.91094894852549));
#1822=CARTESIAN_POINT('Origin',(63.55,57.8116748053593,8.47682850435818));
#1823=CARTESIAN_POINT('',(64.9,60.2736941878898,8.04270806019085));
#1824=CARTESIAN_POINT('Origin',(63.55,60.2736941878898,8.04270806019085));
#1825=CARTESIAN_POINT('',(64.9,55.3496554228288,8.9109489485255));
#1826=CARTESIAN_POINT('',(64.9,57.8116748053593,8.47682850435818));
#1827=CARTESIAN_POINT('Origin',(63.55,55.3496554228288,8.9109489485255));
#1828=CARTESIAN_POINT('Origin',(63.55,57.8116748053593,8.47682850435818));
#1829=CARTESIAN_POINT('',(66.55,55.3496554228288,8.9109489485255));
#1830=CARTESIAN_POINT('Origin',(63.55,55.3496554228288,8.9109489485255));
#1831=CARTESIAN_POINT('',(66.55,60.2736941878898,8.04270806019085));
#1832=CARTESIAN_POINT('',(66.55,57.8116748053593,8.47682850435818));
#1833=CARTESIAN_POINT('Origin',(63.55,60.2736941878898,8.04270806019085));
#1834=CARTESIAN_POINT('Origin',(63.55,60.2736941878898,8.04270806019085));
#1835=CARTESIAN_POINT('Origin',(63.55,55.3496554228288,8.9109489485255));
#1836=CARTESIAN_POINT('Origin',(121.55,49.3029140996797,-39.77875139324));
#1837=CARTESIAN_POINT('',(122.9,51.7649334822103,-40.2128718374074));
#1838=CARTESIAN_POINT('Origin',(121.55,51.7649334822103,-40.2128718374074));
#1839=CARTESIAN_POINT('',(122.9,46.8408947171492,-39.3446309490727));
#1840=CARTESIAN_POINT('',(122.9,49.3029140996797,-39.77875139324));
#1841=CARTESIAN_POINT('Origin',(121.55,46.8408947171492,-39.3446309490727));
#1842=CARTESIAN_POINT('Origin',(121.55,49.3029140996797,-39.77875139324));
#1843=CARTESIAN_POINT('',(124.55,46.8408947171492,-39.3446309490727));
#1844=CARTESIAN_POINT('Origin',(121.55,46.8408947171492,-39.3446309490727));
#1845=CARTESIAN_POINT('',(124.55,51.7649334822103,-40.2128718374074));
#1846=CARTESIAN_POINT('',(124.55,49.3029140996797,-39.77875139324));
#1847=CARTESIAN_POINT('Origin',(121.55,51.7649334822103,-40.2128718374074));
#1848=CARTESIAN_POINT('Origin',(121.55,51.7649334822103,-40.2128718374074));
#1849=CARTESIAN_POINT('Origin',(121.55,46.8408947171492,-39.3446309490727));
#1850=CARTESIAN_POINT('Origin',(63.55,49.3029140996797,-39.77875139324));
#1851=CARTESIAN_POINT('',(64.9,51.7649334822102,-40.2128718374074));
#1852=CARTESIAN_POINT('Origin',(63.55,51.7649334822102,-40.2128718374074));
#1853=CARTESIAN_POINT('',(64.9,46.8408947171492,-39.3446309490727));
#1854=CARTESIAN_POINT('',(64.9,49.3029140996797,-39.77875139324));
#1855=CARTESIAN_POINT('Origin',(63.55,46.8408947171492,-39.3446309490727));
#1856=CARTESIAN_POINT('Origin',(63.55,49.3029140996797,-39.77875139324));
#1857=CARTESIAN_POINT('',(66.55,46.8408947171492,-39.3446309490727));
#1858=CARTESIAN_POINT('Origin',(63.55,46.8408947171492,-39.3446309490727));
#1859=CARTESIAN_POINT('',(66.55,51.7649334822102,-40.2128718374074));
#1860=CARTESIAN_POINT('',(66.55,49.3029140996797,-39.77875139324));
#1861=CARTESIAN_POINT('Origin',(63.55,51.7649334822102,-40.2128718374074));
#1862=CARTESIAN_POINT('Origin',(63.55,51.7649334822102,-40.2128718374074));
#1863=CARTESIAN_POINT('Origin',(63.55,46.8408947171492,-39.3446309490727));
#1864=CARTESIAN_POINT('Origin',(43.05,55.5103294653525,9.39027873932666));
#1865=CARTESIAN_POINT('',(43.05,55.9835808554624,11.6423129579297));
#1866=CARTESIAN_POINT('',(40.75,55.5841900468285,9.37725512600164));
#1867=CARTESIAN_POINT('Origin',(43.05,55.5841900468285,9.37725512600164));
#1868=CARTESIAN_POINT('',(43.05,55.8358596925106,11.6683601845797));
#1869=CARTESIAN_POINT('',(43.05,55.9097202739865,11.6553365712547));
#1870=CARTESIAN_POINT('',(40.75,55.4364688838766,9.40330235265167));
#1871=CARTESIAN_POINT('Origin',(43.05,55.4364688838766,9.40330235265167));
#1872=CARTESIAN_POINT('',(40.75,55.5103294653525,9.39027873932666));
#1873=CARTESIAN_POINT('Origin',(40.75,51.1691250236793,-15.2299150859786));
#1874=CARTESIAN_POINT('',(40.75,46.9017811634819,-39.8631325246088));
#1875=CARTESIAN_POINT('',(40.75,51.2429856051552,-15.2429386993036));
#1876=CARTESIAN_POINT('',(40.75,46.7540600005301,-39.8370852979587));
#1877=CARTESIAN_POINT('',(40.75,51.0952644422034,-15.2168914726535));
#1878=CARTESIAN_POINT('',(40.75,46.827920582006,-39.8501089112838));
#1879=CARTESIAN_POINT('Origin',(43.05,46.827920582006,-39.8501089112838));
#1880=CARTESIAN_POINT('',(43.05,46.502390354848,-42.1281903565369));
#1881=CARTESIAN_POINT('Origin',(43.05,46.9017811634819,-39.8631325246088));
#1882=CARTESIAN_POINT('',(43.05,46.3546691918962,-42.1021431298868));
#1883=CARTESIAN_POINT('Origin',(43.05,46.7540600005301,-39.8370852979587));
#1884=CARTESIAN_POINT('',(43.05,46.4285297733721,-42.1151667432118));
#1885=CARTESIAN_POINT('Origin',(82.55,46.4285297733721,-42.1151667432118));
#1886=CARTESIAN_POINT('',(122.05,46.502390354848,-42.1281903565369));
#1887=CARTESIAN_POINT('',(82.55,46.502390354848,-42.1281903565369));
#1888=CARTESIAN_POINT('',(122.05,46.3546691918962,-42.1021431298868));
#1889=CARTESIAN_POINT('',(82.55,46.3546691918962,-42.1021431298868));
#1890=CARTESIAN_POINT('',(122.05,46.4285297733721,-42.1151667432118));
#1891=CARTESIAN_POINT('Origin',(122.05,55.5103294653525,9.39027873932666));
#1892=CARTESIAN_POINT('',(124.35,55.5841900468285,9.37725512600164));
#1893=CARTESIAN_POINT('',(122.05,55.9835808554624,11.6423129579297));
#1894=CARTESIAN_POINT('Origin',(122.05,55.5841900468285,9.37725512600164));
#1895=CARTESIAN_POINT('',(124.35,55.4364688838766,9.40330235265167));
#1896=CARTESIAN_POINT('',(124.35,55.5103294653525,9.39027873932666));
#1897=CARTESIAN_POINT('',(122.05,55.8358596925106,11.6683601845797));
#1898=CARTESIAN_POINT('Origin',(122.05,55.4364688838766,9.40330235265167));
#1899=CARTESIAN_POINT('',(122.05,55.9097202739865,11.6553365712547));
#1900=CARTESIAN_POINT('Origin',(122.05,46.827920582006,-39.8501089112838));
#1901=CARTESIAN_POINT('',(124.35,46.9017811634819,-39.8631325246088));
#1902=CARTESIAN_POINT('Origin',(122.05,46.9017811634819,-39.8631325246088));
#1903=CARTESIAN_POINT('',(124.35,46.7540600005301,-39.8370852979587));
#1904=CARTESIAN_POINT('Origin',(122.05,46.7540600005301,-39.8370852979587));
#1905=CARTESIAN_POINT('',(124.35,46.827920582006,-39.8501089112838));
#1906=CARTESIAN_POINT('Origin',(124.35,51.1691250236793,-15.2299150859786));
#1907=CARTESIAN_POINT('',(124.35,51.2429856051552,-15.2429386993036));
#1908=CARTESIAN_POINT('',(124.35,51.0952644422034,-15.2168914726535));
#1909=CARTESIAN_POINT('Origin',(82.55,55.9097202739865,11.6553365712547));
#1910=CARTESIAN_POINT('',(82.55,55.9835808554624,11.6423129579297));
#1911=CARTESIAN_POINT('',(82.55,55.8358596925106,11.6683601845797));
#1912=CARTESIAN_POINT('Origin',(43.05,55.5103294653525,9.39027873932666));
#1913=CARTESIAN_POINT('',(40.05,55.5841900468285,9.37725512600164));
#1914=CARTESIAN_POINT('',(40.05,55.4364688838766,9.40330235265167));
#1915=CARTESIAN_POINT('',(40.05,55.5103294653525,9.39027873932666));
#1916=CARTESIAN_POINT('',(43.05,55.9574134168774,12.3577256116883));
#1917=CARTESIAN_POINT('Origin',(43.05,55.4364688838766,9.40330235265167));
#1918=CARTESIAN_POINT('',(43.05,56.1051345798293,12.3316783850383));
#1919=CARTESIAN_POINT('',(43.05,56.0312739983533,12.3447019983633));
#1920=CARTESIAN_POINT('Origin',(43.05,55.5841900468285,9.37725512600164));
#1921=CARTESIAN_POINT('Origin',(82.55,51.2429856051552,-15.2429386993036));
#1922=CARTESIAN_POINT('',(122.05,56.1051345798293,12.3316783850383));
#1923=CARTESIAN_POINT('',(82.55,56.1051345798293,12.3316783850383));
#1924=CARTESIAN_POINT('',(125.05,55.5841900468285,9.37725512600164));
#1925=CARTESIAN_POINT('Origin',(122.05,55.5841900468285,9.37725512600164));
#1926=CARTESIAN_POINT('',(125.05,46.9017811634819,-39.8631325246088));
#1927=CARTESIAN_POINT('',(125.05,51.2429856051552,-15.2429386993036));
#1928=CARTESIAN_POINT('',(122.05,46.3808366304811,-42.8175557836454));
#1929=CARTESIAN_POINT('Origin',(122.05,46.9017811634819,-39.8631325246088));
#1930=CARTESIAN_POINT('',(43.05,46.3808366304811,-42.8175557836454));
#1931=CARTESIAN_POINT('',(82.55,46.3808366304811,-42.8175557836454));
#1932=CARTESIAN_POINT('',(40.05,46.9017811634819,-39.8631325246088));
#1933=CARTESIAN_POINT('Origin',(43.05,46.9017811634819,-39.8631325246088));
#1934=CARTESIAN_POINT('',(40.05,51.2429856051552,-15.2429386993036));
#1935=CARTESIAN_POINT('Origin',(43.05,46.827920582006,-39.8501089112838));
#1936=CARTESIAN_POINT('',(43.05,46.2331154675293,-42.7915085569954));
#1937=CARTESIAN_POINT('',(43.05,46.3069760490052,-42.8045321703204));
#1938=CARTESIAN_POINT('',(40.05,46.7540600005301,-39.8370852979587));
#1939=CARTESIAN_POINT('Origin',(43.05,46.7540600005301,-39.8370852979587));
#1940=CARTESIAN_POINT('',(40.05,46.827920582006,-39.8501089112838));
#1941=CARTESIAN_POINT('Origin',(122.05,55.5103294653525,9.39027873932666));
#1942=CARTESIAN_POINT('',(125.05,55.4364688838766,9.40330235265167));
#1943=CARTESIAN_POINT('',(125.05,55.5103294653525,9.39027873932666));
#1944=CARTESIAN_POINT('',(122.05,55.9574134168774,12.3577256116883));
#1945=CARTESIAN_POINT('',(122.05,56.0312739983533,12.3447019983633));
#1946=CARTESIAN_POINT('Origin',(122.05,55.4364688838766,9.40330235265167));
#1947=CARTESIAN_POINT('Origin',(82.55,51.0952644422034,-15.2168914726535));
#1948=CARTESIAN_POINT('',(40.05,51.0952644422034,-15.2168914726535));
#1949=CARTESIAN_POINT('',(122.05,46.2331154675293,-42.7915085569954));
#1950=CARTESIAN_POINT('',(82.55,46.2331154675293,-42.7915085569954));
#1951=CARTESIAN_POINT('',(125.05,46.7540600005301,-39.8370852979587));
#1952=CARTESIAN_POINT('Origin',(122.05,46.7540600005301,-39.8370852979587));
#1953=CARTESIAN_POINT('',(125.05,51.0952644422034,-15.2168914726535));
#1954=CARTESIAN_POINT('',(82.55,55.9574134168774,12.3577256116883));
#1955=CARTESIAN_POINT('Origin',(122.05,46.827920582006,-39.8501089112838));
#1956=CARTESIAN_POINT('',(122.05,46.3069760490052,-42.8045321703204));
#1957=CARTESIAN_POINT('',(125.05,46.827920582006,-39.8501089112838));
#1958=CARTESIAN_POINT('Origin',(125.05,51.1691250236793,-15.2299150859786));
#1959=CARTESIAN_POINT('Origin',(40.05,51.1691250236793,-15.2299150859786));
#1960=CARTESIAN_POINT('Origin',(82.55,46.3069760490052,-42.8045321703204));
#1961=CARTESIAN_POINT('Origin',(82.55,56.0312739983533,12.3447019983633));
#1962=UNCERTAINTY_MEASURE_WITH_UNIT(LENGTH_MEASURE(0.01),#1966,
'DISTANCE_ACCURACY_VALUE',
'Maximum model space distance between geometric entities at asserted c
onnectivities');
#1963=UNCERTAINTY_MEASURE_WITH_UNIT(LENGTH_MEASURE(0.01),#1966,
'DISTANCE_ACCURACY_VALUE',
'Maximum model space distance between geometric entities at asserted c
onnectivities');
#1964=(
GEOMETRIC_REPRESENTATION_CONTEXT(3)
GLOBAL_UNCERTAINTY_ASSIGNED_CONTEXT((#1962))
GLOBAL_UNIT_ASSIGNED_CONTEXT((#1966,#1968,#1969))
REPRESENTATION_CONTEXT('','3D')
);
#1965=(
GEOMETRIC_REPRESENTATION_CONTEXT(3)
GLOBAL_UNCERTAINTY_ASSIGNED_CONTEXT((#1963))
GLOBAL_UNIT_ASSIGNED_CONTEXT((#1966,#1968,#1969))
REPRESENTATION_CONTEXT('','3D')
);
#1966=(
LENGTH_UNIT()
NAMED_UNIT(*)
SI_UNIT(.MILLI.,.METRE.)
);
#1967=(
LENGTH_UNIT()
NAMED_UNIT(*)
SI_UNIT($,.METRE.)
);
#1968=(
NAMED_UNIT(*)
PLANE_ANGLE_UNIT()
SI_UNIT($,.RADIAN.)
);
#1969=(
NAMED_UNIT(*)
SI_UNIT($,.STERADIAN.)
SOLID_ANGLE_UNIT()
);
#1970=SHAPE_DEFINITION_REPRESENTATION(#1971,#1972);
#1971=PRODUCT_DEFINITION_SHAPE('',$,#1974);
#1972=SHAPE_REPRESENTATION('',(#1182),#1964);
#1973=PRODUCT_DEFINITION_CONTEXT('part definition',#1978,'design');
#1974=PRODUCT_DEFINITION('(Unsaved)','(Unsaved)',#1975,#1973);
#1975=PRODUCT_DEFINITION_FORMATION('',$,#1980);
#1976=PRODUCT_RELATED_PRODUCT_CATEGORY('(Unsaved)','(Unsaved)',(#1980));
#1977=APPLICATION_PROTOCOL_DEFINITION('international standard',
'automotive_design',2009,#1978);
#1978=APPLICATION_CONTEXT(
'Core Data for Automotive Mechanical Design Process');
#1979=PRODUCT_CONTEXT('part definition',#1978,'mechanical');
#1980=PRODUCT('(Unsaved)','(Unsaved)',$,(#1979));
#1981=PRESENTATION_STYLE_ASSIGNMENT((#1982));
#1982=SURFACE_STYLE_USAGE(.BOTH.,#1983);
#1983=SURFACE_SIDE_STYLE('',(#1984));
#1984=SURFACE_STYLE_FILL_AREA(#1985);
#1985=FILL_AREA_STYLE('Steel - Satin',(#1986));
#1986=FILL_AREA_STYLE_COLOUR('Steel - Satin',#1987);
#1987=COLOUR_RGB('Steel - Satin',0.627450980392157,0.627450980392157,0.627450980392157);
ENDSEC;
END-ISO-10303-21;
