ISO-10303-21;
HEADER;
/* Generated by software containing ST-Developer
 * from STEP Tools, Inc. (www.steptools.com) 
 */

FILE_DESCRIPTION(
/* description */ (''),
/* implementation_level */ '2;1');

FILE_NAME(
/* name */ 'openflight-x12-cradle-brace.step',
/* time_stamp */ '2026-09-11T16:57:54-07:00',
/* author */ (''),
/* organization */ (''),
/* preprocessor_version */ 'ST-DEVELOPER v20.2',
/* originating_system */ 'Autodesk Translation Framework v15.15.0.0',
/* authorisation */ '');

FILE_SCHEMA (('AUTOMOTIVE_DESIGN { 1 0 10303 214 3 1 1 }'));
ENDSEC;

DATA;
#10=MECHANICAL_DESIGN_GEOMETRIC_PRESENTATION_REPRESENTATION('',(#13),#1704);
#11=SHAPE_REPRESENTATION_RELATIONSHIP('SRR','None',#1711,#12);
#12=ADVANCED_BREP_SHAPE_REPRESENTATION('',(#14),#1703);
#13=STYLED_ITEM('',(#1720),#14);
#14=MANIFOLD_SOLID_BREP('openflight-x12-cradle-brace',#1021);
#15=LINE('',#1426,#120);
#16=LINE('',#1429,#121);
#17=LINE('',#1434,#122);
#18=LINE('',#1439,#123);
#19=LINE('',#1442,#124);
#20=LINE('',#1454,#125);
#21=LINE('',#1457,#126);
#22=LINE('',#1460,#127);
#23=LINE('',#1465,#128);
#24=LINE('',#1468,#129);
#25=LINE('',#1480,#130);
#26=LINE('',#1484,#131);
#27=LINE('',#1490,#132);
#28=LINE('',#1495,#133);
#29=LINE('',#1498,#134);
#30=LINE('',#1508,#135);
#31=LINE('',#1510,#136);
#32=LINE('',#1514,#137);
#33=LINE('',#1519,#138);
#34=LINE('',#1522,#139);
#35=LINE('',#1526,#140);
#36=LINE('',#1530,#141);
#37=LINE('',#1534,#142);
#38=LINE('',#1538,#143);
#39=LINE('',#1540,#144);
#40=LINE('',#1542,#145);
#41=LINE('',#1544,#146);
#42=LINE('',#1545,#147);
#43=LINE('',#1548,#148);
#44=LINE('',#1549,#149);
#45=LINE('',#1551,#150);
#46=LINE('',#1553,#151);
#47=LINE('',#1554,#152);
#48=LINE('',#1555,#153);
#49=LINE('',#1556,#154);
#50=LINE('',#1559,#155);
#51=LINE('',#1560,#156);
#52=LINE('',#1562,#157);
#53=LINE('',#1564,#158);
#54=LINE('',#1565,#159);
#55=LINE('',#1567,#160);
#56=LINE('',#1568,#161);
#57=LINE('',#1570,#162);
#58=LINE('',#1572,#163);
#59=LINE('',#1575,#164);
#60=LINE('',#1578,#165);
#61=LINE('',#1580,#166);
#62=LINE('',#1581,#167);
#63=LINE('',#1584,#168);
#64=LINE('',#1586,#169);
#65=LINE('',#1590,#170);
#66=LINE('',#1591,#171);
#67=LINE('',#1593,#172);
#68=LINE('',#1595,#173);
#69=LINE('',#1596,#174);
#70=LINE('',#1599,#175);
#71=LINE('',#1600,#176);
#72=LINE('',#1602,#177);
#73=LINE('',#1603,#178);
#74=LINE('',#1605,#179);
#75=LINE('',#1606,#180);
#76=LINE('',#1608,#181);
#77=LINE('',#1609,#182);
#78=LINE('',#1611,#183);
#79=LINE('',#1613,#184);
#80=LINE('',#1616,#185);
#81=LINE('',#1619,#186);
#82=LINE('',#1621,#187);
#83=LINE('',#1628,#188);
#84=LINE('',#1629,#189);
#85=LINE('',#1630,#190);
#86=LINE('',#1634,#191);
#87=LINE('',#1636,#192);
#88=LINE('',#1638,#193);
#89=LINE('',#1639,#194);
#90=LINE('',#1643,#195);
#91=LINE('',#1644,#196);
#92=LINE('',#1645,#197);
#93=LINE('',#1649,#198);
#94=LINE('',#1651,#199);
#95=LINE('',#1653,#200);
#96=LINE('',#1654,#201);
#97=LINE('',#1657,#202);
#98=LINE('',#1659,#203);
#99=LINE('',#1660,#204);
#100=LINE('',#1661,#205);
#101=LINE('',#1662,#206);
#102=LINE('',#1663,#207);
#103=LINE('',#1665,#208);
#104=LINE('',#1667,#209);
#105=LINE('',#1670,#210);
#106=LINE('',#1671,#211);
#107=LINE('',#1673,#212);
#108=LINE('',#1675,#213);
#109=LINE('',#1676,#214);
#110=LINE('',#1677,#215);
#111=LINE('',#1679,#216);
#112=LINE('',#1680,#217);
#113=LINE('',#1682,#218);
#114=LINE('',#1684,#219);
#115=LINE('',#1686,#220);
#116=LINE('',#1687,#221);
#117=LINE('',#1694,#222);
#118=LINE('',#1695,#223);
#119=LINE('',#1697,#224);
#120=VECTOR('',#1141,4.);
#121=VECTOR('',#1144,10.);
#122=VECTOR('',#1149,10.);
#123=VECTOR('',#1152,10.);
#124=VECTOR('',#1155,10.);
#125=VECTOR('',#1168,4.);
#126=VECTOR('',#1171,10.);
#127=VECTOR('',#1174,10.);
#128=VECTOR('',#1177,10.);
#129=VECTOR('',#1180,10.);
#130=VECTOR('',#1193,10.);
#131=VECTOR('',#1196,4.);
#132=VECTOR('',#1203,10.);
#133=VECTOR('',#1206,10.);
#134=VECTOR('',#1209,10.);
#135=VECTOR('',#1220,10.);
#136=VECTOR('',#1221,4.);
#137=VECTOR('',#1226,10.);
#138=VECTOR('',#1229,10.);
#139=VECTOR('',#1232,10.);
#140=VECTOR('',#1237,1.35);
#141=VECTOR('',#1242,1.35);
#142=VECTOR('',#1247,1.35);
#143=VECTOR('',#1252,1.35);
#144=VECTOR('',#1255,10.);
#145=VECTOR('',#1256,10.);
#146=VECTOR('',#1257,10.);
#147=VECTOR('',#1258,10.);
#148=VECTOR('',#1261,10.);
#149=VECTOR('',#1262,10.);
#150=VECTOR('',#1263,10.);
#151=VECTOR('',#1264,10.);
#152=VECTOR('',#1265,10.);
#153=VECTOR('',#1266,10.);
#154=VECTOR('',#1267,10.);
#155=VECTOR('',#1270,10.);
#156=VECTOR('',#1271,10.);
#157=VECTOR('',#1272,10.);
#158=VECTOR('',#1273,10.);
#159=VECTOR('',#1274,10.);
#160=VECTOR('',#1275,10.);
#161=VECTOR('',#1276,10.);
#162=VECTOR('',#1277,10.);
#163=VECTOR('',#1278,10.);
#164=VECTOR('',#1281,10.);
#165=VECTOR('',#1282,10.);
#166=VECTOR('',#1283,10.);
#167=VECTOR('',#1284,10.);
#168=VECTOR('',#1287,10.);
#169=VECTOR('',#1288,10.);
#170=VECTOR('',#1293,10.);
#171=VECTOR('',#1294,10.);
#172=VECTOR('',#1295,10.);
#173=VECTOR('',#1296,10.);
#174=VECTOR('',#1297,10.);
#175=VECTOR('',#1300,10.);
#176=VECTOR('',#1301,10.);
#177=VECTOR('',#1302,10.);
#178=VECTOR('',#1303,10.);
#179=VECTOR('',#1304,10.);
#180=VECTOR('',#1305,10.);
#181=VECTOR('',#1306,10.);
#182=VECTOR('',#1307,10.);
#183=VECTOR('',#1310,10.);
#184=VECTOR('',#1313,10.);
#185=VECTOR('',#1318,10.);
#186=VECTOR('',#1323,10.);
#187=VECTOR('',#1326,10.);
#188=VECTOR('',#1335,10.);
#189=VECTOR('',#1336,10.);
#190=VECTOR('',#1337,10.);
#191=VECTOR('',#1340,10.);
#192=VECTOR('',#1341,10.);
#193=VECTOR('',#1342,10.);
#194=VECTOR('',#1343,10.);
#195=VECTOR('',#1346,10.);
#196=VECTOR('',#1347,10.);
#197=VECTOR('',#1348,10.);
#198=VECTOR('',#1351,10.);
#199=VECTOR('',#1352,10.);
#200=VECTOR('',#1353,10.);
#201=VECTOR('',#1354,10.);
#202=VECTOR('',#1357,10.);
#203=VECTOR('',#1358,10.);
#204=VECTOR('',#1359,10.);
#205=VECTOR('',#1360,10.);
#206=VECTOR('',#1361,10.);
#207=VECTOR('',#1362,10.);
#208=VECTOR('',#1365,10.);
#209=VECTOR('',#1368,10.);
#210=VECTOR('',#1371,10.);
#211=VECTOR('',#1372,10.);
#212=VECTOR('',#1375,10.);
#213=VECTOR('',#1376,10.);
#214=VECTOR('',#1377,10.);
#215=VECTOR('',#1378,10.);
#216=VECTOR('',#1379,10.);
#217=VECTOR('',#1380,10.);
#218=VECTOR('',#1383,10.);
#219=VECTOR('',#1386,10.);
#220=VECTOR('',#1389,10.);
#221=VECTOR('',#1390,10.);
#222=VECTOR('',#1401,10.);
#223=VECTOR('',#1402,10.);
#224=VECTOR('',#1405,10.);
#225=CYLINDRICAL_SURFACE('',#1041,4.);
#226=CYLINDRICAL_SURFACE('',#1052,4.);
#227=CYLINDRICAL_SURFACE('',#1062,4.);
#228=CYLINDRICAL_SURFACE('',#1073,4.);
#229=CYLINDRICAL_SURFACE('',#1078,1.35);
#230=CYLINDRICAL_SURFACE('',#1080,1.35);
#231=CYLINDRICAL_SURFACE('',#1082,1.35);
#232=CYLINDRICAL_SURFACE('',#1084,1.35);
#233=CYLINDRICAL_SURFACE('',#1090,7.35);
#234=FACE_BOUND('',#298,.T.);
#235=FACE_BOUND('',#300,.T.);
#236=FACE_BOUND('',#302,.T.);
#237=FACE_BOUND('',#304,.T.);
#238=FACE_BOUND('',#306,.T.);
#239=FACE_BOUND('',#308,.T.);
#240=FACE_BOUND('',#310,.T.);
#241=FACE_BOUND('',#312,.T.);
#242=FACE_BOUND('',#320,.T.);
#243=FACE_BOUND('',#327,.T.);
#244=FACE_BOUND('',#344,.T.);
#245=FACE_BOUND('',#352,.T.);
#246=FACE_BOUND('',#357,.T.);
#247=FACE_BOUND('',#359,.T.);
#248=FACE_OUTER_BOUND('',#297,.T.);
#249=FACE_OUTER_BOUND('',#299,.T.);
#250=FACE_OUTER_BOUND('',#301,.T.);
#251=FACE_OUTER_BOUND('',#303,.T.);
#252=FACE_OUTER_BOUND('',#305,.T.);
#253=FACE_OUTER_BOUND('',#307,.T.);
#254=FACE_OUTER_BOUND('',#309,.T.);
#255=FACE_OUTER_BOUND('',#311,.T.);
#256=FACE_OUTER_BOUND('',#313,.T.);
#257=FACE_OUTER_BOUND('',#314,.T.);
#258=FACE_OUTER_BOUND('',#315,.T.);
#259=FACE_OUTER_BOUND('',#316,.T.);
#260=FACE_OUTER_BOUND('',#317,.T.);
#261=FACE_OUTER_BOUND('',#318,.T.);
#262=FACE_OUTER_BOUND('',#319,.T.);
#263=FACE_OUTER_BOUND('',#321,.T.);
#264=FACE_OUTER_BOUND('',#322,.T.);
#265=FACE_OUTER_BOUND('',#323,.T.);
#266=FACE_OUTER_BOUND('',#324,.T.);
#267=FACE_OUTER_BOUND('',#325,.T.);
#268=FACE_OUTER_BOUND('',#326,.T.);
#269=FACE_OUTER_BOUND('',#328,.T.);
#270=FACE_OUTER_BOUND('',#329,.T.);
#271=FACE_OUTER_BOUND('',#330,.T.);
#272=FACE_OUTER_BOUND('',#331,.T.);
#273=FACE_OUTER_BOUND('',#332,.T.);
#274=FACE_OUTER_BOUND('',#333,.T.);
#275=FACE_OUTER_BOUND('',#334,.T.);
#276=FACE_OUTER_BOUND('',#335,.T.);
#277=FACE_OUTER_BOUND('',#336,.T.);
#278=FACE_OUTER_BOUND('',#337,.T.);
#279=FACE_OUTER_BOUND('',#338,.T.);
#280=FACE_OUTER_BOUND('',#339,.T.);
#281=FACE_OUTER_BOUND('',#340,.T.);
#282=FACE_OUTER_BOUND('',#341,.T.);
#283=FACE_OUTER_BOUND('',#342,.T.);
#284=FACE_OUTER_BOUND('',#343,.T.);
#285=FACE_OUTER_BOUND('',#345,.T.);
#286=FACE_OUTER_BOUND('',#346,.T.);
#287=FACE_OUTER_BOUND('',#347,.T.);
#288=FACE_OUTER_BOUND('',#348,.T.);
#289=FACE_OUTER_BOUND('',#349,.T.);
#290=FACE_OUTER_BOUND('',#350,.T.);
#291=FACE_OUTER_BOUND('',#351,.T.);
#292=FACE_OUTER_BOUND('',#353,.T.);
#293=FACE_OUTER_BOUND('',#354,.T.);
#294=FACE_OUTER_BOUND('',#355,.T.);
#295=FACE_OUTER_BOUND('',#356,.T.);
#296=FACE_OUTER_BOUND('',#358,.T.);
#297=EDGE_LOOP('',(#640,#641,#642,#643));
#298=EDGE_LOOP('',(#644));
#299=EDGE_LOOP('',(#645,#646,#647,#648,#649,#650,#651,#652,#653));
#300=EDGE_LOOP('',(#654,#655,#656,#657));
#301=EDGE_LOOP('',(#658,#659,#660));
#302=EDGE_LOOP('',(#661));
#303=EDGE_LOOP('',(#662,#663,#664,#665,#666,#667,#668,#669));
#304=EDGE_LOOP('',(#670,#671,#672,#673));
#305=EDGE_LOOP('',(#674,#675,#676));
#306=EDGE_LOOP('',(#677));
#307=EDGE_LOOP('',(#678,#679,#680,#681,#682,#683,#684,#685,#686));
#308=EDGE_LOOP('',(#687,#688,#689,#690));
#309=EDGE_LOOP('',(#691,#692));
#310=EDGE_LOOP('',(#693));
#311=EDGE_LOOP('',(#694,#695,#696,#697,#698,#699,#700));
#312=EDGE_LOOP('',(#701,#702,#703,#704));
#313=EDGE_LOOP('',(#705,#706,#707,#708));
#314=EDGE_LOOP('',(#709,#710,#711,#712));
#315=EDGE_LOOP('',(#713,#714,#715,#716));
#316=EDGE_LOOP('',(#717,#718,#719,#720));
#317=EDGE_LOOP('',(#721,#722,#723,#724,#725,#726));
#318=EDGE_LOOP('',(#727,#728,#729,#730,#731,#732,#733,#734));
#319=EDGE_LOOP('',(#735,#736,#737,#738,#739,#740,#741,#742,#743,#744,#745,
#746,#747,#748,#749,#750));
#320=EDGE_LOOP('',(#751,#752,#753));
#321=EDGE_LOOP('',(#754,#755,#756,#757));
#322=EDGE_LOOP('',(#758,#759,#760,#761,#762,#763,#764,#765,#766,#767,#768,
#769));
#323=EDGE_LOOP('',(#770,#771,#772,#773,#774,#775,#776,#777,#778,#779,#780,
#781,#782));
#324=EDGE_LOOP('',(#783,#784,#785,#786));
#325=EDGE_LOOP('',(#787,#788,#789,#790));
#326=EDGE_LOOP('',(#791));
#327=EDGE_LOOP('',(#792));
#328=EDGE_LOOP('',(#793,#794,#795,#796));
#329=EDGE_LOOP('',(#797,#798,#799,#800));
#330=EDGE_LOOP('',(#801,#802,#803,#804));
#331=EDGE_LOOP('',(#805,#806,#807,#808));
#332=EDGE_LOOP('',(#809,#810,#811,#812));
#333=EDGE_LOOP('',(#813,#814,#815,#816));
#334=EDGE_LOOP('',(#817,#818,#819,#820));
#335=EDGE_LOOP('',(#821,#822,#823,#824));
#336=EDGE_LOOP('',(#825,#826,#827,#828));
#337=EDGE_LOOP('',(#829,#830,#831,#832));
#338=EDGE_LOOP('',(#833,#834,#835,#836));
#339=EDGE_LOOP('',(#837,#838,#839,#840,#841,#842,#843,#844,#845,#846,#847,
#848));
#340=EDGE_LOOP('',(#849,#850,#851,#852));
#341=EDGE_LOOP('',(#853,#854,#855,#856));
#342=EDGE_LOOP('',(#857,#858,#859,#860));
#343=EDGE_LOOP('',(#861,#862,#863,#864,#865,#866,#867,#868,#869,#870,#871,
#872,#873,#874,#875,#876));
#344=EDGE_LOOP('',(#877,#878,#879));
#345=EDGE_LOOP('',(#880,#881,#882,#883));
#346=EDGE_LOOP('',(#884,#885,#886,#887,#888,#889,#890,#891,#892,#893,#894,
#895));
#347=EDGE_LOOP('',(#896,#897,#898,#899));
#348=EDGE_LOOP('',(#900,#901,#902,#903));
#349=EDGE_LOOP('',(#904,#905,#906,#907));
#350=EDGE_LOOP('',(#908,#909,#910,#911));
#351=EDGE_LOOP('',(#912));
#352=EDGE_LOOP('',(#913));
#353=EDGE_LOOP('',(#914,#915,#916,#917,#918,#919));
#354=EDGE_LOOP('',(#920,#921,#922,#923));
#355=EDGE_LOOP('',(#924,#925,#926,#927));
#356=EDGE_LOOP('',(#928));
#357=EDGE_LOOP('',(#929));
#358=EDGE_LOOP('',(#930));
#359=EDGE_LOOP('',(#931));
#360=CIRCLE('',#1036,4.);
#361=CIRCLE('',#1037,4.);
#362=CIRCLE('',#1038,4.);
#363=CIRCLE('',#1039,4.);
#364=CIRCLE('',#1040,1.35);
#365=CIRCLE('',#1042,4.);
#366=CIRCLE('',#1043,4.);
#367=CIRCLE('',#1044,4.);
#368=CIRCLE('',#1045,4.);
#369=CIRCLE('',#1046,4.);
#370=CIRCLE('',#1048,4.);
#371=CIRCLE('',#1049,4.);
#372=CIRCLE('',#1050,4.);
#373=CIRCLE('',#1051,1.35);
#374=CIRCLE('',#1053,4.);
#375=CIRCLE('',#1054,4.);
#376=CIRCLE('',#1055,4.);
#377=CIRCLE('',#1056,4.);
#378=CIRCLE('',#1058,4.);
#379=CIRCLE('',#1059,4.);
#380=CIRCLE('',#1060,4.);
#381=CIRCLE('',#1061,1.35);
#382=CIRCLE('',#1063,4.);
#383=CIRCLE('',#1064,4.);
#384=CIRCLE('',#1065,4.);
#385=CIRCLE('',#1066,4.);
#386=CIRCLE('',#1067,4.);
#387=CIRCLE('',#1068,4.);
#388=CIRCLE('',#1070,4.);
#389=CIRCLE('',#1071,4.);
#390=CIRCLE('',#1072,1.35);
#391=CIRCLE('',#1074,4.);
#392=CIRCLE('',#1075,4.);
#393=CIRCLE('',#1076,4.);
#394=CIRCLE('',#1077,4.);
#395=CIRCLE('',#1079,1.35);
#396=CIRCLE('',#1081,1.35);
#397=CIRCLE('',#1083,1.35);
#398=CIRCLE('',#1085,1.35);
#399=CIRCLE('',#1089,7.35);
#400=CIRCLE('',#1091,7.35);
#401=VERTEX_POINT('',#1414);
#402=VERTEX_POINT('',#1415);
#403=VERTEX_POINT('',#1417);
#404=VERTEX_POINT('',#1419);
#405=VERTEX_POINT('',#1422);
#406=VERTEX_POINT('',#1425);
#407=VERTEX_POINT('',#1428);
#408=VERTEX_POINT('',#1430);
#409=VERTEX_POINT('',#1432);
#410=VERTEX_POINT('',#1435);
#411=VERTEX_POINT('',#1436);
#412=VERTEX_POINT('',#1438);
#413=VERTEX_POINT('',#1440);
#414=VERTEX_POINT('',#1444);
#415=VERTEX_POINT('',#1445);
#416=VERTEX_POINT('',#1447);
#417=VERTEX_POINT('',#1450);
#418=VERTEX_POINT('',#1453);
#419=VERTEX_POINT('',#1456);
#420=VERTEX_POINT('',#1458);
#421=VERTEX_POINT('',#1461);
#422=VERTEX_POINT('',#1462);
#423=VERTEX_POINT('',#1464);
#424=VERTEX_POINT('',#1466);
#425=VERTEX_POINT('',#1470);
#426=VERTEX_POINT('',#1471);
#427=VERTEX_POINT('',#1473);
#428=VERTEX_POINT('',#1476);
#429=VERTEX_POINT('',#1479);
#430=VERTEX_POINT('',#1481);
#431=VERTEX_POINT('',#1483);
#432=VERTEX_POINT('',#1486);
#433=VERTEX_POINT('',#1488);
#434=VERTEX_POINT('',#1491);
#435=VERTEX_POINT('',#1492);
#436=VERTEX_POINT('',#1494);
#437=VERTEX_POINT('',#1496);
#438=VERTEX_POINT('',#1500);
#439=VERTEX_POINT('',#1501);
#440=VERTEX_POINT('',#1504);
#441=VERTEX_POINT('',#1507);
#442=VERTEX_POINT('',#1509);
#443=VERTEX_POINT('',#1512);
#444=VERTEX_POINT('',#1515);
#445=VERTEX_POINT('',#1516);
#446=VERTEX_POINT('',#1518);
#447=VERTEX_POINT('',#1520);
#448=VERTEX_POINT('',#1524);
#449=VERTEX_POINT('',#1528);
#450=VERTEX_POINT('',#1532);
#451=VERTEX_POINT('',#1536);
#452=VERTEX_POINT('',#1541);
#453=VERTEX_POINT('',#1543);
#454=VERTEX_POINT('',#1547);
#455=VERTEX_POINT('',#1550);
#456=VERTEX_POINT('',#1552);
#457=VERTEX_POINT('',#1558);
#458=VERTEX_POINT('',#1561);
#459=VERTEX_POINT('',#1563);
#460=VERTEX_POINT('',#1566);
#461=VERTEX_POINT('',#1569);
#462=VERTEX_POINT('',#1571);
#463=VERTEX_POINT('',#1573);
#464=VERTEX_POINT('',#1576);
#465=VERTEX_POINT('',#1577);
#466=VERTEX_POINT('',#1579);
#467=VERTEX_POINT('',#1583);
#468=VERTEX_POINT('',#1585);
#469=VERTEX_POINT('',#1589);
#470=VERTEX_POINT('',#1592);
#471=VERTEX_POINT('',#1594);
#472=VERTEX_POINT('',#1598);
#473=VERTEX_POINT('',#1601);
#474=VERTEX_POINT('',#1604);
#475=VERTEX_POINT('',#1607);
#476=VERTEX_POINT('',#1626);
#477=VERTEX_POINT('',#1627);
#478=VERTEX_POINT('',#1632);
#479=VERTEX_POINT('',#1633);
#480=VERTEX_POINT('',#1635);
#481=VERTEX_POINT('',#1637);
#482=VERTEX_POINT('',#1641);
#483=VERTEX_POINT('',#1642);
#484=VERTEX_POINT('',#1647);
#485=VERTEX_POINT('',#1648);
#486=VERTEX_POINT('',#1650);
#487=VERTEX_POINT('',#1652);
#488=VERTEX_POINT('',#1656);
#489=VERTEX_POINT('',#1658);
#490=VERTEX_POINT('',#1669);
#491=VERTEX_POINT('',#1674);
#492=VERTEX_POINT('',#1678);
#493=VERTEX_POINT('',#1693);
#494=EDGE_CURVE('',#401,#402,#360,.T.);
#495=EDGE_CURVE('',#403,#402,#361,.T.);
#496=EDGE_CURVE('',#404,#403,#362,.T.);
#497=EDGE_CURVE('',#404,#401,#363,.T.);
#498=EDGE_CURVE('',#405,#405,#364,.T.);
#499=EDGE_CURVE('',#403,#406,#15,.T.);
#500=EDGE_CURVE('',#406,#406,#365,.T.);
#501=EDGE_CURVE('',#402,#407,#16,.T.);
#502=EDGE_CURVE('',#407,#408,#366,.T.);
#503=EDGE_CURVE('',#408,#409,#367,.T.);
#504=EDGE_CURVE('',#409,#404,#17,.T.);
#505=EDGE_CURVE('',#410,#411,#368,.T.);
#506=EDGE_CURVE('',#411,#412,#18,.T.);
#507=EDGE_CURVE('',#412,#413,#369,.T.);
#508=EDGE_CURVE('',#413,#410,#19,.T.);
#509=EDGE_CURVE('',#414,#415,#370,.T.);
#510=EDGE_CURVE('',#416,#415,#371,.T.);
#511=EDGE_CURVE('',#414,#416,#372,.T.);
#512=EDGE_CURVE('',#417,#417,#373,.T.);
#513=EDGE_CURVE('',#416,#418,#20,.T.);
#514=EDGE_CURVE('',#418,#418,#374,.T.);
#515=EDGE_CURVE('',#415,#419,#21,.T.);
#516=EDGE_CURVE('',#419,#420,#375,.T.);
#517=EDGE_CURVE('',#420,#414,#22,.T.);
#518=EDGE_CURVE('',#421,#422,#376,.T.);
#519=EDGE_CURVE('',#422,#423,#23,.T.);
#520=EDGE_CURVE('',#423,#424,#377,.T.);
#521=EDGE_CURVE('',#424,#421,#24,.T.);
#522=EDGE_CURVE('',#425,#426,#378,.T.);
#523=EDGE_CURVE('',#427,#426,#379,.T.);
#524=EDGE_CURVE('',#427,#425,#380,.T.);
#525=EDGE_CURVE('',#428,#428,#381,.T.);
#526=EDGE_CURVE('',#426,#429,#25,.T.);
#527=EDGE_CURVE('',#429,#430,#382,.T.);
#528=EDGE_CURVE('',#430,#431,#26,.T.);
#529=EDGE_CURVE('',#431,#431,#383,.T.);
#530=EDGE_CURVE('',#430,#432,#384,.T.);
#531=EDGE_CURVE('',#432,#433,#385,.T.);
#532=EDGE_CURVE('',#433,#427,#27,.T.);
#533=EDGE_CURVE('',#434,#435,#386,.T.);
#534=EDGE_CURVE('',#435,#436,#28,.T.);
#535=EDGE_CURVE('',#436,#437,#387,.T.);
#536=EDGE_CURVE('',#437,#434,#29,.T.);
#537=EDGE_CURVE('',#438,#439,#388,.T.);
#538=EDGE_CURVE('',#438,#439,#389,.T.);
#539=EDGE_CURVE('',#440,#440,#390,.T.);
#540=EDGE_CURVE('',#439,#441,#30,.T.);
#541=EDGE_CURVE('',#441,#442,#31,.T.);
#542=EDGE_CURVE('',#442,#442,#391,.T.);
#543=EDGE_CURVE('',#441,#443,#392,.T.);
#544=EDGE_CURVE('',#443,#438,#32,.T.);
#545=EDGE_CURVE('',#444,#445,#393,.T.);
#546=EDGE_CURVE('',#445,#446,#33,.T.);
#547=EDGE_CURVE('',#446,#447,#394,.T.);
#548=EDGE_CURVE('',#447,#444,#34,.T.);
#549=EDGE_CURVE('',#448,#448,#395,.T.);
#550=EDGE_CURVE('',#448,#440,#35,.T.);
#551=EDGE_CURVE('',#449,#449,#396,.T.);
#552=EDGE_CURVE('',#449,#428,#36,.T.);
#553=EDGE_CURVE('',#450,#450,#397,.T.);
#554=EDGE_CURVE('',#450,#417,#37,.T.);
#555=EDGE_CURVE('',#451,#451,#398,.T.);
#556=EDGE_CURVE('',#451,#405,#38,.T.);
#557=EDGE_CURVE('',#404,#415,#39,.T.);
#558=EDGE_CURVE('',#414,#452,#40,.T.);
#559=EDGE_CURVE('',#452,#453,#41,.T.);
#560=EDGE_CURVE('',#453,#401,#42,.T.);
#561=EDGE_CURVE('',#408,#454,#43,.T.);
#562=EDGE_CURVE('',#432,#408,#44,.T.);
#563=EDGE_CURVE('',#455,#432,#45,.T.);
#564=EDGE_CURVE('',#456,#455,#46,.T.);
#565=EDGE_CURVE('',#425,#456,#47,.T.);
#566=EDGE_CURVE('',#401,#425,#48,.T.);
#567=EDGE_CURVE('',#453,#454,#49,.T.);
#568=EDGE_CURVE('',#454,#457,#50,.T.);
#569=EDGE_CURVE('',#457,#420,#51,.T.);
#570=EDGE_CURVE('',#419,#458,#52,.T.);
#571=EDGE_CURVE('',#458,#459,#53,.T.);
#572=EDGE_CURVE('',#459,#422,#54,.T.);
#573=EDGE_CURVE('',#421,#460,#55,.T.);
#574=EDGE_CURVE('',#460,#411,#56,.T.);
#575=EDGE_CURVE('',#410,#461,#57,.T.);
#576=EDGE_CURVE('',#461,#462,#58,.T.);
#577=EDGE_CURVE('',#462,#463,#399,.T.);
#578=EDGE_CURVE('',#463,#409,#59,.T.);
#579=EDGE_CURVE('',#464,#465,#60,.T.);
#580=EDGE_CURVE('',#465,#466,#61,.T.);
#581=EDGE_CURVE('',#466,#464,#62,.T.);
#582=EDGE_CURVE('',#467,#463,#63,.T.);
#583=EDGE_CURVE('',#468,#462,#64,.T.);
#584=EDGE_CURVE('',#467,#468,#400,.T.);
#585=EDGE_CURVE('',#467,#469,#65,.T.);
#586=EDGE_CURVE('',#469,#464,#66,.T.);
#587=EDGE_CURVE('',#466,#470,#67,.T.);
#588=EDGE_CURVE('',#470,#471,#68,.T.);
#589=EDGE_CURVE('',#471,#458,#69,.T.);
#590=EDGE_CURVE('',#468,#472,#70,.T.);
#591=EDGE_CURVE('',#472,#413,#71,.T.);
#592=EDGE_CURVE('',#412,#473,#72,.T.);
#593=EDGE_CURVE('',#473,#424,#73,.T.);
#594=EDGE_CURVE('',#423,#474,#74,.T.);
#595=EDGE_CURVE('',#474,#471,#75,.T.);
#596=EDGE_CURVE('',#470,#475,#76,.T.);
#597=EDGE_CURVE('',#475,#469,#77,.T.);
#598=EDGE_CURVE('',#461,#472,#78,.T.);
#599=EDGE_CURVE('',#452,#457,#79,.T.);
#600=EDGE_CURVE('',#475,#465,#80,.T.);
#601=EDGE_CURVE('',#459,#474,#81,.T.);
#602=EDGE_CURVE('',#473,#460,#82,.T.);
#603=EDGE_CURVE('',#476,#477,#83,.T.);
#604=EDGE_CURVE('',#436,#476,#84,.T.);
#605=EDGE_CURVE('',#477,#435,#85,.T.);
#606=EDGE_CURVE('',#478,#479,#86,.T.);
#607=EDGE_CURVE('',#480,#478,#87,.T.);
#608=EDGE_CURVE('',#481,#480,#88,.T.);
#609=EDGE_CURVE('',#479,#481,#89,.T.);
#610=EDGE_CURVE('',#482,#483,#90,.T.);
#611=EDGE_CURVE('',#434,#482,#91,.T.);
#612=EDGE_CURVE('',#483,#437,#92,.T.);
#613=EDGE_CURVE('',#484,#485,#93,.T.);
#614=EDGE_CURVE('',#486,#484,#94,.T.);
#615=EDGE_CURVE('',#487,#486,#95,.T.);
#616=EDGE_CURVE('',#485,#487,#96,.T.);
#617=EDGE_CURVE('',#476,#488,#97,.T.);
#618=EDGE_CURVE('',#489,#488,#98,.T.);
#619=EDGE_CURVE('',#489,#479,#99,.T.);
#620=EDGE_CURVE('',#486,#481,#100,.T.);
#621=EDGE_CURVE('',#484,#447,#101,.T.);
#622=EDGE_CURVE('',#446,#483,#102,.T.);
#623=EDGE_CURVE('',#444,#485,#103,.T.);
#624=EDGE_CURVE('',#482,#445,#104,.T.);
#625=EDGE_CURVE('',#490,#477,#105,.T.);
#626=EDGE_CURVE('',#488,#490,#106,.T.);
#627=EDGE_CURVE('',#487,#443,#107,.T.);
#628=EDGE_CURVE('',#441,#491,#108,.T.);
#629=EDGE_CURVE('',#491,#455,#109,.T.);
#630=EDGE_CURVE('',#429,#490,#110,.T.);
#631=EDGE_CURVE('',#478,#492,#111,.T.);
#632=EDGE_CURVE('',#492,#480,#112,.T.);
#633=EDGE_CURVE('',#492,#489,#113,.T.);
#634=EDGE_CURVE('',#438,#426,#114,.T.);
#635=EDGE_CURVE('',#407,#433,#115,.T.);
#636=EDGE_CURVE('',#427,#402,#116,.T.);
#637=EDGE_CURVE('',#456,#493,#117,.T.);
#638=EDGE_CURVE('',#493,#439,#118,.T.);
#639=EDGE_CURVE('',#493,#491,#119,.T.);
#640=ORIENTED_EDGE('',*,*,#494,.T.);
#641=ORIENTED_EDGE('',*,*,#495,.F.);
#642=ORIENTED_EDGE('',*,*,#496,.F.);
#643=ORIENTED_EDGE('',*,*,#497,.T.);
#644=ORIENTED_EDGE('',*,*,#498,.F.);
#645=ORIENTED_EDGE('',*,*,#496,.T.);
#646=ORIENTED_EDGE('',*,*,#499,.T.);
#647=ORIENTED_EDGE('',*,*,#500,.F.);
#648=ORIENTED_EDGE('',*,*,#499,.F.);
#649=ORIENTED_EDGE('',*,*,#495,.T.);
#650=ORIENTED_EDGE('',*,*,#501,.T.);
#651=ORIENTED_EDGE('',*,*,#502,.T.);
#652=ORIENTED_EDGE('',*,*,#503,.T.);
#653=ORIENTED_EDGE('',*,*,#504,.T.);
#654=ORIENTED_EDGE('',*,*,#505,.T.);
#655=ORIENTED_EDGE('',*,*,#506,.T.);
#656=ORIENTED_EDGE('',*,*,#507,.T.);
#657=ORIENTED_EDGE('',*,*,#508,.T.);
#658=ORIENTED_EDGE('',*,*,#509,.T.);
#659=ORIENTED_EDGE('',*,*,#510,.F.);
#660=ORIENTED_EDGE('',*,*,#511,.F.);
#661=ORIENTED_EDGE('',*,*,#512,.F.);
#662=ORIENTED_EDGE('',*,*,#511,.T.);
#663=ORIENTED_EDGE('',*,*,#513,.T.);
#664=ORIENTED_EDGE('',*,*,#514,.F.);
#665=ORIENTED_EDGE('',*,*,#513,.F.);
#666=ORIENTED_EDGE('',*,*,#510,.T.);
#667=ORIENTED_EDGE('',*,*,#515,.T.);
#668=ORIENTED_EDGE('',*,*,#516,.T.);
#669=ORIENTED_EDGE('',*,*,#517,.T.);
#670=ORIENTED_EDGE('',*,*,#518,.T.);
#671=ORIENTED_EDGE('',*,*,#519,.T.);
#672=ORIENTED_EDGE('',*,*,#520,.T.);
#673=ORIENTED_EDGE('',*,*,#521,.T.);
#674=ORIENTED_EDGE('',*,*,#522,.T.);
#675=ORIENTED_EDGE('',*,*,#523,.F.);
#676=ORIENTED_EDGE('',*,*,#524,.T.);
#677=ORIENTED_EDGE('',*,*,#525,.F.);
#678=ORIENTED_EDGE('',*,*,#523,.T.);
#679=ORIENTED_EDGE('',*,*,#526,.T.);
#680=ORIENTED_EDGE('',*,*,#527,.T.);
#681=ORIENTED_EDGE('',*,*,#528,.T.);
#682=ORIENTED_EDGE('',*,*,#529,.F.);
#683=ORIENTED_EDGE('',*,*,#528,.F.);
#684=ORIENTED_EDGE('',*,*,#530,.T.);
#685=ORIENTED_EDGE('',*,*,#531,.T.);
#686=ORIENTED_EDGE('',*,*,#532,.T.);
#687=ORIENTED_EDGE('',*,*,#533,.T.);
#688=ORIENTED_EDGE('',*,*,#534,.T.);
#689=ORIENTED_EDGE('',*,*,#535,.T.);
#690=ORIENTED_EDGE('',*,*,#536,.T.);
#691=ORIENTED_EDGE('',*,*,#537,.T.);
#692=ORIENTED_EDGE('',*,*,#538,.F.);
#693=ORIENTED_EDGE('',*,*,#539,.F.);
#694=ORIENTED_EDGE('',*,*,#538,.T.);
#695=ORIENTED_EDGE('',*,*,#540,.T.);
#696=ORIENTED_EDGE('',*,*,#541,.T.);
#697=ORIENTED_EDGE('',*,*,#542,.F.);
#698=ORIENTED_EDGE('',*,*,#541,.F.);
#699=ORIENTED_EDGE('',*,*,#543,.T.);
#700=ORIENTED_EDGE('',*,*,#544,.T.);
#701=ORIENTED_EDGE('',*,*,#545,.T.);
#702=ORIENTED_EDGE('',*,*,#546,.T.);
#703=ORIENTED_EDGE('',*,*,#547,.T.);
#704=ORIENTED_EDGE('',*,*,#548,.T.);
#705=ORIENTED_EDGE('',*,*,#549,.F.);
#706=ORIENTED_EDGE('',*,*,#550,.T.);
#707=ORIENTED_EDGE('',*,*,#539,.T.);
#708=ORIENTED_EDGE('',*,*,#550,.F.);
#709=ORIENTED_EDGE('',*,*,#551,.F.);
#710=ORIENTED_EDGE('',*,*,#552,.T.);
#711=ORIENTED_EDGE('',*,*,#525,.T.);
#712=ORIENTED_EDGE('',*,*,#552,.F.);
#713=ORIENTED_EDGE('',*,*,#553,.F.);
#714=ORIENTED_EDGE('',*,*,#554,.T.);
#715=ORIENTED_EDGE('',*,*,#512,.T.);
#716=ORIENTED_EDGE('',*,*,#554,.F.);
#717=ORIENTED_EDGE('',*,*,#555,.F.);
#718=ORIENTED_EDGE('',*,*,#556,.T.);
#719=ORIENTED_EDGE('',*,*,#498,.T.);
#720=ORIENTED_EDGE('',*,*,#556,.F.);
#721=ORIENTED_EDGE('',*,*,#557,.T.);
#722=ORIENTED_EDGE('',*,*,#509,.F.);
#723=ORIENTED_EDGE('',*,*,#558,.T.);
#724=ORIENTED_EDGE('',*,*,#559,.T.);
#725=ORIENTED_EDGE('',*,*,#560,.T.);
#726=ORIENTED_EDGE('',*,*,#497,.F.);
#727=ORIENTED_EDGE('',*,*,#561,.F.);
#728=ORIENTED_EDGE('',*,*,#562,.F.);
#729=ORIENTED_EDGE('',*,*,#563,.F.);
#730=ORIENTED_EDGE('',*,*,#564,.F.);
#731=ORIENTED_EDGE('',*,*,#565,.F.);
#732=ORIENTED_EDGE('',*,*,#566,.F.);
#733=ORIENTED_EDGE('',*,*,#560,.F.);
#734=ORIENTED_EDGE('',*,*,#567,.T.);
#735=ORIENTED_EDGE('',*,*,#503,.F.);
#736=ORIENTED_EDGE('',*,*,#561,.T.);
#737=ORIENTED_EDGE('',*,*,#568,.T.);
#738=ORIENTED_EDGE('',*,*,#569,.T.);
#739=ORIENTED_EDGE('',*,*,#516,.F.);
#740=ORIENTED_EDGE('',*,*,#570,.T.);
#741=ORIENTED_EDGE('',*,*,#571,.T.);
#742=ORIENTED_EDGE('',*,*,#572,.T.);
#743=ORIENTED_EDGE('',*,*,#518,.F.);
#744=ORIENTED_EDGE('',*,*,#573,.T.);
#745=ORIENTED_EDGE('',*,*,#574,.T.);
#746=ORIENTED_EDGE('',*,*,#505,.F.);
#747=ORIENTED_EDGE('',*,*,#575,.T.);
#748=ORIENTED_EDGE('',*,*,#576,.T.);
#749=ORIENTED_EDGE('',*,*,#577,.T.);
#750=ORIENTED_EDGE('',*,*,#578,.T.);
#751=ORIENTED_EDGE('',*,*,#579,.T.);
#752=ORIENTED_EDGE('',*,*,#580,.T.);
#753=ORIENTED_EDGE('',*,*,#581,.T.);
#754=ORIENTED_EDGE('',*,*,#582,.T.);
#755=ORIENTED_EDGE('',*,*,#577,.F.);
#756=ORIENTED_EDGE('',*,*,#583,.F.);
#757=ORIENTED_EDGE('',*,*,#584,.F.);
#758=ORIENTED_EDGE('',*,*,#585,.T.);
#759=ORIENTED_EDGE('',*,*,#586,.T.);
#760=ORIENTED_EDGE('',*,*,#581,.F.);
#761=ORIENTED_EDGE('',*,*,#587,.T.);
#762=ORIENTED_EDGE('',*,*,#588,.T.);
#763=ORIENTED_EDGE('',*,*,#589,.T.);
#764=ORIENTED_EDGE('',*,*,#570,.F.);
#765=ORIENTED_EDGE('',*,*,#515,.F.);
#766=ORIENTED_EDGE('',*,*,#557,.F.);
#767=ORIENTED_EDGE('',*,*,#504,.F.);
#768=ORIENTED_EDGE('',*,*,#578,.F.);
#769=ORIENTED_EDGE('',*,*,#582,.F.);
#770=ORIENTED_EDGE('',*,*,#584,.T.);
#771=ORIENTED_EDGE('',*,*,#590,.T.);
#772=ORIENTED_EDGE('',*,*,#591,.T.);
#773=ORIENTED_EDGE('',*,*,#507,.F.);
#774=ORIENTED_EDGE('',*,*,#592,.T.);
#775=ORIENTED_EDGE('',*,*,#593,.T.);
#776=ORIENTED_EDGE('',*,*,#520,.F.);
#777=ORIENTED_EDGE('',*,*,#594,.T.);
#778=ORIENTED_EDGE('',*,*,#595,.T.);
#779=ORIENTED_EDGE('',*,*,#588,.F.);
#780=ORIENTED_EDGE('',*,*,#596,.T.);
#781=ORIENTED_EDGE('',*,*,#597,.T.);
#782=ORIENTED_EDGE('',*,*,#585,.F.);
#783=ORIENTED_EDGE('',*,*,#583,.T.);
#784=ORIENTED_EDGE('',*,*,#576,.F.);
#785=ORIENTED_EDGE('',*,*,#598,.T.);
#786=ORIENTED_EDGE('',*,*,#590,.F.);
#787=ORIENTED_EDGE('',*,*,#568,.F.);
#788=ORIENTED_EDGE('',*,*,#567,.F.);
#789=ORIENTED_EDGE('',*,*,#559,.F.);
#790=ORIENTED_EDGE('',*,*,#599,.T.);
#791=ORIENTED_EDGE('',*,*,#500,.T.);
#792=ORIENTED_EDGE('',*,*,#555,.T.);
#793=ORIENTED_EDGE('',*,*,#600,.F.);
#794=ORIENTED_EDGE('',*,*,#596,.F.);
#795=ORIENTED_EDGE('',*,*,#587,.F.);
#796=ORIENTED_EDGE('',*,*,#580,.F.);
#797=ORIENTED_EDGE('',*,*,#598,.F.);
#798=ORIENTED_EDGE('',*,*,#575,.F.);
#799=ORIENTED_EDGE('',*,*,#508,.F.);
#800=ORIENTED_EDGE('',*,*,#591,.F.);
#801=ORIENTED_EDGE('',*,*,#601,.F.);
#802=ORIENTED_EDGE('',*,*,#571,.F.);
#803=ORIENTED_EDGE('',*,*,#589,.F.);
#804=ORIENTED_EDGE('',*,*,#595,.F.);
#805=ORIENTED_EDGE('',*,*,#602,.F.);
#806=ORIENTED_EDGE('',*,*,#592,.F.);
#807=ORIENTED_EDGE('',*,*,#506,.F.);
#808=ORIENTED_EDGE('',*,*,#574,.F.);
#809=ORIENTED_EDGE('',*,*,#602,.T.);
#810=ORIENTED_EDGE('',*,*,#573,.F.);
#811=ORIENTED_EDGE('',*,*,#521,.F.);
#812=ORIENTED_EDGE('',*,*,#593,.F.);
#813=ORIENTED_EDGE('',*,*,#601,.T.);
#814=ORIENTED_EDGE('',*,*,#594,.F.);
#815=ORIENTED_EDGE('',*,*,#519,.F.);
#816=ORIENTED_EDGE('',*,*,#572,.F.);
#817=ORIENTED_EDGE('',*,*,#600,.T.);
#818=ORIENTED_EDGE('',*,*,#579,.F.);
#819=ORIENTED_EDGE('',*,*,#586,.F.);
#820=ORIENTED_EDGE('',*,*,#597,.F.);
#821=ORIENTED_EDGE('',*,*,#603,.F.);
#822=ORIENTED_EDGE('',*,*,#604,.F.);
#823=ORIENTED_EDGE('',*,*,#534,.F.);
#824=ORIENTED_EDGE('',*,*,#605,.F.);
#825=ORIENTED_EDGE('',*,*,#606,.F.);
#826=ORIENTED_EDGE('',*,*,#607,.F.);
#827=ORIENTED_EDGE('',*,*,#608,.F.);
#828=ORIENTED_EDGE('',*,*,#609,.F.);
#829=ORIENTED_EDGE('',*,*,#610,.F.);
#830=ORIENTED_EDGE('',*,*,#611,.F.);
#831=ORIENTED_EDGE('',*,*,#536,.F.);
#832=ORIENTED_EDGE('',*,*,#612,.F.);
#833=ORIENTED_EDGE('',*,*,#613,.F.);
#834=ORIENTED_EDGE('',*,*,#614,.F.);
#835=ORIENTED_EDGE('',*,*,#615,.F.);
#836=ORIENTED_EDGE('',*,*,#616,.F.);
#837=ORIENTED_EDGE('',*,*,#617,.T.);
#838=ORIENTED_EDGE('',*,*,#618,.F.);
#839=ORIENTED_EDGE('',*,*,#619,.T.);
#840=ORIENTED_EDGE('',*,*,#609,.T.);
#841=ORIENTED_EDGE('',*,*,#620,.F.);
#842=ORIENTED_EDGE('',*,*,#614,.T.);
#843=ORIENTED_EDGE('',*,*,#621,.T.);
#844=ORIENTED_EDGE('',*,*,#547,.F.);
#845=ORIENTED_EDGE('',*,*,#622,.T.);
#846=ORIENTED_EDGE('',*,*,#612,.T.);
#847=ORIENTED_EDGE('',*,*,#535,.F.);
#848=ORIENTED_EDGE('',*,*,#604,.T.);
#849=ORIENTED_EDGE('',*,*,#613,.T.);
#850=ORIENTED_EDGE('',*,*,#623,.F.);
#851=ORIENTED_EDGE('',*,*,#548,.F.);
#852=ORIENTED_EDGE('',*,*,#621,.F.);
#853=ORIENTED_EDGE('',*,*,#610,.T.);
#854=ORIENTED_EDGE('',*,*,#622,.F.);
#855=ORIENTED_EDGE('',*,*,#546,.F.);
#856=ORIENTED_EDGE('',*,*,#624,.F.);
#857=ORIENTED_EDGE('',*,*,#603,.T.);
#858=ORIENTED_EDGE('',*,*,#625,.F.);
#859=ORIENTED_EDGE('',*,*,#626,.F.);
#860=ORIENTED_EDGE('',*,*,#617,.F.);
#861=ORIENTED_EDGE('',*,*,#616,.T.);
#862=ORIENTED_EDGE('',*,*,#627,.T.);
#863=ORIENTED_EDGE('',*,*,#543,.F.);
#864=ORIENTED_EDGE('',*,*,#628,.T.);
#865=ORIENTED_EDGE('',*,*,#629,.T.);
#866=ORIENTED_EDGE('',*,*,#563,.T.);
#867=ORIENTED_EDGE('',*,*,#530,.F.);
#868=ORIENTED_EDGE('',*,*,#527,.F.);
#869=ORIENTED_EDGE('',*,*,#630,.T.);
#870=ORIENTED_EDGE('',*,*,#625,.T.);
#871=ORIENTED_EDGE('',*,*,#605,.T.);
#872=ORIENTED_EDGE('',*,*,#533,.F.);
#873=ORIENTED_EDGE('',*,*,#611,.T.);
#874=ORIENTED_EDGE('',*,*,#624,.T.);
#875=ORIENTED_EDGE('',*,*,#545,.F.);
#876=ORIENTED_EDGE('',*,*,#623,.T.);
#877=ORIENTED_EDGE('',*,*,#631,.T.);
#878=ORIENTED_EDGE('',*,*,#632,.T.);
#879=ORIENTED_EDGE('',*,*,#607,.T.);
#880=ORIENTED_EDGE('',*,*,#606,.T.);
#881=ORIENTED_EDGE('',*,*,#619,.F.);
#882=ORIENTED_EDGE('',*,*,#633,.F.);
#883=ORIENTED_EDGE('',*,*,#631,.F.);
#884=ORIENTED_EDGE('',*,*,#608,.T.);
#885=ORIENTED_EDGE('',*,*,#632,.F.);
#886=ORIENTED_EDGE('',*,*,#633,.T.);
#887=ORIENTED_EDGE('',*,*,#618,.T.);
#888=ORIENTED_EDGE('',*,*,#626,.T.);
#889=ORIENTED_EDGE('',*,*,#630,.F.);
#890=ORIENTED_EDGE('',*,*,#526,.F.);
#891=ORIENTED_EDGE('',*,*,#634,.F.);
#892=ORIENTED_EDGE('',*,*,#544,.F.);
#893=ORIENTED_EDGE('',*,*,#627,.F.);
#894=ORIENTED_EDGE('',*,*,#615,.T.);
#895=ORIENTED_EDGE('',*,*,#620,.T.);
#896=ORIENTED_EDGE('',*,*,#532,.F.);
#897=ORIENTED_EDGE('',*,*,#635,.F.);
#898=ORIENTED_EDGE('',*,*,#501,.F.);
#899=ORIENTED_EDGE('',*,*,#636,.F.);
#900=ORIENTED_EDGE('',*,*,#531,.F.);
#901=ORIENTED_EDGE('',*,*,#562,.T.);
#902=ORIENTED_EDGE('',*,*,#502,.F.);
#903=ORIENTED_EDGE('',*,*,#635,.T.);
#904=ORIENTED_EDGE('',*,*,#566,.T.);
#905=ORIENTED_EDGE('',*,*,#524,.F.);
#906=ORIENTED_EDGE('',*,*,#636,.T.);
#907=ORIENTED_EDGE('',*,*,#494,.F.);
#908=ORIENTED_EDGE('',*,*,#517,.F.);
#909=ORIENTED_EDGE('',*,*,#569,.F.);
#910=ORIENTED_EDGE('',*,*,#599,.F.);
#911=ORIENTED_EDGE('',*,*,#558,.F.);
#912=ORIENTED_EDGE('',*,*,#514,.T.);
#913=ORIENTED_EDGE('',*,*,#553,.T.);
#914=ORIENTED_EDGE('',*,*,#565,.T.);
#915=ORIENTED_EDGE('',*,*,#637,.T.);
#916=ORIENTED_EDGE('',*,*,#638,.T.);
#917=ORIENTED_EDGE('',*,*,#537,.F.);
#918=ORIENTED_EDGE('',*,*,#634,.T.);
#919=ORIENTED_EDGE('',*,*,#522,.F.);
#920=ORIENTED_EDGE('',*,*,#629,.F.);
#921=ORIENTED_EDGE('',*,*,#639,.F.);
#922=ORIENTED_EDGE('',*,*,#637,.F.);
#923=ORIENTED_EDGE('',*,*,#564,.T.);
#924=ORIENTED_EDGE('',*,*,#540,.F.);
#925=ORIENTED_EDGE('',*,*,#638,.F.);
#926=ORIENTED_EDGE('',*,*,#639,.T.);
#927=ORIENTED_EDGE('',*,*,#628,.F.);
#928=ORIENTED_EDGE('',*,*,#529,.T.);
#929=ORIENTED_EDGE('',*,*,#551,.T.);
#930=ORIENTED_EDGE('',*,*,#542,.T.);
#931=ORIENTED_EDGE('',*,*,#549,.T.);
#932=PLANE('',#1035);
#933=PLANE('',#1047);
#934=PLANE('',#1057);
#935=PLANE('',#1069);
#936=PLANE('',#1086);
#937=PLANE('',#1087);
#938=PLANE('',#1088);
#939=PLANE('',#1092);
#940=PLANE('',#1093);
#941=PLANE('',#1094);
#942=PLANE('',#1095);
#943=PLANE('',#1096);
#944=PLANE('',#1097);
#945=PLANE('',#1098);
#946=PLANE('',#1099);
#947=PLANE('',#1100);
#948=PLANE('',#1101);
#949=PLANE('',#1102);
#950=PLANE('',#1103);
#951=PLANE('',#1104);
#952=PLANE('',#1105);
#953=PLANE('',#1106);
#954=PLANE('',#1107);
#955=PLANE('',#1108);
#956=PLANE('',#1109);
#957=PLANE('',#1110);
#958=PLANE('',#1111);
#959=PLANE('',#1112);
#960=PLANE('',#1113);
#961=PLANE('',#1114);
#962=PLANE('',#1115);
#963=PLANE('',#1116);
#964=PLANE('',#1117);
#965=PLANE('',#1118);
#966=PLANE('',#1119);
#967=PLANE('',#1120);
#968=PLANE('',#1121);
#969=PLANE('',#1122);
#970=PLANE('',#1123);
#971=PLANE('',#1124);
#972=ADVANCED_FACE('',(#248,#234),#932,.F.);
#973=ADVANCED_FACE('',(#249,#235),#225,.T.);
#974=ADVANCED_FACE('',(#250,#236),#933,.F.);
#975=ADVANCED_FACE('',(#251,#237),#226,.T.);
#976=ADVANCED_FACE('',(#252,#238),#934,.F.);
#977=ADVANCED_FACE('',(#253,#239),#227,.T.);
#978=ADVANCED_FACE('',(#254,#240),#935,.F.);
#979=ADVANCED_FACE('',(#255,#241),#228,.T.);
#980=ADVANCED_FACE('',(#256),#229,.F.);
#981=ADVANCED_FACE('',(#257),#230,.F.);
#982=ADVANCED_FACE('',(#258),#231,.F.);
#983=ADVANCED_FACE('',(#259),#232,.F.);
#984=ADVANCED_FACE('',(#260),#936,.T.);
#985=ADVANCED_FACE('',(#261),#937,.F.);
#986=ADVANCED_FACE('',(#262,#242),#938,.F.);
#987=ADVANCED_FACE('',(#263),#233,.F.);
#988=ADVANCED_FACE('',(#264),#939,.F.);
#989=ADVANCED_FACE('',(#265),#940,.T.);
#990=ADVANCED_FACE('',(#266),#941,.F.);
#991=ADVANCED_FACE('',(#267),#942,.F.);
#992=ADVANCED_FACE('',(#268,#243),#943,.T.);
#993=ADVANCED_FACE('',(#269),#944,.F.);
#994=ADVANCED_FACE('',(#270),#945,.F.);
#995=ADVANCED_FACE('',(#271),#946,.F.);
#996=ADVANCED_FACE('',(#272),#947,.F.);
#997=ADVANCED_FACE('',(#273),#948,.F.);
#998=ADVANCED_FACE('',(#274),#949,.F.);
#999=ADVANCED_FACE('',(#275),#950,.F.);
#1000=ADVANCED_FACE('',(#276),#951,.F.);
#1001=ADVANCED_FACE('',(#277),#952,.F.);
#1002=ADVANCED_FACE('',(#278),#953,.F.);
#1003=ADVANCED_FACE('',(#279),#954,.F.);
#1004=ADVANCED_FACE('',(#280),#955,.T.);
#1005=ADVANCED_FACE('',(#281),#956,.F.);
#1006=ADVANCED_FACE('',(#282),#957,.F.);
#1007=ADVANCED_FACE('',(#283),#958,.F.);
#1008=ADVANCED_FACE('',(#284,#244),#959,.F.);
#1009=ADVANCED_FACE('',(#285),#960,.F.);
#1010=ADVANCED_FACE('',(#286),#961,.F.);
#1011=ADVANCED_FACE('',(#287),#962,.F.);
#1012=ADVANCED_FACE('',(#288),#963,.F.);
#1013=ADVANCED_FACE('',(#289),#964,.T.);
#1014=ADVANCED_FACE('',(#290),#965,.F.);
#1015=ADVANCED_FACE('',(#291,#245),#966,.T.);
#1016=ADVANCED_FACE('',(#292),#967,.T.);
#1017=ADVANCED_FACE('',(#293),#968,.F.);
#1018=ADVANCED_FACE('',(#294),#969,.F.);
#1019=ADVANCED_FACE('',(#295,#246),#970,.T.);
#1020=ADVANCED_FACE('',(#296,#247),#971,.T.);
#1021=CLOSED_SHELL('',(#972,#973,#974,#975,#976,#977,#978,#979,#980,#981,
#982,#983,#984,#985,#986,#987,#988,#989,#990,#991,#992,#993,#994,#995,#996,
#997,#998,#999,#1000,#1001,#1002,#1003,#1004,#1005,#1006,#1007,#1008,#1009,
#1010,#1011,#1012,#1013,#1014,#1015,#1016,#1017,#1018,#1019,#1020));
#1022=DERIVED_UNIT_ELEMENT(#1024,1.);
#1023=DERIVED_UNIT_ELEMENT(#1706,-3.);
#1024=(
MASS_UNIT()
NAMED_UNIT(*)
SI_UNIT(.KILO.,.GRAM.)
);
#1025=DERIVED_UNIT((#1022,#1023));
#1026=MEASURE_REPRESENTATION_ITEM('density measure',
POSITIVE_RATIO_MEASURE(7850.),#1025);
#1027=PROPERTY_DEFINITION_REPRESENTATION(#1032,#1029);
#1028=PROPERTY_DEFINITION_REPRESENTATION(#1033,#1030);
#1029=REPRESENTATION('material name',(#1031),#1703);
#1030=REPRESENTATION('density',(#1026),#1703);
#1031=DESCRIPTIVE_REPRESENTATION_ITEM('Steel','Steel');
#1032=PROPERTY_DEFINITION('material property','material name',#1713);
#1033=PROPERTY_DEFINITION('material property','density of part',#1713);
#1034=AXIS2_PLACEMENT_3D('',#1412,#1125,#1126);
#1035=AXIS2_PLACEMENT_3D('',#1413,#1127,#1128);
#1036=AXIS2_PLACEMENT_3D('',#1416,#1129,#1130);
#1037=AXIS2_PLACEMENT_3D('',#1418,#1131,#1132);
#1038=AXIS2_PLACEMENT_3D('',#1420,#1133,#1134);
#1039=AXIS2_PLACEMENT_3D('',#1421,#1135,#1136);
#1040=AXIS2_PLACEMENT_3D('',#1423,#1137,#1138);
#1041=AXIS2_PLACEMENT_3D('',#1424,#1139,#1140);
#1042=AXIS2_PLACEMENT_3D('',#1427,#1142,#1143);
#1043=AXIS2_PLACEMENT_3D('',#1431,#1145,#1146);
#1044=AXIS2_PLACEMENT_3D('',#1433,#1147,#1148);
#1045=AXIS2_PLACEMENT_3D('',#1437,#1150,#1151);
#1046=AXIS2_PLACEMENT_3D('',#1441,#1153,#1154);
#1047=AXIS2_PLACEMENT_3D('',#1443,#1156,#1157);
#1048=AXIS2_PLACEMENT_3D('',#1446,#1158,#1159);
#1049=AXIS2_PLACEMENT_3D('',#1448,#1160,#1161);
#1050=AXIS2_PLACEMENT_3D('',#1449,#1162,#1163);
#1051=AXIS2_PLACEMENT_3D('',#1451,#1164,#1165);
#1052=AXIS2_PLACEMENT_3D('',#1452,#1166,#1167);
#1053=AXIS2_PLACEMENT_3D('',#1455,#1169,#1170);
#1054=AXIS2_PLACEMENT_3D('',#1459,#1172,#1173);
#1055=AXIS2_PLACEMENT_3D('',#1463,#1175,#1176);
#1056=AXIS2_PLACEMENT_3D('',#1467,#1178,#1179);
#1057=AXIS2_PLACEMENT_3D('',#1469,#1181,#1182);
#1058=AXIS2_PLACEMENT_3D('',#1472,#1183,#1184);
#1059=AXIS2_PLACEMENT_3D('',#1474,#1185,#1186);
#1060=AXIS2_PLACEMENT_3D('',#1475,#1187,#1188);
#1061=AXIS2_PLACEMENT_3D('',#1477,#1189,#1190);
#1062=AXIS2_PLACEMENT_3D('',#1478,#1191,#1192);
#1063=AXIS2_PLACEMENT_3D('',#1482,#1194,#1195);
#1064=AXIS2_PLACEMENT_3D('',#1485,#1197,#1198);
#1065=AXIS2_PLACEMENT_3D('',#1487,#1199,#1200);
#1066=AXIS2_PLACEMENT_3D('',#1489,#1201,#1202);
#1067=AXIS2_PLACEMENT_3D('',#1493,#1204,#1205);
#1068=AXIS2_PLACEMENT_3D('',#1497,#1207,#1208);
#1069=AXIS2_PLACEMENT_3D('',#1499,#1210,#1211);
#1070=AXIS2_PLACEMENT_3D('',#1502,#1212,#1213);
#1071=AXIS2_PLACEMENT_3D('',#1503,#1214,#1215);
#1072=AXIS2_PLACEMENT_3D('',#1505,#1216,#1217);
#1073=AXIS2_PLACEMENT_3D('',#1506,#1218,#1219);
#1074=AXIS2_PLACEMENT_3D('',#1511,#1222,#1223);
#1075=AXIS2_PLACEMENT_3D('',#1513,#1224,#1225);
#1076=AXIS2_PLACEMENT_3D('',#1517,#1227,#1228);
#1077=AXIS2_PLACEMENT_3D('',#1521,#1230,#1231);
#1078=AXIS2_PLACEMENT_3D('',#1523,#1233,#1234);
#1079=AXIS2_PLACEMENT_3D('',#1525,#1235,#1236);
#1080=AXIS2_PLACEMENT_3D('',#1527,#1238,#1239);
#1081=AXIS2_PLACEMENT_3D('',#1529,#1240,#1241);
#1082=AXIS2_PLACEMENT_3D('',#1531,#1243,#1244);
#1083=AXIS2_PLACEMENT_3D('',#1533,#1245,#1246);
#1084=AXIS2_PLACEMENT_3D('',#1535,#1248,#1249);
#1085=AXIS2_PLACEMENT_3D('',#1537,#1250,#1251);
#1086=AXIS2_PLACEMENT_3D('',#1539,#1253,#1254);
#1087=AXIS2_PLACEMENT_3D('',#1546,#1259,#1260);
#1088=AXIS2_PLACEMENT_3D('',#1557,#1268,#1269);
#1089=AXIS2_PLACEMENT_3D('',#1574,#1279,#1280);
#1090=AXIS2_PLACEMENT_3D('',#1582,#1285,#1286);
#1091=AXIS2_PLACEMENT_3D('',#1587,#1289,#1290);
#1092=AXIS2_PLACEMENT_3D('',#1588,#1291,#1292);
#1093=AXIS2_PLACEMENT_3D('',#1597,#1298,#1299);
#1094=AXIS2_PLACEMENT_3D('',#1610,#1308,#1309);
#1095=AXIS2_PLACEMENT_3D('',#1612,#1311,#1312);
#1096=AXIS2_PLACEMENT_3D('',#1614,#1314,#1315);
#1097=AXIS2_PLACEMENT_3D('',#1615,#1316,#1317);
#1098=AXIS2_PLACEMENT_3D('',#1617,#1319,#1320);
#1099=AXIS2_PLACEMENT_3D('',#1618,#1321,#1322);
#1100=AXIS2_PLACEMENT_3D('',#1620,#1324,#1325);
#1101=AXIS2_PLACEMENT_3D('',#1622,#1327,#1328);
#1102=AXIS2_PLACEMENT_3D('',#1623,#1329,#1330);
#1103=AXIS2_PLACEMENT_3D('',#1624,#1331,#1332);
#1104=AXIS2_PLACEMENT_3D('',#1625,#1333,#1334);
#1105=AXIS2_PLACEMENT_3D('',#1631,#1338,#1339);
#1106=AXIS2_PLACEMENT_3D('',#1640,#1344,#1345);
#1107=AXIS2_PLACEMENT_3D('',#1646,#1349,#1350);
#1108=AXIS2_PLACEMENT_3D('',#1655,#1355,#1356);
#1109=AXIS2_PLACEMENT_3D('',#1664,#1363,#1364);
#1110=AXIS2_PLACEMENT_3D('',#1666,#1366,#1367);
#1111=AXIS2_PLACEMENT_3D('',#1668,#1369,#1370);
#1112=AXIS2_PLACEMENT_3D('',#1672,#1373,#1374);
#1113=AXIS2_PLACEMENT_3D('',#1681,#1381,#1382);
#1114=AXIS2_PLACEMENT_3D('',#1683,#1384,#1385);
#1115=AXIS2_PLACEMENT_3D('',#1685,#1387,#1388);
#1116=AXIS2_PLACEMENT_3D('',#1688,#1391,#1392);
#1117=AXIS2_PLACEMENT_3D('',#1689,#1393,#1394);
#1118=AXIS2_PLACEMENT_3D('',#1690,#1395,#1396);
#1119=AXIS2_PLACEMENT_3D('',#1691,#1397,#1398);
#1120=AXIS2_PLACEMENT_3D('',#1692,#1399,#1400);
#1121=AXIS2_PLACEMENT_3D('',#1696,#1403,#1404);
#1122=AXIS2_PLACEMENT_3D('',#1698,#1406,#1407);
#1123=AXIS2_PLACEMENT_3D('',#1699,#1408,#1409);
#1124=AXIS2_PLACEMENT_3D('',#1700,#1410,#1411);
#1125=DIRECTION('axis',(0.,0.,1.));
#1126=DIRECTION('refdir',(1.,0.,0.));
#1127=DIRECTION('center_axis',(0.,0.984807752954882,-0.173648177992045));
#1128=DIRECTION('ref_axis',(-1.,0.,0.));
#1129=DIRECTION('center_axis',(4.02158212363673E-16,-0.984807753012208,
0.17364817766693));
#1130=DIRECTION('ref_axis',(1.,4.02158212363673E-16,-3.51842845256725E-17));
#1131=DIRECTION('center_axis',(0.,0.984807752954882,-0.173648177992045));
#1132=DIRECTION('ref_axis',(-3.51842846584368E-17,0.173648177992045,0.984807752954882));
#1133=DIRECTION('center_axis',(0.,0.984807752954882,-0.173648177992045));
#1134=DIRECTION('ref_axis',(-3.51842846584368E-17,0.173648177992045,0.984807752954882));
#1135=DIRECTION('center_axis',(4.02158212363673E-16,-0.984807753012208,
0.17364817766693));
#1136=DIRECTION('ref_axis',(1.,4.02158212363673E-16,-3.51842845256725E-17));
#1137=DIRECTION('center_axis',(0.,-0.984807752954882,0.173648177992045));
#1138=DIRECTION('ref_axis',(1.,0.,0.));
#1139=DIRECTION('center_axis',(4.02158212363673E-16,-0.984807753012208,
0.17364817766693));
#1140=DIRECTION('ref_axis',(1.,4.02158212363673E-16,-3.51842845256725E-17));
#1141=DIRECTION('',(-4.02158212363673E-16,0.984807753012208,-0.17364817766693));
#1142=DIRECTION('center_axis',(-4.02158212363673E-16,0.984807753012208,
-0.17364817766693));
#1143=DIRECTION('ref_axis',(1.,4.02158212363673E-16,-3.51842845256725E-17));
#1144=DIRECTION('',(-4.02158212363673E-16,0.984807753012208,-0.17364817766693));
#1145=DIRECTION('center_axis',(-4.02158212363673E-16,0.984807753012208,
-0.17364817766693));
#1146=DIRECTION('ref_axis',(1.,4.02158212363673E-16,-3.51842845256725E-17));
#1147=DIRECTION('center_axis',(-4.02158212363673E-16,0.984807753012208,
-0.17364817766693));
#1148=DIRECTION('ref_axis',(1.,4.02158212363673E-16,-3.51842845256725E-17));
#1149=DIRECTION('',(4.02158212363673E-16,-0.984807753012208,0.17364817766693));
#1150=DIRECTION('center_axis',(-4.02158212363673E-16,0.984807753012208,
-0.17364817766693));
#1151=DIRECTION('ref_axis',(1.,4.02158212363673E-16,-3.51842845256725E-17));
#1152=DIRECTION('',(4.02158212363673E-16,-0.984807753012208,0.17364817766693));
#1153=DIRECTION('center_axis',(4.02158212363673E-16,-0.984807753012208,
0.17364817766693));
#1154=DIRECTION('ref_axis',(1.,4.02158212363673E-16,-3.51842845256725E-17));
#1155=DIRECTION('',(-4.02158212363673E-16,0.984807753012208,-0.17364817766693));
#1156=DIRECTION('center_axis',(0.,0.984807752954882,-0.173648177992045));
#1157=DIRECTION('ref_axis',(-1.,0.,0.));
#1158=DIRECTION('center_axis',(4.02158212363673E-16,-0.984807753012208,
0.17364817766693));
#1159=DIRECTION('ref_axis',(1.,4.02158212363673E-16,-3.51842845256725E-17));
#1160=DIRECTION('center_axis',(0.,0.984807752954882,-0.173648177992045));
#1161=DIRECTION('ref_axis',(1.,6.1096869018367E-18,3.46497561830527E-17));
#1162=DIRECTION('center_axis',(0.,0.984807752954882,-0.173648177992045));
#1163=DIRECTION('ref_axis',(1.,6.1096869018367E-18,3.46497561830527E-17));
#1164=DIRECTION('center_axis',(0.,-0.984807752954882,0.173648177992045));
#1165=DIRECTION('ref_axis',(1.,0.,0.));
#1166=DIRECTION('center_axis',(4.02158212363673E-16,-0.984807753012208,
0.17364817766693));
#1167=DIRECTION('ref_axis',(1.,4.02158212363673E-16,-3.51842845256725E-17));
#1168=DIRECTION('',(-4.02158212363673E-16,0.984807753012208,-0.17364817766693));
#1169=DIRECTION('center_axis',(-4.02158212363673E-16,0.984807753012208,
-0.17364817766693));
#1170=DIRECTION('ref_axis',(1.,4.02158212363673E-16,-3.51842845256725E-17));
#1171=DIRECTION('',(-4.02158212363673E-16,0.984807753012208,-0.17364817766693));
#1172=DIRECTION('center_axis',(-4.02158212363673E-16,0.984807753012208,
-0.17364817766693));
#1173=DIRECTION('ref_axis',(1.,4.02158212363673E-16,-3.51842845256725E-17));
#1174=DIRECTION('',(4.02158212363673E-16,-0.984807753012208,0.17364817766693));
#1175=DIRECTION('center_axis',(-4.02158212363673E-16,0.984807753012208,
-0.17364817766693));
#1176=DIRECTION('ref_axis',(1.,4.02158212363673E-16,-3.51842845256725E-17));
#1177=DIRECTION('',(4.02158212363673E-16,-0.984807753012208,0.17364817766693));
#1178=DIRECTION('center_axis',(4.02158212363673E-16,-0.984807753012208,
0.17364817766693));
#1179=DIRECTION('ref_axis',(1.,4.02158212363673E-16,-3.51842845256725E-17));
#1180=DIRECTION('',(-4.02158212363673E-16,0.984807753012208,-0.17364817766693));
#1181=DIRECTION('center_axis',(0.,0.984807752954882,-0.173648177992045));
#1182=DIRECTION('ref_axis',(-1.,0.,0.));
#1183=DIRECTION('center_axis',(4.02158212363673E-16,-0.984807753012208,
0.17364817766693));
#1184=DIRECTION('ref_axis',(1.,4.02158212363673E-16,-3.51842845256725E-17));
#1185=DIRECTION('center_axis',(0.,0.984807752954882,-0.173648177992045));
#1186=DIRECTION('ref_axis',(-3.51842846584368E-17,0.173648177992045,0.984807752954882));
#1187=DIRECTION('center_axis',(4.02158212363673E-16,-0.984807753012208,
0.17364817766693));
#1188=DIRECTION('ref_axis',(1.,4.02158212363673E-16,-3.51842845256725E-17));
#1189=DIRECTION('center_axis',(0.,-0.984807752954882,0.173648177992045));
#1190=DIRECTION('ref_axis',(1.,9.13033455116912E-32,0.));
#1191=DIRECTION('center_axis',(4.02158212363673E-16,-0.984807753012208,
0.17364817766693));
#1192=DIRECTION('ref_axis',(1.,4.02158212363673E-16,-3.51842845256725E-17));
#1193=DIRECTION('',(-4.02158212363673E-16,0.984807753012208,-0.17364817766693));
#1194=DIRECTION('center_axis',(-4.02158212363673E-16,0.984807753012208,
-0.17364817766693));
#1195=DIRECTION('ref_axis',(1.,4.02158212363673E-16,-3.51842845256725E-17));
#1196=DIRECTION('',(-4.02158212363673E-16,0.984807753012208,-0.17364817766693));
#1197=DIRECTION('center_axis',(-4.02158212363673E-16,0.984807753012208,
-0.17364817766693));
#1198=DIRECTION('ref_axis',(1.,4.02158212363673E-16,-3.51842845256725E-17));
#1199=DIRECTION('center_axis',(-4.02158212363673E-16,0.984807753012208,
-0.17364817766693));
#1200=DIRECTION('ref_axis',(1.,4.02158212363673E-16,-3.51842845256725E-17));
#1201=DIRECTION('center_axis',(-4.02158212363673E-16,0.984807753012208,
-0.17364817766693));
#1202=DIRECTION('ref_axis',(1.,4.02158212363673E-16,-3.51842845256725E-17));
#1203=DIRECTION('',(4.02158212363673E-16,-0.984807753012208,0.17364817766693));
#1204=DIRECTION('center_axis',(-4.02158212363673E-16,0.984807753012208,
-0.17364817766693));
#1205=DIRECTION('ref_axis',(1.,4.02158212363673E-16,-3.51842845256725E-17));
#1206=DIRECTION('',(4.02158212363673E-16,-0.984807753012208,0.17364817766693));
#1207=DIRECTION('center_axis',(4.02158212363673E-16,-0.984807753012208,
0.17364817766693));
#1208=DIRECTION('ref_axis',(1.,4.02158212363673E-16,-3.51842845256725E-17));
#1209=DIRECTION('',(-4.02158212363673E-16,0.984807753012208,-0.17364817766693));
#1210=DIRECTION('center_axis',(0.,0.984807752954882,-0.173648177992044));
#1211=DIRECTION('ref_axis',(-1.,0.,0.));
#1212=DIRECTION('center_axis',(4.02158212363673E-16,-0.984807753012208,
0.17364817766693));
#1213=DIRECTION('ref_axis',(1.,4.02158212363673E-16,-3.51842845256725E-17));
#1214=DIRECTION('center_axis',(0.,0.984807752954882,-0.173648177992044));
#1215=DIRECTION('ref_axis',(1.,6.10968690183676E-18,3.46497561830527E-17));
#1216=DIRECTION('center_axis',(0.,-0.984807752954882,0.173648177992044));
#1217=DIRECTION('ref_axis',(1.,0.,0.));
#1218=DIRECTION('center_axis',(4.02158212363673E-16,-0.984807753012208,
0.17364817766693));
#1219=DIRECTION('ref_axis',(1.,4.02158212363673E-16,-3.51842845256725E-17));
#1220=DIRECTION('',(-4.02158212363673E-16,0.984807753012208,-0.17364817766693));
#1221=DIRECTION('',(-4.02158212363673E-16,0.984807753012208,-0.17364817766693));
#1222=DIRECTION('center_axis',(-4.02158212363673E-16,0.984807753012208,
-0.17364817766693));
#1223=DIRECTION('ref_axis',(1.,4.02158212363673E-16,-3.51842845256725E-17));
#1224=DIRECTION('center_axis',(-4.02158212363673E-16,0.984807753012208,
-0.17364817766693));
#1225=DIRECTION('ref_axis',(1.,4.02158212363673E-16,-3.51842845256725E-17));
#1226=DIRECTION('',(4.02158212363673E-16,-0.984807753012208,0.17364817766693));
#1227=DIRECTION('center_axis',(-4.02158212363673E-16,0.984807753012208,
-0.17364817766693));
#1228=DIRECTION('ref_axis',(1.,4.02158212363673E-16,-3.51842845256725E-17));
#1229=DIRECTION('',(4.02158212363673E-16,-0.984807753012208,0.17364817766693));
#1230=DIRECTION('center_axis',(4.02158212363673E-16,-0.984807753012208,
0.17364817766693));
#1231=DIRECTION('ref_axis',(1.,4.02158212363673E-16,-3.51842845256725E-17));
#1232=DIRECTION('',(-4.02158212363673E-16,0.984807753012208,-0.17364817766693));
#1233=DIRECTION('center_axis',(4.41440566451353E-16,-0.984807753012208,
0.17364817766693));
#1234=DIRECTION('ref_axis',(1.,4.34734092335394E-16,-7.66553499125348E-17));
#1235=DIRECTION('center_axis',(4.50394736156249E-16,-0.984807753012208,
0.17364817766693));
#1236=DIRECTION('ref_axis',(1.,4.34734092335394E-16,-7.66553499125348E-17));
#1237=DIRECTION('',(4.41440566451353E-16,-0.984807753012208,0.17364817766693));
#1238=DIRECTION('center_axis',(4.41440566451354E-16,-0.984807753012208,
0.17364817766693));
#1239=DIRECTION('ref_axis',(1.,4.34734092335394E-16,-7.66553499125349E-17));
#1240=DIRECTION('center_axis',(4.5039473615625E-16,-0.984807753012208,0.17364817766693));
#1241=DIRECTION('ref_axis',(1.,4.34734092335394E-16,-7.66553499125349E-17));
#1242=DIRECTION('',(4.41440566451354E-16,-0.984807753012208,0.17364817766693));
#1243=DIRECTION('center_axis',(0.,-0.984807753012208,0.17364817766693));
#1244=DIRECTION('ref_axis',(1.,0.,0.));
#1245=DIRECTION('center_axis',(0.,-0.984807753012208,0.17364817766693));
#1246=DIRECTION('ref_axis',(1.,0.,0.));
#1247=DIRECTION('',(0.,-0.984807753012208,0.17364817766693));
#1248=DIRECTION('center_axis',(0.,-0.984807753012208,0.17364817766693));
#1249=DIRECTION('ref_axis',(1.,0.,0.));
#1250=DIRECTION('center_axis',(0.,-0.984807753012208,0.17364817766693));
#1251=DIRECTION('ref_axis',(1.,0.,0.));
#1252=DIRECTION('',(0.,-0.984807753012208,0.17364817766693));
#1253=DIRECTION('center_axis',(4.02158212363673E-16,-0.984807753012208,
0.17364817766693));
#1254=DIRECTION('ref_axis',(1.,4.02158212363673E-16,-3.51842845256725E-17));
#1255=DIRECTION('',(3.51842845256724E-17,-0.17364817766693,-0.984807753012208));
#1256=DIRECTION('',(1.,4.02158212363673E-16,-3.51842845256725E-17));
#1257=DIRECTION('',(-3.51842845256724E-17,0.17364817766693,0.984807753012208));
#1258=DIRECTION('',(-1.,-4.02158212363673E-16,3.51842845256725E-17));
#1259=DIRECTION('center_axis',(3.51842845256724E-17,-0.17364817766693,-0.984807753012208));
#1260=DIRECTION('ref_axis',(-4.02158212363673E-16,0.984807753012208,-0.17364817766693));
#1261=DIRECTION('',(1.,4.02158212363673E-16,-3.51842845256725E-17));
#1262=DIRECTION('',(1.,4.02158212363673E-16,-3.51842845256725E-17));
#1263=DIRECTION('',(1.,4.02158212363673E-16,-3.51842845256725E-17));
#1264=DIRECTION('',(-4.02158212363673E-16,0.984807753012208,-0.17364817766693));
#1265=DIRECTION('',(-1.,-4.02158212363673E-16,3.51842845256725E-17));
#1266=DIRECTION('',(-1.,-4.02158212363673E-16,3.51842845256725E-17));
#1267=DIRECTION('',(-4.02158212363673E-16,0.984807753012208,-0.17364817766693));
#1268=DIRECTION('center_axis',(4.02158212363673E-16,-0.984807753012208,
0.17364817766693));
#1269=DIRECTION('ref_axis',(1.,4.02158212363673E-16,-3.51842845256725E-17));
#1270=DIRECTION('',(3.51842845256724E-17,-0.17364817766693,-0.984807753012208));
#1271=DIRECTION('',(-1.,-4.02158212363673E-16,3.51842845256725E-17));
#1272=DIRECTION('',(-3.51842845256724E-17,0.17364817766693,0.984807753012208));
#1273=DIRECTION('',(-0.110431526074847,0.172586099338877,0.978784407499308));
#1274=DIRECTION('',(-0.110431526074846,-0.172586099338877,-0.978784407499308));
#1275=DIRECTION('',(0.110431526074846,0.172586099338877,0.978784407499308));
#1276=DIRECTION('',(-0.110431526074847,0.172586099338877,0.978784407499308));
#1277=DIRECTION('',(0.110431526074847,-0.172586099338877,-0.978784407499308));
#1278=DIRECTION('',(0.110431526074846,0.172586099338877,0.978784407499308));
#1279=DIRECTION('center_axis',(4.02158212363673E-16,-0.984807753012208,
0.17364817766693));
#1280=DIRECTION('ref_axis',(1.,4.02158212363673E-16,-3.51842845256725E-17));
#1281=DIRECTION('',(-3.51842845256724E-17,0.17364817766693,0.984807753012208));
#1282=DIRECTION('',(-0.110431526074846,-0.172586099338877,-0.978784407499308));
#1283=DIRECTION('',(0.110431526074847,-0.172586099338877,-0.978784407499308));
#1284=DIRECTION('',(-3.51842845256724E-17,0.17364817766693,0.984807753012208));
#1285=DIRECTION('center_axis',(4.02158212363673E-16,-0.984807753012208,
0.17364817766693));
#1286=DIRECTION('ref_axis',(1.,4.02158212363673E-16,-3.51842845256725E-17));
#1287=DIRECTION('',(-4.02158212363673E-16,0.984807753012208,-0.17364817766693));
#1288=DIRECTION('',(-4.02158212363673E-16,0.984807753012208,-0.17364817766693));
#1289=DIRECTION('center_axis',(-4.02158212363673E-16,0.984807753012208,
-0.17364817766693));
#1290=DIRECTION('ref_axis',(1.,4.02158212363673E-16,-3.51842845256725E-17));
#1291=DIRECTION('center_axis',(1.,4.02158212363673E-16,-3.51842845256725E-17));
#1292=DIRECTION('ref_axis',(-4.02158212363673E-16,0.984807753012208,-0.17364817766693));
#1293=DIRECTION('',(3.51842845256724E-17,-0.17364817766693,-0.984807753012208));
#1294=DIRECTION('',(-4.02158212363673E-16,0.984807753012208,-0.17364817766693));
#1295=DIRECTION('',(4.02158212363673E-16,-0.984807753012208,0.17364817766693));
#1296=DIRECTION('',(3.51842845256724E-17,-0.17364817766693,-0.984807753012208));
#1297=DIRECTION('',(-4.02158212363673E-16,0.984807753012208,-0.17364817766693));
#1298=DIRECTION('center_axis',(4.02158212363673E-16,-0.984807753012208,
0.17364817766693));
#1299=DIRECTION('ref_axis',(0.110431526074846,0.172586099338877,0.978784407499308));
#1300=DIRECTION('',(-0.110431526074846,-0.172586099338877,-0.978784407499308));
#1301=DIRECTION('',(-0.110431526074847,0.172586099338877,0.978784407499308));
#1302=DIRECTION('',(0.110431526074847,-0.172586099338877,-0.978784407499308));
#1303=DIRECTION('',(-0.110431526074846,-0.172586099338877,-0.978784407499308));
#1304=DIRECTION('',(0.110431526074846,0.172586099338877,0.978784407499308));
#1305=DIRECTION('',(0.110431526074847,-0.172586099338877,-0.978784407499308));
#1306=DIRECTION('',(-0.110431526074847,0.172586099338877,0.978784407499308));
#1307=DIRECTION('',(0.110431526074846,0.172586099338877,0.978784407499308));
#1308=DIRECTION('center_axis',(0.993883734673619,-0.0191762332598748,-0.108753823055479));
#1309=DIRECTION('ref_axis',(-4.02158212363673E-16,0.984807753012208,-0.17364817766693));
#1310=DIRECTION('',(4.02158212363673E-16,-0.984807753012208,0.17364817766693));
#1311=DIRECTION('center_axis',(-1.,-4.02158212363673E-16,3.51842845256725E-17));
#1312=DIRECTION('ref_axis',(4.02158212363673E-16,-0.984807753012208,0.17364817766693));
#1313=DIRECTION('',(-4.02158212363673E-16,0.984807753012208,-0.17364817766693));
#1314=DIRECTION('center_axis',(-4.02158212363673E-16,0.984807753012208,
-0.17364817766693));
#1315=DIRECTION('ref_axis',(-1.,-4.02158212363673E-16,3.51842845256725E-17));
#1316=DIRECTION('center_axis',(-0.993883734673619,-0.0191762332598756,-0.108753823055479));
#1317=DIRECTION('ref_axis',(4.02158212363673E-16,-0.984807753012208,0.17364817766693));
#1318=DIRECTION('',(-4.02158212363673E-16,0.984807753012208,-0.17364817766693));
#1319=DIRECTION('center_axis',(-0.993883734673619,-0.0191762332598756,-0.108753823055479));
#1320=DIRECTION('ref_axis',(4.02158212363673E-16,-0.984807753012208,0.17364817766693));
#1321=DIRECTION('center_axis',(0.993883734673619,0.0191762332598756,0.108753823055479));
#1322=DIRECTION('ref_axis',(-4.02158212363673E-16,0.984807753012208,-0.17364817766693));
#1323=DIRECTION('',(4.02158212363673E-16,-0.984807753012208,0.17364817766693));
#1324=DIRECTION('center_axis',(0.993883734673619,0.0191762332598756,0.108753823055479));
#1325=DIRECTION('ref_axis',(-4.02158212363673E-16,0.984807753012208,-0.17364817766693));
#1326=DIRECTION('',(-4.02158212363673E-16,0.984807753012208,-0.17364817766693));
#1327=DIRECTION('center_axis',(0.993883734673619,-0.0191762332598748,-0.108753823055479));
#1328=DIRECTION('ref_axis',(-4.02158212363673E-16,0.984807753012208,-0.17364817766693));
#1329=DIRECTION('center_axis',(-0.993883734673619,0.0191762332598748,0.108753823055479));
#1330=DIRECTION('ref_axis',(4.02158212363673E-16,-0.984807753012208,0.17364817766693));
#1331=DIRECTION('center_axis',(-0.993883734673619,0.0191762332598748,0.108753823055479));
#1332=DIRECTION('ref_axis',(4.02158212363673E-16,-0.984807753012208,0.17364817766693));
#1333=DIRECTION('center_axis',(0.993883734673619,-0.0191762332598748,-0.108753823055479));
#1334=DIRECTION('ref_axis',(-4.02158212363673E-16,0.984807753012208,-0.17364817766693));
#1335=DIRECTION('',(-4.02158212363673E-16,0.984807753012208,-0.17364817766693));
#1336=DIRECTION('',(-0.110431526074846,-0.172586099338877,-0.978784407499308));
#1337=DIRECTION('',(0.110431526074846,0.172586099338877,0.978784407499308));
#1338=DIRECTION('center_axis',(0.993883734673619,-0.0191762332598748,-0.108753823055479));
#1339=DIRECTION('ref_axis',(-4.02158212363673E-16,0.984807753012208,-0.17364817766693));
#1340=DIRECTION('',(4.02158212363673E-16,-0.984807753012208,0.17364817766693));
#1341=DIRECTION('',(0.110431526074846,0.172586099338877,0.978784407499308));
#1342=DIRECTION('',(-4.02158212363673E-16,0.984807753012208,-0.17364817766693));
#1343=DIRECTION('',(-0.110431526074846,-0.172586099338877,-0.978784407499308));
#1344=DIRECTION('center_axis',(-0.993883734673619,0.0191762332598748,0.108753823055479));
#1345=DIRECTION('ref_axis',(4.02158212363673E-16,-0.984807753012208,0.17364817766693));
#1346=DIRECTION('',(4.02158212363673E-16,-0.984807753012208,0.17364817766693));
#1347=DIRECTION('',(-0.110431526074846,-0.172586099338877,-0.978784407499308));
#1348=DIRECTION('',(0.110431526074846,0.172586099338877,0.978784407499308));
#1349=DIRECTION('center_axis',(-0.993883734673619,0.0191762332598748,0.108753823055479));
#1350=DIRECTION('ref_axis',(4.02158212363673E-16,-0.984807753012208,0.17364817766693));
#1351=DIRECTION('',(-4.02158212363673E-16,0.984807753012208,-0.17364817766693));
#1352=DIRECTION('',(0.110431526074846,0.172586099338877,0.978784407499308));
#1353=DIRECTION('',(4.02158212363673E-16,-0.984807753012208,0.17364817766693));
#1354=DIRECTION('',(-0.110431526074846,-0.172586099338877,-0.978784407499308));
#1355=DIRECTION('center_axis',(4.02158212363673E-16,-0.984807753012208,
0.17364817766693));
#1356=DIRECTION('ref_axis',(-0.110431526074847,0.172586099338877,0.978784407499308));
#1357=DIRECTION('',(-0.110431526074847,0.172586099338877,0.978784407499308));
#1358=DIRECTION('',(-3.51842845256724E-17,0.17364817766693,0.984807753012208));
#1359=DIRECTION('',(0.110431526074847,-0.172586099338877,-0.978784407499308));
#1360=DIRECTION('',(-3.51842845256724E-17,0.17364817766693,0.984807753012208));
#1361=DIRECTION('',(0.110431526074847,-0.172586099338877,-0.978784407499308));
#1362=DIRECTION('',(-0.110431526074847,0.172586099338877,0.978784407499308));
#1363=DIRECTION('center_axis',(0.993883734673619,0.0191762332598756,0.108753823055479));
#1364=DIRECTION('ref_axis',(-4.02158212363673E-16,0.984807753012208,-0.17364817766693));
#1365=DIRECTION('',(-0.110431526074847,0.172586099338877,0.978784407499308));
#1366=DIRECTION('center_axis',(-0.993883734673619,-0.0191762332598756,-0.108753823055479));
#1367=DIRECTION('ref_axis',(4.02158212363673E-16,-0.984807753012208,0.17364817766693));
#1368=DIRECTION('',(0.110431526074847,-0.172586099338877,-0.978784407499308));
#1369=DIRECTION('center_axis',(-0.993883734673619,-0.0191762332598756,-0.108753823055479));
#1370=DIRECTION('ref_axis',(4.02158212363673E-16,-0.984807753012208,0.17364817766693));
#1371=DIRECTION('',(0.110431526074847,-0.172586099338877,-0.978784407499308));
#1372=DIRECTION('',(-4.02158212363673E-16,0.984807753012208,-0.17364817766693));
#1373=DIRECTION('center_axis',(4.02158212363673E-16,-0.984807753012208,
0.17364817766693));
#1374=DIRECTION('ref_axis',(1.,4.02158212363673E-16,-3.51842845256725E-17));
#1375=DIRECTION('',(3.51842845256724E-17,-0.17364817766693,-0.984807753012208));
#1376=DIRECTION('',(-1.,-4.02158212363673E-16,3.51842845256725E-17));
#1377=DIRECTION('',(-3.51842845256724E-17,0.17364817766693,0.984807753012208));
#1378=DIRECTION('',(3.51842845256724E-17,-0.17364817766693,-0.984807753012208));
#1379=DIRECTION('',(-0.110431526074847,0.172586099338877,0.978784407499308));
#1380=DIRECTION('',(3.51842845256724E-17,-0.17364817766693,-0.984807753012208));
#1381=DIRECTION('center_axis',(0.993883734673619,0.0191762332598756,0.108753823055479));
#1382=DIRECTION('ref_axis',(-4.02158212363673E-16,0.984807753012208,-0.17364817766693));
#1383=DIRECTION('',(4.02158212363673E-16,-0.984807753012208,0.17364817766693));
#1384=DIRECTION('center_axis',(-1.,-4.02158212363673E-16,3.51842845256725E-17));
#1385=DIRECTION('ref_axis',(4.02158212363673E-16,-0.984807753012208,0.17364817766693));
#1386=DIRECTION('',(-3.51842845256724E-17,0.17364817766693,0.984807753012208));
#1387=DIRECTION('center_axis',(-3.51842845256724E-17,0.17364817766693,0.984807753012208));
#1388=DIRECTION('ref_axis',(4.02158212363673E-16,-0.984807753012208,0.17364817766693));
#1389=DIRECTION('',(-1.,-4.02158212363673E-16,3.51842845256725E-17));
#1390=DIRECTION('',(1.,4.02158212363673E-16,-3.51842845256725E-17));
#1391=DIRECTION('center_axis',(4.02158212363673E-16,-0.984807753012208,
0.17364817766693));
#1392=DIRECTION('ref_axis',(1.,4.02158212363673E-16,-3.51842845256725E-17));
#1393=DIRECTION('center_axis',(4.02158212363673E-16,-0.984807753012208,
0.17364817766693));
#1394=DIRECTION('ref_axis',(1.,4.02158212363673E-16,-3.51842845256725E-17));
#1395=DIRECTION('center_axis',(-3.51842845256724E-17,0.17364817766693,0.984807753012208));
#1396=DIRECTION('ref_axis',(4.02158212363673E-16,-0.984807753012208,0.17364817766693));
#1397=DIRECTION('center_axis',(-4.02158212363673E-16,0.984807753012208,
-0.17364817766693));
#1398=DIRECTION('ref_axis',(-1.,-4.02158212363673E-16,3.51842845256725E-17));
#1399=DIRECTION('center_axis',(4.02158212363673E-16,-0.984807753012208,
0.17364817766693));
#1400=DIRECTION('ref_axis',(1.,4.02158212363673E-16,-3.51842845256725E-17));
#1401=DIRECTION('',(3.51842845256724E-17,-0.17364817766693,-0.984807753012208));
#1402=DIRECTION('',(1.,4.02158212363673E-16,-3.51842845256725E-17));
#1403=DIRECTION('center_axis',(1.,4.02158212363673E-16,-3.51842845256725E-17));
#1404=DIRECTION('ref_axis',(-4.02158212363673E-16,0.984807753012208,-0.17364817766693));
#1405=DIRECTION('',(-4.02158212363673E-16,0.984807753012208,-0.17364817766693));
#1406=DIRECTION('center_axis',(-3.51842845256724E-17,0.17364817766693,0.984807753012208));
#1407=DIRECTION('ref_axis',(4.02158212363673E-16,-0.984807753012208,0.17364817766693));
#1408=DIRECTION('center_axis',(-4.02158212363673E-16,0.984807753012208,
-0.17364817766693));
#1409=DIRECTION('ref_axis',(-1.,-4.02158212363673E-16,3.51842845256725E-17));
#1410=DIRECTION('center_axis',(-4.02158212363673E-16,0.984807753012208,
-0.17364817766693));
#1411=DIRECTION('ref_axis',(-1.,-4.02158212363673E-16,3.51842845256725E-17));
#1412=CARTESIAN_POINT('',(0.,0.,0.));
#1413=CARTESIAN_POINT('Origin',(69.86,188.507194967906,-64.1309116423942));
#1414=CARTESIAN_POINT('',(69.86,189.201787679327,-60.191680628212));
#1415=CARTESIAN_POINT('',(66.3958983848622,188.854491323993,-62.1612961342364));
#1416=CARTESIAN_POINT('Origin',(69.86,188.507194968659,-64.1309116402608));
#1417=CARTESIAN_POINT('',(65.86,188.507194966965,-64.1309116399622));
#1418=CARTESIAN_POINT('Origin',(69.86,188.507194968294,-64.1309116401964));
#1419=CARTESIAN_POINT('',(72.86,188.047765074933,-66.7364680439395));
#1420=CARTESIAN_POINT('Origin',(69.86,188.507194968294,-64.1309116401964));
#1421=CARTESIAN_POINT('Origin',(69.86,188.507194968659,-64.1309116402608));
#1422=CARTESIAN_POINT('',(68.51,188.507194968294,-64.1309116401964));
#1423=CARTESIAN_POINT('Origin',(69.86,188.507194968294,-64.1309116401964));
#1424=CARTESIAN_POINT('Origin',(69.86,181.849894558296,-62.9570499592324));
#1425=CARTESIAN_POINT('',(65.86,191.560099002997,-64.6692209910283));
#1426=CARTESIAN_POINT('',(65.86,181.849894558296,-62.9570499592324));
#1427=CARTESIAN_POINT('Origin',(69.86,191.560099002997,-64.6692209910283));
#1428=CARTESIAN_POINT('',(66.3958983848622,191.808914583029,-62.6822406672372));
#1429=CARTESIAN_POINT('',(66.3958983848622,182.19719091363,-60.9874344532079));
#1430=CARTESIAN_POINT('',(69.86,192.156210938363,-60.7126251612128));
#1431=CARTESIAN_POINT('Origin',(69.86,191.461618227695,-64.6518561732616));
#1432=CARTESIAN_POINT('',(72.86,191.002188333969,-67.2574125769402));
#1433=CARTESIAN_POINT('Origin',(69.86,191.461618227695,-64.6518561732616));
#1434=CARTESIAN_POINT('',(72.86,181.39046466457,-65.562606362911));
#1435=CARTESIAN_POINT('',(68.9767912295341,190.784169030353,-68.4938614898629));
#1436=CARTESIAN_POINT('',(67.0483635669135,190.967568545585,-67.453751153404));
#1437=CARTESIAN_POINT('Origin',(69.86,191.461618227695,-64.6518561732616));
#1438=CARTESIAN_POINT('',(67.0483635669135,188.99795303956,-67.1064547980702));
#1439=CARTESIAN_POINT('',(67.0483635669136,181.355844876186,-65.7589449393748));
#1440=CARTESIAN_POINT('',(68.9767912295341,188.814553524329,-68.146565134529));
#1441=CARTESIAN_POINT('Origin',(69.86,189.492002721671,-64.3045598179278));
#1442=CARTESIAN_POINT('',(68.9767912295341,181.172445360954,-66.7990552758337));
#1443=CARTESIAN_POINT('Origin',(69.86,178.435600644367,-121.249761313777));
#1444=CARTESIAN_POINT('',(73.86,178.435600663977,-121.249761314969));
#1445=CARTESIAN_POINT('',(72.86,178.895030557703,-118.64420491129));
#1446=CARTESIAN_POINT('Origin',(69.86,178.435600663977,-121.249761314969));
#1447=CARTESIAN_POINT('',(65.86,178.435600643367,-121.249761311335));
#1448=CARTESIAN_POINT('Origin',(69.86,178.435600644755,-121.24976131158));
#1449=CARTESIAN_POINT('Origin',(69.86,178.435600644755,-121.24976131158));
#1450=CARTESIAN_POINT('',(68.51,178.435600644755,-121.24976131158));
#1451=CARTESIAN_POINT('Origin',(69.86,178.435600644755,-121.24976131158));
#1452=CARTESIAN_POINT('Origin',(69.86,171.778300253614,-120.07589963394));
#1453=CARTESIAN_POINT('',(65.86,181.488504698315,-121.788070665736));
#1454=CARTESIAN_POINT('',(65.86,171.778300253614,-120.07589963394));
#1455=CARTESIAN_POINT('Origin',(69.86,181.488504698315,-121.788070665736));
#1456=CARTESIAN_POINT('',(72.86,181.84945381674,-119.165149444291));
#1457=CARTESIAN_POINT('',(72.86,172.237730147341,-117.470343230262));
#1458=CARTESIAN_POINT('',(73.86,181.390023923014,-121.77070584797));
#1459=CARTESIAN_POINT('Origin',(69.86,181.390023923014,-121.77070584797));
#1460=CARTESIAN_POINT('',(73.86,171.778300253614,-120.07589963394));
#1461=CARTESIAN_POINT('',(67.0483635669135,181.884073605124,-118.968810867827));
#1462=CARTESIAN_POINT('',(68.9767912295341,182.067473120356,-117.928700531368));
#1463=CARTESIAN_POINT('Origin',(69.86,181.390023923014,-121.77070584797));
#1464=CARTESIAN_POINT('',(68.9767912295341,180.097857614331,-117.581404176035));
#1465=CARTESIAN_POINT('',(68.9767912295341,172.455749450957,-116.233894317339));
#1466=CARTESIAN_POINT('',(67.0483635669135,179.9144580991,-118.621514512493));
#1467=CARTESIAN_POINT('Origin',(69.86,179.420408416989,-121.423409492636));
#1468=CARTESIAN_POINT('',(67.0483635669136,172.272349935725,-117.274004653798));
#1469=CARTESIAN_POINT('Origin',(-17.04,188.507194967906,-64.1309116423942));
#1470=CARTESIAN_POINT('',(-17.04,189.201787679327,-60.191680628212));
#1471=CARTESIAN_POINT('',(-20.04,188.047765074933,-66.7364680439395));
#1472=CARTESIAN_POINT('Origin',(-17.04,188.507194968659,-64.1309116402608));
#1473=CARTESIAN_POINT('',(-13.5758983848623,188.854491323993,-62.1612961342364));
#1474=CARTESIAN_POINT('Origin',(-17.04,188.507194968294,-64.1309116401964));
#1475=CARTESIAN_POINT('Origin',(-17.04,188.507194968659,-64.1309116402608));
#1476=CARTESIAN_POINT('',(-18.39,188.507194968294,-64.1309116401964));
#1477=CARTESIAN_POINT('Origin',(-17.04,188.507194968294,-64.1309116401964));
#1478=CARTESIAN_POINT('Origin',(-17.04,181.849894558296,-62.9570499592324));
#1479=CARTESIAN_POINT('',(-20.04,191.002188333969,-67.2574125769402));
#1480=CARTESIAN_POINT('',(-20.04,181.39046466457,-65.562606362911));
#1481=CARTESIAN_POINT('',(-21.04,191.461618227695,-64.6518561732616));
#1482=CARTESIAN_POINT('Origin',(-17.04,191.461618227695,-64.6518561732616));
#1483=CARTESIAN_POINT('',(-21.04,191.560099002997,-64.6692209910283));
#1484=CARTESIAN_POINT('',(-21.04,181.849894558296,-62.9570499592324));
#1485=CARTESIAN_POINT('Origin',(-17.04,191.560099002997,-64.6692209910283));
#1486=CARTESIAN_POINT('',(-17.04,192.156210938363,-60.7126251612128));
#1487=CARTESIAN_POINT('Origin',(-17.04,191.461618227695,-64.6518561732616));
#1488=CARTESIAN_POINT('',(-13.5758983848623,191.808914583029,-62.6822406672372));
#1489=CARTESIAN_POINT('Origin',(-17.04,191.461618227695,-64.6518561732616));
#1490=CARTESIAN_POINT('',(-13.5758983848623,182.19719091363,-60.9874344532079));
#1491=CARTESIAN_POINT('',(-14.2283635669136,190.967568545585,-67.453751153404));
#1492=CARTESIAN_POINT('',(-16.1567912295341,190.784169030353,-68.4938614898629));
#1493=CARTESIAN_POINT('Origin',(-17.04,191.461618227695,-64.6518561732616));
#1494=CARTESIAN_POINT('',(-16.1567912295341,188.814553524329,-68.146565134529));
#1495=CARTESIAN_POINT('',(-16.1567912295341,181.172445360954,-66.7990552758337));
#1496=CARTESIAN_POINT('',(-14.2283635669136,188.99795303956,-67.1064547980702));
#1497=CARTESIAN_POINT('Origin',(-17.04,189.492002721671,-64.3045598179278));
#1498=CARTESIAN_POINT('',(-14.2283635669136,181.355844876186,-65.7589449393748));
#1499=CARTESIAN_POINT('Origin',(-17.04,178.435600644367,-121.249761313777));
#1500=CARTESIAN_POINT('',(-20.04,178.895030557703,-118.64420491129));
#1501=CARTESIAN_POINT('',(-21.04,178.435600663977,-121.249761314969));
#1502=CARTESIAN_POINT('Origin',(-17.04,178.435600663977,-121.249761314969));
#1503=CARTESIAN_POINT('Origin',(-17.04,178.435600644755,-121.24976131158));
#1504=CARTESIAN_POINT('',(-18.39,178.435600644755,-121.24976131158));
#1505=CARTESIAN_POINT('Origin',(-17.04,178.435600644755,-121.24976131158));
#1506=CARTESIAN_POINT('Origin',(-17.04,171.778300253614,-120.07589963394));
#1507=CARTESIAN_POINT('',(-21.04,181.390023923013,-121.77070584797));
#1508=CARTESIAN_POINT('',(-21.04,171.778300253614,-120.07589963394));
#1509=CARTESIAN_POINT('',(-21.04,181.488504698315,-121.788070665736));
#1510=CARTESIAN_POINT('',(-21.04,171.778300253614,-120.07589963394));
#1511=CARTESIAN_POINT('Origin',(-17.04,181.488504698315,-121.788070665736));
#1512=CARTESIAN_POINT('',(-20.04,181.84945381674,-119.165149444291));
#1513=CARTESIAN_POINT('Origin',(-17.04,181.390023923013,-121.77070584797));
#1514=CARTESIAN_POINT('',(-20.04,172.237730147341,-117.470343230262));
#1515=CARTESIAN_POINT('',(-16.1567912295341,182.067473120356,-117.928700531368));
#1516=CARTESIAN_POINT('',(-14.2283635669136,181.884073605124,-118.968810867827));
#1517=CARTESIAN_POINT('Origin',(-17.04,181.390023923013,-121.77070584797));
#1518=CARTESIAN_POINT('',(-14.2283635669136,179.9144580991,-118.621514512493));
#1519=CARTESIAN_POINT('',(-14.2283635669136,172.272349935725,-117.274004653798));
#1520=CARTESIAN_POINT('',(-16.1567912295341,180.097857614331,-117.581404176035));
#1521=CARTESIAN_POINT('Origin',(-17.04,179.420408416989,-121.423409492636));
#1522=CARTESIAN_POINT('',(-16.1567912295341,172.455749450957,-116.233894317339));
#1523=CARTESIAN_POINT('Origin',(-17.04,171.778300253614,-120.07589963394));
#1524=CARTESIAN_POINT('',(-18.39,181.488504698315,-121.788070665736));
#1525=CARTESIAN_POINT('Origin',(-17.04,181.488504698315,-121.788070665736));
#1526=CARTESIAN_POINT('',(-18.39,171.778300253614,-120.07589963394));
#1527=CARTESIAN_POINT('Origin',(-17.04,181.849894558296,-62.9570499592324));
#1528=CARTESIAN_POINT('',(-18.39,191.560099002997,-64.6692209910283));
#1529=CARTESIAN_POINT('Origin',(-17.04,191.560099002997,-64.6692209910283));
#1530=CARTESIAN_POINT('',(-18.39,181.849894558296,-62.9570499592324));
#1531=CARTESIAN_POINT('Origin',(69.86,171.778300253614,-120.07589963394));
#1532=CARTESIAN_POINT('',(68.51,181.488504698315,-121.788070665736));
#1533=CARTESIAN_POINT('Origin',(69.86,181.488504698315,-121.788070665736));
#1534=CARTESIAN_POINT('',(68.51,171.778300253614,-120.07589963394));
#1535=CARTESIAN_POINT('Origin',(69.86,181.849894558296,-62.9570499592324));
#1536=CARTESIAN_POINT('',(68.51,191.560099002997,-64.6692209910283));
#1537=CARTESIAN_POINT('Origin',(69.86,191.560099002997,-64.6692209910283));
#1538=CARTESIAN_POINT('',(68.51,181.849894558296,-62.9570499592324));
#1539=CARTESIAN_POINT('Origin',(73.86,183.818694171652,-90.7207209715904));
#1540=CARTESIAN_POINT('',(72.86,183.818694171652,-90.7207209715904));
#1541=CARTESIAN_POINT('',(74.86,178.435600663977,-121.249761314969));
#1542=CARTESIAN_POINT('',(73.86,178.435600663977,-121.249761314969));
#1543=CARTESIAN_POINT('',(74.86,189.201787679327,-60.191680628212));
#1544=CARTESIAN_POINT('',(74.86,183.818694171652,-90.7207209715904));
#1545=CARTESIAN_POINT('',(73.86,189.201787679327,-60.191680628212));
#1546=CARTESIAN_POINT('Origin',(-21.04,190.678999308845,-60.4521528947124));
#1547=CARTESIAN_POINT('',(74.86,192.156210938363,-60.7126251612128));
#1548=CARTESIAN_POINT('',(73.86,192.156210938363,-60.7126251612128));
#1549=CARTESIAN_POINT('',(26.41,192.156210938363,-60.7126251612128));
#1550=CARTESIAN_POINT('',(-22.04,192.156210938363,-60.7126251612128));
#1551=CARTESIAN_POINT('',(26.41,192.156210938363,-60.7126251612128));
#1552=CARTESIAN_POINT('',(-22.04,189.201787679327,-60.191680628212));
#1553=CARTESIAN_POINT('',(-22.04,190.678999308845,-60.4521528947124));
#1554=CARTESIAN_POINT('',(-21.04,189.201787679327,-60.191680628212));
#1555=CARTESIAN_POINT('',(26.41,189.201787679327,-60.191680628212));
#1556=CARTESIAN_POINT('',(74.86,190.678999308845,-60.4521528947124));
#1557=CARTESIAN_POINT('Origin',(73.86,186.773117430688,-91.2416655045912));
#1558=CARTESIAN_POINT('',(74.86,181.390023923014,-121.77070584797));
#1559=CARTESIAN_POINT('',(74.86,186.773117430688,-91.2416655045912));
#1560=CARTESIAN_POINT('',(73.86,181.390023923014,-121.77070584797));
#1561=CARTESIAN_POINT('',(72.86,181.884947862771,-118.96385270633));
#1562=CARTESIAN_POINT('',(72.86,186.773117430688,-91.2416655045912));
#1563=CARTESIAN_POINT('',(70.86,185.010615060776,-101.23731315211));
#1564=CARTESIAN_POINT('',(69.9655046387937,186.408562465421,-93.3091594513656));
#1565=CARTESIAN_POINT('',(71.7544953612062,186.408562465421,-93.3091594513656));
#1566=CARTESIAN_POINT('',(69.9544614861862,186.425821075354,-93.2112810106156));
#1567=CARTESIAN_POINT('',(69.9655046387937,186.443079685288,-93.1134025698657));
#1568=CARTESIAN_POINT('',(69.9655046387937,186.408562465421,-93.3091594513656));
#1569=CARTESIAN_POINT('',(70.86,187.841027089933,-85.1852488691214));
#1570=CARTESIAN_POINT('',(71.7544953612062,186.443079685288,-93.1134025698657));
#1571=CARTESIAN_POINT('',(72.2532373130994,190.018425174229,-72.8366106995857));
#1572=CARTESIAN_POINT('',(69.9655046387937,186.443079685288,-93.1134025698657));
#1573=CARTESIAN_POINT('',(72.86,189.846890719664,-73.8094309331996));
#1574=CARTESIAN_POINT('Origin',(78.8,190.598586784691,-69.5463507057323));
#1575=CARTESIAN_POINT('',(72.86,186.773117430688,-91.2416655045912));
#1576=CARTESIAN_POINT('',(72.86,188.13628225878,-83.5107735978902));
#1577=CARTESIAN_POINT('',(71.7655385138137,186.425821075354,-93.2112810106156));
#1578=CARTESIAN_POINT('',(71.7544953612062,186.408562465421,-93.3091594513656));
#1579=CARTESIAN_POINT('',(72.86,184.715359891929,-102.911788423341));
#1580=CARTESIAN_POINT('',(71.7544953612062,186.443079685288,-93.1134025698657));
#1581=CARTESIAN_POINT('',(72.86,186.773117430688,-91.2416655045912));
#1582=CARTESIAN_POINT('Origin',(78.8,166.283683362819,-65.2589771991358));
#1583=CARTESIAN_POINT('',(72.86,187.877275213639,-73.4621345778657));
#1584=CARTESIAN_POINT('',(72.86,165.531987297792,-69.5220574266031));
#1585=CARTESIAN_POINT('',(72.2532373130994,188.048809668204,-72.4893143442518));
#1586=CARTESIAN_POINT('',(72.2532373130994,165.703521752357,-68.5492371929892));
#1587=CARTESIAN_POINT('Origin',(78.8,188.628971278666,-69.1990543503984));
#1588=CARTESIAN_POINT('Origin',(72.86,185.29590580117,-90.9811932380908));
#1589=CARTESIAN_POINT('',(72.86,186.166666752756,-83.1634772425563));
#1590=CARTESIAN_POINT('',(72.86,184.629853746997,-91.8791769022696));
#1591=CARTESIAN_POINT('',(72.86,186.905272567515,-83.2937133758065));
#1592=CARTESIAN_POINT('',(72.86,182.745744385904,-102.564492068007));
#1593=CARTESIAN_POINT('',(72.86,183.484350200663,-102.694728201258));
#1594=CARTESIAN_POINT('',(72.86,179.915332356747,-118.616556350996));
#1595=CARTESIAN_POINT('',(72.86,184.629853746997,-91.8791769022696));
#1596=CARTESIAN_POINT('',(72.86,180.653938171506,-118.746792484246));
#1597=CARTESIAN_POINT('Origin',(70.86,184.45620556933,-92.8639846552818));
#1598=CARTESIAN_POINT('',(70.86,185.871411583909,-84.8379525137875));
#1599=CARTESIAN_POINT('',(69.9655046387937,184.473464179264,-92.7661062145319));
#1600=CARTESIAN_POINT('',(71.7544953612062,184.473464179264,-92.7661062145319));
#1601=CARTESIAN_POINT('',(69.9544614861862,184.45620556933,-92.8639846552818));
#1602=CARTESIAN_POINT('',(69.9655046387937,184.438946959396,-92.9618630960317));
#1603=CARTESIAN_POINT('',(69.9655046387937,184.473464179264,-92.7661062145319));
#1604=CARTESIAN_POINT('',(70.86,183.040999554751,-100.890016796776));
#1605=CARTESIAN_POINT('',(71.7544953612062,184.438946959396,-92.9618630960317));
#1606=CARTESIAN_POINT('',(69.9655046387937,184.438946959396,-92.9618630960317));
#1607=CARTESIAN_POINT('',(71.7655385138137,184.45620556933,-92.8639846552818));
#1608=CARTESIAN_POINT('',(71.7544953612062,184.473464179264,-92.7661062145319));
#1609=CARTESIAN_POINT('',(71.7544953612062,184.438946959396,-92.9618630960317));
#1610=CARTESIAN_POINT('Origin',(69.9655046387937,185.458271932276,-92.9397543921988));
#1611=CARTESIAN_POINT('',(70.86,186.856219336921,-85.0116006914544));
#1612=CARTESIAN_POINT('Origin',(74.86,185.29590580117,-90.9811932380908));
#1613=CARTESIAN_POINT('',(74.86,179.912812293495,-121.510233581469));
#1614=CARTESIAN_POINT('Origin',(69.86,191.560099002997,-64.6692209910283));
#1615=CARTESIAN_POINT('Origin',(71.7544953612062,185.458271932276,-92.9397543921988));
#1616=CARTESIAN_POINT('',(71.7655385138137,185.441013322342,-93.0376328329487));
#1617=CARTESIAN_POINT('Origin',(71.7544953612062,185.458271932276,-92.9397543921988));
#1618=CARTESIAN_POINT('Origin',(69.9655046387937,185.423754712408,-93.1355112736986));
#1619=CARTESIAN_POINT('',(70.86,184.025807307764,-101.063664974443));
#1620=CARTESIAN_POINT('Origin',(69.9655046387937,185.423754712408,-93.1355112736986));
#1621=CARTESIAN_POINT('',(69.9544614861862,185.441013322342,-93.0376328329487));
#1622=CARTESIAN_POINT('Origin',(69.9655046387937,185.458271932276,-92.9397543921988));
#1623=CARTESIAN_POINT('Origin',(71.7544953612062,185.423754712408,-93.1355112736986));
#1624=CARTESIAN_POINT('Origin',(71.7544953612062,185.423754712408,-93.1355112736986));
#1625=CARTESIAN_POINT('Origin',(-18.9344953612063,185.458271932276,-92.9397543921988));
#1626=CARTESIAN_POINT('',(-18.04,185.871411583909,-84.8379525137874));
#1627=CARTESIAN_POINT('',(-18.04,187.841027089933,-85.1852488691213));
#1628=CARTESIAN_POINT('',(-18.04,186.856219336921,-85.0116006914544));
#1629=CARTESIAN_POINT('',(-18.9344953612063,184.473464179264,-92.7661062145319));
#1630=CARTESIAN_POINT('',(-18.9344953612063,186.443079685288,-93.1134025698657));
#1631=CARTESIAN_POINT('Origin',(-18.9344953612063,185.458271932276,-92.9397543921988));
#1632=CARTESIAN_POINT('',(-18.9455385138138,186.425821075354,-93.2112810106156));
#1633=CARTESIAN_POINT('',(-18.9455385138138,184.45620556933,-92.8639846552818));
#1634=CARTESIAN_POINT('',(-18.9455385138138,185.441013322342,-93.0376328329487));
#1635=CARTESIAN_POINT('',(-20.04,184.715359891928,-102.911788423341));
#1636=CARTESIAN_POINT('',(-18.9344953612063,186.443079685288,-93.1134025698657));
#1637=CARTESIAN_POINT('',(-20.04,182.745744385904,-102.564492068007));
#1638=CARTESIAN_POINT('',(-20.04,183.484350200663,-102.694728201257));
#1639=CARTESIAN_POINT('',(-18.9344953612063,184.473464179264,-92.7661062145319));
#1640=CARTESIAN_POINT('Origin',(-17.1455046387938,185.423754712408,-93.1355112736986));
#1641=CARTESIAN_POINT('',(-17.1344614861863,186.425821075354,-93.2112810106156));
#1642=CARTESIAN_POINT('',(-17.1344614861863,184.45620556933,-92.8639846552818));
#1643=CARTESIAN_POINT('',(-17.1344614861863,185.441013322342,-93.0376328329487));
#1644=CARTESIAN_POINT('',(-17.1455046387938,186.408562465421,-93.3091594513656));
#1645=CARTESIAN_POINT('',(-17.1455046387938,184.438946959396,-92.9618630960317));
#1646=CARTESIAN_POINT('Origin',(-17.1455046387938,185.423754712408,-93.1355112736986));
#1647=CARTESIAN_POINT('',(-18.04,183.040999554751,-100.890016796776));
#1648=CARTESIAN_POINT('',(-18.04,185.010615060776,-101.23731315211));
#1649=CARTESIAN_POINT('',(-18.04,184.025807307763,-101.063664974443));
#1650=CARTESIAN_POINT('',(-20.04,179.915332356746,-118.616556350996));
#1651=CARTESIAN_POINT('',(-17.1455046387938,184.438946959396,-92.9618630960317));
#1652=CARTESIAN_POINT('',(-20.04,181.884947862771,-118.96385270633));
#1653=CARTESIAN_POINT('',(-20.04,180.653938171506,-118.746792484246));
#1654=CARTESIAN_POINT('',(-17.1455046387938,186.408562465421,-93.3091594513656));
#1655=CARTESIAN_POINT('Origin',(-18.04,184.45620556933,-92.8639846552818));
#1656=CARTESIAN_POINT('',(-20.04,188.997078781914,-67.1114129595677));
#1657=CARTESIAN_POINT('',(-17.1455046387938,184.473464179264,-92.7661062145319));
#1658=CARTESIAN_POINT('',(-20.04,186.166666752756,-83.1634772425564));
#1659=CARTESIAN_POINT('',(-20.04,184.629853746997,-91.8791769022696));
#1660=CARTESIAN_POINT('',(-18.9344953612063,184.438946959396,-92.9618630960317));
#1661=CARTESIAN_POINT('',(-20.04,184.629853746997,-91.8791769022696));
#1662=CARTESIAN_POINT('',(-18.9344953612063,184.438946959396,-92.9618630960317));
#1663=CARTESIAN_POINT('',(-17.1455046387938,184.473464179264,-92.7661062145319));
#1664=CARTESIAN_POINT('Origin',(-18.9344953612063,185.423754712408,-93.1355112736986));
#1665=CARTESIAN_POINT('',(-18.9344953612063,186.408562465421,-93.3091594513656));
#1666=CARTESIAN_POINT('Origin',(-17.1455046387938,185.458271932276,-92.9397543921988));
#1667=CARTESIAN_POINT('',(-17.1455046387938,186.443079685288,-93.1134025698657));
#1668=CARTESIAN_POINT('Origin',(-17.1455046387938,185.458271932276,-92.9397543921988));
#1669=CARTESIAN_POINT('',(-20.04,190.966694287938,-67.4587093149015));
#1670=CARTESIAN_POINT('',(-17.1455046387938,186.443079685288,-93.1134025698657));
#1671=CARTESIAN_POINT('',(-20.04,189.735684596673,-67.2416490928179));
#1672=CARTESIAN_POINT('Origin',(-21.04,186.773117430688,-91.2416655045912));
#1673=CARTESIAN_POINT('',(-20.04,186.773117430688,-91.2416655045912));
#1674=CARTESIAN_POINT('',(-22.04,181.390023923013,-121.77070584797));
#1675=CARTESIAN_POINT('',(-21.04,181.390023923013,-121.77070584797));
#1676=CARTESIAN_POINT('',(-22.04,186.773117430688,-91.2416655045912));
#1677=CARTESIAN_POINT('',(-20.04,186.773117430688,-91.2416655045912));
#1678=CARTESIAN_POINT('',(-20.04,188.13628225878,-83.5107735978902));
#1679=CARTESIAN_POINT('',(-18.9344953612063,186.408562465421,-93.3091594513656));
#1680=CARTESIAN_POINT('',(-20.04,186.773117430688,-91.2416655045912));
#1681=CARTESIAN_POINT('Origin',(-18.9344953612063,185.423754712408,-93.1355112736986));
#1682=CARTESIAN_POINT('',(-20.04,186.905272567515,-83.2937133758065));
#1683=CARTESIAN_POINT('Origin',(-20.04,185.29590580117,-90.9811932380908));
#1684=CARTESIAN_POINT('',(-20.04,183.818694171652,-90.7207209715904));
#1685=CARTESIAN_POINT('Origin',(26.41,190.331702953511,-62.4217684007368));
#1686=CARTESIAN_POINT('',(26.41,191.808914583029,-62.6822406672372));
#1687=CARTESIAN_POINT('',(26.41,188.854491323993,-62.1612961342364));
#1688=CARTESIAN_POINT('Origin',(26.41,191.982562760696,-61.697432914225));
#1689=CARTESIAN_POINT('Origin',(26.41,189.02813950166,-61.1764883812242));
#1690=CARTESIAN_POINT('Origin',(73.86,179.912812293495,-121.510233581469));
#1691=CARTESIAN_POINT('Origin',(69.86,181.488504698315,-121.788070665736));
#1692=CARTESIAN_POINT('Origin',(-21.04,183.818694171652,-90.7207209715904));
#1693=CARTESIAN_POINT('',(-22.04,178.435600663977,-121.249761314969));
#1694=CARTESIAN_POINT('',(-22.04,183.818694171652,-90.7207209715904));
#1695=CARTESIAN_POINT('',(-21.04,178.435600663977,-121.249761314969));
#1696=CARTESIAN_POINT('Origin',(-22.04,185.29590580117,-90.9811932380908));
#1697=CARTESIAN_POINT('',(-22.04,179.912812293495,-121.510233581469));
#1698=CARTESIAN_POINT('Origin',(-21.04,179.912812293495,-121.510233581469));
#1699=CARTESIAN_POINT('Origin',(-17.04,191.560099002997,-64.6692209910283));
#1700=CARTESIAN_POINT('Origin',(-17.04,181.488504698315,-121.788070665736));
#1701=UNCERTAINTY_MEASURE_WITH_UNIT(LENGTH_MEASURE(0.01),#1705,
'DISTANCE_ACCURACY_VALUE',
'Maximum model space distance between geometric entities at asserted c
onnectivities');
#1702=UNCERTAINTY_MEASURE_WITH_UNIT(LENGTH_MEASURE(0.01),#1705,
'DISTANCE_ACCURACY_VALUE',
'Maximum model space distance between geometric entities at asserted c
onnectivities');
#1703=(
GEOMETRIC_REPRESENTATION_CONTEXT(3)
GLOBAL_UNCERTAINTY_ASSIGNED_CONTEXT((#1701))
GLOBAL_UNIT_ASSIGNED_CONTEXT((#1705,#1707,#1708))
REPRESENTATION_CONTEXT('','3D')
);
#1704=(
GEOMETRIC_REPRESENTATION_CONTEXT(3)
GLOBAL_UNCERTAINTY_ASSIGNED_CONTEXT((#1702))
GLOBAL_UNIT_ASSIGNED_CONTEXT((#1705,#1707,#1708))
REPRESENTATION_CONTEXT('','3D')
);
#1705=(
LENGTH_UNIT()
NAMED_UNIT(*)
SI_UNIT(.MILLI.,.METRE.)
);
#1706=(
LENGTH_UNIT()
NAMED_UNIT(*)
SI_UNIT($,.METRE.)
);
#1707=(
NAMED_UNIT(*)
PLANE_ANGLE_UNIT()
SI_UNIT($,.RADIAN.)
);
#1708=(
NAMED_UNIT(*)
SI_UNIT($,.STERADIAN.)
SOLID_ANGLE_UNIT()
);
#1709=SHAPE_DEFINITION_REPRESENTATION(#1710,#1711);
#1710=PRODUCT_DEFINITION_SHAPE('',$,#1713);
#1711=SHAPE_REPRESENTATION('',(#1034),#1703);
#1712=PRODUCT_DEFINITION_CONTEXT('part definition',#1717,'design');
#1713=PRODUCT_DEFINITION('(Unsaved)','(Unsaved)',#1714,#1712);
#1714=PRODUCT_DEFINITION_FORMATION('',$,#1719);
#1715=PRODUCT_RELATED_PRODUCT_CATEGORY('(Unsaved)','(Unsaved)',(#1719));
#1716=APPLICATION_PROTOCOL_DEFINITION('international standard',
'automotive_design',2009,#1717);
#1717=APPLICATION_CONTEXT(
'Core Data for Automotive Mechanical Design Process');
#1718=PRODUCT_CONTEXT('part definition',#1717,'mechanical');
#1719=PRODUCT('(Unsaved)','(Unsaved)',$,(#1718));
#1720=PRESENTATION_STYLE_ASSIGNMENT((#1721));
#1721=SURFACE_STYLE_USAGE(.BOTH.,#1722);
#1722=SURFACE_SIDE_STYLE('',(#1723));
#1723=SURFACE_STYLE_FILL_AREA(#1724);
#1724=FILL_AREA_STYLE('Steel - Satin',(#1725));
#1725=FILL_AREA_STYLE_COLOUR('Steel - Satin',#1726);
#1726=COLOUR_RGB('Steel - Satin',0.627450980392157,0.627450980392157,0.627450980392157);
ENDSEC;
END-ISO-10303-21;
