ISO-10303-21;
HEADER;
/* Generated by software containing ST-Developer
 * from STEP Tools, Inc. (www.steptools.com) 
 */

FILE_DESCRIPTION(
/* description */ (''),
/* implementation_level */ '2;1');

FILE_NAME(
/* name */ 'openflight-kickstand-peg-right.step',
/* time_stamp */ '2026-09-11T16:57:58-07:00',
/* author */ (''),
/* organization */ (''),
/* preprocessor_version */ 'ST-DEVELOPER v20.2',
/* originating_system */ 'Autodesk Translation Framework v15.15.0.0',
/* authorisation */ '');

FILE_SCHEMA (('AUTOMOTIVE_DESIGN { 1 0 10303 214 3 1 1 }'));
ENDSEC;

DATA;
#10=MECHANICAL_DESIGN_GEOMETRIC_PRESENTATION_REPRESENTATION('',(#13),#959);
#11=SHAPE_REPRESENTATION_RELATIONSHIP('SRR','None',#966,#12);
#12=ADVANCED_BREP_SHAPE_REPRESENTATION('',(#14),#958);
#13=STYLED_ITEM('',(#975),#14);
#14=MANIFOLD_SOLID_BREP('openflight-kickstand-peg-right',#539);
#15=CYLINDRICAL_SURFACE('',#561,2.9);
#16=CYLINDRICAL_SURFACE('',#565,4.2);
#17=CYLINDRICAL_SURFACE('',#566,4.2);
#18=CYLINDRICAL_SURFACE('',#568,4.2);
#19=CYLINDRICAL_SURFACE('',#570,2.8);
#20=CYLINDRICAL_SURFACE('',#575,4.2);
#21=CYLINDRICAL_SURFACE('',#586,4.2);
#22=CYLINDRICAL_SURFACE('',#595,4.2);
#23=CYLINDRICAL_SURFACE('',#596,2.89999999999999);
#24=CYLINDRICAL_SURFACE('',#599,6.99999999999999);
#25=CYLINDRICAL_SURFACE('',#604,6.99999999999999);
#26=CYLINDRICAL_SURFACE('',#607,0.300000000000002);
#27=CYLINDRICAL_SURFACE('',#608,1.59999999999999);
#28=CYLINDRICAL_SURFACE('',#610,2.99999999999999);
#29=CYLINDRICAL_SURFACE('',#613,4.39999999999999);
#30=CYLINDRICAL_SURFACE('',#615,2.5);
#31=B_SPLINE_CURVE_WITH_KNOTS('',3,(#803,#804,#805,#806,#807,#808),
 .UNSPECIFIED.,.F.,.F.,(4,2,4),(0.306135515938748,0.361442368689141,0.416749221439527),
 .UNSPECIFIED.);
#32=B_SPLINE_CURVE_WITH_KNOTS('',3,(#830,#831,#832,#833),.UNSPECIFIED.,
 .F.,.F.,(4,4),(0.565022044280918,0.605313974214302),.UNSPECIFIED.);
#33=B_SPLINE_CURVE_WITH_KNOTS('',3,(#836,#837,#838,#839),.UNSPECIFIED.,
 .F.,.F.,(4,4),(0.117570763163972,0.157862693097351),.UNSPECIFIED.);
#34=LINE('',#802,#72);
#35=LINE('',#812,#73);
#36=LINE('',#816,#74);
#37=LINE('',#818,#75);
#38=LINE('',#822,#76);
#39=LINE('',#824,#77);
#40=LINE('',#845,#78);
#41=LINE('',#853,#79);
#42=LINE('',#857,#80);
#43=LINE('',#865,#81);
#44=LINE('',#867,#82);
#45=LINE('',#869,#83);
#46=LINE('',#871,#84);
#47=LINE('',#875,#85);
#48=LINE('',#877,#86);
#49=LINE('',#887,#87);
#50=LINE('',#896,#88);
#51=LINE('',#898,#89);
#52=LINE('',#902,#90);
#53=LINE('',#904,#91);
#54=LINE('',#906,#92);
#55=LINE('',#908,#93);
#56=LINE('',#913,#94);
#57=LINE('',#915,#95);
#58=LINE('',#920,#96);
#59=LINE('',#922,#97);
#60=LINE('',#923,#98);
#61=LINE('',#925,#99);
#62=LINE('',#926,#100);
#63=LINE('',#928,#101);
#64=LINE('',#932,#102);
#65=LINE('',#933,#103);
#66=LINE('',#935,#104);
#67=LINE('',#939,#105);
#68=LINE('',#943,#106);
#69=LINE('',#946,#107);
#70=LINE('',#948,#108);
#71=LINE('',#954,#109);
#72=VECTOR('',#634,1.94641016151379);
#73=VECTOR('',#639,2.9);
#74=VECTOR('',#642,10.);
#75=VECTOR('',#643,10.);
#76=VECTOR('',#646,10.);
#77=VECTOR('',#647,10.);
#78=VECTOR('',#664,2.8);
#79=VECTOR('',#673,10.);
#80=VECTOR('',#676,10.);
#81=VECTOR('',#685,10.);
#82=VECTOR('',#686,10.);
#83=VECTOR('',#687,10.);
#84=VECTOR('',#688,10.);
#85=VECTOR('',#691,10.);
#86=VECTOR('',#692,1000.);
#87=VECTOR('',#705,10.);
#88=VECTOR('',#714,1000.);
#89=VECTOR('',#715,10.);
#90=VECTOR('',#718,10.);
#91=VECTOR('',#719,10.);
#92=VECTOR('',#720,10.);
#93=VECTOR('',#721,10.);
#94=VECTOR('',#726,1000.);
#95=VECTOR('',#729,10.);
#96=VECTOR('',#738,1000.);
#97=VECTOR('',#741,10.);
#98=VECTOR('',#742,10.);
#99=VECTOR('',#745,10.);
#100=VECTOR('',#746,10.);
#101=VECTOR('',#749,10.);
#102=VECTOR('',#756,10.);
#103=VECTOR('',#757,10.);
#104=VECTOR('',#760,1000.);
#105=VECTOR('',#765,1.59999999999999);
#106=VECTOR('',#770,1000.);
#107=VECTOR('',#773,1000.);
#108=VECTOR('',#776,1000.);
#109=VECTOR('',#785,2.5);
#110=CONICAL_SURFACE('',#558,1.94641016151379,1.04719755119659);
#111=CONICAL_SURFACE('',#598,3.24641016151378,1.0471975511966);
#112=FACE_BOUND('',#150,.T.);
#113=FACE_BOUND('',#158,.T.);
#114=FACE_BOUND('',#161,.T.);
#115=FACE_BOUND('',#164,.T.);
#116=FACE_BOUND('',#165,.T.);
#117=FACE_BOUND('',#181,.T.);
#118=FACE_OUTER_BOUND('',#149,.T.);
#119=FACE_OUTER_BOUND('',#151,.T.);
#120=FACE_OUTER_BOUND('',#152,.T.);
#121=FACE_OUTER_BOUND('',#153,.T.);
#122=FACE_OUTER_BOUND('',#154,.T.);
#123=FACE_OUTER_BOUND('',#155,.T.);
#124=FACE_OUTER_BOUND('',#156,.T.);
#125=FACE_OUTER_BOUND('',#157,.T.);
#126=FACE_OUTER_BOUND('',#159,.T.);
#127=FACE_OUTER_BOUND('',#160,.T.);
#128=FACE_OUTER_BOUND('',#162,.T.);
#129=FACE_OUTER_BOUND('',#163,.T.);
#130=FACE_OUTER_BOUND('',#166,.T.);
#131=FACE_OUTER_BOUND('',#167,.T.);
#132=FACE_OUTER_BOUND('',#168,.T.);
#133=FACE_OUTER_BOUND('',#169,.T.);
#134=FACE_OUTER_BOUND('',#170,.T.);
#135=FACE_OUTER_BOUND('',#171,.T.);
#136=FACE_OUTER_BOUND('',#172,.T.);
#137=FACE_OUTER_BOUND('',#173,.T.);
#138=FACE_OUTER_BOUND('',#174,.T.);
#139=FACE_OUTER_BOUND('',#175,.T.);
#140=FACE_OUTER_BOUND('',#176,.T.);
#141=FACE_OUTER_BOUND('',#177,.T.);
#142=FACE_OUTER_BOUND('',#178,.T.);
#143=FACE_OUTER_BOUND('',#179,.T.);
#144=FACE_OUTER_BOUND('',#180,.T.);
#145=FACE_OUTER_BOUND('',#182,.T.);
#146=FACE_OUTER_BOUND('',#183,.T.);
#147=FACE_OUTER_BOUND('',#184,.T.);
#148=FACE_OUTER_BOUND('',#185,.T.);
#149=EDGE_LOOP('',(#345));
#150=EDGE_LOOP('',(#346,#347,#348));
#151=EDGE_LOOP('',(#349,#350,#351,#352,#353,#354,#355));
#152=EDGE_LOOP('',(#356,#357,#358,#359,#360,#361,#362,#363,#364,#365));
#153=EDGE_LOOP('',(#366,#367));
#154=EDGE_LOOP('',(#368,#369,#370));
#155=EDGE_LOOP('',(#371,#372,#373));
#156=EDGE_LOOP('',(#374,#375,#376,#377));
#157=EDGE_LOOP('',(#378));
#158=EDGE_LOOP('',(#379));
#159=EDGE_LOOP('',(#380,#381,#382,#383));
#160=EDGE_LOOP('',(#384,#385,#386,#387,#388,#389,#390,#391,#392,#393,#394,
#395,#396));
#161=EDGE_LOOP('',(#397,#398,#399,#400));
#162=EDGE_LOOP('',(#401,#402,#403,#404));
#163=EDGE_LOOP('',(#405,#406,#407,#408,#409,#410,#411,#412,#413,#414,#415,
#416,#417));
#164=EDGE_LOOP('',(#418));
#165=EDGE_LOOP('',(#419,#420));
#166=EDGE_LOOP('',(#421,#422,#423,#424));
#167=EDGE_LOOP('',(#425,#426,#427,#428,#429));
#168=EDGE_LOOP('',(#430,#431,#432,#433));
#169=EDGE_LOOP('',(#434,#435,#436,#437));
#170=EDGE_LOOP('',(#438,#439,#440,#441));
#171=EDGE_LOOP('',(#442,#443,#444,#445));
#172=EDGE_LOOP('',(#446,#447,#448,#449));
#173=EDGE_LOOP('',(#450,#451,#452,#453));
#174=EDGE_LOOP('',(#454,#455,#456,#457));
#175=EDGE_LOOP('',(#458,#459,#460,#461));
#176=EDGE_LOOP('',(#462,#463,#464,#465));
#177=EDGE_LOOP('',(#466,#467,#468,#469));
#178=EDGE_LOOP('',(#470,#471,#472,#473,#474));
#179=EDGE_LOOP('',(#475,#476,#477,#478));
#180=EDGE_LOOP('',(#479,#480));
#181=EDGE_LOOP('',(#481));
#182=EDGE_LOOP('',(#482,#483,#484,#485));
#183=EDGE_LOOP('',(#486,#487,#488,#489));
#184=EDGE_LOOP('',(#490,#491,#492,#493));
#185=EDGE_LOOP('',(#494));
#186=CIRCLE('',#554,2.9);
#187=CIRCLE('',#555,4.2);
#188=CIRCLE('',#556,1.91176914536225);
#189=CIRCLE('',#557,1.91176914536225);
#190=CIRCLE('',#559,1.59999999999999);
#191=CIRCLE('',#560,1.59999999999999);
#192=CIRCLE('',#562,2.89999999999999);
#193=CIRCLE('',#563,2.9);
#194=CIRCLE('',#564,2.89999999999999);
#195=CIRCLE('',#567,4.2);
#196=CIRCLE('',#569,4.2);
#197=CIRCLE('',#571,2.8);
#198=CIRCLE('',#572,2.8);
#199=CIRCLE('',#574,2.5);
#200=CIRCLE('',#576,4.2);
#201=CIRCLE('',#577,4.2);
#202=CIRCLE('',#579,4.2);
#203=CIRCLE('',#580,6.99999999999999);
#204=CIRCLE('',#581,4.39999999999998);
#205=CIRCLE('',#582,0.300000000000002);
#206=CIRCLE('',#583,6.99999999999999);
#207=CIRCLE('',#584,4.2);
#208=CIRCLE('',#585,3.24641016151378);
#209=CIRCLE('',#587,4.2);
#210=CIRCLE('',#589,4.2);
#211=CIRCLE('',#590,6.99999999999998);
#212=CIRCLE('',#591,0.300000000000002);
#213=CIRCLE('',#592,4.39999999999998);
#214=CIRCLE('',#593,6.99999999999998);
#215=CIRCLE('',#594,2.99999999999999);
#216=CIRCLE('',#597,2.89999999999999);
#217=CIRCLE('',#609,1.59999999999999);
#218=CIRCLE('',#611,2.99999999999999);
#219=CIRCLE('',#616,2.5);
#220=VERTEX_POINT('',#790);
#221=VERTEX_POINT('',#792);
#222=VERTEX_POINT('',#793);
#223=VERTEX_POINT('',#795);
#224=VERTEX_POINT('',#799);
#225=VERTEX_POINT('',#800);
#226=VERTEX_POINT('',#811);
#227=VERTEX_POINT('',#813);
#228=VERTEX_POINT('',#815);
#229=VERTEX_POINT('',#817);
#230=VERTEX_POINT('',#819);
#231=VERTEX_POINT('',#821);
#232=VERTEX_POINT('',#823);
#233=VERTEX_POINT('',#828);
#234=VERTEX_POINT('',#835);
#235=VERTEX_POINT('',#842);
#236=VERTEX_POINT('',#844);
#237=VERTEX_POINT('',#848);
#238=VERTEX_POINT('',#851);
#239=VERTEX_POINT('',#852);
#240=VERTEX_POINT('',#854);
#241=VERTEX_POINT('',#856);
#242=VERTEX_POINT('',#860);
#243=VERTEX_POINT('',#862);
#244=VERTEX_POINT('',#864);
#245=VERTEX_POINT('',#866);
#246=VERTEX_POINT('',#868);
#247=VERTEX_POINT('',#870);
#248=VERTEX_POINT('',#872);
#249=VERTEX_POINT('',#874);
#250=VERTEX_POINT('',#876);
#251=VERTEX_POINT('',#878);
#252=VERTEX_POINT('',#880);
#253=VERTEX_POINT('',#885);
#254=VERTEX_POINT('',#889);
#255=VERTEX_POINT('',#891);
#256=VERTEX_POINT('',#893);
#257=VERTEX_POINT('',#895);
#258=VERTEX_POINT('',#897);
#259=VERTEX_POINT('',#899);
#260=VERTEX_POINT('',#901);
#261=VERTEX_POINT('',#903);
#262=VERTEX_POINT('',#905);
#263=VERTEX_POINT('',#907);
#264=VERTEX_POINT('',#910);
#265=VERTEX_POINT('',#911);
#266=VERTEX_POINT('',#938);
#267=VERTEX_POINT('',#942);
#268=VERTEX_POINT('',#944);
#269=VERTEX_POINT('',#952);
#270=EDGE_CURVE('',#220,#220,#186,.T.);
#271=EDGE_CURVE('',#221,#222,#187,.T.);
#272=EDGE_CURVE('',#223,#221,#188,.T.);
#273=EDGE_CURVE('',#222,#223,#189,.T.);
#274=EDGE_CURVE('',#224,#225,#190,.T.);
#275=EDGE_CURVE('',#225,#223,#34,.T.);
#276=EDGE_CURVE('',#221,#222,#31,.T.);
#277=EDGE_CURVE('',#225,#224,#191,.T.);
#278=EDGE_CURVE('',#220,#226,#35,.T.);
#279=EDGE_CURVE('',#226,#227,#192,.T.);
#280=EDGE_CURVE('',#228,#227,#36,.T.);
#281=EDGE_CURVE('',#229,#228,#37,.T.);
#282=EDGE_CURVE('',#230,#229,#193,.T.);
#283=EDGE_CURVE('',#231,#230,#38,.T.);
#284=EDGE_CURVE('',#232,#231,#39,.T.);
#285=EDGE_CURVE('',#232,#226,#194,.T.);
#286=EDGE_CURVE('',#233,#230,#195,.T.);
#287=EDGE_CURVE('',#231,#233,#32,.T.);
#288=EDGE_CURVE('',#234,#228,#33,.T.);
#289=EDGE_CURVE('',#229,#234,#196,.T.);
#290=EDGE_CURVE('',#235,#235,#197,.T.);
#291=EDGE_CURVE('',#235,#236,#40,.T.);
#292=EDGE_CURVE('',#236,#236,#198,.T.);
#293=EDGE_CURVE('',#237,#237,#199,.T.);
#294=EDGE_CURVE('',#238,#239,#41,.T.);
#295=EDGE_CURVE('',#240,#238,#200,.T.);
#296=EDGE_CURVE('',#241,#240,#42,.T.);
#297=EDGE_CURVE('',#239,#241,#201,.T.);
#298=EDGE_CURVE('',#241,#242,#202,.T.);
#299=EDGE_CURVE('',#242,#243,#203,.T.);
#300=EDGE_CURVE('',#244,#243,#43,.T.);
#301=EDGE_CURVE('',#245,#244,#44,.T.);
#302=EDGE_CURVE('',#245,#246,#45,.T.);
#303=EDGE_CURVE('',#246,#247,#46,.T.);
#304=EDGE_CURVE('',#247,#248,#204,.T.);
#305=EDGE_CURVE('',#248,#249,#47,.T.);
#306=EDGE_CURVE('',#249,#250,#48,.T.);
#307=EDGE_CURVE('',#251,#250,#205,.T.);
#308=EDGE_CURVE('',#251,#252,#206,.T.);
#309=EDGE_CURVE('',#252,#239,#207,.T.);
#310=EDGE_CURVE('',#233,#234,#208,.T.);
#311=EDGE_CURVE('',#253,#240,#209,.T.);
#312=EDGE_CURVE('',#242,#253,#49,.T.);
#313=EDGE_CURVE('',#238,#254,#210,.T.);
#314=EDGE_CURVE('',#255,#254,#211,.T.);
#315=EDGE_CURVE('',#256,#255,#212,.T.);
#316=EDGE_CURVE('',#257,#256,#50,.T.);
#317=EDGE_CURVE('',#257,#258,#51,.T.);
#318=EDGE_CURVE('',#258,#259,#213,.T.);
#319=EDGE_CURVE('',#260,#259,#52,.T.);
#320=EDGE_CURVE('',#260,#261,#53,.T.);
#321=EDGE_CURVE('',#261,#262,#54,.T.);
#322=EDGE_CURVE('',#263,#262,#55,.T.);
#323=EDGE_CURVE('',#253,#263,#214,.T.);
#324=EDGE_CURVE('',#264,#265,#215,.T.);
#325=EDGE_CURVE('',#264,#265,#56,.T.);
#326=EDGE_CURVE('',#254,#252,#57,.T.);
#327=EDGE_CURVE('',#228,#231,#216,.T.);
#328=EDGE_CURVE('',#255,#251,#58,.T.);
#329=EDGE_CURVE('',#247,#259,#59,.T.);
#330=EDGE_CURVE('',#246,#260,#60,.T.);
#331=EDGE_CURVE('',#262,#244,#61,.T.);
#332=EDGE_CURVE('',#261,#245,#62,.T.);
#333=EDGE_CURVE('',#263,#243,#63,.T.);
#334=EDGE_CURVE('',#248,#258,#64,.T.);
#335=EDGE_CURVE('',#249,#257,#65,.T.);
#336=EDGE_CURVE('',#250,#256,#66,.T.);
#337=EDGE_CURVE('',#224,#266,#67,.T.);
#338=EDGE_CURVE('',#266,#266,#217,.T.);
#339=EDGE_CURVE('',#264,#267,#68,.T.);
#340=EDGE_CURVE('',#267,#268,#218,.T.);
#341=EDGE_CURVE('',#265,#268,#69,.T.);
#342=EDGE_CURVE('',#267,#268,#70,.T.);
#343=EDGE_CURVE('',#269,#269,#219,.T.);
#344=EDGE_CURVE('',#269,#237,#71,.T.);
#345=ORIENTED_EDGE('',*,*,#270,.F.);
#346=ORIENTED_EDGE('',*,*,#271,.F.);
#347=ORIENTED_EDGE('',*,*,#272,.F.);
#348=ORIENTED_EDGE('',*,*,#273,.F.);
#349=ORIENTED_EDGE('',*,*,#274,.T.);
#350=ORIENTED_EDGE('',*,*,#275,.T.);
#351=ORIENTED_EDGE('',*,*,#272,.T.);
#352=ORIENTED_EDGE('',*,*,#276,.T.);
#353=ORIENTED_EDGE('',*,*,#273,.T.);
#354=ORIENTED_EDGE('',*,*,#275,.F.);
#355=ORIENTED_EDGE('',*,*,#277,.T.);
#356=ORIENTED_EDGE('',*,*,#270,.T.);
#357=ORIENTED_EDGE('',*,*,#278,.T.);
#358=ORIENTED_EDGE('',*,*,#279,.T.);
#359=ORIENTED_EDGE('',*,*,#280,.F.);
#360=ORIENTED_EDGE('',*,*,#281,.F.);
#361=ORIENTED_EDGE('',*,*,#282,.F.);
#362=ORIENTED_EDGE('',*,*,#283,.F.);
#363=ORIENTED_EDGE('',*,*,#284,.F.);
#364=ORIENTED_EDGE('',*,*,#285,.T.);
#365=ORIENTED_EDGE('',*,*,#278,.F.);
#366=ORIENTED_EDGE('',*,*,#271,.T.);
#367=ORIENTED_EDGE('',*,*,#276,.F.);
#368=ORIENTED_EDGE('',*,*,#283,.T.);
#369=ORIENTED_EDGE('',*,*,#286,.F.);
#370=ORIENTED_EDGE('',*,*,#287,.F.);
#371=ORIENTED_EDGE('',*,*,#281,.T.);
#372=ORIENTED_EDGE('',*,*,#288,.F.);
#373=ORIENTED_EDGE('',*,*,#289,.F.);
#374=ORIENTED_EDGE('',*,*,#290,.T.);
#375=ORIENTED_EDGE('',*,*,#291,.T.);
#376=ORIENTED_EDGE('',*,*,#292,.F.);
#377=ORIENTED_EDGE('',*,*,#291,.F.);
#378=ORIENTED_EDGE('',*,*,#290,.F.);
#379=ORIENTED_EDGE('',*,*,#293,.F.);
#380=ORIENTED_EDGE('',*,*,#294,.F.);
#381=ORIENTED_EDGE('',*,*,#295,.F.);
#382=ORIENTED_EDGE('',*,*,#296,.F.);
#383=ORIENTED_EDGE('',*,*,#297,.F.);
#384=ORIENTED_EDGE('',*,*,#298,.T.);
#385=ORIENTED_EDGE('',*,*,#299,.T.);
#386=ORIENTED_EDGE('',*,*,#300,.F.);
#387=ORIENTED_EDGE('',*,*,#301,.F.);
#388=ORIENTED_EDGE('',*,*,#302,.T.);
#389=ORIENTED_EDGE('',*,*,#303,.T.);
#390=ORIENTED_EDGE('',*,*,#304,.T.);
#391=ORIENTED_EDGE('',*,*,#305,.T.);
#392=ORIENTED_EDGE('',*,*,#306,.T.);
#393=ORIENTED_EDGE('',*,*,#307,.F.);
#394=ORIENTED_EDGE('',*,*,#308,.T.);
#395=ORIENTED_EDGE('',*,*,#309,.T.);
#396=ORIENTED_EDGE('',*,*,#297,.T.);
#397=ORIENTED_EDGE('',*,*,#282,.T.);
#398=ORIENTED_EDGE('',*,*,#289,.T.);
#399=ORIENTED_EDGE('',*,*,#310,.F.);
#400=ORIENTED_EDGE('',*,*,#286,.T.);
#401=ORIENTED_EDGE('',*,*,#296,.T.);
#402=ORIENTED_EDGE('',*,*,#311,.F.);
#403=ORIENTED_EDGE('',*,*,#312,.F.);
#404=ORIENTED_EDGE('',*,*,#298,.F.);
#405=ORIENTED_EDGE('',*,*,#313,.T.);
#406=ORIENTED_EDGE('',*,*,#314,.F.);
#407=ORIENTED_EDGE('',*,*,#315,.F.);
#408=ORIENTED_EDGE('',*,*,#316,.F.);
#409=ORIENTED_EDGE('',*,*,#317,.T.);
#410=ORIENTED_EDGE('',*,*,#318,.T.);
#411=ORIENTED_EDGE('',*,*,#319,.F.);
#412=ORIENTED_EDGE('',*,*,#320,.T.);
#413=ORIENTED_EDGE('',*,*,#321,.T.);
#414=ORIENTED_EDGE('',*,*,#322,.F.);
#415=ORIENTED_EDGE('',*,*,#323,.F.);
#416=ORIENTED_EDGE('',*,*,#311,.T.);
#417=ORIENTED_EDGE('',*,*,#295,.T.);
#418=ORIENTED_EDGE('',*,*,#292,.T.);
#419=ORIENTED_EDGE('',*,*,#324,.T.);
#420=ORIENTED_EDGE('',*,*,#325,.F.);
#421=ORIENTED_EDGE('',*,*,#294,.T.);
#422=ORIENTED_EDGE('',*,*,#309,.F.);
#423=ORIENTED_EDGE('',*,*,#326,.F.);
#424=ORIENTED_EDGE('',*,*,#313,.F.);
#425=ORIENTED_EDGE('',*,*,#280,.T.);
#426=ORIENTED_EDGE('',*,*,#279,.F.);
#427=ORIENTED_EDGE('',*,*,#285,.F.);
#428=ORIENTED_EDGE('',*,*,#284,.T.);
#429=ORIENTED_EDGE('',*,*,#327,.F.);
#430=ORIENTED_EDGE('',*,*,#287,.T.);
#431=ORIENTED_EDGE('',*,*,#310,.T.);
#432=ORIENTED_EDGE('',*,*,#288,.T.);
#433=ORIENTED_EDGE('',*,*,#327,.T.);
#434=ORIENTED_EDGE('',*,*,#326,.T.);
#435=ORIENTED_EDGE('',*,*,#308,.F.);
#436=ORIENTED_EDGE('',*,*,#328,.F.);
#437=ORIENTED_EDGE('',*,*,#314,.T.);
#438=ORIENTED_EDGE('',*,*,#329,.F.);
#439=ORIENTED_EDGE('',*,*,#303,.F.);
#440=ORIENTED_EDGE('',*,*,#330,.T.);
#441=ORIENTED_EDGE('',*,*,#319,.T.);
#442=ORIENTED_EDGE('',*,*,#301,.T.);
#443=ORIENTED_EDGE('',*,*,#331,.F.);
#444=ORIENTED_EDGE('',*,*,#321,.F.);
#445=ORIENTED_EDGE('',*,*,#332,.T.);
#446=ORIENTED_EDGE('',*,*,#333,.F.);
#447=ORIENTED_EDGE('',*,*,#322,.T.);
#448=ORIENTED_EDGE('',*,*,#331,.T.);
#449=ORIENTED_EDGE('',*,*,#300,.T.);
#450=ORIENTED_EDGE('',*,*,#330,.F.);
#451=ORIENTED_EDGE('',*,*,#302,.F.);
#452=ORIENTED_EDGE('',*,*,#332,.F.);
#453=ORIENTED_EDGE('',*,*,#320,.F.);
#454=ORIENTED_EDGE('',*,*,#312,.T.);
#455=ORIENTED_EDGE('',*,*,#323,.T.);
#456=ORIENTED_EDGE('',*,*,#333,.T.);
#457=ORIENTED_EDGE('',*,*,#299,.F.);
#458=ORIENTED_EDGE('',*,*,#305,.F.);
#459=ORIENTED_EDGE('',*,*,#334,.T.);
#460=ORIENTED_EDGE('',*,*,#317,.F.);
#461=ORIENTED_EDGE('',*,*,#335,.F.);
#462=ORIENTED_EDGE('',*,*,#335,.T.);
#463=ORIENTED_EDGE('',*,*,#316,.T.);
#464=ORIENTED_EDGE('',*,*,#336,.F.);
#465=ORIENTED_EDGE('',*,*,#306,.F.);
#466=ORIENTED_EDGE('',*,*,#307,.T.);
#467=ORIENTED_EDGE('',*,*,#336,.T.);
#468=ORIENTED_EDGE('',*,*,#315,.T.);
#469=ORIENTED_EDGE('',*,*,#328,.T.);
#470=ORIENTED_EDGE('',*,*,#274,.F.);
#471=ORIENTED_EDGE('',*,*,#337,.T.);
#472=ORIENTED_EDGE('',*,*,#338,.F.);
#473=ORIENTED_EDGE('',*,*,#337,.F.);
#474=ORIENTED_EDGE('',*,*,#277,.F.);
#475=ORIENTED_EDGE('',*,*,#324,.F.);
#476=ORIENTED_EDGE('',*,*,#339,.T.);
#477=ORIENTED_EDGE('',*,*,#340,.T.);
#478=ORIENTED_EDGE('',*,*,#341,.F.);
#479=ORIENTED_EDGE('',*,*,#342,.T.);
#480=ORIENTED_EDGE('',*,*,#340,.F.);
#481=ORIENTED_EDGE('',*,*,#338,.T.);
#482=ORIENTED_EDGE('',*,*,#329,.T.);
#483=ORIENTED_EDGE('',*,*,#318,.F.);
#484=ORIENTED_EDGE('',*,*,#334,.F.);
#485=ORIENTED_EDGE('',*,*,#304,.F.);
#486=ORIENTED_EDGE('',*,*,#339,.F.);
#487=ORIENTED_EDGE('',*,*,#325,.T.);
#488=ORIENTED_EDGE('',*,*,#341,.T.);
#489=ORIENTED_EDGE('',*,*,#342,.F.);
#490=ORIENTED_EDGE('',*,*,#343,.T.);
#491=ORIENTED_EDGE('',*,*,#344,.T.);
#492=ORIENTED_EDGE('',*,*,#293,.T.);
#493=ORIENTED_EDGE('',*,*,#344,.F.);
#494=ORIENTED_EDGE('',*,*,#343,.F.);
#495=PLANE('',#553);
#496=PLANE('',#573);
#497=PLANE('',#578);
#498=PLANE('',#588);
#499=PLANE('',#600);
#500=PLANE('',#601);
#501=PLANE('',#602);
#502=PLANE('',#603);
#503=PLANE('',#605);
#504=PLANE('',#606);
#505=PLANE('',#612);
#506=PLANE('',#614);
#507=PLANE('',#617);
#508=ADVANCED_FACE('',(#118,#112),#495,.F.);
#509=ADVANCED_FACE('',(#119),#110,.F.);
#510=ADVANCED_FACE('',(#120),#15,.F.);
#511=ADVANCED_FACE('',(#121),#16,.T.);
#512=ADVANCED_FACE('',(#122),#17,.T.);
#513=ADVANCED_FACE('',(#123),#18,.T.);
#514=ADVANCED_FACE('',(#124),#19,.F.);
#515=ADVANCED_FACE('',(#125,#113),#496,.F.);
#516=ADVANCED_FACE('',(#126),#20,.T.);
#517=ADVANCED_FACE('',(#127,#114),#497,.F.);
#518=ADVANCED_FACE('',(#128),#21,.T.);
#519=ADVANCED_FACE('',(#129,#115,#116),#498,.F.);
#520=ADVANCED_FACE('',(#130),#22,.T.);
#521=ADVANCED_FACE('',(#131),#23,.F.);
#522=ADVANCED_FACE('',(#132),#111,.F.);
#523=ADVANCED_FACE('',(#133),#24,.T.);
#524=ADVANCED_FACE('',(#134),#499,.T.);
#525=ADVANCED_FACE('',(#135),#500,.T.);
#526=ADVANCED_FACE('',(#136),#501,.T.);
#527=ADVANCED_FACE('',(#137),#502,.F.);
#528=ADVANCED_FACE('',(#138),#25,.T.);
#529=ADVANCED_FACE('',(#139),#503,.F.);
#530=ADVANCED_FACE('',(#140),#504,.F.);
#531=ADVANCED_FACE('',(#141),#26,.T.);
#532=ADVANCED_FACE('',(#142),#27,.F.);
#533=ADVANCED_FACE('',(#143),#28,.T.);
#534=ADVANCED_FACE('',(#144,#117),#505,.F.);
#535=ADVANCED_FACE('',(#145),#29,.T.);
#536=ADVANCED_FACE('',(#146),#506,.F.);
#537=ADVANCED_FACE('',(#147),#30,.F.);
#538=ADVANCED_FACE('',(#148),#507,.F.);
#539=CLOSED_SHELL('',(#508,#509,#510,#511,#512,#513,#514,#515,#516,#517,
#518,#519,#520,#521,#522,#523,#524,#525,#526,#527,#528,#529,#530,#531,#532,
#533,#534,#535,#536,#537,#538));
#540=DERIVED_UNIT_ELEMENT(#542,1.);
#541=DERIVED_UNIT_ELEMENT(#961,-3.);
#542=(
MASS_UNIT()
NAMED_UNIT(*)
SI_UNIT(.KILO.,.GRAM.)
);
#543=DERIVED_UNIT((#540,#541));
#544=MEASURE_REPRESENTATION_ITEM('density measure',
POSITIVE_RATIO_MEASURE(7850.),#543);
#545=PROPERTY_DEFINITION_REPRESENTATION(#550,#547);
#546=PROPERTY_DEFINITION_REPRESENTATION(#551,#548);
#547=REPRESENTATION('material name',(#549),#958);
#548=REPRESENTATION('density',(#544),#958);
#549=DESCRIPTIVE_REPRESENTATION_ITEM('Steel','Steel');
#550=PROPERTY_DEFINITION('material property','material name',#968);
#551=PROPERTY_DEFINITION('material property','density of part',#968);
#552=AXIS2_PLACEMENT_3D('',#788,#618,#619);
#553=AXIS2_PLACEMENT_3D('',#789,#620,#621);
#554=AXIS2_PLACEMENT_3D('',#791,#622,#623);
#555=AXIS2_PLACEMENT_3D('',#794,#624,#625);
#556=AXIS2_PLACEMENT_3D('',#796,#626,#627);
#557=AXIS2_PLACEMENT_3D('',#797,#628,#629);
#558=AXIS2_PLACEMENT_3D('',#798,#630,#631);
#559=AXIS2_PLACEMENT_3D('',#801,#632,#633);
#560=AXIS2_PLACEMENT_3D('',#809,#635,#636);
#561=AXIS2_PLACEMENT_3D('',#810,#637,#638);
#562=AXIS2_PLACEMENT_3D('',#814,#640,#641);
#563=AXIS2_PLACEMENT_3D('',#820,#644,#645);
#564=AXIS2_PLACEMENT_3D('',#825,#648,#649);
#565=AXIS2_PLACEMENT_3D('',#826,#650,#651);
#566=AXIS2_PLACEMENT_3D('',#827,#652,#653);
#567=AXIS2_PLACEMENT_3D('',#829,#654,#655);
#568=AXIS2_PLACEMENT_3D('',#834,#656,#657);
#569=AXIS2_PLACEMENT_3D('',#840,#658,#659);
#570=AXIS2_PLACEMENT_3D('',#841,#660,#661);
#571=AXIS2_PLACEMENT_3D('',#843,#662,#663);
#572=AXIS2_PLACEMENT_3D('',#846,#665,#666);
#573=AXIS2_PLACEMENT_3D('',#847,#667,#668);
#574=AXIS2_PLACEMENT_3D('',#849,#669,#670);
#575=AXIS2_PLACEMENT_3D('',#850,#671,#672);
#576=AXIS2_PLACEMENT_3D('',#855,#674,#675);
#577=AXIS2_PLACEMENT_3D('',#858,#677,#678);
#578=AXIS2_PLACEMENT_3D('',#859,#679,#680);
#579=AXIS2_PLACEMENT_3D('',#861,#681,#682);
#580=AXIS2_PLACEMENT_3D('',#863,#683,#684);
#581=AXIS2_PLACEMENT_3D('',#873,#689,#690);
#582=AXIS2_PLACEMENT_3D('',#879,#693,#694);
#583=AXIS2_PLACEMENT_3D('',#881,#695,#696);
#584=AXIS2_PLACEMENT_3D('',#882,#697,#698);
#585=AXIS2_PLACEMENT_3D('',#883,#699,#700);
#586=AXIS2_PLACEMENT_3D('',#884,#701,#702);
#587=AXIS2_PLACEMENT_3D('',#886,#703,#704);
#588=AXIS2_PLACEMENT_3D('',#888,#706,#707);
#589=AXIS2_PLACEMENT_3D('',#890,#708,#709);
#590=AXIS2_PLACEMENT_3D('',#892,#710,#711);
#591=AXIS2_PLACEMENT_3D('',#894,#712,#713);
#592=AXIS2_PLACEMENT_3D('',#900,#716,#717);
#593=AXIS2_PLACEMENT_3D('',#909,#722,#723);
#594=AXIS2_PLACEMENT_3D('',#912,#724,#725);
#595=AXIS2_PLACEMENT_3D('',#914,#727,#728);
#596=AXIS2_PLACEMENT_3D('',#916,#730,#731);
#597=AXIS2_PLACEMENT_3D('',#917,#732,#733);
#598=AXIS2_PLACEMENT_3D('',#918,#734,#735);
#599=AXIS2_PLACEMENT_3D('',#919,#736,#737);
#600=AXIS2_PLACEMENT_3D('',#921,#739,#740);
#601=AXIS2_PLACEMENT_3D('',#924,#743,#744);
#602=AXIS2_PLACEMENT_3D('',#927,#747,#748);
#603=AXIS2_PLACEMENT_3D('',#929,#750,#751);
#604=AXIS2_PLACEMENT_3D('',#930,#752,#753);
#605=AXIS2_PLACEMENT_3D('',#931,#754,#755);
#606=AXIS2_PLACEMENT_3D('',#934,#758,#759);
#607=AXIS2_PLACEMENT_3D('',#936,#761,#762);
#608=AXIS2_PLACEMENT_3D('',#937,#763,#764);
#609=AXIS2_PLACEMENT_3D('',#940,#766,#767);
#610=AXIS2_PLACEMENT_3D('',#941,#768,#769);
#611=AXIS2_PLACEMENT_3D('',#945,#771,#772);
#612=AXIS2_PLACEMENT_3D('',#947,#774,#775);
#613=AXIS2_PLACEMENT_3D('',#949,#777,#778);
#614=AXIS2_PLACEMENT_3D('',#950,#779,#780);
#615=AXIS2_PLACEMENT_3D('',#951,#781,#782);
#616=AXIS2_PLACEMENT_3D('',#953,#783,#784);
#617=AXIS2_PLACEMENT_3D('',#955,#786,#787);
#618=DIRECTION('axis',(0.,0.,1.));
#619=DIRECTION('refdir',(1.,0.,0.));
#620=DIRECTION('center_axis',(-1.,-1.23457229175821E-18,1.27993222710746E-18));
#621=DIRECTION('ref_axis',(9.5750389596375E-19,0.232704790732729,0.97254741805736));
#622=DIRECTION('center_axis',(-1.,-1.23457229175821E-18,1.27993222710746E-18));
#623=DIRECTION('ref_axis',(-9.5750389596375E-19,-0.232704790732729,-0.97254741805736));
#624=DIRECTION('center_axis',(-1.,-1.23457229175821E-18,1.27993222710746E-18));
#625=DIRECTION('ref_axis',(1.14638687165907E-34,0.,-1.));
#626=DIRECTION('center_axis',(1.,1.23457229175821E-18,-1.27993222710746E-18));
#627=DIRECTION('ref_axis',(-1.09658312957033E-14,-0.996017758804748,-0.0891550567582454));
#628=DIRECTION('center_axis',(1.,1.23457229175821E-18,-1.27993222710746E-18));
#629=DIRECTION('ref_axis',(-1.09658312957033E-14,-0.996017758804748,-0.0891550567582454));
#630=DIRECTION('center_axis',(1.,-1.11753919627002E-14,1.85135388559625E-15));
#631=DIRECTION('ref_axis',(-1.09658312957033E-14,-0.996017758804748,-0.0891550567582454));
#632=DIRECTION('center_axis',(-1.,1.11753919627002E-14,-1.85135388559625E-15));
#633=DIRECTION('ref_axis',(1.09658312957033E-14,0.996017758804748,0.0891550567582455));
#634=DIRECTION('',(0.500000000000017,0.862576681745344,0.0772105440284847));
#635=DIRECTION('center_axis',(-1.,1.11753919627002E-14,-1.85135388559625E-15));
#636=DIRECTION('ref_axis',(1.09658312957033E-14,0.996017758804748,0.0891550567582455));
#637=DIRECTION('center_axis',(1.,1.23457229175821E-18,-1.27993222710746E-18));
#638=DIRECTION('ref_axis',(-9.5750389596375E-19,-0.232704790732729,-0.97254741805736));
#639=DIRECTION('',(1.,1.23457229175821E-18,-1.27993222710746E-18));
#640=DIRECTION('center_axis',(1.,-1.11753919627002E-14,1.85135388559625E-15));
#641=DIRECTION('ref_axis',(1.09658312957033E-14,0.996017758804748,0.0891550567582454));
#642=DIRECTION('',(-1.,-4.81482486096809E-35,-1.92592994438724E-34));
#643=DIRECTION('',(-1.,-1.23457229175821E-18,1.27993222710746E-18));
#644=DIRECTION('center_axis',(-1.,1.11753919627002E-14,-1.85135388559625E-15));
#645=DIRECTION('ref_axis',(-9.5750389596375E-19,-0.232704790732729,-0.97254741805736));
#646=DIRECTION('',(1.,1.23457229175821E-18,-1.27993222710746E-18));
#647=DIRECTION('',(1.,4.81482486096809E-35,1.92592994438724E-34));
#648=DIRECTION('center_axis',(1.,-1.11753919627002E-14,1.85135388559625E-15));
#649=DIRECTION('ref_axis',(1.09658312957033E-14,0.996017758804748,0.0891550567582454));
#650=DIRECTION('center_axis',(1.,4.81482486096809E-35,1.92592994438724E-34));
#651=DIRECTION('ref_axis',(1.14638687165907E-34,0.,-1.));
#652=DIRECTION('center_axis',(1.,4.81482486096809E-35,1.92592994438724E-34));
#653=DIRECTION('ref_axis',(1.14638687165907E-34,0.,-1.));
#654=DIRECTION('center_axis',(1.,4.81482486096809E-35,1.92592994438724E-34));
#655=DIRECTION('ref_axis',(1.14638687165907E-34,0.,-1.));
#656=DIRECTION('center_axis',(1.,4.81482486096809E-35,1.92592994438724E-34));
#657=DIRECTION('ref_axis',(1.14638687165907E-34,0.,-1.));
#658=DIRECTION('center_axis',(1.,4.81482486096809E-35,1.92592994438724E-34));
#659=DIRECTION('ref_axis',(1.14638687165907E-34,0.,-1.));
#660=DIRECTION('center_axis',(-1.,-4.81482486096809E-35,-1.92592994438724E-34));
#661=DIRECTION('ref_axis',(0.,0.,1.));
#662=DIRECTION('center_axis',(1.,4.81482486096809E-35,1.92592994438724E-34));
#663=DIRECTION('ref_axis',(0.,0.,1.));
#664=DIRECTION('',(-1.,-4.81482486096809E-35,-1.92592994438724E-34));
#665=DIRECTION('center_axis',(1.,-1.11753919627002E-14,1.85135388559625E-15));
#666=DIRECTION('ref_axis',(0.,0.,1.));
#667=DIRECTION('center_axis',(1.,4.81482486096809E-35,1.92592994438724E-34));
#668=DIRECTION('ref_axis',(1.92592994438724E-34,0.,-1.));
#669=DIRECTION('center_axis',(-1.,-4.81482486096809E-35,-1.92592994438724E-34));
#670=DIRECTION('ref_axis',(-1.92592994438724E-34,0.,1.));
#671=DIRECTION('center_axis',(1.,4.81482486096809E-35,1.92592994438724E-34));
#672=DIRECTION('ref_axis',(-2.94196309613395E-35,-0.999997986072167,-0.00200695082404576));
#673=DIRECTION('',(1.,4.81482486096809E-35,1.92592994438724E-34));
#674=DIRECTION('center_axis',(-1.,-4.81482486096809E-35,-1.92592994438724E-34));
#675=DIRECTION('ref_axis',(1.14638687165907E-34,0.,-1.));
#676=DIRECTION('',(-1.,-4.81482486096809E-35,-1.92592994438724E-34));
#677=DIRECTION('center_axis',(1.,4.81482486096809E-35,1.92592994438724E-34));
#678=DIRECTION('ref_axis',(1.14638687165907E-34,0.,-1.));
#679=DIRECTION('center_axis',(-1.,1.11753919627002E-14,-1.85135388559625E-15));
#680=DIRECTION('ref_axis',(1.09658312957033E-14,0.996017758804748,0.0891550567582454));
#681=DIRECTION('center_axis',(1.,4.81482486096809E-35,1.92592994438724E-34));
#682=DIRECTION('ref_axis',(1.14638687165907E-34,0.,-1.));
#683=DIRECTION('center_axis',(1.,-1.11753919627002E-14,1.85135388559625E-15));
#684=DIRECTION('ref_axis',(1.09658312957033E-14,0.996017758804748,0.0891550567582455));
#685=DIRECTION('',(2.02629726615799E-16,-0.783082004089571,0.621918463201617));
#686=DIRECTION('',(-2.3448859110055E-19,-0.621918463201629,-0.783082004089561));
#687=DIRECTION('',(2.026297266158E-16,-0.783082004089571,0.621918463201617));
#688=DIRECTION('',(-2.3448859110055E-19,-0.621918463201629,-0.783082004089561));
#689=DIRECTION('center_axis',(1.,-1.11753919627002E-14,1.85135388559625E-15));
#690=DIRECTION('ref_axis',(-1.49683368830058E-18,0.972956732775523,-0.230987437205531));
#691=DIRECTION('',(9.91612272042197E-15,0.942624982146126,0.333853475396041));
#692=DIRECTION('',(9.85704969616894E-15,0.939004250015835,0.343905537106048));
#693=DIRECTION('center_axis',(-1.,1.11753919627002E-14,-1.85135388559625E-15));
#694=DIRECTION('ref_axis',(1.09658312957033E-14,0.996017758804749,0.0891550567582441));
#695=DIRECTION('center_axis',(1.,-1.11753919627002E-14,1.85135388559625E-15));
#696=DIRECTION('ref_axis',(1.09658312957033E-14,0.996017758804748,0.0891550567582455));
#697=DIRECTION('center_axis',(1.,4.81482486096809E-35,1.92592994438724E-34));
#698=DIRECTION('ref_axis',(1.14638687165907E-34,0.,-1.));
#699=DIRECTION('center_axis',(1.,-1.11753919627002E-14,1.85135388559625E-15));
#700=DIRECTION('ref_axis',(1.09658312957033E-14,0.996017758804748,0.0891550567582454));
#701=DIRECTION('center_axis',(1.,4.81482486096809E-35,1.92592994438724E-34));
#702=DIRECTION('ref_axis',(1.14638687165907E-34,0.,-1.));
#703=DIRECTION('center_axis',(-1.,-4.81482486096809E-35,-1.92592994438724E-34));
#704=DIRECTION('ref_axis',(1.14638687165907E-34,0.,-1.));
#705=DIRECTION('',(-1.,-4.81482486096809E-35,-1.92592994438724E-34));
#706=DIRECTION('center_axis',(1.,-1.11753919627002E-14,1.85135388559625E-15));
#707=DIRECTION('ref_axis',(-1.09658312957033E-14,-0.996017758804748,-0.0891550567582454));
#708=DIRECTION('center_axis',(-1.,-4.81482486096809E-35,-1.92592994438724E-34));
#709=DIRECTION('ref_axis',(1.14638687165907E-34,0.,-1.));
#710=DIRECTION('center_axis',(1.,-1.11753919627002E-14,1.85135388559625E-15));
#711=DIRECTION('ref_axis',(1.09658312957033E-14,0.996017758804748,0.0891550567582454));
#712=DIRECTION('center_axis',(1.,-1.11753919627002E-14,1.85135388559625E-15));
#713=DIRECTION('ref_axis',(-1.09658312957033E-14,-0.996017758804749,-0.0891550567582455));
#714=DIRECTION('',(9.85704969616894E-15,0.939004250015835,0.343905537106048));
#715=DIRECTION('',(-9.91612272042197E-15,-0.942624982146126,-0.333853475396041));
#716=DIRECTION('center_axis',(-1.,1.11753919627002E-14,-1.85135388559625E-15));
#717=DIRECTION('ref_axis',(-1.49683368830058E-18,0.972956732775523,-0.230987437205531));
#718=DIRECTION('',(-2.3448859110055E-19,-0.621918463201629,-0.783082004089561));
#719=DIRECTION('',(-2.026297266158E-16,0.783082004089571,-0.621918463201617));
#720=DIRECTION('',(-2.3448859110055E-19,-0.621918463201629,-0.783082004089561));
#721=DIRECTION('',(-2.02629726615799E-16,0.783082004089571,-0.621918463201617));
#722=DIRECTION('center_axis',(1.,-1.11753919627002E-14,1.85135388559625E-15));
#723=DIRECTION('ref_axis',(1.09658312957033E-14,0.996017758804748,0.0891550567582454));
#724=DIRECTION('center_axis',(1.,-1.11753919627002E-14,1.85135388559625E-15));
#725=DIRECTION('ref_axis',(1.09658312957033E-14,0.996017758804748,0.0891550567582455));
#726=DIRECTION('',(1.09658312957033E-14,0.996017758804749,0.0891550567582454));
#727=DIRECTION('center_axis',(1.,4.81482486096809E-35,1.92592994438724E-34));
#728=DIRECTION('ref_axis',(-2.59561285673614E-34,-0.169968565046939,0.985449484700197));
#729=DIRECTION('',(1.,4.81482486096809E-35,1.92592994438724E-34));
#730=DIRECTION('center_axis',(-1.,1.11753919627002E-14,-1.85135388559625E-15));
#731=DIRECTION('ref_axis',(1.09658312957033E-14,0.996017758804748,0.0891550567582454));
#732=DIRECTION('center_axis',(-1.,1.11753919627002E-14,-1.85135388559625E-15));
#733=DIRECTION('ref_axis',(1.09658312957033E-14,0.996017758804748,0.0891550567582454));
#734=DIRECTION('center_axis',(1.,-1.11753919627002E-14,1.85135388559625E-15));
#735=DIRECTION('ref_axis',(1.1171653549398E-14,0.999997985717988,0.00200712729215279));
#736=DIRECTION('center_axis',(-1.,1.11753919627002E-14,-1.85135388559625E-15));
#737=DIRECTION('ref_axis',(1.09658312957033E-14,0.996017758804748,0.0891550567582455));
#738=DIRECTION('',(1.,-1.11753919627002E-14,1.85135388559625E-15));
#739=DIRECTION('center_axis',(2.02629726615798E-16,-0.783082004089561,0.621918463201629));
#740=DIRECTION('ref_axis',(-1.,-2.16782345799742E-16,5.2854794897837E-17));
#741=DIRECTION('',(-1.,1.11753919627002E-14,-1.85135388559625E-15));
#742=DIRECTION('',(-1.,-2.16782345799742E-16,5.2854794897837E-17));
#743=DIRECTION('center_axis',(-2.02629726615798E-16,0.783082004089561,-0.621918463201629));
#744=DIRECTION('ref_axis',(1.,2.16782345799742E-16,-5.2854794897837E-17));
#745=DIRECTION('',(1.,2.16782345799742E-16,-5.2854794897837E-17));
#746=DIRECTION('',(1.,2.16782345799742E-16,-5.2854794897837E-17));
#747=DIRECTION('center_axis',(-2.3448859110055E-19,-0.621918463201629,-0.783082004089561));
#748=DIRECTION('ref_axis',(-1.,-1.23457229175821E-18,1.27993222710746E-18));
#749=DIRECTION('',(1.,-1.11753919627002E-14,1.85135388559625E-15));
#750=DIRECTION('center_axis',(9.34313046346753E-17,-0.621918463201617,-0.783082004089571));
#751=DIRECTION('ref_axis',(1.,2.16782345799742E-16,-5.2854794897837E-17));
#752=DIRECTION('center_axis',(-1.,1.11753919627002E-14,-1.85135388559625E-15));
#753=DIRECTION('ref_axis',(1.09658312957033E-14,0.996017758804748,0.0891550567582455));
#754=DIRECTION('center_axis',(1.61866234295656E-18,-0.333853475396041,0.942624982146126));
#755=DIRECTION('ref_axis',(1.24848173253691E-14,0.942624982146126,0.333853475396041));
#756=DIRECTION('',(-1.,-1.23457229175821E-18,1.27993222710746E-18));
#757=DIRECTION('',(-1.,4.92598211036866E-13,1.7446730832069E-13));
#758=DIRECTION('center_axis',(-5.58170834216124E-15,-0.343905537106049,
0.939004250015835));
#759=DIRECTION('ref_axis',(-9.85704969616895E-15,-0.939004250015835,-0.343905537106049));
#760=DIRECTION('',(-1.,1.11753919627002E-14,-1.85135388559625E-15));
#761=DIRECTION('center_axis',(-1.,1.11753919627002E-14,-1.85135388559625E-15));
#762=DIRECTION('ref_axis',(1.09658312957033E-14,0.996017758804749,0.0891550567582455));
#763=DIRECTION('center_axis',(-1.,1.11753919627002E-14,-1.85135388559625E-15));
#764=DIRECTION('ref_axis',(1.09658312957033E-14,0.996017758804748,0.0891550567582455));
#765=DIRECTION('',(-1.,1.11753919627002E-14,-1.85135388559625E-15));
#766=DIRECTION('center_axis',(1.,-1.11753919627002E-14,1.85135388559625E-15));
#767=DIRECTION('ref_axis',(1.09658312957033E-14,0.996017758804748,0.0891550567582455));
#768=DIRECTION('center_axis',(-1.,1.11753919627002E-14,-1.85135388559625E-15));
#769=DIRECTION('ref_axis',(2.84032405261624E-15,0.0891550567582475,-0.996017758804748));
#770=DIRECTION('',(-1.,1.11753919627002E-14,-1.85135388559625E-15));
#771=DIRECTION('center_axis',(1.,-1.11753919627002E-14,1.85135388559625E-15));
#772=DIRECTION('ref_axis',(1.09658312957033E-14,0.996017758804748,0.0891550567582455));
#773=DIRECTION('',(-1.,1.11753919627002E-14,-1.85135388559625E-15));
#774=DIRECTION('center_axis',(1.,-1.11753919627002E-14,1.85135388559625E-15));
#775=DIRECTION('ref_axis',(-1.09658312957033E-14,-0.996017758804748,-0.0891550567582454));
#776=DIRECTION('',(1.09658312957033E-14,0.996017758804748,0.0891550567582454));
#777=DIRECTION('center_axis',(1.,-1.11753919627002E-14,1.85135388559625E-15));
#778=DIRECTION('ref_axis',(1.13276358049189E-14,0.987118493378085,-0.159990874836599));
#779=DIRECTION('center_axis',(2.84032405261622E-15,0.0891550567582454,-0.996017758804749));
#780=DIRECTION('ref_axis',(1.09658312957033E-14,0.996017758804748,0.0891550567582454));
#781=DIRECTION('center_axis',(-1.,-4.81482486096809E-35,-1.92592994438724E-34));
#782=DIRECTION('ref_axis',(-1.92592994438724E-34,0.,1.));
#783=DIRECTION('center_axis',(1.,4.81482486096809E-35,1.92592994438724E-34));
#784=DIRECTION('ref_axis',(-1.92592994438724E-34,0.,1.));
#785=DIRECTION('',(-1.,-4.81482486096809E-35,-1.92592994438724E-34));
#786=DIRECTION('center_axis',(1.,4.81482486096809E-35,1.92592994438724E-34));
#787=DIRECTION('ref_axis',(1.92592994438724E-34,0.,-1.));
#788=CARTESIAN_POINT('',(0.,0.,0.));
#789=CARTESIAN_POINT('Origin',(-291.799,195.537685258117,-65.2065368610874));
#790=CARTESIAN_POINT('',(-291.799,196.212529151242,-62.386149348721));
#791=CARTESIAN_POINT('Origin',(-291.799,195.537685258117,-65.2065368610874));
#792=CARTESIAN_POINT('',(-291.798999999734,193.702037338219,-64.672440071585));
#793=CARTESIAN_POINT('',(-291.798999999734,193.704196125364,-65.7479985600823));
#794=CARTESIAN_POINT('Origin',(-291.799,189.537696894529,-65.2185798605128));
#795=CARTESIAN_POINT('',(-291.798999999467,197.441840829272,-65.0360932100142));
#796=CARTESIAN_POINT('Origin',(-291.799,195.537684808837,-65.2065370967599));
#797=CARTESIAN_POINT('Origin',(-291.799,195.537684808837,-65.2065370967599));
#798=CARTESIAN_POINT('Origin',(-291.779,195.537684808837,-65.2065370967599));
#799=CARTESIAN_POINT('',(-291.979,193.944056394749,-65.3491851875731));
#800=CARTESIAN_POINT('',(-291.979,197.131313222924,-65.0638890059467));
#801=CARTESIAN_POINT('Origin',(-291.979,195.537684808837,-65.2065370967599));
#802=CARTESIAN_POINT('',(-291.779,197.476343895623,-65.0330047883353));
#803=CARTESIAN_POINT('Ctrl Pts',(-291.798999999467,193.702037338219,-64.6724400715849));
#804=CARTESIAN_POINT('Ctrl Pts',(-291.839807868135,193.724908469406,-64.8468334751216));
#805=CARTESIAN_POINT('Ctrl Pts',(-291.863529946162,193.737318408232,-65.0257941213965));
#806=CARTESIAN_POINT('Ctrl Pts',(-291.863529946162,193.738058460856,-65.3945057303751));
#807=CARTESIAN_POINT('Ctrl Pts',(-291.839807868135,193.726367014166,-65.5735147512959));
#808=CARTESIAN_POINT('Ctrl Pts',(-291.798999999467,193.704196125364,-65.7479985600823));
#809=CARTESIAN_POINT('Origin',(-291.979,195.537684808837,-65.2065370967599));
#810=CARTESIAN_POINT('Origin',(-288.679,195.537685258117,-65.2065368610874));
#811=CARTESIAN_POINT('',(-291.779,196.212529073576,-62.3861496733111));
#812=CARTESIAN_POINT('',(-288.679,196.212529151242,-62.386149348721));
#813=CARTESIAN_POINT('',(-291.779,193.303136884755,-63.3580794762065));
#814=CARTESIAN_POINT('Origin',(-291.779,195.537684808837,-65.2065370967599));
#815=CARTESIAN_POINT('',(-288.779,193.303136884755,-63.3580794762064));
#816=CARTESIAN_POINT('',(-292.629,193.303136884755,-63.3580794762065));
#817=CARTESIAN_POINT('',(-288.579,193.30313697986,-63.3580796686871));
#818=CARTESIAN_POINT('',(-288.679,193.30313697986,-63.358079668687));
#819=CARTESIAN_POINT('',(-288.579,193.31057529205,-67.0639493621345));
#820=CARTESIAN_POINT('Origin',(-288.579,195.537685258117,-65.2065368610874));
#821=CARTESIAN_POINT('',(-288.779,193.310575053307,-67.0639498502485));
#822=CARTESIAN_POINT('',(-288.679,193.31057529205,-67.0639493621345));
#823=CARTESIAN_POINT('',(-291.779,193.310575053307,-67.0639498502485));
#824=CARTESIAN_POINT('',(-292.629,193.310575053307,-67.0639498502485));
#825=CARTESIAN_POINT('Origin',(-291.779,195.537684808837,-65.2065370967599));
#826=CARTESIAN_POINT('Origin',(-292.629,189.537696894529,-65.2185798605128));
#827=CARTESIAN_POINT('Origin',(-292.629,189.537696894529,-65.2185798605128));
#828=CARTESIAN_POINT('',(-288.579,193.133794315211,-67.3883916820689));
#829=CARTESIAN_POINT('Origin',(-288.579,189.537696894529,-65.2185798605128));
#830=CARTESIAN_POINT('Ctrl Pts',(-288.779,193.310575053307,-67.0639498502485));
#831=CARTESIAN_POINT('Ctrl Pts',(-288.713889800163,193.256290189396,-67.1749358197512));
#832=CARTESIAN_POINT('Ctrl Pts',(-288.64689681026,193.197213512031,-67.283285051236));
#833=CARTESIAN_POINT('Ctrl Pts',(-288.579,193.133794315211,-67.3883916820689));
#834=CARTESIAN_POINT('Origin',(-292.629,189.537696894529,-65.2185798605128));
#835=CARTESIAN_POINT('',(-288.579,193.125055181516,-63.0343498999117));
#836=CARTESIAN_POINT('Ctrl Pts',(-288.579,193.125055181516,-63.0343498999117));
#837=CARTESIAN_POINT('Ctrl Pts',(-288.646897258273,193.188896212532,-63.1392017954534));
#838=CARTESIAN_POINT('Ctrl Pts',(-288.713884722722,193.248402665218,-63.2473036758809));
#839=CARTESIAN_POINT('Ctrl Pts',(-288.779,193.303136884755,-63.3580794762064));
#840=CARTESIAN_POINT('Origin',(-288.579,189.537696894529,-65.2185798605128));
#841=CARTESIAN_POINT('Origin',(-296.329,186.037703419585,-65.225604189448));
#842=CARTESIAN_POINT('',(-295.779,186.037703419585,-68.025604189448));
#843=CARTESIAN_POINT('Origin',(-295.779,186.037703419585,-65.225604189448));
#844=CARTESIAN_POINT('',(-296.679,186.037703419585,-68.025604189448));
#845=CARTESIAN_POINT('',(-296.329,186.037703419585,-68.025604189448));
#846=CARTESIAN_POINT('Origin',(-296.679,186.037703419585,-65.225604189448));
#847=CARTESIAN_POINT('Origin',(-295.779,186.037703419585,-65.225604189448));
#848=CARTESIAN_POINT('',(-295.779,186.037703419585,-67.725604189448));
#849=CARTESIAN_POINT('Origin',(-295.779,186.037703419585,-65.225604189448));
#850=CARTESIAN_POINT('Origin',(-292.629,186.037703419585,-65.225604189448));
#851=CARTESIAN_POINT('',(-296.679,187.780037520229,-61.4040505941502));
#852=CARTESIAN_POINT('',(-288.579,187.780037520229,-61.4040505941502));
#853=CARTESIAN_POINT('',(-292.629,187.780037520229,-61.4040505941502));
#854=CARTESIAN_POINT('',(-296.679,187.795362793885,-69.0401334558106));
#855=CARTESIAN_POINT('Origin',(-296.679,186.037703419585,-65.225604189448));
#856=CARTESIAN_POINT('',(-288.579,187.795362793885,-69.0401334558106));
#857=CARTESIAN_POINT('',(-292.629,187.795362793885,-69.0401334558106));
#858=CARTESIAN_POINT('Origin',(-288.579,186.037703419585,-65.225604189448));
#859=CARTESIAN_POINT('Origin',(-288.579,195.279135144238,-62.3180855962262));
#860=CARTESIAN_POINT('',(-288.579,189.932756916205,-69.3999585301951));
#861=CARTESIAN_POINT('Origin',(-288.579,189.537696894529,-65.2185798605128));
#862=CARTESIAN_POINT('',(-288.579,200.867298904607,-69.7447320672487));
#863=CARTESIAN_POINT('Origin',(-288.579,195.537684808837,-65.2065370967599));
#864=CARTESIAN_POINT('',(-288.579,200.870255868502,-69.7470804680956));
#865=CARTESIAN_POINT('',(-288.579,200.870255868502,-69.7470804680956));
#866=CARTESIAN_POINT('',(-288.579,201.056831407463,-69.5121558668687));
#867=CARTESIAN_POINT('',(-288.579,201.056831407463,-69.5121558668687));
#868=CARTESIAN_POINT('',(-288.579,199.020908890179,-67.8952398905928));
#869=CARTESIAN_POINT('',(-288.579,201.056831407463,-69.5121558668687));
#870=CARTESIAN_POINT('',(-288.579,199.008920320295,-67.9103351705791));
#871=CARTESIAN_POINT('',(-288.579,199.020908890179,-67.8952398905928));
#872=CARTESIAN_POINT('',(-288.579,199.68523473028,-63.7375818050173));
#873=CARTESIAN_POINT('Origin',(-288.579,195.537684808837,-65.2065370967599));
#874=CARTESIAN_POINT('',(-288.579,200.902403540035,-63.3064919814109));
#875=CARTESIAN_POINT('',(-288.579,197.951089529662,-64.3517713427798));
#876=CARTESIAN_POINT('',(-288.579,201.845914288428,-62.9609359621638));
#877=CARTESIAN_POINT('',(-288.579,202.83426271273,-62.5989583718583));
#878=CARTESIAN_POINT('',(-288.579,202.020581037078,-62.5660718926994));
#879=CARTESIAN_POINT('Origin',(-288.579,201.742742627296,-62.6792346871591));
#880=CARTESIAN_POINT('',(-288.579,189.915968648475,-61.0356490123913));
#881=CARTESIAN_POINT('Origin',(-288.579,195.537684808837,-65.2065370967599));
#882=CARTESIAN_POINT('Origin',(-288.579,189.537696894529,-65.2185798605128));
#883=CARTESIAN_POINT('Origin',(-288.579,195.537684808837,-65.2065370967599));
#884=CARTESIAN_POINT('Origin',(-292.629,189.537696894529,-65.2185798605128));
#885=CARTESIAN_POINT('',(-296.679,189.932756916205,-69.3999585301951));
#886=CARTESIAN_POINT('Origin',(-296.679,189.537696894529,-65.2185798605128));
#887=CARTESIAN_POINT('',(-292.629,189.932756916205,-69.3999585301951));
#888=CARTESIAN_POINT('Origin',(-296.679,194.913599411529,-58.2344127851267));
#889=CARTESIAN_POINT('',(-296.679,189.915968648475,-61.0356490123914));
#890=CARTESIAN_POINT('Origin',(-296.679,189.537696894529,-65.2185798605128));
#891=CARTESIAN_POINT('',(-296.679,202.020581037078,-62.5660718926994));
#892=CARTESIAN_POINT('Origin',(-296.679,195.537684808837,-65.2065370967599));
#893=CARTESIAN_POINT('',(-296.679,201.845914288428,-62.9609359621639));
#894=CARTESIAN_POINT('Origin',(-296.679,201.742742627296,-62.6792346871591));
#895=CARTESIAN_POINT('',(-296.679,200.902403540035,-63.3064919814109));
#896=CARTESIAN_POINT('',(-296.679,197.259821625397,-64.6405691059662));
#897=CARTESIAN_POINT('',(-296.679,199.68523473028,-63.7375818050173));
#898=CARTESIAN_POINT('',(-296.679,198.431255742222,-64.1817088451087));
#899=CARTESIAN_POINT('',(-296.679,199.008920320302,-67.9103351705712));
#900=CARTESIAN_POINT('Origin',(-296.679,195.537684808837,-65.2065370967599));
#901=CARTESIAN_POINT('',(-296.679,199.020908890179,-67.8952398905928));
#902=CARTESIAN_POINT('',(-296.679,199.020908890179,-67.8952398905928));
#903=CARTESIAN_POINT('',(-296.679,201.056831407463,-69.5121558668687));
#904=CARTESIAN_POINT('',(-296.679,199.020908890179,-67.8952398905928));
#905=CARTESIAN_POINT('',(-296.679,200.870255868502,-69.7470804680956));
#906=CARTESIAN_POINT('',(-296.679,201.056831407463,-69.5121558668687));
#907=CARTESIAN_POINT('',(-296.679,200.867298904607,-69.7447320672487));
#908=CARTESIAN_POINT('',(-296.679,198.834333351219,-68.1301644918197));
#909=CARTESIAN_POINT('Origin',(-296.679,195.537684808837,-65.2065370967599));
#910=CARTESIAN_POINT('',(-296.679,193.81517877943,-62.7503259945427));
#911=CARTESIAN_POINT('',(-296.679,196.796584543101,-62.4834558531925));
#912=CARTESIAN_POINT('Origin',(-296.679,195.537684808837,-65.2065370967599));
#913=CARTESIAN_POINT('',(-296.679,193.81517877943,-62.7503259945427));
#914=CARTESIAN_POINT('Origin',(-292.629,189.537696894529,-65.2185798605128));
#915=CARTESIAN_POINT('',(-292.629,189.915968648475,-61.0356490123913));
#916=CARTESIAN_POINT('Origin',(-305.679,195.537684808837,-65.2065370967599));
#917=CARTESIAN_POINT('Origin',(-288.779,195.537684808837,-65.2065370967599));
#918=CARTESIAN_POINT('Origin',(-288.579,195.537684808837,-65.2065370967599));
#919=CARTESIAN_POINT('Origin',(-305.679,195.537684808837,-65.2065370967599));
#920=CARTESIAN_POINT('',(-305.679,202.020581037078,-62.5660718926994));
#921=CARTESIAN_POINT('Origin',(-288.579,199.020908890179,-67.8952398905928));
#922=CARTESIAN_POINT('',(-305.679,199.008920320307,-67.9103351705643));
#923=CARTESIAN_POINT('',(-288.579,199.020908890179,-67.8952398905928));
#924=CARTESIAN_POINT('Origin',(-296.679,201.056831407463,-69.5121558668687));
#925=CARTESIAN_POINT('',(-296.679,200.870255868502,-69.7470804680956));
#926=CARTESIAN_POINT('',(-296.679,201.056831407463,-69.5121558668687));
#927=CARTESIAN_POINT('Origin',(-292.629,199.85229460986,-68.9386224799576));
#928=CARTESIAN_POINT('',(-305.679,200.867298904607,-69.7447320672488));
#929=CARTESIAN_POINT('Origin',(-292.629,200.038870148821,-68.7036978787308));
#930=CARTESIAN_POINT('Origin',(-305.679,195.537684808837,-65.2065370967599));
#931=CARTESIAN_POINT('Origin',(-288.579,199.68523473028,-63.7375818050173));
#932=CARTESIAN_POINT('',(-288.579,199.68523473028,-63.7375818050173));
#933=CARTESIAN_POINT('',(-297.129,200.902403540038,-63.3064919814099));
#934=CARTESIAN_POINT('Origin',(-305.679,202.83426271273,-62.5989583718584));
#935=CARTESIAN_POINT('',(-305.679,201.845914288428,-62.9609359621639));
#936=CARTESIAN_POINT('Origin',(-305.679,201.742742627297,-62.6792346871591));
#937=CARTESIAN_POINT('Origin',(-305.679,195.537684808837,-65.2065370967599));
#938=CARTESIAN_POINT('',(-300.479,193.944056394749,-65.3491851875731));
#939=CARTESIAN_POINT('',(-305.679,193.944056394749,-65.3491851875731));
#940=CARTESIAN_POINT('Origin',(-300.479,195.537684808837,-65.2065370967599));
#941=CARTESIAN_POINT('Origin',(-305.679,195.537684808837,-65.2065370967599));
#942=CARTESIAN_POINT('',(-300.479,193.81517877943,-62.7503259945427));
#943=CARTESIAN_POINT('',(-293.659066225892,193.81517877943,-62.7503259945427));
#944=CARTESIAN_POINT('',(-300.479,196.796584543101,-62.4834558531925));
#945=CARTESIAN_POINT('Origin',(-300.479,195.537684808837,-65.2065370967599));
#946=CARTESIAN_POINT('',(-293.659066225892,196.796584543101,-62.4834558531925));
#947=CARTESIAN_POINT('Origin',(-300.479,195.395036718024,-63.6129086826724));
#948=CARTESIAN_POINT('',(-300.479,193.81517877943,-62.7503259945427));
#949=CARTESIAN_POINT('Origin',(-305.679,195.537684808837,-65.2065370967599));
#950=CARTESIAN_POINT('Origin',(-293.659066225892,193.81517877943,-62.7503259945427));
#951=CARTESIAN_POINT('Origin',(-293.229,186.037703419585,-65.225604189448));
#952=CARTESIAN_POINT('',(-290.679,186.037703419585,-67.725604189448));
#953=CARTESIAN_POINT('Origin',(-290.679,186.037703419585,-65.225604189448));
#954=CARTESIAN_POINT('',(-293.229,186.037703419585,-67.725604189448));
#955=CARTESIAN_POINT('Origin',(-290.679,186.037703419585,-65.225604189448));
#956=UNCERTAINTY_MEASURE_WITH_UNIT(LENGTH_MEASURE(0.01),#960,
'DISTANCE_ACCURACY_VALUE',
'Maximum model space distance between geometric entities at asserted c
onnectivities');
#957=UNCERTAINTY_MEASURE_WITH_UNIT(LENGTH_MEASURE(0.01),#960,
'DISTANCE_ACCURACY_VALUE',
'Maximum model space distance between geometric entities at asserted c
onnectivities');
#958=(
GEOMETRIC_REPRESENTATION_CONTEXT(3)
GLOBAL_UNCERTAINTY_ASSIGNED_CONTEXT((#956))
GLOBAL_UNIT_ASSIGNED_CONTEXT((#960,#962,#963))
REPRESENTATION_CONTEXT('','3D')
);
#959=(
GEOMETRIC_REPRESENTATION_CONTEXT(3)
GLOBAL_UNCERTAINTY_ASSIGNED_CONTEXT((#957))
GLOBAL_UNIT_ASSIGNED_CONTEXT((#960,#962,#963))
REPRESENTATION_CONTEXT('','3D')
);
#960=(
LENGTH_UNIT()
NAMED_UNIT(*)
SI_UNIT(.MILLI.,.METRE.)
);
#961=(
LENGTH_UNIT()
NAMED_UNIT(*)
SI_UNIT($,.METRE.)
);
#962=(
NAMED_UNIT(*)
PLANE_ANGLE_UNIT()
SI_UNIT($,.RADIAN.)
);
#963=(
NAMED_UNIT(*)
SI_UNIT($,.STERADIAN.)
SOLID_ANGLE_UNIT()
);
#964=SHAPE_DEFINITION_REPRESENTATION(#965,#966);
#965=PRODUCT_DEFINITION_SHAPE('',$,#968);
#966=SHAPE_REPRESENTATION('',(#552),#958);
#967=PRODUCT_DEFINITION_CONTEXT('part definition',#972,'design');
#968=PRODUCT_DEFINITION('(Unsaved)','(Unsaved)',#969,#967);
#969=PRODUCT_DEFINITION_FORMATION('',$,#974);
#970=PRODUCT_RELATED_PRODUCT_CATEGORY('(Unsaved)','(Unsaved)',(#974));
#971=APPLICATION_PROTOCOL_DEFINITION('international standard',
'automotive_design',2009,#972);
#972=APPLICATION_CONTEXT(
'Core Data for Automotive Mechanical Design Process');
#973=PRODUCT_CONTEXT('part definition',#972,'mechanical');
#974=PRODUCT('(Unsaved)','(Unsaved)',$,(#973));
#975=PRESENTATION_STYLE_ASSIGNMENT((#976));
#976=SURFACE_STYLE_USAGE(.BOTH.,#977);
#977=SURFACE_SIDE_STYLE('',(#978));
#978=SURFACE_STYLE_FILL_AREA(#979);
#979=FILL_AREA_STYLE('Steel - Satin',(#980));
#980=FILL_AREA_STYLE_COLOUR('Steel - Satin',#981);
#981=COLOUR_RGB('Steel - Satin',0.627450980392157,0.627450980392157,0.627450980392157);
ENDSEC;
END-ISO-10303-21;
