ISO-10303-21;
HEADER;
/* Generated by software containing ST-Developer
 * from STEP Tools, Inc. (www.steptools.com) 
 */

FILE_DESCRIPTION(
/* description */ (''),
/* implementation_level */ '2;1');

FILE_NAME(
/* name */ 'openflight-kickstand.step',
/* time_stamp */ '2026-09-11T16:57:56-07:00',
/* author */ (''),
/* organization */ (''),
/* preprocessor_version */ 'ST-DEVELOPER v20.2',
/* originating_system */ 'Autodesk Translation Framework v15.15.0.0',
/* authorisation */ '');

FILE_SCHEMA (('AUTOMOTIVE_DESIGN { 1 0 10303 214 3 1 1 }'));
ENDSEC;

DATA;
#10=MECHANICAL_DESIGN_GEOMETRIC_PRESENTATION_REPRESENTATION('',(#13),#1377);
#11=SHAPE_REPRESENTATION_RELATIONSHIP('SRR','None',#1384,#12);
#12=ADVANCED_BREP_SHAPE_REPRESENTATION('',(#14),#1376);
#13=STYLED_ITEM('',(#1393),#14);
#14=MANIFOLD_SOLID_BREP('openflight-kickstand',#773);
#15=TOROIDAL_SURFACE('',#828,8.5,1.5);
#16=TOROIDAL_SURFACE('',#867,10.5,1.5);
#17=TOROIDAL_SURFACE('',#874,10.5,1.5);
#18=TOROIDAL_SURFACE('',#876,8.5,1.5);
#19=TOROIDAL_SURFACE('',#881,10.5,1.5);
#20=TOROIDAL_SURFACE('',#887,10.5,1.5);
#21=FACE_BOUND('',#107,.T.);
#22=FACE_BOUND('',#110,.T.);
#23=FACE_BOUND('',#115,.T.);
#24=FACE_BOUND('',#121,.T.);
#25=FACE_BOUND('',#132,.T.);
#26=FACE_BOUND('',#138,.T.);
#27=PLANE('',#793);
#28=PLANE('',#795);
#29=PLANE('',#806);
#30=PLANE('',#807);
#31=PLANE('',#810);
#32=PLANE('',#811);
#33=PLANE('',#812);
#34=PLANE('',#814);
#35=PLANE('',#819);
#36=PLANE('',#823);
#37=PLANE('',#827);
#38=PLANE('',#836);
#39=PLANE('',#845);
#40=PLANE('',#846);
#41=PLANE('',#850);
#42=PLANE('',#854);
#43=PLANE('',#855);
#44=PLANE('',#859);
#45=PLANE('',#860);
#46=PLANE('',#863);
#47=PLANE('',#866);
#48=PLANE('',#888);
#49=FACE_OUTER_BOUND('',#97,.T.);
#50=FACE_OUTER_BOUND('',#98,.T.);
#51=FACE_OUTER_BOUND('',#99,.T.);
#52=FACE_OUTER_BOUND('',#100,.T.);
#53=FACE_OUTER_BOUND('',#101,.T.);
#54=FACE_OUTER_BOUND('',#102,.T.);
#55=FACE_OUTER_BOUND('',#103,.T.);
#56=FACE_OUTER_BOUND('',#104,.T.);
#57=FACE_OUTER_BOUND('',#105,.T.);
#58=FACE_OUTER_BOUND('',#106,.T.);
#59=FACE_OUTER_BOUND('',#108,.T.);
#60=FACE_OUTER_BOUND('',#109,.T.);
#61=FACE_OUTER_BOUND('',#111,.T.);
#62=FACE_OUTER_BOUND('',#112,.T.);
#63=FACE_OUTER_BOUND('',#113,.T.);
#64=FACE_OUTER_BOUND('',#114,.T.);
#65=FACE_OUTER_BOUND('',#116,.T.);
#66=FACE_OUTER_BOUND('',#117,.T.);
#67=FACE_OUTER_BOUND('',#118,.T.);
#68=FACE_OUTER_BOUND('',#119,.T.);
#69=FACE_OUTER_BOUND('',#120,.T.);
#70=FACE_OUTER_BOUND('',#122,.T.);
#71=FACE_OUTER_BOUND('',#123,.T.);
#72=FACE_OUTER_BOUND('',#124,.T.);
#73=FACE_OUTER_BOUND('',#125,.T.);
#74=FACE_OUTER_BOUND('',#126,.T.);
#75=FACE_OUTER_BOUND('',#127,.T.);
#76=FACE_OUTER_BOUND('',#128,.T.);
#77=FACE_OUTER_BOUND('',#129,.T.);
#78=FACE_OUTER_BOUND('',#130,.T.);
#79=FACE_OUTER_BOUND('',#131,.T.);
#80=FACE_OUTER_BOUND('',#133,.T.);
#81=FACE_OUTER_BOUND('',#134,.T.);
#82=FACE_OUTER_BOUND('',#135,.T.);
#83=FACE_OUTER_BOUND('',#136,.T.);
#84=FACE_OUTER_BOUND('',#137,.T.);
#85=FACE_OUTER_BOUND('',#139,.T.);
#86=FACE_OUTER_BOUND('',#140,.T.);
#87=FACE_OUTER_BOUND('',#141,.T.);
#88=FACE_OUTER_BOUND('',#142,.T.);
#89=FACE_OUTER_BOUND('',#143,.T.);
#90=FACE_OUTER_BOUND('',#144,.T.);
#91=FACE_OUTER_BOUND('',#145,.T.);
#92=FACE_OUTER_BOUND('',#146,.T.);
#93=FACE_OUTER_BOUND('',#147,.T.);
#94=FACE_OUTER_BOUND('',#148,.T.);
#95=FACE_OUTER_BOUND('',#149,.T.);
#96=FACE_OUTER_BOUND('',#150,.T.);
#97=EDGE_LOOP('',(#489,#490,#491,#492));
#98=EDGE_LOOP('',(#493,#494,#495,#496));
#99=EDGE_LOOP('',(#497));
#100=EDGE_LOOP('',(#498));
#101=EDGE_LOOP('',(#499,#500,#501,#502));
#102=EDGE_LOOP('',(#503,#504,#505,#506));
#103=EDGE_LOOP('',(#507,#508,#509,#510,#511,#512,#513,#514));
#104=EDGE_LOOP('',(#515,#516,#517,#518));
#105=EDGE_LOOP('',(#519,#520,#521,#522,#523,#524));
#106=EDGE_LOOP('',(#525));
#107=EDGE_LOOP('',(#526,#527));
#108=EDGE_LOOP('',(#528,#529,#530,#531));
#109=EDGE_LOOP('',(#532,#533,#534,#535));
#110=EDGE_LOOP('',(#536));
#111=EDGE_LOOP('',(#537,#538,#539,#540,#541,#542));
#112=EDGE_LOOP('',(#543,#544,#545,#546));
#113=EDGE_LOOP('',(#547,#548,#549,#550,#551,#552,#553,#554));
#114=EDGE_LOOP('',(#555));
#115=EDGE_LOOP('',(#556,#557));
#116=EDGE_LOOP('',(#558,#559,#560,#561,#562,#563,#564,#565));
#117=EDGE_LOOP('',(#566,#567));
#118=EDGE_LOOP('',(#568,#569,#570,#571));
#119=EDGE_LOOP('',(#572,#573,#574,#575,#576,#577,#578,#579));
#120=EDGE_LOOP('',(#580,#581));
#121=EDGE_LOOP('',(#582));
#122=EDGE_LOOP('',(#583,#584,#585,#586));
#123=EDGE_LOOP('',(#587,#588,#589,#590));
#124=EDGE_LOOP('',(#591,#592,#593,#594));
#125=EDGE_LOOP('',(#595,#596));
#126=EDGE_LOOP('',(#597,#598,#599,#600));
#127=EDGE_LOOP('',(#601,#602,#603,#604));
#128=EDGE_LOOP('',(#605,#606,#607,#608));
#129=EDGE_LOOP('',(#609,#610,#611,#612));
#130=EDGE_LOOP('',(#613,#614,#615,#616));
#131=EDGE_LOOP('',(#617,#618,#619,#620));
#132=EDGE_LOOP('',(#621));
#133=EDGE_LOOP('',(#622,#623,#624,#625));
#134=EDGE_LOOP('',(#626,#627,#628,#629));
#135=EDGE_LOOP('',(#630,#631,#632,#633,#634,#635,#636,#637,#638,#639,#640,
#641));
#136=EDGE_LOOP('',(#642,#643,#644,#645,#646,#647,#648,#649,#650,#651,#652,
#653));
#137=EDGE_LOOP('',(#654,#655));
#138=EDGE_LOOP('',(#656));
#139=EDGE_LOOP('',(#657,#658,#659,#660));
#140=EDGE_LOOP('',(#661,#662,#663,#664));
#141=EDGE_LOOP('',(#665,#666,#667,#668));
#142=EDGE_LOOP('',(#669,#670,#671,#672));
#143=EDGE_LOOP('',(#673,#674,#675,#676));
#144=EDGE_LOOP('',(#677,#678,#679,#680));
#145=EDGE_LOOP('',(#681,#682,#683,#684));
#146=EDGE_LOOP('',(#685,#686,#687,#688));
#147=EDGE_LOOP('',(#689,#690,#691,#692));
#148=EDGE_LOOP('',(#693,#694,#695,#696));
#149=EDGE_LOOP('',(#697,#698,#699,#700));
#150=EDGE_LOOP('',(#701,#702,#703,#704));
#151=LINE('',#1154,#205);
#152=LINE('',#1160,#206);
#153=LINE('',#1170,#207);
#154=LINE('',#1175,#208);
#155=LINE('',#1179,#209);
#156=LINE('',#1183,#210);
#157=LINE('',#1187,#211);
#158=LINE('',#1191,#212);
#159=LINE('',#1194,#213);
#160=LINE('',#1195,#214);
#161=LINE('',#1201,#215);
#162=LINE('',#1205,#216);
#163=LINE('',#1207,#217);
#164=LINE('',#1208,#218);
#165=LINE('',#1212,#219);
#166=LINE('',#1214,#220);
#167=LINE('',#1217,#221);
#168=LINE('',#1223,#222);
#169=LINE('',#1229,#223);
#170=LINE('',#1233,#224);
#171=LINE('',#1235,#225);
#172=LINE('',#1236,#226);
#173=LINE('',#1239,#227);
#174=LINE('',#1242,#228);
#175=LINE('',#1248,#229);
#176=LINE('',#1251,#230);
#177=LINE('',#1266,#231);
#178=LINE('',#1269,#232);
#179=LINE('',#1271,#233);
#180=LINE('',#1276,#234);
#181=LINE('',#1280,#235);
#182=LINE('',#1285,#236);
#183=LINE('',#1291,#237);
#184=LINE('',#1293,#238);
#185=LINE('',#1294,#239);
#186=LINE('',#1299,#240);
#187=LINE('',#1303,#241);
#188=LINE('',#1305,#242);
#189=LINE('',#1306,#243);
#190=LINE('',#1311,#244);
#191=LINE('',#1314,#245);
#192=LINE('',#1315,#246);
#193=LINE('',#1319,#247);
#194=LINE('',#1320,#248);
#195=LINE('',#1321,#249);
#196=LINE('',#1325,#250);
#197=LINE('',#1329,#251);
#198=LINE('',#1330,#252);
#199=LINE('',#1333,#253);
#200=LINE('',#1337,#254);
#201=LINE('',#1340,#255);
#202=LINE('',#1345,#256);
#203=LINE('',#1347,#257);
#204=LINE('',#1350,#258);
#205=VECTOR('',#895,4.2);
#206=VECTOR('',#902,4.2);
#207=VECTOR('',#915,2.);
#208=VECTOR('',#922,2.);
#209=VECTOR('',#925,10.);
#210=VECTOR('',#928,10.);
#211=VECTOR('',#931,10.);
#212=VECTOR('',#934,10.);
#213=VECTOR('',#939,10.);
#214=VECTOR('',#940,10.);
#215=VECTOR('',#947,10.);
#216=VECTOR('',#952,1000.);
#217=VECTOR('',#953,1000.);
#218=VECTOR('',#954,1000.);
#219=VECTOR('',#957,1000.);
#220=VECTOR('',#958,1000.);
#221=VECTOR('',#961,1000.);
#222=VECTOR('',#966,10.);
#223=VECTOR('',#971,10.);
#224=VECTOR('',#976,10.);
#225=VECTOR('',#977,10.);
#226=VECTOR('',#978,10.);
#227=VECTOR('',#981,10.);
#228=VECTOR('',#984,10.);
#229=VECTOR('',#993,1000.);
#230=VECTOR('',#996,1000.);
#231=VECTOR('',#1017,1000.);
#232=VECTOR('',#1020,1000.);
#233=VECTOR('',#1021,1000.);
#234=VECTOR('',#1026,1000.);
#235=VECTOR('',#1029,1000.);
#236=VECTOR('',#1034,1000.);
#237=VECTOR('',#1043,1000.);
#238=VECTOR('',#1044,1000.);
#239=VECTOR('',#1045,1000.);
#240=VECTOR('',#1050,1000.);
#241=VECTOR('',#1055,1000.);
#242=VECTOR('',#1056,1000.);
#243=VECTOR('',#1057,1000.);
#244=VECTOR('',#1062,1000.);
#245=VECTOR('',#1067,1000.);
#246=VECTOR('',#1068,1000.);
#247=VECTOR('',#1071,1000.);
#248=VECTOR('',#1072,1000.);
#249=VECTOR('',#1073,1000.);
#250=VECTOR('',#1076,1000.);
#251=VECTOR('',#1083,1000.);
#252=VECTOR('',#1084,1000.);
#253=VECTOR('',#1087,1000.);
#254=VECTOR('',#1090,1000.);
#255=VECTOR('',#1093,1000.);
#256=VECTOR('',#1098,1000.);
#257=VECTOR('',#1099,1000.);
#258=VECTOR('',#1102,1000.);
#259=CIRCLE('',#788,4.2);
#260=CIRCLE('',#789,4.2);
#261=CIRCLE('',#791,4.2);
#262=CIRCLE('',#792,4.2);
#263=CIRCLE('',#794,2.);
#264=CIRCLE('',#796,2.);
#265=CIRCLE('',#798,2.);
#266=CIRCLE('',#800,2.);
#267=CIRCLE('',#802,3.15);
#268=CIRCLE('',#803,3.15);
#269=CIRCLE('',#804,3.15);
#270=CIRCLE('',#805,3.15);
#271=CIRCLE('',#808,3.15000000000005);
#272=CIRCLE('',#809,3.15000000000005);
#273=CIRCLE('',#813,8.5);
#274=CIRCLE('',#815,3.15000000000005);
#275=CIRCLE('',#816,3.15000000000005);
#276=CIRCLE('',#817,3.15);
#277=CIRCLE('',#818,3.15);
#278=CIRCLE('',#821,3.15);
#279=CIRCLE('',#822,3.15);
#280=CIRCLE('',#825,3.15000000000005);
#281=CIRCLE('',#826,3.14999999999999);
#282=CIRCLE('',#829,8.5);
#283=CIRCLE('',#830,1.5);
#284=CIRCLE('',#831,10.);
#285=CIRCLE('',#832,1.5);
#286=CIRCLE('',#834,3.15000000000011);
#287=CIRCLE('',#835,3.15000000000005);
#288=CIRCLE('',#838,10.);
#289=CIRCLE('',#840,10.);
#290=CIRCLE('',#841,10.);
#291=CIRCLE('',#843,9.00000000000001);
#292=CIRCLE('',#844,9.00000000000001);
#293=CIRCLE('',#848,15.);
#294=CIRCLE('',#849,15.);
#295=CIRCLE('',#852,15.);
#296=CIRCLE('',#853,15.);
#297=CIRCLE('',#857,9.00000000000001);
#298=CIRCLE('',#858,9.00000000000001);
#299=CIRCLE('',#861,10.5);
#300=CIRCLE('',#862,10.5);
#301=CIRCLE('',#864,10.5);
#302=CIRCLE('',#865,10.5);
#303=CIRCLE('',#868,1.5);
#304=CIRCLE('',#869,1.5);
#305=CIRCLE('',#871,1.5);
#306=CIRCLE('',#873,1.5);
#307=CIRCLE('',#875,1.5);
#308=CIRCLE('',#877,1.5);
#309=CIRCLE('',#880,1.5);
#310=CIRCLE('',#882,1.5);
#311=CIRCLE('',#884,1.5);
#312=CIRCLE('',#886,1.5);
#313=VERTEX_POINT('',#1151);
#314=VERTEX_POINT('',#1153);
#315=VERTEX_POINT('',#1157);
#316=VERTEX_POINT('',#1159);
#317=VERTEX_POINT('',#1163);
#318=VERTEX_POINT('',#1166);
#319=VERTEX_POINT('',#1169);
#320=VERTEX_POINT('',#1173);
#321=VERTEX_POINT('',#1177);
#322=VERTEX_POINT('',#1178);
#323=VERTEX_POINT('',#1180);
#324=VERTEX_POINT('',#1182);
#325=VERTEX_POINT('',#1184);
#326=VERTEX_POINT('',#1186);
#327=VERTEX_POINT('',#1188);
#328=VERTEX_POINT('',#1190);
#329=VERTEX_POINT('',#1197);
#330=VERTEX_POINT('',#1199);
#331=VERTEX_POINT('',#1204);
#332=VERTEX_POINT('',#1206);
#333=VERTEX_POINT('',#1210);
#334=VERTEX_POINT('',#1211);
#335=VERTEX_POINT('',#1213);
#336=VERTEX_POINT('',#1215);
#337=VERTEX_POINT('',#1219);
#338=VERTEX_POINT('',#1220);
#339=VERTEX_POINT('',#1222);
#340=VERTEX_POINT('',#1224);
#341=VERTEX_POINT('',#1226);
#342=VERTEX_POINT('',#1228);
#343=VERTEX_POINT('',#1232);
#344=VERTEX_POINT('',#1234);
#345=VERTEX_POINT('',#1238);
#346=VERTEX_POINT('',#1241);
#347=VERTEX_POINT('',#1247);
#348=VERTEX_POINT('',#1249);
#349=VERTEX_POINT('',#1254);
#350=VERTEX_POINT('',#1255);
#351=VERTEX_POINT('',#1257);
#352=VERTEX_POINT('',#1259);
#353=VERTEX_POINT('',#1268);
#354=VERTEX_POINT('',#1270);
#355=VERTEX_POINT('',#1274);
#356=VERTEX_POINT('',#1275);
#357=VERTEX_POINT('',#1277);
#358=VERTEX_POINT('',#1279);
#359=VERTEX_POINT('',#1283);
#360=VERTEX_POINT('',#1284);
#361=VERTEX_POINT('',#1290);
#362=VERTEX_POINT('',#1292);
#363=VERTEX_POINT('',#1296);
#364=VERTEX_POINT('',#1298);
#365=VERTEX_POINT('',#1302);
#366=VERTEX_POINT('',#1304);
#367=VERTEX_POINT('',#1308);
#368=VERTEX_POINT('',#1310);
#369=VERTEX_POINT('',#1317);
#370=VERTEX_POINT('',#1318);
#371=VERTEX_POINT('',#1323);
#372=VERTEX_POINT('',#1324);
#373=VERTEX_POINT('',#1332);
#374=VERTEX_POINT('',#1334);
#375=VERTEX_POINT('',#1336);
#376=VERTEX_POINT('',#1338);
#377=VERTEX_POINT('',#1342);
#378=VERTEX_POINT('',#1343);
#379=VERTEX_POINT('',#1346);
#380=VERTEX_POINT('',#1348);
#381=EDGE_CURVE('',#313,#313,#259,.T.);
#382=EDGE_CURVE('',#313,#314,#151,.T.);
#383=EDGE_CURVE('',#314,#314,#260,.T.);
#384=EDGE_CURVE('',#315,#315,#261,.T.);
#385=EDGE_CURVE('',#315,#316,#152,.T.);
#386=EDGE_CURVE('',#316,#316,#262,.T.);
#387=EDGE_CURVE('',#317,#317,#263,.T.);
#388=EDGE_CURVE('',#318,#318,#264,.T.);
#389=EDGE_CURVE('',#317,#319,#153,.T.);
#390=EDGE_CURVE('',#319,#319,#265,.T.);
#391=EDGE_CURVE('',#320,#320,#266,.T.);
#392=EDGE_CURVE('',#320,#318,#154,.T.);
#393=EDGE_CURVE('',#321,#322,#155,.T.);
#394=EDGE_CURVE('',#323,#321,#267,.T.);
#395=EDGE_CURVE('',#324,#323,#156,.T.);
#396=EDGE_CURVE('',#325,#324,#268,.T.);
#397=EDGE_CURVE('',#325,#326,#157,.T.);
#398=EDGE_CURVE('',#327,#326,#269,.T.);
#399=EDGE_CURVE('',#327,#328,#158,.T.);
#400=EDGE_CURVE('',#322,#328,#270,.T.);
#401=EDGE_CURVE('',#328,#325,#159,.T.);
#402=EDGE_CURVE('',#326,#327,#160,.T.);
#403=EDGE_CURVE('',#322,#329,#271,.T.);
#404=EDGE_CURVE('',#330,#324,#272,.T.);
#405=EDGE_CURVE('',#329,#330,#161,.T.);
#406=EDGE_CURVE('',#330,#331,#162,.T.);
#407=EDGE_CURVE('',#332,#331,#163,.T.);
#408=EDGE_CURVE('',#329,#332,#164,.T.);
#409=EDGE_CURVE('',#333,#334,#165,.T.);
#410=EDGE_CURVE('',#334,#335,#166,.T.);
#411=EDGE_CURVE('',#335,#336,#273,.T.);
#412=EDGE_CURVE('',#336,#333,#167,.T.);
#413=EDGE_CURVE('',#337,#338,#274,.T.);
#414=EDGE_CURVE('',#339,#337,#168,.T.);
#415=EDGE_CURVE('',#340,#339,#275,.T.);
#416=EDGE_CURVE('',#340,#341,#276,.T.);
#417=EDGE_CURVE('',#341,#342,#169,.T.);
#418=EDGE_CURVE('',#342,#338,#277,.T.);
#419=EDGE_CURVE('',#343,#341,#170,.T.);
#420=EDGE_CURVE('',#344,#343,#171,.T.);
#421=EDGE_CURVE('',#342,#344,#172,.T.);
#422=EDGE_CURVE('',#338,#345,#173,.T.);
#423=EDGE_CURVE('',#343,#344,#278,.T.);
#424=EDGE_CURVE('',#346,#340,#174,.T.);
#425=EDGE_CURVE('',#345,#346,#279,.T.);
#426=EDGE_CURVE('',#346,#345,#280,.T.);
#427=EDGE_CURVE('',#339,#347,#175,.T.);
#428=EDGE_CURVE('',#348,#347,#281,.T.);
#429=EDGE_CURVE('',#337,#348,#176,.T.);
#430=EDGE_CURVE('',#349,#350,#282,.T.);
#431=EDGE_CURVE('',#351,#349,#283,.T.);
#432=EDGE_CURVE('',#352,#351,#284,.T.);
#433=EDGE_CURVE('',#352,#350,#285,.T.);
#434=EDGE_CURVE('',#332,#331,#286,.T.);
#435=EDGE_CURVE('',#321,#323,#287,.T.);
#436=EDGE_CURVE('',#348,#347,#177,.T.);
#437=EDGE_CURVE('',#352,#353,#178,.T.);
#438=EDGE_CURVE('',#354,#351,#179,.T.);
#439=EDGE_CURVE('',#353,#354,#288,.T.);
#440=EDGE_CURVE('',#355,#356,#180,.T.);
#441=EDGE_CURVE('',#355,#357,#289,.T.);
#442=EDGE_CURVE('',#358,#357,#181,.T.);
#443=EDGE_CURVE('',#356,#358,#290,.T.);
#444=EDGE_CURVE('',#359,#360,#182,.T.);
#445=EDGE_CURVE('',#360,#334,#291,.T.);
#446=EDGE_CURVE('',#333,#359,#292,.T.);
#447=EDGE_CURVE('',#356,#361,#183,.T.);
#448=EDGE_CURVE('',#358,#362,#184,.T.);
#449=EDGE_CURVE('',#361,#362,#185,.T.);
#450=EDGE_CURVE('',#362,#363,#293,.T.);
#451=EDGE_CURVE('',#364,#363,#186,.T.);
#452=EDGE_CURVE('',#361,#364,#294,.T.);
#453=EDGE_CURVE('',#363,#365,#187,.T.);
#454=EDGE_CURVE('',#366,#365,#188,.T.);
#455=EDGE_CURVE('',#364,#366,#189,.T.);
#456=EDGE_CURVE('',#365,#367,#295,.T.);
#457=EDGE_CURVE('',#368,#367,#190,.T.);
#458=EDGE_CURVE('',#366,#368,#296,.T.);
#459=EDGE_CURVE('',#367,#353,#191,.T.);
#460=EDGE_CURVE('',#368,#354,#192,.T.);
#461=EDGE_CURVE('',#369,#370,#193,.T.);
#462=EDGE_CURVE('',#369,#349,#194,.T.);
#463=EDGE_CURVE('',#350,#370,#195,.T.);
#464=EDGE_CURVE('',#371,#372,#196,.T.);
#465=EDGE_CURVE('',#371,#369,#297,.T.);
#466=EDGE_CURVE('',#370,#372,#298,.T.);
#467=EDGE_CURVE('',#372,#360,#197,.T.);
#468=EDGE_CURVE('',#359,#371,#198,.T.);
#469=EDGE_CURVE('',#351,#373,#199,.T.);
#470=EDGE_CURVE('',#373,#374,#299,.T.);
#471=EDGE_CURVE('',#374,#375,#200,.T.);
#472=EDGE_CURVE('',#375,#376,#300,.T.);
#473=EDGE_CURVE('',#376,#355,#201,.T.);
#474=EDGE_CURVE('',#377,#378,#301,.T.);
#475=EDGE_CURVE('',#378,#352,#202,.T.);
#476=EDGE_CURVE('',#357,#379,#203,.T.);
#477=EDGE_CURVE('',#379,#380,#302,.T.);
#478=EDGE_CURVE('',#380,#377,#204,.T.);
#479=EDGE_CURVE('',#334,#379,#303,.T.);
#480=EDGE_CURVE('',#380,#360,#304,.T.);
#481=EDGE_CURVE('',#377,#372,#305,.T.);
#482=EDGE_CURVE('',#335,#357,#306,.T.);
#483=EDGE_CURVE('',#378,#370,#307,.T.);
#484=EDGE_CURVE('',#336,#355,#308,.T.);
#485=EDGE_CURVE('',#333,#376,#309,.T.);
#486=EDGE_CURVE('',#359,#375,#310,.T.);
#487=EDGE_CURVE('',#373,#369,#311,.T.);
#488=EDGE_CURVE('',#371,#374,#312,.T.);
#489=ORIENTED_EDGE('',*,*,#381,.F.);
#490=ORIENTED_EDGE('',*,*,#382,.T.);
#491=ORIENTED_EDGE('',*,*,#383,.T.);
#492=ORIENTED_EDGE('',*,*,#382,.F.);
#493=ORIENTED_EDGE('',*,*,#384,.T.);
#494=ORIENTED_EDGE('',*,*,#385,.T.);
#495=ORIENTED_EDGE('',*,*,#386,.F.);
#496=ORIENTED_EDGE('',*,*,#385,.F.);
#497=ORIENTED_EDGE('',*,*,#387,.F.);
#498=ORIENTED_EDGE('',*,*,#388,.F.);
#499=ORIENTED_EDGE('',*,*,#387,.T.);
#500=ORIENTED_EDGE('',*,*,#389,.T.);
#501=ORIENTED_EDGE('',*,*,#390,.F.);
#502=ORIENTED_EDGE('',*,*,#389,.F.);
#503=ORIENTED_EDGE('',*,*,#391,.F.);
#504=ORIENTED_EDGE('',*,*,#392,.T.);
#505=ORIENTED_EDGE('',*,*,#388,.T.);
#506=ORIENTED_EDGE('',*,*,#392,.F.);
#507=ORIENTED_EDGE('',*,*,#393,.F.);
#508=ORIENTED_EDGE('',*,*,#394,.F.);
#509=ORIENTED_EDGE('',*,*,#395,.F.);
#510=ORIENTED_EDGE('',*,*,#396,.F.);
#511=ORIENTED_EDGE('',*,*,#397,.T.);
#512=ORIENTED_EDGE('',*,*,#398,.F.);
#513=ORIENTED_EDGE('',*,*,#399,.T.);
#514=ORIENTED_EDGE('',*,*,#400,.F.);
#515=ORIENTED_EDGE('',*,*,#397,.F.);
#516=ORIENTED_EDGE('',*,*,#401,.F.);
#517=ORIENTED_EDGE('',*,*,#399,.F.);
#518=ORIENTED_EDGE('',*,*,#402,.F.);
#519=ORIENTED_EDGE('',*,*,#403,.F.);
#520=ORIENTED_EDGE('',*,*,#400,.T.);
#521=ORIENTED_EDGE('',*,*,#401,.T.);
#522=ORIENTED_EDGE('',*,*,#396,.T.);
#523=ORIENTED_EDGE('',*,*,#404,.F.);
#524=ORIENTED_EDGE('',*,*,#405,.F.);
#525=ORIENTED_EDGE('',*,*,#381,.T.);
#526=ORIENTED_EDGE('',*,*,#402,.T.);
#527=ORIENTED_EDGE('',*,*,#398,.T.);
#528=ORIENTED_EDGE('',*,*,#405,.T.);
#529=ORIENTED_EDGE('',*,*,#406,.T.);
#530=ORIENTED_EDGE('',*,*,#407,.F.);
#531=ORIENTED_EDGE('',*,*,#408,.F.);
#532=ORIENTED_EDGE('',*,*,#409,.T.);
#533=ORIENTED_EDGE('',*,*,#410,.T.);
#534=ORIENTED_EDGE('',*,*,#411,.T.);
#535=ORIENTED_EDGE('',*,*,#412,.T.);
#536=ORIENTED_EDGE('',*,*,#383,.F.);
#537=ORIENTED_EDGE('',*,*,#413,.F.);
#538=ORIENTED_EDGE('',*,*,#414,.F.);
#539=ORIENTED_EDGE('',*,*,#415,.F.);
#540=ORIENTED_EDGE('',*,*,#416,.T.);
#541=ORIENTED_EDGE('',*,*,#417,.T.);
#542=ORIENTED_EDGE('',*,*,#418,.T.);
#543=ORIENTED_EDGE('',*,*,#419,.F.);
#544=ORIENTED_EDGE('',*,*,#420,.F.);
#545=ORIENTED_EDGE('',*,*,#421,.F.);
#546=ORIENTED_EDGE('',*,*,#417,.F.);
#547=ORIENTED_EDGE('',*,*,#422,.F.);
#548=ORIENTED_EDGE('',*,*,#418,.F.);
#549=ORIENTED_EDGE('',*,*,#421,.T.);
#550=ORIENTED_EDGE('',*,*,#423,.F.);
#551=ORIENTED_EDGE('',*,*,#419,.T.);
#552=ORIENTED_EDGE('',*,*,#416,.F.);
#553=ORIENTED_EDGE('',*,*,#424,.F.);
#554=ORIENTED_EDGE('',*,*,#425,.F.);
#555=ORIENTED_EDGE('',*,*,#386,.T.);
#556=ORIENTED_EDGE('',*,*,#420,.T.);
#557=ORIENTED_EDGE('',*,*,#423,.T.);
#558=ORIENTED_EDGE('',*,*,#413,.T.);
#559=ORIENTED_EDGE('',*,*,#422,.T.);
#560=ORIENTED_EDGE('',*,*,#426,.F.);
#561=ORIENTED_EDGE('',*,*,#424,.T.);
#562=ORIENTED_EDGE('',*,*,#415,.T.);
#563=ORIENTED_EDGE('',*,*,#427,.T.);
#564=ORIENTED_EDGE('',*,*,#428,.F.);
#565=ORIENTED_EDGE('',*,*,#429,.F.);
#566=ORIENTED_EDGE('',*,*,#425,.T.);
#567=ORIENTED_EDGE('',*,*,#426,.T.);
#568=ORIENTED_EDGE('',*,*,#430,.F.);
#569=ORIENTED_EDGE('',*,*,#431,.F.);
#570=ORIENTED_EDGE('',*,*,#432,.F.);
#571=ORIENTED_EDGE('',*,*,#433,.T.);
#572=ORIENTED_EDGE('',*,*,#403,.T.);
#573=ORIENTED_EDGE('',*,*,#408,.T.);
#574=ORIENTED_EDGE('',*,*,#434,.T.);
#575=ORIENTED_EDGE('',*,*,#406,.F.);
#576=ORIENTED_EDGE('',*,*,#404,.T.);
#577=ORIENTED_EDGE('',*,*,#395,.T.);
#578=ORIENTED_EDGE('',*,*,#435,.F.);
#579=ORIENTED_EDGE('',*,*,#393,.T.);
#580=ORIENTED_EDGE('',*,*,#436,.F.);
#581=ORIENTED_EDGE('',*,*,#428,.T.);
#582=ORIENTED_EDGE('',*,*,#391,.T.);
#583=ORIENTED_EDGE('',*,*,#437,.F.);
#584=ORIENTED_EDGE('',*,*,#432,.T.);
#585=ORIENTED_EDGE('',*,*,#438,.F.);
#586=ORIENTED_EDGE('',*,*,#439,.F.);
#587=ORIENTED_EDGE('',*,*,#440,.F.);
#588=ORIENTED_EDGE('',*,*,#441,.T.);
#589=ORIENTED_EDGE('',*,*,#442,.F.);
#590=ORIENTED_EDGE('',*,*,#443,.F.);
#591=ORIENTED_EDGE('',*,*,#444,.T.);
#592=ORIENTED_EDGE('',*,*,#445,.T.);
#593=ORIENTED_EDGE('',*,*,#409,.F.);
#594=ORIENTED_EDGE('',*,*,#446,.T.);
#595=ORIENTED_EDGE('',*,*,#394,.T.);
#596=ORIENTED_EDGE('',*,*,#435,.T.);
#597=ORIENTED_EDGE('',*,*,#447,.F.);
#598=ORIENTED_EDGE('',*,*,#443,.T.);
#599=ORIENTED_EDGE('',*,*,#448,.T.);
#600=ORIENTED_EDGE('',*,*,#449,.F.);
#601=ORIENTED_EDGE('',*,*,#450,.T.);
#602=ORIENTED_EDGE('',*,*,#451,.F.);
#603=ORIENTED_EDGE('',*,*,#452,.F.);
#604=ORIENTED_EDGE('',*,*,#449,.T.);
#605=ORIENTED_EDGE('',*,*,#453,.T.);
#606=ORIENTED_EDGE('',*,*,#454,.F.);
#607=ORIENTED_EDGE('',*,*,#455,.F.);
#608=ORIENTED_EDGE('',*,*,#451,.T.);
#609=ORIENTED_EDGE('',*,*,#456,.T.);
#610=ORIENTED_EDGE('',*,*,#457,.F.);
#611=ORIENTED_EDGE('',*,*,#458,.F.);
#612=ORIENTED_EDGE('',*,*,#454,.T.);
#613=ORIENTED_EDGE('',*,*,#459,.T.);
#614=ORIENTED_EDGE('',*,*,#439,.T.);
#615=ORIENTED_EDGE('',*,*,#460,.F.);
#616=ORIENTED_EDGE('',*,*,#457,.T.);
#617=ORIENTED_EDGE('',*,*,#461,.F.);
#618=ORIENTED_EDGE('',*,*,#462,.T.);
#619=ORIENTED_EDGE('',*,*,#430,.T.);
#620=ORIENTED_EDGE('',*,*,#463,.T.);
#621=ORIENTED_EDGE('',*,*,#384,.F.);
#622=ORIENTED_EDGE('',*,*,#464,.F.);
#623=ORIENTED_EDGE('',*,*,#465,.T.);
#624=ORIENTED_EDGE('',*,*,#461,.T.);
#625=ORIENTED_EDGE('',*,*,#466,.T.);
#626=ORIENTED_EDGE('',*,*,#464,.T.);
#627=ORIENTED_EDGE('',*,*,#467,.T.);
#628=ORIENTED_EDGE('',*,*,#444,.F.);
#629=ORIENTED_EDGE('',*,*,#468,.T.);
#630=ORIENTED_EDGE('',*,*,#438,.T.);
#631=ORIENTED_EDGE('',*,*,#469,.T.);
#632=ORIENTED_EDGE('',*,*,#470,.T.);
#633=ORIENTED_EDGE('',*,*,#471,.T.);
#634=ORIENTED_EDGE('',*,*,#472,.T.);
#635=ORIENTED_EDGE('',*,*,#473,.T.);
#636=ORIENTED_EDGE('',*,*,#440,.T.);
#637=ORIENTED_EDGE('',*,*,#447,.T.);
#638=ORIENTED_EDGE('',*,*,#452,.T.);
#639=ORIENTED_EDGE('',*,*,#455,.T.);
#640=ORIENTED_EDGE('',*,*,#458,.T.);
#641=ORIENTED_EDGE('',*,*,#460,.T.);
#642=ORIENTED_EDGE('',*,*,#474,.T.);
#643=ORIENTED_EDGE('',*,*,#475,.T.);
#644=ORIENTED_EDGE('',*,*,#437,.T.);
#645=ORIENTED_EDGE('',*,*,#459,.F.);
#646=ORIENTED_EDGE('',*,*,#456,.F.);
#647=ORIENTED_EDGE('',*,*,#453,.F.);
#648=ORIENTED_EDGE('',*,*,#450,.F.);
#649=ORIENTED_EDGE('',*,*,#448,.F.);
#650=ORIENTED_EDGE('',*,*,#442,.T.);
#651=ORIENTED_EDGE('',*,*,#476,.T.);
#652=ORIENTED_EDGE('',*,*,#477,.T.);
#653=ORIENTED_EDGE('',*,*,#478,.T.);
#654=ORIENTED_EDGE('',*,*,#434,.F.);
#655=ORIENTED_EDGE('',*,*,#407,.T.);
#656=ORIENTED_EDGE('',*,*,#390,.T.);
#657=ORIENTED_EDGE('',*,*,#479,.F.);
#658=ORIENTED_EDGE('',*,*,#445,.F.);
#659=ORIENTED_EDGE('',*,*,#480,.F.);
#660=ORIENTED_EDGE('',*,*,#477,.F.);
#661=ORIENTED_EDGE('',*,*,#480,.T.);
#662=ORIENTED_EDGE('',*,*,#467,.F.);
#663=ORIENTED_EDGE('',*,*,#481,.F.);
#664=ORIENTED_EDGE('',*,*,#478,.F.);
#665=ORIENTED_EDGE('',*,*,#479,.T.);
#666=ORIENTED_EDGE('',*,*,#476,.F.);
#667=ORIENTED_EDGE('',*,*,#482,.F.);
#668=ORIENTED_EDGE('',*,*,#410,.F.);
#669=ORIENTED_EDGE('',*,*,#481,.T.);
#670=ORIENTED_EDGE('',*,*,#466,.F.);
#671=ORIENTED_EDGE('',*,*,#483,.F.);
#672=ORIENTED_EDGE('',*,*,#474,.F.);
#673=ORIENTED_EDGE('',*,*,#482,.T.);
#674=ORIENTED_EDGE('',*,*,#441,.F.);
#675=ORIENTED_EDGE('',*,*,#484,.F.);
#676=ORIENTED_EDGE('',*,*,#411,.F.);
#677=ORIENTED_EDGE('',*,*,#483,.T.);
#678=ORIENTED_EDGE('',*,*,#463,.F.);
#679=ORIENTED_EDGE('',*,*,#433,.F.);
#680=ORIENTED_EDGE('',*,*,#475,.F.);
#681=ORIENTED_EDGE('',*,*,#484,.T.);
#682=ORIENTED_EDGE('',*,*,#473,.F.);
#683=ORIENTED_EDGE('',*,*,#485,.F.);
#684=ORIENTED_EDGE('',*,*,#412,.F.);
#685=ORIENTED_EDGE('',*,*,#485,.T.);
#686=ORIENTED_EDGE('',*,*,#472,.F.);
#687=ORIENTED_EDGE('',*,*,#486,.F.);
#688=ORIENTED_EDGE('',*,*,#446,.F.);
#689=ORIENTED_EDGE('',*,*,#431,.T.);
#690=ORIENTED_EDGE('',*,*,#462,.F.);
#691=ORIENTED_EDGE('',*,*,#487,.F.);
#692=ORIENTED_EDGE('',*,*,#469,.F.);
#693=ORIENTED_EDGE('',*,*,#486,.T.);
#694=ORIENTED_EDGE('',*,*,#471,.F.);
#695=ORIENTED_EDGE('',*,*,#488,.F.);
#696=ORIENTED_EDGE('',*,*,#468,.F.);
#697=ORIENTED_EDGE('',*,*,#487,.T.);
#698=ORIENTED_EDGE('',*,*,#465,.F.);
#699=ORIENTED_EDGE('',*,*,#488,.T.);
#700=ORIENTED_EDGE('',*,*,#470,.F.);
#701=ORIENTED_EDGE('',*,*,#414,.T.);
#702=ORIENTED_EDGE('',*,*,#429,.T.);
#703=ORIENTED_EDGE('',*,*,#436,.T.);
#704=ORIENTED_EDGE('',*,*,#427,.F.);
#705=CYLINDRICAL_SURFACE('',#787,4.2);
#706=CYLINDRICAL_SURFACE('',#790,4.2);
#707=CYLINDRICAL_SURFACE('',#797,2.);
#708=CYLINDRICAL_SURFACE('',#799,2.);
#709=CYLINDRICAL_SURFACE('',#801,3.15);
#710=CYLINDRICAL_SURFACE('',#820,3.15);
#711=CYLINDRICAL_SURFACE('',#824,3.15000000000005);
#712=CYLINDRICAL_SURFACE('',#833,3.15000000000005);
#713=CYLINDRICAL_SURFACE('',#837,10.);
#714=CYLINDRICAL_SURFACE('',#839,10.);
#715=CYLINDRICAL_SURFACE('',#842,9.00000000000001);
#716=CYLINDRICAL_SURFACE('',#847,15.);
#717=CYLINDRICAL_SURFACE('',#851,15.);
#718=CYLINDRICAL_SURFACE('',#856,9.00000000000001);
#719=CYLINDRICAL_SURFACE('',#870,1.5);
#720=CYLINDRICAL_SURFACE('',#872,1.5);
#721=CYLINDRICAL_SURFACE('',#878,1.5);
#722=CYLINDRICAL_SURFACE('',#879,1.5);
#723=CYLINDRICAL_SURFACE('',#883,1.5);
#724=CYLINDRICAL_SURFACE('',#885,1.5);
#725=ADVANCED_FACE('',(#49),#705,.T.);
#726=ADVANCED_FACE('',(#50),#706,.T.);
#727=ADVANCED_FACE('',(#51),#27,.F.);
#728=ADVANCED_FACE('',(#52),#28,.F.);
#729=ADVANCED_FACE('',(#53),#707,.F.);
#730=ADVANCED_FACE('',(#54),#708,.F.);
#731=ADVANCED_FACE('',(#55),#709,.F.);
#732=ADVANCED_FACE('',(#56),#29,.F.);
#733=ADVANCED_FACE('',(#57),#30,.T.);
#734=ADVANCED_FACE('',(#58,#21),#31,.T.);
#735=ADVANCED_FACE('',(#59),#32,.F.);
#736=ADVANCED_FACE('',(#60,#22),#33,.F.);
#737=ADVANCED_FACE('',(#61),#34,.T.);
#738=ADVANCED_FACE('',(#62),#35,.F.);
#739=ADVANCED_FACE('',(#63),#710,.F.);
#740=ADVANCED_FACE('',(#64,#23),#36,.T.);
#741=ADVANCED_FACE('',(#65),#711,.F.);
#742=ADVANCED_FACE('',(#66),#37,.F.);
#743=ADVANCED_FACE('',(#67),#15,.T.);
#744=ADVANCED_FACE('',(#68),#712,.F.);
#745=ADVANCED_FACE('',(#69,#24),#38,.F.);
#746=ADVANCED_FACE('',(#70),#713,.T.);
#747=ADVANCED_FACE('',(#71),#714,.T.);
#748=ADVANCED_FACE('',(#72),#715,.F.);
#749=ADVANCED_FACE('',(#73),#39,.F.);
#750=ADVANCED_FACE('',(#74),#40,.F.);
#751=ADVANCED_FACE('',(#75),#716,.T.);
#752=ADVANCED_FACE('',(#76),#41,.F.);
#753=ADVANCED_FACE('',(#77),#717,.T.);
#754=ADVANCED_FACE('',(#78),#42,.F.);
#755=ADVANCED_FACE('',(#79,#25),#43,.F.);
#756=ADVANCED_FACE('',(#80),#718,.F.);
#757=ADVANCED_FACE('',(#81),#44,.F.);
#758=ADVANCED_FACE('',(#82),#45,.T.);
#759=ADVANCED_FACE('',(#83),#46,.F.);
#760=ADVANCED_FACE('',(#84,#26),#47,.F.);
#761=ADVANCED_FACE('',(#85),#16,.T.);
#762=ADVANCED_FACE('',(#86),#719,.T.);
#763=ADVANCED_FACE('',(#87),#720,.T.);
#764=ADVANCED_FACE('',(#88),#17,.T.);
#765=ADVANCED_FACE('',(#89),#18,.T.);
#766=ADVANCED_FACE('',(#90),#721,.T.);
#767=ADVANCED_FACE('',(#91),#722,.T.);
#768=ADVANCED_FACE('',(#92),#19,.T.);
#769=ADVANCED_FACE('',(#93),#723,.T.);
#770=ADVANCED_FACE('',(#94),#724,.T.);
#771=ADVANCED_FACE('',(#95),#20,.T.);
#772=ADVANCED_FACE('',(#96),#48,.F.);
#773=CLOSED_SHELL('',(#725,#726,#727,#728,#729,#730,#731,#732,#733,#734,
#735,#736,#737,#738,#739,#740,#741,#742,#743,#744,#745,#746,#747,#748,#749,
#750,#751,#752,#753,#754,#755,#756,#757,#758,#759,#760,#761,#762,#763,#764,
#765,#766,#767,#768,#769,#770,#771,#772));
#774=DERIVED_UNIT_ELEMENT(#776,1.);
#775=DERIVED_UNIT_ELEMENT(#1379,-3.);
#776=(
MASS_UNIT()
NAMED_UNIT(*)
SI_UNIT(.KILO.,.GRAM.)
);
#777=DERIVED_UNIT((#774,#775));
#778=MEASURE_REPRESENTATION_ITEM('density measure',
POSITIVE_RATIO_MEASURE(7850.),#777);
#779=PROPERTY_DEFINITION_REPRESENTATION(#784,#781);
#780=PROPERTY_DEFINITION_REPRESENTATION(#785,#782);
#781=REPRESENTATION('material name',(#783),#1376);
#782=REPRESENTATION('density',(#778),#1376);
#783=DESCRIPTIVE_REPRESENTATION_ITEM('Steel','Steel');
#784=PROPERTY_DEFINITION('material property','material name',#1386);
#785=PROPERTY_DEFINITION('material property','density of part',#1386);
#786=AXIS2_PLACEMENT_3D('',#1149,#889,#890);
#787=AXIS2_PLACEMENT_3D('',#1150,#891,#892);
#788=AXIS2_PLACEMENT_3D('',#1152,#893,#894);
#789=AXIS2_PLACEMENT_3D('',#1155,#896,#897);
#790=AXIS2_PLACEMENT_3D('',#1156,#898,#899);
#791=AXIS2_PLACEMENT_3D('',#1158,#900,#901);
#792=AXIS2_PLACEMENT_3D('',#1161,#903,#904);
#793=AXIS2_PLACEMENT_3D('',#1162,#905,#906);
#794=AXIS2_PLACEMENT_3D('',#1164,#907,#908);
#795=AXIS2_PLACEMENT_3D('',#1165,#909,#910);
#796=AXIS2_PLACEMENT_3D('',#1167,#911,#912);
#797=AXIS2_PLACEMENT_3D('',#1168,#913,#914);
#798=AXIS2_PLACEMENT_3D('',#1171,#916,#917);
#799=AXIS2_PLACEMENT_3D('',#1172,#918,#919);
#800=AXIS2_PLACEMENT_3D('',#1174,#920,#921);
#801=AXIS2_PLACEMENT_3D('',#1176,#923,#924);
#802=AXIS2_PLACEMENT_3D('',#1181,#926,#927);
#803=AXIS2_PLACEMENT_3D('',#1185,#929,#930);
#804=AXIS2_PLACEMENT_3D('',#1189,#932,#933);
#805=AXIS2_PLACEMENT_3D('',#1192,#935,#936);
#806=AXIS2_PLACEMENT_3D('',#1193,#937,#938);
#807=AXIS2_PLACEMENT_3D('',#1196,#941,#942);
#808=AXIS2_PLACEMENT_3D('',#1198,#943,#944);
#809=AXIS2_PLACEMENT_3D('',#1200,#945,#946);
#810=AXIS2_PLACEMENT_3D('',#1202,#948,#949);
#811=AXIS2_PLACEMENT_3D('',#1203,#950,#951);
#812=AXIS2_PLACEMENT_3D('',#1209,#955,#956);
#813=AXIS2_PLACEMENT_3D('',#1216,#959,#960);
#814=AXIS2_PLACEMENT_3D('',#1218,#962,#963);
#815=AXIS2_PLACEMENT_3D('',#1221,#964,#965);
#816=AXIS2_PLACEMENT_3D('',#1225,#967,#968);
#817=AXIS2_PLACEMENT_3D('',#1227,#969,#970);
#818=AXIS2_PLACEMENT_3D('',#1230,#972,#973);
#819=AXIS2_PLACEMENT_3D('',#1231,#974,#975);
#820=AXIS2_PLACEMENT_3D('',#1237,#979,#980);
#821=AXIS2_PLACEMENT_3D('',#1240,#982,#983);
#822=AXIS2_PLACEMENT_3D('',#1243,#985,#986);
#823=AXIS2_PLACEMENT_3D('',#1244,#987,#988);
#824=AXIS2_PLACEMENT_3D('',#1245,#989,#990);
#825=AXIS2_PLACEMENT_3D('',#1246,#991,#992);
#826=AXIS2_PLACEMENT_3D('',#1250,#994,#995);
#827=AXIS2_PLACEMENT_3D('',#1252,#997,#998);
#828=AXIS2_PLACEMENT_3D('',#1253,#999,#1000);
#829=AXIS2_PLACEMENT_3D('',#1256,#1001,#1002);
#830=AXIS2_PLACEMENT_3D('',#1258,#1003,#1004);
#831=AXIS2_PLACEMENT_3D('',#1260,#1005,#1006);
#832=AXIS2_PLACEMENT_3D('',#1261,#1007,#1008);
#833=AXIS2_PLACEMENT_3D('',#1262,#1009,#1010);
#834=AXIS2_PLACEMENT_3D('',#1263,#1011,#1012);
#835=AXIS2_PLACEMENT_3D('',#1264,#1013,#1014);
#836=AXIS2_PLACEMENT_3D('',#1265,#1015,#1016);
#837=AXIS2_PLACEMENT_3D('',#1267,#1018,#1019);
#838=AXIS2_PLACEMENT_3D('',#1272,#1022,#1023);
#839=AXIS2_PLACEMENT_3D('',#1273,#1024,#1025);
#840=AXIS2_PLACEMENT_3D('',#1278,#1027,#1028);
#841=AXIS2_PLACEMENT_3D('',#1281,#1030,#1031);
#842=AXIS2_PLACEMENT_3D('',#1282,#1032,#1033);
#843=AXIS2_PLACEMENT_3D('',#1286,#1035,#1036);
#844=AXIS2_PLACEMENT_3D('',#1287,#1037,#1038);
#845=AXIS2_PLACEMENT_3D('',#1288,#1039,#1040);
#846=AXIS2_PLACEMENT_3D('',#1289,#1041,#1042);
#847=AXIS2_PLACEMENT_3D('',#1295,#1046,#1047);
#848=AXIS2_PLACEMENT_3D('',#1297,#1048,#1049);
#849=AXIS2_PLACEMENT_3D('',#1300,#1051,#1052);
#850=AXIS2_PLACEMENT_3D('',#1301,#1053,#1054);
#851=AXIS2_PLACEMENT_3D('',#1307,#1058,#1059);
#852=AXIS2_PLACEMENT_3D('',#1309,#1060,#1061);
#853=AXIS2_PLACEMENT_3D('',#1312,#1063,#1064);
#854=AXIS2_PLACEMENT_3D('',#1313,#1065,#1066);
#855=AXIS2_PLACEMENT_3D('',#1316,#1069,#1070);
#856=AXIS2_PLACEMENT_3D('',#1322,#1074,#1075);
#857=AXIS2_PLACEMENT_3D('',#1326,#1077,#1078);
#858=AXIS2_PLACEMENT_3D('',#1327,#1079,#1080);
#859=AXIS2_PLACEMENT_3D('',#1328,#1081,#1082);
#860=AXIS2_PLACEMENT_3D('',#1331,#1085,#1086);
#861=AXIS2_PLACEMENT_3D('',#1335,#1088,#1089);
#862=AXIS2_PLACEMENT_3D('',#1339,#1091,#1092);
#863=AXIS2_PLACEMENT_3D('',#1341,#1094,#1095);
#864=AXIS2_PLACEMENT_3D('',#1344,#1096,#1097);
#865=AXIS2_PLACEMENT_3D('',#1349,#1100,#1101);
#866=AXIS2_PLACEMENT_3D('',#1351,#1103,#1104);
#867=AXIS2_PLACEMENT_3D('',#1352,#1105,#1106);
#868=AXIS2_PLACEMENT_3D('',#1353,#1107,#1108);
#869=AXIS2_PLACEMENT_3D('',#1354,#1109,#1110);
#870=AXIS2_PLACEMENT_3D('',#1355,#1111,#1112);
#871=AXIS2_PLACEMENT_3D('',#1356,#1113,#1114);
#872=AXIS2_PLACEMENT_3D('',#1357,#1115,#1116);
#873=AXIS2_PLACEMENT_3D('',#1358,#1117,#1118);
#874=AXIS2_PLACEMENT_3D('',#1359,#1119,#1120);
#875=AXIS2_PLACEMENT_3D('',#1360,#1121,#1122);
#876=AXIS2_PLACEMENT_3D('',#1361,#1123,#1124);
#877=AXIS2_PLACEMENT_3D('',#1362,#1125,#1126);
#878=AXIS2_PLACEMENT_3D('',#1363,#1127,#1128);
#879=AXIS2_PLACEMENT_3D('',#1364,#1129,#1130);
#880=AXIS2_PLACEMENT_3D('',#1365,#1131,#1132);
#881=AXIS2_PLACEMENT_3D('',#1366,#1133,#1134);
#882=AXIS2_PLACEMENT_3D('',#1367,#1135,#1136);
#883=AXIS2_PLACEMENT_3D('',#1368,#1137,#1138);
#884=AXIS2_PLACEMENT_3D('',#1369,#1139,#1140);
#885=AXIS2_PLACEMENT_3D('',#1370,#1141,#1142);
#886=AXIS2_PLACEMENT_3D('',#1371,#1143,#1144);
#887=AXIS2_PLACEMENT_3D('',#1372,#1145,#1146);
#888=AXIS2_PLACEMENT_3D('',#1373,#1147,#1148);
#889=DIRECTION('axis',(0.,0.,1.));
#890=DIRECTION('refdir',(1.,0.,0.));
#891=DIRECTION('center_axis',(1.,1.89023787342808E-17,1.08854175819127E-17));
#892=DIRECTION('ref_axis',(1.49977030804924E-17,-0.233468555838159,-0.972364352202838));
#893=DIRECTION('center_axis',(1.,1.89023787342808E-17,1.08854175819127E-17));
#894=DIRECTION('ref_axis',(1.49977030804924E-17,-0.233468555838159,-0.972364352202838));
#895=DIRECTION('',(-1.,-1.89023787342808E-17,-1.08854175819127E-17));
#896=DIRECTION('center_axis',(1.,1.89023787342808E-17,1.08854175819127E-17));
#897=DIRECTION('ref_axis',(1.49977030804924E-17,-0.233468555838159,-0.972364352202838));
#898=DIRECTION('center_axis',(1.,1.89023787342808E-17,1.08854175819127E-17));
#899=DIRECTION('ref_axis',(1.49977030804924E-17,-0.233468555838159,-0.972364352202838));
#900=DIRECTION('center_axis',(-1.,-1.89023787342808E-17,-1.08854175819127E-17));
#901=DIRECTION('ref_axis',(1.49977030804924E-17,-0.233468555838159,-0.972364352202838));
#902=DIRECTION('',(-1.,-1.89023787342808E-17,-1.08854175819127E-17));
#903=DIRECTION('center_axis',(-1.,-1.89023787342808E-17,-1.08854175819127E-17));
#904=DIRECTION('ref_axis',(1.49977030804924E-17,-0.233468555838159,-0.972364352202838));
#905=DIRECTION('center_axis',(-1.,-1.89023787342808E-17,-1.08854175819127E-17));
#906=DIRECTION('ref_axis',(-1.49977030804924E-17,0.233468555838159,0.972364352202838));
#907=DIRECTION('center_axis',(-1.,-1.89023787342808E-17,-1.08854175819127E-17));
#908=DIRECTION('ref_axis',(1.49977030804924E-17,-0.233468555838159,-0.972364352202838));
#909=DIRECTION('center_axis',(1.,1.89023787342808E-17,1.08854175819127E-17));
#910=DIRECTION('ref_axis',(1.49977030804924E-17,-0.233468555838159,-0.972364352202838));
#911=DIRECTION('center_axis',(1.,1.89023787342808E-17,1.08854175819127E-17));
#912=DIRECTION('ref_axis',(1.49977030804924E-17,-0.233468555838159,-0.972364352202838));
#913=DIRECTION('center_axis',(1.,1.89023787342808E-17,1.08854175819127E-17));
#914=DIRECTION('ref_axis',(1.49977030804924E-17,-0.233468555838159,-0.972364352202838));
#915=DIRECTION('',(1.,1.89023787342808E-17,1.08854175819127E-17));
#916=DIRECTION('center_axis',(-1.,-1.9949931418433E-16,-7.62456914392318E-16));
#917=DIRECTION('ref_axis',(1.49977030804924E-17,-0.233468555838159,-0.972364352202838));
#918=DIRECTION('center_axis',(1.,1.89023787342808E-17,1.08854175819127E-17));
#919=DIRECTION('ref_axis',(1.49977030804924E-17,-0.233468555838159,-0.972364352202838));
#920=DIRECTION('center_axis',(1.,1.9949931418433E-16,7.62456914392318E-16));
#921=DIRECTION('ref_axis',(1.49977030804924E-17,-0.233468555838159,-0.972364352202838));
#922=DIRECTION('',(1.,1.89023787342808E-17,1.08854175819127E-17));
#923=DIRECTION('center_axis',(1.,1.89023787342808E-17,1.08854175819127E-17));
#924=DIRECTION('ref_axis',(1.49977030804924E-17,-0.233468555838159,-0.972364352202838));
#925=DIRECTION('',(-1.,-1.89023787342808E-17,-1.08854175819127E-17));
#926=DIRECTION('center_axis',(1.,2.53289594663732E-16,1.56163467038156E-16));
#927=DIRECTION('ref_axis',(1.49977030804924E-17,-0.233468555838159,-0.972364352202838));
#928=DIRECTION('',(1.,1.89023787342808E-17,1.08854175819127E-17));
#929=DIRECTION('center_axis',(1.,1.89023787342808E-17,1.08854175819127E-17));
#930=DIRECTION('ref_axis',(1.49977030804924E-17,-0.233468555838159,-0.972364352202838));
#931=DIRECTION('',(1.,1.89023787342808E-17,1.08854175819127E-17));
#932=DIRECTION('center_axis',(-1.,-1.89023787342808E-17,-1.08854175819127E-17));
#933=DIRECTION('ref_axis',(1.49977030804924E-17,-0.233468555838159,-0.972364352202838));
#934=DIRECTION('',(-1.,-1.89023787342808E-17,-1.08854175819127E-17));
#935=DIRECTION('center_axis',(1.,1.89023787342808E-17,1.08854175819127E-17));
#936=DIRECTION('ref_axis',(1.49977030804924E-17,-0.233468555838159,-0.972364352202838));
#937=DIRECTION('center_axis',(-9.17230521236539E-18,-0.0883761577903972,
0.996087172256629));
#938=DIRECTION('ref_axis',(1.,1.89023787342808E-17,1.08854175819127E-17));
#939=DIRECTION('',(1.9790428364187E-17,-0.996087172256629,-0.0883761577903972));
#940=DIRECTION('',(-1.9790428364187E-17,0.996087172256629,0.0883761577903972));
#941=DIRECTION('center_axis',(-1.,-1.89023787342808E-17,-1.08854175819127E-17));
#942=DIRECTION('ref_axis',(-1.49977030804924E-17,0.233468555838159,0.972364352202838));
#943=DIRECTION('center_axis',(1.,1.89023787342808E-17,1.08854175819127E-17));
#944=DIRECTION('ref_axis',(7.41843476974808E-16,0.0883727588225387,-0.996087473818486));
#945=DIRECTION('center_axis',(1.,1.89023787342808E-17,1.08854175819127E-17));
#946=DIRECTION('ref_axis',(7.41843476974808E-16,0.0883727588225387,-0.996087473818486));
#947=DIRECTION('',(1.9790397065239E-17,-0.996087473818486,-0.0883727588225388));
#948=DIRECTION('center_axis',(1.,1.89023787342808E-17,1.08854175819127E-17));
#949=DIRECTION('ref_axis',(1.49977030804924E-17,-0.233468555838159,-0.972364352202838));
#950=DIRECTION('center_axis',(4.75506330728215E-16,-0.0883727588225388,
0.996087473818486));
#951=DIRECTION('ref_axis',(1.,3.07079875143133E-16,-4.50129980316007E-16));
#952=DIRECTION('',(-1.,-3.07079875143133E-16,4.50129980316007E-16));
#953=DIRECTION('',(2.66099188902559E-16,-0.996087473818486,-0.0883727588225387));
#954=DIRECTION('',(-1.,-3.07079875143133E-16,4.50129980316007E-16));
#955=DIRECTION('center_axis',(-1.,-2.53289594663732E-16,-1.56163467038156E-16));
#956=DIRECTION('ref_axis',(2.66099188902559E-16,-0.996087473818486,-0.0883727588225386));
#957=DIRECTION('',(-2.66099188902559E-16,0.996087473818486,0.0883727588225387));
#958=DIRECTION('',(-1.33168573123297E-16,-0.0883727588225387,0.996087473818486));
#959=DIRECTION('center_axis',(1.,2.53289594663732E-16,1.56163467038156E-16));
#960=DIRECTION('ref_axis',(2.66099188902559E-16,-0.996087473818486,-0.0883727588225388));
#961=DIRECTION('',(1.33168573123297E-16,0.0883727588225387,-0.996087473818486));
#962=DIRECTION('center_axis',(1.,1.89023787342808E-17,1.08854175819127E-17));
#963=DIRECTION('ref_axis',(1.49977030804924E-17,-0.233468555838159,-0.972364352202838));
#964=DIRECTION('center_axis',(-1.,-1.89023787342808E-17,-1.08854175819127E-17));
#965=DIRECTION('ref_axis',(7.41843476974808E-16,0.0883727588225387,-0.996087473818486));
#966=DIRECTION('',(-1.9790397065239E-17,0.996087473818486,0.0883727588225388));
#967=DIRECTION('center_axis',(-1.,-1.89023787342808E-17,-1.08854175819127E-17));
#968=DIRECTION('ref_axis',(7.41843476974808E-16,0.0883727588225387,-0.996087473818486));
#969=DIRECTION('center_axis',(-1.,-1.89023787342808E-17,-1.08854175819127E-17));
#970=DIRECTION('ref_axis',(1.49977030804924E-17,-0.233468555838159,-0.972364352202838));
#971=DIRECTION('',(-1.9790428364187E-17,0.996087172256629,0.0883761577903972));
#972=DIRECTION('center_axis',(-1.,-1.89023787342808E-17,-1.08854175819127E-17));
#973=DIRECTION('ref_axis',(1.49977030804924E-17,-0.233468555838159,-0.972364352202838));
#974=DIRECTION('center_axis',(-9.17230521236539E-18,-0.0883761577903972,
0.996087172256629));
#975=DIRECTION('ref_axis',(1.,1.89023787342808E-17,1.08854175819127E-17));
#976=DIRECTION('',(1.,1.89023787342808E-17,1.08854175819127E-17));
#977=DIRECTION('',(1.9790428364187E-17,-0.996087172256629,-0.0883761577903972));
#978=DIRECTION('',(-1.,-1.89023787342808E-17,-1.08854175819127E-17));
#979=DIRECTION('center_axis',(1.,1.89023787342808E-17,1.08854175819127E-17));
#980=DIRECTION('ref_axis',(1.49977030804924E-17,-0.233468555838159,-0.972364352202838));
#981=DIRECTION('',(-1.,-1.89023787342808E-17,-1.08854175819127E-17));
#982=DIRECTION('center_axis',(1.,1.89023787342808E-17,1.08854175819127E-17));
#983=DIRECTION('ref_axis',(1.49977030804924E-17,-0.233468555838159,-0.972364352202838));
#984=DIRECTION('',(1.,1.89023787342808E-17,1.08854175819127E-17));
#985=DIRECTION('center_axis',(-1.,-2.71518032248624E-16,4.92971136601875E-17));
#986=DIRECTION('ref_axis',(1.49977030804924E-17,-0.233468555838159,-0.972364352202838));
#987=DIRECTION('center_axis',(-1.,-1.89023787342808E-17,-1.08854175819127E-17));
#988=DIRECTION('ref_axis',(-1.49977030804924E-17,0.233468555838159,0.972364352202838));
#989=DIRECTION('center_axis',(-1.,-1.9949931418433E-16,-7.62456914392318E-16));
#990=DIRECTION('ref_axis',(7.41843476974808E-16,0.0883727588225387,-0.996087473818486));
#991=DIRECTION('center_axis',(1.,2.71518032248624E-16,-4.92971136601876E-17));
#992=DIRECTION('ref_axis',(7.30990349921967E-17,-0.0883727588225387,0.996087473818486));
#993=DIRECTION('',(1.,1.9949931418433E-16,7.62456914392318E-16));
#994=DIRECTION('center_axis',(-1.,-1.9949931418433E-16,-7.62456914392318E-16));
#995=DIRECTION('ref_axis',(7.41843476974808E-16,0.0883727588225387,-0.996087473818486));
#996=DIRECTION('',(1.,1.9949931418433E-16,7.62456914392318E-16));
#997=DIRECTION('center_axis',(1.,2.71518032248624E-16,-4.92971136601875E-17));
#998=DIRECTION('ref_axis',(7.30990349921969E-17,-0.0883727588225386,0.996087473818486));
#999=DIRECTION('center_axis',(1.,2.71518032248624E-16,-4.92971136601876E-17));
#1000=DIRECTION('ref_axis',(0.,-0.088372758822539,0.996087473818486));
#1001=DIRECTION('center_axis',(-1.,-2.71518032248624E-16,4.92971136601876E-17));
#1002=DIRECTION('ref_axis',(7.30990349921969E-17,-0.0883727588225388,0.996087473818486));
#1003=DIRECTION('center_axis',(-7.30990349921973E-17,0.0883727588225388,
-0.996087473818486));
#1004=DIRECTION('ref_axis',(1.,2.71518032248624E-16,-4.9297113660188E-17));
#1005=DIRECTION('center_axis',(1.,2.71518032248624E-16,-4.92971136601876E-17));
#1006=DIRECTION('ref_axis',(7.30990349921969E-17,-0.0883727588225388,0.996087473818486));
#1007=DIRECTION('center_axis',(-2.73845660203163E-16,-0.0883727588225388,
0.996087473818486));
#1008=DIRECTION('ref_axis',(-1.,-2.40857572375365E-16,-2.96290151331684E-16));
#1009=DIRECTION('center_axis',(-1.,-1.9949931418433E-16,-7.62456914392318E-16));
#1010=DIRECTION('ref_axis',(7.41843476974808E-16,0.0883727588225387,-0.996087473818486));
#1011=DIRECTION('center_axis',(-1.,-1.9949931418433E-16,-7.62456914392318E-16));
#1012=DIRECTION('ref_axis',(7.41843476974808E-16,0.0883727588225387,-0.996087473818486));
#1013=DIRECTION('center_axis',(-1.,-2.53289594663732E-16,-1.56163467038156E-16));
#1014=DIRECTION('ref_axis',(2.66099188902559E-16,-0.996087473818486,-0.0883727588225387));
#1015=DIRECTION('center_axis',(1.,1.9949931418433E-16,7.62456914392318E-16));
#1016=DIRECTION('ref_axis',(-7.41843476974808E-16,-0.0883727588225386,0.996087473818486));
#1017=DIRECTION('',(2.66099188902559E-16,-0.996087473818486,-0.0883727588225387));
#1018=DIRECTION('center_axis',(-1.,-2.53289594663732E-16,-1.56163467038156E-16));
#1019=DIRECTION('ref_axis',(2.66099188902559E-16,-0.996087473818486,-0.0883727588225388));
#1020=DIRECTION('',(1.,2.53289594663732E-16,1.56163467038156E-16));
#1021=DIRECTION('',(-1.,-2.53289594663732E-16,-1.56163467038156E-16));
#1022=DIRECTION('center_axis',(1.,2.71518032248624E-16,-4.92971136601876E-17));
#1023=DIRECTION('ref_axis',(-7.30990349921969E-17,0.0883727588225388,-0.996087473818486));
#1024=DIRECTION('center_axis',(-1.,-2.53289594663732E-16,-1.56163467038156E-16));
#1025=DIRECTION('ref_axis',(2.66099188902559E-16,-0.996087473818486,-0.0883727588225388));
#1026=DIRECTION('',(-1.,-2.53289594663732E-16,-1.56163467038156E-16));
#1027=DIRECTION('center_axis',(-1.,-2.53289594663732E-16,-1.56163467038156E-16));
#1028=DIRECTION('ref_axis',(2.66099188902559E-16,-0.996087473818486,-0.0883727588225388));
#1029=DIRECTION('',(1.,2.53289594663732E-16,1.56163467038156E-16));
#1030=DIRECTION('center_axis',(-1.,-2.53289594663732E-16,-1.56163467038156E-16));
#1031=DIRECTION('ref_axis',(-2.66099188902559E-16,0.996087473818486,0.0883727588225396));
#1032=DIRECTION('center_axis',(-2.66099188902559E-16,0.996087473818486,
0.0883727588225388));
#1033=DIRECTION('ref_axis',(-1.,-2.53289594663732E-16,-1.56163467038156E-16));
#1034=DIRECTION('',(-2.66099188902559E-16,0.996087473818486,0.0883727588225387));
#1035=DIRECTION('center_axis',(-2.66099188902559E-16,0.996087473818486,
0.0883727588225388));
#1036=DIRECTION('ref_axis',(1.,2.53289594663732E-16,1.56163467038156E-16));
#1037=DIRECTION('center_axis',(2.66099188902559E-16,-0.996087473818486,
-0.0883727588225388));
#1038=DIRECTION('ref_axis',(1.,2.53289594663732E-16,1.56163467038156E-16));
#1039=DIRECTION('center_axis',(-1.,-2.53289594663732E-16,-1.56163467038156E-16));
#1040=DIRECTION('ref_axis',(2.66099188902559E-16,-0.996087473818486,-0.0883727588225386));
#1041=DIRECTION('center_axis',(1.,2.53289594663732E-16,1.56163467038156E-16));
#1042=DIRECTION('ref_axis',(-2.66099188902559E-16,0.996087473818486,0.0883727588225386));
#1043=DIRECTION('',(1.33168573123297E-16,0.0883727588225387,-0.996087473818486));
#1044=DIRECTION('',(1.33168573123297E-16,0.0883727588225387,-0.996087473818486));
#1045=DIRECTION('',(-2.66099188902559E-16,0.996087473818486,0.0883727588225387));
#1046=DIRECTION('center_axis',(-2.66099188902559E-16,0.996087473818486,
0.0883727588225388));
#1047=DIRECTION('ref_axis',(-1.,-2.53289594663732E-16,-1.56163467038156E-16));
#1048=DIRECTION('center_axis',(2.66099188902559E-16,-0.996087473818486,
-0.0883727588225388));
#1049=DIRECTION('ref_axis',(1.,2.53289594663732E-16,1.56163467038156E-16));
#1050=DIRECTION('',(-2.66099188902559E-16,0.996087473818486,0.0883727588225387));
#1051=DIRECTION('center_axis',(2.66099188902559E-16,-0.996087473818486,
-0.0883727588225388));
#1052=DIRECTION('ref_axis',(1.,2.53289594663732E-16,1.56163467038156E-16));
#1053=DIRECTION('center_axis',(-1.33168573123297E-16,-0.0883727588225388,
0.996087473818486));
#1054=DIRECTION('ref_axis',(2.66099188902559E-16,-0.996087473818486,-0.0883727588225386));
#1055=DIRECTION('',(1.,2.53289594663732E-16,1.56163467038156E-16));
#1056=DIRECTION('',(-2.66099188902559E-16,0.996087473818486,0.0883727588225387));
#1057=DIRECTION('',(1.,2.53289594663732E-16,1.56163467038156E-16));
#1058=DIRECTION('center_axis',(-2.66099188902559E-16,0.996087473818486,
0.0883727588225388));
#1059=DIRECTION('ref_axis',(-1.,-2.53289594663732E-16,-1.56163467038156E-16));
#1060=DIRECTION('center_axis',(2.66099188902559E-16,-0.996087473818486,
-0.0883727588225388));
#1061=DIRECTION('ref_axis',(1.,2.53289594663732E-16,1.56163467038156E-16));
#1062=DIRECTION('',(-2.66099188902559E-16,0.996087473818486,0.0883727588225387));
#1063=DIRECTION('center_axis',(2.66099188902559E-16,-0.996087473818486,
-0.0883727588225388));
#1064=DIRECTION('ref_axis',(1.,2.53289594663732E-16,1.56163467038156E-16));
#1065=DIRECTION('center_axis',(-1.,-2.71518032248624E-16,4.92971136601875E-17));
#1066=DIRECTION('ref_axis',(-7.30990349921969E-17,0.0883727588225386,-0.996087473818486));
#1067=DIRECTION('',(7.30990349921968E-17,-0.0883727588225387,0.996087473818486));
#1068=DIRECTION('',(7.30990349921968E-17,-0.0883727588225387,0.996087473818486));
#1069=DIRECTION('center_axis',(1.,2.71518032248624E-16,-4.92971136601875E-17));
#1070=DIRECTION('ref_axis',(7.30990349921969E-17,-0.0883727588225386,0.996087473818486));
#1071=DIRECTION('',(-2.66099188902559E-16,0.996087473818486,0.0883727588225387));
#1072=DIRECTION('',(7.30990349921968E-17,-0.0883727588225387,0.996087473818486));
#1073=DIRECTION('',(-7.30990349921968E-17,0.0883727588225387,-0.996087473818486));
#1074=DIRECTION('center_axis',(-2.66099188902559E-16,0.996087473818486,
0.0883727588225388));
#1075=DIRECTION('ref_axis',(-1.,-2.53289594663732E-16,-1.56163467038156E-16));
#1076=DIRECTION('',(-2.66099188902559E-16,0.996087473818486,0.0883727588225387));
#1077=DIRECTION('center_axis',(2.66099188902559E-16,-0.996087473818486,
-0.0883727588225388));
#1078=DIRECTION('ref_axis',(1.,2.53289594663732E-16,1.56163467038156E-16));
#1079=DIRECTION('center_axis',(-2.66099188902559E-16,0.996087473818486,
0.0883727588225388));
#1080=DIRECTION('ref_axis',(1.,2.53289594663732E-16,1.56163467038156E-16));
#1081=DIRECTION('center_axis',(1.33168573123297E-16,0.0883727588225388,
-0.996087473818486));
#1082=DIRECTION('ref_axis',(-2.66099188902559E-16,0.996087473818486,0.0883727588225386));
#1083=DIRECTION('',(-1.,-2.53289594663732E-16,-1.56163467038156E-16));
#1084=DIRECTION('',(1.,2.53289594663732E-16,1.56163467038156E-16));
#1085=DIRECTION('center_axis',(2.66099188902559E-16,-0.996087473818486,
-0.0883727588225388));
#1086=DIRECTION('ref_axis',(1.,2.53289594663732E-16,1.56163467038156E-16));
#1087=DIRECTION('',(-7.30990349921968E-17,0.0883727588225387,-0.996087473818486));
#1088=DIRECTION('center_axis',(-2.66099188902559E-16,0.996087473818486,
0.0883727588225388));
#1089=DIRECTION('ref_axis',(1.,2.53289594663732E-16,1.56163467038156E-16));
#1090=DIRECTION('',(-1.,-2.53289594663732E-16,-1.56163467038156E-16));
#1091=DIRECTION('center_axis',(-2.66099188902559E-16,0.996087473818486,
0.0883727588225388));
#1092=DIRECTION('ref_axis',(1.,2.53289594663732E-16,1.56163467038156E-16));
#1093=DIRECTION('',(-1.33168573123297E-16,-0.0883727588225387,0.996087473818486));
#1094=DIRECTION('center_axis',(2.66099188902559E-16,-0.996087473818486,
-0.0883727588225388));
#1095=DIRECTION('ref_axis',(1.,2.53289594663732E-16,1.56163467038156E-16));
#1096=DIRECTION('center_axis',(2.66099188902559E-16,-0.996087473818486,
-0.0883727588225388));
#1097=DIRECTION('ref_axis',(1.,2.53289594663732E-16,1.56163467038156E-16));
#1098=DIRECTION('',(7.30990349921968E-17,-0.0883727588225387,0.996087473818486));
#1099=DIRECTION('',(1.33168573123297E-16,0.0883727588225387,-0.996087473818486));
#1100=DIRECTION('center_axis',(2.66099188902559E-16,-0.996087473818486,
-0.0883727588225388));
#1101=DIRECTION('ref_axis',(1.,2.53289594663732E-16,1.56163467038156E-16));
#1102=DIRECTION('',(1.,2.53289594663732E-16,1.56163467038156E-16));
#1103=DIRECTION('center_axis',(-1.,-1.9949931418433E-16,-7.62456914392318E-16));
#1104=DIRECTION('ref_axis',(7.41843476974808E-16,0.0883727588225386,-0.996087473818486));
#1105=DIRECTION('center_axis',(2.66099188902559E-16,-0.996087473818486,
-0.0883727588225388));
#1106=DIRECTION('ref_axis',(1.,0.,0.));
#1107=DIRECTION('center_axis',(-1.33168573123297E-16,-0.0883727588225388,
0.996087473818486));
#1108=DIRECTION('ref_axis',(2.66099188902559E-16,-0.996087473818486,-0.0883727588225386));
#1109=DIRECTION('center_axis',(1.,2.53289594663732E-16,1.56163467038156E-16));
#1110=DIRECTION('ref_axis',(-2.66099188902559E-16,0.996087473818486,0.0883727588225386));
#1111=DIRECTION('center_axis',(-1.,-2.53289594663732E-16,-1.56163467038156E-16));
#1112=DIRECTION('ref_axis',(2.66099188902559E-16,-0.996087473818486,-0.0883727588225386));
#1113=DIRECTION('center_axis',(1.,2.53289594663732E-16,1.56163467038156E-16));
#1114=DIRECTION('ref_axis',(-2.66099188902559E-16,0.996087473818486,0.0883727588225386));
#1115=DIRECTION('center_axis',(-1.33168573123297E-16,-0.0883727588225388,
0.996087473818486));
#1116=DIRECTION('ref_axis',(2.66099188902559E-16,-0.996087473818486,-0.0883727588225386));
#1117=DIRECTION('center_axis',(-1.33168573123297E-16,-0.0883727588225388,
0.996087473818486));
#1118=DIRECTION('ref_axis',(2.66099188902559E-16,-0.996087473818486,-0.0883727588225386));
#1119=DIRECTION('center_axis',(2.66099188902559E-16,-0.996087473818486,
-0.0883727588225388));
#1120=DIRECTION('ref_axis',(1.,0.,0.));
#1121=DIRECTION('center_axis',(-1.33168573123297E-16,-0.0883727588225388,
0.996087473818486));
#1122=DIRECTION('ref_axis',(2.66099188902559E-16,-0.996087473818486,-0.0883727588225386));
#1123=DIRECTION('center_axis',(-1.,-2.53289594663732E-16,-1.56163467038156E-16));
#1124=DIRECTION('ref_axis',(0.,-0.996087473818486,-0.0883727588225387));
#1125=DIRECTION('center_axis',(1.33168573123297E-16,0.0883727588225388,
-0.996087473818486));
#1126=DIRECTION('ref_axis',(-2.66099188902559E-16,0.996087473818486,0.0883727588225386));
#1127=DIRECTION('center_axis',(-7.30990349921969E-17,0.0883727588225388,
-0.996087473818486));
#1128=DIRECTION('ref_axis',(1.,2.71518032248624E-16,-4.92971136601875E-17));
#1129=DIRECTION('center_axis',(1.33168573123297E-16,0.0883727588225388,
-0.996087473818486));
#1130=DIRECTION('ref_axis',(-2.66099188902559E-16,0.996087473818486,0.0883727588225386));
#1131=DIRECTION('center_axis',(1.33168573123297E-16,0.0883727588225388,
-0.996087473818486));
#1132=DIRECTION('ref_axis',(-2.66099188902559E-16,0.996087473818486,0.0883727588225386));
#1133=DIRECTION('center_axis',(2.66099188902559E-16,-0.996087473818486,
-0.0883727588225388));
#1134=DIRECTION('ref_axis',(1.,0.,0.));
#1135=DIRECTION('center_axis',(1.,2.53289594663732E-16,1.56163467038156E-16));
#1136=DIRECTION('ref_axis',(-2.66099188902559E-16,0.996087473818486,0.0883727588225386));
#1137=DIRECTION('center_axis',(7.30990349921969E-17,-0.0883727588225388,
0.996087473818486));
#1138=DIRECTION('ref_axis',(-1.,-2.71518032248624E-16,4.92971136601875E-17));
#1139=DIRECTION('center_axis',(1.33168573123297E-16,0.0883727588225388,
-0.996087473818486));
#1140=DIRECTION('ref_axis',(-2.66099188902559E-16,0.996087473818486,0.0883727588225386));
#1141=DIRECTION('center_axis',(1.,2.53289594663732E-16,1.56163467038156E-16));
#1142=DIRECTION('ref_axis',(-2.66099188902559E-16,0.996087473818486,0.0883727588225386));
#1143=DIRECTION('center_axis',(1.,2.53289594663732E-16,1.56163467038156E-16));
#1144=DIRECTION('ref_axis',(-2.66099188902559E-16,0.996087473818486,0.0883727588225386));
#1145=DIRECTION('center_axis',(2.66099188902559E-16,-0.996087473818486,
-0.0883727588225388));
#1146=DIRECTION('ref_axis',(1.,0.,0.));
#1147=DIRECTION('center_axis',(-7.41843476974808E-16,-0.0883727588225388,
0.996087473818486));
#1148=DIRECTION('ref_axis',(-1.,-1.9949931418433E-16,-7.62456914392318E-16));
#1149=CARTESIAN_POINT('',(0.,0.,0.));
#1150=CARTESIAN_POINT('Origin',(-276.805979594264,53.1751209462551,-28.7973861268969));
#1151=CARTESIAN_POINT('',(-275.705979594264,54.1556888807753,-24.713455847645));
#1152=CARTESIAN_POINT('Origin',(-275.705979594264,53.1751209462551,-28.7973861268969));
#1153=CARTESIAN_POINT('',(-277.905979594265,54.1556888807753,-24.713455847645));
#1154=CARTESIAN_POINT('',(-276.805979594264,54.1556888807753,-24.713455847645));
#1155=CARTESIAN_POINT('Origin',(-277.905979594265,53.1751209462551,-28.7973861268969));
#1156=CARTESIAN_POINT('Origin',(-96.4199795942645,53.1751209462551,-28.7973861268969));
#1157=CARTESIAN_POINT('',(-95.3199795942645,54.1556888807753,-24.713455847645));
#1158=CARTESIAN_POINT('Origin',(-95.3199795942645,53.1751209462551,-28.7973861268969));
#1159=CARTESIAN_POINT('',(-97.5199795942645,54.1556888807753,-24.713455847645));
#1160=CARTESIAN_POINT('',(-96.4199795942645,54.1556888807753,-24.713455847645));
#1161=CARTESIAN_POINT('Origin',(-97.5199795942645,53.1751209462551,-28.7973861268969));
#1162=CARTESIAN_POINT('Origin',(-282.905979594265,53.1751209462551,-28.7973861268969));
#1163=CARTESIAN_POINT('',(-282.905979594265,53.6420580579314,-26.8526574224912));
#1164=CARTESIAN_POINT('Origin',(-282.905979594265,53.1751209462551,-28.7973861268969));
#1165=CARTESIAN_POINT('Origin',(-90.3199795942645,53.1751209462551,-28.7973861268969));
#1166=CARTESIAN_POINT('',(-90.3199795942645,53.6420580579314,-26.8526574224912));
#1167=CARTESIAN_POINT('Origin',(-90.3199795942645,53.1751209462551,-28.7973861268969));
#1168=CARTESIAN_POINT('Origin',(-280.705979594264,53.1751209462551,-28.7973861268969));
#1169=CARTESIAN_POINT('',(-278.705979594265,53.6420580579314,-26.8526574224912));
#1170=CARTESIAN_POINT('',(-280.705979594264,53.6420580579314,-26.8526574224912));
#1171=CARTESIAN_POINT('Origin',(-278.705979594265,53.1751209462551,-28.7973861268969));
#1172=CARTESIAN_POINT('Origin',(-92.5199795942645,53.1751209462551,-28.7973861268969));
#1173=CARTESIAN_POINT('',(-94.5199795942645,53.6420580579314,-26.8526574224912));
#1174=CARTESIAN_POINT('Origin',(-94.5199795942645,53.1751209462551,-28.7973861268969));
#1175=CARTESIAN_POINT('',(-92.5199795942645,53.6420580579314,-26.8526574224912));
#1176=CARTESIAN_POINT('Origin',(-276.810979594264,53.1751209462551,-28.7973861268969));
#1177=CARTESIAN_POINT('',(-277.905979594265,56.1316355330768,-27.7104079772038));
#1178=CARTESIAN_POINT('',(-277.915979594264,56.1316355329575,-27.7104079768793));
#1179=CARTESIAN_POINT('',(-276.810979594264,56.1316355329575,-27.7104079768793));
#1180=CARTESIAN_POINT('',(-277.905979594265,50.2185801596314,-29.8842930120673));
#1181=CARTESIAN_POINT('Origin',(-277.905979594264,53.1751209462551,-28.7973861268969));
#1182=CARTESIAN_POINT('',(-277.915979594264,50.2185801597508,-29.8842930123919));
#1183=CARTESIAN_POINT('',(-276.810979594264,50.2185801597508,-29.8842930123919));
#1184=CARTESIAN_POINT('',(-277.915979594265,51.3204294665209,-26.2512872452739));
#1185=CARTESIAN_POINT('Origin',(-277.915979594264,53.1751209462551,-28.7973861268969));
#1186=CARTESIAN_POINT('',(-275.705979594264,51.3204294665209,-26.2512872452739));
#1187=CARTESIAN_POINT('',(-276.810979594264,51.3204294665209,-26.2512872452739));
#1188=CARTESIAN_POINT('',(-275.705979594264,54.5525728767878,-25.964520761393));
#1189=CARTESIAN_POINT('Origin',(-275.705979594264,53.1751209462551,-28.7973861268969));
#1190=CARTESIAN_POINT('',(-277.915979594265,54.5525728767878,-25.964520761393));
#1191=CARTESIAN_POINT('',(-276.810979594264,54.5525728767878,-25.964520761393));
#1192=CARTESIAN_POINT('Origin',(-277.915979594264,53.1751209462551,-28.7973861268969));
#1193=CARTESIAN_POINT('Origin',(-276.810979594264,54.552638590601,-25.9645149310455));
#1194=CARTESIAN_POINT('',(-277.915979594264,53.7445698811277,-26.0362094671895));
#1195=CARTESIAN_POINT('',(-275.705979594264,53.7445698811277,-26.0362094671895));
#1196=CARTESIAN_POINT('Origin',(-277.915979594264,53.1751209462551,-28.7973861268969));
#1197=CARTESIAN_POINT('',(-277.915979594264,54.5526383039846,-25.9644940482417));
#1198=CARTESIAN_POINT('Origin',(-277.915979594264,53.1750947450405,-28.7973148585318));
#1199=CARTESIAN_POINT('',(-277.915979594264,51.3203382884548,-26.2512633102017));
#1200=CARTESIAN_POINT('Origin',(-277.915979594264,53.1750947450405,-28.7973148585318));
#1201=CARTESIAN_POINT('',(-277.915979594264,53.7445731616269,-26.0361854888185));
#1202=CARTESIAN_POINT('Origin',(-275.705979594264,53.1751209462551,-28.7973861268969));
#1203=CARTESIAN_POINT('Origin',(-274.629930144088,54.5526383039846,-25.9644940482417));
#1204=CARTESIAN_POINT('',(-278.705979594265,51.3203382884548,-26.2512633102017));
#1205=CARTESIAN_POINT('',(-274.629930144088,51.3203382884548,-26.2512633102017));
#1206=CARTESIAN_POINT('',(-278.705979594265,54.5526383039846,-25.9644940482417));
#1207=CARTESIAN_POINT('',(-278.705979594265,54.5526383039846,-25.9644940482417));
#1208=CARTESIAN_POINT('',(-274.629930144088,54.5526383039846,-25.9644940482417));
#1209=CARTESIAN_POINT('Origin',(-277.905979594264,54.2220192185499,-153.754694273062));
#1210=CARTESIAN_POINT('',(-277.905979594264,55.7161504292776,-153.622135134828));
#1211=CARTESIAN_POINT('',(-277.905979594264,72.6496374841919,-152.119798234845));
#1212=CARTESIAN_POINT('',(-277.905979594264,54.2220192185499,-153.754694273062));
#1213=CARTESIAN_POINT('',(-277.905979594265,61.6418382724977,-28.0461464085401));
#1214=CARTESIAN_POINT('',(-277.905979594264,72.6496374841919,-152.119798234845));
#1215=CARTESIAN_POINT('',(-277.905979594265,44.7083512175834,-29.5484833085232));
#1216=CARTESIAN_POINT('Origin',(-277.905979594265,53.1750947450405,-28.7973148585317));
#1217=CARTESIAN_POINT('',(-277.905979594264,55.7161504292776,-153.622135134828));
#1218=CARTESIAN_POINT('Origin',(-95.3099795942645,53.1751209462551,-28.7973861268969));
#1219=CARTESIAN_POINT('',(-95.3099795942645,54.5526383039846,-25.9644940482417));
#1220=CARTESIAN_POINT('',(-95.3099795942645,56.1316355341148,-27.7104079800272));
#1221=CARTESIAN_POINT('Origin',(-95.3099795942645,53.1750947450406,-28.7973148585316));
#1222=CARTESIAN_POINT('',(-95.3099795942645,51.3203382884548,-26.2512633102017));
#1223=CARTESIAN_POINT('',(-95.3099795942645,53.7445731616269,-26.0361854888184));
#1224=CARTESIAN_POINT('',(-95.3099795942645,50.2185801585935,-29.8842930092439));
#1225=CARTESIAN_POINT('Origin',(-95.3099795942645,53.1750947450406,-28.7973148585316));
#1226=CARTESIAN_POINT('',(-95.3099795942645,51.3204294665209,-26.2512872452739));
#1227=CARTESIAN_POINT('Origin',(-95.3099795942645,53.1751209462551,-28.7973861268969));
#1228=CARTESIAN_POINT('',(-95.3099795942645,54.5525728767878,-25.964520761393));
#1229=CARTESIAN_POINT('',(-95.3099795942645,53.7445698811277,-26.0362094671895));
#1230=CARTESIAN_POINT('Origin',(-95.3099795942645,53.1751209462551,-28.7973861268969));
#1231=CARTESIAN_POINT('Origin',(-96.4149795942645,54.552638590601,-25.9645149310455));
#1232=CARTESIAN_POINT('',(-97.5199795942645,51.3204294665209,-26.2512872452739));
#1233=CARTESIAN_POINT('',(-96.4149795942645,51.3204294665209,-26.2512872452739));
#1234=CARTESIAN_POINT('',(-97.5199795942645,54.5525728767878,-25.964520761393));
#1235=CARTESIAN_POINT('',(-97.5199795942645,53.7445698811277,-26.0362094671895));
#1236=CARTESIAN_POINT('',(-96.4149795942645,54.5525728767878,-25.964520761393));
#1237=CARTESIAN_POINT('Origin',(-96.4149795942645,53.1751209462551,-28.7973861268969));
#1238=CARTESIAN_POINT('',(-95.3199795942645,56.1316355342122,-27.7104079802921));
#1239=CARTESIAN_POINT('',(-96.4149795942645,56.1316355341148,-27.7104079800272));
#1240=CARTESIAN_POINT('Origin',(-97.5199795942645,53.1751209462551,-28.7973861268969));
#1241=CARTESIAN_POINT('',(-95.3199795942645,50.2185801584961,-29.884293008979));
#1242=CARTESIAN_POINT('',(-96.4149795942645,50.2185801585935,-29.8842930092439));
#1243=CARTESIAN_POINT('Origin',(-95.3199795942645,53.1751209462551,-28.7973861268969));
#1244=CARTESIAN_POINT('Origin',(-97.5199795942645,53.1751209462551,-28.7973861268969));
#1245=CARTESIAN_POINT('Origin',(-89.3199795942645,53.1750947450406,-28.7973148585316));
#1246=CARTESIAN_POINT('Origin',(-95.3199795942645,53.1750947450406,-28.7973148585316));
#1247=CARTESIAN_POINT('',(-94.5199795942645,51.3203382884549,-26.2512633102017));
#1248=CARTESIAN_POINT('',(-98.5960290444405,51.3203382884548,-26.2512633102017));
#1249=CARTESIAN_POINT('',(-94.5199795942645,54.5526383039846,-25.9644940482417));
#1250=CARTESIAN_POINT('Origin',(-94.5199795942645,53.1750947450406,-28.7973148585316));
#1251=CARTESIAN_POINT('',(-98.5960290444405,54.5526383039846,-25.9644940482417));
#1252=CARTESIAN_POINT('Origin',(-95.3199795942645,42.3304924186303,-19.7201677085722));
#1253=CARTESIAN_POINT('Origin',(-93.8199795942645,53.1750947450406,-28.7973148585316));
#1254=CARTESIAN_POINT('',(-95.3199795942645,44.7083512175834,-29.5484833085232));
#1255=CARTESIAN_POINT('',(-95.3199795942645,61.6418382724977,-28.0461464085401));
#1256=CARTESIAN_POINT('Origin',(-95.3199795942645,53.1750947450406,-28.7973148585316));
#1257=CARTESIAN_POINT('',(-93.8199795942645,43.2142200068557,-29.681042446757));
#1258=CARTESIAN_POINT('Origin',(-93.8199795942645,44.7083512175835,-29.5484833085232));
#1259=CARTESIAN_POINT('',(-93.8199795942645,63.1359694832254,-27.9135872703062));
#1260=CARTESIAN_POINT('Origin',(-93.8199795942645,53.1750947450406,-28.7973148585316));
#1261=CARTESIAN_POINT('Origin',(-93.8199795942645,61.6418382724977,-28.0461464085401));
#1262=CARTESIAN_POINT('Origin',(-89.3199795942645,53.1750947450406,-28.7973148585316));
#1263=CARTESIAN_POINT('Origin',(-278.705979594265,53.1750947450405,-28.7973148585318));
#1264=CARTESIAN_POINT('Origin',(-277.905979594265,53.1750947450405,-28.7973148585318));
#1265=CARTESIAN_POINT('Origin',(-94.5199795942645,52.8967205547496,-25.6596393160034));
#1266=CARTESIAN_POINT('',(-94.5199795942645,54.5526383039846,-25.9644940482417));
#1267=CARTESIAN_POINT('Origin',(-95.3199795942645,53.1750947450406,-28.7973148585316));
#1268=CARTESIAN_POINT('',(-89.3199795942645,63.1359694832254,-27.9135872703063));
#1269=CARTESIAN_POINT('',(-268.905979594264,63.1359694832254,-27.9135872703063));
#1270=CARTESIAN_POINT('',(-89.3199795942645,43.2142200068557,-29.6810424467571));
#1271=CARTESIAN_POINT('',(-95.3199795942645,43.2142200068557,-29.681042446757));
#1272=CARTESIAN_POINT('Origin',(-89.3199795942645,53.1750947450406,-28.7973148585316));
#1273=CARTESIAN_POINT('Origin',(-283.905979594265,53.1750947450405,-28.7973148585317));
#1274=CARTESIAN_POINT('',(-279.405979594264,43.2142200068557,-29.6810424467571));
#1275=CARTESIAN_POINT('',(-283.905979594265,43.2142200068557,-29.6810424467571));
#1276=CARTESIAN_POINT('',(-283.905979594265,43.2142200068557,-29.6810424467571));
#1277=CARTESIAN_POINT('',(-279.405979594264,63.1359694832254,-27.9135872703063));
#1278=CARTESIAN_POINT('Origin',(-279.405979594264,53.1750947450405,-28.7973148585317));
#1279=CARTESIAN_POINT('',(-283.905979594265,63.1359694832254,-27.9135872703063));
#1280=CARTESIAN_POINT('',(-268.905979594264,63.1359694832254,-27.9135872703063));
#1281=CARTESIAN_POINT('Origin',(-283.905979594265,53.1750947450405,-28.7973148585317));
#1282=CARTESIAN_POINT('Origin',(-268.905979594264,54.2220192185499,-153.754694273062));
#1283=CARTESIAN_POINT('',(-268.905979594264,56.5115052586805,-162.586922399194));
#1284=CARTESIAN_POINT('',(-268.905979594264,73.4449923135948,-161.084585499211));
#1285=CARTESIAN_POINT('',(-268.905979594264,55.0173740479527,-162.719481537428));
#1286=CARTESIAN_POINT('Origin',(-268.905979594264,72.6496374841919,-152.119798234845));
#1287=CARTESIAN_POINT('Origin',(-268.905979594264,55.7161504292776,-153.622135134828));
#1288=CARTESIAN_POINT('Origin',(-277.905979594264,54.2220192185499,-153.754694273062));
#1289=CARTESIAN_POINT('Origin',(-283.905979594265,42.3304924186303,-19.7201677085722));
#1290=CARTESIAN_POINT('',(-283.905979594264,54.2220192185499,-153.754694273062));
#1291=CARTESIAN_POINT('',(-283.905979594265,42.3304924186303,-19.7201677085722));
#1292=CARTESIAN_POINT('',(-283.905979594264,74.1437686949196,-151.987239096611));
#1293=CARTESIAN_POINT('',(-283.905979594265,62.252241895,-17.9527125321214));
#1294=CARTESIAN_POINT('',(-283.905979594264,54.2220192185499,-153.754694273062));
#1295=CARTESIAN_POINT('Origin',(-268.905979594264,54.2220192185499,-153.754694273062));
#1296=CARTESIAN_POINT('',(-268.905979594264,75.4693600772577,-166.928551203888));
#1297=CARTESIAN_POINT('Origin',(-268.905979594264,74.1437686949196,-151.987239096611));
#1298=CARTESIAN_POINT('',(-268.905979594264,55.547610600888,-168.696006380339));
#1299=CARTESIAN_POINT('',(-268.905979594264,55.547610600888,-168.696006380339));
#1300=CARTESIAN_POINT('Origin',(-268.905979594264,54.2220192185499,-153.754694273062));
#1301=CARTESIAN_POINT('Origin',(-268.905979594264,55.547610600888,-168.696006380339));
#1302=CARTESIAN_POINT('',(-104.319979594264,75.4693600772578,-166.928551203888));
#1303=CARTESIAN_POINT('',(-268.905979594264,75.4693600772577,-166.928551203888));
#1304=CARTESIAN_POINT('',(-104.319979594264,55.547610600888,-168.696006380339));
#1305=CARTESIAN_POINT('',(-104.319979594264,55.547610600888,-168.696006380339));
#1306=CARTESIAN_POINT('',(-268.905979594264,55.547610600888,-168.696006380339));
#1307=CARTESIAN_POINT('Origin',(-104.319979594264,54.22201921855,-153.754694273061));
#1308=CARTESIAN_POINT('',(-89.3199795942644,74.1437686949197,-151.987239096611));
#1309=CARTESIAN_POINT('Origin',(-104.319979594264,74.1437686949197,-151.987239096611));
#1310=CARTESIAN_POINT('',(-89.3199795942644,54.22201921855,-153.754694273061));
#1311=CARTESIAN_POINT('',(-89.3199795942644,54.22201921855,-153.754694273061));
#1312=CARTESIAN_POINT('Origin',(-104.319979594264,54.22201921855,-153.754694273061));
#1313=CARTESIAN_POINT('Origin',(-89.3199795942644,54.22201921855,-153.754694273061));
#1314=CARTESIAN_POINT('',(-89.3199795942644,74.1437686949197,-151.987239096611));
#1315=CARTESIAN_POINT('',(-89.3199795942644,54.22201921855,-153.754694273061));
#1316=CARTESIAN_POINT('Origin',(-95.3199795942645,42.3304924186303,-19.7201677085722));
#1317=CARTESIAN_POINT('',(-95.3199795942645,55.7161504292777,-153.622135134828));
#1318=CARTESIAN_POINT('',(-95.3199795942645,72.649637484192,-152.119798234845));
#1319=CARTESIAN_POINT('',(-95.3199795942645,54.22201921855,-153.754694273061));
#1320=CARTESIAN_POINT('',(-95.3199795942645,44.7083512175835,-29.5484833085232));
#1321=CARTESIAN_POINT('',(-95.3199795942645,60.7581106842723,-18.0852716703552));
#1322=CARTESIAN_POINT('Origin',(-104.319979594264,54.22201921855,-153.754694273061));
#1323=CARTESIAN_POINT('',(-104.319979594264,56.5115052586805,-162.586922399194));
#1324=CARTESIAN_POINT('',(-104.319979594264,73.4449923135948,-161.084585499211));
#1325=CARTESIAN_POINT('',(-104.319979594264,55.0173740479528,-162.719481537428));
#1326=CARTESIAN_POINT('Origin',(-104.319979594264,55.7161504292777,-153.622135134828));
#1327=CARTESIAN_POINT('Origin',(-104.319979594264,72.649637484192,-152.119798234845));
#1328=CARTESIAN_POINT('Origin',(-104.319979594264,55.0173740479528,-162.719481537428));
#1329=CARTESIAN_POINT('',(-104.319979594264,73.4449923135948,-161.084585499211));
#1330=CARTESIAN_POINT('',(-104.319979594264,56.5115052586805,-162.586922399194));
#1331=CARTESIAN_POINT('Origin',(-268.905979594264,54.2220192185499,-153.754694273062));
#1332=CARTESIAN_POINT('',(-93.8199795942645,54.22201921855,-153.754694273061));
#1333=CARTESIAN_POINT('',(-93.8199795942644,54.22201921855,-153.754694273061));
#1334=CARTESIAN_POINT('',(-104.319979594264,55.1499331861866,-164.213612748156));
#1335=CARTESIAN_POINT('Origin',(-104.319979594264,54.22201921855,-153.754694273061));
#1336=CARTESIAN_POINT('',(-268.905979594264,55.1499331861866,-164.213612748156));
#1337=CARTESIAN_POINT('',(-268.905979594264,55.1499331861866,-164.213612748156));
#1338=CARTESIAN_POINT('',(-279.405979594264,54.2220192185499,-153.754694273062));
#1339=CARTESIAN_POINT('Origin',(-268.905979594264,54.2220192185499,-153.754694273062));
#1340=CARTESIAN_POINT('',(-279.405979594264,43.2142200068557,-29.6810424467571));
#1341=CARTESIAN_POINT('Origin',(-268.905979594264,74.1437686949196,-151.987239096611));
#1342=CARTESIAN_POINT('',(-104.319979594264,75.0716826625563,-162.446157571705));
#1343=CARTESIAN_POINT('',(-93.8199795942645,74.1437686949197,-151.987239096611));
#1344=CARTESIAN_POINT('Origin',(-104.319979594264,74.1437686949197,-151.987239096611));
#1345=CARTESIAN_POINT('',(-93.8199795942644,74.1437686949197,-151.987239096611));
#1346=CARTESIAN_POINT('',(-279.405979594264,74.1437686949196,-151.987239096611));
#1347=CARTESIAN_POINT('',(-279.405979594264,74.1437686949196,-151.987239096611));
#1348=CARTESIAN_POINT('',(-268.905979594264,75.0716826625563,-162.446157571705));
#1349=CARTESIAN_POINT('Origin',(-268.905979594264,74.1437686949196,-151.987239096611));
#1350=CARTESIAN_POINT('',(-268.905979594264,75.0716826625563,-162.446157571705));
#1351=CARTESIAN_POINT('Origin',(-278.705979594265,52.8967205547495,-25.6596393160034));
#1352=CARTESIAN_POINT('Origin',(-268.905979594264,72.6496374841919,-152.119798234845));
#1353=CARTESIAN_POINT('Origin',(-279.405979594264,72.6496374841919,-152.119798234845));
#1354=CARTESIAN_POINT('Origin',(-268.905979594264,73.5775514518285,-162.578716709939));
#1355=CARTESIAN_POINT('Origin',(-104.319979594264,73.5775514518286,-162.578716709939));
#1356=CARTESIAN_POINT('Origin',(-104.319979594264,73.5775514518286,-162.578716709939));
#1357=CARTESIAN_POINT('Origin',(-279.405979594264,72.6496374841919,-152.119798234845));
#1358=CARTESIAN_POINT('Origin',(-279.405979594264,61.6418382724977,-28.0461464085401));
#1359=CARTESIAN_POINT('Origin',(-104.319979594264,72.649637484192,-152.119798234845));
#1360=CARTESIAN_POINT('Origin',(-93.8199795942645,72.649637484192,-152.119798234845));
#1361=CARTESIAN_POINT('Origin',(-279.405979594264,53.1750947450405,-28.7973148585317));
#1362=CARTESIAN_POINT('Origin',(-279.405979594264,44.7083512175834,-29.5484833085232));
#1363=CARTESIAN_POINT('Origin',(-93.8199795942645,60.7581106842723,-18.0852716703552));
#1364=CARTESIAN_POINT('Origin',(-279.405979594264,55.7161504292776,-153.622135134828));
#1365=CARTESIAN_POINT('Origin',(-279.405979594264,55.7161504292776,-153.622135134828));
#1366=CARTESIAN_POINT('Origin',(-268.905979594264,55.7161504292776,-153.622135134828));
#1367=CARTESIAN_POINT('Origin',(-268.905979594264,56.6440643969143,-164.081053609922));
#1368=CARTESIAN_POINT('Origin',(-93.8199795942644,55.7161504292777,-153.622135134828));
#1369=CARTESIAN_POINT('Origin',(-93.8199795942644,55.7161504292777,-153.622135134828));
#1370=CARTESIAN_POINT('Origin',(-268.905979594264,56.6440643969143,-164.081053609922));
#1371=CARTESIAN_POINT('Origin',(-104.319979594264,56.6440643969143,-164.081053609922));
#1372=CARTESIAN_POINT('Origin',(-104.319979594264,55.7161504292777,-153.622135134828));
#1373=CARTESIAN_POINT('Origin',(-98.5960290444405,54.5526383039846,-25.9644940482417));
#1374=UNCERTAINTY_MEASURE_WITH_UNIT(LENGTH_MEASURE(0.01),#1378,
'DISTANCE_ACCURACY_VALUE',
'Maximum model space distance between geometric entities at asserted c
onnectivities');
#1375=UNCERTAINTY_MEASURE_WITH_UNIT(LENGTH_MEASURE(0.01),#1378,
'DISTANCE_ACCURACY_VALUE',
'Maximum model space distance between geometric entities at asserted c
onnectivities');
#1376=(
GEOMETRIC_REPRESENTATION_CONTEXT(3)
GLOBAL_UNCERTAINTY_ASSIGNED_CONTEXT((#1374))
GLOBAL_UNIT_ASSIGNED_CONTEXT((#1378,#1380,#1381))
REPRESENTATION_CONTEXT('','3D')
);
#1377=(
GEOMETRIC_REPRESENTATION_CONTEXT(3)
GLOBAL_UNCERTAINTY_ASSIGNED_CONTEXT((#1375))
GLOBAL_UNIT_ASSIGNED_CONTEXT((#1378,#1380,#1381))
REPRESENTATION_CONTEXT('','3D')
);
#1378=(
LENGTH_UNIT()
NAMED_UNIT(*)
SI_UNIT(.MILLI.,.METRE.)
);
#1379=(
LENGTH_UNIT()
NAMED_UNIT(*)
SI_UNIT($,.METRE.)
);
#1380=(
NAMED_UNIT(*)
PLANE_ANGLE_UNIT()
SI_UNIT($,.RADIAN.)
);
#1381=(
NAMED_UNIT(*)
SI_UNIT($,.STERADIAN.)
SOLID_ANGLE_UNIT()
);
#1382=SHAPE_DEFINITION_REPRESENTATION(#1383,#1384);
#1383=PRODUCT_DEFINITION_SHAPE('',$,#1386);
#1384=SHAPE_REPRESENTATION('',(#786),#1376);
#1385=PRODUCT_DEFINITION_CONTEXT('part definition',#1390,'design');
#1386=PRODUCT_DEFINITION('(Unsaved)','(Unsaved)',#1387,#1385);
#1387=PRODUCT_DEFINITION_FORMATION('',$,#1392);
#1388=PRODUCT_RELATED_PRODUCT_CATEGORY('(Unsaved)','(Unsaved)',(#1392));
#1389=APPLICATION_PROTOCOL_DEFINITION('international standard',
'automotive_design',2009,#1390);
#1390=APPLICATION_CONTEXT(
'Core Data for Automotive Mechanical Design Process');
#1391=PRODUCT_CONTEXT('part definition',#1390,'mechanical');
#1392=PRODUCT('(Unsaved)','(Unsaved)',$,(#1391));
#1393=PRESENTATION_STYLE_ASSIGNMENT((#1394));
#1394=SURFACE_STYLE_USAGE(.BOTH.,#1395);
#1395=SURFACE_SIDE_STYLE('',(#1396));
#1396=SURFACE_STYLE_FILL_AREA(#1397);
#1397=FILL_AREA_STYLE('Steel - Satin',(#1398));
#1398=FILL_AREA_STYLE_COLOUR('Steel - Satin',#1399);
#1399=COLOUR_RGB('Steel - Satin',0.627450980392157,0.627450980392157,0.627450980392157);
ENDSEC;
END-ISO-10303-21;
