ISO-10303-21;
HEADER;
/* Generated by software containing ST-Developer
 * from STEP Tools, Inc. (www.steptools.com) 
 */

FILE_DESCRIPTION(
/* description */ (''),
/* implementation_level */ '2;1');

FILE_NAME(
/* name */ 'openflight-kickstand-peg-left.step',
/* time_stamp */ '2026-09-11T16:57:57-07:00',
/* author */ (''),
/* organization */ (''),
/* preprocessor_version */ 'ST-DEVELOPER v20.2',
/* originating_system */ 'Autodesk Translation Framework v15.15.0.0',
/* authorisation */ '');

FILE_SCHEMA (('AUTOMOTIVE_DESIGN { 1 0 10303 214 3 1 1 }'));
ENDSEC;

DATA;
#10=MECHANICAL_DESIGN_GEOMETRIC_PRESENTATION_REPRESENTATION('',(#13),#959);
#11=SHAPE_REPRESENTATION_RELATIONSHIP('SRR','None',#966,#12);
#12=ADVANCED_BREP_SHAPE_REPRESENTATION('',(#14),#958);
#13=STYLED_ITEM('',(#975),#14);
#14=MANIFOLD_SOLID_BREP('openflight-kickstand-peg-left',#539);
#15=CYLINDRICAL_SURFACE('',#561,2.9);
#16=CYLINDRICAL_SURFACE('',#565,4.2);
#17=CYLINDRICAL_SURFACE('',#566,4.2);
#18=CYLINDRICAL_SURFACE('',#568,4.2);
#19=CYLINDRICAL_SURFACE('',#570,2.8);
#20=CYLINDRICAL_SURFACE('',#575,4.2);
#21=CYLINDRICAL_SURFACE('',#586,4.2);
#22=CYLINDRICAL_SURFACE('',#595,4.2);
#23=CYLINDRICAL_SURFACE('',#596,6.99999999999999);
#24=CYLINDRICAL_SURFACE('',#601,6.99999999999999);
#25=CYLINDRICAL_SURFACE('',#604,0.300000000000002);
#26=CYLINDRICAL_SURFACE('',#607,1.59999999999999);
#27=CYLINDRICAL_SURFACE('',#609,2.89999999999999);
#28=CYLINDRICAL_SURFACE('',#610,2.99999999999999);
#29=CYLINDRICAL_SURFACE('',#613,4.39999999999999);
#30=CYLINDRICAL_SURFACE('',#615,2.5);
#31=B_SPLINE_CURVE_WITH_KNOTS('',3,(#804,#805,#806,#807,#808,#809),
 .UNSPECIFIED.,.F.,.F.,(4,2,4),(2.30983491386368,2.36514176661414,2.42044861936459),
 .UNSPECIFIED.);
#32=B_SPLINE_CURVE_WITH_KNOTS('',3,(#830,#831,#832,#833),.UNSPECIFIED.,
 .F.,.F.,(4,4),(2.56872144220593,2.60901337213931),.UNSPECIFIED.);
#33=B_SPLINE_CURVE_WITH_KNOTS('',3,(#836,#837,#838,#839),.UNSPECIFIED.,
 .F.,.F.,(4,4),(2.12127016108896,2.16156209102234),.UNSPECIFIED.);
#34=LINE('',#803,#72);
#35=LINE('',#813,#73);
#36=LINE('',#815,#74);
#37=LINE('',#819,#75);
#38=LINE('',#821,#76);
#39=LINE('',#824,#77);
#40=LINE('',#845,#78);
#41=LINE('',#853,#79);
#42=LINE('',#857,#80);
#43=LINE('',#865,#81);
#44=LINE('',#867,#82);
#45=LINE('',#869,#83);
#46=LINE('',#871,#84);
#47=LINE('',#875,#85);
#48=LINE('',#877,#86);
#49=LINE('',#886,#87);
#50=LINE('',#890,#88);
#51=LINE('',#899,#89);
#52=LINE('',#901,#90);
#53=LINE('',#905,#91);
#54=LINE('',#907,#92);
#55=LINE('',#909,#93);
#56=LINE('',#911,#94);
#57=LINE('',#915,#95);
#58=LINE('',#917,#96);
#59=LINE('',#919,#97);
#60=LINE('',#920,#98);
#61=LINE('',#922,#99);
#62=LINE('',#923,#100);
#63=LINE('',#925,#101);
#64=LINE('',#929,#102);
#65=LINE('',#930,#103);
#66=LINE('',#932,#104);
#67=LINE('',#938,#105);
#68=LINE('',#943,#106);
#69=LINE('',#946,#107);
#70=LINE('',#948,#108);
#71=LINE('',#954,#109);
#72=VECTOR('',#636,1.94641016151379);
#73=VECTOR('',#639,10.);
#74=VECTOR('',#640,10.);
#75=VECTOR('',#643,10.);
#76=VECTOR('',#644,10.);
#77=VECTOR('',#647,2.9);
#78=VECTOR('',#664,2.8);
#79=VECTOR('',#673,10.);
#80=VECTOR('',#676,10.);
#81=VECTOR('',#685,10.);
#82=VECTOR('',#686,10.);
#83=VECTOR('',#687,10.);
#84=VECTOR('',#688,10.);
#85=VECTOR('',#691,10.);
#86=VECTOR('',#692,1000.);
#87=VECTOR('',#701,1000.);
#88=VECTOR('',#706,10.);
#89=VECTOR('',#715,1000.);
#90=VECTOR('',#716,10.);
#91=VECTOR('',#719,10.);
#92=VECTOR('',#720,10.);
#93=VECTOR('',#721,10.);
#94=VECTOR('',#722,10.);
#95=VECTOR('',#729,10.);
#96=VECTOR('',#732,1000.);
#97=VECTOR('',#735,10.);
#98=VECTOR('',#736,10.);
#99=VECTOR('',#739,10.);
#100=VECTOR('',#740,10.);
#101=VECTOR('',#743,10.);
#102=VECTOR('',#750,10.);
#103=VECTOR('',#751,10.);
#104=VECTOR('',#754,1000.);
#105=VECTOR('',#763,1.59999999999999);
#106=VECTOR('',#770,1000.);
#107=VECTOR('',#773,1000.);
#108=VECTOR('',#776,1000.);
#109=VECTOR('',#785,2.5);
#110=CONICAL_SURFACE('',#558,1.94641016151379,1.04719755119659);
#111=CONICAL_SURFACE('',#605,3.24641016151378,1.0471975511966);
#112=FACE_BOUND('',#150,.T.);
#113=FACE_BOUND('',#158,.T.);
#114=FACE_BOUND('',#161,.T.);
#115=FACE_BOUND('',#162,.T.);
#116=FACE_BOUND('',#165,.T.);
#117=FACE_BOUND('',#181,.T.);
#118=FACE_OUTER_BOUND('',#149,.T.);
#119=FACE_OUTER_BOUND('',#151,.T.);
#120=FACE_OUTER_BOUND('',#152,.T.);
#121=FACE_OUTER_BOUND('',#153,.T.);
#122=FACE_OUTER_BOUND('',#154,.T.);
#123=FACE_OUTER_BOUND('',#155,.T.);
#124=FACE_OUTER_BOUND('',#156,.T.);
#125=FACE_OUTER_BOUND('',#157,.T.);
#126=FACE_OUTER_BOUND('',#159,.T.);
#127=FACE_OUTER_BOUND('',#160,.T.);
#128=FACE_OUTER_BOUND('',#163,.T.);
#129=FACE_OUTER_BOUND('',#164,.T.);
#130=FACE_OUTER_BOUND('',#166,.T.);
#131=FACE_OUTER_BOUND('',#167,.T.);
#132=FACE_OUTER_BOUND('',#168,.T.);
#133=FACE_OUTER_BOUND('',#169,.T.);
#134=FACE_OUTER_BOUND('',#170,.T.);
#135=FACE_OUTER_BOUND('',#171,.T.);
#136=FACE_OUTER_BOUND('',#172,.T.);
#137=FACE_OUTER_BOUND('',#173,.T.);
#138=FACE_OUTER_BOUND('',#174,.T.);
#139=FACE_OUTER_BOUND('',#175,.T.);
#140=FACE_OUTER_BOUND('',#176,.T.);
#141=FACE_OUTER_BOUND('',#177,.T.);
#142=FACE_OUTER_BOUND('',#178,.T.);
#143=FACE_OUTER_BOUND('',#179,.T.);
#144=FACE_OUTER_BOUND('',#180,.T.);
#145=FACE_OUTER_BOUND('',#182,.T.);
#146=FACE_OUTER_BOUND('',#183,.T.);
#147=FACE_OUTER_BOUND('',#184,.T.);
#148=FACE_OUTER_BOUND('',#185,.T.);
#149=EDGE_LOOP('',(#345));
#150=EDGE_LOOP('',(#346,#347,#348));
#151=EDGE_LOOP('',(#349,#350,#351,#352,#353,#354,#355));
#152=EDGE_LOOP('',(#356,#357,#358,#359,#360,#361,#362,#363,#364,#365));
#153=EDGE_LOOP('',(#366,#367));
#154=EDGE_LOOP('',(#368,#369,#370));
#155=EDGE_LOOP('',(#371,#372,#373));
#156=EDGE_LOOP('',(#374,#375,#376,#377));
#157=EDGE_LOOP('',(#378));
#158=EDGE_LOOP('',(#379));
#159=EDGE_LOOP('',(#380,#381,#382,#383));
#160=EDGE_LOOP('',(#384,#385,#386,#387,#388,#389,#390,#391,#392,#393,#394,
#395,#396));
#161=EDGE_LOOP('',(#397));
#162=EDGE_LOOP('',(#398,#399));
#163=EDGE_LOOP('',(#400,#401,#402,#403));
#164=EDGE_LOOP('',(#404,#405,#406,#407,#408,#409,#410,#411,#412,#413,#414,
#415,#416));
#165=EDGE_LOOP('',(#417,#418,#419,#420));
#166=EDGE_LOOP('',(#421,#422,#423,#424));
#167=EDGE_LOOP('',(#425,#426,#427,#428));
#168=EDGE_LOOP('',(#429,#430,#431,#432));
#169=EDGE_LOOP('',(#433,#434,#435,#436));
#170=EDGE_LOOP('',(#437,#438,#439,#440));
#171=EDGE_LOOP('',(#441,#442,#443,#444));
#172=EDGE_LOOP('',(#445,#446,#447,#448));
#173=EDGE_LOOP('',(#449,#450,#451,#452));
#174=EDGE_LOOP('',(#453,#454,#455,#456));
#175=EDGE_LOOP('',(#457,#458,#459,#460));
#176=EDGE_LOOP('',(#461,#462,#463,#464));
#177=EDGE_LOOP('',(#465,#466,#467,#468,#469));
#178=EDGE_LOOP('',(#470,#471,#472,#473,#474));
#179=EDGE_LOOP('',(#475,#476,#477,#478));
#180=EDGE_LOOP('',(#479,#480));
#181=EDGE_LOOP('',(#481));
#182=EDGE_LOOP('',(#482,#483,#484,#485));
#183=EDGE_LOOP('',(#486,#487,#488,#489));
#184=EDGE_LOOP('',(#490,#491,#492,#493));
#185=EDGE_LOOP('',(#494));
#186=CIRCLE('',#554,2.9);
#187=CIRCLE('',#555,4.2);
#188=CIRCLE('',#556,1.91176914536243);
#189=CIRCLE('',#557,1.91176914536243);
#190=CIRCLE('',#559,1.59999999999999);
#191=CIRCLE('',#560,1.59999999999999);
#192=CIRCLE('',#562,2.9);
#193=CIRCLE('',#563,2.89999999999999);
#194=CIRCLE('',#564,2.89999999999999);
#195=CIRCLE('',#567,4.2);
#196=CIRCLE('',#569,4.2);
#197=CIRCLE('',#571,2.8);
#198=CIRCLE('',#572,2.8);
#199=CIRCLE('',#574,2.5);
#200=CIRCLE('',#576,4.2);
#201=CIRCLE('',#577,4.2);
#202=CIRCLE('',#579,4.2);
#203=CIRCLE('',#580,6.99999999999998);
#204=CIRCLE('',#581,4.40000000000001);
#205=CIRCLE('',#582,0.300000000000002);
#206=CIRCLE('',#583,6.99999999999998);
#207=CIRCLE('',#584,4.2);
#208=CIRCLE('',#585,2.99999999999999);
#209=CIRCLE('',#587,4.2);
#210=CIRCLE('',#589,4.2);
#211=CIRCLE('',#590,6.99999999999999);
#212=CIRCLE('',#591,0.300000000000002);
#213=CIRCLE('',#592,4.40000000000001);
#214=CIRCLE('',#593,6.99999999999999);
#215=CIRCLE('',#594,3.24641016151378);
#216=CIRCLE('',#606,2.89999999999999);
#217=CIRCLE('',#608,1.59999999999999);
#218=CIRCLE('',#611,2.99999999999999);
#219=CIRCLE('',#616,2.5);
#220=VERTEX_POINT('',#790);
#221=VERTEX_POINT('',#792);
#222=VERTEX_POINT('',#793);
#223=VERTEX_POINT('',#795);
#224=VERTEX_POINT('',#799);
#225=VERTEX_POINT('',#800);
#226=VERTEX_POINT('',#811);
#227=VERTEX_POINT('',#812);
#228=VERTEX_POINT('',#814);
#229=VERTEX_POINT('',#816);
#230=VERTEX_POINT('',#818);
#231=VERTEX_POINT('',#820);
#232=VERTEX_POINT('',#822);
#233=VERTEX_POINT('',#828);
#234=VERTEX_POINT('',#835);
#235=VERTEX_POINT('',#842);
#236=VERTEX_POINT('',#844);
#237=VERTEX_POINT('',#848);
#238=VERTEX_POINT('',#851);
#239=VERTEX_POINT('',#852);
#240=VERTEX_POINT('',#854);
#241=VERTEX_POINT('',#856);
#242=VERTEX_POINT('',#860);
#243=VERTEX_POINT('',#862);
#244=VERTEX_POINT('',#864);
#245=VERTEX_POINT('',#866);
#246=VERTEX_POINT('',#868);
#247=VERTEX_POINT('',#870);
#248=VERTEX_POINT('',#872);
#249=VERTEX_POINT('',#874);
#250=VERTEX_POINT('',#876);
#251=VERTEX_POINT('',#878);
#252=VERTEX_POINT('',#880);
#253=VERTEX_POINT('',#883);
#254=VERTEX_POINT('',#884);
#255=VERTEX_POINT('',#888);
#256=VERTEX_POINT('',#892);
#257=VERTEX_POINT('',#894);
#258=VERTEX_POINT('',#896);
#259=VERTEX_POINT('',#898);
#260=VERTEX_POINT('',#900);
#261=VERTEX_POINT('',#902);
#262=VERTEX_POINT('',#904);
#263=VERTEX_POINT('',#906);
#264=VERTEX_POINT('',#908);
#265=VERTEX_POINT('',#910);
#266=VERTEX_POINT('',#937);
#267=VERTEX_POINT('',#942);
#268=VERTEX_POINT('',#944);
#269=VERTEX_POINT('',#952);
#270=EDGE_CURVE('',#220,#220,#186,.T.);
#271=EDGE_CURVE('',#221,#222,#187,.T.);
#272=EDGE_CURVE('',#223,#221,#188,.T.);
#273=EDGE_CURVE('',#222,#223,#189,.T.);
#274=EDGE_CURVE('',#224,#225,#190,.T.);
#275=EDGE_CURVE('',#225,#224,#191,.T.);
#276=EDGE_CURVE('',#225,#223,#34,.T.);
#277=EDGE_CURVE('',#221,#222,#31,.T.);
#278=EDGE_CURVE('',#226,#227,#35,.T.);
#279=EDGE_CURVE('',#228,#226,#36,.T.);
#280=EDGE_CURVE('',#229,#228,#192,.T.);
#281=EDGE_CURVE('',#230,#229,#37,.T.);
#282=EDGE_CURVE('',#231,#230,#38,.T.);
#283=EDGE_CURVE('',#232,#231,#193,.T.);
#284=EDGE_CURVE('',#232,#220,#39,.T.);
#285=EDGE_CURVE('',#227,#232,#194,.T.);
#286=EDGE_CURVE('',#233,#229,#195,.T.);
#287=EDGE_CURVE('',#230,#233,#32,.T.);
#288=EDGE_CURVE('',#234,#226,#33,.T.);
#289=EDGE_CURVE('',#228,#234,#196,.T.);
#290=EDGE_CURVE('',#235,#235,#197,.T.);
#291=EDGE_CURVE('',#235,#236,#40,.T.);
#292=EDGE_CURVE('',#236,#236,#198,.T.);
#293=EDGE_CURVE('',#237,#237,#199,.T.);
#294=EDGE_CURVE('',#238,#239,#41,.T.);
#295=EDGE_CURVE('',#240,#238,#200,.T.);
#296=EDGE_CURVE('',#241,#240,#42,.T.);
#297=EDGE_CURVE('',#239,#241,#201,.T.);
#298=EDGE_CURVE('',#241,#242,#202,.T.);
#299=EDGE_CURVE('',#242,#243,#203,.T.);
#300=EDGE_CURVE('',#244,#243,#43,.T.);
#301=EDGE_CURVE('',#245,#244,#44,.T.);
#302=EDGE_CURVE('',#245,#246,#45,.T.);
#303=EDGE_CURVE('',#246,#247,#46,.T.);
#304=EDGE_CURVE('',#247,#248,#204,.T.);
#305=EDGE_CURVE('',#248,#249,#47,.T.);
#306=EDGE_CURVE('',#249,#250,#48,.T.);
#307=EDGE_CURVE('',#250,#251,#205,.T.);
#308=EDGE_CURVE('',#251,#252,#206,.T.);
#309=EDGE_CURVE('',#252,#239,#207,.T.);
#310=EDGE_CURVE('',#253,#254,#208,.T.);
#311=EDGE_CURVE('',#253,#254,#49,.T.);
#312=EDGE_CURVE('',#255,#240,#209,.T.);
#313=EDGE_CURVE('',#242,#255,#50,.T.);
#314=EDGE_CURVE('',#238,#256,#210,.T.);
#315=EDGE_CURVE('',#257,#256,#211,.T.);
#316=EDGE_CURVE('',#257,#258,#212,.T.);
#317=EDGE_CURVE('',#259,#258,#51,.T.);
#318=EDGE_CURVE('',#259,#260,#52,.T.);
#319=EDGE_CURVE('',#260,#261,#213,.T.);
#320=EDGE_CURVE('',#262,#261,#53,.T.);
#321=EDGE_CURVE('',#262,#263,#54,.T.);
#322=EDGE_CURVE('',#263,#264,#55,.T.);
#323=EDGE_CURVE('',#265,#264,#56,.T.);
#324=EDGE_CURVE('',#255,#265,#214,.T.);
#325=EDGE_CURVE('',#234,#233,#215,.T.);
#326=EDGE_CURVE('',#256,#252,#57,.T.);
#327=EDGE_CURVE('',#251,#257,#58,.T.);
#328=EDGE_CURVE('',#247,#261,#59,.T.);
#329=EDGE_CURVE('',#246,#262,#60,.T.);
#330=EDGE_CURVE('',#264,#244,#61,.T.);
#331=EDGE_CURVE('',#263,#245,#62,.T.);
#332=EDGE_CURVE('',#265,#243,#63,.T.);
#333=EDGE_CURVE('',#249,#259,#64,.T.);
#334=EDGE_CURVE('',#260,#248,#65,.T.);
#335=EDGE_CURVE('',#258,#250,#66,.T.);
#336=EDGE_CURVE('',#230,#226,#216,.T.);
#337=EDGE_CURVE('',#224,#266,#67,.T.);
#338=EDGE_CURVE('',#266,#266,#217,.T.);
#339=EDGE_CURVE('',#254,#267,#68,.T.);
#340=EDGE_CURVE('',#268,#267,#218,.T.);
#341=EDGE_CURVE('',#253,#268,#69,.T.);
#342=EDGE_CURVE('',#268,#267,#70,.T.);
#343=EDGE_CURVE('',#269,#269,#219,.T.);
#344=EDGE_CURVE('',#269,#237,#71,.T.);
#345=ORIENTED_EDGE('',*,*,#270,.F.);
#346=ORIENTED_EDGE('',*,*,#271,.F.);
#347=ORIENTED_EDGE('',*,*,#272,.F.);
#348=ORIENTED_EDGE('',*,*,#273,.F.);
#349=ORIENTED_EDGE('',*,*,#274,.F.);
#350=ORIENTED_EDGE('',*,*,#275,.F.);
#351=ORIENTED_EDGE('',*,*,#276,.T.);
#352=ORIENTED_EDGE('',*,*,#272,.T.);
#353=ORIENTED_EDGE('',*,*,#277,.T.);
#354=ORIENTED_EDGE('',*,*,#273,.T.);
#355=ORIENTED_EDGE('',*,*,#276,.F.);
#356=ORIENTED_EDGE('',*,*,#278,.F.);
#357=ORIENTED_EDGE('',*,*,#279,.F.);
#358=ORIENTED_EDGE('',*,*,#280,.F.);
#359=ORIENTED_EDGE('',*,*,#281,.F.);
#360=ORIENTED_EDGE('',*,*,#282,.F.);
#361=ORIENTED_EDGE('',*,*,#283,.F.);
#362=ORIENTED_EDGE('',*,*,#284,.T.);
#363=ORIENTED_EDGE('',*,*,#270,.T.);
#364=ORIENTED_EDGE('',*,*,#284,.F.);
#365=ORIENTED_EDGE('',*,*,#285,.F.);
#366=ORIENTED_EDGE('',*,*,#271,.T.);
#367=ORIENTED_EDGE('',*,*,#277,.F.);
#368=ORIENTED_EDGE('',*,*,#281,.T.);
#369=ORIENTED_EDGE('',*,*,#286,.F.);
#370=ORIENTED_EDGE('',*,*,#287,.F.);
#371=ORIENTED_EDGE('',*,*,#279,.T.);
#372=ORIENTED_EDGE('',*,*,#288,.F.);
#373=ORIENTED_EDGE('',*,*,#289,.F.);
#374=ORIENTED_EDGE('',*,*,#290,.T.);
#375=ORIENTED_EDGE('',*,*,#291,.T.);
#376=ORIENTED_EDGE('',*,*,#292,.F.);
#377=ORIENTED_EDGE('',*,*,#291,.F.);
#378=ORIENTED_EDGE('',*,*,#290,.F.);
#379=ORIENTED_EDGE('',*,*,#293,.F.);
#380=ORIENTED_EDGE('',*,*,#294,.F.);
#381=ORIENTED_EDGE('',*,*,#295,.F.);
#382=ORIENTED_EDGE('',*,*,#296,.F.);
#383=ORIENTED_EDGE('',*,*,#297,.F.);
#384=ORIENTED_EDGE('',*,*,#298,.T.);
#385=ORIENTED_EDGE('',*,*,#299,.T.);
#386=ORIENTED_EDGE('',*,*,#300,.F.);
#387=ORIENTED_EDGE('',*,*,#301,.F.);
#388=ORIENTED_EDGE('',*,*,#302,.T.);
#389=ORIENTED_EDGE('',*,*,#303,.T.);
#390=ORIENTED_EDGE('',*,*,#304,.T.);
#391=ORIENTED_EDGE('',*,*,#305,.T.);
#392=ORIENTED_EDGE('',*,*,#306,.T.);
#393=ORIENTED_EDGE('',*,*,#307,.T.);
#394=ORIENTED_EDGE('',*,*,#308,.T.);
#395=ORIENTED_EDGE('',*,*,#309,.T.);
#396=ORIENTED_EDGE('',*,*,#297,.T.);
#397=ORIENTED_EDGE('',*,*,#292,.T.);
#398=ORIENTED_EDGE('',*,*,#310,.F.);
#399=ORIENTED_EDGE('',*,*,#311,.T.);
#400=ORIENTED_EDGE('',*,*,#296,.T.);
#401=ORIENTED_EDGE('',*,*,#312,.F.);
#402=ORIENTED_EDGE('',*,*,#313,.F.);
#403=ORIENTED_EDGE('',*,*,#298,.F.);
#404=ORIENTED_EDGE('',*,*,#314,.T.);
#405=ORIENTED_EDGE('',*,*,#315,.F.);
#406=ORIENTED_EDGE('',*,*,#316,.T.);
#407=ORIENTED_EDGE('',*,*,#317,.F.);
#408=ORIENTED_EDGE('',*,*,#318,.T.);
#409=ORIENTED_EDGE('',*,*,#319,.T.);
#410=ORIENTED_EDGE('',*,*,#320,.F.);
#411=ORIENTED_EDGE('',*,*,#321,.T.);
#412=ORIENTED_EDGE('',*,*,#322,.T.);
#413=ORIENTED_EDGE('',*,*,#323,.F.);
#414=ORIENTED_EDGE('',*,*,#324,.F.);
#415=ORIENTED_EDGE('',*,*,#312,.T.);
#416=ORIENTED_EDGE('',*,*,#295,.T.);
#417=ORIENTED_EDGE('',*,*,#280,.T.);
#418=ORIENTED_EDGE('',*,*,#289,.T.);
#419=ORIENTED_EDGE('',*,*,#325,.T.);
#420=ORIENTED_EDGE('',*,*,#286,.T.);
#421=ORIENTED_EDGE('',*,*,#294,.T.);
#422=ORIENTED_EDGE('',*,*,#309,.F.);
#423=ORIENTED_EDGE('',*,*,#326,.F.);
#424=ORIENTED_EDGE('',*,*,#314,.F.);
#425=ORIENTED_EDGE('',*,*,#326,.T.);
#426=ORIENTED_EDGE('',*,*,#308,.F.);
#427=ORIENTED_EDGE('',*,*,#327,.T.);
#428=ORIENTED_EDGE('',*,*,#315,.T.);
#429=ORIENTED_EDGE('',*,*,#328,.F.);
#430=ORIENTED_EDGE('',*,*,#303,.F.);
#431=ORIENTED_EDGE('',*,*,#329,.T.);
#432=ORIENTED_EDGE('',*,*,#320,.T.);
#433=ORIENTED_EDGE('',*,*,#301,.T.);
#434=ORIENTED_EDGE('',*,*,#330,.F.);
#435=ORIENTED_EDGE('',*,*,#322,.F.);
#436=ORIENTED_EDGE('',*,*,#331,.T.);
#437=ORIENTED_EDGE('',*,*,#332,.F.);
#438=ORIENTED_EDGE('',*,*,#323,.T.);
#439=ORIENTED_EDGE('',*,*,#330,.T.);
#440=ORIENTED_EDGE('',*,*,#300,.T.);
#441=ORIENTED_EDGE('',*,*,#329,.F.);
#442=ORIENTED_EDGE('',*,*,#302,.F.);
#443=ORIENTED_EDGE('',*,*,#331,.F.);
#444=ORIENTED_EDGE('',*,*,#321,.F.);
#445=ORIENTED_EDGE('',*,*,#313,.T.);
#446=ORIENTED_EDGE('',*,*,#324,.T.);
#447=ORIENTED_EDGE('',*,*,#332,.T.);
#448=ORIENTED_EDGE('',*,*,#299,.F.);
#449=ORIENTED_EDGE('',*,*,#318,.F.);
#450=ORIENTED_EDGE('',*,*,#333,.F.);
#451=ORIENTED_EDGE('',*,*,#305,.F.);
#452=ORIENTED_EDGE('',*,*,#334,.F.);
#453=ORIENTED_EDGE('',*,*,#333,.T.);
#454=ORIENTED_EDGE('',*,*,#317,.T.);
#455=ORIENTED_EDGE('',*,*,#335,.T.);
#456=ORIENTED_EDGE('',*,*,#306,.F.);
#457=ORIENTED_EDGE('',*,*,#316,.F.);
#458=ORIENTED_EDGE('',*,*,#327,.F.);
#459=ORIENTED_EDGE('',*,*,#307,.F.);
#460=ORIENTED_EDGE('',*,*,#335,.F.);
#461=ORIENTED_EDGE('',*,*,#288,.T.);
#462=ORIENTED_EDGE('',*,*,#336,.F.);
#463=ORIENTED_EDGE('',*,*,#287,.T.);
#464=ORIENTED_EDGE('',*,*,#325,.F.);
#465=ORIENTED_EDGE('',*,*,#274,.T.);
#466=ORIENTED_EDGE('',*,*,#275,.T.);
#467=ORIENTED_EDGE('',*,*,#337,.T.);
#468=ORIENTED_EDGE('',*,*,#338,.T.);
#469=ORIENTED_EDGE('',*,*,#337,.F.);
#470=ORIENTED_EDGE('',*,*,#278,.T.);
#471=ORIENTED_EDGE('',*,*,#285,.T.);
#472=ORIENTED_EDGE('',*,*,#283,.T.);
#473=ORIENTED_EDGE('',*,*,#282,.T.);
#474=ORIENTED_EDGE('',*,*,#336,.T.);
#475=ORIENTED_EDGE('',*,*,#310,.T.);
#476=ORIENTED_EDGE('',*,*,#339,.T.);
#477=ORIENTED_EDGE('',*,*,#340,.F.);
#478=ORIENTED_EDGE('',*,*,#341,.F.);
#479=ORIENTED_EDGE('',*,*,#342,.F.);
#480=ORIENTED_EDGE('',*,*,#340,.T.);
#481=ORIENTED_EDGE('',*,*,#338,.F.);
#482=ORIENTED_EDGE('',*,*,#328,.T.);
#483=ORIENTED_EDGE('',*,*,#319,.F.);
#484=ORIENTED_EDGE('',*,*,#334,.T.);
#485=ORIENTED_EDGE('',*,*,#304,.F.);
#486=ORIENTED_EDGE('',*,*,#341,.T.);
#487=ORIENTED_EDGE('',*,*,#342,.T.);
#488=ORIENTED_EDGE('',*,*,#339,.F.);
#489=ORIENTED_EDGE('',*,*,#311,.F.);
#490=ORIENTED_EDGE('',*,*,#343,.T.);
#491=ORIENTED_EDGE('',*,*,#344,.T.);
#492=ORIENTED_EDGE('',*,*,#293,.T.);
#493=ORIENTED_EDGE('',*,*,#344,.F.);
#494=ORIENTED_EDGE('',*,*,#343,.F.);
#495=PLANE('',#553);
#496=PLANE('',#573);
#497=PLANE('',#578);
#498=PLANE('',#588);
#499=PLANE('',#597);
#500=PLANE('',#598);
#501=PLANE('',#599);
#502=PLANE('',#600);
#503=PLANE('',#602);
#504=PLANE('',#603);
#505=PLANE('',#612);
#506=PLANE('',#614);
#507=PLANE('',#617);
#508=ADVANCED_FACE('',(#118,#112),#495,.F.);
#509=ADVANCED_FACE('',(#119),#110,.F.);
#510=ADVANCED_FACE('',(#120),#15,.F.);
#511=ADVANCED_FACE('',(#121),#16,.T.);
#512=ADVANCED_FACE('',(#122),#17,.T.);
#513=ADVANCED_FACE('',(#123),#18,.T.);
#514=ADVANCED_FACE('',(#124),#19,.F.);
#515=ADVANCED_FACE('',(#125,#113),#496,.F.);
#516=ADVANCED_FACE('',(#126),#20,.T.);
#517=ADVANCED_FACE('',(#127,#114,#115),#497,.F.);
#518=ADVANCED_FACE('',(#128),#21,.T.);
#519=ADVANCED_FACE('',(#129,#116),#498,.F.);
#520=ADVANCED_FACE('',(#130),#22,.T.);
#521=ADVANCED_FACE('',(#131),#23,.T.);
#522=ADVANCED_FACE('',(#132),#499,.T.);
#523=ADVANCED_FACE('',(#133),#500,.T.);
#524=ADVANCED_FACE('',(#134),#501,.T.);
#525=ADVANCED_FACE('',(#135),#502,.F.);
#526=ADVANCED_FACE('',(#136),#24,.T.);
#527=ADVANCED_FACE('',(#137),#503,.F.);
#528=ADVANCED_FACE('',(#138),#504,.F.);
#529=ADVANCED_FACE('',(#139),#25,.T.);
#530=ADVANCED_FACE('',(#140),#111,.F.);
#531=ADVANCED_FACE('',(#141),#26,.F.);
#532=ADVANCED_FACE('',(#142),#27,.F.);
#533=ADVANCED_FACE('',(#143),#28,.T.);
#534=ADVANCED_FACE('',(#144,#117),#505,.F.);
#535=ADVANCED_FACE('',(#145),#29,.T.);
#536=ADVANCED_FACE('',(#146),#506,.F.);
#537=ADVANCED_FACE('',(#147),#30,.F.);
#538=ADVANCED_FACE('',(#148),#507,.F.);
#539=CLOSED_SHELL('',(#508,#509,#510,#511,#512,#513,#514,#515,#516,#517,
#518,#519,#520,#521,#522,#523,#524,#525,#526,#527,#528,#529,#530,#531,#532,
#533,#534,#535,#536,#537,#538));
#540=DERIVED_UNIT_ELEMENT(#542,1.);
#541=DERIVED_UNIT_ELEMENT(#961,-3.);
#542=(
MASS_UNIT()
NAMED_UNIT(*)
SI_UNIT(.KILO.,.GRAM.)
);
#543=DERIVED_UNIT((#540,#541));
#544=MEASURE_REPRESENTATION_ITEM('density measure',
POSITIVE_RATIO_MEASURE(7850.),#543);
#545=PROPERTY_DEFINITION_REPRESENTATION(#550,#547);
#546=PROPERTY_DEFINITION_REPRESENTATION(#551,#548);
#547=REPRESENTATION('material name',(#549),#958);
#548=REPRESENTATION('density',(#544),#958);
#549=DESCRIPTIVE_REPRESENTATION_ITEM('Steel','Steel');
#550=PROPERTY_DEFINITION('material property','material name',#968);
#551=PROPERTY_DEFINITION('material property','density of part',#968);
#552=AXIS2_PLACEMENT_3D('',#788,#618,#619);
#553=AXIS2_PLACEMENT_3D('',#789,#620,#621);
#554=AXIS2_PLACEMENT_3D('',#791,#622,#623);
#555=AXIS2_PLACEMENT_3D('',#794,#624,#625);
#556=AXIS2_PLACEMENT_3D('',#796,#626,#627);
#557=AXIS2_PLACEMENT_3D('',#797,#628,#629);
#558=AXIS2_PLACEMENT_3D('',#798,#630,#631);
#559=AXIS2_PLACEMENT_3D('',#801,#632,#633);
#560=AXIS2_PLACEMENT_3D('',#802,#634,#635);
#561=AXIS2_PLACEMENT_3D('',#810,#637,#638);
#562=AXIS2_PLACEMENT_3D('',#817,#641,#642);
#563=AXIS2_PLACEMENT_3D('',#823,#645,#646);
#564=AXIS2_PLACEMENT_3D('',#825,#648,#649);
#565=AXIS2_PLACEMENT_3D('',#826,#650,#651);
#566=AXIS2_PLACEMENT_3D('',#827,#652,#653);
#567=AXIS2_PLACEMENT_3D('',#829,#654,#655);
#568=AXIS2_PLACEMENT_3D('',#834,#656,#657);
#569=AXIS2_PLACEMENT_3D('',#840,#658,#659);
#570=AXIS2_PLACEMENT_3D('',#841,#660,#661);
#571=AXIS2_PLACEMENT_3D('',#843,#662,#663);
#572=AXIS2_PLACEMENT_3D('',#846,#665,#666);
#573=AXIS2_PLACEMENT_3D('',#847,#667,#668);
#574=AXIS2_PLACEMENT_3D('',#849,#669,#670);
#575=AXIS2_PLACEMENT_3D('',#850,#671,#672);
#576=AXIS2_PLACEMENT_3D('',#855,#674,#675);
#577=AXIS2_PLACEMENT_3D('',#858,#677,#678);
#578=AXIS2_PLACEMENT_3D('',#859,#679,#680);
#579=AXIS2_PLACEMENT_3D('',#861,#681,#682);
#580=AXIS2_PLACEMENT_3D('',#863,#683,#684);
#581=AXIS2_PLACEMENT_3D('',#873,#689,#690);
#582=AXIS2_PLACEMENT_3D('',#879,#693,#694);
#583=AXIS2_PLACEMENT_3D('',#881,#695,#696);
#584=AXIS2_PLACEMENT_3D('',#882,#697,#698);
#585=AXIS2_PLACEMENT_3D('',#885,#699,#700);
#586=AXIS2_PLACEMENT_3D('',#887,#702,#703);
#587=AXIS2_PLACEMENT_3D('',#889,#704,#705);
#588=AXIS2_PLACEMENT_3D('',#891,#707,#708);
#589=AXIS2_PLACEMENT_3D('',#893,#709,#710);
#590=AXIS2_PLACEMENT_3D('',#895,#711,#712);
#591=AXIS2_PLACEMENT_3D('',#897,#713,#714);
#592=AXIS2_PLACEMENT_3D('',#903,#717,#718);
#593=AXIS2_PLACEMENT_3D('',#912,#723,#724);
#594=AXIS2_PLACEMENT_3D('',#913,#725,#726);
#595=AXIS2_PLACEMENT_3D('',#914,#727,#728);
#596=AXIS2_PLACEMENT_3D('',#916,#730,#731);
#597=AXIS2_PLACEMENT_3D('',#918,#733,#734);
#598=AXIS2_PLACEMENT_3D('',#921,#737,#738);
#599=AXIS2_PLACEMENT_3D('',#924,#741,#742);
#600=AXIS2_PLACEMENT_3D('',#926,#744,#745);
#601=AXIS2_PLACEMENT_3D('',#927,#746,#747);
#602=AXIS2_PLACEMENT_3D('',#928,#748,#749);
#603=AXIS2_PLACEMENT_3D('',#931,#752,#753);
#604=AXIS2_PLACEMENT_3D('',#933,#755,#756);
#605=AXIS2_PLACEMENT_3D('',#934,#757,#758);
#606=AXIS2_PLACEMENT_3D('',#935,#759,#760);
#607=AXIS2_PLACEMENT_3D('',#936,#761,#762);
#608=AXIS2_PLACEMENT_3D('',#939,#764,#765);
#609=AXIS2_PLACEMENT_3D('',#940,#766,#767);
#610=AXIS2_PLACEMENT_3D('',#941,#768,#769);
#611=AXIS2_PLACEMENT_3D('',#945,#771,#772);
#612=AXIS2_PLACEMENT_3D('',#947,#774,#775);
#613=AXIS2_PLACEMENT_3D('',#949,#777,#778);
#614=AXIS2_PLACEMENT_3D('',#950,#779,#780);
#615=AXIS2_PLACEMENT_3D('',#951,#781,#782);
#616=AXIS2_PLACEMENT_3D('',#953,#783,#784);
#617=AXIS2_PLACEMENT_3D('',#955,#786,#787);
#618=DIRECTION('axis',(0.,0.,1.));
#619=DIRECTION('refdir',(1.,0.,0.));
#620=DIRECTION('center_axis',(1.,1.23457229175821E-18,-1.27993222710746E-18));
#621=DIRECTION('ref_axis',(-9.57503895963747E-19,-0.232704790732729,-0.97254741805736));
#622=DIRECTION('center_axis',(1.,1.23457229175821E-18,-1.27993222710746E-18));
#623=DIRECTION('ref_axis',(-9.57503895963747E-19,-0.232704790732729,-0.97254741805736));
#624=DIRECTION('center_axis',(1.,1.23457229175821E-18,-1.27993222710746E-18));
#625=DIRECTION('ref_axis',(0.,0.,-1.));
#626=DIRECTION('center_axis',(-1.,-1.23457229175821E-18,1.27993222710746E-18));
#627=DIRECTION('ref_axis',(1.82084953911353E-17,-0.996017758804749,-0.0891550567582394));
#628=DIRECTION('center_axis',(-1.,-1.23457229175821E-18,1.27993222710746E-18));
#629=DIRECTION('ref_axis',(1.82084953911353E-17,-0.996017758804749,-0.0891550567582394));
#630=DIRECTION('center_axis',(-1.,-3.11098572208204E-17,1.43317444228996E-16));
#631=DIRECTION('ref_axis',(1.82084953911353E-17,-0.996017758804749,-0.0891550567582394));
#632=DIRECTION('center_axis',(-1.,-3.11098572208204E-17,1.43317444228996E-16));
#633=DIRECTION('ref_axis',(-1.82084953911353E-17,0.996017758804749,0.0891550567582395));
#634=DIRECTION('center_axis',(-1.,-3.11098572208204E-17,1.43317444228996E-16));
#635=DIRECTION('ref_axis',(-1.82084953911353E-17,0.996017758804749,0.0891550567582395));
#636=DIRECTION('',(-0.500000000000008,0.86257668174535,0.0772105440284784));
#637=DIRECTION('center_axis',(1.,1.23457229175821E-18,-1.27993222710746E-18));
#638=DIRECTION('ref_axis',(-9.57503895963747E-19,-0.232704790732729,-0.97254741805736));
#639=DIRECTION('',(1.,-4.81482486096809E-35,1.92592994438724E-34));
#640=DIRECTION('',(1.,1.23457229175821E-18,-1.27993222710746E-18));
#641=DIRECTION('center_axis',(1.,3.11098572208204E-17,-1.43317444228996E-16));
#642=DIRECTION('ref_axis',(-9.57503895963747E-19,-0.232704790732729,-0.97254741805736));
#643=DIRECTION('',(-1.,-1.23457229175821E-18,1.27993222710746E-18));
#644=DIRECTION('',(-1.,4.81482486096809E-35,-1.92592994438724E-34));
#645=DIRECTION('center_axis',(1.,3.11098572208204E-17,-1.43317444228996E-16));
#646=DIRECTION('ref_axis',(-1.82084953911353E-17,0.996017758804749,0.0891550567582394));
#647=DIRECTION('',(1.,1.23457229175821E-18,-1.27993222710746E-18));
#648=DIRECTION('center_axis',(1.,3.11098572208204E-17,-1.43317444228996E-16));
#649=DIRECTION('ref_axis',(-1.82084953911353E-17,0.996017758804749,0.0891550567582394));
#650=DIRECTION('center_axis',(1.,-4.81482486096809E-35,1.92592994438724E-34));
#651=DIRECTION('ref_axis',(0.,0.,-1.));
#652=DIRECTION('center_axis',(1.,-4.81482486096809E-35,1.92592994438724E-34));
#653=DIRECTION('ref_axis',(0.,0.,-1.));
#654=DIRECTION('center_axis',(-1.,4.81482486096809E-35,-1.92592994438724E-34));
#655=DIRECTION('ref_axis',(0.,0.,-1.));
#656=DIRECTION('center_axis',(1.,-4.81482486096809E-35,1.92592994438724E-34));
#657=DIRECTION('ref_axis',(0.,0.,-1.));
#658=DIRECTION('center_axis',(-1.,4.81482486096809E-35,-1.92592994438724E-34));
#659=DIRECTION('ref_axis',(0.,0.,-1.));
#660=DIRECTION('center_axis',(1.,-4.81482486096809E-35,1.92592994438724E-34));
#661=DIRECTION('ref_axis',(0.,0.,-1.));
#662=DIRECTION('center_axis',(-1.,4.81482486096809E-35,-1.92592994438724E-34));
#663=DIRECTION('ref_axis',(0.,0.,-1.));
#664=DIRECTION('',(1.,-4.81482486096809E-35,1.92592994438724E-34));
#665=DIRECTION('center_axis',(-1.,-3.11098572208204E-17,1.43317444228996E-16));
#666=DIRECTION('ref_axis',(0.,0.,-1.));
#667=DIRECTION('center_axis',(-1.,4.81482486096809E-35,-1.92592994438724E-34));
#668=DIRECTION('ref_axis',(-1.92592994438724E-34,0.,1.));
#669=DIRECTION('center_axis',(1.,-4.81482486096809E-35,1.92592994438724E-34));
#670=DIRECTION('ref_axis',(1.92592994438724E-34,0.,-1.));
#671=DIRECTION('center_axis',(1.,-4.81482486096809E-35,1.92592994438724E-34));
#672=DIRECTION('ref_axis',(-2.40354621412425E-34,-0.999997986072167,-0.00200695082398003));
#673=DIRECTION('',(1.,-4.81482486096809E-35,1.92592994438724E-34));
#674=DIRECTION('center_axis',(-1.,4.81482486096809E-35,-1.92592994438724E-34));
#675=DIRECTION('ref_axis',(0.,0.,-1.));
#676=DIRECTION('',(-1.,4.81482486096809E-35,-1.92592994438724E-34));
#677=DIRECTION('center_axis',(1.,-4.81482486096809E-35,1.92592994438724E-34));
#678=DIRECTION('ref_axis',(0.,0.,-1.));
#679=DIRECTION('center_axis',(-1.,-3.11098572208204E-17,1.43317444228996E-16));
#680=DIRECTION('ref_axis',(1.82084953911353E-17,-0.996017758804749,-0.0891550567582395));
#681=DIRECTION('center_axis',(1.,-4.81482486096809E-35,1.92592994438724E-34));
#682=DIRECTION('ref_axis',(0.,0.,-1.));
#683=DIRECTION('center_axis',(1.,3.11098572208204E-17,-1.43317444228996E-16));
#684=DIRECTION('ref_axis',(-1.82084953911353E-17,0.996017758804749,0.0891550567582394));
#685=DIRECTION('',(2.026297266158E-16,-0.783082004089577,0.621918463201609));
#686=DIRECTION('',(-2.34488591100559E-19,-0.621918463201624,-0.783082004089565));
#687=DIRECTION('',(2.026297266158E-16,-0.783082004089577,0.621918463201609));
#688=DIRECTION('',(-2.34488591100559E-19,-0.621918463201624,-0.783082004089565));
#689=DIRECTION('center_axis',(1.,3.11098572208204E-17,-1.43317444228996E-16));
#690=DIRECTION('ref_axis',(1.49683368830058E-18,-0.972956732775523,0.230987437205531));
#691=DIRECTION('',(1.85220982333843E-17,0.942624982146126,0.333853475396041));
#692=DIRECTION('',(2.00753744865021E-17,0.939004250015837,0.343905537106043));
#693=DIRECTION('center_axis',(1.,3.11098572208204E-17,-1.43317444228996E-16));
#694=DIRECTION('ref_axis',(1.82084953911351E-17,-0.996017758804749,-0.0891550567582409));
#695=DIRECTION('center_axis',(1.,3.11098572208204E-17,-1.43317444228996E-16));
#696=DIRECTION('ref_axis',(-1.82084953911353E-17,0.996017758804749,0.0891550567582394));
#697=DIRECTION('center_axis',(1.,-4.81482486096809E-35,1.92592994438724E-34));
#698=DIRECTION('ref_axis',(0.,0.,-1.));
#699=DIRECTION('center_axis',(1.,3.11098572208204E-17,-1.43317444228996E-16));
#700=DIRECTION('ref_axis',(-1.82084953911353E-17,0.996017758804749,0.0891550567582395));
#701=DIRECTION('',(-1.82084953911354E-17,0.996017758804749,0.0891550567582393));
#702=DIRECTION('center_axis',(1.,-4.81482486096809E-35,1.92592994438724E-34));
#703=DIRECTION('ref_axis',(0.,0.,-1.));
#704=DIRECTION('center_axis',(-1.,4.81482486096809E-35,-1.92592994438724E-34));
#705=DIRECTION('ref_axis',(0.,0.,-1.));
#706=DIRECTION('',(-1.,4.81482486096809E-35,-1.92592994438724E-34));
#707=DIRECTION('center_axis',(1.,3.11098572208204E-17,-1.43317444228996E-16));
#708=DIRECTION('ref_axis',(-1.82084953911353E-17,0.996017758804749,0.0891550567582395));
#709=DIRECTION('center_axis',(-1.,4.81482486096809E-35,-1.92592994438724E-34));
#710=DIRECTION('ref_axis',(0.,0.,-1.));
#711=DIRECTION('center_axis',(1.,3.11098572208204E-17,-1.43317444228996E-16));
#712=DIRECTION('ref_axis',(-1.82084953911353E-17,0.996017758804749,0.0891550567582394));
#713=DIRECTION('center_axis',(-1.,-3.11098572208204E-17,1.43317444228996E-16));
#714=DIRECTION('ref_axis',(-1.82084953911353E-17,0.996017758804749,0.0891550567582395));
#715=DIRECTION('',(2.00753744865021E-17,0.939004250015837,0.343905537106043));
#716=DIRECTION('',(-1.85220982333843E-17,-0.942624982146126,-0.333853475396041));
#717=DIRECTION('center_axis',(-1.,-3.11098572208204E-17,1.43317444228996E-16));
#718=DIRECTION('ref_axis',(1.49683368830058E-18,-0.972956732775523,0.230987437205531));
#719=DIRECTION('',(-2.34488591100559E-19,-0.621918463201624,-0.783082004089565));
#720=DIRECTION('',(-2.026297266158E-16,0.783082004089577,-0.621918463201609));
#721=DIRECTION('',(-2.34488591100559E-19,-0.621918463201624,-0.783082004089565));
#722=DIRECTION('',(-2.026297266158E-16,0.783082004089577,-0.621918463201609));
#723=DIRECTION('center_axis',(1.,3.11098572208204E-17,-1.43317444228996E-16));
#724=DIRECTION('ref_axis',(-1.82084953911353E-17,0.996017758804749,0.0891550567582394));
#725=DIRECTION('center_axis',(1.,3.11098572208204E-17,-1.43317444228996E-16));
#726=DIRECTION('ref_axis',(-1.82084953911353E-17,0.996017758804749,0.0891550567582394));
#727=DIRECTION('center_axis',(1.,-4.81482486096809E-35,1.92592994438724E-34));
#728=DIRECTION('ref_axis',(-3.9056735029094E-34,-0.169968565046795,0.985449484700222));
#729=DIRECTION('',(1.,-4.81482486096809E-35,1.92592994438724E-34));
#730=DIRECTION('center_axis',(1.,3.11098572208204E-17,-1.43317444228996E-16));
#731=DIRECTION('ref_axis',(-1.82084953911353E-17,0.996017758804749,0.0891550567582394));
#732=DIRECTION('',(-1.,-3.11098572208205E-17,1.43317444228996E-16));
#733=DIRECTION('center_axis',(2.02629726615799E-16,-0.783082004089565,0.621918463201624));
#734=DIRECTION('ref_axis',(-1.,-2.16782345799742E-16,5.2854794897837E-17));
#735=DIRECTION('',(-1.,-3.11098572208204E-17,1.43317444228996E-16));
#736=DIRECTION('',(-1.,-2.16782345799742E-16,5.2854794897837E-17));
#737=DIRECTION('center_axis',(-2.02629726615799E-16,0.783082004089565,-0.621918463201624));
#738=DIRECTION('ref_axis',(1.,2.16782345799742E-16,-5.2854794897837E-17));
#739=DIRECTION('',(1.,2.16782345799742E-16,-5.2854794897837E-17));
#740=DIRECTION('',(1.,2.16782345799742E-16,-5.2854794897837E-17));
#741=DIRECTION('center_axis',(-2.34488591100559E-19,-0.621918463201624,
-0.783082004089565));
#742=DIRECTION('ref_axis',(-1.,-1.23457229175821E-18,1.27993222710746E-18));
#743=DIRECTION('',(1.,3.11098572208204E-17,-1.43317444228996E-16));
#744=DIRECTION('center_axis',(9.34313046346733E-17,-0.621918463201609,-0.783082004089577));
#745=DIRECTION('ref_axis',(1.,2.16782345799742E-16,-5.2854794897837E-17));
#746=DIRECTION('center_axis',(1.,3.11098572208204E-17,-1.43317444228996E-16));
#747=DIRECTION('ref_axis',(-1.82084953911353E-17,0.996017758804749,0.0891550567582394));
#748=DIRECTION('center_axis',(1.61866234295655E-18,-0.333853475396041,0.942624982146126));
#749=DIRECTION('ref_axis',(8.66668474974256E-34,-0.942624982146126,-0.333853475396041));
#750=DIRECTION('',(-1.,-1.26748389421264E-14,-4.48738411212116E-15));
#751=DIRECTION('',(1.,1.23457229175821E-18,-1.27993222710746E-18));
#752=DIRECTION('center_axis',(1.45274541389254E-16,-0.343905537106043,0.939004250015837));
#753=DIRECTION('ref_axis',(-2.00753744865021E-17,-0.939004250015837,-0.343905537106043));
#754=DIRECTION('',(1.,3.11098572208205E-17,-1.43317444228996E-16));
#755=DIRECTION('center_axis',(1.,3.11098572208204E-17,-1.43317444228996E-16));
#756=DIRECTION('ref_axis',(-1.82084953911353E-17,0.996017758804749,0.0891550567582395));
#757=DIRECTION('center_axis',(-1.,-3.11098572208204E-17,1.43317444228996E-16));
#758=DIRECTION('ref_axis',(-3.08221382030413E-17,0.999997985717988,0.00200712729215076));
#759=DIRECTION('center_axis',(-1.,-3.11098572208204E-17,1.43317444228996E-16));
#760=DIRECTION('ref_axis',(-1.82084953911353E-17,0.996017758804749,0.0891550567582394));
#761=DIRECTION('center_axis',(1.,3.11098572208204E-17,-1.43317444228996E-16));
#762=DIRECTION('ref_axis',(-1.82084953911353E-17,0.996017758804749,0.0891550567582395));
#763=DIRECTION('',(1.,3.11098572208204E-17,-1.43317444228996E-16));
#764=DIRECTION('center_axis',(1.,3.11098572208204E-17,-1.43317444228996E-16));
#765=DIRECTION('ref_axis',(-1.82084953911353E-17,0.996017758804749,0.0891550567582395));
#766=DIRECTION('center_axis',(1.,3.11098572208204E-17,-1.43317444228996E-16));
#767=DIRECTION('ref_axis',(-1.82084953911353E-17,0.996017758804749,0.0891550567582394));
#768=DIRECTION('center_axis',(1.,3.11098572208204E-17,-1.43317444228996E-16));
#769=DIRECTION('ref_axis',(-1.45520320684853E-16,0.0891550567582438,-0.996017758804749));
#770=DIRECTION('',(1.,3.11098572208205E-17,-1.43317444228996E-16));
#771=DIRECTION('center_axis',(1.,3.11098572208204E-17,-1.43317444228996E-16));
#772=DIRECTION('ref_axis',(-1.82084953911353E-17,0.996017758804749,0.0891550567582395));
#773=DIRECTION('',(1.,3.11098572208205E-17,-1.43317444228996E-16));
#774=DIRECTION('center_axis',(-1.,-3.11098572208204E-17,1.43317444228996E-16));
#775=DIRECTION('ref_axis',(1.82084953911353E-17,-0.996017758804749,-0.0891550567582395));
#776=DIRECTION('',(-1.82084953911354E-17,0.996017758804749,0.0891550567582393));
#777=DIRECTION('center_axis',(-1.,-3.11098572208204E-17,1.43317444228996E-16));
#778=DIRECTION('ref_axis',(-5.36385986703626E-17,0.987118493378323,-0.159990874835127));
#779=DIRECTION('center_axis',(-1.45520320684852E-16,0.0891550567582393,
-0.996017758804749));
#780=DIRECTION('ref_axis',(-1.82084953911353E-17,0.996017758804749,0.0891550567582394));
#781=DIRECTION('center_axis',(1.,-4.81482486096809E-35,1.92592994438724E-34));
#782=DIRECTION('ref_axis',(1.92592994438724E-34,0.,-1.));
#783=DIRECTION('center_axis',(-1.,4.81482486096809E-35,-1.92592994438724E-34));
#784=DIRECTION('ref_axis',(1.92592994438724E-34,0.,-1.));
#785=DIRECTION('',(1.,-4.81482486096809E-35,1.92592994438724E-34));
#786=DIRECTION('center_axis',(-1.,4.81482486096809E-35,-1.92592994438724E-34));
#787=DIRECTION('ref_axis',(-1.92592994438724E-34,0.,1.));
#788=CARTESIAN_POINT('',(0.,0.,0.));
#789=CARTESIAN_POINT('Origin',(83.413,195.537685258117,-65.2065368610874));
#790=CARTESIAN_POINT('',(83.413,196.212529151242,-62.386149348721));
#791=CARTESIAN_POINT('Origin',(83.413,195.537685258117,-65.2065368610874));
#792=CARTESIAN_POINT('',(83.4129999997336,193.704196125361,-65.7479985600833));
#793=CARTESIAN_POINT('',(83.4129999997336,193.702037338216,-64.6724400715846));
#794=CARTESIAN_POINT('Origin',(83.413,189.537696894527,-65.2185798605131));
#795=CARTESIAN_POINT('',(83.4129999994671,197.44184082927,-65.0360932100144));
#796=CARTESIAN_POINT('Origin',(83.413,195.537684808835,-65.2065370967601));
#797=CARTESIAN_POINT('Origin',(83.413,195.537684808835,-65.2065370967601));
#798=CARTESIAN_POINT('Origin',(83.393,195.537684808835,-65.2065370967601));
#799=CARTESIAN_POINT('',(83.593,193.944056394747,-65.3491851875733));
#800=CARTESIAN_POINT('',(83.593,197.131313222922,-65.063889005947));
#801=CARTESIAN_POINT('Origin',(83.593,195.537684808835,-65.2065370967601));
#802=CARTESIAN_POINT('Origin',(83.593,195.537684808835,-65.2065370967601));
#803=CARTESIAN_POINT('',(83.393,197.47634389562,-65.0330047883356));
#804=CARTESIAN_POINT('Ctrl Pts',(83.4129999994671,193.704196125361,-65.7479985600833));
#805=CARTESIAN_POINT('Ctrl Pts',(83.4538078681345,193.726367014164,-65.5735147512967));
#806=CARTESIAN_POINT('Ctrl Pts',(83.4775299461621,193.738058460854,-65.3945057303756));
#807=CARTESIAN_POINT('Ctrl Pts',(83.4775299461621,193.73731840823,-65.0257941213965));
#808=CARTESIAN_POINT('Ctrl Pts',(83.4538078681345,193.724908469404,-64.8468334751215));
#809=CARTESIAN_POINT('Ctrl Pts',(83.4129999994671,193.702037338216,-64.6724400715846));
#810=CARTESIAN_POINT('Origin',(80.293,195.537685258117,-65.2065368610874));
#811=CARTESIAN_POINT('',(80.393,193.310575053305,-67.0639498502489));
#812=CARTESIAN_POINT('',(83.393,193.310575053305,-67.0639498502489));
#813=CARTESIAN_POINT('',(84.243,193.310575053305,-67.0639498502489));
#814=CARTESIAN_POINT('',(80.193,193.310575292049,-67.0639493621331));
#815=CARTESIAN_POINT('',(80.293,193.310575292049,-67.0639493621331));
#816=CARTESIAN_POINT('',(80.193,193.303136979858,-63.3580796686886));
#817=CARTESIAN_POINT('Origin',(80.193,195.537685258117,-65.2065368610874));
#818=CARTESIAN_POINT('',(80.393,193.303136884753,-63.3580794762066));
#819=CARTESIAN_POINT('',(80.293,193.303136979858,-63.3580796686886));
#820=CARTESIAN_POINT('',(83.393,193.303136884753,-63.3580794762066));
#821=CARTESIAN_POINT('',(84.243,193.303136884753,-63.3580794762066));
#822=CARTESIAN_POINT('',(83.393,196.212529073576,-62.3861496733118));
#823=CARTESIAN_POINT('Origin',(83.393,195.537684808835,-65.2065370967601));
#824=CARTESIAN_POINT('',(80.293,196.212529151242,-62.386149348721));
#825=CARTESIAN_POINT('Origin',(83.393,195.537684808835,-65.2065370967601));
#826=CARTESIAN_POINT('Origin',(84.243,189.537696894527,-65.2185798605131));
#827=CARTESIAN_POINT('Origin',(84.243,189.537696894527,-65.2185798605131));
#828=CARTESIAN_POINT('',(80.193,193.125055181513,-63.0343498999118));
#829=CARTESIAN_POINT('Origin',(80.193,189.537696894527,-65.2185798605131));
#830=CARTESIAN_POINT('Ctrl Pts',(80.393,193.303136884753,-63.3580794762066));
#831=CARTESIAN_POINT('Ctrl Pts',(80.3278898001628,193.248406933182,-63.2473123137561));
#832=CARTESIAN_POINT('Ctrl Pts',(80.2608968102599,193.188895791282,-63.1392011035993));
#833=CARTESIAN_POINT('Ctrl Pts',(80.193,193.125055181513,-63.0343498999118));
#834=CARTESIAN_POINT('Origin',(84.243,189.537696894527,-65.2185798605131));
#835=CARTESIAN_POINT('',(80.193,193.133794315209,-67.3883916820693));
#836=CARTESIAN_POINT('Ctrl Pts',(80.193,193.133794315209,-67.3883916820693));
#837=CARTESIAN_POINT('Ctrl Pts',(80.2608972582729,193.197213930496,-67.2832843576966));
#838=CARTESIAN_POINT('Ctrl Pts',(80.3278847227215,193.256285956137,-67.1749444746896));
#839=CARTESIAN_POINT('Ctrl Pts',(80.393,193.310575053305,-67.0639498502489));
#840=CARTESIAN_POINT('Origin',(80.193,189.537696894527,-65.2185798605131));
#841=CARTESIAN_POINT('Origin',(87.943,186.037703419585,-65.225604189448));
#842=CARTESIAN_POINT('',(87.393,186.037703419585,-62.425604189448));
#843=CARTESIAN_POINT('Origin',(87.393,186.037703419585,-65.225604189448));
#844=CARTESIAN_POINT('',(88.293,186.037703419585,-62.425604189448));
#845=CARTESIAN_POINT('',(87.943,186.037703419585,-62.425604189448));
#846=CARTESIAN_POINT('Origin',(88.293,186.037703419585,-65.225604189448));
#847=CARTESIAN_POINT('Origin',(87.393,186.037703419585,-65.225604189448));
#848=CARTESIAN_POINT('',(87.393,186.037703419585,-62.725604189448));
#849=CARTESIAN_POINT('Origin',(87.393,186.037703419585,-65.225604189448));
#850=CARTESIAN_POINT('Origin',(84.243,186.037703419585,-65.225604189448));
#851=CARTESIAN_POINT('',(80.193,187.780037520228,-61.4040505941499));
#852=CARTESIAN_POINT('',(88.293,187.780037520228,-61.4040505941499));
#853=CARTESIAN_POINT('',(84.243,187.780037520228,-61.4040505941499));
#854=CARTESIAN_POINT('',(80.193,187.795362793884,-69.0401334558112));
#855=CARTESIAN_POINT('Origin',(80.193,186.037703419585,-65.225604189448));
#856=CARTESIAN_POINT('',(88.293,187.795362793884,-69.0401334558112));
#857=CARTESIAN_POINT('',(84.243,187.795362793884,-69.0401334558112));
#858=CARTESIAN_POINT('Origin',(88.293,186.037703419585,-65.225604189448));
#859=CARTESIAN_POINT('Origin',(88.293,194.913599411527,-58.2344127851269));
#860=CARTESIAN_POINT('',(88.293,189.932756916202,-69.3999585301953));
#861=CARTESIAN_POINT('Origin',(88.293,189.537696894527,-65.2185798605131));
#862=CARTESIAN_POINT('',(88.293,200.867298904606,-69.7447320672477));
#863=CARTESIAN_POINT('Origin',(88.293,195.537684808835,-65.2065370967601));
#864=CARTESIAN_POINT('',(88.293,200.870255868501,-69.7470804680946));
#865=CARTESIAN_POINT('',(88.293,200.870255868501,-69.7470804680946));
#866=CARTESIAN_POINT('',(88.293,201.056831407462,-69.5121558668677));
#867=CARTESIAN_POINT('',(88.293,201.056831407462,-69.5121558668677));
#868=CARTESIAN_POINT('',(88.293,199.020908890178,-67.8952398905918));
#869=CARTESIAN_POINT('',(88.293,201.056831407462,-69.5121558668677));
#870=CARTESIAN_POINT('',(88.293,199.008920320301,-67.910335170569));
#871=CARTESIAN_POINT('',(88.293,199.020908890178,-67.8952398905918));
#872=CARTESIAN_POINT('',(88.293,199.685234730278,-63.7375818050176));
#873=CARTESIAN_POINT('Origin',(88.293,195.537684808835,-65.2065370967601));
#874=CARTESIAN_POINT('',(88.293,200.902403540033,-63.3064919814112));
#875=CARTESIAN_POINT('',(88.293,199.039840147097,-63.9661639333057));
#876=CARTESIAN_POINT('',(88.293,201.845914288426,-62.9609359621641));
#877=CARTESIAN_POINT('',(88.293,197.259821625395,-64.6405691059664));
#878=CARTESIAN_POINT('',(88.293,202.020581037076,-62.5660718926996));
#879=CARTESIAN_POINT('Origin',(88.293,201.742742627294,-62.6792346871594));
#880=CARTESIAN_POINT('',(88.293,189.915968648473,-61.0356490123915));
#881=CARTESIAN_POINT('Origin',(88.293,195.537684808835,-65.2065370967601));
#882=CARTESIAN_POINT('Origin',(88.293,189.537696894527,-65.2185798605131));
#883=CARTESIAN_POINT('',(88.293,193.815178779427,-62.7503259945429));
#884=CARTESIAN_POINT('',(88.293,196.796584543099,-62.4834558531927));
#885=CARTESIAN_POINT('Origin',(88.293,195.537684808835,-65.2065370967601));
#886=CARTESIAN_POINT('',(88.293,193.815178779427,-62.7503259945429));
#887=CARTESIAN_POINT('Origin',(84.243,189.537696894527,-65.2185798605131));
#888=CARTESIAN_POINT('',(80.193,189.932756916202,-69.3999585301953));
#889=CARTESIAN_POINT('Origin',(80.193,189.537696894527,-65.2185798605131));
#890=CARTESIAN_POINT('',(84.243,189.932756916202,-69.3999585301953));
#891=CARTESIAN_POINT('Origin',(80.193,195.279135144236,-62.3180855962264));
#892=CARTESIAN_POINT('',(80.193,189.915968648473,-61.0356490123916));
#893=CARTESIAN_POINT('Origin',(80.193,189.537696894527,-65.2185798605131));
#894=CARTESIAN_POINT('',(80.193,202.020581037076,-62.5660718926996));
#895=CARTESIAN_POINT('Origin',(80.193,195.537684808835,-65.2065370967601));
#896=CARTESIAN_POINT('',(80.193,201.845914288426,-62.9609359621641));
#897=CARTESIAN_POINT('Origin',(80.193,201.742742627294,-62.6792346871594));
#898=CARTESIAN_POINT('',(80.193,200.902403540033,-63.3064919814112));
#899=CARTESIAN_POINT('',(80.193,202.834262712728,-62.5989583718586));
#900=CARTESIAN_POINT('',(80.193,199.685234730278,-63.7375818050176));
#901=CARTESIAN_POINT('',(80.193,198.559673934537,-64.1362264309768));
#902=CARTESIAN_POINT('',(80.193,199.008920320301,-67.910335170569));
#903=CARTESIAN_POINT('Origin',(80.193,195.537684808835,-65.2065370967601));
#904=CARTESIAN_POINT('',(80.193,199.020908890178,-67.8952398905918));
#905=CARTESIAN_POINT('',(80.193,199.020908890178,-67.8952398905918));
#906=CARTESIAN_POINT('',(80.193,201.056831407462,-69.5121558668677));
#907=CARTESIAN_POINT('',(80.193,199.020908890178,-67.8952398905918));
#908=CARTESIAN_POINT('',(80.193,200.870255868501,-69.7470804680946));
#909=CARTESIAN_POINT('',(80.193,201.056831407462,-69.5121558668677));
#910=CARTESIAN_POINT('',(80.193,200.867298904606,-69.7447320672478));
#911=CARTESIAN_POINT('',(80.193,198.834333351217,-68.1301644918186));
#912=CARTESIAN_POINT('Origin',(80.193,195.537684808835,-65.2065370967601));
#913=CARTESIAN_POINT('Origin',(80.193,195.537684808835,-65.2065370967601));
#914=CARTESIAN_POINT('Origin',(84.243,189.537696894527,-65.2185798605131));
#915=CARTESIAN_POINT('',(84.243,189.915968648473,-61.0356490123916));
#916=CARTESIAN_POINT('Origin',(97.293,195.537684808835,-65.2065370967601));
#917=CARTESIAN_POINT('',(97.293,202.020581037076,-62.5660718926996));
#918=CARTESIAN_POINT('Origin',(88.293,199.020908890178,-67.8952398905918));
#919=CARTESIAN_POINT('',(97.293,199.008920320301,-67.910335170569));
#920=CARTESIAN_POINT('',(88.293,199.020908890178,-67.8952398905918));
#921=CARTESIAN_POINT('Origin',(80.193,201.056831407462,-69.5121558668677));
#922=CARTESIAN_POINT('',(80.193,200.870255868501,-69.7470804680946));
#923=CARTESIAN_POINT('',(80.193,201.056831407462,-69.5121558668677));
#924=CARTESIAN_POINT('Origin',(84.243,199.852294609859,-68.9386224799566));
#925=CARTESIAN_POINT('',(97.293,200.867298904606,-69.7447320672478));
#926=CARTESIAN_POINT('Origin',(84.243,200.03887014882,-68.7036978787297));
#927=CARTESIAN_POINT('Origin',(97.293,195.537684808835,-65.2065370967601));
#928=CARTESIAN_POINT('Origin',(80.193,200.902403540033,-63.3064919814112));
#929=CARTESIAN_POINT('',(88.743,200.902403540035,-63.3064919814102));
#930=CARTESIAN_POINT('',(80.193,199.685234730278,-63.7375818050176));
#931=CARTESIAN_POINT('Origin',(97.293,202.834262712728,-62.5989583718586));
#932=CARTESIAN_POINT('',(97.293,201.845914288426,-62.9609359621641));
#933=CARTESIAN_POINT('Origin',(97.293,201.742742627294,-62.6792346871594));
#934=CARTESIAN_POINT('Origin',(80.193,195.537684808835,-65.2065370967601));
#935=CARTESIAN_POINT('Origin',(80.393,195.537684808835,-65.2065370967601));
#936=CARTESIAN_POINT('Origin',(97.293,195.537684808835,-65.2065370967601));
#937=CARTESIAN_POINT('',(92.093,193.944056394747,-65.3491851875733));
#938=CARTESIAN_POINT('',(97.293,193.944056394747,-65.3491851875733));
#939=CARTESIAN_POINT('Origin',(92.093,195.537684808835,-65.2065370967601));
#940=CARTESIAN_POINT('Origin',(97.293,195.537684808835,-65.2065370967601));
#941=CARTESIAN_POINT('Origin',(97.293,195.537684808835,-65.2065370967601));
#942=CARTESIAN_POINT('',(92.093,196.796584543099,-62.4834558531927));
#943=CARTESIAN_POINT('',(85.2730662258917,196.796584543099,-62.4834558531927));
#944=CARTESIAN_POINT('',(92.093,193.815178779427,-62.7503259945429));
#945=CARTESIAN_POINT('Origin',(92.093,195.537684808835,-65.2065370967601));
#946=CARTESIAN_POINT('',(85.2730662258917,193.815178779427,-62.7503259945429));
#947=CARTESIAN_POINT('Origin',(92.093,195.395036718021,-63.6129086826725));
#948=CARTESIAN_POINT('',(92.093,193.815178779427,-62.7503259945429));
#949=CARTESIAN_POINT('Origin',(97.293,195.537684808835,-65.2065370967601));
#950=CARTESIAN_POINT('Origin',(85.2730662258917,193.815178779427,-62.7503259945429));
#951=CARTESIAN_POINT('Origin',(84.843,186.037703419585,-65.225604189448));
#952=CARTESIAN_POINT('',(82.293,186.037703419585,-62.725604189448));
#953=CARTESIAN_POINT('Origin',(82.293,186.037703419585,-65.225604189448));
#954=CARTESIAN_POINT('',(84.843,186.037703419585,-62.725604189448));
#955=CARTESIAN_POINT('Origin',(82.293,186.037703419585,-65.225604189448));
#956=UNCERTAINTY_MEASURE_WITH_UNIT(LENGTH_MEASURE(0.01),#960,
'DISTANCE_ACCURACY_VALUE',
'Maximum model space distance between geometric entities at asserted c
onnectivities');
#957=UNCERTAINTY_MEASURE_WITH_UNIT(LENGTH_MEASURE(0.01),#960,
'DISTANCE_ACCURACY_VALUE',
'Maximum model space distance between geometric entities at asserted c
onnectivities');
#958=(
GEOMETRIC_REPRESENTATION_CONTEXT(3)
GLOBAL_UNCERTAINTY_ASSIGNED_CONTEXT((#956))
GLOBAL_UNIT_ASSIGNED_CONTEXT((#960,#962,#963))
REPRESENTATION_CONTEXT('','3D')
);
#959=(
GEOMETRIC_REPRESENTATION_CONTEXT(3)
GLOBAL_UNCERTAINTY_ASSIGNED_CONTEXT((#957))
GLOBAL_UNIT_ASSIGNED_CONTEXT((#960,#962,#963))
REPRESENTATION_CONTEXT('','3D')
);
#960=(
LENGTH_UNIT()
NAMED_UNIT(*)
SI_UNIT(.MILLI.,.METRE.)
);
#961=(
LENGTH_UNIT()
NAMED_UNIT(*)
SI_UNIT($,.METRE.)
);
#962=(
NAMED_UNIT(*)
PLANE_ANGLE_UNIT()
SI_UNIT($,.RADIAN.)
);
#963=(
NAMED_UNIT(*)
SI_UNIT($,.STERADIAN.)
SOLID_ANGLE_UNIT()
);
#964=SHAPE_DEFINITION_REPRESENTATION(#965,#966);
#965=PRODUCT_DEFINITION_SHAPE('',$,#968);
#966=SHAPE_REPRESENTATION('',(#552),#958);
#967=PRODUCT_DEFINITION_CONTEXT('part definition',#972,'design');
#968=PRODUCT_DEFINITION('(Unsaved)','(Unsaved)',#969,#967);
#969=PRODUCT_DEFINITION_FORMATION('',$,#974);
#970=PRODUCT_RELATED_PRODUCT_CATEGORY('(Unsaved)','(Unsaved)',(#974));
#971=APPLICATION_PROTOCOL_DEFINITION('international standard',
'automotive_design',2009,#972);
#972=APPLICATION_CONTEXT(
'Core Data for Automotive Mechanical Design Process');
#973=PRODUCT_CONTEXT('part definition',#972,'mechanical');
#974=PRODUCT('(Unsaved)','(Unsaved)',$,(#973));
#975=PRESENTATION_STYLE_ASSIGNMENT((#976));
#976=SURFACE_STYLE_USAGE(.BOTH.,#977);
#977=SURFACE_SIDE_STYLE('',(#978));
#978=SURFACE_STYLE_FILL_AREA(#979);
#979=FILL_AREA_STYLE('Steel - Satin',(#980));
#980=FILL_AREA_STYLE_COLOUR('Steel - Satin',#981);
#981=COLOUR_RGB('Steel - Satin',0.627450980392157,0.627450980392157,0.627450980392157);
ENDSEC;
END-ISO-10303-21;
