ISO-10303-21;
HEADER;
/* Generated by software containing ST-Developer
 * from STEP Tools, Inc. (www.steptools.com) 
 */

FILE_DESCRIPTION(
/* description */ (''),
/* implementation_level */ '2;1');

FILE_NAME(
/* name */ 'reference-kickstand-mcmaster-6052n13-plungers.step',
/* time_stamp */ '2026-09-11T16:58:14-07:00',
/* author */ (''),
/* organization */ (''),
/* preprocessor_version */ 'ST-DEVELOPER v20.2',
/* originating_system */ 'Autodesk Translation Framework v15.15.0.0',
/* authorisation */ '');

FILE_SCHEMA (('AUTOMOTIVE_DESIGN { 1 0 10303 214 3 1 1 }'));
ENDSEC;

DATA;
#10=MECHANICAL_DESIGN_GEOMETRIC_PRESENTATION_REPRESENTATION('',(#15,#16,
#17,#18,#19,#20),#294);
#11=SHAPE_REPRESENTATION_RELATIONSHIP('SRR','None',#301,#12);
#12=ADVANCED_BREP_SHAPE_REPRESENTATION('',(#21,#22,#23,#24,#25,#26),#293);
#13=SPHERICAL_SURFACE('',#182,2.);
#14=SPHERICAL_SURFACE('',#194,2.);
#15=STYLED_ITEM('',(#310),#21);
#16=STYLED_ITEM('',(#310),#22);
#17=STYLED_ITEM('',(#310),#23);
#18=STYLED_ITEM('',(#310),#24);
#19=STYLED_ITEM('',(#310),#25);
#20=STYLED_ITEM('',(#310),#26);
#21=MANIFOLD_SOLID_BREP(
'reference-kickstand-mcmaster-6052n13-plungers 1',#153);
#22=MANIFOLD_SOLID_BREP(
'reference-kickstand-mcmaster-6052n13-plungers 2',#154);
#23=MANIFOLD_SOLID_BREP(
'reference-kickstand-mcmaster-6052n13-plungers 3',#155);
#24=MANIFOLD_SOLID_BREP(
'reference-kickstand-mcmaster-6052n13-plungers 4',#156);
#25=MANIFOLD_SOLID_BREP(
'reference-kickstand-mcmaster-6052n13-plungers 5',#157);
#26=MANIFOLD_SOLID_BREP(
'reference-kickstand-mcmaster-6052n13-plungers 6',#158);
#27=PLANE('',#175);
#28=PLANE('',#176);
#29=PLANE('',#180);
#30=PLANE('',#181);
#31=PLANE('',#187);
#32=PLANE('',#188);
#33=PLANE('',#192);
#34=PLANE('',#193);
#35=FACE_OUTER_BOUND('',#49,.T.);
#36=FACE_OUTER_BOUND('',#50,.T.);
#37=FACE_OUTER_BOUND('',#51,.T.);
#38=FACE_OUTER_BOUND('',#52,.T.);
#39=FACE_OUTER_BOUND('',#53,.T.);
#40=FACE_OUTER_BOUND('',#54,.T.);
#41=FACE_OUTER_BOUND('',#55,.T.);
#42=FACE_OUTER_BOUND('',#56,.T.);
#43=FACE_OUTER_BOUND('',#57,.T.);
#44=FACE_OUTER_BOUND('',#58,.T.);
#45=FACE_OUTER_BOUND('',#59,.T.);
#46=FACE_OUTER_BOUND('',#60,.T.);
#47=FACE_OUTER_BOUND('',#61,.T.);
#48=FACE_OUTER_BOUND('',#62,.T.);
#49=EDGE_LOOP('',(#107,#108,#109,#110));
#50=EDGE_LOOP('',(#111));
#51=EDGE_LOOP('',(#112));
#52=EDGE_LOOP('',(#113,#114,#115,#116));
#53=EDGE_LOOP('',(#117));
#54=EDGE_LOOP('',(#118));
#55=EDGE_LOOP('',(#119,#120));
#56=EDGE_LOOP('',(#121,#122,#123,#124));
#57=EDGE_LOOP('',(#125));
#58=EDGE_LOOP('',(#126));
#59=EDGE_LOOP('',(#127,#128,#129,#130));
#60=EDGE_LOOP('',(#131));
#61=EDGE_LOOP('',(#132));
#62=EDGE_LOOP('',(#133,#134));
#63=LINE('',#255,#67);
#64=LINE('',#263,#68);
#65=LINE('',#275,#69);
#66=LINE('',#283,#70);
#67=VECTOR('',#202,2.5);
#68=VECTOR('',#213,2.8);
#69=VECTOR('',#228,2.5);
#70=VECTOR('',#239,2.8);
#71=CIRCLE('',#173,2.5);
#72=CIRCLE('',#174,2.5);
#73=CIRCLE('',#178,2.8);
#74=CIRCLE('',#179,2.8);
#75=CIRCLE('',#183,1.99999999999999);
#76=CIRCLE('',#185,2.5);
#77=CIRCLE('',#186,2.5);
#78=CIRCLE('',#190,2.8);
#79=CIRCLE('',#191,2.8);
#80=CIRCLE('',#195,1.99999999999999);
#81=VERTEX_POINT('',#252);
#82=VERTEX_POINT('',#254);
#83=VERTEX_POINT('',#260);
#84=VERTEX_POINT('',#262);
#85=VERTEX_POINT('',#268);
#86=VERTEX_POINT('',#269);
#87=VERTEX_POINT('',#272);
#88=VERTEX_POINT('',#274);
#89=VERTEX_POINT('',#280);
#90=VERTEX_POINT('',#282);
#91=VERTEX_POINT('',#288);
#92=VERTEX_POINT('',#289);
#93=EDGE_CURVE('',#81,#81,#71,.T.);
#94=EDGE_CURVE('',#81,#82,#63,.T.);
#95=EDGE_CURVE('',#82,#82,#72,.T.);
#96=EDGE_CURVE('',#83,#83,#73,.T.);
#97=EDGE_CURVE('',#83,#84,#64,.T.);
#98=EDGE_CURVE('',#84,#84,#74,.T.);
#99=EDGE_CURVE('',#85,#86,#75,.T.);
#100=EDGE_CURVE('',#87,#87,#76,.T.);
#101=EDGE_CURVE('',#87,#88,#65,.T.);
#102=EDGE_CURVE('',#88,#88,#77,.T.);
#103=EDGE_CURVE('',#89,#89,#78,.T.);
#104=EDGE_CURVE('',#89,#90,#66,.T.);
#105=EDGE_CURVE('',#90,#90,#79,.T.);
#106=EDGE_CURVE('',#91,#92,#80,.T.);
#107=ORIENTED_EDGE('',*,*,#93,.F.);
#108=ORIENTED_EDGE('',*,*,#94,.T.);
#109=ORIENTED_EDGE('',*,*,#95,.F.);
#110=ORIENTED_EDGE('',*,*,#94,.F.);
#111=ORIENTED_EDGE('',*,*,#95,.T.);
#112=ORIENTED_EDGE('',*,*,#93,.T.);
#113=ORIENTED_EDGE('',*,*,#96,.F.);
#114=ORIENTED_EDGE('',*,*,#97,.T.);
#115=ORIENTED_EDGE('',*,*,#98,.F.);
#116=ORIENTED_EDGE('',*,*,#97,.F.);
#117=ORIENTED_EDGE('',*,*,#98,.T.);
#118=ORIENTED_EDGE('',*,*,#96,.T.);
#119=ORIENTED_EDGE('',*,*,#99,.T.);
#120=ORIENTED_EDGE('',*,*,#99,.F.);
#121=ORIENTED_EDGE('',*,*,#100,.F.);
#122=ORIENTED_EDGE('',*,*,#101,.T.);
#123=ORIENTED_EDGE('',*,*,#102,.F.);
#124=ORIENTED_EDGE('',*,*,#101,.F.);
#125=ORIENTED_EDGE('',*,*,#102,.T.);
#126=ORIENTED_EDGE('',*,*,#100,.T.);
#127=ORIENTED_EDGE('',*,*,#103,.F.);
#128=ORIENTED_EDGE('',*,*,#104,.T.);
#129=ORIENTED_EDGE('',*,*,#105,.F.);
#130=ORIENTED_EDGE('',*,*,#104,.F.);
#131=ORIENTED_EDGE('',*,*,#105,.T.);
#132=ORIENTED_EDGE('',*,*,#103,.T.);
#133=ORIENTED_EDGE('',*,*,#106,.T.);
#134=ORIENTED_EDGE('',*,*,#106,.F.);
#135=CYLINDRICAL_SURFACE('',#172,2.5);
#136=CYLINDRICAL_SURFACE('',#177,2.8);
#137=CYLINDRICAL_SURFACE('',#184,2.5);
#138=CYLINDRICAL_SURFACE('',#189,2.8);
#139=ADVANCED_FACE('',(#35),#135,.T.);
#140=ADVANCED_FACE('',(#36),#27,.T.);
#141=ADVANCED_FACE('',(#37),#28,.T.);
#142=ADVANCED_FACE('',(#38),#136,.T.);
#143=ADVANCED_FACE('',(#39),#29,.T.);
#144=ADVANCED_FACE('',(#40),#30,.T.);
#145=ADVANCED_FACE('',(#41),#13,.T.);
#146=ADVANCED_FACE('',(#42),#137,.T.);
#147=ADVANCED_FACE('',(#43),#31,.T.);
#148=ADVANCED_FACE('',(#44),#32,.T.);
#149=ADVANCED_FACE('',(#45),#138,.T.);
#150=ADVANCED_FACE('',(#46),#33,.T.);
#151=ADVANCED_FACE('',(#47),#34,.T.);
#152=ADVANCED_FACE('',(#48),#14,.T.);
#153=CLOSED_SHELL('',(#139,#140,#141));
#154=CLOSED_SHELL('',(#142,#143,#144));
#155=CLOSED_SHELL('',(#145));
#156=CLOSED_SHELL('',(#146,#147,#148));
#157=CLOSED_SHELL('',(#149,#150,#151));
#158=CLOSED_SHELL('',(#152));
#159=DERIVED_UNIT_ELEMENT(#161,1.);
#160=DERIVED_UNIT_ELEMENT(#296,-3.);
#161=(
MASS_UNIT()
NAMED_UNIT(*)
SI_UNIT(.KILO.,.GRAM.)
);
#162=DERIVED_UNIT((#159,#160));
#163=MEASURE_REPRESENTATION_ITEM('density measure',
POSITIVE_RATIO_MEASURE(7850.),#162);
#164=PROPERTY_DEFINITION_REPRESENTATION(#169,#166);
#165=PROPERTY_DEFINITION_REPRESENTATION(#170,#167);
#166=REPRESENTATION('material name',(#168),#293);
#167=REPRESENTATION('density',(#163),#293);
#168=DESCRIPTIVE_REPRESENTATION_ITEM('Steel','Steel');
#169=PROPERTY_DEFINITION('material property','material name',#303);
#170=PROPERTY_DEFINITION('material property','density of part',#303);
#171=AXIS2_PLACEMENT_3D('',#250,#196,#197);
#172=AXIS2_PLACEMENT_3D('',#251,#198,#199);
#173=AXIS2_PLACEMENT_3D('',#253,#200,#201);
#174=AXIS2_PLACEMENT_3D('',#256,#203,#204);
#175=AXIS2_PLACEMENT_3D('',#257,#205,#206);
#176=AXIS2_PLACEMENT_3D('',#258,#207,#208);
#177=AXIS2_PLACEMENT_3D('',#259,#209,#210);
#178=AXIS2_PLACEMENT_3D('',#261,#211,#212);
#179=AXIS2_PLACEMENT_3D('',#264,#214,#215);
#180=AXIS2_PLACEMENT_3D('',#265,#216,#217);
#181=AXIS2_PLACEMENT_3D('',#266,#218,#219);
#182=AXIS2_PLACEMENT_3D('',#267,#220,#221);
#183=AXIS2_PLACEMENT_3D('',#270,#222,#223);
#184=AXIS2_PLACEMENT_3D('',#271,#224,#225);
#185=AXIS2_PLACEMENT_3D('',#273,#226,#227);
#186=AXIS2_PLACEMENT_3D('',#276,#229,#230);
#187=AXIS2_PLACEMENT_3D('',#277,#231,#232);
#188=AXIS2_PLACEMENT_3D('',#278,#233,#234);
#189=AXIS2_PLACEMENT_3D('',#279,#235,#236);
#190=AXIS2_PLACEMENT_3D('',#281,#237,#238);
#191=AXIS2_PLACEMENT_3D('',#284,#240,#241);
#192=AXIS2_PLACEMENT_3D('',#285,#242,#243);
#193=AXIS2_PLACEMENT_3D('',#286,#244,#245);
#194=AXIS2_PLACEMENT_3D('',#287,#246,#247);
#195=AXIS2_PLACEMENT_3D('',#290,#248,#249);
#196=DIRECTION('axis',(0.,0.,1.));
#197=DIRECTION('refdir',(1.,0.,0.));
#198=DIRECTION('center_axis',(1.,0.,0.));
#199=DIRECTION('ref_axis',(0.,0.,-1.));
#200=DIRECTION('center_axis',(1.,0.,0.));
#201=DIRECTION('ref_axis',(0.,0.,-1.));
#202=DIRECTION('',(-1.,0.,0.));
#203=DIRECTION('center_axis',(-1.,0.,0.));
#204=DIRECTION('ref_axis',(0.,0.,-1.));
#205=DIRECTION('center_axis',(-1.,0.,0.));
#206=DIRECTION('ref_axis',(0.,0.,1.));
#207=DIRECTION('center_axis',(1.,0.,0.));
#208=DIRECTION('ref_axis',(0.,0.,-1.));
#209=DIRECTION('center_axis',(1.,0.,0.));
#210=DIRECTION('ref_axis',(0.,0.,-1.));
#211=DIRECTION('center_axis',(1.,0.,0.));
#212=DIRECTION('ref_axis',(0.,0.,-1.));
#213=DIRECTION('',(-1.,0.,0.));
#214=DIRECTION('center_axis',(-1.,0.,0.));
#215=DIRECTION('ref_axis',(0.,0.,-1.));
#216=DIRECTION('center_axis',(-1.,0.,0.));
#217=DIRECTION('ref_axis',(0.,0.,1.));
#218=DIRECTION('center_axis',(1.,0.,0.));
#219=DIRECTION('ref_axis',(0.,0.,-1.));
#220=DIRECTION('center_axis',(0.,0.,1.));
#221=DIRECTION('ref_axis',(1.,0.,0.));
#222=DIRECTION('center_axis',(0.,-1.,0.));
#223=DIRECTION('ref_axis',(-1.,0.,0.));
#224=DIRECTION('center_axis',(1.,0.,0.));
#225=DIRECTION('ref_axis',(0.,0.,-1.));
#226=DIRECTION('center_axis',(1.,0.,0.));
#227=DIRECTION('ref_axis',(0.,0.,-1.));
#228=DIRECTION('',(-1.,0.,0.));
#229=DIRECTION('center_axis',(-1.,0.,0.));
#230=DIRECTION('ref_axis',(0.,0.,-1.));
#231=DIRECTION('center_axis',(-1.,0.,0.));
#232=DIRECTION('ref_axis',(0.,0.,1.));
#233=DIRECTION('center_axis',(1.,0.,0.));
#234=DIRECTION('ref_axis',(0.,0.,-1.));
#235=DIRECTION('center_axis',(1.,0.,0.));
#236=DIRECTION('ref_axis',(0.,0.,-1.));
#237=DIRECTION('center_axis',(1.,0.,0.));
#238=DIRECTION('ref_axis',(0.,0.,-1.));
#239=DIRECTION('',(-1.,0.,0.));
#240=DIRECTION('center_axis',(-1.,0.,0.));
#241=DIRECTION('ref_axis',(0.,0.,-1.));
#242=DIRECTION('center_axis',(-1.,0.,0.));
#243=DIRECTION('ref_axis',(0.,0.,1.));
#244=DIRECTION('center_axis',(1.,0.,0.));
#245=DIRECTION('ref_axis',(0.,0.,-1.));
#246=DIRECTION('center_axis',(0.,0.,1.));
#247=DIRECTION('ref_axis',(1.,0.,0.));
#248=DIRECTION('center_axis',(0.,-1.,0.));
#249=DIRECTION('ref_axis',(-1.,0.,0.));
#250=CARTESIAN_POINT('',(0.,0.,0.));
#251=CARTESIAN_POINT('Origin',(84.843,186.63769725,-22.2286521666667));
#252=CARTESIAN_POINT('',(87.393,186.63769725,-19.7286521666667));
#253=CARTESIAN_POINT('Origin',(87.393,186.63769725,-22.2286521666667));
#254=CARTESIAN_POINT('',(82.293,186.63769725,-19.7286521666667));
#255=CARTESIAN_POINT('',(84.843,186.63769725,-19.7286521666667));
#256=CARTESIAN_POINT('Origin',(82.293,186.63769725,-22.2286521666667));
#257=CARTESIAN_POINT('Origin',(82.293,186.63769725,-22.2286521666667));
#258=CARTESIAN_POINT('Origin',(87.393,186.63769725,-22.2286521666667));
#259=CARTESIAN_POINT('Origin',(87.843,186.63769725,-22.2286521666667));
#260=CARTESIAN_POINT('',(88.293,186.63769725,-19.4286521666667));
#261=CARTESIAN_POINT('Origin',(88.293,186.63769725,-22.2286521666667));
#262=CARTESIAN_POINT('',(87.393,186.63769725,-19.4286521666667));
#263=CARTESIAN_POINT('',(87.843,186.63769725,-19.4286521666667));
#264=CARTESIAN_POINT('Origin',(87.393,186.63769725,-22.2286521666667));
#265=CARTESIAN_POINT('Origin',(87.393,186.63769725,-22.2286521666667));
#266=CARTESIAN_POINT('Origin',(88.293,186.63769725,-22.2286521666667));
#267=CARTESIAN_POINT('Origin',(87.793,186.63769725,-22.2286521666667));
#268=CARTESIAN_POINT('',(87.793,186.63769725,-20.2286521666667));
#269=CARTESIAN_POINT('',(87.793,186.63769725,-24.2286521666667));
#270=CARTESIAN_POINT('Origin',(87.793,186.63769725,-22.2286521666667));
#271=CARTESIAN_POINT('Origin',(-84.843,186.63769725,-22.2286521666667));
#272=CARTESIAN_POINT('',(-82.293,186.63769725,-19.7286521666667));
#273=CARTESIAN_POINT('Origin',(-82.293,186.63769725,-22.2286521666667));
#274=CARTESIAN_POINT('',(-87.393,186.63769725,-19.7286521666667));
#275=CARTESIAN_POINT('',(-84.843,186.63769725,-19.7286521666667));
#276=CARTESIAN_POINT('Origin',(-87.393,186.63769725,-22.2286521666667));
#277=CARTESIAN_POINT('Origin',(-87.393,186.63769725,-22.2286521666667));
#278=CARTESIAN_POINT('Origin',(-82.293,186.63769725,-22.2286521666667));
#279=CARTESIAN_POINT('Origin',(-87.843,186.63769725,-22.2286521666667));
#280=CARTESIAN_POINT('',(-87.393,186.63769725,-19.4286521666667));
#281=CARTESIAN_POINT('Origin',(-87.393,186.63769725,-22.2286521666667));
#282=CARTESIAN_POINT('',(-88.293,186.63769725,-19.4286521666667));
#283=CARTESIAN_POINT('',(-87.843,186.63769725,-19.4286521666667));
#284=CARTESIAN_POINT('Origin',(-88.293,186.63769725,-22.2286521666667));
#285=CARTESIAN_POINT('Origin',(-88.293,186.63769725,-22.2286521666667));
#286=CARTESIAN_POINT('Origin',(-87.393,186.63769725,-22.2286521666667));
#287=CARTESIAN_POINT('Origin',(-87.793,186.63769725,-22.2286521666667));
#288=CARTESIAN_POINT('',(-87.793,186.63769725,-20.2286521666667));
#289=CARTESIAN_POINT('',(-87.793,186.63769725,-24.2286521666667));
#290=CARTESIAN_POINT('Origin',(-87.793,186.63769725,-22.2286521666667));
#291=UNCERTAINTY_MEASURE_WITH_UNIT(LENGTH_MEASURE(0.01),#295,
'DISTANCE_ACCURACY_VALUE',
'Maximum model space distance between geometric entities at asserted c
onnectivities');
#292=UNCERTAINTY_MEASURE_WITH_UNIT(LENGTH_MEASURE(0.01),#295,
'DISTANCE_ACCURACY_VALUE',
'Maximum model space distance between geometric entities at asserted c
onnectivities');
#293=(
GEOMETRIC_REPRESENTATION_CONTEXT(3)
GLOBAL_UNCERTAINTY_ASSIGNED_CONTEXT((#291))
GLOBAL_UNIT_ASSIGNED_CONTEXT((#295,#297,#298))
REPRESENTATION_CONTEXT('','3D')
);
#294=(
GEOMETRIC_REPRESENTATION_CONTEXT(3)
GLOBAL_UNCERTAINTY_ASSIGNED_CONTEXT((#292))
GLOBAL_UNIT_ASSIGNED_CONTEXT((#295,#297,#298))
REPRESENTATION_CONTEXT('','3D')
);
#295=(
LENGTH_UNIT()
NAMED_UNIT(*)
SI_UNIT(.MILLI.,.METRE.)
);
#296=(
LENGTH_UNIT()
NAMED_UNIT(*)
SI_UNIT($,.METRE.)
);
#297=(
NAMED_UNIT(*)
PLANE_ANGLE_UNIT()
SI_UNIT($,.RADIAN.)
);
#298=(
NAMED_UNIT(*)
SI_UNIT($,.STERADIAN.)
SOLID_ANGLE_UNIT()
);
#299=SHAPE_DEFINITION_REPRESENTATION(#300,#301);
#300=PRODUCT_DEFINITION_SHAPE('',$,#303);
#301=SHAPE_REPRESENTATION('',(#171),#293);
#302=PRODUCT_DEFINITION_CONTEXT('part definition',#307,'design');
#303=PRODUCT_DEFINITION('(Unsaved)','(Unsaved)',#304,#302);
#304=PRODUCT_DEFINITION_FORMATION('',$,#309);
#305=PRODUCT_RELATED_PRODUCT_CATEGORY('(Unsaved)','(Unsaved)',(#309));
#306=APPLICATION_PROTOCOL_DEFINITION('international standard',
'automotive_design',2009,#307);
#307=APPLICATION_CONTEXT(
'Core Data for Automotive Mechanical Design Process');
#308=PRODUCT_CONTEXT('part definition',#307,'mechanical');
#309=PRODUCT('(Unsaved)','(Unsaved)',$,(#308));
#310=PRESENTATION_STYLE_ASSIGNMENT((#311));
#311=SURFACE_STYLE_USAGE(.BOTH.,#312);
#312=SURFACE_SIDE_STYLE('',(#313));
#313=SURFACE_STYLE_FILL_AREA(#314);
#314=FILL_AREA_STYLE('Steel - Satin',(#315));
#315=FILL_AREA_STYLE_COLOUR('Steel - Satin',#316);
#316=COLOUR_RGB('Steel - Satin',0.627450980392157,0.627450980392157,0.627450980392157);
ENDSEC;
END-ISO-10303-21;
