ISO-10303-21;
HEADER;
/* Generated by software containing ST-Developer
 * from STEP Tools, Inc. (www.steptools.com) 
 */

FILE_DESCRIPTION(
/* description */ (''),
/* implementation_level */ '2;1');

FILE_NAME(
/* name */ 'reference-kickstand-m3-inserts-and-screws.step',
/* time_stamp */ '2026-09-11T16:58:15-07:00',
/* author */ (''),
/* organization */ (''),
/* preprocessor_version */ 'ST-DEVELOPER v20.2',
/* originating_system */ 'Autodesk Translation Framework v15.15.0.0',
/* authorisation */ '');

FILE_SCHEMA (('AUTOMOTIVE_DESIGN { 1 0 10303 214 3 1 1 }'));
ENDSEC;

DATA;
#10=MECHANICAL_DESIGN_GEOMETRIC_PRESENTATION_REPRESENTATION('',(#15,#16,
#17,#18),#338);
#11=SHAPE_REPRESENTATION_RELATIONSHIP('SRR','None',#345,#12);
#12=ADVANCED_BREP_SHAPE_REPRESENTATION('',(#19,#20,#21,#22),#337);
#13=FACE_BOUND('',#60,.T.);
#14=FACE_BOUND('',#66,.T.);
#15=STYLED_ITEM('',(#354),#19);
#16=STYLED_ITEM('',(#354),#20);
#17=STYLED_ITEM('',(#354),#21);
#18=STYLED_ITEM('',(#354),#22);
#19=MANIFOLD_SOLID_BREP('reference-kickstand-m3-inserts-and-screws 1',#179);
#20=MANIFOLD_SOLID_BREP('reference-kickstand-m3-inserts-and-screws 2',#180);
#21=MANIFOLD_SOLID_BREP('reference-kickstand-m3-inserts-and-screws 3',#181);
#22=MANIFOLD_SOLID_BREP('reference-kickstand-m3-inserts-and-screws 4',#182);
#23=PLANE('',#199);
#24=PLANE('',#200);
#25=PLANE('',#204);
#26=PLANE('',#205);
#27=PLANE('',#209);
#28=PLANE('',#213);
#29=PLANE('',#214);
#30=PLANE('',#218);
#31=PLANE('',#222);
#32=PLANE('',#223);
#33=FACE_OUTER_BOUND('',#49,.T.);
#34=FACE_OUTER_BOUND('',#50,.T.);
#35=FACE_OUTER_BOUND('',#51,.T.);
#36=FACE_OUTER_BOUND('',#52,.T.);
#37=FACE_OUTER_BOUND('',#53,.T.);
#38=FACE_OUTER_BOUND('',#54,.T.);
#39=FACE_OUTER_BOUND('',#55,.T.);
#40=FACE_OUTER_BOUND('',#56,.T.);
#41=FACE_OUTER_BOUND('',#57,.T.);
#42=FACE_OUTER_BOUND('',#58,.T.);
#43=FACE_OUTER_BOUND('',#59,.T.);
#44=FACE_OUTER_BOUND('',#61,.T.);
#45=FACE_OUTER_BOUND('',#62,.T.);
#46=FACE_OUTER_BOUND('',#63,.T.);
#47=FACE_OUTER_BOUND('',#64,.T.);
#48=FACE_OUTER_BOUND('',#65,.T.);
#49=EDGE_LOOP('',(#121,#122,#123,#124));
#50=EDGE_LOOP('',(#125));
#51=EDGE_LOOP('',(#126));
#52=EDGE_LOOP('',(#127,#128,#129,#130));
#53=EDGE_LOOP('',(#131));
#54=EDGE_LOOP('',(#132));
#55=EDGE_LOOP('',(#133,#134,#135,#136));
#56=EDGE_LOOP('',(#137));
#57=EDGE_LOOP('',(#138,#139,#140,#141));
#58=EDGE_LOOP('',(#142));
#59=EDGE_LOOP('',(#143));
#60=EDGE_LOOP('',(#144));
#61=EDGE_LOOP('',(#145,#146,#147,#148));
#62=EDGE_LOOP('',(#149));
#63=EDGE_LOOP('',(#150,#151,#152,#153));
#64=EDGE_LOOP('',(#154));
#65=EDGE_LOOP('',(#155));
#66=EDGE_LOOP('',(#156));
#67=LINE('',#293,#73);
#68=LINE('',#301,#74);
#69=LINE('',#309,#75);
#70=LINE('',#316,#76);
#71=LINE('',#324,#77);
#72=LINE('',#331,#78);
#73=VECTOR('',#230,2.);
#74=VECTOR('',#241,2.);
#75=VECTOR('',#252,1.5);
#76=VECTOR('',#261,2.75);
#77=VECTOR('',#272,1.5);
#78=VECTOR('',#281,2.75);
#79=CIRCLE('',#197,2.);
#80=CIRCLE('',#198,2.);
#81=CIRCLE('',#202,2.);
#82=CIRCLE('',#203,2.);
#83=CIRCLE('',#207,1.5);
#84=CIRCLE('',#208,1.5);
#85=CIRCLE('',#211,2.75);
#86=CIRCLE('',#212,2.75);
#87=CIRCLE('',#216,1.5);
#88=CIRCLE('',#217,1.5);
#89=CIRCLE('',#220,2.75);
#90=CIRCLE('',#221,2.75);
#91=VERTEX_POINT('',#290);
#92=VERTEX_POINT('',#292);
#93=VERTEX_POINT('',#298);
#94=VERTEX_POINT('',#300);
#95=VERTEX_POINT('',#306);
#96=VERTEX_POINT('',#308);
#97=VERTEX_POINT('',#313);
#98=VERTEX_POINT('',#315);
#99=VERTEX_POINT('',#321);
#100=VERTEX_POINT('',#323);
#101=VERTEX_POINT('',#328);
#102=VERTEX_POINT('',#330);
#103=EDGE_CURVE('',#91,#91,#79,.T.);
#104=EDGE_CURVE('',#91,#92,#67,.T.);
#105=EDGE_CURVE('',#92,#92,#80,.T.);
#106=EDGE_CURVE('',#93,#93,#81,.T.);
#107=EDGE_CURVE('',#93,#94,#68,.T.);
#108=EDGE_CURVE('',#94,#94,#82,.T.);
#109=EDGE_CURVE('',#95,#95,#83,.T.);
#110=EDGE_CURVE('',#95,#96,#69,.T.);
#111=EDGE_CURVE('',#96,#96,#84,.T.);
#112=EDGE_CURVE('',#97,#97,#85,.T.);
#113=EDGE_CURVE('',#97,#98,#70,.T.);
#114=EDGE_CURVE('',#98,#98,#86,.T.);
#115=EDGE_CURVE('',#99,#99,#87,.T.);
#116=EDGE_CURVE('',#99,#100,#71,.T.);
#117=EDGE_CURVE('',#100,#100,#88,.T.);
#118=EDGE_CURVE('',#101,#101,#89,.T.);
#119=EDGE_CURVE('',#101,#102,#72,.T.);
#120=EDGE_CURVE('',#102,#102,#90,.T.);
#121=ORIENTED_EDGE('',*,*,#103,.F.);
#122=ORIENTED_EDGE('',*,*,#104,.T.);
#123=ORIENTED_EDGE('',*,*,#105,.F.);
#124=ORIENTED_EDGE('',*,*,#104,.F.);
#125=ORIENTED_EDGE('',*,*,#105,.T.);
#126=ORIENTED_EDGE('',*,*,#103,.T.);
#127=ORIENTED_EDGE('',*,*,#106,.F.);
#128=ORIENTED_EDGE('',*,*,#107,.T.);
#129=ORIENTED_EDGE('',*,*,#108,.F.);
#130=ORIENTED_EDGE('',*,*,#107,.F.);
#131=ORIENTED_EDGE('',*,*,#108,.T.);
#132=ORIENTED_EDGE('',*,*,#106,.T.);
#133=ORIENTED_EDGE('',*,*,#109,.F.);
#134=ORIENTED_EDGE('',*,*,#110,.T.);
#135=ORIENTED_EDGE('',*,*,#111,.F.);
#136=ORIENTED_EDGE('',*,*,#110,.F.);
#137=ORIENTED_EDGE('',*,*,#109,.T.);
#138=ORIENTED_EDGE('',*,*,#112,.F.);
#139=ORIENTED_EDGE('',*,*,#113,.T.);
#140=ORIENTED_EDGE('',*,*,#114,.F.);
#141=ORIENTED_EDGE('',*,*,#113,.F.);
#142=ORIENTED_EDGE('',*,*,#114,.T.);
#143=ORIENTED_EDGE('',*,*,#112,.T.);
#144=ORIENTED_EDGE('',*,*,#111,.T.);
#145=ORIENTED_EDGE('',*,*,#115,.F.);
#146=ORIENTED_EDGE('',*,*,#116,.T.);
#147=ORIENTED_EDGE('',*,*,#117,.F.);
#148=ORIENTED_EDGE('',*,*,#116,.F.);
#149=ORIENTED_EDGE('',*,*,#115,.T.);
#150=ORIENTED_EDGE('',*,*,#118,.F.);
#151=ORIENTED_EDGE('',*,*,#119,.T.);
#152=ORIENTED_EDGE('',*,*,#120,.F.);
#153=ORIENTED_EDGE('',*,*,#119,.F.);
#154=ORIENTED_EDGE('',*,*,#120,.T.);
#155=ORIENTED_EDGE('',*,*,#118,.T.);
#156=ORIENTED_EDGE('',*,*,#117,.T.);
#157=CYLINDRICAL_SURFACE('',#196,2.);
#158=CYLINDRICAL_SURFACE('',#201,2.);
#159=CYLINDRICAL_SURFACE('',#206,1.5);
#160=CYLINDRICAL_SURFACE('',#210,2.75);
#161=CYLINDRICAL_SURFACE('',#215,1.5);
#162=CYLINDRICAL_SURFACE('',#219,2.75);
#163=ADVANCED_FACE('',(#33),#157,.T.);
#164=ADVANCED_FACE('',(#34),#23,.T.);
#165=ADVANCED_FACE('',(#35),#24,.T.);
#166=ADVANCED_FACE('',(#36),#158,.T.);
#167=ADVANCED_FACE('',(#37),#25,.T.);
#168=ADVANCED_FACE('',(#38),#26,.T.);
#169=ADVANCED_FACE('',(#39),#159,.T.);
#170=ADVANCED_FACE('',(#40),#27,.T.);
#171=ADVANCED_FACE('',(#41),#160,.T.);
#172=ADVANCED_FACE('',(#42),#28,.T.);
#173=ADVANCED_FACE('',(#43,#13),#29,.T.);
#174=ADVANCED_FACE('',(#44),#161,.T.);
#175=ADVANCED_FACE('',(#45),#30,.T.);
#176=ADVANCED_FACE('',(#46),#162,.T.);
#177=ADVANCED_FACE('',(#47),#31,.T.);
#178=ADVANCED_FACE('',(#48,#14),#32,.T.);
#179=CLOSED_SHELL('',(#163,#164,#165));
#180=CLOSED_SHELL('',(#166,#167,#168));
#181=CLOSED_SHELL('',(#169,#170,#171,#172,#173));
#182=CLOSED_SHELL('',(#174,#175,#176,#177,#178));
#183=DERIVED_UNIT_ELEMENT(#185,1.);
#184=DERIVED_UNIT_ELEMENT(#340,-3.);
#185=(
MASS_UNIT()
NAMED_UNIT(*)
SI_UNIT(.KILO.,.GRAM.)
);
#186=DERIVED_UNIT((#183,#184));
#187=MEASURE_REPRESENTATION_ITEM('density measure',
POSITIVE_RATIO_MEASURE(7850.),#186);
#188=PROPERTY_DEFINITION_REPRESENTATION(#193,#190);
#189=PROPERTY_DEFINITION_REPRESENTATION(#194,#191);
#190=REPRESENTATION('material name',(#192),#337);
#191=REPRESENTATION('density',(#187),#337);
#192=DESCRIPTIVE_REPRESENTATION_ITEM('Steel','Steel');
#193=PROPERTY_DEFINITION('material property','material name',#347);
#194=PROPERTY_DEFINITION('material property','density of part',#347);
#195=AXIS2_PLACEMENT_3D('',#288,#224,#225);
#196=AXIS2_PLACEMENT_3D('',#289,#226,#227);
#197=AXIS2_PLACEMENT_3D('',#291,#228,#229);
#198=AXIS2_PLACEMENT_3D('',#294,#231,#232);
#199=AXIS2_PLACEMENT_3D('',#295,#233,#234);
#200=AXIS2_PLACEMENT_3D('',#296,#235,#236);
#201=AXIS2_PLACEMENT_3D('',#297,#237,#238);
#202=AXIS2_PLACEMENT_3D('',#299,#239,#240);
#203=AXIS2_PLACEMENT_3D('',#302,#242,#243);
#204=AXIS2_PLACEMENT_3D('',#303,#244,#245);
#205=AXIS2_PLACEMENT_3D('',#304,#246,#247);
#206=AXIS2_PLACEMENT_3D('',#305,#248,#249);
#207=AXIS2_PLACEMENT_3D('',#307,#250,#251);
#208=AXIS2_PLACEMENT_3D('',#310,#253,#254);
#209=AXIS2_PLACEMENT_3D('',#311,#255,#256);
#210=AXIS2_PLACEMENT_3D('',#312,#257,#258);
#211=AXIS2_PLACEMENT_3D('',#314,#259,#260);
#212=AXIS2_PLACEMENT_3D('',#317,#262,#263);
#213=AXIS2_PLACEMENT_3D('',#318,#264,#265);
#214=AXIS2_PLACEMENT_3D('',#319,#266,#267);
#215=AXIS2_PLACEMENT_3D('',#320,#268,#269);
#216=AXIS2_PLACEMENT_3D('',#322,#270,#271);
#217=AXIS2_PLACEMENT_3D('',#325,#273,#274);
#218=AXIS2_PLACEMENT_3D('',#326,#275,#276);
#219=AXIS2_PLACEMENT_3D('',#327,#277,#278);
#220=AXIS2_PLACEMENT_3D('',#329,#279,#280);
#221=AXIS2_PLACEMENT_3D('',#332,#282,#283);
#222=AXIS2_PLACEMENT_3D('',#333,#284,#285);
#223=AXIS2_PLACEMENT_3D('',#334,#286,#287);
#224=DIRECTION('axis',(0.,0.,1.));
#225=DIRECTION('refdir',(1.,0.,0.));
#226=DIRECTION('center_axis',(1.,0.,0.));
#227=DIRECTION('ref_axis',(0.,0.,-1.));
#228=DIRECTION('center_axis',(1.,0.,0.));
#229=DIRECTION('ref_axis',(0.,0.,-1.));
#230=DIRECTION('',(-1.,0.,0.));
#231=DIRECTION('center_axis',(-1.,0.,0.));
#232=DIRECTION('ref_axis',(0.,0.,-1.));
#233=DIRECTION('center_axis',(-1.,0.,0.));
#234=DIRECTION('ref_axis',(0.,0.,1.));
#235=DIRECTION('center_axis',(1.,0.,0.));
#236=DIRECTION('ref_axis',(0.,0.,-1.));
#237=DIRECTION('center_axis',(1.,0.,0.));
#238=DIRECTION('ref_axis',(0.,0.,-1.));
#239=DIRECTION('center_axis',(1.,0.,0.));
#240=DIRECTION('ref_axis',(0.,0.,-1.));
#241=DIRECTION('',(-1.,0.,0.));
#242=DIRECTION('center_axis',(-1.,0.,0.));
#243=DIRECTION('ref_axis',(0.,0.,-1.));
#244=DIRECTION('center_axis',(-1.,0.,0.));
#245=DIRECTION('ref_axis',(0.,0.,1.));
#246=DIRECTION('center_axis',(1.,0.,0.));
#247=DIRECTION('ref_axis',(0.,0.,-1.));
#248=DIRECTION('center_axis',(1.,0.,0.));
#249=DIRECTION('ref_axis',(0.,0.,-1.));
#250=DIRECTION('center_axis',(1.,0.,0.));
#251=DIRECTION('ref_axis',(0.,0.,-1.));
#252=DIRECTION('',(-1.,0.,0.));
#253=DIRECTION('center_axis',(-1.,0.,0.));
#254=DIRECTION('ref_axis',(0.,0.,-1.));
#255=DIRECTION('center_axis',(1.,0.,0.));
#256=DIRECTION('ref_axis',(0.,0.,-1.));
#257=DIRECTION('center_axis',(1.,0.,0.));
#258=DIRECTION('ref_axis',(0.,0.,-1.));
#259=DIRECTION('center_axis',(1.,0.,0.));
#260=DIRECTION('ref_axis',(0.,0.,-1.));
#261=DIRECTION('',(-1.,0.,0.));
#262=DIRECTION('center_axis',(-1.,0.,0.));
#263=DIRECTION('ref_axis',(0.,0.,-1.));
#264=DIRECTION('center_axis',(-1.,0.,0.));
#265=DIRECTION('ref_axis',(0.,0.,1.));
#266=DIRECTION('center_axis',(1.,0.,0.));
#267=DIRECTION('ref_axis',(0.,0.,-1.));
#268=DIRECTION('center_axis',(-1.,0.,0.));
#269=DIRECTION('ref_axis',(0.,0.,1.));
#270=DIRECTION('center_axis',(-1.,0.,0.));
#271=DIRECTION('ref_axis',(0.,0.,1.));
#272=DIRECTION('',(1.,0.,0.));
#273=DIRECTION('center_axis',(1.,0.,0.));
#274=DIRECTION('ref_axis',(0.,0.,1.));
#275=DIRECTION('center_axis',(-1.,0.,0.));
#276=DIRECTION('ref_axis',(0.,0.,1.));
#277=DIRECTION('center_axis',(-1.,0.,0.));
#278=DIRECTION('ref_axis',(0.,0.,1.));
#279=DIRECTION('center_axis',(-1.,0.,0.));
#280=DIRECTION('ref_axis',(0.,0.,1.));
#281=DIRECTION('',(1.,0.,0.));
#282=DIRECTION('center_axis',(1.,0.,0.));
#283=DIRECTION('ref_axis',(0.,0.,1.));
#284=DIRECTION('center_axis',(1.,0.,0.));
#285=DIRECTION('ref_axis',(0.,0.,-1.));
#286=DIRECTION('center_axis',(-1.,0.,0.));
#287=DIRECTION('ref_axis',(0.,0.,1.));
#288=CARTESIAN_POINT('',(0.,0.,0.));
#289=CARTESIAN_POINT('Origin',(93.793,195.872443,-19.999417));
#290=CARTESIAN_POINT('',(95.493,195.872443,-17.999417));
#291=CARTESIAN_POINT('Origin',(95.493,195.872443,-19.999417));
#292=CARTESIAN_POINT('',(92.093,195.872443,-17.999417));
#293=CARTESIAN_POINT('',(93.793,195.872443,-17.999417));
#294=CARTESIAN_POINT('Origin',(92.093,195.872443,-19.999417));
#295=CARTESIAN_POINT('Origin',(92.093,195.872443,-19.999417));
#296=CARTESIAN_POINT('Origin',(95.493,195.872443,-19.999417));
#297=CARTESIAN_POINT('Origin',(-93.793,195.872443,-19.999417));
#298=CARTESIAN_POINT('',(-92.093,195.872443,-17.999417));
#299=CARTESIAN_POINT('Origin',(-92.093,195.872443,-19.999417));
#300=CARTESIAN_POINT('',(-95.493,195.872443,-17.999417));
#301=CARTESIAN_POINT('',(-93.793,195.872443,-17.999417));
#302=CARTESIAN_POINT('Origin',(-95.493,195.872443,-19.999417));
#303=CARTESIAN_POINT('Origin',(-95.493,195.872443,-19.999417));
#304=CARTESIAN_POINT('Origin',(-92.093,195.872443,-19.999417));
#305=CARTESIAN_POINT('Origin',(89.193,195.872443,-19.999417));
#306=CARTESIAN_POINT('',(96.193,195.872443,-18.499417));
#307=CARTESIAN_POINT('Origin',(96.193,195.872443,-19.999417));
#308=CARTESIAN_POINT('',(82.193,195.872443,-18.499417));
#309=CARTESIAN_POINT('',(89.193,195.872443,-18.499417));
#310=CARTESIAN_POINT('Origin',(82.193,195.872443,-19.999417));
#311=CARTESIAN_POINT('Origin',(96.193,195.872443,-19.999417));
#312=CARTESIAN_POINT('Origin',(81.193,195.872443,-19.999417));
#313=CARTESIAN_POINT('',(82.193,195.872443,-17.249417));
#314=CARTESIAN_POINT('Origin',(82.193,195.872443,-19.999417));
#315=CARTESIAN_POINT('',(80.193,195.872443,-17.249417));
#316=CARTESIAN_POINT('',(81.193,195.872443,-17.249417));
#317=CARTESIAN_POINT('Origin',(80.193,195.872443,-19.999417));
#318=CARTESIAN_POINT('Origin',(80.193,195.872443,-19.999417));
#319=CARTESIAN_POINT('Origin',(82.193,195.872443,-19.999417));
#320=CARTESIAN_POINT('Origin',(-89.193,195.872443,-19.999417));
#321=CARTESIAN_POINT('',(-96.193,195.872443,-21.499417));
#322=CARTESIAN_POINT('Origin',(-96.193,195.872443,-19.999417));
#323=CARTESIAN_POINT('',(-82.193,195.872443,-21.499417));
#324=CARTESIAN_POINT('',(-89.193,195.872443,-21.499417));
#325=CARTESIAN_POINT('Origin',(-82.193,195.872443,-19.999417));
#326=CARTESIAN_POINT('Origin',(-96.193,195.872443,-19.999417));
#327=CARTESIAN_POINT('Origin',(-81.193,195.872443,-19.999417));
#328=CARTESIAN_POINT('',(-82.193,195.872443,-22.749417));
#329=CARTESIAN_POINT('Origin',(-82.193,195.872443,-19.999417));
#330=CARTESIAN_POINT('',(-80.193,195.872443,-22.749417));
#331=CARTESIAN_POINT('',(-81.193,195.872443,-22.749417));
#332=CARTESIAN_POINT('Origin',(-80.193,195.872443,-19.999417));
#333=CARTESIAN_POINT('Origin',(-80.193,195.872443,-19.999417));
#334=CARTESIAN_POINT('Origin',(-82.193,195.872443,-19.999417));
#335=UNCERTAINTY_MEASURE_WITH_UNIT(LENGTH_MEASURE(0.01),#339,
'DISTANCE_ACCURACY_VALUE',
'Maximum model space distance between geometric entities at asserted c
onnectivities');
#336=UNCERTAINTY_MEASURE_WITH_UNIT(LENGTH_MEASURE(0.01),#339,
'DISTANCE_ACCURACY_VALUE',
'Maximum model space distance between geometric entities at asserted c
onnectivities');
#337=(
GEOMETRIC_REPRESENTATION_CONTEXT(3)
GLOBAL_UNCERTAINTY_ASSIGNED_CONTEXT((#335))
GLOBAL_UNIT_ASSIGNED_CONTEXT((#339,#341,#342))
REPRESENTATION_CONTEXT('','3D')
);
#338=(
GEOMETRIC_REPRESENTATION_CONTEXT(3)
GLOBAL_UNCERTAINTY_ASSIGNED_CONTEXT((#336))
GLOBAL_UNIT_ASSIGNED_CONTEXT((#339,#341,#342))
REPRESENTATION_CONTEXT('','3D')
);
#339=(
LENGTH_UNIT()
NAMED_UNIT(*)
SI_UNIT(.MILLI.,.METRE.)
);
#340=(
LENGTH_UNIT()
NAMED_UNIT(*)
SI_UNIT($,.METRE.)
);
#341=(
NAMED_UNIT(*)
PLANE_ANGLE_UNIT()
SI_UNIT($,.RADIAN.)
);
#342=(
NAMED_UNIT(*)
SI_UNIT($,.STERADIAN.)
SOLID_ANGLE_UNIT()
);
#343=SHAPE_DEFINITION_REPRESENTATION(#344,#345);
#344=PRODUCT_DEFINITION_SHAPE('',$,#347);
#345=SHAPE_REPRESENTATION('',(#195),#337);
#346=PRODUCT_DEFINITION_CONTEXT('part definition',#351,'design');
#347=PRODUCT_DEFINITION('(Unsaved)','(Unsaved)',#348,#346);
#348=PRODUCT_DEFINITION_FORMATION('',$,#353);
#349=PRODUCT_RELATED_PRODUCT_CATEGORY('(Unsaved)','(Unsaved)',(#353));
#350=APPLICATION_PROTOCOL_DEFINITION('international standard',
'automotive_design',2009,#351);
#351=APPLICATION_CONTEXT(
'Core Data for Automotive Mechanical Design Process');
#352=PRODUCT_CONTEXT('part definition',#351,'mechanical');
#353=PRODUCT('(Unsaved)','(Unsaved)',$,(#352));
#354=PRESENTATION_STYLE_ASSIGNMENT((#355));
#355=SURFACE_STYLE_USAGE(.BOTH.,#356);
#356=SURFACE_SIDE_STYLE('',(#357));
#357=SURFACE_STYLE_FILL_AREA(#358);
#358=FILL_AREA_STYLE('Steel - Satin',(#359));
#359=FILL_AREA_STYLE_COLOUR('Steel - Satin',#360);
#360=COLOUR_RGB('Steel - Satin',0.627450980392157,0.627450980392157,0.627450980392157);
ENDSEC;
END-ISO-10303-21;
